<svg width="185" height="49" viewBox="0 0 185 49" fill="none" xmlns="http://www.w3.org/2000/svg">
<g filter="url(#filter0_d_1528_3006)">
<rect x="4" y="0.972656" width="170" height="40" rx="20" fill="url(#paint0_linear_1528_3006)"/>
<path d="M29.4098 14.2527C29.8764 14.2527 30.3231 14.2993 30.7498 14.3927C31.1764 14.4727 31.5631 14.5727 31.9098 14.6927C32.2698 14.7993 32.5698 14.9127 32.8098 15.0327C33.0631 15.1527 33.2364 15.246 33.3298 15.3127L32.3498 17.0327L32.0898 16.8927C31.9164 16.7993 31.6898 16.6927 31.4098 16.5727C31.1298 16.4527 30.8231 16.346 30.4898 16.2527C30.1564 16.1593 29.8364 16.1127 29.5298 16.1127C29.0498 16.1127 28.6298 16.226 28.2698 16.4527C27.9231 16.6793 27.7498 17.0327 27.7498 17.5127C27.7498 18.1127 27.9431 18.606 28.3298 18.9927C28.7164 19.366 29.3231 19.7127 30.1498 20.0327C30.6831 20.246 31.1564 20.4727 31.5698 20.7127C31.9964 20.9393 32.3564 21.206 32.6498 21.5127C32.9431 21.8193 33.1631 22.1727 33.3098 22.5727C33.4698 22.9727 33.5498 23.4527 33.5498 24.0127C33.5498 24.5193 33.4498 25.0193 33.2498 25.5127C33.0631 26.006 32.7764 26.446 32.3898 26.8327C32.0164 27.206 31.5498 27.5127 30.9898 27.7527C30.4298 27.9793 29.7831 28.0927 29.0498 28.0927C28.5298 28.0927 28.0364 28.0393 27.5698 27.9327C27.1031 27.826 26.6764 27.706 26.2898 27.5727C25.9164 27.426 25.5898 27.2793 25.3098 27.1327C25.0431 26.986 24.8431 26.8727 24.7098 26.7927L25.5498 24.9527L25.9098 25.1527C26.1498 25.286 26.4431 25.4327 26.7898 25.5927C27.1364 25.7527 27.5031 25.8993 27.8898 26.0327C28.2764 26.166 28.6098 26.2327 28.8898 26.2327C29.5964 26.2327 30.1231 26.0593 30.4698 25.7127C30.8164 25.366 30.9898 24.8793 30.9898 24.2527C30.9898 23.9593 30.9431 23.706 30.8498 23.4927C30.7564 23.266 30.6231 23.0727 30.4498 22.9127C30.2764 22.7527 30.0631 22.6127 29.8098 22.4927C29.5698 22.3593 29.2964 22.2327 28.9898 22.1127C28.3898 21.8593 27.8498 21.606 27.3698 21.3527C26.9031 21.0993 26.5031 20.8127 26.1698 20.4927C25.8364 20.1593 25.5831 19.786 25.4098 19.3727C25.2364 18.946 25.1498 18.4393 25.1498 17.8527C25.1498 17.3593 25.2564 16.8993 25.4698 16.4727C25.6831 16.0327 25.9764 15.6527 26.3498 15.3327C26.7231 14.9993 27.1698 14.7393 27.6898 14.5527C28.2098 14.3527 28.7831 14.2527 29.4098 14.2527ZM34.5465 23.2327C34.5465 22.3393 34.6665 21.5527 34.9065 20.8727C35.1598 20.1927 35.4998 19.626 35.9265 19.1727C36.3665 18.706 36.8798 18.3593 37.4665 18.1327C38.0532 17.8927 38.6865 17.7727 39.3665 17.7727C39.9665 17.7727 40.4732 17.846 40.8865 17.9927C41.3132 18.1393 41.6598 18.3393 41.9265 18.5927C42.1932 18.846 42.3865 19.146 42.5065 19.4927C42.6398 19.8393 42.7065 20.2127 42.7065 20.6127C42.7065 21.0927 42.5732 21.5527 42.3065 21.9927C42.0398 22.4193 41.6532 22.7993 41.1465 23.1327C40.6532 23.4527 40.0532 23.7127 39.3465 23.9127C38.6398 24.0993 37.8465 24.1993 36.9665 24.2127C37.0065 24.5193 37.0665 24.8127 37.1465 25.0927C37.2398 25.3593 37.3665 25.5993 37.5265 25.8127C37.6998 26.0127 37.9198 26.1727 38.1865 26.2927C38.4532 26.4127 38.7865 26.4727 39.1865 26.4727C39.4798 26.4727 39.7932 26.4393 40.1265 26.3727C40.4598 26.306 40.7665 26.226 41.0465 26.1327C41.3798 26.026 41.7065 25.906 42.0265 25.7727L42.6265 27.1927C42.2798 27.366 41.9065 27.5193 41.5065 27.6527C41.1598 27.7727 40.7598 27.8793 40.3065 27.9727C39.8532 28.066 39.3732 28.1127 38.8665 28.1127C38.0932 28.1127 37.4332 27.9993 36.8865 27.7727C36.3398 27.5327 35.8932 27.1993 35.5465 26.7727C35.1998 26.346 34.9465 25.8327 34.7865 25.2327C34.6265 24.6327 34.5465 23.966 34.5465 23.2327ZM39.1865 19.3327C38.7465 19.3327 38.3798 19.4393 38.0865 19.6527C37.8065 19.8527 37.5798 20.1193 37.4065 20.4527C37.2332 20.7727 37.1065 21.1393 37.0265 21.5527C36.9598 21.9527 36.9198 22.3593 36.9065 22.7727C37.5465 22.746 38.0865 22.666 38.5265 22.5327C38.9798 22.386 39.3465 22.2127 39.6265 22.0127C39.9065 21.7993 40.1065 21.5727 40.2265 21.3327C40.3598 21.0927 40.4265 20.8527 40.4265 20.6127C40.4265 20.226 40.3132 19.9193 40.0865 19.6927C39.8598 19.4527 39.5598 19.3327 39.1865 19.3327ZM46.3196 28.0527C45.5596 28.0527 44.9996 27.846 44.6396 27.4327C44.2796 27.006 44.0996 26.466 44.0996 25.8127V13.8727L46.3796 13.4527V25.5927C46.3796 25.8993 46.4396 26.1127 46.5596 26.2327C46.6796 26.3527 46.8529 26.4127 47.0796 26.4127C47.2129 26.4127 47.3396 26.406 47.4596 26.3927C47.5929 26.3793 47.7129 26.3593 47.8196 26.3327C47.9396 26.306 48.0463 26.2793 48.1396 26.2527L48.4196 27.6927C48.2463 27.7593 48.0529 27.8193 47.8396 27.8727C47.6529 27.926 47.4329 27.966 47.1796 27.9927C46.9263 28.0327 46.6396 28.0527 46.3196 28.0527ZM57.367 23.1527C57.367 23.9527 57.4136 24.626 57.507 25.1727C57.6136 25.706 57.727 26.1393 57.847 26.4727C57.9936 26.8727 58.1536 27.186 58.327 27.4127L56.547 28.1327C56.3736 27.9593 56.2136 27.7527 56.067 27.5127C55.947 27.2993 55.8336 27.046 55.727 26.7527C55.6203 26.446 55.5536 26.086 55.527 25.6727C55.3003 26.4727 54.9336 27.0793 54.427 27.4927C53.9336 27.8927 53.2603 28.0927 52.407 28.0927C51.7803 28.0927 51.2336 27.9793 50.767 27.7527C50.3136 27.5127 49.9336 27.1793 49.627 26.7527C49.3203 26.3127 49.0936 25.786 48.947 25.1727C48.8003 24.5593 48.727 23.8793 48.727 23.1327C48.727 22.3727 48.8403 21.6727 49.067 21.0327C49.307 20.3793 49.6336 19.8193 50.047 19.3527C50.4736 18.886 50.9803 18.5193 51.567 18.2527C52.1536 17.986 52.8003 17.8527 53.507 17.8527C53.907 17.8527 54.3203 17.886 54.747 17.9527C55.187 18.006 55.5936 18.066 55.967 18.1327C56.3403 18.1993 56.6536 18.266 56.907 18.3327C57.1736 18.386 57.327 18.4193 57.367 18.4327V23.1527ZM52.787 26.4927C53.1203 26.4927 53.427 26.3793 53.707 26.1527C53.987 25.926 54.227 25.6327 54.427 25.2727C54.6403 24.8993 54.8003 24.4793 54.907 24.0127C55.027 23.5327 55.087 23.046 55.087 22.5527V19.6727C54.9536 19.6327 54.7536 19.586 54.487 19.5327C54.2203 19.4793 53.9803 19.4527 53.767 19.4527C53.2603 19.4527 52.8403 19.5393 52.507 19.7127C52.187 19.886 51.927 20.126 51.727 20.4327C51.527 20.7393 51.387 21.106 51.307 21.5327C51.227 21.9593 51.187 22.426 51.187 22.9327C51.187 23.3993 51.2003 23.846 51.227 24.2727C51.2536 24.6993 51.3203 25.0793 51.427 25.4127C51.547 25.746 51.7136 26.0127 51.927 26.2127C52.1403 26.3993 52.427 26.4927 52.787 26.4927ZM70.679 27.9727V21.4527C70.679 20.8927 70.5923 20.4527 70.419 20.1327C70.2457 19.7993 69.9457 19.6327 69.519 19.6327C69.2657 19.6327 69.0057 19.706 68.739 19.8527C68.4857 19.986 68.2523 20.186 68.039 20.4527C67.8257 20.7193 67.6523 21.0393 67.519 21.4127C67.3857 21.786 67.319 22.1993 67.319 22.6527V27.9727H65.059V21.4527C65.059 20.8927 64.9723 20.4527 64.799 20.1327C64.6257 19.7993 64.3257 19.6327 63.899 19.6327C63.6323 19.6327 63.3657 19.7127 63.099 19.8727C62.8457 20.0193 62.6123 20.2393 62.399 20.5327C62.199 20.826 62.0323 21.186 61.899 21.6127C61.779 22.026 61.719 22.4927 61.719 23.0127V27.9727H59.439V22.9327C59.439 22.1327 59.3857 21.466 59.279 20.9327C59.1723 20.386 59.059 19.946 58.939 19.6127C58.7923 19.226 58.6323 18.9127 58.459 18.6727L60.259 17.9527C60.3923 18.0993 60.5257 18.2793 60.659 18.4927C60.7657 18.6793 60.8723 18.9127 60.979 19.1927C61.0857 19.4593 61.1723 19.766 61.239 20.1127C61.5723 19.3127 62.039 18.7393 62.639 18.3927C63.2523 18.0327 63.899 17.8527 64.579 17.8527C65.259 17.8527 65.7857 18.026 66.159 18.3727C66.5457 18.7193 66.8323 19.166 67.019 19.7127C67.379 19.046 67.839 18.5727 68.399 18.2927C68.9723 17.9993 69.5723 17.8527 70.199 17.8527C70.719 17.8527 71.1523 17.9393 71.499 18.1127C71.859 18.2727 72.139 18.506 72.339 18.8127C72.5523 19.106 72.7057 19.466 72.799 19.8927C72.8923 20.306 72.939 20.7727 72.939 21.2927V27.9727H70.679ZM83.0709 23.1527C83.0709 23.9527 83.1175 24.626 83.2109 25.1727C83.3175 25.706 83.4309 26.1393 83.5509 26.4727C83.6975 26.8727 83.8575 27.186 84.0309 27.4127L82.2509 28.1327C82.0775 27.9593 81.9175 27.7527 81.7709 27.5127C81.6509 27.2993 81.5375 27.046 81.4309 26.7527C81.3242 26.446 81.2575 26.086 81.2309 25.6727C81.0042 26.4727 80.6375 27.0793 80.1309 27.4927C79.6375 27.8927 78.9642 28.0927 78.1109 28.0927C77.4842 28.0927 76.9375 27.9793 76.4709 27.7527C76.0175 27.5127 75.6375 27.1793 75.3309 26.7527C75.0242 26.3127 74.7975 25.786 74.6509 25.1727C74.5042 24.5593 74.4309 23.8793 74.4309 23.1327C74.4309 22.3727 74.5442 21.6727 74.7709 21.0327C75.0109 20.3793 75.3375 19.8193 75.7509 19.3527C76.1775 18.886 76.6842 18.5193 77.2709 18.2527C77.8575 17.986 78.5042 17.8527 79.2109 17.8527C79.6109 17.8527 80.0242 17.886 80.4509 17.9527C80.8909 18.006 81.2975 18.066 81.6709 18.1327C82.0442 18.1993 82.3575 18.266 82.6109 18.3327C82.8775 18.386 83.0309 18.4193 83.0709 18.4327V23.1527ZM78.4909 26.4927C78.8242 26.4927 79.1309 26.3793 79.4109 26.1527C79.6909 25.926 79.9309 25.6327 80.1309 25.2727C80.3442 24.8993 80.5042 24.4793 80.6109 24.0127C80.7309 23.5327 80.7909 23.046 80.7909 22.5527V19.6727C80.6575 19.6327 80.4575 19.586 80.1909 19.5327C79.9242 19.4793 79.6842 19.4527 79.4709 19.4527C78.9642 19.4527 78.5442 19.5393 78.2109 19.7127C77.8909 19.886 77.6309 20.126 77.4309 20.4327C77.2309 20.7393 77.0909 21.106 77.0109 21.5327C76.9309 21.9593 76.8909 22.426 76.8909 22.9327C76.8909 23.3993 76.9042 23.846 76.9309 24.2727C76.9575 24.6993 77.0242 25.0793 77.1309 25.4127C77.2509 25.746 77.4175 26.0127 77.6309 26.2127C77.8442 26.3993 78.1309 26.4927 78.4909 26.4927ZM84.2535 18.0127H86.0535L86.4535 15.6727L88.3335 15.2527V18.0127H90.7935L90.5135 19.6327H88.3335V25.5527C88.3335 25.8993 88.4268 26.126 88.6135 26.2327C88.8002 26.326 89.0068 26.3727 89.2335 26.3727C89.4202 26.3727 89.6068 26.3593 89.7935 26.3327C89.9802 26.306 90.1468 26.2727 90.2935 26.2327C90.4668 26.1927 90.6335 26.146 90.7935 26.0927L91.1735 27.5927L90.9935 27.6527C90.8735 27.706 90.6935 27.766 90.4535 27.8327C90.2268 27.886 89.9535 27.9327 89.6335 27.9727C89.3268 28.026 88.9868 28.0527 88.6135 28.0527C88.2402 28.0527 87.8935 28.0127 87.5735 27.9327C87.2668 27.8527 87.0002 27.726 86.7735 27.5527C86.5468 27.366 86.3668 27.1327 86.2335 26.8527C86.1135 26.5727 86.0535 26.226 86.0535 25.8127V19.6327H84.2535V18.0127ZM104.098 28.1327C104.071 28.1193 104.011 28.0593 103.918 27.9527C103.824 27.8327 103.718 27.6727 103.598 27.4727C103.491 27.2727 103.384 27.026 103.278 26.7327C103.171 26.426 103.104 26.0727 103.078 25.6727C102.851 26.4727 102.484 27.0793 101.978 27.4927C101.484 27.8927 100.811 28.0927 99.9577 28.0927C99.3311 28.0927 98.7844 27.9793 98.3177 27.7527C97.8644 27.5127 97.4844 27.1793 97.1777 26.7527C96.8711 26.3127 96.6444 25.786 96.4977 25.1727C96.3511 24.5593 96.2777 23.8793 96.2777 23.1327C96.2777 22.3727 96.3911 21.6727 96.6177 21.0327C96.8577 20.3793 97.1844 19.8193 97.5977 19.3527C98.0244 18.886 98.5311 18.5193 99.1177 18.2527C99.7044 17.986 100.351 17.8527 101.058 17.8527C101.298 17.8527 101.551 17.866 101.818 17.8927C102.098 17.9193 102.371 17.9527 102.638 17.9927V13.4727L104.918 13.8727V23.1527C104.918 23.9527 104.964 24.6193 105.058 25.1527C105.151 25.6727 105.258 26.0993 105.378 26.4327C105.498 26.7527 105.604 26.986 105.698 27.1327C105.804 27.2793 105.864 27.3727 105.878 27.4127L104.098 28.1327ZM100.338 26.4727C100.671 26.4727 100.978 26.3593 101.258 26.1327C101.538 25.906 101.778 25.6127 101.978 25.2527C102.191 24.8793 102.351 24.4593 102.458 23.9927C102.578 23.526 102.638 23.046 102.638 22.5527V19.6727C102.504 19.6327 102.304 19.586 102.038 19.5327C101.771 19.4793 101.531 19.4527 101.318 19.4527C100.811 19.4527 100.391 19.5393 100.058 19.7127C99.7377 19.886 99.4777 20.126 99.2777 20.4327C99.0777 20.7393 98.9377 21.106 98.8577 21.5327C98.7777 21.9593 98.7377 22.426 98.7377 22.9327C98.7377 23.3993 98.7511 23.846 98.7777 24.2727C98.8044 24.6993 98.8711 25.0793 98.9777 25.4127C99.0977 25.7327 99.2644 25.9927 99.4777 26.1927C99.6911 26.3793 99.9777 26.4727 100.338 26.4727ZM115.24 23.1527C115.24 23.9527 115.287 24.626 115.38 25.1727C115.487 25.706 115.6 26.1393 115.72 26.4727C115.867 26.8727 116.027 27.186 116.2 27.4127L114.42 28.1327C114.247 27.9593 114.087 27.7527 113.94 27.5127C113.82 27.2993 113.707 27.046 113.6 26.7527C113.494 26.446 113.427 26.086 113.4 25.6727C113.174 26.4727 112.807 27.0793 112.3 27.4927C111.807 27.8927 111.134 28.0927 110.28 28.0927C109.654 28.0927 109.107 27.9793 108.64 27.7527C108.187 27.5127 107.807 27.1793 107.5 26.7527C107.194 26.3127 106.967 25.786 106.82 25.1727C106.674 24.5593 106.6 23.8793 106.6 23.1327C106.6 22.3727 106.714 21.6727 106.94 21.0327C107.18 20.3793 107.507 19.8193 107.92 19.3527C108.347 18.886 108.854 18.5193 109.44 18.2527C110.027 17.986 110.674 17.8527 111.38 17.8527C111.78 17.8527 112.194 17.886 112.62 17.9527C113.06 18.006 113.467 18.066 113.84 18.1327C114.214 18.1993 114.527 18.266 114.78 18.3327C115.047 18.386 115.2 18.4193 115.24 18.4327V23.1527ZM110.66 26.4927C110.994 26.4927 111.3 26.3793 111.58 26.1527C111.86 25.926 112.1 25.6327 112.3 25.2727C112.514 24.8993 112.674 24.4793 112.78 24.0127C112.9 23.5327 112.96 23.046 112.96 22.5527V19.6727C112.827 19.6327 112.627 19.586 112.36 19.5327C112.094 19.4793 111.854 19.4527 111.64 19.4527C111.134 19.4527 110.714 19.5393 110.38 19.7127C110.06 19.886 109.8 20.126 109.6 20.4327C109.4 20.7393 109.26 21.106 109.18 21.5327C109.1 21.9593 109.06 22.426 109.06 22.9327C109.06 23.3993 109.074 23.846 109.1 24.2727C109.127 24.6993 109.194 25.0793 109.3 25.4127C109.42 25.746 109.587 26.0127 109.8 26.2127C110.014 26.3993 110.3 26.4927 110.66 26.4927ZM116.423 18.0127H118.223L118.623 15.6727L120.503 15.2527V18.0127H122.963L122.683 19.6327H120.503V25.5527C120.503 25.8993 120.596 26.126 120.783 26.2327C120.97 26.326 121.176 26.3727 121.403 26.3727C121.59 26.3727 121.776 26.3593 121.963 26.3327C122.15 26.306 122.316 26.2727 122.463 26.2327C122.636 26.1927 122.803 26.146 122.963 26.0927L123.343 27.5927L123.163 27.6527C123.043 27.706 122.863 27.766 122.623 27.8327C122.396 27.886 122.123 27.9327 121.803 27.9727C121.496 28.026 121.156 28.0527 120.783 28.0527C120.41 28.0527 120.063 28.0127 119.743 27.9327C119.436 27.8527 119.17 27.726 118.943 27.5527C118.716 27.366 118.536 27.1327 118.403 26.8527C118.283 26.5727 118.223 26.226 118.223 25.8127V19.6327H116.423V18.0127ZM132.097 23.1527C132.097 23.9527 132.143 24.626 132.237 25.1727C132.343 25.706 132.457 26.1393 132.577 26.4727C132.723 26.8727 132.883 27.186 133.057 27.4127L131.277 28.1327C131.103 27.9593 130.943 27.7527 130.797 27.5127C130.677 27.2993 130.563 27.046 130.457 26.7527C130.35 26.446 130.283 26.086 130.257 25.6727C130.03 26.4727 129.663 27.0793 129.157 27.4927C128.663 27.8927 127.99 28.0927 127.137 28.0927C126.51 28.0927 125.963 27.9793 125.497 27.7527C125.043 27.5127 124.663 27.1793 124.357 26.7527C124.05 26.3127 123.823 25.786 123.677 25.1727C123.53 24.5593 123.457 23.8793 123.457 23.1327C123.457 22.3727 123.57 21.6727 123.797 21.0327C124.037 20.3793 124.363 19.8193 124.777 19.3527C125.203 18.886 125.71 18.5193 126.297 18.2527C126.883 17.986 127.53 17.8527 128.237 17.8527C128.637 17.8527 129.05 17.886 129.477 17.9527C129.917 18.006 130.323 18.066 130.697 18.1327C131.07 18.1993 131.383 18.266 131.637 18.3327C131.903 18.386 132.057 18.4193 132.097 18.4327V23.1527ZM127.517 26.4927C127.85 26.4927 128.157 26.3793 128.437 26.1527C128.717 25.926 128.957 25.6327 129.157 25.2727C129.37 24.8993 129.53 24.4793 129.637 24.0127C129.757 23.5327 129.817 23.046 129.817 22.5527V19.6727C129.683 19.6327 129.483 19.586 129.217 19.5327C128.95 19.4793 128.71 19.4527 128.497 19.4527C127.99 19.4527 127.57 19.5393 127.237 19.7127C126.917 19.886 126.657 20.126 126.457 20.4327C126.257 20.7393 126.117 21.106 126.037 21.5327C125.957 21.9593 125.917 22.426 125.917 22.9327C125.917 23.3993 125.93 23.846 125.957 24.2727C125.983 24.6993 126.05 25.0793 126.157 25.4127C126.277 25.746 126.443 26.0127 126.657 26.2127C126.87 26.3993 127.157 26.4927 127.517 26.4927ZM140.189 27.9727V21.5127C140.189 20.9527 140.089 20.506 139.889 20.1727C139.689 19.826 139.349 19.6527 138.869 19.6527C138.562 19.6527 138.262 19.7327 137.969 19.8927C137.689 20.0393 137.435 20.2593 137.209 20.5527C136.982 20.846 136.795 21.206 136.649 21.6327C136.515 22.046 136.449 22.5127 136.449 23.0327V27.9727H134.169V22.9327C134.169 22.1327 134.115 21.466 134.009 20.9327C133.902 20.386 133.789 19.946 133.669 19.6127C133.522 19.226 133.362 18.9127 133.189 18.6727L134.989 17.9527C135.122 18.0993 135.255 18.2793 135.389 18.4927C135.495 18.6793 135.602 18.9127 135.709 19.1927C135.815 19.4593 135.902 19.766 135.969 20.1127C136.315 19.3127 136.815 18.7393 137.469 18.3927C138.122 18.0327 138.809 17.8527 139.529 17.8527C140.555 17.8527 141.295 18.166 141.749 18.7927C142.215 19.406 142.449 20.2393 142.449 21.2927V27.9727H140.189ZM146.065 29.7327C146.265 29.8127 146.479 29.8927 146.705 29.9727C146.932 30.066 147.172 30.1527 147.425 30.2327C147.679 30.3127 147.932 30.3793 148.185 30.4327C148.452 30.486 148.712 30.5127 148.965 30.5127C149.712 30.5127 150.252 30.286 150.585 29.8327C150.919 29.3927 151.085 28.8193 151.085 28.1127C151.085 27.4193 150.939 26.7193 150.645 26.0127C150.419 26.6927 150.059 27.2127 149.565 27.5727C149.085 27.9193 148.445 28.0927 147.645 28.0927C147.019 28.0927 146.472 27.9793 146.005 27.7527C145.552 27.5127 145.172 27.1793 144.865 26.7527C144.559 26.3127 144.332 25.786 144.185 25.1727C144.039 24.5593 143.965 23.8793 143.965 23.1327C143.965 22.3727 144.079 21.6727 144.305 21.0327C144.545 20.3793 144.872 19.8193 145.285 19.3527C145.712 18.886 146.219 18.5193 146.805 18.2527C147.392 17.986 148.039 17.8527 148.745 17.8527C149.065 17.8527 149.405 17.8727 149.765 17.9127C150.139 17.9527 150.499 18.006 150.845 18.0727C151.205 18.126 151.539 18.186 151.845 18.2527C152.165 18.3193 152.439 18.3793 152.665 18.4327L152.565 23.9327C152.552 24.3327 152.572 24.6993 152.625 25.0327C152.692 25.366 152.765 25.6993 152.845 26.0327C152.925 26.3527 152.999 26.6793 153.065 27.0127C153.132 27.346 153.165 27.7127 153.165 28.1127C153.165 29.526 152.805 30.5793 152.085 31.2727C151.365 31.966 150.392 32.3127 149.165 32.3127C148.765 32.3127 148.365 32.2727 147.965 32.1927C147.565 32.126 147.192 32.046 146.845 31.9527C146.512 31.8593 146.225 31.766 145.985 31.6727C145.745 31.5793 145.585 31.5127 145.505 31.4727L146.065 29.7327ZM148.025 26.4927C148.345 26.4927 148.639 26.386 148.905 26.1727C149.185 25.9593 149.432 25.6793 149.645 25.3327C149.859 24.9727 150.025 24.566 150.145 24.1127C150.265 23.6593 150.325 23.1927 150.325 22.7127V19.6727C150.192 19.6327 149.992 19.586 149.725 19.5327C149.459 19.4793 149.219 19.4527 149.005 19.4527C148.499 19.4527 148.079 19.5393 147.745 19.7127C147.425 19.886 147.165 20.126 146.965 20.4327C146.765 20.7393 146.625 21.106 146.545 21.5327C146.465 21.9593 146.425 22.426 146.425 22.9327C146.425 23.3993 146.439 23.846 146.465 24.2727C146.492 24.6993 146.559 25.0793 146.665 25.4127C146.785 25.746 146.952 26.0127 147.165 26.2127C147.379 26.3993 147.665 26.4927 148.025 26.4927Z" fill="#3F170D"/>
<path d="M178.5 37.4727C174.9 37.0727 171.833 32.9727 171 30.9727C169.4 33.3727 165.667 36.306 164 37.4727C164.667 37.806 167.5 38.5727 171.5 38.9727C176.5 39.4727 183 37.9727 178.5 37.4727Z" fill="#B8881A"/>
</g>
<defs>
<filter id="filter0_d_1528_3006" x="0" y="0.972656" width="184.012" height="48" filterUnits="userSpaceOnUse" color-interpolation-filters="sRGB">
<feFlood flood-opacity="0" result="BackgroundImageFix"/>
<feColorMatrix in="SourceAlpha" type="matrix" values="0 0 0 0 0 0 0 0 0 0 0 0 0 0 0 0 0 0 127 0" result="hardAlpha"/>
<feOffset dy="4"/>
<feGaussianBlur stdDeviation="2"/>
<feComposite in2="hardAlpha" operator="out"/>
<feColorMatrix type="matrix" values="0 0 0 0 0 0 0 0 0 0 0 0 0 0 0 0 0 0 0.25 0"/>
<feBlend mode="normal" in2="BackgroundImageFix" result="effect1_dropShadow_1528_3006"/>
<feBlend mode="normal" in="SourceGraphic" in2="effect1_dropShadow_1528_3006" result="shape"/>
</filter>
<linearGradient id="paint0_linear_1528_3006" x1="89" y1="0.972656" x2="89" y2="40.9727" gradientUnits="userSpaceOnUse">
<stop stop-color="#CE9C17"/>
<stop offset="0.520386" stop-color="#CD9514"/>
<stop offset="1" stop-color="#CC8F12"/>
</linearGradient>
</defs>
</svg>
