<svg width="181" height="48" viewBox="0 0 181 48" fill="none" xmlns="http://www.w3.org/2000/svg">
<g filter="url(#filter0_d_1531_6863)">
<rect x="4" width="169" height="40" rx="20" fill="url(#paint0_linear_1531_6863)"/>
<path d="M33.0687 27H31.3887L29.1287 21.86C29.0621 21.7133 28.9754 21.5133 28.8687 21.26C28.7754 21.0067 28.6687 20.7267 28.5487 20.42C28.4287 20.1133 28.3021 19.7933 28.1687 19.46C28.0354 19.1133 27.9087 18.7667 27.7887 18.42C27.7887 18.7667 27.7821 19.1133 27.7687 19.46C27.7687 19.7933 27.7621 20.1133 27.7487 20.42C27.7354 20.7133 27.7221 20.98 27.7087 21.22C27.7087 21.4467 27.7087 21.6267 27.7087 21.76L27.5087 27H25.2687L26.0687 13.42H27.9287L31.3487 21.9C31.4687 22.2067 31.6021 22.54 31.7487 22.9C31.9087 23.26 32.0554 23.6133 32.1887 23.96C32.3221 23.6133 32.4621 23.2667 32.6087 22.92C32.7554 22.56 32.8954 22.22 33.0287 21.9L36.4687 13.42H38.2887L39.0887 27H36.8687L36.6487 21.82C36.6354 21.4867 36.6154 21.0133 36.5887 20.4C36.5754 19.7733 36.5621 19.14 36.5487 18.5C36.4287 18.8333 36.3021 19.1667 36.1687 19.5C36.0487 19.8333 35.9354 20.1467 35.8287 20.44C35.7221 20.7333 35.6221 21 35.5287 21.24C35.4354 21.48 35.3621 21.6667 35.3087 21.8L33.0687 27ZM49.1025 22.18C49.1025 22.98 49.1492 23.6533 49.2425 24.2C49.3492 24.7333 49.4625 25.1667 49.5825 25.5C49.7292 25.9 49.8892 26.2133 50.0625 26.44L48.2825 27.16C48.1092 26.9867 47.9492 26.78 47.8025 26.54C47.6825 26.3267 47.5692 26.0733 47.4625 25.78C47.3558 25.4733 47.2892 25.1133 47.2625 24.7C47.0358 25.5 46.6692 26.1067 46.1625 26.52C45.6692 26.92 44.9958 27.12 44.1425 27.12C43.5158 27.12 42.9692 27.0067 42.5025 26.78C42.0492 26.54 41.6692 26.2067 41.3625 25.78C41.0558 25.34 40.8292 24.8133 40.6825 24.2C40.5358 23.5867 40.4625 22.9067 40.4625 22.16C40.4625 21.4 40.5758 20.7 40.8025 20.06C41.0425 19.4067 41.3692 18.8467 41.7825 18.38C42.2092 17.9133 42.7158 17.5467 43.3025 17.28C43.8892 17.0133 44.5358 16.88 45.2425 16.88C45.6425 16.88 46.0558 16.9133 46.4825 16.98C46.9225 17.0333 47.3292 17.0933 47.7025 17.16C48.0758 17.2267 48.3892 17.2933 48.6425 17.36C48.9092 17.4133 49.0625 17.4467 49.1025 17.46V22.18ZM44.5225 25.52C44.8558 25.52 45.1625 25.4067 45.4425 25.18C45.7225 24.9533 45.9625 24.66 46.1625 24.3C46.3758 23.9267 46.5358 23.5067 46.6425 23.04C46.7625 22.56 46.8225 22.0733 46.8225 21.58V18.7C46.6892 18.66 46.4892 18.6133 46.2225 18.56C45.9558 18.5067 45.7158 18.48 45.5025 18.48C44.9958 18.48 44.5758 18.5667 44.2425 18.74C43.9225 18.9133 43.6625 19.1533 43.4625 19.46C43.2625 19.7667 43.1225 20.1333 43.0425 20.56C42.9625 20.9867 42.9225 21.4533 42.9225 21.96C42.9225 22.4267 42.9358 22.8733 42.9625 23.3C42.9892 23.7267 43.0558 24.1067 43.1625 24.44C43.2825 24.7733 43.4492 25.04 43.6625 25.24C43.8758 25.4267 44.1625 25.52 44.5225 25.52ZM54.3252 16.8C54.7118 16.8 55.0918 16.84 55.4652 16.92C55.8385 17 56.1718 17.0933 56.4652 17.2C56.8118 17.32 57.1318 17.4467 57.4252 17.58L56.7452 19.14C56.4785 19.02 56.2118 18.9133 55.9452 18.82C55.7185 18.74 55.4652 18.6667 55.1852 18.6C54.9185 18.52 54.6518 18.48 54.3852 18.48C54.0785 18.48 53.8118 18.5533 53.5852 18.7C53.3718 18.8467 53.2652 19.0667 53.2652 19.36C53.2652 20.12 53.8185 20.7133 54.9252 21.14C55.3385 21.3 55.7118 21.4733 56.0452 21.66C56.3785 21.8333 56.6585 22.04 56.8852 22.28C57.1252 22.52 57.3052 22.8 57.4252 23.12C57.5452 23.4267 57.6052 23.7933 57.6052 24.22C57.6052 24.5933 57.5252 24.96 57.3652 25.32C57.2185 25.68 56.9918 26 56.6852 26.28C56.3918 26.56 56.0252 26.7867 55.5852 26.96C55.1585 27.12 54.6718 27.2 54.1252 27.2C53.6852 27.2 53.2518 27.1467 52.8252 27.04C52.3985 26.9467 52.0118 26.84 51.6652 26.72C51.3318 26.6 51.0652 26.4867 50.8652 26.38L50.5652 26.24L51.3052 24.56L51.5652 24.7C51.7385 24.8067 51.9585 24.92 52.2252 25.04C52.4918 25.16 52.7785 25.2733 53.0852 25.38C53.3918 25.4733 53.6718 25.52 53.9252 25.52C54.3918 25.52 54.7385 25.4267 54.9652 25.24C55.1918 25.0533 55.3052 24.8067 55.3052 24.5C55.3052 24.1533 55.1785 23.84 54.9252 23.56C54.6852 23.2667 54.3185 23.0267 53.8252 22.84C52.7985 22.4533 52.0585 22.0133 51.6052 21.52C51.1652 21.0267 50.9452 20.3867 50.9452 19.6C50.9452 19.2267 51.0318 18.8733 51.2052 18.54C51.3785 18.1933 51.6118 17.8933 51.9052 17.64C52.2118 17.3733 52.5718 17.1667 52.9852 17.02C53.3985 16.8733 53.8452 16.8 54.3252 16.8ZM61.3273 27.08C60.6207 27.08 60.0807 26.8733 59.7073 26.46C59.334 26.0333 59.1473 25.4867 59.1473 24.82V17.04H61.4273V24.62C61.4273 24.9267 61.474 25.1333 61.5673 25.24C61.6607 25.3467 61.8007 25.4 61.9873 25.4C62.0407 25.4 62.094 25.4 62.1473 25.4C62.214 25.4 62.274 25.3933 62.3273 25.38C62.3807 25.38 62.4407 25.3733 62.5073 25.36L62.7473 26.8C62.654 26.8533 62.534 26.9 62.3873 26.94C62.2673 26.98 62.114 27.0133 61.9273 27.04C61.754 27.0667 61.554 27.08 61.3273 27.08ZM60.3273 12.6C60.754 12.6 61.0807 12.7267 61.3073 12.98C61.534 13.2333 61.6473 13.56 61.6473 13.96C61.6473 14.36 61.5273 14.6933 61.2873 14.96C61.0607 15.2267 60.7207 15.36 60.2673 15.36C59.8407 15.36 59.5073 15.2333 59.2673 14.98C59.0407 14.7133 58.9273 14.3933 58.9273 14.02C58.9273 13.6067 59.0407 13.2667 59.2673 13C59.5073 12.7333 59.8607 12.6 60.3273 12.6ZM66.2245 18.32C66.6112 17.8133 67.0712 17.4467 67.6045 17.22C68.1512 16.9933 68.7245 16.88 69.3245 16.88C70.3512 16.88 71.0912 17.1933 71.5445 17.82C72.0112 18.4333 72.2445 19.2667 72.2445 20.32V27H69.9645V20.48C69.9645 19.92 69.8645 19.48 69.6645 19.16C69.4645 18.8267 69.1245 18.66 68.6445 18.66C68.3645 18.66 68.0779 18.7333 67.7845 18.88C67.5045 19.0267 67.2445 19.24 67.0045 19.52C66.7779 19.7867 66.5912 20.1067 66.4445 20.48C66.2979 20.8533 66.2245 21.2667 66.2245 21.72V27H63.9445V12.9L66.2245 12.5V18.32ZM79.043 12.9L81.323 12.5V18.6C81.563 18.0533 81.8963 17.6333 82.323 17.34C82.763 17.0333 83.323 16.88 84.003 16.88C84.6296 16.88 85.1696 17 85.623 17.24C86.0896 17.4667 86.4763 17.8 86.783 18.24C87.0896 18.6667 87.3163 19.1867 87.463 19.8C87.6096 20.4133 87.683 21.0933 87.683 21.84C87.683 22.6 87.563 23.3067 87.323 23.96C87.0963 24.6 86.7696 25.1533 86.343 25.62C85.9296 26.0867 85.4296 26.4533 84.843 26.72C84.2563 26.9867 83.6096 27.12 82.903 27.12C82.503 27.12 82.0763 27.0867 81.623 27.02C81.1696 26.9667 80.7496 26.9067 80.363 26.84C79.923 26.76 79.483 26.66 79.043 26.54V12.9ZM83.623 18.48C83.2896 18.48 82.983 18.5933 82.703 18.82C82.423 19.0467 82.1763 19.3467 81.963 19.72C81.763 20.0933 81.603 20.5133 81.483 20.98C81.3763 21.4467 81.323 21.9267 81.323 22.42V25.32C81.443 25.3467 81.6363 25.3867 81.903 25.44C82.1696 25.4933 82.4163 25.52 82.643 25.52C83.1363 25.52 83.5496 25.4333 83.883 25.26C84.2163 25.0867 84.483 24.8467 84.683 24.54C84.883 24.2333 85.023 23.8667 85.103 23.44C85.183 23.0133 85.223 22.5467 85.223 22.04C85.223 21.5733 85.2096 21.1267 85.183 20.7C85.1563 20.2733 85.083 19.8933 84.963 19.56C84.8563 19.2267 84.6963 18.9667 84.483 18.78C84.2696 18.58 83.983 18.48 83.623 18.48ZM91.3875 27.08C90.6808 27.08 90.1408 26.8733 89.7675 26.46C89.3942 26.0333 89.2075 25.4867 89.2075 24.82V17.04H91.4875V24.62C91.4875 24.9267 91.5342 25.1333 91.6275 25.24C91.7208 25.3467 91.8608 25.4 92.0475 25.4C92.1008 25.4 92.1542 25.4 92.2075 25.4C92.2742 25.4 92.3342 25.3933 92.3875 25.38C92.4408 25.38 92.5008 25.3733 92.5675 25.36L92.8075 26.8C92.7142 26.8533 92.5942 26.9 92.4475 26.94C92.3275 26.98 92.1742 27.0133 91.9875 27.04C91.8142 27.0667 91.6142 27.08 91.3875 27.08ZM90.3875 12.6C90.8142 12.6 91.1408 12.7267 91.3675 12.98C91.5942 13.2333 91.7075 13.56 91.7075 13.96C91.7075 14.36 91.5875 14.6933 91.3475 14.96C91.1208 15.2267 90.7808 15.36 90.3275 15.36C89.9008 15.36 89.5675 15.2333 89.3275 14.98C89.1008 14.7133 88.9875 14.3933 88.9875 14.02C88.9875 13.6067 89.1008 13.2667 89.3275 13C89.5675 12.7333 89.9208 12.6 90.3875 12.6ZM100.205 27V20.54C100.205 19.98 100.105 19.5333 99.9047 19.2C99.7047 18.8533 99.3647 18.68 98.8847 18.68C98.578 18.68 98.278 18.76 97.9847 18.92C97.7047 19.0667 97.4514 19.2867 97.2247 19.58C96.998 19.8733 96.8114 20.2333 96.6647 20.66C96.5314 21.0733 96.4647 21.54 96.4647 22.06V27H94.1847V21.96C94.1847 21.16 94.1314 20.4933 94.0247 19.96C93.918 19.4133 93.8047 18.9733 93.6847 18.64C93.538 18.2533 93.378 17.94 93.2047 17.7L95.0047 16.98C95.138 17.1267 95.2714 17.3067 95.4047 17.52C95.5114 17.7067 95.618 17.94 95.7247 18.22C95.8314 18.4867 95.918 18.7933 95.9847 19.14C96.3314 18.34 96.8314 17.7667 97.4847 17.42C98.138 17.06 98.8247 16.88 99.5447 16.88C100.571 16.88 101.311 17.1933 101.765 17.82C102.231 18.4333 102.465 19.2667 102.465 20.32V27H100.205ZM106.081 28.76C106.281 28.84 106.495 28.92 106.721 29C106.948 29.0933 107.188 29.18 107.441 29.26C107.695 29.34 107.948 29.4067 108.201 29.46C108.468 29.5133 108.728 29.54 108.981 29.54C109.728 29.54 110.268 29.3133 110.601 28.86C110.935 28.42 111.101 27.8467 111.101 27.14C111.101 26.4467 110.955 25.7467 110.661 25.04C110.435 25.72 110.075 26.24 109.581 26.6C109.101 26.9467 108.461 27.12 107.661 27.12C107.035 27.12 106.488 27.0067 106.021 26.78C105.568 26.54 105.188 26.2067 104.881 25.78C104.575 25.34 104.348 24.8133 104.201 24.2C104.055 23.5867 103.981 22.9067 103.981 22.16C103.981 21.4 104.095 20.7 104.321 20.06C104.561 19.4067 104.888 18.8467 105.301 18.38C105.728 17.9133 106.235 17.5467 106.821 17.28C107.408 17.0133 108.055 16.88 108.761 16.88C109.081 16.88 109.421 16.9 109.781 16.94C110.155 16.98 110.515 17.0333 110.861 17.1C111.221 17.1533 111.555 17.2133 111.861 17.28C112.181 17.3467 112.455 17.4067 112.681 17.46L112.581 22.96C112.568 23.36 112.588 23.7267 112.641 24.06C112.708 24.3933 112.781 24.7267 112.861 25.06C112.941 25.38 113.015 25.7067 113.081 26.04C113.148 26.3733 113.181 26.74 113.181 27.14C113.181 28.5533 112.821 29.6067 112.101 30.3C111.381 30.9933 110.408 31.34 109.181 31.34C108.781 31.34 108.381 31.3 107.981 31.22C107.581 31.1533 107.208 31.0733 106.861 30.98C106.528 30.8867 106.241 30.7933 106.001 30.7C105.761 30.6067 105.601 30.54 105.521 30.5L106.081 28.76ZM108.041 25.52C108.361 25.52 108.655 25.4133 108.921 25.2C109.201 24.9867 109.448 24.7067 109.661 24.36C109.875 24 110.041 23.5933 110.161 23.14C110.281 22.6867 110.341 22.22 110.341 21.74V18.7C110.208 18.66 110.008 18.6133 109.741 18.56C109.475 18.5067 109.235 18.48 109.021 18.48C108.515 18.48 108.095 18.5667 107.761 18.74C107.441 18.9133 107.181 19.1533 106.981 19.46C106.781 19.7667 106.641 20.1333 106.561 20.56C106.481 20.9867 106.441 21.4533 106.441 21.96C106.441 22.4267 106.455 22.8733 106.481 23.3C106.508 23.7267 106.575 24.1067 106.681 24.44C106.801 24.7733 106.968 25.04 107.181 25.24C107.395 25.4267 107.681 25.52 108.041 25.52ZM120.726 17.04H123.006V22.18C123.006 22.98 123.053 23.6533 123.146 24.2C123.253 24.7333 123.366 25.1667 123.486 25.5C123.633 25.9 123.793 26.2133 123.966 26.44L122.186 27.16C122.026 27.0133 121.88 26.8267 121.746 26.6C121.64 26.4133 121.526 26.1867 121.406 25.92C121.3 25.64 121.226 25.3133 121.186 24.94C120.826 25.7267 120.32 26.2867 119.666 26.62C119.013 26.9533 118.333 27.12 117.626 27.12C116.573 27.12 115.82 26.8133 115.366 26.2C114.926 25.5867 114.706 24.7467 114.706 23.68V17.04H116.986V23.64C116.986 24.2 117.086 24.64 117.286 24.96C117.486 25.28 117.826 25.44 118.306 25.44C118.6 25.44 118.886 25.36 119.166 25.2C119.46 25.0267 119.72 24.7867 119.946 24.48C120.186 24.1733 120.373 23.8067 120.506 23.38C120.653 22.94 120.726 22.4533 120.726 21.92V17.04ZM131.583 27V20.54C131.583 19.98 131.483 19.5333 131.283 19.2C131.083 18.8533 130.743 18.68 130.263 18.68C129.956 18.68 129.656 18.76 129.363 18.92C129.083 19.0667 128.829 19.2867 128.603 19.58C128.376 19.8733 128.189 20.2333 128.043 20.66C127.909 21.0733 127.843 21.54 127.843 22.06V27H125.563V21.96C125.563 21.16 125.509 20.4933 125.403 19.96C125.296 19.4133 125.183 18.9733 125.063 18.64C124.916 18.2533 124.756 17.94 124.583 17.7L126.383 16.98C126.516 17.1267 126.649 17.3067 126.783 17.52C126.889 17.7067 126.996 17.94 127.103 18.22C127.209 18.4867 127.296 18.7933 127.363 19.14C127.709 18.34 128.209 17.7667 128.863 17.42C129.516 17.06 130.203 16.88 130.923 16.88C131.949 16.88 132.689 17.1933 133.143 17.82C133.609 18.4333 133.843 19.2667 133.843 20.32V27H131.583ZM137.459 28.76C137.659 28.84 137.873 28.92 138.099 29C138.326 29.0933 138.566 29.18 138.819 29.26C139.073 29.34 139.326 29.4067 139.579 29.46C139.846 29.5133 140.106 29.54 140.359 29.54C141.106 29.54 141.646 29.3133 141.979 28.86C142.313 28.42 142.479 27.8467 142.479 27.14C142.479 26.4467 142.333 25.7467 142.039 25.04C141.813 25.72 141.453 26.24 140.959 26.6C140.479 26.9467 139.839 27.12 139.039 27.12C138.413 27.12 137.866 27.0067 137.399 26.78C136.946 26.54 136.566 26.2067 136.259 25.78C135.953 25.34 135.726 24.8133 135.579 24.2C135.433 23.5867 135.359 22.9067 135.359 22.16C135.359 21.4 135.473 20.7 135.699 20.06C135.939 19.4067 136.266 18.8467 136.679 18.38C137.106 17.9133 137.613 17.5467 138.199 17.28C138.786 17.0133 139.433 16.88 140.139 16.88C140.459 16.88 140.799 16.9 141.159 16.94C141.533 16.98 141.893 17.0333 142.239 17.1C142.599 17.1533 142.933 17.2133 143.239 17.28C143.559 17.3467 143.833 17.4067 144.059 17.46L143.959 22.96C143.946 23.36 143.966 23.7267 144.019 24.06C144.086 24.3933 144.159 24.7267 144.239 25.06C144.319 25.38 144.393 25.7067 144.459 26.04C144.526 26.3733 144.559 26.74 144.559 27.14C144.559 28.5533 144.199 29.6067 143.479 30.3C142.759 30.9933 141.786 31.34 140.559 31.34C140.159 31.34 139.759 31.3 139.359 31.22C138.959 31.1533 138.586 31.0733 138.239 30.98C137.906 30.8867 137.619 30.7933 137.379 30.7C137.139 30.6067 136.979 30.54 136.899 30.5L137.459 28.76ZM139.419 25.52C139.739 25.52 140.033 25.4133 140.299 25.2C140.579 24.9867 140.826 24.7067 141.039 24.36C141.253 24 141.419 23.5933 141.539 23.14C141.659 22.6867 141.719 22.22 141.719 21.74V18.7C141.586 18.66 141.386 18.6133 141.119 18.56C140.853 18.5067 140.613 18.48 140.399 18.48C139.893 18.48 139.473 18.5667 139.139 18.74C138.819 18.9133 138.559 19.1533 138.359 19.46C138.159 19.7667 138.019 20.1333 137.939 20.56C137.859 20.9867 137.819 21.4533 137.819 21.96C137.819 22.4267 137.833 22.8733 137.859 23.3C137.886 23.7267 137.953 24.1067 138.059 24.44C138.179 24.7733 138.346 25.04 138.559 25.24C138.773 25.4267 139.059 25.52 139.419 25.52ZM148.659 13.26C149.832 13.26 150.759 13.4933 151.439 13.96C152.119 14.4267 152.459 15.1933 152.459 16.26C152.459 16.6467 152.399 17.02 152.279 17.38C152.159 17.7267 151.999 18.0667 151.799 18.4C151.612 18.72 151.392 19.04 151.139 19.36C150.899 19.6667 150.659 19.9667 150.419 20.26C150.046 20.7267 149.706 21.1867 149.399 21.64C149.106 22.0933 148.886 22.5667 148.739 23.06L147.059 22.6C147.059 21.9067 147.206 21.2733 147.499 20.7C147.792 20.1267 148.119 19.6 148.479 19.12C148.839 18.64 149.166 18.1933 149.459 17.78C149.752 17.3533 149.899 16.94 149.899 16.54C149.899 16.0467 149.759 15.6667 149.479 15.4C149.199 15.1333 148.826 15 148.359 15C148.146 15 147.946 15.02 147.759 15.06C147.586 15.1 147.406 15.1533 147.219 15.22C147.032 15.2867 146.832 15.3733 146.619 15.48C146.406 15.5867 146.152 15.7067 145.859 15.84L145.079 14.26C145.626 14.0067 146.186 13.78 146.759 13.58C147.346 13.3667 147.979 13.26 148.659 13.26ZM148.019 24.2C148.486 24.2 148.846 24.34 149.099 24.62C149.352 24.9 149.479 25.26 149.479 25.7C149.479 26.1267 149.352 26.4867 149.099 26.78C148.846 27.0733 148.466 27.22 147.959 27.22C147.492 27.22 147.132 27.0733 146.879 26.78C146.639 26.4867 146.519 26.14 146.519 25.74C146.519 25.3133 146.646 24.9533 146.899 24.66C147.152 24.3533 147.526 24.2 148.019 24.2Z" fill="#3F170D"/>
<path d="M175 37.5C171.4 37.1 168.333 33 167.5 31C165.9 33.4 162.167 36.3333 160.5 37.5C161.167 37.8333 164 38.6 168 39C173 39.5 179.5 38 175 37.5Z" fill="#B8881A"/>
</g>
<defs>
<filter id="filter0_d_1531_6863" x="0" y="0" width="180.512" height="48" filterUnits="userSpaceOnUse" color-interpolation-filters="sRGB">
<feFlood flood-opacity="0" result="BackgroundImageFix"/>
<feColorMatrix in="SourceAlpha" type="matrix" values="0 0 0 0 0 0 0 0 0 0 0 0 0 0 0 0 0 0 127 0" result="hardAlpha"/>
<feOffset dy="4"/>
<feGaussianBlur stdDeviation="2"/>
<feComposite in2="hardAlpha" operator="out"/>
<feColorMatrix type="matrix" values="0 0 0 0 0 0 0 0 0 0 0 0 0 0 0 0 0 0 0.25 0"/>
<feBlend mode="normal" in2="BackgroundImageFix" result="effect1_dropShadow_1531_6863"/>
<feBlend mode="normal" in="SourceGraphic" in2="effect1_dropShadow_1531_6863" result="shape"/>
</filter>
<linearGradient id="paint0_linear_1531_6863" x1="88.5" y1="0" x2="88.5" y2="40" gradientUnits="userSpaceOnUse">
<stop stop-color="#CE9C17"/>
<stop offset="0.520386" stop-color="#CD9514"/>
<stop offset="1" stop-color="#CC8F12"/>
</linearGradient>
</defs>
</svg>
