<svg width="178" height="48" viewBox="0 0 178 48" fill="none" xmlns="http://www.w3.org/2000/svg">
<g filter="url(#filter0_d_1531_6924)">
<rect width="164" height="40" rx="20" transform="matrix(-1 0 0 1 173.512 0)" fill="url(#paint0_linear_1531_6924)"/>
<path d="M39.6018 13.46L39.3018 15.26H35.9418V27H33.5818V15.26H30.1618V13.46H39.6018ZM47.1635 22.18C47.1635 22.98 47.2102 23.6533 47.3035 24.2C47.4102 24.7333 47.5235 25.1667 47.6435 25.5C47.7902 25.9 47.9502 26.2133 48.1235 26.44L46.3435 27.16C46.1702 26.9867 46.0102 26.78 45.8635 26.54C45.7435 26.3267 45.6302 26.0733 45.5235 25.78C45.4169 25.4733 45.3502 25.1133 45.3235 24.7C45.0969 25.5 44.7302 26.1067 44.2235 26.52C43.7302 26.92 43.0569 27.12 42.2035 27.12C41.5769 27.12 41.0302 27.0067 40.5635 26.78C40.1102 26.54 39.7302 26.2067 39.4235 25.78C39.1169 25.34 38.8902 24.8133 38.7435 24.2C38.5969 23.5867 38.5235 22.9067 38.5235 22.16C38.5235 21.4 38.6369 20.7 38.8635 20.06C39.1035 19.4067 39.4302 18.8467 39.8435 18.38C40.2702 17.9133 40.7769 17.5467 41.3635 17.28C41.9502 17.0133 42.5969 16.88 43.3035 16.88C43.7035 16.88 44.1169 16.9133 44.5435 16.98C44.9835 17.0333 45.3902 17.0933 45.7635 17.16C46.1369 17.2267 46.4502 17.2933 46.7035 17.36C46.9702 17.4133 47.1235 17.4467 47.1635 17.46V22.18ZM42.5835 25.52C42.9169 25.52 43.2235 25.4067 43.5035 25.18C43.7835 24.9533 44.0235 24.66 44.2235 24.3C44.4369 23.9267 44.5969 23.5067 44.7035 23.04C44.8235 22.56 44.8835 22.0733 44.8835 21.58V18.7C44.7502 18.66 44.5502 18.6133 44.2835 18.56C44.0169 18.5067 43.7769 18.48 43.5635 18.48C43.0569 18.48 42.6369 18.5667 42.3035 18.74C41.9835 18.9133 41.7235 19.1533 41.5235 19.46C41.3235 19.7667 41.1835 20.1333 41.1035 20.56C41.0235 20.9867 40.9835 21.4533 40.9835 21.96C40.9835 22.4267 40.9969 22.8733 41.0235 23.3C41.0502 23.7267 41.1169 24.1067 41.2235 24.44C41.3435 24.7733 41.5102 25.04 41.7235 25.24C41.9369 25.4267 42.2235 25.52 42.5835 25.52ZM55.2556 27V20.54C55.2556 19.98 55.1556 19.5333 54.9556 19.2C54.7556 18.8533 54.4156 18.68 53.9356 18.68C53.6289 18.68 53.3289 18.76 53.0356 18.92C52.7556 19.0667 52.5022 19.2867 52.2756 19.58C52.0489 19.8733 51.8622 20.2333 51.7156 20.66C51.5822 21.0733 51.5156 21.54 51.5156 22.06V27H49.2356V21.96C49.2356 21.16 49.1822 20.4933 49.0756 19.96C48.9689 19.4133 48.8556 18.9733 48.7356 18.64C48.5889 18.2533 48.4289 17.94 48.2556 17.7L50.0556 16.98C50.1889 17.1267 50.3222 17.3067 50.4556 17.52C50.5622 17.7067 50.6689 17.94 50.7756 18.22C50.8822 18.4867 50.9689 18.7933 51.0356 19.14C51.3822 18.34 51.8822 17.7667 52.5356 17.42C53.1889 17.06 53.8756 16.88 54.5956 16.88C55.6222 16.88 56.3622 17.1933 56.8156 17.82C57.2822 18.4333 57.5156 19.2667 57.5156 20.32V27H55.2556ZM67.7721 22.96C67.7721 23.36 67.7988 23.7267 67.8521 24.06C67.9188 24.3933 67.9855 24.7267 68.0521 25.06C68.1321 25.38 68.2055 25.7067 68.2721 26.04C68.3388 26.3733 68.3721 26.74 68.3721 27.14C68.3721 28.5533 68.0121 29.6067 67.2921 30.3C66.5721 30.9933 65.5988 31.34 64.3721 31.34C63.9721 31.34 63.5721 31.3 63.1721 31.22C62.7721 31.1533 62.3988 31.0733 62.0521 30.98C61.7188 30.8867 61.4321 30.7933 61.1921 30.7C60.9521 30.6067 60.7921 30.54 60.7121 30.5L61.2721 28.76C61.4588 28.84 61.6655 28.92 61.8921 29C62.1321 29.0933 62.3721 29.18 62.6121 29.26C62.8655 29.34 63.1255 29.4067 63.3921 29.46C63.6588 29.5133 63.9188 29.54 64.1721 29.54C64.9188 29.54 65.4588 29.3133 65.7921 28.86C66.1255 28.42 66.2921 27.8467 66.2921 27.14C66.2921 26.5 66.1588 25.84 65.8921 25.16C65.5188 25.8667 65.0188 26.3733 64.3921 26.68C63.7788 26.9733 63.1321 27.12 62.4521 27.12C61.3988 27.12 60.6455 26.8133 60.1921 26.2C59.7521 25.5867 59.5321 24.7467 59.5321 23.68V17.04H61.8121V23.62C61.8121 24.18 61.9121 24.62 62.1121 24.94C62.3121 25.26 62.6521 25.42 63.1321 25.42C63.3855 25.42 63.6521 25.3467 63.9321 25.2C64.2255 25.0533 64.4855 24.8533 64.7121 24.6C64.9521 24.3333 65.1455 24.02 65.2921 23.66C65.4521 23.2867 65.5321 22.8867 65.5321 22.46V17.04H67.8721L67.7721 22.96ZM78.0338 22.18C78.0338 22.98 78.0805 23.6533 78.1738 24.2C78.2805 24.7333 78.3938 25.1667 78.5138 25.5C78.6605 25.9 78.8205 26.2133 78.9938 26.44L77.2138 27.16C77.0405 26.9867 76.8805 26.78 76.7338 26.54C76.6138 26.3267 76.5005 26.0733 76.3938 25.78C76.2872 25.4733 76.2205 25.1133 76.1938 24.7C75.9672 25.5 75.6005 26.1067 75.0938 26.52C74.6005 26.92 73.9272 27.12 73.0738 27.12C72.4472 27.12 71.9005 27.0067 71.4338 26.78C70.9805 26.54 70.6005 26.2067 70.2938 25.78C69.9872 25.34 69.7605 24.8133 69.6138 24.2C69.4672 23.5867 69.3938 22.9067 69.3938 22.16C69.3938 21.4 69.5072 20.7 69.7338 20.06C69.9738 19.4067 70.3005 18.8467 70.7138 18.38C71.1405 17.9133 71.6472 17.5467 72.2338 17.28C72.8205 17.0133 73.4672 16.88 74.1738 16.88C74.5738 16.88 74.9872 16.9133 75.4138 16.98C75.8538 17.0333 76.2605 17.0933 76.6338 17.16C77.0072 17.2267 77.3205 17.2933 77.5738 17.36C77.8405 17.4133 77.9938 17.4467 78.0338 17.46V22.18ZM73.4538 25.52C73.7872 25.52 74.0938 25.4067 74.3738 25.18C74.6538 24.9533 74.8938 24.66 75.0938 24.3C75.3072 23.9267 75.4672 23.5067 75.5738 23.04C75.6938 22.56 75.7538 22.0733 75.7538 21.58V18.7C75.6205 18.66 75.4205 18.6133 75.1538 18.56C74.8872 18.5067 74.6472 18.48 74.4338 18.48C73.9272 18.48 73.5072 18.5667 73.1738 18.74C72.8538 18.9133 72.5938 19.1533 72.3938 19.46C72.1938 19.7667 72.0538 20.1333 71.9738 20.56C71.8938 20.9867 71.8538 21.4533 71.8538 21.96C71.8538 22.4267 71.8672 22.8733 71.8938 23.3C71.9205 23.7267 71.9872 24.1067 72.0938 24.44C72.2138 24.7733 72.3805 25.04 72.5938 25.24C72.8072 25.4267 73.0938 25.52 73.4538 25.52ZM82.5965 12.5V18.2C82.7032 18.0667 82.8365 17.9267 82.9965 17.78C83.1698 17.62 83.3832 17.4733 83.6365 17.34C83.8898 17.2067 84.1832 17.0933 84.5165 17C84.8498 16.9067 85.2365 16.86 85.6765 16.86C86.0898 16.86 86.4765 16.92 86.8365 17.04C87.1965 17.16 87.5032 17.3333 87.7565 17.56C88.0232 17.7867 88.2298 18.0667 88.3765 18.4C88.5365 18.72 88.6165 19.0867 88.6165 19.5C88.6165 20.1 88.4898 20.5933 88.2365 20.98C87.9965 21.3667 87.7232 21.6733 87.4165 21.9C87.0698 22.1667 86.6698 22.38 86.2165 22.54L89.0165 27H86.4365L83.5565 22.02L83.5365 21.82C83.6432 21.7933 83.8432 21.7333 84.1365 21.64C84.4432 21.5467 84.7565 21.4133 85.0765 21.24C85.3965 21.0667 85.6765 20.8533 85.9165 20.6C86.1698 20.3333 86.2965 20.02 86.2965 19.66C86.2965 19.2733 86.1832 18.98 85.9565 18.78C85.7298 18.58 85.4298 18.48 85.0565 18.48C84.5498 18.48 84.1365 18.58 83.8165 18.78C83.4965 18.98 83.2432 19.2067 83.0565 19.46C82.8832 19.7133 82.7632 19.9533 82.6965 20.18C82.6298 20.4067 82.5965 20.54 82.5965 20.58V27H80.3165V12.9L82.5965 12.5ZM97.8393 22.18C97.8393 22.98 97.886 23.6533 97.9793 24.2C98.086 24.7333 98.1993 25.1667 98.3193 25.5C98.466 25.9 98.626 26.2133 98.7993 26.44L97.0193 27.16C96.846 26.9867 96.686 26.78 96.5393 26.54C96.4193 26.3267 96.306 26.0733 96.1993 25.78C96.0926 25.4733 96.026 25.1133 95.9993 24.7C95.7726 25.5 95.406 26.1067 94.8993 26.52C94.406 26.92 93.7326 27.12 92.8793 27.12C92.2526 27.12 91.706 27.0067 91.2393 26.78C90.786 26.54 90.406 26.2067 90.0993 25.78C89.7926 25.34 89.566 24.8133 89.4193 24.2C89.2726 23.5867 89.1993 22.9067 89.1993 22.16C89.1993 21.4 89.3126 20.7 89.5393 20.06C89.7793 19.4067 90.106 18.8467 90.5193 18.38C90.946 17.9133 91.4526 17.5467 92.0393 17.28C92.626 17.0133 93.2726 16.88 93.9793 16.88C94.3793 16.88 94.7926 16.9133 95.2193 16.98C95.6593 17.0333 96.066 17.0933 96.4393 17.16C96.8126 17.2267 97.126 17.2933 97.3793 17.36C97.646 17.4133 97.7993 17.4467 97.8393 17.46V22.18ZM93.2593 25.52C93.5926 25.52 93.8993 25.4067 94.1793 25.18C94.4593 24.9533 94.6993 24.66 94.8993 24.3C95.1126 23.9267 95.2726 23.5067 95.3793 23.04C95.4993 22.56 95.5593 22.0733 95.5593 21.58V18.7C95.426 18.66 95.226 18.6133 94.9593 18.56C94.6926 18.5067 94.4526 18.48 94.2393 18.48C93.7326 18.48 93.3126 18.5667 92.9793 18.74C92.6593 18.9133 92.3993 19.1533 92.1993 19.46C91.9993 19.7667 91.8593 20.1333 91.7793 20.56C91.6993 20.9867 91.6593 21.4533 91.6593 21.96C91.6593 22.4267 91.6726 22.8733 91.6993 23.3C91.726 23.7267 91.7926 24.1067 91.8993 24.44C92.0193 24.7733 92.186 25.04 92.3993 25.24C92.6126 25.4267 92.8993 25.52 93.2593 25.52ZM105.931 27V20.54C105.931 19.98 105.831 19.5333 105.631 19.2C105.431 18.8533 105.091 18.68 104.611 18.68C104.305 18.68 104.005 18.76 103.711 18.92C103.431 19.0667 103.178 19.2867 102.951 19.58C102.725 19.8733 102.538 20.2333 102.391 20.66C102.258 21.0733 102.191 21.54 102.191 22.06V27H99.9113V21.96C99.9113 21.16 99.858 20.4933 99.7513 19.96C99.6447 19.4133 99.5313 18.9733 99.4113 18.64C99.2647 18.2533 99.1047 17.94 98.9313 17.7L100.731 16.98C100.865 17.1267 100.998 17.3067 101.131 17.52C101.238 17.7067 101.345 17.94 101.451 18.22C101.558 18.4867 101.645 18.7933 101.711 19.14C102.058 18.34 102.558 17.7667 103.211 17.42C103.865 17.06 104.551 16.88 105.271 16.88C106.298 16.88 107.038 17.1933 107.491 17.82C107.958 18.4333 108.191 19.2667 108.191 20.32V27H105.931ZM117.946 16.8C118.332 16.8 118.712 16.84 119.086 16.92C119.459 17 119.792 17.0933 120.086 17.2C120.432 17.32 120.752 17.4467 121.046 17.58L120.366 19.14C120.099 19.02 119.832 18.9133 119.566 18.82C119.339 18.74 119.086 18.6667 118.806 18.6C118.539 18.52 118.272 18.48 118.006 18.48C117.699 18.48 117.432 18.5533 117.206 18.7C116.992 18.8467 116.886 19.0667 116.886 19.36C116.886 20.12 117.439 20.7133 118.546 21.14C118.959 21.3 119.332 21.4733 119.666 21.66C119.999 21.8333 120.279 22.04 120.506 22.28C120.746 22.52 120.926 22.8 121.046 23.12C121.166 23.4267 121.226 23.7933 121.226 24.22C121.226 24.5933 121.146 24.96 120.986 25.32C120.839 25.68 120.612 26 120.306 26.28C120.012 26.56 119.646 26.7867 119.206 26.96C118.779 27.12 118.292 27.2 117.746 27.2C117.306 27.2 116.872 27.1467 116.446 27.04C116.019 26.9467 115.632 26.84 115.286 26.72C114.952 26.6 114.686 26.4867 114.486 26.38L114.186 26.24L114.926 24.56L115.186 24.7C115.359 24.8067 115.579 24.92 115.846 25.04C116.112 25.16 116.399 25.2733 116.706 25.38C117.012 25.4733 117.292 25.52 117.546 25.52C118.012 25.52 118.359 25.4267 118.586 25.24C118.812 25.0533 118.926 24.8067 118.926 24.5C118.926 24.1533 118.799 23.84 118.546 23.56C118.306 23.2667 117.939 23.0267 117.446 22.84C116.419 22.4533 115.679 22.0133 115.226 21.52C114.786 21.0267 114.566 20.3867 114.566 19.6C114.566 19.2267 114.652 18.8733 114.826 18.54C114.999 18.1933 115.232 17.8933 115.526 17.64C115.832 17.3733 116.192 17.1667 116.606 17.02C117.019 16.8733 117.466 16.8 117.946 16.8ZM130.888 22.18C130.888 22.98 130.934 23.6533 131.028 24.2C131.134 24.7333 131.248 25.1667 131.368 25.5C131.514 25.9 131.674 26.2133 131.848 26.44L130.068 27.16C129.894 26.9867 129.734 26.78 129.588 26.54C129.468 26.3267 129.354 26.0733 129.248 25.78C129.141 25.4733 129.074 25.1133 129.048 24.7C128.821 25.5 128.454 26.1067 127.948 26.52C127.454 26.92 126.781 27.12 125.928 27.12C125.301 27.12 124.754 27.0067 124.288 26.78C123.834 26.54 123.454 26.2067 123.148 25.78C122.841 25.34 122.614 24.8133 122.468 24.2C122.321 23.5867 122.248 22.9067 122.248 22.16C122.248 21.4 122.361 20.7 122.588 20.06C122.828 19.4067 123.154 18.8467 123.568 18.38C123.994 17.9133 124.501 17.5467 125.088 17.28C125.674 17.0133 126.321 16.88 127.028 16.88C127.428 16.88 127.841 16.9133 128.268 16.98C128.708 17.0333 129.114 17.0933 129.488 17.16C129.861 17.2267 130.174 17.2933 130.428 17.36C130.694 17.4133 130.848 17.4467 130.888 17.46V22.18ZM126.308 25.52C126.641 25.52 126.948 25.4067 127.228 25.18C127.508 24.9533 127.748 24.66 127.948 24.3C128.161 23.9267 128.321 23.5067 128.428 23.04C128.548 22.56 128.608 22.0733 128.608 21.58V18.7C128.474 18.66 128.274 18.6133 128.008 18.56C127.741 18.5067 127.501 18.48 127.288 18.48C126.781 18.48 126.361 18.5667 126.028 18.74C125.708 18.9133 125.448 19.1533 125.248 19.46C125.048 19.7667 124.908 20.1333 124.828 20.56C124.748 20.9867 124.708 21.4533 124.708 21.96C124.708 22.4267 124.721 22.8733 124.748 23.3C124.774 23.7267 124.841 24.1067 124.948 24.44C125.068 24.7733 125.234 25.04 125.448 25.24C125.661 25.4267 125.948 25.52 126.308 25.52ZM133.17 17.04H135.45V26.52C135.45 27.32 135.344 27.9867 135.13 28.52C134.917 29.0533 134.644 29.5 134.31 29.86C133.99 30.2333 133.624 30.54 133.21 30.78C132.81 31.0333 132.41 31.26 132.01 31.46L131.09 29.94C131.584 29.6867 131.97 29.4133 132.25 29.12C132.53 28.84 132.737 28.5533 132.87 28.26C133.004 27.98 133.084 27.7067 133.11 27.44C133.15 27.1733 133.17 26.94 133.17 26.74V17.04ZM134.33 12.6C134.757 12.6 135.084 12.7267 135.31 12.98C135.55 13.2333 135.67 13.56 135.67 13.96C135.67 14.36 135.55 14.6933 135.31 14.96C135.084 15.2267 134.737 15.36 134.27 15.36C133.844 15.36 133.517 15.2333 133.29 14.98C133.064 14.7133 132.95 14.3933 132.95 14.02C132.95 13.6067 133.064 13.2667 133.29 13C133.53 12.7333 133.877 12.6 134.33 12.6ZM145.693 22.18C145.693 22.98 145.74 23.6533 145.833 24.2C145.94 24.7333 146.053 25.1667 146.173 25.5C146.32 25.9 146.48 26.2133 146.653 26.44L144.873 27.16C144.7 26.9867 144.54 26.78 144.393 26.54C144.273 26.3267 144.16 26.0733 144.053 25.78C143.947 25.4733 143.88 25.1133 143.853 24.7C143.627 25.5 143.26 26.1067 142.753 26.52C142.26 26.92 141.587 27.12 140.733 27.12C140.107 27.12 139.56 27.0067 139.093 26.78C138.64 26.54 138.26 26.2067 137.953 25.78C137.647 25.34 137.42 24.8133 137.273 24.2C137.127 23.5867 137.053 22.9067 137.053 22.16C137.053 21.4 137.167 20.7 137.393 20.06C137.633 19.4067 137.96 18.8467 138.373 18.38C138.8 17.9133 139.307 17.5467 139.893 17.28C140.48 17.0133 141.127 16.88 141.833 16.88C142.233 16.88 142.647 16.9133 143.073 16.98C143.513 17.0333 143.92 17.0933 144.293 17.16C144.667 17.2267 144.98 17.2933 145.233 17.36C145.5 17.4133 145.653 17.4467 145.693 17.46V22.18ZM141.113 25.52C141.447 25.52 141.753 25.4067 142.033 25.18C142.313 24.9533 142.553 24.66 142.753 24.3C142.967 23.9267 143.127 23.5067 143.233 23.04C143.353 22.56 143.413 22.0733 143.413 21.58V18.7C143.28 18.66 143.08 18.6133 142.813 18.56C142.547 18.5067 142.307 18.48 142.093 18.48C141.587 18.48 141.167 18.5667 140.833 18.74C140.513 18.9133 140.253 19.1533 140.053 19.46C139.853 19.7667 139.713 20.1333 139.633 20.56C139.553 20.9867 139.513 21.4533 139.513 21.96C139.513 22.4267 139.527 22.8733 139.553 23.3C139.58 23.7267 139.647 24.1067 139.753 24.44C139.873 24.7733 140.04 25.04 140.253 25.24C140.467 25.4267 140.753 25.52 141.113 25.52ZM150.196 24.2C150.663 24.2 151.023 24.34 151.276 24.62C151.529 24.9 151.656 25.26 151.656 25.7C151.656 26.1267 151.529 26.4867 151.276 26.78C151.023 27.0733 150.643 27.22 150.136 27.22C149.669 27.22 149.309 27.0733 149.056 26.78C148.816 26.4867 148.696 26.14 148.696 25.74C148.696 25.3133 148.823 24.9533 149.076 24.66C149.329 24.3533 149.703 24.2 150.196 24.2ZM149.216 13.46H151.756L151.176 22.6H149.216V13.46Z" fill="#3F170D"/>
<path d="M5.51221 37.5C9.11221 37.1 12.1789 33 13.0122 31C14.6122 33.4 18.3455 36.3333 20.0122 37.5C19.3455 37.8333 16.5122 38.6 12.5122 39C7.51221 39.5 1.01221 38 5.51221 37.5Z" fill="#B8881A"/>
</g>
<defs>
<filter id="filter0_d_1531_6924" x="0" y="0" width="177.512" height="48" filterUnits="userSpaceOnUse" color-interpolation-filters="sRGB">
<feFlood flood-opacity="0" result="BackgroundImageFix"/>
<feColorMatrix in="SourceAlpha" type="matrix" values="0 0 0 0 0 0 0 0 0 0 0 0 0 0 0 0 0 0 127 0" result="hardAlpha"/>
<feOffset dy="4"/>
<feGaussianBlur stdDeviation="2"/>
<feComposite in2="hardAlpha" operator="out"/>
<feColorMatrix type="matrix" values="0 0 0 0 0 0 0 0 0 0 0 0 0 0 0 0 0 0 0.25 0"/>
<feBlend mode="normal" in2="BackgroundImageFix" result="effect1_dropShadow_1531_6924"/>
<feBlend mode="normal" in="SourceGraphic" in2="effect1_dropShadow_1531_6924" result="shape"/>
</filter>
<linearGradient id="paint0_linear_1531_6924" x1="82" y1="0" x2="82" y2="40" gradientUnits="userSpaceOnUse">
<stop stop-color="#CE9C17"/>
<stop offset="0.520386" stop-color="#CD9514"/>
<stop offset="1" stop-color="#CC8F12"/>
</linearGradient>
</defs>
</svg>
