<svg width="439" height="631" viewBox="0 0 439 631" fill="none" xmlns="http://www.w3.org/2000/svg">
<path opacity="0.3" fill-rule="evenodd" clip-rule="evenodd" d="M198.297 81.1214C199.496 82.5658 200.531 82.8221 203.632 82.4431C206.861 82.0496 207.478 82.2281 207.478 83.5558C207.478 84.4265 208.402 85.3589 209.532 85.628C211.059 85.9927 211.464 86.7424 211.11 88.5498C210.498 91.6907 212.35 94.2233 216.417 95.8048C219.512 97.008 219.824 96.953 223.135 94.6278C225.77 92.7764 226.608 91.4547 226.608 89.1438C226.608 87.0182 227.111 86.0985 228.274 86.0985C229.19 86.0985 230.235 85.2159 230.595 84.1371C231.125 82.548 231.849 82.2425 234.411 82.5251C236.624 82.7697 238.257 82.3229 239.847 81.0384L242.123 79.2031L246.462 80.8337C253.076 83.3188 260.118 84.3639 279.05 85.6703C299.702 87.0953 307.63 88.4906 323.357 93.4694C356.07 103.825 360.51 104.972 380.207 108.139C386.396 109.134 393.046 110.679 394.984 111.57C399.469 113.632 401.517 117.288 400.601 121.596C400.195 123.506 400.374 125.143 401.022 125.444C401.642 125.732 402.15 127.193 402.15 128.692C402.15 132.656 404.867 134.963 411.203 136.378C421.479 138.673 426.702 142.278 429.186 148.795C430.758 152.916 430.663 518.689 429.089 522.951C427.509 527.228 421.849 531.912 415.653 534.069C410.694 535.795 408.936 535.837 330.328 536.075L250.066 536.319L247.82 534.172C245.132 531.602 241.432 531.422 237.622 533.676L234.829 535.328L232.372 532.83C231.021 531.456 229.277 530.332 228.495 530.332C227.713 530.332 226.588 529.125 225.997 527.65C225.405 526.176 223.53 524.199 221.831 523.258L218.742 521.546L215.36 523.981C213.5 525.322 211.979 527.117 211.979 527.973C211.979 528.854 210.756 529.877 209.152 530.336C207.597 530.78 205.753 532.088 205.053 533.242L203.781 535.342L200.977 533.683C196.84 531.235 191.95 531.473 191.052 534.166L190.337 536.308L109.649 536.069L28.9607 535.832L22.3272 533.281C17.2511 531.328 14.8937 529.755 12.2808 526.577L8.86787 522.426L8.56968 338.321C8.36375 211.169 8.64058 152.874 9.46315 149.88C11.519 142.406 18.7601 137.608 30.8995 135.677C34.1178 135.166 36.437 132.163 36.437 128.508C36.437 127.211 36.8061 125.873 37.2562 125.534C37.7074 125.195 38.0866 122.62 38.1001 119.813C38.135 112.581 39.9827 111.657 62.7649 107.474C79.1477 104.467 88.5234 101.966 117.33 92.9168C129.769 89.0101 140.823 87.1739 160.779 85.6991C178.628 84.3799 187.426 82.9863 192.849 80.6179C196.511 79.0187 196.555 79.0229 198.297 81.1214Z" fill="#E1B01B"/>
<path fill-rule="evenodd" clip-rule="evenodd" d="M223.907 2.46817C213.677 7.41114 206.59 15.9324 204.693 25.5678C203.5 31.6263 204.486 37.3059 209.871 55.4162C214.992 72.6327 217.43 83.4026 218.116 91.8373C218.648 98.3781 219.878 98.555 220 92.1084C220.095 87.0531 223.991 69.4083 228.498 53.6286C234.044 34.2083 234.185 32.8209 231.915 20.1236C230.71 13.3801 230.19 7.87666 230.466 4.79195C230.764 1.47563 230.599 -0.014325 229.935 0.000103755C229.405 0.0107354 226.693 1.12175 223.907 2.46817Z" fill="url(#paint0_linear_2748_3022)"/>
<path fill-rule="evenodd" clip-rule="evenodd" d="M249.502 23.4242C249.959 24.7653 249.183 25.6926 245.162 28.6119C236.908 34.6045 232.86 41.1696 230.977 51.6182C230.64 53.4871 228.692 61.7224 226.647 69.9185C222.505 86.5191 222.022 89.742 225.036 80.6458C227.469 73.3015 233.51 60.5226 237.578 54.1108C240.547 49.4321 245.617 42.5567 246.099 42.5567C246.24 42.5567 242.783 48.834 238.418 56.5068C231.455 68.7451 226.272 79.2035 226.331 80.8965C226.341 81.1985 227.613 79.3545 229.156 76.7984C232.846 70.6865 236.014 67.0974 245.554 58.2217C255.17 49.2743 257.807 44.8123 257.76 37.5624C257.724 31.9344 255.684 27.4573 251.585 24.011C249.249 22.0469 249.009 21.9789 249.502 23.4242Z" fill="url(#paint1_linear_2748_3022)"/>
<path fill-rule="evenodd" clip-rule="evenodd" d="M186.049 24.218C182.618 27.665 180.797 32.3043 180.794 37.606C180.79 45.1093 182.917 48.7825 192.104 57.1343C201.576 65.7471 206.998 71.6928 209.747 76.4861C210.927 78.5407 212.056 80.2211 212.259 80.2211C213.461 80.2211 203.112 60.5171 195.324 47.9769C193.198 44.5549 191.638 41.7543 191.858 41.7543C192.076 41.7543 194.206 44.3844 196.589 47.5998C202.434 55.4862 208.722 67.2503 212.766 77.8648C216.886 88.6808 217.017 87.477 213.208 73.77C211.601 67.9842 209.266 58.8728 208.019 53.5229C204.904 40.1561 202.986 36.6503 195.193 30.0725C191.68 27.1076 188.806 24.2806 188.806 23.7896C188.806 22.5014 187.566 22.6944 186.049 24.218Z" fill="url(#paint2_linear_2748_3022)"/>
<path fill-rule="evenodd" clip-rule="evenodd" d="M220.547 54.01C220.591 66.6988 220.3 79.4633 219.901 82.3755L219.177 87.6704L218.629 80.4845C217.878 70.6133 217.78 43.905 218.46 33.8939C219.454 19.2391 220.462 28.9507 220.547 54.01Z" fill="black"/>
<path fill-rule="evenodd" clip-rule="evenodd" d="M286.346 32.0891C287.144 34.7653 287.007 35.5384 285.186 38.6065C282.685 42.8213 278.948 45.3493 267.84 50.3426C246.066 60.1293 235.14 68.8941 227.942 82.3458C224.77 88.2739 222.172 97.7785 223.419 98.8935C223.904 99.327 224.409 99.0395 224.734 98.1462C225.025 97.3489 226.56 94.2687 228.144 91.3012C235.062 78.3442 252.538 69.3956 275.882 66.8563C293.202 64.972 309.536 68.8767 318.736 77.1022C323.617 81.4653 325.766 85.7195 325.766 91.0228C325.766 96.3375 323.677 100.433 319.076 104.142C314.85 107.549 315.276 108.471 321.311 108.973C326.419 109.399 330.34 107.251 333.419 102.34C335.241 99.4328 335.533 98.0229 335.526 92.1575C335.52 86.1521 335.235 84.867 333.116 81.2565C331.795 79.0061 328.76 75.463 326.373 73.3843C323.985 71.3056 322.829 69.9864 323.804 70.4524C327.357 72.1528 334.146 79.6831 335.897 83.8677C340.01 93.6945 336.831 105 328.58 109.885C326.427 111.16 324.256 112.227 323.754 112.256C321.369 112.395 326.666 113.616 329.856 113.663C336.799 113.764 344.253 108.522 346.17 102.19C347.719 97.0705 346.757 89.6408 343.947 85.0251C339.645 77.9585 328.401 70.2905 316.717 66.4554C312.408 65.0408 315.637 65.0174 321.534 66.4198C329.052 68.2088 335.676 71.5522 348.658 80.1128C366.455 91.8481 374.424 94.7059 379.859 91.3019C384.93 88.1272 384.924 80.8798 379.848 77.0613L377.23 75.0931L375.844 77.5734C374.258 80.4138 369.788 82.699 365.817 82.7005C362.182 82.7028 354.752 80.1362 351.611 77.7943L349.073 75.9009L352.493 76.3472C360.369 77.3752 367.032 73.5129 366.114 68.4516C365.353 64.2594 364.243 63.615 360.704 65.3101C356.43 67.3578 349.047 68.5779 343.838 68.0976C341.398 67.8722 334.914 66.3207 329.429 64.649C314.238 60.0196 307.771 59.0022 293.648 59.0189C285.502 59.0287 279.265 59.4478 275.09 60.2655C271.631 60.9432 268.687 61.3963 268.548 61.2723C268.409 61.1482 271.342 59.9765 275.064 58.6679C292.669 52.4802 298.524 44.7306 292.517 35.5671C291.274 33.6708 289.173 31.4294 287.848 30.586L285.438 29.0527L286.346 32.0891Z" fill="black"/>
<path fill-rule="evenodd" clip-rule="evenodd" d="M148.126 32.6471C144.774 36.1642 143.048 40.631 143.821 43.7912C145.225 49.5322 150.779 53.7325 163.297 58.5244C167.483 60.1272 169.957 61.2707 168.794 61.0657C167.631 60.8607 164.206 60.2624 161.182 59.7354C153.171 58.3414 133.479 58.5828 125.237 60.1773C121.516 60.8971 113.143 63.0269 106.631 64.91C96.0813 67.96 94.2045 68.2865 89.4209 67.9008C86.3956 67.6571 81.9925 66.6214 79.3351 65.5288C74.2901 63.4559 73.7793 63.5941 72.6714 67.3412C71.9203 69.8803 73.2253 72.6835 76.0341 74.5605C77.8999 75.808 79.5923 76.1444 83.7796 76.1019C88.9557 76.0495 89.075 76.0912 87.3116 77.3266C83.8075 79.7814 78.1519 81.9377 74.2225 82.3174C69.2223 82.8003 64.8869 80.9324 62.9569 77.4625L61.5715 74.9728L58.9962 76.9181C53.8463 80.8087 53.4987 87.0667 58.2341 90.6445C63.7477 94.8091 71.5439 92.2071 89.2078 80.3053C104.844 69.7687 111.529 66.6305 120.797 65.4764C124.124 65.0626 123.917 65.2198 118.025 67.5933C106.246 72.3366 97.8684 78.8133 93.7258 86.3796C90.7631 91.7902 90.5711 99.6094 93.2869 104.25C95.4394 107.928 99.8551 111.84 103.091 112.936C105.766 113.841 110.908 113.916 113.261 113.084C114.56 112.626 114.12 112.145 110.601 110.182C100.818 104.722 97.9496 91.9755 104.067 81.1374C106.485 76.8543 112.051 71.638 116.506 69.4794C118.975 68.2835 119.06 68.2782 117.203 69.4368C111.994 72.6866 106.377 78.6986 104.626 82.9005C102.611 87.7349 102.254 94.7712 103.79 99.374C106.128 106.38 113.019 110.324 119.756 108.511L123.156 107.597L118.98 103.945C115.01 100.473 112.128 95.0142 112.128 90.9626C112.128 87.3727 114.967 81.7137 118.578 78.1087C127.86 68.84 142.797 64.8492 161.346 66.6814C185.692 69.0868 203.538 77.9879 210.585 91.242C212.169 94.2207 213.687 97.2768 213.959 98.0338C214.975 100.861 215.927 98.4978 215.197 94.9633C211.204 75.6334 199.185 63.3071 172.428 51.1001C155.803 43.5163 150.324 38.1634 152.225 31.364C153.002 28.5827 151.576 29.0291 148.126 32.6471Z" fill="black"/>
<path fill-rule="evenodd" clip-rule="evenodd" d="M261.668 63.7128C260.967 63.9932 260.012 64.2225 259.545 64.2225C259.078 64.2225 259.269 63.9932 259.97 63.7128C260.67 63.4325 261.625 63.2031 262.092 63.2031C262.559 63.2031 262.368 63.4325 261.668 63.7128Z" fill="black"/>
<path fill-rule="evenodd" clip-rule="evenodd" d="M19.2946 69.1738C14.9472 70.1817 11.7197 72.0322 7.95088 75.6766C2.73603 80.7184 0.840179 84.9962 0.421703 92.6654C-0.0425178 101.174 1.95583 106.074 8.4312 112.308C16.9202 120.48 26.9788 123.348 39.1223 121.059C51.0065 118.82 61.2956 113.37 74.2124 102.473L81.3578 96.4449L80.1041 99.6514C78.5539 103.613 79.1215 109.891 81.3341 113.268C83.723 116.913 88.1458 119.3 91.6012 118.809C93.1641 118.586 95.4081 117.841 96.5873 117.152L98.7314 115.9L96.0536 114.39C94.5805 113.558 92.3373 111.303 91.0675 109.378C88.9895 106.229 88.7583 105.158 88.7625 98.7054C88.7659 92.2917 89.0226 91.0935 91.187 87.3805C92.5178 85.0966 94.6034 82.0465 95.8207 80.6021L98.0342 77.9755L95.514 79.5844C94.1282 80.4685 87.4664 85.5187 80.7106 90.8059C57.1599 109.238 45.6713 114.825 31.1543 114.902C25.3913 114.932 23.6522 114.62 19.5284 112.815C16.8609 111.648 13.3208 109.279 11.6613 107.551C2.27011 97.7722 6.21853 82.3651 18.9897 78.9547C25.199 77.2968 31.4143 80.4821 32.9112 86.091L33.4737 88.1989L30.8968 85.9022C27.6658 83.0227 25.3515 82.9985 22.1943 85.8124C18.5763 89.0377 18.755 92.713 22.7017 96.2305C25.5337 98.7545 25.9225 98.8723 30.3444 98.5453C34.0133 98.2743 35.5618 97.733 37.6305 95.9995C46.2084 88.8104 43.4315 75.8283 32.2157 70.6876C28.5155 68.9911 22.911 68.335 19.2946 69.1738Z" fill="black"/>
<path fill-rule="evenodd" clip-rule="evenodd" d="M419.77 69.1773C424.117 70.1949 427.345 72.0632 431.114 75.7426C436.329 80.8329 438.225 85.1519 438.643 92.8948C439.107 101.485 437.109 106.432 430.633 112.726C422.145 120.977 412.086 123.873 399.942 121.562C388.058 119.301 377.769 113.799 364.852 102.797L357.707 96.7107L358.961 99.948C360.511 103.948 359.943 110.286 357.731 113.695C355.342 117.375 350.919 119.786 347.464 119.289C345.901 119.065 343.657 118.312 342.477 117.617L340.333 116.353L343.011 114.828C344.484 113.989 346.727 111.712 347.997 109.768C350.075 106.589 350.306 105.508 350.302 98.9929C350.299 92.5175 350.042 91.3078 347.878 87.559C346.547 85.2532 344.461 82.1737 343.244 80.7155L341.031 78.0637L343.551 79.688C344.937 80.5806 351.598 85.6793 358.354 91.0174C381.905 109.627 393.393 115.267 407.91 115.345C413.673 115.376 415.412 115.06 419.536 113.239C422.204 112.06 425.744 109.668 427.403 107.923C436.795 98.0507 432.846 82.4954 420.075 79.0523C413.866 77.3784 407.65 80.5943 406.153 86.2571L405.591 88.3853L408.168 86.0666C411.399 83.1593 413.713 83.1349 416.87 85.9759C420.488 89.2322 420.31 92.9428 416.363 96.4942C413.531 99.0424 413.142 99.1613 408.72 98.8313C405.051 98.5576 403.503 98.0111 401.434 96.2609C392.856 89.0028 395.633 75.8958 406.849 70.7056C410.549 68.9928 416.154 68.3304 419.77 69.1773Z" fill="black"/>
<path fill-rule="evenodd" clip-rule="evenodd" d="M158.402 78.5849C147.045 82.3271 139.518 92.5561 142.852 99.7143C144.615 103.503 147.425 105.511 150.961 105.511C155.333 105.511 157.446 103.822 158.974 99.105C161.614 90.9604 167.945 87.0497 178.478 87.0588C189.108 87.0679 199.705 90.842 207.376 97.3515C210.989 100.417 211.887 100.881 211.887 99.6809C211.887 97.2202 206.864 91.1759 202.248 88.0824C196.709 84.3697 189.311 81.0683 181.984 79.0409C175.192 77.1614 163.412 76.9338 158.402 78.5849Z" fill="black"/>
<path fill-rule="evenodd" clip-rule="evenodd" d="M260.993 77.9022C260.295 78.1027 257.252 78.9735 254.23 79.8376C247.029 81.8959 243.855 83.3787 237.576 87.6183C232.22 91.2338 227.178 97.0647 227.178 99.6431C227.178 100.8 228.179 100.286 231.946 97.1938C240.002 90.5808 250.06 87.0283 260.57 87.0837C270.702 87.1369 276.998 90.722 279.266 97.7291C281.016 103.135 283.581 105.511 287.668 105.511C290.046 105.511 291.407 104.921 293.624 102.929C296.147 100.663 296.498 99.8709 296.498 96.4452C296.498 91.5693 294.436 87.8157 289.527 83.7507C284.238 79.3729 277.859 77.4042 269.203 77.4786C265.385 77.5112 261.69 77.7026 260.993 77.9022Z" fill="black"/>
<path fill-rule="evenodd" clip-rule="evenodd" d="M173.97 93.3127C167.853 96.0569 165.388 103.304 168.17 110.372C168.803 111.982 169.977 113.956 170.779 114.758C172.825 116.808 174.561 115.763 179.657 109.414C182.171 106.281 185.026 103.67 186.748 102.93C189.943 101.555 199.586 101.25 201.648 102.457C202.727 103.09 202.691 103.203 201.403 103.213C200.57 103.219 198.365 103.929 196.502 104.79C190.832 107.412 187.958 113.724 191.127 116.596C194.297 119.467 198.768 116.846 202.615 109.859C204.043 107.265 206.141 104.245 207.275 103.149L209.338 101.155L206.551 99.2315C196.745 92.465 181.879 89.7645 173.97 93.3127Z" fill="black"/>
<path fill-rule="evenodd" clip-rule="evenodd" d="M250.38 92.0592C249.917 92.2064 247.407 92.8659 244.803 93.5253C242.198 94.1848 237.742 96.1394 234.898 97.8685L229.727 101.012L232.153 103.818C233.488 105.361 235.565 108.401 236.767 110.574C239.073 114.738 242.478 117.743 244.889 117.743C246.996 117.743 249.117 115.258 249.117 112.789C249.117 109.971 242.832 104.137 239.055 103.45C234.905 102.694 237.674 101.665 243.895 101.651C250.796 101.636 253.103 102.805 258.639 109.121C265.965 117.479 266.62 117.66 269.398 112.089C271.587 107.7 271.544 100.524 269.309 97.1861C267.057 93.8229 261.785 91.6927 255.854 91.7486C253.307 91.7724 250.843 91.9127 250.38 92.0592Z" fill="black"/>
<path fill-rule="evenodd" clip-rule="evenodd" d="M212.58 102.471C206.004 105.396 202.801 113.461 206.005 119.029C209.526 125.149 217.32 127.963 224.049 125.542C233.305 122.214 236.267 112.176 229.913 105.672C225.088 100.732 219.012 99.6098 212.58 102.471Z" fill="black"/>
<path fill-rule="evenodd" clip-rule="evenodd" d="M223.907 2.46817C213.677 7.41114 206.59 15.9324 204.693 25.5678C203.5 31.6263 204.486 37.3059 209.871 55.4162C214.992 72.6327 217.43 83.4026 218.116 91.8373C218.648 98.3781 219.878 98.555 220 92.1084C220.095 87.0531 223.991 69.4083 228.498 53.6286C234.044 34.2083 234.185 32.8209 231.915 20.1236C230.71 13.3801 230.19 7.87666 230.466 4.79195C230.764 1.47563 230.599 -0.014325 229.935 0.000103755C229.405 0.0107354 226.693 1.12175 223.907 2.46817Z" fill="url(#paint3_linear_2748_3022)"/>
<path fill-rule="evenodd" clip-rule="evenodd" d="M249.502 23.4242C249.959 24.7653 249.183 25.6926 245.162 28.6119C236.908 34.6045 232.86 41.1696 230.977 51.6182C230.64 53.4871 228.692 61.7224 226.647 69.9185C222.505 86.5191 222.022 89.742 225.036 80.6458C227.469 73.3015 233.51 60.5226 237.578 54.1108C240.547 49.4321 245.617 42.5567 246.099 42.5567C246.24 42.5567 242.783 48.834 238.418 56.5068C231.455 68.7451 226.272 79.2035 226.331 80.8965C226.341 81.1985 227.613 79.3545 229.156 76.7984C232.846 70.6865 236.014 67.0974 245.554 58.2217C255.17 49.2743 257.807 44.8123 257.76 37.5624C257.724 31.9344 255.684 27.4573 251.585 24.011C249.249 22.0469 249.009 21.9789 249.502 23.4242Z" fill="url(#paint4_linear_2748_3022)"/>
<path fill-rule="evenodd" clip-rule="evenodd" d="M186.049 24.218C182.618 27.665 180.797 32.3043 180.794 37.606C180.79 45.1093 182.917 48.7825 192.104 57.1343C201.576 65.7471 206.998 71.6928 209.747 76.4861C210.927 78.5407 212.056 80.2211 212.259 80.2211C213.461 80.2211 203.112 60.5171 195.324 47.9769C193.198 44.5549 191.638 41.7543 191.858 41.7543C192.076 41.7543 194.206 44.3844 196.589 47.5998C202.434 55.4862 208.722 67.2503 212.766 77.8648C216.886 88.6808 217.017 87.477 213.208 73.77C211.601 67.9842 209.266 58.8728 208.019 53.5229C204.904 40.1561 202.986 36.6503 195.193 30.0725C191.68 27.1076 188.806 24.2806 188.806 23.7896C188.806 22.5014 187.566 22.6944 186.049 24.218Z" fill="url(#paint5_linear_2748_3022)"/>
<path fill-rule="evenodd" clip-rule="evenodd" d="M220.547 54.01C220.591 66.6988 220.3 79.4633 219.901 82.3755L219.177 87.6704L218.629 80.4845C217.878 70.6133 217.78 43.905 218.46 33.8939C219.454 19.2391 220.462 28.9507 220.547 54.01Z" fill="white"/>
<path fill-rule="evenodd" clip-rule="evenodd" d="M286.346 32.0891C287.144 34.7653 287.007 35.5384 285.186 38.6065C282.685 42.8213 278.948 45.3493 267.84 50.3426C246.066 60.1293 235.14 68.8941 227.942 82.3458C224.77 88.2739 222.172 97.7785 223.419 98.8935C223.904 99.327 224.409 99.0395 224.734 98.1462C225.025 97.3489 226.56 94.2687 228.144 91.3012C235.062 78.3442 252.538 69.3956 275.882 66.8563C293.202 64.972 309.536 68.8767 318.736 77.1022C323.617 81.4653 325.766 85.7195 325.766 91.0228C325.766 96.3375 323.677 100.433 319.076 104.142C314.85 107.549 315.276 108.471 321.311 108.973C326.419 109.399 330.34 107.251 333.419 102.34C335.241 99.4328 335.533 98.0229 335.526 92.1575C335.52 86.1521 335.235 84.867 333.116 81.2565C331.795 79.0061 328.76 75.463 326.373 73.3843C323.985 71.3056 322.829 69.9864 323.804 70.4524C327.357 72.1528 334.146 79.6831 335.897 83.8677C340.01 93.6945 336.831 105 328.58 109.885C326.427 111.16 324.256 112.227 323.754 112.256C321.369 112.395 326.666 113.616 329.856 113.663C336.799 113.764 344.253 108.522 346.17 102.19C347.719 97.0705 346.757 89.6408 343.947 85.0251C339.645 77.9585 328.401 70.2905 316.717 66.4554C312.408 65.0408 315.637 65.0174 321.534 66.4198C329.052 68.2088 335.676 71.5522 348.658 80.1128C366.455 91.8481 374.424 94.7059 379.859 91.3019C384.93 88.1272 384.924 80.8798 379.848 77.0613L377.23 75.0931L375.844 77.5734C374.258 80.4138 369.788 82.699 365.817 82.7005C362.182 82.7028 354.752 80.1362 351.611 77.7943L349.073 75.9009L352.493 76.3472C360.369 77.3752 367.032 73.5129 366.114 68.4516C365.353 64.2594 364.243 63.615 360.704 65.3101C356.43 67.3578 349.047 68.5779 343.838 68.0976C341.398 67.8722 334.914 66.3207 329.429 64.649C314.238 60.0196 307.771 59.0022 293.648 59.0189C285.502 59.0287 279.265 59.4478 275.09 60.2655C271.631 60.9432 268.687 61.3963 268.548 61.2723C268.409 61.1482 271.342 59.9765 275.064 58.6679C292.669 52.4802 298.524 44.7306 292.517 35.5671C291.274 33.6708 289.173 31.4294 287.848 30.586L285.438 29.0527L286.346 32.0891Z" fill="url(#paint6_linear_2748_3022)"/>
<path fill-rule="evenodd" clip-rule="evenodd" d="M148.126 32.6471C144.774 36.1642 143.048 40.631 143.821 43.7912C145.225 49.5322 150.779 53.7325 163.297 58.5244C167.483 60.1272 169.957 61.2707 168.794 61.0657C167.631 60.8607 164.206 60.2624 161.182 59.7354C153.171 58.3414 133.479 58.5828 125.237 60.1773C121.516 60.8971 113.143 63.0269 106.631 64.91C96.0813 67.96 94.2045 68.2865 89.4209 67.9008C86.3956 67.6571 81.9925 66.6214 79.3351 65.5288C74.2901 63.4559 73.7793 63.5941 72.6714 67.3412C71.9203 69.8803 73.2253 72.6835 76.0341 74.5605C77.8999 75.808 79.5923 76.1444 83.7796 76.1019C88.9557 76.0495 89.075 76.0912 87.3116 77.3266C83.8075 79.7814 78.1519 81.9377 74.2225 82.3174C69.2223 82.8003 64.8869 80.9324 62.9569 77.4625L61.5715 74.9728L58.9962 76.9181C53.8463 80.8087 53.4987 87.0667 58.2341 90.6445C63.7477 94.8091 71.5439 92.2071 89.2078 80.3053C104.844 69.7687 111.529 66.6305 120.797 65.4764C124.124 65.0626 123.917 65.2198 118.025 67.5933C106.246 72.3366 97.8684 78.8133 93.7258 86.3796C90.7631 91.7902 90.5711 99.6094 93.2869 104.25C95.4394 107.928 99.8551 111.84 103.091 112.936C105.766 113.841 110.908 113.916 113.261 113.084C114.56 112.626 114.12 112.145 110.601 110.182C100.818 104.722 97.9496 91.9755 104.067 81.1374C106.485 76.8543 112.051 71.638 116.506 69.4794C118.975 68.2835 119.06 68.2782 117.203 69.4368C111.994 72.6866 106.377 78.6986 104.626 82.9005C102.611 87.7349 102.254 94.7712 103.79 99.374C106.128 106.38 113.019 110.324 119.756 108.511L123.156 107.597L118.98 103.945C115.01 100.473 112.128 95.0142 112.128 90.9626C112.128 87.3727 114.967 81.7137 118.578 78.1087C127.86 68.84 142.797 64.8492 161.346 66.6814C185.692 69.0868 203.538 77.9879 210.585 91.242C212.169 94.2207 213.687 97.2768 213.959 98.0338C214.975 100.861 215.927 98.4978 215.197 94.9633C211.204 75.6334 199.185 63.3071 172.428 51.1001C155.803 43.5163 150.324 38.1634 152.225 31.364C153.002 28.5827 151.576 29.0291 148.126 32.6471Z" fill="url(#paint7_linear_2748_3022)"/>
<path fill-rule="evenodd" clip-rule="evenodd" d="M261.668 63.7128C260.967 63.9932 260.012 64.2225 259.545 64.2225C259.078 64.2225 259.269 63.9932 259.97 63.7128C260.67 63.4325 261.625 63.2031 262.092 63.2031C262.559 63.2031 262.368 63.4325 261.668 63.7128Z" fill="black"/>
<path fill-rule="evenodd" clip-rule="evenodd" d="M19.2946 69.1738C14.9472 70.1817 11.7197 72.0322 7.95088 75.6766C2.73603 80.7184 0.840179 84.9962 0.421703 92.6654C-0.0425178 101.174 1.95583 106.074 8.4312 112.308C16.9202 120.48 26.9788 123.348 39.1223 121.059C51.0065 118.82 61.2956 113.37 74.2124 102.473L81.3578 96.4449L80.1041 99.6514C78.5539 103.613 79.1215 109.891 81.3341 113.268C83.723 116.913 88.1458 119.3 91.6012 118.809C93.1641 118.586 95.4081 117.841 96.5873 117.152L98.7314 115.9L96.0536 114.39C94.5805 113.558 92.3373 111.303 91.0675 109.378C88.9895 106.229 88.7583 105.158 88.7625 98.7054C88.7659 92.2917 89.0226 91.0935 91.187 87.3805C92.5178 85.0966 94.6034 82.0465 95.8207 80.6021L98.0342 77.9755L95.514 79.5844C94.1282 80.4685 87.4664 85.5187 80.7106 90.8059C57.1599 109.238 45.6713 114.825 31.1543 114.902C25.3913 114.932 23.6522 114.62 19.5284 112.815C16.8609 111.648 13.3208 109.279 11.6613 107.551C2.27011 97.7722 6.21853 82.3651 18.9897 78.9547C25.199 77.2968 31.4143 80.4821 32.9112 86.091L33.4737 88.1989L30.8968 85.9022C27.6658 83.0227 25.3515 82.9985 22.1943 85.8124C18.5763 89.0377 18.755 92.713 22.7017 96.2305C25.5337 98.7545 25.9225 98.8723 30.3444 98.5453C34.0133 98.2743 35.5618 97.733 37.6305 95.9995C46.2084 88.8104 43.4315 75.8283 32.2157 70.6876C28.5155 68.9911 22.911 68.335 19.2946 69.1738Z" fill="url(#paint8_linear_2748_3022)"/>
<path fill-rule="evenodd" clip-rule="evenodd" d="M419.77 69.1773C424.117 70.1949 427.345 72.0632 431.114 75.7426C436.329 80.8329 438.225 85.1519 438.643 92.8948C439.107 101.485 437.109 106.432 430.633 112.726C422.145 120.977 412.086 123.873 399.942 121.562C388.058 119.301 377.769 113.799 364.852 102.797L357.707 96.7107L358.961 99.948C360.511 103.948 359.943 110.286 357.731 113.695C355.342 117.375 350.919 119.786 347.464 119.289C345.901 119.065 343.657 118.312 342.477 117.617L340.333 116.353L343.011 114.828C344.484 113.989 346.727 111.712 347.997 109.768C350.075 106.589 350.306 105.508 350.302 98.9929C350.299 92.5175 350.042 91.3078 347.878 87.559C346.547 85.2532 344.461 82.1737 343.244 80.7155L341.031 78.0637L343.551 79.688C344.937 80.5806 351.598 85.6793 358.354 91.0174C381.905 109.627 393.393 115.267 407.91 115.345C413.673 115.376 415.412 115.06 419.536 113.239C422.204 112.06 425.744 109.668 427.403 107.923C436.795 98.0507 432.846 82.4954 420.075 79.0523C413.866 77.3784 407.65 80.5943 406.153 86.2571L405.591 88.3853L408.168 86.0666C411.399 83.1593 413.713 83.1349 416.87 85.9759C420.488 89.2322 420.31 92.9428 416.363 96.4942C413.531 99.0424 413.142 99.1613 408.72 98.8313C405.051 98.5576 403.503 98.0111 401.434 96.2609C392.856 89.0028 395.633 75.8958 406.849 70.7056C410.549 68.9928 416.154 68.3304 419.77 69.1773Z" fill="url(#paint9_linear_2748_3022)"/>
<path fill-rule="evenodd" clip-rule="evenodd" d="M158.402 78.5849C147.045 82.3271 139.518 92.5561 142.852 99.7143C144.615 103.503 147.425 105.511 150.961 105.511C155.333 105.511 157.446 103.822 158.974 99.105C161.614 90.9604 167.945 87.0497 178.478 87.0588C189.108 87.0679 199.705 90.842 207.376 97.3515C210.989 100.417 211.887 100.881 211.887 99.6809C211.887 97.2202 206.864 91.1759 202.248 88.0824C196.709 84.3697 189.311 81.0683 181.984 79.0409C175.192 77.1614 163.412 76.9338 158.402 78.5849Z" fill="#9A5124"/>
<path fill-rule="evenodd" clip-rule="evenodd" d="M260.993 77.9022C260.295 78.1027 257.252 78.9735 254.23 79.8376C247.029 81.8959 243.855 83.3787 237.576 87.6183C232.22 91.2338 227.178 97.0647 227.178 99.6431C227.178 100.8 228.179 100.286 231.946 97.1938C240.002 90.5808 250.06 87.0283 260.57 87.0837C270.702 87.1369 276.998 90.722 279.266 97.7291C281.016 103.135 283.581 105.511 287.668 105.511C290.046 105.511 291.407 104.921 293.624 102.929C296.147 100.663 296.498 99.8709 296.498 96.4452C296.498 91.5693 294.436 87.8157 289.527 83.7507C284.238 79.3729 277.859 77.4042 269.203 77.4786C265.385 77.5112 261.69 77.7026 260.993 77.9022Z" fill="#9A5124"/>
<path fill-rule="evenodd" clip-rule="evenodd" d="M173.97 93.3127C167.853 96.0569 165.388 103.304 168.17 110.372C168.803 111.982 169.977 113.956 170.779 114.758C172.825 116.808 174.561 115.763 179.657 109.414C182.171 106.281 185.026 103.67 186.748 102.93C189.943 101.555 199.586 101.25 201.648 102.457C202.727 103.09 202.691 103.203 201.403 103.213C200.57 103.219 198.365 103.929 196.502 104.79C190.832 107.412 187.958 113.724 191.127 116.596C194.297 119.467 198.768 116.846 202.615 109.859C204.043 107.265 206.141 104.245 207.275 103.149L209.338 101.155L206.551 99.2315C196.745 92.465 181.879 89.7645 173.97 93.3127Z" fill="#5D2F24"/>
<path fill-rule="evenodd" clip-rule="evenodd" d="M250.38 92.0592C249.917 92.2064 247.407 92.8659 244.803 93.5253C242.198 94.1848 237.742 96.1394 234.898 97.8685L229.727 101.012L232.153 103.818C233.488 105.361 235.565 108.401 236.767 110.574C239.073 114.738 242.478 117.743 244.889 117.743C246.996 117.743 249.117 115.258 249.117 112.789C249.117 109.971 242.832 104.137 239.055 103.45C234.905 102.694 237.674 101.665 243.895 101.651C250.796 101.636 253.103 102.805 258.639 109.121C265.965 117.479 266.62 117.66 269.398 112.089C271.587 107.7 271.544 100.524 269.309 97.1861C267.057 93.8229 261.785 91.6927 255.854 91.7486C253.307 91.7724 250.843 91.9127 250.38 92.0592Z" fill="#5D2F24"/>
<path fill-rule="evenodd" clip-rule="evenodd" d="M212.58 102.471C206.004 105.396 202.801 113.461 206.005 119.029C209.526 125.149 217.32 127.963 224.049 125.542C233.305 122.214 236.267 112.176 229.913 105.672C225.088 100.732 219.012 99.6098 212.58 102.471Z" fill="url(#paint10_linear_2748_3022)"/>
<path fill-rule="evenodd" clip-rule="evenodd" d="M223.549 627.939C213.32 622.996 206.232 614.475 204.335 604.839C203.142 598.781 204.128 593.101 209.514 574.991C214.635 557.775 217.073 547.005 217.758 538.57C218.291 532.029 219.521 531.852 219.642 538.299C219.737 543.354 223.633 560.999 228.14 576.779C233.687 596.199 233.828 597.586 231.558 610.284C230.352 617.027 229.832 622.531 230.109 625.615C230.407 628.932 230.241 630.422 229.577 630.407C229.048 630.396 226.335 629.285 223.549 627.939Z" fill="url(#paint11_linear_2748_3022)"/>
<path fill-rule="evenodd" clip-rule="evenodd" d="M249.144 606.983C249.602 605.642 248.825 604.715 244.805 601.795C236.551 595.803 232.502 589.238 230.619 578.789C230.282 576.92 228.334 568.685 226.289 560.489C222.148 543.888 221.664 540.665 224.678 549.761C227.111 557.106 233.152 569.885 237.221 576.296C240.189 580.975 245.26 587.851 245.742 587.851C245.882 587.851 242.426 581.573 238.06 573.9C231.097 561.662 225.914 551.204 225.974 549.511C225.984 549.209 227.255 551.053 228.798 553.609C232.488 559.721 235.656 563.31 245.196 572.186C254.813 581.133 257.45 585.595 257.402 592.845C257.366 598.473 255.326 602.95 251.227 606.396C248.891 608.36 248.651 608.428 249.144 606.983Z" fill="url(#paint12_linear_2748_3022)"/>
<path fill-rule="evenodd" clip-rule="evenodd" d="M185.691 606.189C182.261 602.742 180.439 598.103 180.437 592.801C180.433 585.298 182.56 581.625 191.746 573.273C201.219 564.66 206.64 558.714 209.39 553.921C210.569 551.867 211.699 550.186 211.901 550.186C213.103 550.186 202.755 569.89 194.966 582.43C192.841 585.852 191.281 588.653 191.5 588.653C191.719 588.653 193.848 586.023 196.231 582.807C202.076 574.921 208.364 563.157 212.408 552.542C216.529 541.726 216.659 542.93 212.851 556.637C211.244 562.423 208.908 571.534 207.661 576.884C204.546 590.251 202.628 593.757 194.836 600.335C191.323 603.3 188.448 606.127 188.448 606.618C188.448 607.906 187.208 607.713 185.691 606.189Z" fill="url(#paint13_linear_2748_3022)"/>
<path fill-rule="evenodd" clip-rule="evenodd" d="M220.19 576.397C220.233 563.708 219.942 550.944 219.544 548.032L218.819 542.737L218.271 549.923C217.52 559.794 217.422 586.502 218.102 596.513C219.097 611.168 220.104 601.456 220.19 576.397Z" fill="black"/>
<path fill-rule="evenodd" clip-rule="evenodd" d="M285.988 598.318C286.787 595.642 286.65 594.869 284.829 591.801C282.327 587.586 278.591 585.058 267.482 580.065C245.708 570.278 234.782 561.513 227.585 548.061C224.412 542.133 221.814 532.629 223.062 531.514C223.547 531.08 224.051 531.368 224.377 532.261C224.668 533.058 226.202 536.139 227.786 539.106C234.704 552.063 252.18 561.012 275.524 563.551C292.845 565.435 309.178 561.531 318.379 553.305C323.26 548.942 325.408 544.688 325.408 539.384C325.408 534.07 323.32 529.974 318.718 526.265C314.492 522.859 314.919 521.937 320.953 521.434C326.061 521.008 329.982 523.157 333.061 528.067C334.884 530.974 335.175 532.384 335.169 538.25C335.162 544.255 334.878 545.54 332.759 549.151C331.437 551.401 328.403 554.944 326.016 557.023C323.628 559.102 322.472 560.421 323.447 559.955C327 558.254 333.789 550.724 335.539 546.54C339.653 536.713 336.474 525.407 328.222 520.522C326.07 519.247 323.898 518.18 323.397 518.151C321.011 518.012 326.308 516.791 329.498 516.744C336.441 516.643 343.895 521.885 345.812 528.217C347.361 533.337 346.399 540.766 343.589 545.382C339.287 552.449 328.043 560.117 316.359 563.952C312.05 565.366 315.279 565.39 321.176 563.987C328.695 562.198 335.319 558.855 348.301 550.294C366.097 538.559 374.066 535.701 379.502 539.105C384.572 542.28 384.566 549.527 379.49 553.346L376.873 555.314L375.487 552.834C373.9 549.993 369.431 547.708 365.459 547.707C361.824 547.704 354.394 550.271 351.254 552.613L348.715 554.506L352.135 554.06C360.012 553.032 366.675 556.894 365.756 561.956C364.995 566.148 363.886 566.792 360.347 565.097C356.073 563.049 348.69 561.829 343.48 562.31C341.04 562.535 334.556 564.087 329.071 565.758C313.881 570.388 307.413 571.405 293.29 571.388C285.144 571.379 278.907 570.959 274.732 570.142C271.273 569.464 268.329 569.011 268.19 569.135C268.051 569.259 270.984 570.431 274.707 571.739C292.311 577.927 298.166 585.677 292.159 594.84C290.916 596.736 288.815 598.978 287.49 599.821L285.081 601.354L285.988 598.318Z" fill="black"/>
<path fill-rule="evenodd" clip-rule="evenodd" d="M147.769 597.76C144.416 594.243 142.69 589.776 143.463 586.616C144.868 580.875 150.421 576.675 162.939 571.883C167.126 570.28 169.6 569.137 168.437 569.342C167.274 569.547 163.848 570.145 160.825 570.672C152.814 572.066 133.122 571.824 124.88 570.23C121.158 569.51 112.785 567.38 106.273 565.497C95.7236 562.447 93.8469 562.121 89.0632 562.506C86.0379 562.75 81.6349 563.786 78.9775 564.878C73.9325 566.951 73.4216 566.813 72.3137 563.066C71.5626 560.527 72.8677 557.724 75.6764 555.847C77.5422 554.599 79.2346 554.263 83.422 554.305C88.5981 554.358 88.7173 554.316 86.9539 553.081C83.4499 550.626 77.7942 548.469 73.8648 548.09C68.8647 547.607 64.5293 549.475 62.5992 552.945L61.2139 555.434L58.6385 553.489C53.4886 549.599 53.141 543.341 57.8765 539.763C63.39 535.598 71.1863 538.2 88.8501 550.102C104.487 560.639 111.172 563.777 120.439 564.931C123.766 565.345 123.559 565.187 117.667 562.814C105.888 558.071 97.5107 551.594 93.3682 544.028C90.4055 538.617 90.2135 530.798 92.9292 526.157C95.0817 522.479 99.4974 518.567 102.733 517.472C105.409 516.567 110.551 516.491 112.904 517.323C114.202 517.781 113.762 518.262 110.243 520.226C100.46 525.686 97.5919 538.432 103.709 549.27C106.127 553.553 111.693 558.769 116.148 560.928C118.618 562.124 118.702 562.129 116.845 560.97C111.636 557.721 106.019 551.709 104.268 547.507C102.254 542.672 101.896 535.636 103.432 531.033C105.77 524.027 112.661 520.084 119.398 521.896L122.798 522.81L118.622 526.462C114.652 529.934 111.77 535.393 111.77 539.445C111.77 543.035 114.61 548.693 118.22 552.299C127.502 561.567 142.44 565.558 160.988 563.726C185.334 561.32 203.18 552.419 210.228 539.165C211.811 536.187 213.329 533.13 213.601 532.373C214.617 529.546 215.569 531.909 214.84 535.444C210.847 554.774 198.828 567.1 172.07 579.307C155.445 586.891 149.966 592.244 151.867 599.043C152.645 601.825 151.219 601.378 147.769 597.76Z" fill="black"/>
<path fill-rule="evenodd" clip-rule="evenodd" d="M261.31 566.694C260.61 566.414 259.654 566.185 259.187 566.185C258.721 566.185 258.912 566.414 259.612 566.694C260.312 566.975 261.268 567.204 261.735 567.204C262.201 567.204 262.01 566.975 261.31 566.694Z" fill="black"/>
<path fill-rule="evenodd" clip-rule="evenodd" d="M18.937 561.233C14.5896 560.226 11.362 558.375 7.59322 554.731C2.37836 549.689 0.482513 545.411 0.0640366 537.742C-0.400184 529.233 1.59817 524.333 8.07353 518.099C16.5625 509.927 26.6212 507.059 38.7646 509.348C50.6488 511.587 60.9379 517.037 73.8547 527.934L81.0002 533.962L79.7464 530.756C78.1962 526.794 78.7638 520.517 80.9765 517.139C83.3653 513.494 87.7881 511.107 91.2435 511.599C92.8065 511.821 95.0505 512.566 96.2297 513.255L98.3737 514.507L95.696 516.018C94.2228 516.849 91.9797 519.104 90.7098 521.029C88.6319 524.178 88.4006 525.249 88.4048 531.702C88.4082 538.116 88.6649 539.314 90.8293 543.027C92.1601 545.311 94.2457 548.361 95.463 549.805L97.6765 552.432L95.1564 550.823C93.7705 549.939 87.1087 544.889 80.353 539.601C56.8023 521.169 45.3137 515.583 30.7966 515.506C25.0337 515.475 23.2945 515.787 19.1708 517.592C16.5032 518.759 12.9631 521.128 11.3036 522.856C1.91245 532.635 5.86086 548.042 18.632 551.452C24.8414 553.11 31.0567 549.925 32.5535 544.316L33.116 542.208L30.5391 544.505C27.3082 547.385 24.9939 547.409 21.8367 544.595C18.2186 541.37 18.3974 537.694 22.3441 534.177C25.176 531.653 25.5648 531.535 29.9868 531.862C33.6556 532.133 35.2042 532.674 37.2728 534.408C45.8507 541.597 43.0739 554.579 31.858 559.72C28.1578 561.416 22.5533 562.072 18.937 561.233Z" fill="black"/>
<path fill-rule="evenodd" clip-rule="evenodd" d="M419.412 561.23C423.76 560.212 426.987 558.344 430.756 554.665C435.971 549.574 437.867 545.255 438.285 537.512C438.749 528.922 436.751 523.975 430.276 517.681C421.787 509.43 411.728 506.534 399.585 508.846C387.7 511.106 377.411 516.608 364.494 527.611L357.349 533.697L358.603 530.459C360.153 526.46 359.585 520.122 357.373 516.712C354.984 513.032 350.561 510.622 347.106 511.118C345.543 511.343 343.299 512.095 342.119 512.79L339.975 514.054L342.653 515.579C344.126 516.419 346.369 518.695 347.639 520.639C349.717 523.819 349.949 524.899 349.944 531.414C349.941 537.89 349.684 539.099 347.52 542.848C346.189 545.154 344.103 548.233 342.886 549.692L340.673 552.344L343.193 550.719C344.579 549.827 351.24 544.728 357.996 539.39C381.547 520.78 393.035 515.14 407.553 515.062C413.315 515.031 415.055 515.347 419.178 517.169C421.846 518.347 425.386 520.739 427.046 522.484C436.437 532.357 432.488 547.912 419.717 551.355C413.508 553.029 407.292 549.813 405.796 544.15L405.233 542.022L407.81 544.341C411.041 547.248 413.355 547.272 416.512 544.431C420.131 541.175 419.952 537.464 416.005 533.913C413.173 531.365 412.784 531.246 408.362 531.576C404.693 531.85 403.145 532.396 401.076 534.146C392.498 541.404 395.275 554.511 406.491 559.702C410.191 561.414 415.796 562.077 419.412 561.23Z" fill="black"/>
<path fill-rule="evenodd" clip-rule="evenodd" d="M158.044 551.822C146.688 548.08 139.16 537.851 142.494 530.693C144.258 526.904 147.067 524.897 150.604 524.897C154.975 524.897 157.088 526.586 158.617 531.302C161.256 539.447 167.588 543.358 178.12 543.348C188.75 543.339 199.347 539.565 207.018 533.056C210.632 529.99 211.529 529.527 211.529 530.726C211.529 533.187 206.506 539.231 201.89 542.325C196.351 546.037 188.953 549.339 181.626 551.366C174.834 553.246 163.054 553.473 158.044 551.822Z" fill="black"/>
<path fill-rule="evenodd" clip-rule="evenodd" d="M260.635 552.505C259.938 552.305 256.894 551.434 253.872 550.57C246.671 548.511 243.498 547.029 237.218 542.789C231.862 539.173 226.82 533.342 226.82 530.764C226.82 529.607 227.821 530.121 231.588 533.213C239.645 539.826 249.703 543.379 260.212 543.323C270.344 543.27 276.641 539.685 278.909 532.678C280.659 527.272 283.223 524.897 287.311 524.897C289.688 524.897 291.049 525.487 293.266 527.478C295.79 529.744 296.141 530.536 296.141 533.962C296.141 538.838 294.079 542.592 289.169 546.657C283.88 551.034 277.501 553.003 268.845 552.929C265.028 552.896 261.333 552.705 260.635 552.505Z" fill="black"/>
<path fill-rule="evenodd" clip-rule="evenodd" d="M173.612 537.094C167.496 534.35 165.031 527.103 167.812 520.036C168.445 518.425 169.619 516.451 170.421 515.649C172.468 513.599 174.204 514.644 179.299 520.993C181.813 524.126 184.668 526.737 186.39 527.477C189.586 528.852 199.228 529.157 201.29 527.95C202.37 527.318 202.333 527.204 201.045 527.194C200.212 527.188 198.007 526.478 196.145 525.618C190.474 522.995 187.601 516.684 190.77 513.811C193.939 510.94 198.41 513.561 202.258 520.548C203.686 523.142 205.783 526.162 206.918 527.258L208.98 529.252L206.193 531.176C196.388 537.942 181.521 540.643 173.612 537.094Z" fill="black"/>
<path fill-rule="evenodd" clip-rule="evenodd" d="M250.022 538.348C249.559 538.201 247.05 537.541 244.446 536.882C241.841 536.222 237.384 534.268 234.54 532.539L229.369 529.395L231.795 526.589C233.13 525.046 235.207 522.006 236.409 519.833C238.715 515.67 242.12 512.665 244.531 512.665C246.639 512.665 248.759 515.149 248.759 517.618C248.759 520.436 242.474 526.27 238.698 526.957C234.547 527.713 237.317 528.742 243.538 528.756C250.438 528.771 252.745 527.602 258.282 521.287C265.608 512.928 266.262 512.747 269.041 518.318C271.229 522.707 271.186 529.883 268.951 533.221C266.699 536.584 261.427 538.715 255.497 538.659C252.949 538.635 250.486 538.494 250.022 538.348Z" fill="black"/>
<path fill-rule="evenodd" clip-rule="evenodd" d="M212.222 527.936C205.646 525.011 202.443 516.946 205.647 511.379C209.168 505.258 216.962 502.445 223.691 504.865C232.947 508.193 235.909 518.231 229.556 524.735C224.73 529.675 218.654 530.797 212.222 527.936Z" fill="black"/>
<path fill-rule="evenodd" clip-rule="evenodd" d="M223.549 627.939C213.32 622.996 206.232 614.475 204.335 604.839C203.142 598.781 204.128 593.101 209.514 574.991C214.635 557.775 217.073 547.005 217.758 538.57C218.291 532.029 219.521 531.852 219.642 538.299C219.737 543.354 223.633 560.999 228.14 576.779C233.687 596.199 233.828 597.586 231.558 610.284C230.352 617.027 229.832 622.531 230.109 625.615C230.407 628.932 230.241 630.422 229.577 630.407C229.048 630.396 226.335 629.285 223.549 627.939Z" fill="url(#paint14_linear_2748_3022)"/>
<path fill-rule="evenodd" clip-rule="evenodd" d="M249.144 606.983C249.602 605.642 248.825 604.715 244.805 601.795C236.551 595.803 232.502 589.238 230.619 578.789C230.282 576.92 228.334 568.685 226.289 560.489C222.148 543.888 221.664 540.665 224.678 549.761C227.111 557.106 233.152 569.885 237.221 576.296C240.189 580.975 245.26 587.851 245.742 587.851C245.882 587.851 242.426 581.573 238.06 573.9C231.097 561.662 225.914 551.204 225.974 549.511C225.984 549.209 227.255 551.053 228.798 553.609C232.488 559.721 235.656 563.31 245.196 572.186C254.813 581.133 257.45 585.595 257.402 592.845C257.366 598.473 255.326 602.95 251.227 606.396C248.891 608.36 248.651 608.428 249.144 606.983Z" fill="url(#paint15_linear_2748_3022)"/>
<path fill-rule="evenodd" clip-rule="evenodd" d="M185.691 606.189C182.261 602.742 180.439 598.103 180.437 592.801C180.433 585.298 182.56 581.625 191.746 573.273C201.219 564.66 206.64 558.714 209.39 553.921C210.569 551.867 211.699 550.186 211.901 550.186C213.103 550.186 202.755 569.89 194.966 582.43C192.841 585.852 191.281 588.653 191.5 588.653C191.719 588.653 193.848 586.023 196.231 582.807C202.076 574.921 208.364 563.157 212.408 552.542C216.529 541.726 216.659 542.93 212.851 556.637C211.244 562.423 208.908 571.534 207.661 576.884C204.546 590.251 202.628 593.757 194.836 600.335C191.323 603.3 188.448 606.127 188.448 606.618C188.448 607.906 187.208 607.713 185.691 606.189Z" fill="url(#paint16_linear_2748_3022)"/>
<path fill-rule="evenodd" clip-rule="evenodd" d="M220.19 576.397C220.233 563.708 219.942 550.944 219.544 548.032L218.819 542.737L218.271 549.923C217.52 559.794 217.422 586.502 218.102 596.513C219.097 611.168 220.104 601.456 220.19 576.397Z" fill="white"/>
<path fill-rule="evenodd" clip-rule="evenodd" d="M285.988 598.318C286.787 595.642 286.65 594.869 284.829 591.801C282.327 587.586 278.591 585.058 267.482 580.065C245.708 570.278 234.782 561.513 227.585 548.061C224.412 542.133 221.814 532.629 223.062 531.514C223.547 531.08 224.051 531.368 224.377 532.261C224.668 533.058 226.202 536.139 227.786 539.106C234.704 552.063 252.18 561.012 275.524 563.551C292.845 565.435 309.178 561.531 318.379 553.305C323.26 548.942 325.408 544.688 325.408 539.384C325.408 534.07 323.32 529.974 318.718 526.265C314.492 522.859 314.919 521.937 320.953 521.434C326.061 521.008 329.982 523.157 333.061 528.067C334.884 530.974 335.175 532.384 335.169 538.25C335.162 544.255 334.878 545.54 332.759 549.151C331.437 551.401 328.403 554.944 326.016 557.023C323.628 559.102 322.472 560.421 323.447 559.955C327 558.254 333.789 550.724 335.539 546.54C339.653 536.713 336.474 525.407 328.222 520.522C326.07 519.247 323.898 518.18 323.397 518.151C321.011 518.012 326.308 516.791 329.498 516.744C336.441 516.643 343.895 521.885 345.812 528.217C347.361 533.337 346.399 540.766 343.589 545.382C339.287 552.449 328.043 560.117 316.359 563.952C312.05 565.366 315.279 565.39 321.176 563.987C328.695 562.198 335.319 558.855 348.301 550.294C366.097 538.559 374.066 535.701 379.502 539.105C384.572 542.28 384.566 549.527 379.49 553.346L376.873 555.314L375.487 552.834C373.9 549.993 369.431 547.708 365.459 547.707C361.824 547.704 354.394 550.271 351.254 552.613L348.715 554.506L352.135 554.06C360.012 553.032 366.675 556.894 365.756 561.956C364.995 566.148 363.886 566.792 360.347 565.097C356.073 563.049 348.69 561.829 343.48 562.31C341.04 562.535 334.556 564.087 329.071 565.758C313.881 570.388 307.413 571.405 293.29 571.388C285.144 571.379 278.907 570.959 274.732 570.142C271.273 569.464 268.329 569.011 268.19 569.135C268.051 569.259 270.984 570.431 274.707 571.739C292.311 577.927 298.166 585.677 292.159 594.84C290.916 596.736 288.815 598.978 287.49 599.821L285.081 601.354L285.988 598.318Z" fill="url(#paint17_linear_2748_3022)"/>
<path fill-rule="evenodd" clip-rule="evenodd" d="M147.769 597.76C144.416 594.243 142.69 589.776 143.463 586.616C144.868 580.875 150.421 576.675 162.939 571.883C167.126 570.28 169.6 569.137 168.437 569.342C167.274 569.547 163.848 570.145 160.825 570.672C152.814 572.066 133.122 571.824 124.88 570.23C121.158 569.51 112.785 567.38 106.273 565.497C95.7236 562.447 93.8469 562.121 89.0632 562.506C86.0379 562.75 81.6349 563.786 78.9775 564.878C73.9325 566.951 73.4216 566.813 72.3137 563.066C71.5626 560.527 72.8677 557.724 75.6764 555.847C77.5422 554.599 79.2346 554.263 83.422 554.305C88.5981 554.358 88.7173 554.316 86.9539 553.081C83.4499 550.626 77.7942 548.469 73.8648 548.09C68.8647 547.607 64.5293 549.475 62.5992 552.945L61.2139 555.434L58.6385 553.489C53.4886 549.599 53.141 543.341 57.8765 539.763C63.39 535.598 71.1863 538.2 88.8501 550.102C104.487 560.639 111.172 563.777 120.439 564.931C123.766 565.345 123.559 565.187 117.667 562.814C105.888 558.071 97.5107 551.594 93.3682 544.028C90.4055 538.617 90.2135 530.798 92.9292 526.157C95.0817 522.479 99.4974 518.567 102.733 517.472C105.409 516.567 110.551 516.491 112.904 517.323C114.202 517.781 113.762 518.262 110.243 520.226C100.46 525.686 97.5919 538.432 103.709 549.27C106.127 553.553 111.693 558.769 116.148 560.928C118.618 562.124 118.702 562.129 116.845 560.97C111.636 557.721 106.019 551.709 104.268 547.507C102.254 542.672 101.896 535.636 103.432 531.033C105.77 524.027 112.661 520.084 119.398 521.896L122.798 522.81L118.622 526.462C114.652 529.934 111.77 535.393 111.77 539.445C111.77 543.035 114.61 548.693 118.22 552.299C127.502 561.567 142.44 565.558 160.988 563.726C185.334 561.32 203.18 552.419 210.228 539.165C211.811 536.187 213.329 533.13 213.601 532.373C214.617 529.546 215.569 531.909 214.84 535.444C210.847 554.774 198.828 567.1 172.07 579.307C155.445 586.891 149.966 592.244 151.867 599.043C152.645 601.825 151.219 601.378 147.769 597.76Z" fill="url(#paint18_linear_2748_3022)"/>
<path fill-rule="evenodd" clip-rule="evenodd" d="M261.31 566.694C260.61 566.414 259.654 566.185 259.187 566.185C258.721 566.185 258.912 566.414 259.612 566.694C260.312 566.975 261.268 567.204 261.735 567.204C262.201 567.204 262.01 566.975 261.31 566.694Z" fill="black"/>
<path fill-rule="evenodd" clip-rule="evenodd" d="M18.937 561.233C14.5896 560.226 11.362 558.375 7.59322 554.731C2.37836 549.689 0.482513 545.411 0.0640366 537.742C-0.400184 529.233 1.59817 524.333 8.07353 518.099C16.5625 509.927 26.6212 507.059 38.7646 509.348C50.6488 511.587 60.9379 517.037 73.8547 527.934L81.0002 533.962L79.7464 530.756C78.1962 526.794 78.7638 520.517 80.9765 517.139C83.3653 513.494 87.7881 511.107 91.2435 511.599C92.8065 511.821 95.0505 512.566 96.2297 513.255L98.3737 514.507L95.696 516.018C94.2228 516.849 91.9797 519.104 90.7098 521.029C88.6319 524.178 88.4006 525.249 88.4048 531.702C88.4082 538.116 88.6649 539.314 90.8293 543.027C92.1601 545.311 94.2457 548.361 95.463 549.805L97.6765 552.432L95.1564 550.823C93.7705 549.939 87.1087 544.889 80.353 539.601C56.8023 521.169 45.3137 515.583 30.7966 515.506C25.0337 515.475 23.2945 515.787 19.1708 517.592C16.5032 518.759 12.9631 521.128 11.3036 522.856C1.91245 532.635 5.86086 548.042 18.632 551.452C24.8414 553.11 31.0567 549.925 32.5535 544.316L33.116 542.208L30.5391 544.505C27.3082 547.385 24.9939 547.409 21.8367 544.595C18.2186 541.37 18.3974 537.694 22.3441 534.177C25.176 531.653 25.5648 531.535 29.9868 531.862C33.6556 532.133 35.2042 532.674 37.2728 534.408C45.8507 541.597 43.0739 554.579 31.858 559.72C28.1578 561.416 22.5533 562.072 18.937 561.233Z" fill="url(#paint19_linear_2748_3022)"/>
<path fill-rule="evenodd" clip-rule="evenodd" d="M419.412 561.23C423.76 560.212 426.987 558.344 430.756 554.665C435.971 549.574 437.867 545.255 438.285 537.512C438.749 528.922 436.751 523.975 430.276 517.681C421.787 509.43 411.728 506.534 399.585 508.846C387.7 511.106 377.411 516.608 364.494 527.611L357.349 533.697L358.603 530.459C360.153 526.46 359.585 520.122 357.373 516.712C354.984 513.032 350.561 510.622 347.106 511.118C345.543 511.343 343.299 512.095 342.119 512.79L339.975 514.054L342.653 515.579C344.126 516.419 346.369 518.695 347.639 520.639C349.717 523.819 349.949 524.899 349.944 531.414C349.941 537.89 349.684 539.099 347.52 542.848C346.189 545.154 344.103 548.233 342.886 549.692L340.673 552.344L343.193 550.719C344.579 549.827 351.24 544.728 357.996 539.39C381.547 520.78 393.035 515.14 407.553 515.062C413.315 515.031 415.055 515.347 419.178 517.169C421.846 518.347 425.386 520.739 427.046 522.484C436.437 532.357 432.488 547.912 419.717 551.355C413.508 553.029 407.292 549.813 405.796 544.15L405.233 542.022L407.81 544.341C411.041 547.248 413.355 547.272 416.512 544.431C420.131 541.175 419.952 537.464 416.005 533.913C413.173 531.365 412.784 531.246 408.362 531.576C404.693 531.85 403.145 532.396 401.076 534.146C392.498 541.404 395.275 554.511 406.491 559.702C410.191 561.414 415.796 562.077 419.412 561.23Z" fill="url(#paint20_linear_2748_3022)"/>
<path fill-rule="evenodd" clip-rule="evenodd" d="M158.044 551.822C146.688 548.08 139.16 537.851 142.494 530.693C144.258 526.904 147.067 524.897 150.604 524.897C154.975 524.897 157.088 526.586 158.617 531.302C161.256 539.447 167.588 543.358 178.12 543.348C188.75 543.339 199.347 539.565 207.018 533.056C210.632 529.99 211.529 529.527 211.529 530.726C211.529 533.187 206.506 539.231 201.89 542.325C196.351 546.037 188.953 549.339 181.626 551.366C174.834 553.246 163.054 553.473 158.044 551.822Z" fill="#9A5124"/>
<path fill-rule="evenodd" clip-rule="evenodd" d="M260.635 552.505C259.938 552.305 256.894 551.434 253.872 550.57C246.671 548.511 243.498 547.029 237.218 542.789C231.862 539.173 226.82 533.342 226.82 530.764C226.82 529.607 227.821 530.121 231.588 533.213C239.645 539.826 249.703 543.379 260.212 543.323C270.344 543.27 276.641 539.685 278.909 532.678C280.659 527.272 283.223 524.897 287.311 524.897C289.688 524.897 291.049 525.487 293.266 527.478C295.79 529.744 296.141 530.536 296.141 533.962C296.141 538.838 294.079 542.592 289.169 546.657C283.88 551.034 277.501 553.003 268.845 552.929C265.028 552.896 261.333 552.705 260.635 552.505Z" fill="#9A5124"/>
<path fill-rule="evenodd" clip-rule="evenodd" d="M173.612 537.094C167.496 534.35 165.031 527.103 167.812 520.036C168.445 518.425 169.619 516.451 170.421 515.649C172.468 513.599 174.204 514.644 179.299 520.993C181.813 524.126 184.668 526.737 186.39 527.477C189.586 528.852 199.228 529.157 201.29 527.95C202.37 527.318 202.333 527.204 201.045 527.194C200.212 527.188 198.007 526.478 196.145 525.618C190.474 522.995 187.601 516.684 190.77 513.811C193.939 510.94 198.41 513.561 202.258 520.548C203.686 523.142 205.783 526.162 206.918 527.258L208.98 529.252L206.193 531.176C196.388 537.942 181.521 540.643 173.612 537.094Z" fill="#5D2F24"/>
<path fill-rule="evenodd" clip-rule="evenodd" d="M250.022 538.348C249.559 538.201 247.05 537.541 244.446 536.882C241.841 536.222 237.384 534.268 234.54 532.539L229.369 529.395L231.795 526.589C233.13 525.046 235.207 522.006 236.409 519.833C238.715 515.67 242.12 512.665 244.531 512.665C246.639 512.665 248.759 515.149 248.759 517.618C248.759 520.436 242.474 526.27 238.698 526.957C234.547 527.713 237.317 528.742 243.538 528.756C250.438 528.771 252.745 527.602 258.282 521.287C265.608 512.928 266.262 512.747 269.041 518.318C271.229 522.707 271.186 529.883 268.951 533.221C266.699 536.584 261.427 538.715 255.497 538.659C252.949 538.635 250.486 538.494 250.022 538.348Z" fill="#5D2F24"/>
<path fill-rule="evenodd" clip-rule="evenodd" d="M212.222 527.936C205.646 525.011 202.443 516.946 205.647 511.379C209.168 505.258 216.962 502.445 223.691 504.865C232.947 508.193 235.909 518.231 229.556 524.735C224.73 529.675 218.654 530.797 212.222 527.936Z" fill="url(#paint21_linear_2748_3022)"/>
<defs>
<linearGradient id="paint0_linear_2748_3022" x1="218.768" y1="0" x2="218.768" y2="96.8446" gradientUnits="userSpaceOnUse">
<stop stop-color="#FFD200"/>
<stop offset="0.660327" stop-color="#CB381F"/>
<stop offset="0.826923" stop-color="#852816"/>
<stop offset="1" stop-color="#3F170D"/>
</linearGradient>
<linearGradient id="paint1_linear_2748_3022" x1="240.43" y1="22.4272" x2="240.43" y2="85.6311" gradientUnits="userSpaceOnUse">
<stop stop-color="#FFD200"/>
<stop offset="0.660327" stop-color="#CB381F"/>
<stop offset="0.826923" stop-color="#852816"/>
<stop offset="1" stop-color="#3F170D"/>
</linearGradient>
<linearGradient id="paint2_linear_2748_3022" x1="198.379" y1="22.9365" x2="198.379" y2="85.1209" gradientUnits="userSpaceOnUse">
<stop stop-color="#FFD200"/>
<stop offset="0.660327" stop-color="#CB381F"/>
<stop offset="0.826923" stop-color="#852816"/>
<stop offset="1" stop-color="#3F170D"/>
</linearGradient>
<linearGradient id="paint3_linear_2748_3022" x1="218.768" y1="0" x2="218.768" y2="96.8446" gradientUnits="userSpaceOnUse">
<stop stop-color="#FFD200"/>
<stop offset="0.660327" stop-color="#CB381F"/>
<stop offset="0.826923" stop-color="#852816"/>
<stop offset="1" stop-color="#3F170D"/>
</linearGradient>
<linearGradient id="paint4_linear_2748_3022" x1="240.43" y1="22.4272" x2="240.43" y2="85.6311" gradientUnits="userSpaceOnUse">
<stop stop-color="#FFD200"/>
<stop offset="0.660327" stop-color="#CB381F"/>
<stop offset="0.826923" stop-color="#852816"/>
<stop offset="1" stop-color="#3F170D"/>
</linearGradient>
<linearGradient id="paint5_linear_2748_3022" x1="198.379" y1="22.9365" x2="198.379" y2="85.1209" gradientUnits="userSpaceOnUse">
<stop stop-color="#FFD200"/>
<stop offset="0.660327" stop-color="#CB381F"/>
<stop offset="0.826923" stop-color="#852816"/>
<stop offset="1" stop-color="#3F170D"/>
</linearGradient>
<linearGradient id="paint6_linear_2748_3022" x1="303.379" y1="29.0527" x2="303.379" y2="113.664" gradientUnits="userSpaceOnUse">
<stop stop-color="#FFC411"/>
<stop offset="0.221154" stop-color="#CD9C1A"/>
<stop offset="0.447115" stop-color="#BD6229"/>
<stop offset="0.605769" stop-color="#5D2F24"/>
<stop offset="0.807692" stop-color="#5D2F24"/>
</linearGradient>
<linearGradient id="paint7_linear_2748_3022" x1="135.176" y1="29.562" x2="135.176" y2="113.664" gradientUnits="userSpaceOnUse">
<stop stop-color="#FFC411"/>
<stop offset="0.221154" stop-color="#CD9C1A"/>
<stop offset="0.447115" stop-color="#BD6229"/>
<stop offset="0.605769" stop-color="#5D2F24"/>
<stop offset="0.807692" stop-color="#5D2F24"/>
</linearGradient>
<linearGradient id="paint8_linear_2748_3022" x1="49.5445" y1="68.8101" x2="49.5445" y2="121.82" gradientUnits="userSpaceOnUse">
<stop stop-color="#FFD200"/>
<stop offset="0.660327" stop-color="#CB381F"/>
<stop offset="0.826923" stop-color="#852816"/>
<stop offset="1" stop-color="#3F170D"/>
</linearGradient>
<linearGradient id="paint9_linear_2748_3022" x1="389.52" y1="68.8101" x2="389.52" y2="122.329" gradientUnits="userSpaceOnUse">
<stop stop-color="#FFD200"/>
<stop offset="0.660327" stop-color="#CB381F"/>
<stop offset="0.826923" stop-color="#852816"/>
<stop offset="1" stop-color="#3F170D"/>
</linearGradient>
<linearGradient id="paint10_linear_2748_3022" x1="219.023" y1="100.922" x2="219.023" y2="126.407" gradientUnits="userSpaceOnUse">
<stop stop-color="#FFD200"/>
<stop offset="0.660327" stop-color="#CB381F"/>
<stop offset="0.826923" stop-color="#852816"/>
<stop offset="1" stop-color="#3F170D"/>
</linearGradient>
<linearGradient id="paint11_linear_2748_3022" x1="218.41" y1="630.407" x2="218.41" y2="533.563" gradientUnits="userSpaceOnUse">
<stop stop-color="#FFD200"/>
<stop offset="0.660327" stop-color="#CB381F"/>
<stop offset="0.826923" stop-color="#852816"/>
<stop offset="1" stop-color="#3F170D"/>
</linearGradient>
<linearGradient id="paint12_linear_2748_3022" x1="240.073" y1="607.98" x2="240.073" y2="544.776" gradientUnits="userSpaceOnUse">
<stop stop-color="#FFD200"/>
<stop offset="0.660327" stop-color="#CB381F"/>
<stop offset="0.826923" stop-color="#852816"/>
<stop offset="1" stop-color="#3F170D"/>
</linearGradient>
<linearGradient id="paint13_linear_2748_3022" x1="198.022" y1="607.471" x2="198.022" y2="545.286" gradientUnits="userSpaceOnUse">
<stop stop-color="#FFD200"/>
<stop offset="0.660327" stop-color="#CB381F"/>
<stop offset="0.826923" stop-color="#852816"/>
<stop offset="1" stop-color="#3F170D"/>
</linearGradient>
<linearGradient id="paint14_linear_2748_3022" x1="218.41" y1="630.407" x2="218.41" y2="533.563" gradientUnits="userSpaceOnUse">
<stop stop-color="#FFD200"/>
<stop offset="0.660327" stop-color="#CB381F"/>
<stop offset="0.826923" stop-color="#852816"/>
<stop offset="1" stop-color="#3F170D"/>
</linearGradient>
<linearGradient id="paint15_linear_2748_3022" x1="240.073" y1="607.98" x2="240.073" y2="544.776" gradientUnits="userSpaceOnUse">
<stop stop-color="#FFD200"/>
<stop offset="0.660327" stop-color="#CB381F"/>
<stop offset="0.826923" stop-color="#852816"/>
<stop offset="1" stop-color="#3F170D"/>
</linearGradient>
<linearGradient id="paint16_linear_2748_3022" x1="198.022" y1="607.471" x2="198.022" y2="545.286" gradientUnits="userSpaceOnUse">
<stop stop-color="#FFD200"/>
<stop offset="0.660327" stop-color="#CB381F"/>
<stop offset="0.826923" stop-color="#852816"/>
<stop offset="1" stop-color="#3F170D"/>
</linearGradient>
<linearGradient id="paint17_linear_2748_3022" x1="303.022" y1="601.354" x2="303.022" y2="516.743" gradientUnits="userSpaceOnUse">
<stop stop-color="#FFC411"/>
<stop offset="0.221154" stop-color="#CD9C1A"/>
<stop offset="0.447115" stop-color="#BD6229"/>
<stop offset="0.605769" stop-color="#5D2F24"/>
<stop offset="0.807692" stop-color="#5D2F24"/>
</linearGradient>
<linearGradient id="paint18_linear_2748_3022" x1="134.818" y1="600.845" x2="134.818" y2="516.743" gradientUnits="userSpaceOnUse">
<stop stop-color="#FFC411"/>
<stop offset="0.221154" stop-color="#CD9C1A"/>
<stop offset="0.447115" stop-color="#BD6229"/>
<stop offset="0.605769" stop-color="#5D2F24"/>
<stop offset="0.807692" stop-color="#5D2F24"/>
</linearGradient>
<linearGradient id="paint19_linear_2748_3022" x1="49.1869" y1="561.597" x2="49.1869" y2="508.587" gradientUnits="userSpaceOnUse">
<stop stop-color="#FFD200"/>
<stop offset="0.660327" stop-color="#CB381F"/>
<stop offset="0.826923" stop-color="#852816"/>
<stop offset="1" stop-color="#3F170D"/>
</linearGradient>
<linearGradient id="paint20_linear_2748_3022" x1="389.162" y1="561.597" x2="389.162" y2="508.078" gradientUnits="userSpaceOnUse">
<stop stop-color="#FFD200"/>
<stop offset="0.660327" stop-color="#CB381F"/>
<stop offset="0.826923" stop-color="#852816"/>
<stop offset="1" stop-color="#3F170D"/>
</linearGradient>
<linearGradient id="paint21_linear_2748_3022" x1="218.665" y1="529.485" x2="218.665" y2="504" gradientUnits="userSpaceOnUse">
<stop stop-color="#FFD200"/>
<stop offset="0.660327" stop-color="#CB381F"/>
<stop offset="0.826923" stop-color="#852816"/>
<stop offset="1" stop-color="#3F170D"/>
</linearGradient>
</defs>
</svg>
