<svg width="44" height="49" viewBox="0 0 44 49" fill="none" xmlns="http://www.w3.org/2000/svg">
<path fill-rule="evenodd" clip-rule="evenodd" d="M43.2147 23.7963C43.1356 23.7403 42.6661 23.6158 42.1256 23.5078C41.7015 23.4228 41.4079 23.3358 41.408 23.2948C41.4081 23.2724 41.2686 23.2199 41.0982 23.178C40.9278 23.1362 40.6727 23.0554 40.5314 22.9986C40.3901 22.9417 40.2381 22.8952 40.1936 22.8951C40.149 22.895 40.0694 22.8581 40.0165 22.8131C39.9061 22.7189 39.2784 22.4035 39.1088 22.3569C39.046 22.3397 38.9947 22.3077 38.9947 22.2858C38.9948 22.2639 38.8292 22.1487 38.6268 22.0298C38.4244 21.9109 38.1764 21.7504 38.0758 21.6731C37.9751 21.5958 37.7291 21.4199 37.5293 21.2823C37.3293 21.1447 37.0504 20.9384 36.9094 20.8238C36.7685 20.7092 36.63 20.6143 36.6017 20.613C36.5733 20.6117 36.4485 20.5367 36.3244 20.4462C36.2003 20.3557 36.064 20.2816 36.0217 20.2815C35.9792 20.2815 35.9289 20.2466 35.9098 20.2041C35.8627 20.0994 35.2286 19.8488 34.8942 19.8028C34.7452 19.7823 34.6074 19.7438 34.5882 19.7173C34.5427 19.6544 33.6655 19.653 33.6197 19.7157C33.6004 19.7422 33.4424 19.7796 33.2686 19.7989C32.9899 19.8299 32.7183 19.9013 32.0634 20.116C31.9645 20.1484 31.8837 20.1974 31.8836 20.2249C31.8836 20.2524 31.8322 20.2754 31.7693 20.276C31.7065 20.2765 31.5816 20.3257 31.4917 20.3852C31.4018 20.4448 31.2906 20.4939 31.2444 20.4945C31.166 20.4956 30.8461 20.6475 30.773 20.7184C30.755 20.7358 30.564 20.8212 30.3484 20.9081C29.8741 21.0992 29.2056 21.1691 29.2058 21.0273C29.2059 20.9786 29.2868 20.8955 29.3857 20.8427C30.4431 20.2769 31.7009 19.2271 32.3761 18.3466C32.779 17.8211 32.9198 17.5252 32.8109 17.4324C32.7645 17.3928 32.3247 17.3715 31.5474 17.3713C30.4852 17.371 30.3162 17.3839 29.9988 17.4893C29.803 17.5544 29.6177 17.6454 29.5873 17.6914C29.5568 17.7375 29.4903 17.7751 29.4395 17.7751C29.2548 17.7748 28.642 18.139 28.0366 18.6088C27.8965 18.7175 27.659 18.8786 27.5091 18.9665C27.359 19.0545 27.2212 19.1598 27.2027 19.2005C27.1681 19.277 26.5072 19.6562 26.4089 19.656C26.3784 19.656 26.3402 19.4 26.3239 19.0874C26.2921 18.4736 26.1561 18.1387 25.8689 17.9671C25.6253 17.8216 25.4685 17.8616 25.1821 18.1426C25.0347 18.2873 24.8011 18.5069 24.6632 18.6307C23.7803 19.4223 23.5295 19.6607 23.5294 19.7085C23.5293 19.7381 23.4901 19.7623 23.4422 19.7622C23.3943 19.7621 23.2213 19.8804 23.0579 20.025C22.6949 20.3463 22.3454 20.59 22.246 20.5913C22.2053 20.5917 22.128 20.649 22.0742 20.7185C22.0204 20.788 21.8379 20.9051 21.6685 20.9788C21.4992 21.0524 21.2971 21.1695 21.2195 21.2388C21.1419 21.3082 21.0485 21.3653 21.012 21.3658C20.9754 21.3663 20.8374 21.4289 20.7051 21.505C20.5729 21.581 20.4264 21.6436 20.3796 21.6441C20.3328 21.6445 20.2253 21.7068 20.1406 21.7823C20.0559 21.858 19.9452 21.9197 19.8946 21.9197C19.8441 21.9196 19.7516 21.9433 19.6893 21.9724C19.3321 22.1387 18.5226 22.4267 18.0408 22.5587C17.7355 22.6425 17.471 22.7282 17.453 22.7493C17.435 22.7705 17.0824 22.8543 16.6693 22.9355C16.2563 23.0168 15.8281 23.1069 15.7178 23.1358C15.6075 23.1647 15.4386 23.1882 15.3424 23.1881C15.2463 23.1879 15.1675 23.2105 15.1674 23.2384C15.1674 23.2662 15.0425 23.3049 14.8899 23.3243C14.7372 23.3438 14.4581 23.383 14.2696 23.4114C13.3845 23.5449 13.199 23.569 12.5883 23.629C12.2292 23.6644 11.7885 23.7274 11.6089 23.7691C11.4293 23.8109 11.1943 23.8516 11.0866 23.8596C10.9401 23.8706 10.8906 23.9022 10.8905 23.9852C10.8903 24.102 10.9186 24.1082 11.9345 24.2134C12.1498 24.2357 12.343 24.2759 12.3636 24.3027C12.3842 24.3295 12.6191 24.3762 12.8856 24.4064C13.5208 24.4786 14.0623 24.5511 14.5447 24.6286C14.76 24.6632 15.0537 24.7065 15.1973 24.7247C15.3408 24.743 15.473 24.7766 15.4909 24.7994C15.5088 24.8222 15.8317 24.8961 16.2086 24.9637C17.1615 25.1346 17.5971 25.2348 17.6399 25.293C17.6601 25.3203 17.8087 25.3749 17.9702 25.4141C18.1316 25.4534 18.2917 25.5063 18.3257 25.5318C18.3598 25.5572 18.4369 25.578 18.4971 25.5781C18.6071 25.5783 18.9616 25.7004 19.1444 25.8009C19.1982 25.8305 19.5064 25.9591 19.8292 26.0867C20.1521 26.2143 20.4309 26.3359 20.4488 26.3569C20.4667 26.3779 20.6575 26.4759 20.8727 26.5748C21.0879 26.6737 21.2933 26.7842 21.3292 26.8204C21.365 26.8567 21.5787 26.9823 21.8041 27.0995C22.0295 27.2168 22.3229 27.398 22.4561 27.5024C22.5893 27.6067 22.7205 27.6922 22.7477 27.6924C22.7747 27.6926 22.9271 27.8052 23.0861 27.9428C23.2451 28.0803 23.3923 28.1929 23.4132 28.1929C23.4638 28.193 24.2952 28.9209 24.2951 28.9651C24.2951 28.9841 24.3971 29.0744 24.5218 29.1659C24.6465 29.2573 24.7498 29.357 24.7514 29.3875C24.7553 29.4647 25.18 29.8597 25.2592 29.8598C25.2948 29.8599 25.3407 29.8974 25.3613 29.9432C25.4305 30.0973 25.7082 30.0387 25.9149 29.8264C26.1378 29.5974 26.2231 29.3492 26.289 28.7375C26.3145 28.5007 26.3571 28.2956 26.3835 28.2817C26.4099 28.2679 26.5018 28.3208 26.5877 28.3991C26.6735 28.4774 26.8318 28.5793 26.9394 28.6255C27.047 28.6716 27.2377 28.7941 27.3632 28.8976C27.7982 29.2565 28.1608 29.5317 28.202 29.534C28.2246 29.5353 28.3448 29.6103 28.4689 29.7008C28.593 29.7913 28.7293 29.8654 28.7716 29.8654C28.8141 29.8655 28.8641 29.8999 28.883 29.9418C28.9191 30.022 29.8239 30.3663 29.9995 30.3666C30.0559 30.3667 30.1019 30.3882 30.1019 30.4144C30.1017 30.507 31.0592 30.6048 31.6462 30.572C32.5851 30.5195 32.8074 30.4742 32.8317 30.3304C32.8539 30.199 32.4753 29.5386 32.3775 29.5384C32.3457 29.5384 32.2935 29.4822 32.2616 29.4135C32.2024 29.2862 32.1113 29.1816 31.6248 28.682C31.2426 28.2896 31.1176 28.1828 30.5964 27.8035C29.8178 27.2369 29.7126 27.1661 29.5325 27.0872C29.3407 27.0032 29.1296 26.8263 29.1297 26.7497C29.1299 26.6511 29.3397 26.6382 29.7305 26.7124C29.951 26.7544 30.163 26.8139 30.2015 26.8446C30.2401 26.8753 30.3451 26.9282 30.4348 26.9622C30.5245 26.9961 30.7254 27.0776 30.8813 27.1431C31.0371 27.2087 31.2044 27.2625 31.2531 27.2626C31.3018 27.2626 31.365 27.2974 31.3936 27.3398C31.45 27.4232 32.1762 27.7192 32.4903 27.7867C32.5968 27.8096 32.7007 27.8515 32.7212 27.8797C32.7941 27.9804 33.5156 28.0982 34.0649 28.099C34.621 28.0999 35.3285 27.9747 35.3287 27.8753C35.3288 27.8469 35.3655 27.8236 35.4104 27.8235C35.582 27.8231 36.3034 27.4577 36.4551 27.2944C36.5237 27.2206 36.6146 27.1602 36.6573 27.1603C36.6999 27.1603 36.8228 27.0737 36.9304 26.9678C37.0379 26.8618 37.1592 26.7747 37.1999 26.7741C37.2406 26.7735 37.3802 26.6733 37.5102 26.5515C37.6402 26.4297 37.763 26.3301 37.7831 26.3301C37.8219 26.3302 38.2717 26.0397 38.4961 25.8698C38.5693 25.8144 38.8055 25.6787 39.0212 25.5683C39.2368 25.4579 39.4426 25.3394 39.4786 25.305C39.5146 25.2706 39.735 25.1729 39.9686 25.0879C40.2021 25.0028 40.4409 24.8982 40.4992 24.8553C40.5574 24.8124 40.8928 24.6927 41.2443 24.5893C41.5959 24.4859 41.9009 24.3785 41.9222 24.3506C41.9436 24.3227 42.0491 24.2862 42.1568 24.2694C42.2646 24.2526 42.4703 24.2097 42.614 24.1741C42.7576 24.1385 42.9707 24.0966 43.0874 24.0811C43.3134 24.0509 43.3761 23.9105 43.2147 23.7963Z" fill="url(#paint0_linear_1557_2447)"/>
<path fill-rule="evenodd" clip-rule="evenodd" d="M33.4759 24.1003C33.2245 24.1372 32.9126 24.1901 32.7827 24.218C32.6529 24.2459 32.4276 24.2685 32.2822 24.2683C32.1287 24.2681 32.0064 24.2969 31.9905 24.3372C31.9527 24.4333 28.5107 24.4314 28.2803 24.3352C28.194 24.2991 27.9716 24.2406 27.7861 24.2052C27.3525 24.1223 27.2137 24.0368 27.2699 23.887C27.388 23.5726 28.4454 23.4563 30.703 23.5092C32.5327 23.5521 33.7875 23.6901 34.0428 23.8766C34.1555 23.9589 34.1558 23.9656 34.0475 23.9985C33.9845 24.0176 33.7272 24.0635 33.4759 24.1003Z" fill="url(#paint1_linear_1557_2447)"/>
<path fill-rule="evenodd" clip-rule="evenodd" d="M29.4495 13.4249C29.1191 13.1668 28.4732 12.8552 28.053 12.7512C27.852 12.7016 27.5995 12.6269 27.4919 12.5855C27.1875 12.4683 26.9102 12.4366 25.9261 12.4065C24.7655 12.371 24.5906 12.4103 23.5471 12.942C23.2546 13.091 22.5597 13.8167 22.3959 14.1442C22.3464 14.2433 22.2794 14.3243 22.2471 14.3243C22.2148 14.3242 22.1357 14.4232 22.0711 14.5442C22.0067 14.6652 21.8991 14.8062 21.8322 14.8574C21.7653 14.9088 21.7104 14.9967 21.7103 15.053C21.7102 15.1093 21.6685 15.1553 21.6176 15.1552C21.5668 15.1551 21.512 15.1863 21.4959 15.2244C21.4798 15.2625 21.4491 15.28 21.4275 15.2632C21.3823 15.2282 21.5509 14.7259 21.6386 14.6344C21.7264 14.5427 22.1707 13.2531 22.171 13.0889C22.1711 13.0107 22.2058 12.937 22.248 12.9251C22.349 12.8967 22.3606 11.8897 22.262 11.71C22.2223 11.6377 22.1531 11.4413 22.1083 11.2734C22.0061 10.8911 21.7231 10.4119 21.4625 10.1799C21.3528 10.0823 21.263 9.982 21.2631 9.9571C21.2631 9.93214 21.1824 9.86202 21.0838 9.80124C20.9853 9.74045 20.8312 9.627 20.7416 9.54909C20.5412 9.37489 19.9852 9.10687 19.8236 9.10661C19.7581 9.10651 19.6811 9.07382 19.6525 9.03395C19.6239 8.99408 19.3754 8.90633 19.1004 8.83894C18.5218 8.69713 18.067 8.67621 18.0668 8.79136C18.0666 8.8562 18.1707 9.10624 18.3932 9.57578C18.5917 9.99475 18.6532 11.1237 18.5138 11.7913C18.3083 12.7748 18.0829 13.5374 17.9793 13.5994C17.951 13.6163 17.8252 13.8763 17.6996 14.1772C17.5741 14.4781 17.4448 14.7386 17.4124 14.7561C17.38 14.7735 17.2427 14.9858 17.1074 15.2276C16.9721 15.4694 16.8038 15.7188 16.7334 15.7816C16.663 15.8445 16.5467 16.0004 16.475 16.1281C16.4034 16.2557 16.2735 16.3996 16.1866 16.4478C16.0997 16.496 16.0281 16.5661 16.0276 16.6035C16.0271 16.6409 15.9167 16.7718 15.7823 16.8944C15.6479 17.0169 15.427 17.2319 15.2914 17.3721C14.9715 17.7027 14.4556 18.1384 14.075 18.3994C13.9087 18.5135 13.7432 18.6356 13.7072 18.6709C13.6713 18.7062 13.4801 18.8293 13.2824 18.9445C13.0847 19.0596 12.8936 19.183 12.8576 19.2186C12.8216 19.2542 12.6546 19.3495 12.4865 19.4304C12.3183 19.5113 12.1419 19.6092 12.0945 19.6479C12.0469 19.6867 11.7876 19.8152 11.5181 19.9334C11.2486 20.0517 11.0183 20.1693 11.0063 20.1947C10.9943 20.2202 10.9572 20.241 10.9239 20.2409C10.8906 20.2409 10.7388 20.2884 10.5864 20.3466C10.4342 20.4049 10.192 20.4845 10.0483 20.5237C9.90462 20.5628 9.74295 20.6236 9.68903 20.6588C9.63511 20.6939 9.48815 20.741 9.36245 20.7634C9.23676 20.7858 9.01637 20.8268 8.87272 20.8546C8.48151 20.9301 6.80183 21.1128 6.11205 21.1549C5.77871 21.1751 5.49051 21.2129 5.4716 21.2389C5.45268 21.2647 5.19167 21.2856 4.8916 21.2851C4.59147 21.2846 4.29947 21.2993 4.24264 21.3177C4.08491 21.3689 4.11918 21.5357 4.30202 21.6068C4.3917 21.6418 4.46504 21.692 4.46499 21.7186C4.4649 21.7692 5.09266 22.0043 5.54127 22.1217C5.68481 22.1593 5.81689 22.2088 5.8348 22.2317C5.89868 22.3133 7.16856 22.513 8.14133 22.5944C9.69321 22.7243 11.2697 22.6994 13.1451 22.5154C14.0062 22.431 14.999 22.2902 15.0712 22.2422C15.1072 22.2184 15.2541 22.1814 15.3978 22.16C15.5414 22.1386 15.8206 22.0852 16.0181 22.0412C16.2157 21.9972 16.5536 21.9221 16.7691 21.8741C16.9846 21.8262 17.1904 21.7563 17.2263 21.7188C17.2623 21.6813 17.3652 21.6384 17.455 21.6234C17.7394 21.5758 18.6605 21.2832 18.7286 21.2188C18.7646 21.1847 18.9263 21.1144 19.0879 21.0626C19.2496 21.0107 19.5876 20.8652 19.8392 20.7392C20.0907 20.6132 20.4335 20.4521 20.601 20.3811C20.7684 20.3101 20.9219 20.2157 20.942 20.1713C20.9622 20.1269 21.0079 20.0907 21.0437 20.0907C21.1453 20.0909 21.6503 19.8057 21.9003 19.6071C22.0246 19.5082 22.1551 19.4273 22.1904 19.4273C22.2573 19.4271 22.3515 19.3524 23.2876 18.5574C24.1485 17.8263 24.578 17.3698 24.5784 17.1858C24.5785 17.1393 24.6187 17.1013 24.6677 17.1014C24.7167 17.1015 24.8492 16.927 24.9619 16.7136C25.0747 16.5003 25.1965 16.3257 25.2325 16.3258C25.2685 16.3259 25.2981 16.2919 25.2982 16.2504C25.2987 15.9959 26.276 14.5562 26.4499 14.5539C26.4892 14.5534 26.5737 14.504 26.6376 14.4442C26.7016 14.3844 26.8825 14.294 27.0398 14.2432C27.197 14.1925 27.3257 14.1323 27.3258 14.1095C27.3259 14.0317 28.1482 13.9004 28.8929 13.8591C29.7729 13.8104 29.858 13.744 29.4495 13.4249Z" fill="url(#paint2_linear_1557_2447)"/>
<path fill-rule="evenodd" clip-rule="evenodd" d="M29.2759 34.1922C28.8495 34.1916 27.7241 34.0773 27.647 34.0269C27.6111 34.0034 27.4202 33.9374 27.2228 33.8804C27.0255 33.8233 26.776 33.7259 26.6684 33.664C26.3891 33.5031 25.8537 33.0217 25.8539 32.9316C25.8539 32.8898 25.8313 32.8555 25.8035 32.8555C25.7318 32.8554 25.2681 32.0382 25.2683 31.9123C25.2684 31.8815 25.243 31.8562 25.2119 31.8562C25.1809 31.8561 25.0594 31.6679 24.9418 31.4379C24.8243 31.2078 24.6955 31.0017 24.6556 30.9798C24.6156 30.9579 24.5101 30.8151 24.4212 30.6624C24.3322 30.5097 24.1494 30.286 24.0151 30.1653C23.8806 30.0445 23.7707 29.9242 23.7708 29.8979C23.7709 29.8214 22.8466 29.0279 22.7161 28.9925C22.651 28.9748 22.5977 28.9358 22.5977 28.9059C22.5978 28.8448 22.2679 28.5835 22.1871 28.5806C22.1584 28.5796 22.0292 28.4913 21.9001 28.3843C21.7709 28.2773 21.6357 28.1897 21.5998 28.1897C21.5638 28.1896 21.4382 28.127 21.3206 28.0506C21.2031 27.9741 21.0788 27.9115 21.0444 27.9114C21.0099 27.9114 20.9676 27.8801 20.9505 27.842C20.9333 27.8038 20.7262 27.6871 20.4901 27.5827C20.254 27.4783 20.0458 27.3595 20.0274 27.3186C20.009 27.2777 19.9517 27.2441 19.9002 27.244C19.8486 27.2439 19.6788 27.1902 19.523 27.1246C19.3671 27.059 19.1663 26.9776 19.0766 26.9438C18.9869 26.9098 18.89 26.8508 18.8614 26.8126C18.8328 26.7744 18.7576 26.743 18.6943 26.7429C18.631 26.7428 18.4578 26.6926 18.3093 26.6314C18.1607 26.5701 18.0093 26.5199 17.9728 26.5199C17.9362 26.5198 17.7513 26.4597 17.5619 26.3862C17.3725 26.3127 17.1001 26.2232 16.9565 26.1872C16.3956 26.0467 15.4488 25.8531 15.3144 25.8515C15.2367 25.8506 15.1633 25.8261 15.1513 25.797C15.1206 25.7222 14.4322 25.6296 12.2182 25.4026C11.3961 25.3183 8.86919 25.3279 7.95 25.4187C6.99589 25.513 5.86855 25.7061 5.83877 25.7803C5.8267 25.8103 5.76172 25.8347 5.69422 25.8346C5.43645 25.8342 4.26038 26.2458 4.26021 26.3365C4.26016 26.3601 4.20135 26.3953 4.12951 26.4145C3.99099 26.4516 3.95406 26.5784 4.06478 26.6368C4.10117 26.656 4.57441 26.6949 5.1164 26.7234C5.6584 26.7518 6.13522 26.7976 6.17596 26.8253C6.21677 26.853 6.47036 26.8905 6.73959 26.9088C7.26446 26.9444 7.96106 27.0262 8.43637 27.1079C9.24461 27.247 9.41908 27.2834 9.52669 27.3347C9.62706 27.3826 10.5909 27.6798 10.9319 27.7679C10.9947 27.7841 11.046 27.8159 11.046 27.8384C11.046 27.861 11.2705 27.9754 11.5449 28.0927C11.8193 28.21 12.1142 28.3615 12.2001 28.4295C12.286 28.4974 12.4503 28.5915 12.5652 28.6386C12.6801 28.6858 12.8712 28.8007 12.99 28.894C13.1087 28.9873 13.226 29.0638 13.2508 29.064C13.2754 29.0642 13.4001 29.1455 13.5277 29.2447C13.6554 29.3439 13.8923 29.517 14.0543 29.6295C14.2948 29.7963 15.1067 30.482 15.3815 30.7505C15.6441 31.0068 15.9862 31.3951 16.0618 31.5226C16.1115 31.6065 16.1752 31.6753 16.2034 31.6753C16.2315 31.6754 16.3592 31.8278 16.4871 32.014C16.6151 32.2001 16.762 32.3885 16.8137 32.4326C16.8654 32.4767 17.0009 32.6804 17.1148 32.8853C17.2287 33.0902 17.3463 33.2716 17.376 33.2883C17.4058 33.3051 17.5373 33.5674 17.6684 33.8712C17.7994 34.175 17.9273 34.4361 17.9525 34.4514C17.9778 34.4667 18.0153 34.5416 18.036 34.6179C18.0566 34.6942 18.107 34.8566 18.1479 34.9787C18.4402 35.8517 18.5911 37.1043 18.4741 37.6865C18.3572 38.2681 18.1309 38.8427 17.9613 38.9882C17.8799 39.0581 17.8132 39.1398 17.8132 39.1696C17.813 39.2531 18.0909 39.3244 18.3058 39.2961C18.7006 39.2441 19.1534 39.152 19.2167 39.1108C19.2526 39.0874 19.4647 39.0057 19.6881 38.9294C20.0899 38.7919 21.2094 38.1494 21.2096 38.0561C21.2097 38.0079 21.346 37.8516 21.5417 37.6754C21.8095 37.4344 22.1261 36.6351 22.127 36.1982C22.1272 36.0699 22.161 35.9554 22.2021 35.9439C22.2581 35.9281 22.2582 35.8933 22.2023 35.8043C22.1615 35.739 22.1282 35.5227 22.1286 35.3236C22.129 35.1245 22.0707 34.7422 21.9992 34.4739C21.8799 34.0271 21.8136 33.855 21.5761 33.3756C21.3882 32.9964 21.356 32.9254 21.3135 32.7968L21.2689 32.662L21.4628 32.797C21.6734 32.9437 21.6847 32.9579 21.9604 33.4226C22.063 33.5956 22.172 33.7371 22.2026 33.7372C22.2333 33.7372 22.3352 33.876 22.4292 34.0455C22.5232 34.215 22.6559 34.3835 22.7241 34.4198C22.7924 34.4562 22.8482 34.5174 22.8481 34.5558C22.848 34.5942 22.87 34.6261 22.8969 34.6267C22.9238 34.6273 23.1307 34.7773 23.3566 34.9599C23.5825 35.1426 23.8466 35.3089 23.9434 35.3295C24.0402 35.3502 24.2145 35.4124 24.3306 35.4678C24.8615 35.7212 26.5249 35.7524 27.1218 35.5202C27.1937 35.4922 27.3747 35.4432 27.5242 35.4112C27.8867 35.3336 28.5261 35.0833 28.5262 35.019C28.5262 34.9907 28.5703 34.9676 28.6242 34.9677C28.678 34.9678 28.7222 34.9429 28.7222 34.9124C28.7223 34.8819 28.7737 34.8562 28.8366 34.8553C28.9614 34.8537 29.3102 34.6172 29.3104 34.5342C29.3105 34.5058 29.3693 34.4696 29.4411 34.4537C29.5193 34.4365 29.5718 34.3783 29.5719 34.3089C29.5721 34.208 29.5331 34.1927 29.2759 34.1922Z" fill="url(#paint3_linear_1557_2447)"/>
<path fill-rule="evenodd" clip-rule="evenodd" d="M14.6355 7.26759C14.622 7.13029 14.5826 6.73265 14.5482 6.38394C14.5138 6.03523 14.4558 5.72442 14.4191 5.69319C14.3825 5.66195 14.3527 5.58221 14.3528 5.51592C14.3533 5.2427 13.9191 3.99398 13.8236 3.99382C13.7932 3.99377 13.7683 3.97011 13.7683 3.94121C13.7685 3.84303 13.2856 3.02253 13.2013 2.97781C13.1552 2.95333 13.1175 2.90129 13.1176 2.86214C13.1177 2.82298 13.0018 2.68374 12.86 2.55278C12.7182 2.42182 12.5935 2.2945 12.5831 2.2698C12.4935 2.05911 11.0614 0.961037 10.804 0.905714C10.7134 0.886211 10.6177 0.837969 10.5913 0.798491C10.5398 0.721588 9.71383 0.38198 9.57767 0.381762C9.53276 0.38169 9.43804 0.347483 9.36736 0.305715C9.29661 0.263947 9.03319 0.183157 8.78199 0.126179C8.107 -0.0268781 5.93432 -0.0297537 5.19185 0.12142C4.90453 0.179919 4.65473 0.245354 4.63674 0.26679C4.61874 0.288282 4.48645 0.34698 4.34275 0.397224C3.76187 0.600406 3.46091 0.726713 3.46083 0.76748C3.46079 0.791108 3.35048 0.854271 3.21578 0.907857C2.78477 1.07922 1.7181 1.94771 1.50548 2.30041C1.4326 2.42131 1.3241 2.56158 1.26441 2.61213C1.12188 2.73281 0.713654 3.72749 0.713223 3.95512C0.713038 4.05274 0.683483 4.14803 0.647546 4.16683C0.610172 4.18635 0.581694 4.47129 0.581009 4.83231C0.580325 5.19334 0.607723 5.47836 0.645023 5.498C0.680888 5.51692 0.710092 5.60693 0.709919 5.69806C0.709392 5.97588 1.02594 6.71835 1.29805 7.07731C1.43947 7.26402 1.5552 7.44103 1.55514 7.4707C1.55508 7.50038 1.75452 7.69333 1.99839 7.89944C2.73059 8.51827 2.83947 8.58911 3.02913 8.57006C3.18216 8.55472 3.21521 8.51123 3.31627 8.19236C3.47256 7.69946 3.53631 7.57698 3.80462 7.25383C3.9322 7.10012 4.03658 6.95469 4.03663 6.93062C4.03672 6.87948 4.75341 6.24588 5.08422 6.00441C5.39046 5.78093 5.65282 5.6666 6.30575 5.47191C6.94235 5.28213 7.70189 5.24746 8.04999 5.39234C8.15983 5.43805 8.45512 5.55356 8.70624 5.64914C8.95737 5.74466 9.22149 5.87799 9.29316 5.94538C9.36484 6.01278 9.53347 6.13773 9.66797 6.22303C9.8024 6.30839 9.91252 6.40812 9.91265 6.44473C9.91271 6.48128 10.008 6.59775 10.1243 6.70354C10.2406 6.80928 10.3672 6.94676 10.4056 7.00905C10.444 7.07129 10.5065 7.17222 10.5444 7.2333C10.5823 7.29437 10.6534 7.41928 10.7022 7.51088C10.7511 7.60247 10.8152 7.69254 10.8447 7.711C10.8743 7.72947 10.9242 7.82938 10.9557 7.93304C10.9873 8.0367 11.0578 8.27133 11.1125 8.45445C11.3088 9.11159 11.3582 9.96439 11.2482 10.7979C11.1417 11.6047 10.911 12.6437 10.8272 12.6945C10.7998 12.7111 10.6771 12.9811 10.5546 13.2944C10.4321 13.6076 10.293 13.8912 10.2455 13.9246C10.198 13.958 10.1591 14.0109 10.159 14.0423C10.1588 14.1509 9.80507 14.7215 9.52445 15.0659C9.36945 15.2562 9.24253 15.4381 9.24247 15.4701C9.24241 15.5021 9.17037 15.5893 9.08244 15.6638C8.99444 15.7383 8.83433 15.9077 8.72657 16.0402C8.49639 16.3235 6.74777 17.8489 6.65345 17.8487C6.61794 17.8486 6.45891 17.9607 6.3001 18.0977C6.14129 18.2348 5.98878 18.3468 5.96123 18.3468C5.93369 18.3467 5.6644 18.4961 5.36294 18.6786C5.06142 18.8612 4.78692 19.0105 4.75291 19.0104C4.7189 19.0104 4.63409 19.0552 4.5644 19.1101C4.40803 19.2332 3.55819 19.6186 3.44357 19.6185C3.39749 19.6184 3.35978 19.6404 3.35973 19.6676C3.35964 19.7184 2.40793 20.0613 2.26889 20.0606C2.22581 20.0603 2.167 20.0932 2.1382 20.1336C2.1094 20.174 2.03444 20.223 1.97154 20.2425C1.90864 20.262 1.85714 20.3296 1.85702 20.3926C1.85682 20.4979 1.88475 20.5047 2.19956 20.4762C2.62432 20.4379 3.19552 20.3493 3.46112 20.2807C3.57142 20.2522 3.70861 20.229 3.76599 20.2291C3.82336 20.2292 3.95352 20.1945 4.05523 20.1519C4.15695 20.1094 4.35773 20.0455 4.5014 20.01C4.89036 19.9139 5.47633 19.7176 5.51499 19.6705C5.53357 19.6478 5.77615 19.5393 6.05397 19.4292C6.33173 19.3192 6.5591 19.2056 6.55916 19.1767C6.55921 19.1479 6.59777 19.1243 6.64483 19.1244C6.69196 19.1245 6.78976 19.0778 6.8622 19.0206C6.93469 18.9635 7.05865 18.8993 7.13767 18.8781C7.21676 18.857 7.39092 18.7545 7.52473 18.6504C7.65862 18.5463 7.79911 18.461 7.83697 18.461C7.87483 18.4609 8.0105 18.3796 8.13843 18.2804C8.26643 18.1811 8.51481 18.0058 8.69048 17.8908C9.33529 17.4685 10.8526 16.145 11.3964 15.5306C11.4864 15.429 11.6114 15.2955 11.6744 15.234C11.7374 15.1725 11.7889 15.1011 11.789 15.0753C11.789 15.0496 11.8873 14.935 12.0074 14.8207C12.1275 14.7064 12.3115 14.4767 12.4163 14.3101C12.5212 14.1435 12.6449 13.9724 12.6913 13.9299C12.7378 13.8873 12.8621 13.6995 12.9677 13.5124C13.0732 13.3254 13.1888 13.1349 13.2245 13.0892C13.334 12.9493 13.5194 12.5799 13.6557 12.2302C13.727 12.0473 13.8047 11.8851 13.8283 11.8699C13.9219 11.8097 14.3431 10.2857 14.3441 10.0034C14.3444 9.93734 14.3724 9.87499 14.4063 9.86484C14.5177 9.83168 14.693 7.84624 14.6355 7.26759Z" fill="url(#paint4_linear_1557_2447)"/>
<path fill-rule="evenodd" clip-rule="evenodd" d="M14.5749 39.5765C14.4963 38.68 14.4099 38.022 14.3639 37.9708C14.3349 37.9385 14.2612 37.6749 14.2 37.385C14.1388 37.0951 14.064 36.7955 14.0338 36.7192C14.0035 36.6429 13.9406 36.4618 13.8941 36.3168C13.8475 36.1718 13.7887 36.0532 13.7635 36.0532C13.7383 36.0531 13.6985 35.9785 13.6752 35.8872C13.6518 35.7961 13.6055 35.7071 13.5724 35.6897C13.5393 35.6723 13.5123 35.6083 13.5124 35.5476C13.5125 35.487 13.4541 35.3339 13.3825 35.2075C13.3109 35.0811 13.2525 34.9449 13.2525 34.9049C13.2526 34.8648 13.23 34.8321 13.2022 34.832C13.1528 34.832 13.1007 34.7517 12.7888 34.1956C12.7038 34.0441 12.5844 33.8721 12.5235 33.8133C12.4626 33.7545 12.3655 33.6214 12.3076 33.5174C12.2498 33.4134 12.1208 33.2481 12.0209 33.15C11.921 33.052 11.8278 32.9426 11.8135 32.9068C11.7676 32.7912 11.014 31.9839 10.7291 31.7451C10.5767 31.6175 10.4522 31.4953 10.4522 31.4737C10.4523 31.4279 9.72932 30.8292 9.14137 30.3883C8.91714 30.2201 8.67141 30.0326 8.59522 29.9714C8.51903 29.9103 8.31851 29.7727 8.14958 29.6656C7.98072 29.5586 7.76518 29.4169 7.67072 29.3507C7.5762 29.2845 7.34203 29.1603 7.15028 29.0747C6.95854 28.9891 6.80166 28.8996 6.8017 28.8758C6.80175 28.852 6.54779 28.73 6.23732 28.6047C5.92691 28.4794 5.63657 28.3459 5.59219 28.308C5.54781 28.2702 5.20741 28.1532 4.83573 28.0479C4.46406 27.9427 4.14421 27.8388 4.125 27.817C4.05752 27.7404 2.97986 27.5485 2.41452 27.5123C1.94805 27.4825 1.84386 27.49 1.84576 27.5534C1.84816 27.6325 2.31306 27.9369 2.4318 27.937C2.4677 27.9371 2.54806 27.9602 2.61035 27.9884C2.67263 28.0165 2.89971 28.0959 3.11499 28.1647C3.33027 28.2334 3.54043 28.3118 3.58209 28.3389C3.62368 28.3659 3.87667 28.4831 4.14428 28.5992C4.41188 28.7153 4.6932 28.8598 4.76939 28.9204C4.84559 28.9809 5.03281 29.085 5.18536 29.1517C5.33798 29.2184 5.5483 29.3479 5.65289 29.4397C5.75742 29.5314 5.87209 29.6065 5.90774 29.6066C6.04285 29.6068 8.18744 31.3465 8.2541 31.51C8.27594 31.5635 8.3333 31.6072 8.38167 31.6073C8.43003 31.6074 8.53462 31.7061 8.6141 31.8267C8.6935 31.9473 8.84546 32.1159 8.95176 32.2014C9.05807 32.287 9.14498 32.3735 9.14495 32.3938C9.14491 32.414 9.30591 32.639 9.50269 32.8937C9.69947 33.1484 9.86122 33.3943 9.86211 33.44C9.863 33.4858 9.92103 33.5857 9.99112 33.6621C10.0612 33.7385 10.1191 33.8322 10.1198 33.8703C10.1206 33.9085 10.1499 33.9397 10.1852 33.9397C10.2204 33.9398 10.2692 34.0086 10.2936 34.0925C10.318 34.1764 10.421 34.4171 10.5223 34.6274C10.6237 34.8377 10.7065 35.0562 10.7064 35.113C10.7063 35.1698 10.7332 35.2163 10.7661 35.2164C10.823 35.2165 10.859 35.3281 11.0691 36.1584C11.2469 36.8611 11.3173 37.9324 11.2299 38.6068C11.1502 39.2217 10.9289 40.0658 10.8149 40.1895C10.7823 40.2249 10.6426 40.442 10.5044 40.672C10.3662 40.9021 10.1322 41.1972 9.98435 41.3279C9.83652 41.4586 9.70073 41.6037 9.68256 41.6505C9.66446 41.6973 9.56868 41.7768 9.46983 41.8273C9.37097 41.8778 9.21654 41.9767 9.12665 42.0472C8.76239 42.3329 8.30006 42.5037 7.71252 42.5695C7.53833 42.589 7.37596 42.6307 7.35169 42.6621C7.32152 42.7013 7.28033 42.7008 7.22114 42.6606C7.17361 42.6284 6.95542 42.5851 6.73627 42.5645C6.51711 42.5439 6.18622 42.4797 6.00088 42.4218C5.66132 42.3157 4.55799 41.7239 4.55813 41.648C4.55817 41.6255 4.42682 41.4958 4.26624 41.3598C4.10566 41.2238 3.97373 41.0933 3.97306 41.0698C3.97183 41.0279 3.64916 40.5846 3.57994 40.5296C3.49013 40.4582 3.23848 39.8517 3.1598 39.5166C3.11201 39.3133 2.93014 39.3174 2.65506 39.5279C2.537 39.6182 2.33792 39.7497 2.21265 39.8201C2.08739 39.8904 1.95272 40.0026 1.91336 40.0693C1.87407 40.1361 1.77061 40.2389 1.68355 40.2979C1.59643 40.3568 1.45223 40.5258 1.36311 40.6734C1.27399 40.821 1.1636 40.9616 1.11774 40.986C1.07193 41.0103 1.03434 41.0774 1.03423 41.1351C1.03412 41.1928 1.00901 41.2531 0.978361 41.2691C0.947782 41.2851 0.857678 41.5048 0.778151 41.7573C0.698624 42.0099 0.605595 42.2931 0.571475 42.3868C0.488077 42.6153 0.488528 43.8919 0.571997 43.9359C0.607863 43.9548 0.637099 44.0273 0.636967 44.0969C0.636581 44.3004 1.02788 45.2114 1.15188 45.2957C1.17437 45.311 1.29241 45.4657 1.41421 45.6395C1.53594 45.8134 1.71842 46.0079 1.81967 46.0717C1.92092 46.1356 2.00374 46.2132 2.00368 46.2441C2.00354 46.3175 2.30377 46.5732 2.3902 46.5734C2.42695 46.5734 2.50211 46.6322 2.55733 46.7041C2.61255 46.776 2.78792 46.8919 2.94712 46.9618C3.10633 47.0317 3.29738 47.1371 3.37169 47.1962C3.44605 47.2552 3.70411 47.3787 3.94519 47.4705C4.18634 47.5623 4.47165 47.6716 4.57927 47.7133C4.80215 47.7996 5.07481 47.867 5.59057 47.9634C6.02515 48.0447 8.01016 48.014 8.49541 47.9186C8.67498 47.8833 8.90274 47.8404 9.00147 47.8232C9.1002 47.806 9.18107 47.7718 9.18112 47.7472C9.18117 47.7226 9.33553 47.6594 9.52408 47.6068C9.91189 47.4985 10.3481 47.3182 10.4744 47.2139C10.521 47.1754 10.6548 47.1055 10.7716 47.0586C11.2998 46.8466 12.6864 45.6773 12.9728 45.2023C13.0458 45.0811 13.1278 44.9821 13.1551 44.9821C13.1823 44.9822 13.3015 44.8014 13.4198 44.5804C13.5383 44.3594 13.6619 44.1413 13.6945 44.0956C13.8646 43.8575 13.9611 43.6261 14.1142 43.0903C14.2068 42.766 14.2826 42.4529 14.2827 42.3945C14.2829 42.3361 14.3113 42.2643 14.3459 42.235C14.4737 42.1268 14.6346 40.258 14.5749 39.5765Z" fill="url(#paint5_linear_1557_2447)"/>
<defs>
<linearGradient id="paint0_linear_1557_2447" x1="43.3049" y1="23.9938" x2="10.8906" y2="23.9324" gradientUnits="userSpaceOnUse">
<stop stop-color="#FFD200"/>
<stop offset="0.660327" stop-color="#CB381F"/>
<stop offset="0.826923" stop-color="#852816"/>
<stop offset="1" stop-color="#3F170D"/>
</linearGradient>
<linearGradient id="paint1_linear_1557_2447" x1="34.128" y1="23.9593" x2="27.2581" y2="23.9462" gradientUnits="userSpaceOnUse">
<stop stop-color="#FFD200"/>
<stop offset="0.660327" stop-color="#CB381F"/>
<stop offset="0.826923" stop-color="#852816"/>
<stop offset="1" stop-color="#3F170D"/>
</linearGradient>
<linearGradient id="paint2_linear_1557_2447" x1="29.6811" y1="15.7213" x2="4.15313" y2="15.6729" gradientUnits="userSpaceOnUse">
<stop stop-color="#FFD200"/>
<stop offset="0.660327" stop-color="#CB381F"/>
<stop offset="0.826923" stop-color="#852816"/>
<stop offset="1" stop-color="#3F170D"/>
</linearGradient>
<linearGradient id="paint3_linear_1557_2447" x1="29.5757" y1="32.3481" x2="3.98893" y2="32.2996" gradientUnits="userSpaceOnUse">
<stop stop-color="#FFD200"/>
<stop offset="0.660327" stop-color="#CB381F"/>
<stop offset="0.826923" stop-color="#852816"/>
<stop offset="1" stop-color="#3F170D"/>
</linearGradient>
<linearGradient id="paint4_linear_1557_2447" x1="14.6417" y1="10.2664" x2="0.57076" y2="10.2398" gradientUnits="userSpaceOnUse">
<stop stop-color="#FFD200"/>
<stop offset="0.660327" stop-color="#CB381F"/>
<stop offset="0.826923" stop-color="#852816"/>
<stop offset="1" stop-color="#3F170D"/>
</linearGradient>
<linearGradient id="paint5_linear_1557_2447" x1="14.5919" y1="37.7693" x2="0.51954" y2="37.7426" gradientUnits="userSpaceOnUse">
<stop stop-color="#FFD200"/>
<stop offset="0.660327" stop-color="#CB381F"/>
<stop offset="0.826923" stop-color="#852816"/>
<stop offset="1" stop-color="#3F170D"/>
</linearGradient>
</defs>
</svg>
