<svg width="44" height="49" viewBox="0 0 44 49" fill="none" xmlns="http://www.w3.org/2000/svg">
<path fill-rule="evenodd" clip-rule="evenodd" d="M0.784768 23.7963C0.863906 23.7403 1.33346 23.6158 1.87386 23.5078C2.29806 23.4228 2.59156 23.3358 2.59149 23.2948C2.59144 23.2724 2.7309 23.2199 2.90132 23.178C3.07174 23.1362 3.32682 23.0554 3.46809 22.9986C3.60937 22.9417 3.76138 22.8952 3.80589 22.8951C3.85048 22.895 3.93011 22.8581 3.98297 22.8131C4.09343 22.7189 4.7211 22.4035 4.89067 22.3569C4.95349 22.3397 5.0048 22.3077 5.00476 22.2858C5.00472 22.2639 5.17031 22.1487 5.37269 22.0298C5.57508 21.9109 5.82308 21.7504 5.92372 21.6731C6.02442 21.5958 6.27038 21.4199 6.47025 21.2823C6.67019 21.1447 6.94911 20.9384 7.09009 20.8238C7.23099 20.7092 7.36952 20.6143 7.39785 20.613C7.42624 20.6117 7.55097 20.5367 7.67509 20.4462C7.7992 20.3557 7.93548 20.2816 7.97784 20.2815C8.02027 20.2815 8.0706 20.2466 8.08971 20.2041C8.13678 20.0994 8.7709 19.8488 9.10529 19.8028C9.25434 19.7823 9.39207 19.7438 9.41127 19.7173C9.45684 19.6544 10.334 19.653 10.3798 19.7157C10.3991 19.7422 10.5571 19.7796 10.7309 19.7989C11.0096 19.8299 11.2812 19.9013 11.9362 20.116C12.035 20.1484 12.1158 20.1974 12.1159 20.2249C12.1159 20.2524 12.1673 20.2754 12.2302 20.276C12.2931 20.2765 12.418 20.3257 12.5078 20.3852C12.5977 20.4448 12.709 20.4939 12.7551 20.4945C12.8335 20.4956 13.1534 20.6475 13.2265 20.7184C13.2445 20.7358 13.4356 20.8212 13.6511 20.9081C14.1254 21.0992 14.7939 21.1691 14.7937 21.0273C14.7936 20.9786 14.7127 20.8955 14.6138 20.8427C13.5564 20.2769 12.2986 19.2271 11.6235 18.3466C11.2205 17.8211 11.0797 17.5252 11.1886 17.4324C11.235 17.3928 11.6748 17.3715 12.4521 17.3713C13.5143 17.371 13.6833 17.3839 14.0007 17.4893C14.1965 17.5544 14.3818 17.6454 14.4122 17.6914C14.4427 17.7375 14.5092 17.7751 14.56 17.7751C14.7447 17.7748 15.3575 18.139 15.9629 18.6088C16.103 18.7175 16.3405 18.8786 16.4905 18.9665C16.6405 19.0545 16.7783 19.1598 16.7968 19.2005C16.8315 19.277 17.4923 19.6562 17.5906 19.656C17.6212 19.656 17.6593 19.4 17.6756 19.0874C17.7074 18.4736 17.8434 18.1387 18.1306 17.9671C18.3742 17.8216 18.531 17.8616 18.8174 18.1426C18.9648 18.2873 19.1984 18.5069 19.3363 18.6307C20.2193 19.4223 20.47 19.6607 20.4701 19.7085C20.4702 19.7381 20.5094 19.7623 20.5573 19.7622C20.6052 19.7621 20.7782 19.8804 20.9416 20.025C21.3046 20.3463 21.6541 20.59 21.7535 20.5913C21.7942 20.5917 21.8715 20.649 21.9253 20.7185C21.9791 20.788 22.1617 20.9051 22.331 20.9788C22.5003 21.0524 22.7024 21.1695 22.78 21.2388C22.8576 21.3082 22.951 21.3653 22.9876 21.3658C23.0241 21.3663 23.1622 21.4289 23.2944 21.505C23.4266 21.581 23.5731 21.6436 23.6199 21.6441C23.6667 21.6445 23.7742 21.7068 23.8589 21.7823C23.9436 21.858 24.0543 21.9197 24.1049 21.9197C24.1554 21.9196 24.2479 21.9433 24.3103 21.9724C24.6674 22.1387 25.4769 22.4267 25.9587 22.5587C26.264 22.6425 26.5285 22.7282 26.5465 22.7493C26.5645 22.7705 26.9171 22.8543 27.3302 22.9355C27.7432 23.0168 28.1714 23.1069 28.2817 23.1358C28.392 23.1647 28.561 23.1882 28.6571 23.1881C28.7533 23.1879 28.832 23.2105 28.8321 23.2384C28.8321 23.2662 28.957 23.3049 29.1097 23.3243C29.2623 23.3438 29.5414 23.383 29.7299 23.4114C30.6151 23.5449 30.8006 23.569 31.4112 23.629C31.7703 23.6644 32.211 23.7274 32.3906 23.7691C32.5702 23.8109 32.8052 23.8516 32.913 23.8596C33.0595 23.8706 33.1089 23.9022 33.109 23.9852C33.1092 24.102 33.0809 24.1082 32.065 24.2134C31.8497 24.2357 31.6565 24.2759 31.6359 24.3027C31.6153 24.3295 31.3804 24.3762 31.1139 24.4064C30.4787 24.4786 29.9372 24.5511 29.4548 24.6286C29.2395 24.6632 28.9458 24.7065 28.8022 24.7247C28.6587 24.743 28.5266 24.7766 28.5087 24.7994C28.4907 24.8222 28.1678 24.8961 27.7909 24.9637C26.838 25.1346 26.4025 25.2348 26.3596 25.293C26.3394 25.3203 26.1908 25.3749 26.0294 25.4141C25.8679 25.4534 25.7079 25.5063 25.6738 25.5318C25.6397 25.5572 25.5626 25.578 25.5024 25.5781C25.3925 25.5783 25.0379 25.7004 24.8551 25.8009C24.8013 25.8305 24.4932 25.9591 24.1703 26.0867C23.8474 26.2143 23.5686 26.3359 23.5507 26.3569C23.5328 26.3779 23.342 26.4759 23.1268 26.5748C22.9116 26.6737 22.7062 26.7842 22.6703 26.8204C22.6345 26.8567 22.4208 26.9823 22.1954 27.0995C21.97 27.2168 21.6766 27.398 21.5434 27.5024C21.4102 27.6067 21.279 27.6922 21.2519 27.6924C21.2248 27.6926 21.0724 27.8052 20.9134 27.9428C20.7544 28.0803 20.6072 28.1929 20.5864 28.1929C20.5357 28.193 19.7043 28.9209 19.7044 28.9651C19.7044 28.9841 19.6024 29.0744 19.4777 29.1659C19.353 29.2573 19.2497 29.357 19.2481 29.3875C19.2442 29.4647 18.8195 29.8597 18.7403 29.8598C18.7047 29.8599 18.6588 29.8974 18.6382 29.9432C18.569 30.0973 18.2913 30.0387 18.0846 29.8264C17.8617 29.5974 17.7764 29.3492 17.7105 28.7375C17.685 28.5007 17.6424 28.2956 17.616 28.2817C17.5896 28.2679 17.4977 28.3208 17.4118 28.3991C17.326 28.4774 17.1677 28.5793 17.0601 28.6255C16.9525 28.6716 16.7618 28.7941 16.6363 28.8976C16.2013 29.2565 15.8387 29.5317 15.7975 29.534C15.7749 29.5353 15.6547 29.6103 15.5306 29.7008C15.4065 29.7913 15.2702 29.8654 15.2279 29.8654C15.1854 29.8655 15.1354 29.8999 15.1165 29.9418C15.0804 30.022 14.1756 30.3663 14 30.3666C13.9436 30.3667 13.8976 30.3882 13.8976 30.4144C13.8978 30.507 12.9403 30.6048 12.3533 30.572C11.4144 30.5195 11.1921 30.4742 11.1678 30.3304C11.1456 30.199 11.5242 29.5386 11.622 29.5384C11.6538 29.5384 11.706 29.4822 11.7379 29.4135C11.7971 29.2862 11.8882 29.1816 12.3747 28.682C12.7569 28.2896 12.8819 28.1828 13.4031 27.8035C14.1817 27.2369 14.287 27.1661 14.467 27.0872C14.6588 27.0032 14.8699 26.8263 14.8698 26.7497C14.8696 26.6511 14.6599 26.6382 14.269 26.7124C14.0485 26.7544 13.8366 26.8139 13.798 26.8446C13.7594 26.8753 13.6544 26.9282 13.5647 26.9622C13.475 26.9961 13.2741 27.0776 13.1182 27.1431C12.9624 27.2087 12.7951 27.2625 12.7464 27.2626C12.6977 27.2626 12.6345 27.2974 12.6059 27.3398C12.5495 27.4232 11.8233 27.7192 11.5092 27.7867C11.4027 27.8096 11.2988 27.8515 11.2783 27.8797C11.2054 27.9804 10.484 28.0982 9.9346 28.099C9.37852 28.0999 8.67096 27.9747 8.67078 27.8753C8.67072 27.8469 8.63399 27.8236 8.58908 27.8235C8.41747 27.8231 7.69614 27.4577 7.54439 27.2944C7.47584 27.2206 7.38487 27.1602 7.34224 27.1603C7.29962 27.1603 7.17674 27.0737 7.06916 26.9678C6.96164 26.8618 6.84033 26.7747 6.79959 26.7741C6.75892 26.7735 6.61931 26.6733 6.48931 26.5515C6.35931 26.4297 6.23653 26.3301 6.21636 26.3301C6.17766 26.3302 5.72782 26.0397 5.50341 25.8698C5.43026 25.8144 5.19396 25.6787 4.97835 25.5683C4.76273 25.4579 4.55689 25.3394 4.52092 25.305C4.48495 25.2706 4.26446 25.1729 4.03094 25.0879C3.79742 25.0028 3.55865 24.8982 3.50034 24.8553C3.4421 24.8124 3.10674 24.6927 2.75517 24.5893C2.40366 24.4859 2.09863 24.3785 2.07729 24.3506C2.05596 24.3227 1.9504 24.2862 1.84267 24.2694C1.73493 24.2526 1.52923 24.2097 1.38556 24.1741C1.24189 24.1385 1.02881 24.0966 0.912137 24.0811C0.686097 24.0509 0.623362 23.9105 0.784768 23.7963Z" fill="url(#paint0_linear_1557_2438)"/>
<path fill-rule="evenodd" clip-rule="evenodd" d="M10.5236 24.1003C10.775 24.1372 11.0869 24.1901 11.2168 24.218C11.3467 24.2459 11.5719 24.2685 11.7173 24.2683C11.8708 24.2681 11.9931 24.2969 12.009 24.3372C12.0469 24.4333 15.4888 24.4314 15.7192 24.3352C15.8055 24.2991 16.0279 24.2406 16.2134 24.2052C16.647 24.1223 16.7858 24.0368 16.7296 23.887C16.6115 23.5726 15.5541 23.4563 13.2965 23.5092C11.4668 23.5521 10.212 23.6901 9.95667 23.8766C9.84397 23.9589 9.84373 23.9656 9.95201 23.9985C10.015 24.0176 10.2723 24.0635 10.5236 24.1003Z" fill="url(#paint1_linear_1557_2438)"/>
<path fill-rule="evenodd" clip-rule="evenodd" d="M14.55 13.4249C14.8805 13.1668 15.5264 12.8552 15.9465 12.7512C16.1475 12.7016 16.4 12.6269 16.5076 12.5855C16.812 12.4683 17.0893 12.4366 18.0735 12.4065C19.2341 12.371 19.4089 12.4103 20.4524 12.942C20.7449 13.091 21.4398 13.8167 21.6036 14.1442C21.6531 14.2433 21.7201 14.3243 21.7524 14.3243C21.7847 14.3242 21.8638 14.4232 21.9284 14.5442C21.9928 14.6652 22.1004 14.8062 22.1673 14.8574C22.2342 14.9088 22.2891 14.9967 22.2892 15.053C22.2893 15.1093 22.331 15.1553 22.3819 15.1552C22.4327 15.1551 22.4875 15.1863 22.5036 15.2244C22.5197 15.2625 22.5505 15.28 22.572 15.2632C22.6172 15.2282 22.4486 14.7259 22.3609 14.6344C22.2731 14.5427 21.8289 13.2531 21.8285 13.0889C21.8284 13.0107 21.7937 12.937 21.7515 12.9251C21.6505 12.8967 21.6389 11.8897 21.7375 11.71C21.7772 11.6377 21.8464 11.4413 21.8912 11.2734C21.9934 10.8911 22.2764 10.4119 22.537 10.1799C22.6467 10.0823 22.7365 9.982 22.7365 9.9571C22.7364 9.93214 22.8171 9.86202 22.9157 9.80124C23.0143 9.74045 23.1683 9.627 23.2579 9.54909C23.4583 9.37489 24.0143 9.10687 24.1759 9.10661C24.2414 9.10651 24.3184 9.07382 24.347 9.03395C24.3757 8.99408 24.6241 8.90633 24.8991 8.83894C25.4777 8.69713 25.9325 8.67621 25.9327 8.79136C25.9329 8.8562 25.8288 9.10624 25.6063 9.57578C25.4078 9.99475 25.3464 11.1237 25.4857 11.7913C25.6912 12.7748 25.9166 13.5374 26.0202 13.5994C26.0485 13.6163 26.1743 13.8763 26.2999 14.1772C26.4255 14.4781 26.5547 14.7386 26.5871 14.7561C26.6196 14.7735 26.7568 14.9858 26.8921 15.2276C27.0274 15.4694 27.1957 15.7188 27.2661 15.7816C27.3365 15.8445 27.4528 16.0004 27.5245 16.1281C27.5961 16.2557 27.726 16.3996 27.8129 16.4478C27.8998 16.496 27.9714 16.5661 27.9719 16.6035C27.9724 16.6409 28.0828 16.7718 28.2172 16.8944C28.3516 17.0169 28.5726 17.2319 28.7081 17.3721C29.028 17.7027 29.5439 18.1384 29.9245 18.3994C30.0908 18.5135 30.2563 18.6356 30.2923 18.6709C30.3282 18.7062 30.5194 18.8293 30.7171 18.9445C30.9148 19.0596 31.1059 19.183 31.1419 19.2186C31.1779 19.2542 31.3449 19.3495 31.513 19.4304C31.6812 19.5113 31.8576 19.6092 31.9051 19.6479C31.9526 19.6867 32.2119 19.8152 32.4814 19.9334C32.7509 20.0517 32.9812 20.1693 32.9932 20.1947C33.0053 20.2202 33.0423 20.241 33.0756 20.2409C33.1089 20.2409 33.2607 20.2884 33.4131 20.3466C33.5653 20.4049 33.8075 20.4845 33.9512 20.5237C34.0949 20.5628 34.2566 20.6236 34.3105 20.6588C34.3644 20.6939 34.5114 20.741 34.6371 20.7634C34.7628 20.7858 34.9831 20.8268 35.1268 20.8546C35.518 20.9301 37.1977 21.1128 37.8875 21.1549C38.2208 21.1751 38.509 21.2129 38.5279 21.2389C38.5468 21.2647 38.8078 21.2856 39.1079 21.2851C39.408 21.2846 39.7 21.2993 39.7569 21.3177C39.9146 21.3689 39.8803 21.5357 39.6975 21.6068C39.6078 21.6418 39.5345 21.692 39.5345 21.7186C39.5346 21.7692 38.9069 22.0043 38.4582 22.1217C38.3147 22.1593 38.1826 22.2088 38.1647 22.2317C38.1008 22.3133 36.831 22.513 35.8582 22.5944C34.3063 22.7243 32.7299 22.6994 30.8544 22.5154C29.9933 22.431 29.0005 22.2902 28.9283 22.2422C28.8923 22.2184 28.7454 22.1814 28.6017 22.16C28.4581 22.1386 28.1789 22.0852 27.9814 22.0412C27.7839 21.9972 27.4459 21.9221 27.2304 21.8741C27.0149 21.8262 26.8092 21.7563 26.7732 21.7188C26.7372 21.6813 26.6343 21.6384 26.5445 21.6234C26.2601 21.5758 25.339 21.2832 25.2709 21.2188C25.2349 21.1847 25.0733 21.1144 24.9116 21.0626C24.7499 21.0107 24.4119 20.8652 24.1603 20.7392C23.9088 20.6132 23.566 20.4521 23.3985 20.3811C23.2311 20.3101 23.0776 20.2157 23.0575 20.1713C23.0373 20.1269 22.9916 20.0907 22.9558 20.0907C22.8542 20.0909 22.3492 19.8057 22.0993 19.6071C21.9749 19.5082 21.8444 19.4273 21.8092 19.4273C21.7422 19.4271 21.648 19.3524 20.7119 18.5574C19.851 17.8263 19.4215 17.3698 19.4211 17.1858C19.421 17.1393 19.3808 17.1013 19.3318 17.1014C19.2828 17.1015 19.1503 16.927 19.0376 16.7136C18.9248 16.5003 18.803 16.3257 18.767 16.3258C18.731 16.3259 18.7014 16.2919 18.7013 16.2504C18.7008 15.9959 17.7235 14.5562 17.5496 14.5539C17.5103 14.5534 17.4258 14.504 17.3619 14.4442C17.2979 14.3844 17.117 14.294 16.9598 14.2432C16.8025 14.1925 16.6738 14.1323 16.6737 14.1095C16.6736 14.0317 15.8513 13.9004 15.1066 13.8591C14.2266 13.8104 14.1415 13.744 14.55 13.4249Z" fill="url(#paint2_linear_1557_2438)"/>
<path fill-rule="evenodd" clip-rule="evenodd" d="M14.7236 34.1922C15.15 34.1916 16.2754 34.0773 16.3525 34.0269C16.3885 34.0034 16.5793 33.9374 16.7767 33.8804C16.974 33.8233 17.2235 33.7259 17.3311 33.664C17.6104 33.5031 18.1458 33.0217 18.1457 32.9316C18.1456 32.8898 18.1682 32.8555 18.196 32.8555C18.2677 32.8554 18.7314 32.0382 18.7312 31.9123C18.7311 31.8815 18.7565 31.8562 18.7876 31.8562C18.8186 31.8561 18.9401 31.6679 19.0577 31.4379C19.1752 31.2078 19.304 31.0017 19.3439 30.9798C19.3839 30.9579 19.4894 30.8151 19.5783 30.6624C19.6673 30.5097 19.8501 30.286 19.9844 30.1653C20.1189 30.0445 20.2288 29.9242 20.2287 29.8979C20.2286 29.8214 21.1529 29.0279 21.2834 28.9925C21.3485 28.9748 21.4019 28.9358 21.4018 28.9059C21.4017 28.8448 21.7316 28.5835 21.8124 28.5806C21.8411 28.5796 21.9703 28.4913 22.0994 28.3843C22.2286 28.2773 22.3638 28.1897 22.3997 28.1897C22.4357 28.1896 22.5613 28.127 22.6789 28.0506C22.7964 27.9741 22.9207 27.9115 22.9552 27.9114C22.9896 27.9114 23.0319 27.8801 23.049 27.842C23.0662 27.8038 23.2733 27.6871 23.5094 27.5827C23.7455 27.4783 23.9538 27.3595 23.9721 27.3186C23.9905 27.2777 24.0478 27.2441 24.0994 27.244C24.1509 27.2439 24.3207 27.1902 24.4765 27.1246C24.6324 27.059 24.8333 26.9776 24.9229 26.9438C25.0126 26.9098 25.1095 26.8508 25.1381 26.8126C25.1668 26.7744 25.2419 26.743 25.3052 26.7429C25.3685 26.7428 25.5417 26.6926 25.6903 26.6314C25.8388 26.5701 25.9902 26.5199 26.0267 26.5199C26.0633 26.5198 26.2482 26.4597 26.4376 26.3862C26.627 26.3127 26.8994 26.2232 27.043 26.1872C27.6039 26.0467 28.5507 25.8531 28.6851 25.8515C28.7629 25.8506 28.8362 25.8261 28.8482 25.797C28.8789 25.7222 29.5673 25.6296 31.7813 25.4026C32.6034 25.3183 35.1303 25.3279 36.0495 25.4187C37.0036 25.513 38.131 25.7061 38.1607 25.7803C38.1728 25.8103 38.2378 25.8347 38.3053 25.8346C38.5631 25.8342 39.7391 26.2458 39.7393 26.3365C39.7394 26.3601 39.7982 26.3953 39.87 26.4145C40.0085 26.4516 40.0455 26.5784 39.9347 26.6368C39.8983 26.656 39.4251 26.6949 38.8831 26.7234C38.3411 26.7518 37.8643 26.7976 37.8235 26.8253C37.7827 26.853 37.5292 26.8905 37.2599 26.9088C36.735 26.9444 36.0385 27.0262 35.5631 27.1079C34.7549 27.247 34.5804 27.2834 34.4728 27.3347C34.3725 27.3826 33.4086 27.6798 33.0676 27.7679C33.0048 27.7841 32.9535 27.8159 32.9535 27.8384C32.9536 27.861 32.729 27.9754 32.4546 28.0927C32.1802 28.21 31.8854 28.3615 31.7995 28.4295C31.7135 28.4974 31.5492 28.5915 31.4343 28.6386C31.3194 28.6858 31.1283 28.8007 31.0095 28.894C30.8908 28.9873 30.7735 29.0638 30.7487 29.064C30.7241 29.0642 30.5994 29.1455 30.4718 29.2447C30.3441 29.3439 30.1072 29.517 29.9452 29.6295C29.7048 29.7963 28.8929 30.482 28.618 30.7505C28.3555 31.0068 28.0134 31.3951 27.9378 31.5226C27.888 31.6065 27.8243 31.6753 27.7961 31.6753C27.768 31.6754 27.6403 31.8278 27.5124 32.014C27.3845 32.2001 27.2375 32.3885 27.1858 32.4326C27.1341 32.4767 26.9986 32.6804 26.8847 32.8853C26.7708 33.0902 26.6532 33.2716 26.6235 33.2883C26.5937 33.3051 26.4622 33.5674 26.3311 33.8712C26.2001 34.175 26.0722 34.4361 26.047 34.4514C26.0218 34.4667 25.9842 34.5416 25.9636 34.6179C25.9429 34.6942 25.8925 34.8566 25.8516 34.9787C25.5594 35.8517 25.4084 37.1043 25.5254 37.6865C25.6423 38.2681 25.8686 38.8427 26.0382 38.9882C26.1196 39.0581 26.1863 39.1398 26.1864 39.1696C26.1865 39.2531 25.9086 39.3244 25.6937 39.2961C25.2989 39.2441 24.8461 39.152 24.7828 39.1108C24.7469 39.0874 24.5348 39.0057 24.3114 38.9294C23.9096 38.7919 22.7901 38.1494 22.7899 38.0561C22.7898 38.0079 22.6535 37.8516 22.4578 37.6754C22.19 37.4344 21.8734 36.6351 21.8725 36.1982C21.8723 36.0699 21.8385 35.9554 21.7975 35.9439C21.7414 35.9281 21.7413 35.8933 21.7972 35.8043C21.8381 35.739 21.8713 35.5227 21.8709 35.3236C21.8705 35.1245 21.9288 34.7422 22.0004 34.4739C22.1196 34.0271 22.1859 33.855 22.4234 33.3756C22.6113 32.9964 22.6435 32.9254 22.686 32.7968L22.7306 32.662L22.5367 32.797C22.3261 32.9437 22.3148 32.9579 22.0392 33.4226C21.9365 33.5956 21.8276 33.7371 21.7969 33.7372C21.7663 33.7372 21.6643 33.876 21.5703 34.0455C21.4763 34.215 21.3436 34.3835 21.2754 34.4198C21.2071 34.4562 21.1513 34.5174 21.1514 34.5558C21.1515 34.5942 21.1295 34.6261 21.1026 34.6267C21.0757 34.6273 20.8688 34.7773 20.6429 34.9599C20.417 35.1426 20.1529 35.3089 20.0561 35.3295C19.9593 35.3502 19.7851 35.4124 19.6689 35.4678C19.138 35.7212 17.4746 35.7524 16.8777 35.5202C16.8058 35.4922 16.6248 35.4432 16.4753 35.4112C16.1128 35.3336 15.4734 35.0833 15.4733 35.019C15.4733 34.9907 15.4292 34.9676 15.3753 34.9677C15.3215 34.9678 15.2774 34.9429 15.2773 34.9124C15.2772 34.8819 15.2258 34.8562 15.163 34.8553C15.0382 34.8537 14.6893 34.6172 14.6891 34.5342C14.6891 34.5058 14.6302 34.4696 14.5584 34.4537C14.4802 34.4365 14.4277 34.3783 14.4276 34.3089C14.4274 34.208 14.4665 34.1927 14.7236 34.1922Z" fill="url(#paint3_linear_1557_2438)"/>
<path fill-rule="evenodd" clip-rule="evenodd" d="M29.3635 7.26808C29.3771 7.13078 29.4164 6.73314 29.4508 6.38443C29.4852 6.03572 29.5433 5.7249 29.5799 5.69367C29.6165 5.66244 29.6463 5.58269 29.6462 5.51641C29.6457 5.24319 30.0799 3.99447 30.1755 3.99431C30.2059 3.99426 30.2308 3.97059 30.2307 3.9417C30.2305 3.84352 30.7134 3.02302 30.7977 2.97829C30.8438 2.95381 30.8815 2.90178 30.8814 2.86262C30.8813 2.82347 30.9973 2.68423 31.1391 2.55327C31.2808 2.42231 31.4055 2.29499 31.4159 2.27029C31.5055 2.0596 32.9376 0.961525 33.195 0.906202C33.2856 0.886699 33.3813 0.838457 33.4078 0.798979C33.4592 0.722077 34.2852 0.382468 34.4214 0.38225C34.4663 0.382178 34.561 0.347971 34.6317 0.306203C34.7024 0.264435 34.9658 0.183645 35.217 0.126668C35.892 -0.0263899 38.0647 -0.0292654 38.8072 0.121908C39.0945 0.180407 39.3443 0.245842 39.3623 0.267279C39.3803 0.288771 39.5126 0.347469 39.6563 0.397712C40.2372 0.600894 40.5381 0.727202 40.5382 0.767969C40.5382 0.791597 40.6485 0.85476 40.7832 0.908345C41.2143 1.07971 42.2809 1.9482 42.4935 2.30089C42.5664 2.4218 42.6749 2.56207 42.7346 2.61262C42.8771 2.7333 43.2854 3.72798 43.2858 3.95561C43.286 4.05322 43.3155 4.14852 43.3515 4.16732C43.3889 4.18684 43.4173 4.47178 43.418 4.8328C43.4187 5.19382 43.3913 5.47885 43.354 5.49849C43.3181 5.5174 43.2889 5.60742 43.2891 5.69854C43.2896 5.97637 42.9731 6.71884 42.701 7.0778C42.5595 7.2645 42.4438 7.44152 42.4439 7.47119C42.4439 7.50087 42.2445 7.69381 42.0006 7.89993C41.2684 8.51876 41.1596 8.5896 40.9699 8.57055C40.8169 8.55521 40.7838 8.51172 40.6828 8.19285C40.5265 7.69995 40.4627 7.57747 40.1944 7.25432C40.0668 7.10061 39.9624 6.95518 39.9624 6.93111C39.9623 6.87997 39.2456 6.24637 38.9148 6.0049C38.6086 5.78142 38.3462 5.66709 37.6933 5.4724C37.0567 5.28261 36.2971 5.24795 35.949 5.39283C35.8392 5.43854 35.5439 5.55405 35.2928 5.64963C35.0416 5.74515 34.7775 5.87848 34.7059 5.94587C34.6342 6.01327 34.4656 6.13822 34.3311 6.22352C34.1966 6.30888 34.0865 6.40861 34.0864 6.44522C34.0863 6.48177 33.991 6.59824 33.8747 6.70403C33.7584 6.80977 33.6318 6.94725 33.5934 7.00954C33.555 7.07178 33.4926 7.17271 33.4546 7.23379C33.4167 7.29486 33.3456 7.41977 33.2968 7.51137C33.2479 7.60296 33.1838 7.69303 33.1543 7.71149C33.1247 7.72995 33.0748 7.82987 33.0433 7.93353C33.0117 8.03719 32.9412 8.27181 32.8865 8.45494C32.6902 9.11207 32.6409 9.96488 32.7509 10.7983C32.8573 11.6051 33.088 12.6442 33.1718 12.695C33.1993 12.7116 33.322 12.9816 33.4444 13.2948C33.5669 13.6081 33.706 13.8917 33.7535 13.9251C33.801 13.9585 33.8399 14.0114 33.84 14.0428C33.8402 14.1514 34.194 14.7219 34.4746 15.0664C34.6296 15.2566 34.7565 15.4385 34.7566 15.4706C34.7566 15.5026 34.8286 15.5898 34.9166 15.6642C35.0046 15.7388 35.1647 15.9082 35.2725 16.0407C35.5026 16.324 37.2513 17.8493 37.3456 17.8492C37.3811 17.8491 37.5401 17.9612 37.6989 18.0982C37.8577 18.2352 38.0102 18.3473 38.0378 18.3473C38.0653 18.3472 38.3346 18.4966 38.6361 18.6791C38.9376 18.8617 39.2121 19.011 39.2461 19.0109C39.2801 19.0109 39.3649 19.0557 39.4346 19.1106C39.591 19.2337 40.4408 19.6191 40.5555 19.6189C40.6015 19.6189 40.6392 19.6409 40.6393 19.6681C40.6394 19.7189 41.5911 20.0618 41.7301 20.0611C41.7732 20.0608 41.832 20.0937 41.8608 20.1341C41.8896 20.1744 41.9646 20.2235 42.0275 20.243C42.0904 20.2625 42.1419 20.3301 42.142 20.3931C42.1422 20.4983 42.1143 20.5052 41.7995 20.4767C41.3747 20.4383 40.8035 20.3498 40.5379 20.2812C40.4276 20.2527 40.2904 20.2295 40.233 20.2296C40.1757 20.2297 40.0455 20.1949 39.9438 20.1524C39.8421 20.1098 39.6413 20.046 39.4976 20.0105C39.1087 19.9143 38.5227 19.7181 38.484 19.671C38.4654 19.6483 38.2229 19.5398 37.9451 19.4297C37.6673 19.3197 37.4399 19.2061 37.4399 19.1772C37.4398 19.1484 37.4013 19.1248 37.3542 19.1249C37.3071 19.125 37.2093 19.0782 37.1368 19.0211C37.0643 18.9639 36.9404 18.8998 36.8614 18.8786C36.7823 18.8575 36.6081 18.755 36.4743 18.6509C36.3404 18.5468 36.1999 18.4615 36.1621 18.4615C36.1242 18.4614 35.9885 18.3801 35.8606 18.2809C35.7326 18.1816 35.4842 18.0063 35.3085 17.8913C34.6637 17.4689 33.1464 16.1455 32.6026 15.5311C32.5126 15.4295 32.3876 15.296 32.3246 15.2345C32.2616 15.173 32.2101 15.1016 32.2101 15.0758C32.21 15.0501 32.1117 14.9355 31.9916 14.8212C31.8715 14.7069 31.6875 14.4771 31.5827 14.3106C31.4779 14.144 31.3541 13.9729 31.3077 13.9304C31.2613 13.8878 31.1369 13.6999 31.0314 13.5129C30.9259 13.3258 30.8102 13.1354 30.7745 13.0897C30.665 12.9498 30.4796 12.5804 30.3434 12.2307C30.2721 12.0477 30.1943 11.8856 30.1707 11.8704C30.0771 11.8102 29.656 10.2862 29.6549 10.0039C29.6546 9.93783 29.6267 9.87548 29.5927 9.86532C29.4813 9.83217 29.306 7.84673 29.3635 7.26808Z" fill="url(#paint4_linear_1557_2438)"/>
<path fill-rule="evenodd" clip-rule="evenodd" d="M29.4251 39.5765C29.5037 38.68 29.5901 38.022 29.6361 37.9708C29.6651 37.9385 29.7388 37.6749 29.8 37.385C29.8612 37.0951 29.936 36.7955 29.9662 36.7192C29.9965 36.6429 30.0594 36.4618 30.1059 36.3168C30.1525 36.1718 30.2113 36.0532 30.2365 36.0532C30.2617 36.0531 30.3015 35.9785 30.3248 35.8872C30.3482 35.7961 30.3945 35.7071 30.4276 35.6897C30.4607 35.6723 30.4877 35.6083 30.4876 35.5476C30.4875 35.487 30.5459 35.3339 30.6175 35.2075C30.6891 35.0811 30.7475 34.9449 30.7475 34.9049C30.7474 34.8648 30.77 34.8321 30.7978 34.832C30.8472 34.832 30.8993 34.7517 31.2112 34.1956C31.2962 34.0441 31.4156 33.8721 31.4765 33.8133C31.5374 33.7545 31.6345 33.6214 31.6924 33.5174C31.7502 33.4134 31.8792 33.2481 31.9791 33.15C32.079 33.052 32.1722 32.9426 32.1865 32.9068C32.2324 32.7912 32.986 31.9839 33.2709 31.7451C33.4233 31.6175 33.5478 31.4953 33.5478 31.4737C33.5477 31.4279 34.2707 30.8292 34.8586 30.3883C35.0829 30.2201 35.3286 30.0326 35.4048 29.9714C35.481 29.9103 35.6815 29.7727 35.8504 29.6656C36.0193 29.5586 36.2348 29.4169 36.3293 29.3507C36.4238 29.2845 36.658 29.1603 36.8497 29.0747C37.0415 28.9891 37.1983 28.8996 37.1983 28.8758C37.1983 28.852 37.4522 28.73 37.7627 28.6047C38.0731 28.4794 38.3634 28.3459 38.4078 28.308C38.4522 28.2702 38.7926 28.1532 39.1643 28.0479C39.5359 27.9427 39.8558 27.8388 39.875 27.817C39.9425 27.7404 41.0201 27.5485 41.5855 27.5123C42.0519 27.4825 42.1561 27.49 42.1542 27.5534C42.1518 27.6325 41.6869 27.9369 41.5682 27.937C41.5323 27.9371 41.4519 27.9602 41.3897 27.9884C41.3274 28.0165 41.1003 28.0959 40.885 28.1647C40.6697 28.2334 40.4596 28.3118 40.4179 28.3389C40.3763 28.3659 40.1233 28.4831 39.8557 28.5992C39.5881 28.7153 39.3068 28.8598 39.2306 28.9204C39.1544 28.9809 38.9672 29.085 38.8146 29.1517C38.662 29.2184 38.4517 29.3479 38.3471 29.4397C38.2426 29.5314 38.1279 29.6065 38.0923 29.6066C37.9571 29.6068 35.8126 31.3465 35.7459 31.51C35.7241 31.5635 35.6667 31.6072 35.6183 31.6073C35.57 31.6074 35.4654 31.7061 35.3859 31.8267C35.3065 31.9473 35.1545 32.1159 35.0482 32.2014C34.9419 32.287 34.855 32.3735 34.8551 32.3938C34.8551 32.414 34.6941 32.639 34.4973 32.8937C34.3005 33.1484 34.1388 33.3943 34.1379 33.44C34.137 33.4858 34.079 33.5857 34.0089 33.6621C33.9388 33.7385 33.8809 33.8322 33.8802 33.8703C33.8794 33.9085 33.8501 33.9397 33.8148 33.9397C33.7796 33.9398 33.7308 34.0086 33.7064 34.0925C33.682 34.1764 33.579 34.4171 33.4777 34.6274C33.3763 34.8377 33.2935 35.0562 33.2936 35.113C33.2937 35.1698 33.2668 35.2163 33.2339 35.2164C33.177 35.2165 33.141 35.3281 32.9309 36.1584C32.7531 36.8611 32.6827 37.9324 32.7701 38.6068C32.8498 39.2217 33.0711 40.0658 33.1851 40.1895C33.2177 40.2249 33.3574 40.442 33.4956 40.672C33.6338 40.9021 33.8678 41.1972 34.0156 41.3279C34.1635 41.4586 34.2993 41.6037 34.3174 41.6505C34.3355 41.6973 34.4313 41.7768 34.5302 41.8273C34.629 41.8778 34.7835 41.9767 34.8734 42.0472C35.2376 42.3329 35.6999 42.5037 36.2875 42.5695C36.4617 42.589 36.624 42.6307 36.6483 42.6621C36.6785 42.7013 36.7197 42.7008 36.7789 42.6606C36.8264 42.6284 37.0446 42.5851 37.2637 42.5645C37.4829 42.5439 37.8138 42.4797 37.9991 42.4218C38.3387 42.3157 39.442 41.7239 39.4419 41.648C39.4418 41.6255 39.5732 41.4958 39.7338 41.3598C39.8943 41.2238 40.0263 41.0933 40.0269 41.0698C40.0282 41.0279 40.3508 40.5846 40.4201 40.5296C40.5099 40.4582 40.7615 39.8517 40.8402 39.5166C40.888 39.3133 41.0699 39.3174 41.3449 39.5279C41.463 39.6182 41.6621 39.7497 41.7873 39.8201C41.9126 39.8904 42.0473 40.0026 42.0866 40.0693C42.1259 40.1361 42.2294 40.2389 42.3164 40.2979C42.4036 40.3568 42.5478 40.5258 42.6369 40.6734C42.726 40.821 42.8364 40.9616 42.8823 40.986C42.9281 41.0103 42.9657 41.0774 42.9658 41.1351C42.9659 41.1928 42.991 41.2531 43.0216 41.2691C43.0522 41.2851 43.1423 41.5048 43.2218 41.7573C43.3014 42.0099 43.3944 42.2931 43.4285 42.3868C43.5119 42.6153 43.5115 43.8919 43.428 43.9359C43.3921 43.9548 43.3629 44.0273 43.363 44.0969C43.3634 44.3004 42.9721 45.2114 42.8481 45.2957C42.8256 45.311 42.7076 45.4657 42.5858 45.6395C42.4641 45.8134 42.2816 46.0079 42.1803 46.0717C42.0791 46.1356 41.9963 46.2132 41.9963 46.2441C41.9965 46.3175 41.6962 46.5732 41.6098 46.5734C41.5731 46.5734 41.4979 46.6322 41.4427 46.7041C41.3875 46.776 41.2121 46.8919 41.0529 46.9618C40.8937 47.0317 40.7026 47.1371 40.6283 47.1962C40.5539 47.2552 40.2959 47.3787 40.0548 47.4705C39.8137 47.5623 39.5284 47.6716 39.4207 47.7133C39.1978 47.7996 38.9252 47.867 38.4094 47.9634C37.9749 48.0447 35.9898 48.014 35.5046 47.9186C35.325 47.8833 35.0973 47.8404 34.9985 47.8232C34.8998 47.806 34.8189 47.7718 34.8189 47.7472C34.8188 47.7226 34.6645 47.6594 34.4759 47.6068C34.0881 47.4985 33.6519 47.3182 33.5256 47.2139C33.479 47.1754 33.3452 47.1055 33.2284 47.0586C32.7002 46.8466 31.3136 45.6773 31.0272 45.2023C30.9542 45.0811 30.8722 44.9821 30.8449 44.9821C30.8177 44.9822 30.6985 44.8014 30.5802 44.5804C30.4617 44.3594 30.3381 44.1413 30.3055 44.0956C30.1354 43.8575 30.0389 43.6261 29.8858 43.0903C29.7932 42.766 29.7174 42.4529 29.7173 42.3945C29.7171 42.3361 29.6887 42.2643 29.6541 42.235C29.5263 42.1268 29.3654 40.258 29.4251 39.5765Z" fill="url(#paint5_linear_1557_2438)"/>
<defs>
<linearGradient id="paint0_linear_1557_2438" x1="0.694645" y1="23.9938" x2="33.1089" y2="23.9324" gradientUnits="userSpaceOnUse">
<stop stop-color="#FFD200"/>
<stop offset="0.660327" stop-color="#CB381F"/>
<stop offset="0.826923" stop-color="#852816"/>
<stop offset="1" stop-color="#3F170D"/>
</linearGradient>
<linearGradient id="paint1_linear_1557_2438" x1="9.87147" y1="23.9593" x2="16.7415" y2="23.9462" gradientUnits="userSpaceOnUse">
<stop stop-color="#FFD200"/>
<stop offset="0.660327" stop-color="#CB381F"/>
<stop offset="0.826923" stop-color="#852816"/>
<stop offset="1" stop-color="#3F170D"/>
</linearGradient>
<linearGradient id="paint2_linear_1557_2438" x1="14.3184" y1="15.7213" x2="39.8464" y2="15.6729" gradientUnits="userSpaceOnUse">
<stop stop-color="#FFD200"/>
<stop offset="0.660327" stop-color="#CB381F"/>
<stop offset="0.826923" stop-color="#852816"/>
<stop offset="1" stop-color="#3F170D"/>
</linearGradient>
<linearGradient id="paint3_linear_1557_2438" x1="14.4239" y1="32.3481" x2="40.0106" y2="32.2996" gradientUnits="userSpaceOnUse">
<stop stop-color="#FFD200"/>
<stop offset="0.660327" stop-color="#CB381F"/>
<stop offset="0.826923" stop-color="#852816"/>
<stop offset="1" stop-color="#3F170D"/>
</linearGradient>
<linearGradient id="paint4_linear_1557_2438" x1="29.3573" y1="10.2669" x2="43.4283" y2="10.2403" gradientUnits="userSpaceOnUse">
<stop stop-color="#FFD200"/>
<stop offset="0.660327" stop-color="#CB381F"/>
<stop offset="0.826923" stop-color="#852816"/>
<stop offset="1" stop-color="#3F170D"/>
</linearGradient>
<linearGradient id="paint5_linear_1557_2438" x1="29.4081" y1="37.7693" x2="43.4805" y2="37.7426" gradientUnits="userSpaceOnUse">
<stop stop-color="#FFD200"/>
<stop offset="0.660327" stop-color="#CB381F"/>
<stop offset="0.826923" stop-color="#852816"/>
<stop offset="1" stop-color="#3F170D"/>
</linearGradient>
</defs>
</svg>
