<svg width="296" height="62" viewBox="0 0 296 62" fill="none" xmlns="http://www.w3.org/2000/svg">
<path fill-rule="evenodd" clip-rule="evenodd" d="M137.806 4.73126C135.264 5.77993 133.417 9.37744 133.913 12.3162C134.144 13.6862 134.099 13.7946 133.403 13.5322C132.983 13.3736 131.338 12.9883 129.748 12.676C122.399 11.2317 114.28 15.04 110.956 21.4895C109.956 23.4308 109.781 24.2228 109.78 26.8146C109.777 31.759 111.919 35.0978 116.48 37.2587C118.532 38.2305 119.396 38.4177 121.836 38.4177C124.339 38.4177 125.101 38.2435 127.288 37.1712C129.344 36.1632 130.07 35.5451 131.082 33.9423C132.603 31.5346 132.981 29.5715 132.41 27.0485C131.844 24.5461 130.124 22.3567 127.934 21.3518C124.493 19.7721 120.948 20.5595 119.059 23.3224C115.759 28.1466 121.165 33.0633 125.518 29.1972L126.42 28.3954V29.7084C126.42 31.3539 125.636 32.4372 123.866 33.2333C122.017 34.0655 120.613 34.0142 118.8 33.0477C116.615 31.8837 115.587 29.9267 115.597 26.9549C115.608 23.9763 116.516 21.9432 118.804 19.7744C121.419 17.2944 124.345 16.175 128.226 16.17C132.499 16.1651 135.181 17.3275 138.662 20.6937C146.854 28.6145 146.76 40.1655 138.439 48.2121C137.087 49.5198 135.837 50.5894 135.66 50.5894C135.484 50.5894 135.709 49.6377 136.161 48.4746C136.953 46.435 136.958 46.2863 136.305 44.3213C134.703 39.5029 128.959 37.7992 125.162 41.0163C122.655 43.1403 123.41 47.1098 126.442 47.7412C128.906 48.2543 130.801 45.8645 129.464 43.9303C128.838 43.0239 128.846 42.9821 129.647 42.9821C130.918 42.9821 131.963 43.6447 132.635 44.8763C134.5 48.2962 131.538 53.6715 127.176 54.7856C115.793 57.6916 105.146 54.7529 100.103 47.3133C97.7612 43.8592 97.023 41.0939 97.22 36.5158C97.3712 33.0062 97.5445 32.2223 98.6506 30.0496C99.343 28.6898 100.627 26.8401 101.505 25.9394C103.346 24.0489 103.079 23.731 99.944 24.0828C94.9834 24.64 90.4135 29.0732 90.3365 33.4029C90.298 35.5752 89.7628 36.1104 88.0149 35.7258C85.5653 35.1865 84.1306 35.32 82.2531 36.2614C79.8512 37.4656 79.895 38.3648 82.3883 39.0544C84.4584 39.6265 85.9018 40.7809 94.9276 49.0832C102.341 55.9024 106.522 58.0549 114.082 58.9453C122.366 59.9213 132.642 57.3196 138.504 52.7617C144.049 48.4502 147.339 41.3826 147.394 33.6631C147.441 27.0755 145.653 22.8439 140.794 18.0456C137.19 14.4865 136.717 13.3203 137.864 10.8228L138.555 9.31963L138.911 10.5319C140.089 14.5348 145.778 14.0757 146.364 9.93049C146.948 5.80732 142.195 2.91996 137.806 4.73126Z" fill="url(#paint0_linear_2180_6788)"/>
<path fill-rule="evenodd" clip-rule="evenodd" d="M152.698 4.8925C150.468 6.19792 149.89 7.12564 149.89 9.39262C149.89 11.2054 150.036 11.5972 151.015 12.3956C152.234 13.3895 154.006 13.5846 155.432 12.8817C156.605 12.3032 156.513 12.4181 157.118 10.7741L157.654 9.31959L158.285 10.7338C159.572 13.6166 159.174 14.6333 155.354 18.2301C151.019 22.3114 148.897 27.446 148.899 33.8532C148.904 48.8644 160.782 59.0286 178.373 59.0746C184.057 59.0898 186.954 58.4869 191.612 56.3192C195.025 54.7312 197.69 52.6388 205.253 45.6089C211.072 40.1993 213.09 38.798 215.062 38.798C216.444 38.798 216.037 37.4979 214.38 36.6181C212.205 35.4645 210.368 35.2522 208.136 35.8973C205.939 36.5325 206.019 36.6143 205.721 33.4265C205.473 30.7681 204.384 28.6955 202.297 26.907C200.161 25.0774 198.596 24.349 196.23 24.0835C192.948 23.7149 192.655 24.0767 194.609 26.0873C195.536 27.0409 196.866 28.9644 197.564 30.3615C198.77 32.7749 198.834 33.1313 198.834 37.4667C198.834 41.952 198.808 42.0828 197.338 45.001C193.594 52.4345 185.946 56.2926 175.952 55.789C169.62 55.4699 168.357 55.0461 165.477 52.2755C163.558 50.4289 162.951 49.5631 162.738 48.3688C162.394 46.4373 163.372 44.3183 164.968 43.5359C166.401 42.8333 167.601 42.7881 167.044 43.4575C166.827 43.7192 166.53 44.4073 166.384 44.9869C166.176 45.8089 166.337 46.2486 167.112 46.9839C168.388 48.1938 169.77 48.1801 171.322 46.942C173.534 45.1775 172.725 41.7595 169.756 40.3233C166.534 38.7649 162.929 39.5667 160.777 42.3206C159.656 43.7549 159.376 47.7678 160.277 49.4806C160.634 50.1584 160.827 50.8058 160.707 50.9195C160.587 51.0333 159.24 49.8941 157.713 48.3878C150.952 41.7188 149.512 33.3561 153.753 25.3863C155.32 22.4403 159.228 18.7276 162.226 17.337C167.41 14.9323 173.484 16.065 177.651 20.2137C181.504 24.05 181.619 30.25 177.884 32.8685C176.327 33.9601 173.456 34.0731 171.831 33.1062C170.386 32.2458 169.334 30.3668 169.653 29.212C169.841 28.53 169.926 28.5471 170.942 29.4703C175.303 33.4314 180.617 27.2276 176.671 22.7819C174.579 20.4248 171.675 19.9626 168.304 21.451C165.207 22.8184 163.538 25.5738 163.557 29.2888C163.584 34.6018 168.224 38.5584 174.384 38.5222C179.03 38.4952 183.103 36.1195 185.324 32.1416C186.232 30.5159 186.386 29.77 186.386 27.0066C186.386 24.206 186.229 23.4681 185.213 21.4913C183.626 18.4058 180.458 15.4777 177.079 13.9753C174.747 12.938 173.81 12.7456 170.474 12.6162C167.605 12.5055 166.087 12.6269 164.685 13.0799C163.64 13.4177 162.656 13.6938 162.499 13.6938C162.342 13.6938 162.147 12.4523 162.066 10.9346C161.951 8.78023 161.709 7.89474 160.959 6.89628C159.141 4.476 155.088 3.49276 152.698 4.8925Z" fill="url(#paint1_linear_2180_6788)"/>
<path fill-rule="evenodd" clip-rule="evenodd" d="M69.9681 40.4911C64.1755 42.2073 61.0535 46.1433 61.0362 51.7511C61.0178 57.7399 64.5197 61.2397 70.531 61.2397C73.4391 61.2397 75.5514 60.1811 76.8568 58.069C78.8699 54.8115 77.881 50.8884 74.6595 49.354C73.0315 48.5781 70.4764 48.4963 69.0631 49.1741C67.7115 49.8226 66.2427 51.9854 66.2427 53.3273C66.2427 54.6837 67.1915 56.5011 68.0661 56.8195C70.1619 57.5821 72.6617 56.608 72.6617 55.0287C72.6617 54.6791 72.8422 54.3931 73.0628 54.3931C73.8259 54.3931 73.4604 55.9526 72.4791 56.8826C71.2222 58.0747 68.6779 58.158 67.0523 57.0606C65.7706 56.1953 64.634 53.8081 64.6468 52.0082C64.6589 50.3384 65.8512 47.9862 67.4178 46.5416C69.7459 44.3944 74.611 43.7535 79.0806 45.0045C81.5013 45.6823 83.5233 46.9341 91.6319 52.7773C97.1313 56.7396 101.58 59.1386 105.559 60.2865C109.762 61.4999 120.557 61.4002 121.378 60.1408C121.481 59.983 119.362 59.8377 116.671 59.8183C111.194 59.7791 107.095 58.9643 102.951 57.0914C99.6724 55.6099 97.5237 54.069 92.87 49.861C90.692 47.8915 88.0161 45.6089 86.9245 44.7885C81.6642 40.8368 74.731 39.0799 69.9681 40.4911Z" fill="#CD9C1A"/>
<path fill-rule="evenodd" clip-rule="evenodd" d="M217.92 40.519C213.112 41.7985 208.642 44.5953 203.648 49.4481C199.999 52.9935 196.973 55.2023 193.564 56.8093C189.147 58.8918 186.609 59.4388 180.178 59.6932L174.361 59.9234L176.541 60.5814C177.947 61.0063 180.009 61.2387 182.358 61.2368C189.778 61.2314 196.115 58.8751 203.848 53.2464C214.781 45.2891 216.505 44.4261 221.5 44.4147C224.983 44.4071 227.078 45.0951 229.033 46.8893C232.034 49.6432 232.04 55.2886 229.043 57.1288C226.697 58.5693 224.369 58.244 223.325 56.33C222.596 54.9946 222.565 54.7732 223.105 54.7732C223.326 54.7732 223.506 55.0033 223.506 55.2848C223.506 56.187 224.931 57.0554 226.411 57.0554C228.488 57.0554 230.093 55.2121 229.803 53.1608C229.511 51.1038 228.53 49.8733 226.5 49.0221C224.151 48.0373 221.635 48.5786 219.912 50.4393C217.471 53.0749 217.508 56.4145 220.007 58.9492C221.596 60.5616 223.382 61.2413 226.001 61.2311C231.682 61.2086 235.469 56.8789 235.056 50.8782C234.745 46.3633 232.357 43.0602 228.05 41.1911C225.296 39.9956 220.967 39.7084 217.92 40.519Z" fill="#CD9C1A"/>
<path fill-rule="evenodd" clip-rule="evenodd" d="M46.6322 50.4794C45.1213 51.1853 43.8006 53.4493 43.7862 55.3579C43.7814 55.9935 44.1837 57.2773 44.68 58.2107C45.3869 59.5397 46.0553 60.135 47.7607 60.9539C48.9586 61.529 50.5156 61.9999 51.2209 61.9999C52.9391 61.9999 55.6672 61.0543 57.2486 59.9109C58.8887 58.725 60.3201 55.9654 60.1512 54.315L60.0232 53.0613L59.3183 54.2853C57.704 57.0898 55.0927 58.5766 51.7829 58.5766C50.0526 58.5766 49.5508 58.4035 48.5606 57.4648C47.7454 56.6919 47.388 55.976 47.388 55.1164V53.8795L48.3163 54.7068C48.827 55.1617 49.702 55.5337 50.26 55.5337C52.9901 55.5337 53.5594 51.6543 51.0127 50.4056C49.5062 49.6669 48.3296 49.6867 46.6322 50.4794Z" fill="#F8CB53"/>
<path fill-rule="evenodd" clip-rule="evenodd" d="M245.292 50.2134C244.182 50.6372 243.044 52.6721 243.371 53.6489C244.027 55.6101 246.25 56.1346 247.853 54.7071L248.781 53.8798V54.6824C248.781 57.3236 246.716 58.761 243.305 58.4929C240.751 58.2921 238.795 57.1076 237.061 54.7101L235.869 53.0616L236.074 54.7166C236.399 57.34 238.183 59.7295 240.731 60.9542C244.098 62.5727 247.25 62.2053 249.967 59.8786C253.172 57.1331 252.823 51.9723 249.326 50.3991C247.918 49.7658 246.621 49.706 245.292 50.2134Z" fill="#F8CB53"/>
<path fill-rule="evenodd" clip-rule="evenodd" d="M255.535 55.3013C254.108 55.9719 254.005 58.3149 255.365 59.1601C257.541 60.5115 260.088 58.189 258.674 56.1426C257.909 55.0369 256.755 54.7273 255.535 55.3013Z" fill="#F8C900"/>
<path fill-rule="evenodd" clip-rule="evenodd" d="M37.621 55.8494C35.6556 57.9084 38.6609 60.8056 40.944 59.0529C42.0761 58.1838 42.1816 56.3789 41.143 55.6589C40.1079 54.9415 38.3997 55.0336 37.621 55.8494Z" fill="#F8C900"/>
<path fill-rule="evenodd" clip-rule="evenodd" d="M28.5327 55.7822C27.0984 55.8381 20.9604 56.0659 14.8925 56.2884C-4.49342 57.0001 -4.77465 57.5235 13.8895 58.1553C20.9503 58.3941 28.1299 58.6768 29.8441 58.7833C33.3641 59.002 34.5504 58.6205 34.5504 57.2702C34.5504 56.6022 34.2242 56.2618 33.2871 55.9522C32.5922 55.7224 31.8248 55.5676 31.5821 55.6079C31.3389 55.6483 29.9669 55.7266 28.5327 55.7822Z" fill="#D2A283"/>
<path fill-rule="evenodd" clip-rule="evenodd" d="M261.885 56.1678C261.331 56.693 261.648 58.1845 262.394 58.5633C262.927 58.8337 266.419 58.8394 273.527 58.5816C301.399 57.5702 302.537 57.2054 280.674 56.2891C270.403 55.8585 262.267 55.806 261.885 56.1678Z" fill="#D2A283"/>
<path fill-rule="evenodd" clip-rule="evenodd" d="M261.885 56.1678C261.331 56.693 261.648 58.1845 262.394 58.5633C262.927 58.8337 266.419 58.8394 273.527 58.5816C301.399 57.5702 302.537 57.2054 280.674 56.2891C270.403 55.8585 262.267 55.806 261.885 56.1678Z" fill="#D2A283"/>
<path fill-rule="evenodd" clip-rule="evenodd" d="M146.062 0.59071C144.576 2.28829 146.279 5.24944 148.461 4.76181C151.799 4.01591 151.504 0 148.112 0C147.215 0 146.364 0.245337 146.062 0.59071Z" fill="#FCD510"/>
<defs>
<linearGradient id="paint0_linear_2180_6788" x1="113.94" y1="4.17969" x2="113.94" y2="59.1493" gradientUnits="userSpaceOnUse">
<stop stop-color="#FFD200"/>
<stop offset="0.660327" stop-color="#CB381F"/>
<stop offset="0.826923" stop-color="#852816"/>
<stop offset="1" stop-color="#3F170D"/>
</linearGradient>
<linearGradient id="paint1_linear_2180_6788" x1="182.398" y1="4.24951" x2="182.398" y2="59.0749" gradientUnits="userSpaceOnUse">
<stop stop-color="#FFD200"/>
<stop offset="0.660327" stop-color="#CB381F"/>
<stop offset="0.826923" stop-color="#852816"/>
<stop offset="1" stop-color="#3F170D"/>
</linearGradient>
</defs>
</svg>
