<svg width="48" height="64" viewBox="0 0 48 64" fill="none" xmlns="http://www.w3.org/2000/svg">
<path d="M38.3093 8.70799C36.5141 7.42135 35.4125 6.79001 35.0045 6.81398L34.8893 6.94358C34.9709 6.93879 35.0141 6.97719 35.0189 7.0588C35.2013 7.37564 35.7293 7.99972 36.6028 8.93105C39.0555 11.653 40.4017 15.0542 40.6414 19.1345C40.929 24.0308 39.6996 28.8934 36.9535 33.7223C35.6908 35.9255 33.2424 38.8535 29.6082 42.5062C28.5233 43.5525 28.024 44.1141 28.1104 44.1909C28.1152 44.2726 28.432 44.0902 29.0609 43.6438C31.9076 41.9207 34.776 39.1728 37.6661 35.4C39.6489 32.9088 41.1948 29.952 42.304 26.5295C42.8658 24.9406 43.0532 22.5549 42.8663 19.3723C42.7273 17.0057 42.6002 15.5392 42.4851 14.9727C42.3651 14.3247 41.9428 13.4078 41.218 12.2221C40.2197 10.5611 39.2501 9.38971 38.3093 8.70799ZM17.8966 2.04578C19.1063 1.72907 21.0577 1.49162 23.7507 1.33345C26.5252 1.17048 28.5318 1.17546 29.7702 1.34837C32.2423 1.61261 35.216 2.74814 38.6913 4.75497C41.9121 6.61297 44.1128 9.22693 45.2934 12.5968C45.9797 14.5218 46.3899 16.6268 46.5241 18.9118C46.6727 21.4415 46.4829 23.7865 45.9547 25.9466C43.8466 34.6685 37.9392 42.1397 28.2324 48.36C25.8753 50.0543 24.0223 51.2686 22.6734 52.003L19.5842 53.7812L28.1456 53.1555C34.4196 52.6232 37.9623 52.2923 38.7735 52.1628C41.865 51.8174 43.3651 50.8695 43.2741 49.319C43.2405 48.7478 43.0005 48.1477 42.5542 47.5188C42.007 46.5683 41.7287 46.0115 41.7191 45.8482C41.8344 45.0226 42.708 45.2579 44.34 46.5541C46.2504 48.4072 47.2871 50.721 47.45 53.4956C47.5746 55.6174 46.6984 57.4294 44.8214 58.9318L43.4171 60.1197L25.3151 61.4286C20.4236 61.7978 15.244 62.143 9.77642 62.4641C7.40986 62.6031 6.10176 62.639 5.85215 62.5718C4.19127 62.178 3.30573 61.0426 3.19549 59.1657C3.13318 58.1048 3.31808 57.0704 3.7502 56.0624C4.17752 54.9727 4.73683 54.0391 5.42814 53.2615C6.11946 52.484 7.7925 50.9936 10.4473 48.7905C15.992 44.2067 19.7414 40.4244 21.6954 37.4436C25.7089 31.8852 27.8552 25.9042 28.1341 19.5006C28.2111 18.0221 28.2304 16.9564 28.192 16.3036C27.9188 11.6521 26.4646 8.50294 23.8294 6.8562C22.5573 6.11204 21.1461 5.7855 19.5956 5.87657C19.1876 5.90054 18.6619 6.0133 18.0187 6.21486C16.3337 6.80515 14.6318 8.5019 12.9131 11.3051C11.2711 14.022 10.4357 16.5276 10.4067 18.8222C10.4162 18.9854 10.3898 19.2326 10.3274 19.5638C10.3466 19.8903 10.3586 20.0943 10.3634 20.1759C10.4305 21.3184 10.9944 21.8584 12.0553 21.7961C12.6265 21.7626 13.1138 21.693 13.517 21.5874C14.9764 21.3379 15.7108 21.2948 15.7204 21.458C15.7731 22.3557 15.0266 23.5869 13.4807 25.1517C11.7092 27.0572 9.88504 28.0651 8.00811 28.1754C6.21279 28.2808 4.56634 27.4358 3.0688 25.6404C2.27684 24.7043 1.77534 23.1369 1.56432 20.9384L1.514 20.0815C1.32228 16.8173 2.01375 13.9515 3.58847 11.4843C4.77912 9.4491 6.71623 7.57475 9.39975 5.86128C12.0833 4.14781 14.9156 2.87597 17.8966 2.04578Z" fill="url(#paint0_linear_1528_1931)" stroke="#FCF0AB" stroke-width="1.0644"/>
<defs>
<linearGradient id="paint0_linear_1528_1931" x1="188.159" y1="-4.37223" x2="190.713" y2="74.8194" gradientUnits="userSpaceOnUse">
<stop stop-color="#77501F"/>
<stop offset="0.35" stop-color="#E0B253"/>
<stop offset="0.55" stop-color="#D6A534"/>
<stop offset="0.66" stop-color="#E0B25A"/>
<stop offset="0.76" stop-color="#BC9141"/>
<stop offset="0.894156" stop-color="#EACC44"/>
</linearGradient>
</defs>
</svg>
