<svg width="79" height="119" viewBox="0 0 79 119" fill="none" xmlns="http://www.w3.org/2000/svg">
<path d="M32.0867 2.00165C34.0433 1.47488 36.3103 1.12681 38.8877 0.957481L41.5642 0.78165C47.1286 0.615196 51.2776 1.63686 54.0113 3.84667C56.745 6.05648 58.7963 10.0036 60.1654 15.6881C61.245 19.9977 62.4751 32.6604 63.8558 53.6761C65.7836 83.0188 67.7569 99.4159 69.7757 102.867C70.2374 103.833 71.6578 104.237 74.0369 104.081C76.4161 103.924 77.6447 104.441 77.7228 105.631C77.788 106.622 76.7952 108.181 74.7446 110.306C72.8792 112.221 71.173 113.528 69.626 114.227C68.2772 114.913 66.7107 115.314 64.9263 115.432C58.1855 115.875 53.4691 113.795 50.7774 109.193C49.6688 107.474 48.0986 91.1497 46.0666 60.221C44.0737 29.887 42.84 14.1382 42.3653 12.9747C41.9036 12.0095 40.4832 11.605 38.1041 11.7613C32.5528 12.126 29.979 15.3814 30.3828 21.5275C30.7345 26.8806 33.2345 31.5947 37.8828 35.6699C39.9957 37.5222 40.966 38.6532 40.7938 39.0627C40.4103 39.2871 40.1194 39.4057 39.9211 39.4188C36.7489 39.6272 32.4943 38.5129 27.1571 36.0759C20.7766 32.911 17.3518 27.7598 16.8829 20.6224C16.6615 17.2519 17.0739 14.4372 18.1202 12.1782C19.0073 10.527 20.8727 8.61235 23.7163 6.43435C26.7583 4.24333 29.5484 2.76577 32.0867 2.00165ZM38.3865 47.8825C39.1274 47.0374 39.8944 46.5887 40.6875 46.5366C42.4848 46.6177 43.8329 53.4982 44.7317 67.1782C44.7968 68.1695 44.8149 69.9604 44.7859 72.5508C44.9423 74.93 45.066 76.8134 45.1572 78.2013C45.6985 92.5021 44.3411 102.149 41.085 107.142C37.127 113.574 31.5794 117.025 24.4419 117.494C21.6663 117.676 18.6403 117.079 15.3639 115.701C6.94861 111.873 2.26554 102.723 1.31468 88.2499L1.02161 83.789C1.01284 65.4708 9.29634 55.1698 25.8721 52.8861C26.4669 52.8471 27.1608 52.8015 27.9539 52.7494C28.9322 52.486 29.6196 52.3413 30.0161 52.3152C32.197 52.1719 33.307 52.3977 33.346 52.9925C33.3981 53.7855 31.9958 55.1719 29.1391 57.1516L23.4844 62.0033C20.5336 65.5821 19.3108 72.7311 19.8159 83.4503L20.0894 87.6138C20.8319 98.9147 24.0179 104.978 29.6473 105.802L30.8369 105.724C34.0091 105.516 36.284 103.773 37.6617 100.497C39.569 96.1903 39.9821 85.809 38.901 69.3533C38.0283 56.0698 37.8568 48.9129 38.3865 47.8825Z" fill="url(#paint0_linear_1528_1938)" stroke="#FCF0AB" stroke-width="1.0644"/>
<defs>
<linearGradient id="paint0_linear_1528_1938" x1="232.041" y1="-9.04256" x2="232.041" y2="222.572" gradientUnits="userSpaceOnUse">
<stop stop-color="#FFC411"/>
<stop offset="0.221154" stop-color="#CD9C1A"/>
<stop offset="0.543269" stop-color="#BD6229"/>
<stop offset="0.822115" stop-color="#5D2F24"/>
<stop offset="1" stop-color="#5D2F24"/>
</linearGradient>
</defs>
</svg>
