<svg width="93" height="119" viewBox="0 0 93 119" fill="none" xmlns="http://www.w3.org/2000/svg">
<path d="M34.7433 7.73769C40.53 2.3998 48.9706 0.153384 60.065 0.998444L63.6311 1.27007C69.7576 1.93598 74.0558 3.06043 76.5256 4.64341C81.0993 7.38296 83.6777 11.465 84.2608 16.8896C84.844 22.3141 84.3905 37.4237 82.9004 62.2182C81.0764 88.7807 80.5003 102.885 81.1721 104.53C81.9514 107.379 84.1241 108.939 87.6901 109.211C88.6807 109.286 89.3816 109.24 89.7929 109.072C92.5967 108.887 92.9251 109.809 90.778 111.837C90.3515 112.203 89.7119 112.752 88.8591 113.484C84.8082 116.962 79.6129 118.459 73.2732 117.976C66.3392 117.448 61.5448 114.991 58.8899 110.604C57.9899 109.34 57.6219 106.323 57.786 101.553C57.9651 96.585 58.8007 82.9991 60.2927 60.7951L63.5946 13.522L61.3077 12.1523C60.1643 11.4674 58.9982 11.0797 57.8096 10.9891C55.4322 10.808 53.0784 11.6251 50.7483 13.4402C48.4332 15.0573 47.1851 17.0545 47.004 19.4319C46.6871 23.5923 48.7174 28.33 53.0949 33.645C55.8403 36.8431 56.9998 38.6252 56.5734 38.9912C56.3602 39.1743 56.1545 39.2582 55.9564 39.2431C54.3715 39.1224 51.6431 38.3168 47.7714 36.8263C44.0977 35.3509 41.4071 34.05 39.6995 32.9236C37.4278 31.3557 35.7277 30.1303 34.5994 29.2473C33.4861 28.1662 32.5097 26.5973 31.6701 24.5407C31.0285 22.4992 30.8209 19.9926 31.0472 17.0209C31.2887 13.851 31.5387 11.8774 31.7971 11.1C32.2688 10.1397 33.2508 9.01886 34.7433 7.73769ZM52.9904 46.7885C55.6414 45.9941 57.0971 46.5035 57.3575 48.3168C57.5104 48.9262 57.2397 53.7876 56.5455 62.9008L55.7533 73.3019C54.5894 85.9661 53.4829 93.9521 52.4339 97.2597C51.5831 100.582 49.3454 103.799 45.7209 106.911C40.1776 111.669 33.3446 113.739 25.2219 113.121C16.901 112.487 10.5443 109.612 6.15172 104.495C1.72895 99.7739 -0.0448292 91.6683 0.830411 80.1776C1.38875 72.8473 3.12165 67.101 6.02913 62.9387C12.0875 54.0347 22.3705 49.8364 36.8781 50.3436C38.2649 50.4492 39.7508 50.5624 41.3357 50.6831C42.9357 50.6057 43.9339 50.5821 44.3301 50.6123C45.3207 50.6878 45.8085 50.8246 45.7934 51.0227L45.1084 52.1661C43.616 53.4473 41.8566 54.3096 39.8302 54.753C37.1792 55.5474 34.5745 57.0428 32.0161 59.2391C29.4727 61.2372 27.8208 63.3033 27.0605 65.4373C25.2662 70.6808 24.1427 76.2742 23.69 82.2177C23.192 88.7555 23.7063 93.7763 25.2328 97.28C26.9574 100.799 29.8999 102.717 34.0604 103.034C37.2302 103.275 39.9878 102.389 42.333 100.376C44.6783 98.3627 46.3216 95.1003 47.263 90.589C48.4026 86.0927 49.4175 78.0002 50.3079 66.3114C51.2887 53.4339 52.1829 46.9263 52.9904 46.7885Z" fill="url(#paint0_linear_1528_1921)" stroke="#FCF0AB" stroke-width="1.0644"/>
<defs>
<linearGradient id="paint0_linear_1528_1921" x1="-181.41" y1="-60.3489" x2="-181.41" y2="217.13" gradientUnits="userSpaceOnUse">
<stop stop-color="#FFC411"/>
<stop offset="0.221154" stop-color="#CD9C1A"/>
<stop offset="0.543269" stop-color="#BD6229"/>
<stop offset="0.822115" stop-color="#5D2F24"/>
<stop offset="1" stop-color="#5D2F24"/>
</linearGradient>
</defs>
</svg>
