<svg width="68" height="172" viewBox="0 0 68 172" fill="none" xmlns="http://www.w3.org/2000/svg">
<path d="M20.5369 21.3987C20.4782 15.6371 22.4165 10.8486 26.3517 7.03325C30.4835 3.01722 35.9269 0.974817 42.6819 0.906068C45.8608 0.873715 47.8496 1.05217 48.6484 1.44144C49.4451 1.63202 50.846 2.61127 52.8509 4.37915C55.8594 7.13032 57.6769 9.99296 58.3032 12.9671C59.3512 18.3213 60.0491 38.0847 60.3969 72.2574L60.5728 89.5425C61.046 136.033 61.5927 160.468 62.213 162.846C62.6245 164.232 63.5256 164.919 64.9164 164.905C66.3071 164.89 67.0055 165.181 67.0116 165.777C67.0197 166.572 66.1358 167.575 64.3598 168.785C62.5818 169.796 60.7004 170.412 58.7156 170.631L56.6295 170.652C52.2586 170.696 49.0585 168.643 47.0293 164.491C45.8129 162.119 44.9283 153.285 44.3752 137.991C44.1159 132.033 43.8598 116.636 43.6071 91.8015L43.3704 68.5561L43.1953 22.0623L41.0789 19.1034C39.2645 16.5387 37.0658 15.2696 34.483 15.2958C32.2976 15.3181 30.3209 16.3317 28.553 18.3367C26.7852 20.3417 25.9143 22.6356 25.9406 25.2184C25.9507 26.2118 26.0572 26.9062 26.2599 27.3015C27.093 31.0683 30.0092 34.5158 35.0085 37.6441C36.008 38.2301 36.6101 38.82 36.8148 39.4141C37.2163 39.8074 37.12 40.1064 36.5259 40.3111C36.1306 40.5139 35.4352 40.521 34.4398 40.3324C31.0542 39.572 27.8521 37.3196 24.8335 33.575C22.0115 29.6297 20.5793 25.571 20.5369 21.3987ZM36.1483 61.7745L40.6185 61.729L41.5452 94.2069C41.8025 99.9665 41.9797 107.615 42.0768 117.151C42.2749 136.622 41.3146 149.646 39.1959 156.225C36.1161 165.992 30.106 170.922 21.1654 171.013C17.7879 171.047 14.5006 170.186 11.3035 168.431C7.107 166.089 4.18576 162.145 2.53972 156.598C1.71468 153.626 1.23644 145.683 1.10501 132.769L0.907837 113.398C0.912401 94.3224 0.995804 82.9957 1.15809 79.4174C1.31835 75.6405 1.88508 72.7536 2.85825 70.7567C3.8294 68.5611 5.09956 66.4619 6.66877 64.4589C9.22126 61.4524 13.4686 59.0248 19.4108 57.176C20.4001 56.7686 22.7822 56.5456 26.5571 56.5072C29.736 56.4749 31.3274 56.6574 31.3315 57.0547C31.3335 57.2534 30.0542 58.4586 27.4936 60.6704C25.3264 62.4807 23.1672 65.0858 21.0161 68.4856L18.0845 73.2842L18.1322 107.261L18.2475 118.586C18.4234 135.871 19.0333 146.992 20.0772 151.949C21.1212 156.906 23.2346 159.567 26.4175 159.932C28.2076 160.112 29.8883 159.3 31.4596 157.496C33.8194 155.087 35.0775 151.796 35.2337 147.622C35.5886 143.446 35.8414 129.236 35.9921 104.993L36.1483 61.7745Z" fill="url(#paint0_linear_1528_1924)" stroke="#FCF0AB" stroke-width="1.0644"/>
<defs>
<linearGradient id="paint0_linear_1528_1924" x1="61.5899" y1="3.65133" x2="61.5899" y2="281.131" gradientUnits="userSpaceOnUse">
<stop stop-color="#FFC411"/>
<stop offset="0.221154" stop-color="#CD9C1A"/>
<stop offset="0.543269" stop-color="#BD6229"/>
<stop offset="0.822115" stop-color="#5D2F24"/>
<stop offset="1" stop-color="#5D2F24"/>
</linearGradient>
</defs>
</svg>
