<svg width="89" height="217" viewBox="0 0 89 217" fill="none" xmlns="http://www.w3.org/2000/svg">
<path d="M50.4526 2.06737C54.1302 1.23856 58.5391 1.08224 63.6791 1.59841C69.8077 2.21385 74.5718 3.491 77.9715 5.4299C82.3199 7.86346 84.4147 9.87102 84.2559 11.4526C84.2162 11.848 82.5556 11.4815 79.2742 10.3533C77.1592 9.54179 75.1132 9.03679 73.1362 8.83826C64.4377 7.96474 57.972 9.71171 53.7394 14.0792C52.1768 15.7195 51.0192 18.299 50.2665 21.8178C49.5137 25.3366 48.5616 32.8291 47.4102 44.2954L44.8492 69.798C42.6844 93.3435 41.5118 108.003 41.3315 113.776C41.171 119.351 41.9307 122.722 43.6107 123.889C44.3618 124.364 44.935 124.621 45.3304 124.661C47.9005 124.919 50.3526 123.368 52.6869 120.008L55.12 116.658L59.9132 71.9098C63.069 42.4732 65.1316 26.905 66.1011 25.2051C68.2972 21.2322 71.5699 19.4641 75.9192 19.9009C79.4777 20.2582 82.5019 21.9598 84.9916 25.0054C86.4144 26.7458 87.2639 28.2289 87.5401 29.4548C88.0141 30.7005 88.1217 33.6068 87.8627 38.1736C87.8214 42.5626 87.2944 49.7983 86.2819 59.8807C84.654 76.0917 83.1158 90.4146 81.6674 102.849C77.5 140.372 74.5341 164.935 72.7697 176.539C71.203 188.164 69.4602 195.577 67.5411 198.779C64.1778 204.432 58.3437 208.838 50.0388 211.998C41.9317 215.178 33.5289 216.331 24.8303 215.457L22.458 215.219C16.1516 214.386 11.7341 211.646 9.20546 206.999C6.99278 203.182 6.37363 194.434 7.34808 180.753C8.18273 170.453 8.37298 164.581 7.91887 163.138C7.46475 161.694 5.28064 160.576 1.36646 159.784L3.97699 157.65C7.45774 154.804 11.4716 153.61 16.0186 154.067C18.1932 154.285 19.7351 154.839 20.6442 155.729C22.4821 157.312 23.5488 159.615 23.8441 162.64C24.1592 165.468 23.969 171.339 23.2733 180.255C22.5379 189.567 22.3968 195.943 22.8501 199.383C23.4812 203.041 25.3783 205.028 28.5414 205.346C31.1115 205.604 36.8256 204.381 45.6838 201.676L54.6409 198.981L57.0207 181.248C58.369 171.798 61.4354 143.251 66.2199 95.6071C70.5479 52.5097 72.5439 30.6446 72.2081 30.0118C71.7142 28.9638 71.0422 28.6966 70.1918 29.2103C69.1637 29.5064 67.0717 44.3728 63.9159 73.8094C61.1572 99.2922 59.1442 114.366 57.877 119.031C56.8075 123.717 54.3247 127.561 50.4287 130.564C47.383 133.054 44.3576 134.348 41.3525 134.445C40.5419 134.564 39.5435 134.563 38.3573 134.444C33.6126 133.968 29.7287 131.88 26.7054 128.182C24.2156 125.136 22.9322 121.014 22.8553 115.814C22.9761 110.634 24.4262 94.2058 27.2055 66.5285L32.1787 17.0061L34.731 12.4699C37.6393 7.37034 42.8798 3.90285 50.4526 2.06737Z" fill="url(#paint0_linear_1528_1933)" stroke="#FCF0AB" stroke-width="1.0644"/>
<defs>
<linearGradient id="paint0_linear_1528_1933" x1="-267.959" y1="-3.04262" x2="-267.959" y2="228.572" gradientUnits="userSpaceOnUse">
<stop stop-color="#FFC411"/>
<stop offset="0.221154" stop-color="#CD9C1A"/>
<stop offset="0.543269" stop-color="#BD6229"/>
<stop offset="0.822115" stop-color="#5D2F24"/>
<stop offset="1" stop-color="#5D2F24"/>
</linearGradient>
</defs>
</svg>
