<svg width="123" height="156" viewBox="0 0 123 156" fill="none" xmlns="http://www.w3.org/2000/svg">
<path d="M3.16689 11.9445L5.28426 9.04691L16.8545 7.93749L21.0079 7.53925C27.5347 6.91342 31.4158 7.83867 32.6513 10.315C33.8867 12.7913 35.4228 21.5263 37.2597 36.5197L39.9459 61.4118L60.1482 37.9179C72.5245 23.358 80.6092 14 84.4023 9.84385C89.6638 4.34934 94.2724 1.41244 98.2281 1.03315C100.799 0.786617 103.602 1.91506 106.636 4.4185C109.926 7.49633 111.104 9.37934 110.172 10.0675C109.796 10.3032 109.4 10.3411 108.985 10.1813C108.769 10.0025 108.364 9.9415 107.77 9.99839C105.99 10.1691 103.006 12.3514 98.8173 16.5455C94.8264 20.7205 87.0004 29.6545 75.3394 43.3475C59.2079 62.459 51.1991 72.6082 51.3129 73.7949C51.3318 73.9927 60.2522 82.7181 78.0742 99.9713C91.6831 112.838 100.98 121.328 105.965 125.441C111.129 129.337 115.322 131.43 118.543 131.719C120.54 131.728 121.666 132.019 121.921 132.593C122.354 132.951 122.143 133.869 121.287 135.349C118.531 142 113.396 145.686 105.88 146.407C100.935 146.881 95.9989 145.358 91.0706 141.839C86.1424 138.319 76.0867 129.204 60.9037 114.492L43.4164 97.6058L45.4238 121.665C46.7622 137.704 47.0927 146.355 46.4153 147.617C45.3153 150.717 42.2931 152.504 37.3485 152.978C33.7885 153.319 30.9152 152.497 28.7288 150.511L26.0994 148.068L19.7842 82.2072L17.6508 59.9568C15.6405 38.9919 14.309 26.1456 13.6561 21.4178C13.0031 16.69 12.0833 14.383 10.8966 14.4968C10.5011 14.5347 9.92666 14.7894 9.17346 15.2608C8.4013 15.5344 8.20082 18.6474 8.57197 24.5999C8.92415 30.3545 10.6512 50.4483 13.7532 84.8813C17.9742 130.983 19.7974 154.162 19.2231 154.416C18.2721 154.907 16.4961 154.079 13.8952 151.933L7.28333 86.1004L4.41024 56.1365C2.02074 31.216 0.886955 18.3507 1.00888 17.5406C1.23376 15.7227 1.9531 13.8573 3.16689 11.9445Z" fill="url(#paint0_linear_1528_1939)" stroke="#FCF0AB" stroke-width="1.0644"/>
<defs>
<linearGradient id="paint0_linear_1528_1939" x1="360.041" y1="15.9573" x2="360.041" y2="247.572" gradientUnits="userSpaceOnUse">
<stop stop-color="#FFC411"/>
<stop offset="0.221154" stop-color="#CD9C1A"/>
<stop offset="0.543269" stop-color="#BD6229"/>
<stop offset="0.822115" stop-color="#5D2F24"/>
<stop offset="1" stop-color="#5D2F24"/>
</linearGradient>
</defs>
</svg>
