<svg width="85" height="121" viewBox="0 0 85 121" fill="none" xmlns="http://www.w3.org/2000/svg">
<path d="M52.8227 1.94221C56.2641 1.19921 58.9757 0.900582 60.9572 1.04633C65.7129 1.39613 69.7648 3.18837 73.1129 6.42302C76.6592 9.67225 78.8738 13.4212 79.7566 17.6699C80.5433 20.5169 79.9091 35.9102 77.8541 63.8499C75.9156 90.2043 75.1343 104.89 75.5101 107.906C75.6208 109.109 75.867 109.824 76.2488 110.052C76.8287 110.294 78.0249 110.282 79.8374 110.017C82.4426 109.81 83.7306 109.905 83.7014 110.301L81.3584 113.715C77.64 118.223 72.7094 120.251 66.5667 119.799C62.0091 119.464 58.9772 117.348 57.4707 113.452C55.9934 109.16 56.071 95.9168 57.7034 73.7236C57.82 72.1383 58.0094 69.5623 58.2717 65.9956C58.7323 62.4434 59.0354 59.6765 59.1811 57.695C59.356 55.3172 59.5601 52.543 59.7933 49.3725C60.2247 46.2167 60.484 44.0443 60.5715 42.8554C61.067 36.1181 61.0132 31.4324 60.4101 28.7981C60.0051 26.1784 58.7303 23.1958 56.5857 19.8505C54.2866 15.8961 51.5518 13.8023 48.3814 13.5691C45.8054 13.3796 43.0283 14.5699 40.0501 17.14C36.4337 20.2608 34.1898 23.6819 33.3184 27.403C32.6597 30.9407 31.3642 44.4923 29.4316 68.058C27.1784 95.9831 25.4981 110.702 24.3907 112.214C22.5869 115.07 20.1987 116.388 17.2264 116.17C15.0468 116.009 12.8555 114.653 10.6525 112.1L7.36998 107.974L10.6274 63.6865C11.5602 51.0047 12.1681 41.3869 12.4509 34.8333C12.9319 28.2942 13.12 23.0286 13.0151 19.0364C13.1085 15.0587 12.8871 12.6517 12.3509 11.8154C12.0129 10.9936 11.3485 10.5463 10.3578 10.4734C9.36701 10.4006 7.62439 11.0693 5.12995 12.4796C2.62094 14.0881 1.40287 14.397 1.47574 13.4062C1.50489 13.0099 1.86044 12.2391 2.54235 11.0939C4.33163 8.4364 6.89892 6.03529 10.2443 3.89064C13.8024 1.56242 16.8694 0.493047 19.4454 0.682522C21.0307 0.799122 22.6639 1.61656 24.3453 3.13481L26.5701 5.39032L23.2819 54.1579C21.2879 86.6843 20.5371 103.663 21.0296 105.094L21.5803 105.732C22.571 105.805 24.0867 91.9704 26.1272 64.2289C27.7304 42.432 28.9678 29.673 29.8391 25.9518C32.1882 12.9757 39.8493 4.97248 52.8227 1.94221Z" fill="url(#paint0_linear_1528_1934)" stroke="#FCF0AB" stroke-width="1.0644"/>
<defs>
<linearGradient id="paint0_linear_1528_1934" x1="-181.959" y1="-12.0427" x2="-181.959" y2="219.572" gradientUnits="userSpaceOnUse">
<stop stop-color="#FFC411"/>
<stop offset="0.221154" stop-color="#CD9C1A"/>
<stop offset="0.543269" stop-color="#BD6229"/>
<stop offset="0.822115" stop-color="#5D2F24"/>
<stop offset="1" stop-color="#5D2F24"/>
</linearGradient>
</defs>
</svg>
