<svg width="422" height="130" viewBox="0 0 422 130" fill="none" xmlns="http://www.w3.org/2000/svg">

<path fill-rule="evenodd" clip-rule="evenodd" d="M0.364905 65.3956C0.578117 65.5464 1.84316 65.8817 3.29911 66.1728C4.44196 66.4017 5.23272 66.6362 5.23251 66.7466C5.2324 66.807 5.60812 66.9485 6.06726 67.0612C6.5264 67.1739 7.21361 67.3915 7.59424 67.5447C7.97487 67.6978 8.38439 67.8233 8.50433 67.8235C8.62444 67.8237 8.839 67.9231 8.98139 68.0443C9.279 68.2982 10.9701 69.148 11.4269 69.2735C11.5962 69.3199 11.7344 69.4061 11.7343 69.4649C11.7342 69.524 12.1803 69.8343 12.7256 70.1547C13.2708 70.475 13.939 70.9075 14.2101 71.1158C14.4814 71.3241 15.1441 71.7978 15.6826 72.1685C16.2212 72.5392 16.9727 73.0951 17.3525 73.404C17.7321 73.7128 18.1053 73.9683 18.1817 73.9719C18.2582 73.9753 18.5942 74.1775 18.9286 74.4214C19.263 74.665 19.6301 74.8646 19.7443 74.8648C19.8586 74.865 19.9942 74.9589 20.0457 75.0735C20.1725 75.3557 21.8809 76.0307 22.7818 76.1547C23.1834 76.2099 23.5544 76.3136 23.6062 76.3849C23.7289 76.5545 26.0922 76.5582 26.2156 76.3893C26.2676 76.3179 26.6932 76.2171 27.1615 76.1651C27.9124 76.0816 28.644 75.8893 30.4086 75.311C30.6749 75.2237 30.8927 75.0916 30.8928 75.0175C30.8929 74.9434 31.0315 74.8814 31.2008 74.8799C31.3702 74.8784 31.7067 74.7459 31.9488 74.5855C32.1909 74.4251 32.4907 74.2926 32.615 74.291C32.8262 74.2882 33.6882 73.8789 33.885 73.688C33.9334 73.641 34.4483 73.411 35.0291 73.1768C36.3068 72.6618 38.108 72.4737 38.1073 72.8555C38.107 72.9867 37.8891 73.2107 37.6227 73.3531C34.7738 74.8773 31.3852 77.7057 29.5662 80.078C28.4805 81.4938 28.1013 82.2909 28.3947 82.541C28.5197 82.6476 29.7045 82.705 31.7987 82.7055C34.6603 82.7064 35.1157 82.6717 35.9708 82.3876C36.4985 82.2121 36.9976 81.9671 37.0796 81.8431C37.1618 81.7189 37.3408 81.6175 37.4778 81.6178C37.9753 81.6186 39.6262 80.6373 41.2575 79.3714C41.6349 79.0785 42.2746 78.6447 42.6787 78.4077C43.0829 78.1706 43.4542 77.8869 43.504 77.7773C43.5974 77.5712 45.3778 76.5497 45.6427 76.5501C45.725 76.5502 45.8278 77.2397 45.8716 78.0822C45.9573 79.7356 46.3238 80.6381 47.0974 81.1003C47.7539 81.4924 48.1763 81.3845 48.9479 80.6275C49.345 80.2376 49.9743 79.646 50.346 79.3126C52.7247 77.1797 53.4004 76.5374 53.4006 76.4088C53.4008 76.329 53.5064 76.2638 53.6355 76.2641C53.7646 76.2643 54.2305 75.9457 54.6707 75.5559C55.6488 74.6903 56.5903 74.0337 56.8582 74.0304C56.9679 74.0291 57.1763 73.8749 57.3212 73.6876C57.4661 73.5004 57.9579 73.1849 58.4141 72.9864C58.8703 72.7879 59.4147 72.4726 59.6238 72.2857C59.8329 72.0988 60.0845 71.9449 60.183 71.9436C60.2815 71.9424 60.6534 71.7736 61.0097 71.5687C61.3659 71.3638 61.7605 71.1952 61.8866 71.194C62.0127 71.1927 62.3024 71.0251 62.5306 70.8215C62.7587 70.6177 63.0569 70.4513 63.1932 70.4515C63.3293 70.4517 63.5785 70.3878 63.7466 70.3095C64.7087 69.8614 66.8898 69.0855 68.1876 68.7297C69.0102 68.5041 69.7229 68.2731 69.7714 68.2162C69.8199 68.1592 70.7699 67.9334 71.8827 67.7145C72.9954 67.4956 74.149 67.2528 74.4462 67.175C74.7434 67.0971 75.1986 67.0338 75.4577 67.0342C75.7167 67.0346 75.9289 66.9737 75.9291 66.8986C75.9292 66.8236 76.2657 66.7194 76.6769 66.667C77.0882 66.6147 77.8402 66.509 78.3481 66.4324C80.7328 66.0728 81.2325 66.008 82.8777 65.8463C83.8451 65.751 85.0325 65.5812 85.5163 65.4687C86.0001 65.3562 86.6335 65.2465 86.9237 65.2248C87.3184 65.1954 87.4515 65.1102 87.4519 64.8866C87.4525 64.5718 87.3762 64.5551 84.6393 64.2717C84.059 64.2116 83.5387 64.1033 83.4831 64.0312C83.4275 63.9591 82.7946 63.8333 82.0767 63.7517C80.3654 63.5572 78.9065 63.3618 77.6069 63.1531C77.0267 63.06 76.2355 62.9433 75.8487 62.8942C75.4619 62.845 75.106 62.7544 75.0577 62.6929C75.0095 62.6316 74.1393 62.4324 73.1241 62.2502C70.5568 61.7899 69.3833 61.5199 69.2679 61.3631C69.2135 61.2895 68.8131 61.1426 68.3781 61.0368C67.943 60.9309 67.5119 60.7884 67.4202 60.7199C67.3284 60.6514 67.1206 60.5952 66.9583 60.5949C66.6622 60.5944 65.707 60.2656 65.2145 59.9948C65.0696 59.9151 64.2393 59.5686 63.3694 59.2247C62.4996 58.8809 61.7484 58.5534 61.7001 58.4968C61.6519 58.4403 61.138 58.1761 60.5581 57.9097C59.9783 57.6434 59.4249 57.3455 59.3283 57.248C59.2318 57.1504 58.656 56.812 58.0488 56.4962C57.4414 56.1802 56.651 55.6918 56.2922 55.4107C55.9333 55.1297 55.5799 54.8992 55.5067 54.8988C55.4337 54.8983 55.0233 54.5947 54.5949 54.2242C54.1665 53.8537 53.77 53.5504 53.7137 53.5503C53.5773 53.5501 51.3373 51.5889 51.3375 51.4698C51.3376 51.4187 51.0629 51.1753 50.7269 50.929C50.3908 50.6828 50.1125 50.4139 50.1083 50.3317C50.0978 50.1238 48.9535 49.0597 48.7402 49.0594C48.6444 49.0592 48.5206 48.9581 48.465 48.8348C48.2785 48.4196 47.5305 48.5773 46.9737 49.1493C46.373 49.7664 46.1433 50.435 45.9657 52.083C45.897 52.7211 45.7823 53.2735 45.7112 53.3109C45.6399 53.3482 45.3924 53.2058 45.161 52.9948C44.9298 52.7837 44.5033 52.5092 44.2133 52.3849C43.9234 52.2606 43.4096 51.9307 43.0716 51.6517C41.8998 50.6848 40.9226 49.9434 40.8119 49.9371C40.7509 49.9337 40.4271 49.7315 40.0927 49.4877C39.7584 49.244 39.3912 49.0444 39.2771 49.0442C39.1627 49.044 39.0279 48.9514 38.9771 48.8385C38.8799 48.6223 36.4421 47.6947 35.969 47.694C35.817 47.6937 35.693 47.6359 35.6931 47.5652C35.6936 47.3156 33.114 47.0524 31.5325 47.1407C29.003 47.282 28.4041 47.404 28.3386 47.7914C28.2787 48.1456 29.2989 49.9248 29.5623 49.9252C29.6479 49.9253 29.7885 50.0768 29.8745 50.2619C30.0341 50.6047 30.2794 50.8865 31.5902 52.2326C32.6198 53.2897 32.9567 53.5776 34.3608 54.5994C36.4584 56.1259 36.7421 56.3168 37.2272 56.5293C37.7439 56.7555 38.3128 57.232 38.3124 57.4384C38.3119 57.7041 37.7467 57.7391 36.6937 57.5389C36.0997 57.4259 35.5286 57.2657 35.4247 57.1829C35.3207 57.1001 35.0378 56.9575 34.7962 56.8661C34.5546 56.7747 34.0133 56.5552 33.5933 56.3785C33.1735 56.2018 32.7227 56.057 32.5915 56.0568C32.4603 56.0566 32.2901 55.963 32.2129 55.8488C32.0611 55.624 30.1045 54.8266 29.2583 54.6447C28.9715 54.583 28.6916 54.4702 28.6364 54.394C28.4399 54.1228 26.4962 53.8056 25.0161 53.8032C23.5179 53.8008 21.6117 54.1383 21.6111 54.4061C21.611 54.4824 21.512 54.5452 21.3911 54.5455C20.9287 54.5467 18.9853 55.531 18.5765 55.971C18.3918 56.1699 18.1467 56.3325 18.0318 56.3324C17.917 56.3322 17.5859 56.5655 17.2961 56.8509C17.0065 57.1365 16.6796 57.3713 16.5699 57.3728C16.4603 57.3744 16.0841 57.6443 15.7339 57.9724C15.3837 58.3006 15.0529 58.5691 14.9985 58.569C14.8943 58.5688 13.6823 59.3513 13.0777 59.8092C12.8806 59.9585 12.244 60.324 11.6631 60.6215C11.0822 60.9188 10.5276 61.238 10.4307 61.3308C10.3338 61.4235 9.73979 61.6867 9.11065 61.9158C8.48151 62.145 7.8382 62.4268 7.68111 62.5424C7.5242 62.6579 6.6207 62.9805 5.6735 63.259C4.72648 63.5377 3.90466 63.827 3.84719 63.9021C3.78971 63.9773 3.50533 64.0757 3.21507 64.121C2.92481 64.1661 2.37062 64.2816 1.98354 64.3777C1.59646 64.4736 1.02241 64.5864 0.708059 64.6283C0.0990685 64.7095 -0.069948 65.0878 0.364905 65.3956Z" fill="url(#paint0_linear_2761_3023)"/>
<path fill-rule="evenodd" clip-rule="evenodd" d="M26.6047 64.5748C27.282 64.4754 28.1224 64.3327 28.4723 64.2575C28.8222 64.1825 29.4291 64.1214 29.8209 64.1221C30.2345 64.1227 30.5641 64.045 30.6068 63.9365C30.7088 63.6776 39.9827 63.6826 40.6034 63.9418C40.8361 64.039 41.4353 64.1967 41.9351 64.2921C43.1032 64.5155 43.4772 64.7459 43.3258 65.1494C43.0076 65.9965 40.1585 66.3099 34.0759 66.1673C29.146 66.0518 25.7652 65.6798 25.0771 65.1775C24.7735 64.9557 24.7728 64.9378 25.0645 64.8491C25.2344 64.7975 25.9275 64.674 26.6047 64.5748Z" fill="url(#paint1_linear_2761_3023)"/>
<path fill-rule="evenodd" clip-rule="evenodd" d="M37.4511 93.3361C38.3414 94.0315 40.0816 94.871 41.2136 95.1512C41.7552 95.2851 42.4354 95.4861 42.7253 95.5978C43.5453 95.9135 44.2924 95.9988 46.9439 96.08C50.0707 96.1757 50.5417 96.0698 53.3531 94.6372C54.1412 94.2357 56.0133 92.2807 56.4546 91.3983C56.5881 91.1314 56.7686 90.9131 56.8555 90.9133C56.9425 90.9134 57.1558 90.6467 57.3297 90.3208C57.5033 89.9947 57.7932 89.6148 57.9735 89.4768C58.1537 89.3385 58.3015 89.1014 58.3018 88.9498C58.3021 88.7981 58.4143 88.6743 58.5515 88.6745C58.6885 88.6747 58.836 88.5908 58.8795 88.4882C58.9228 88.3855 59.0057 88.3384 59.0636 88.3835C59.1855 88.4779 58.7312 89.8312 58.4951 90.0777C58.2584 90.3246 57.0616 93.799 57.0607 94.2415C57.0603 94.4522 56.9669 94.6508 56.8532 94.6827C56.581 94.7594 56.5497 97.4723 56.8156 97.9564C56.9225 98.1512 57.1087 98.6805 57.2296 99.1327C57.505 100.163 58.2674 101.454 58.9695 102.079C59.2651 102.342 59.5069 102.612 59.5068 102.679C59.5067 102.746 59.724 102.935 59.9896 103.099C60.2552 103.263 60.6702 103.568 60.9116 103.778C61.4515 104.248 62.9495 104.97 63.3848 104.97C63.5614 104.971 63.7687 105.059 63.8459 105.166C63.9231 105.274 64.5925 105.51 65.3334 105.692C66.8921 106.074 68.1175 106.13 68.1181 105.82C68.1185 105.645 67.8382 104.971 67.2386 103.706C66.7038 102.578 66.5383 99.536 66.9138 97.7376C67.4674 95.0877 68.0746 93.0332 68.3539 92.8661C68.4299 92.8206 68.7689 92.1202 69.1073 91.3095C69.4456 90.4987 69.7939 89.7968 69.8812 89.7497C69.9685 89.7028 70.3384 89.131 70.7028 88.4795C71.0673 87.828 71.5208 87.1562 71.7105 86.9868C71.9 86.8173 72.2134 86.3973 72.4066 86.0535C72.5996 85.7095 72.9494 85.322 73.1836 85.1921C73.4177 85.0622 73.6106 84.8734 73.6119 84.7726C73.6133 84.6717 73.9108 84.3191 74.2728 83.9888C74.635 83.6587 75.2302 83.0795 75.5955 82.7019C76.4573 81.811 77.8471 80.6372 78.8727 79.9341C79.3207 79.6268 79.7666 79.2978 79.8635 79.2027C79.9604 79.1075 80.4754 78.7759 81.008 78.4656C81.5405 78.1553 82.0556 77.8229 82.1525 77.727C82.2494 77.6311 82.6994 77.3743 83.1523 77.1564C83.6054 76.9385 84.0807 76.6748 84.2086 76.5704C84.3366 76.4659 85.0353 76.1197 85.7613 75.8012C86.4873 75.4826 87.1079 75.1657 87.1402 75.0972C87.1727 75.0287 87.2725 74.9726 87.3622 74.9728C87.4519 74.9729 87.861 74.8448 88.2714 74.6879C88.6816 74.5311 89.3341 74.3165 89.7212 74.211C90.1083 74.1055 90.5439 73.9417 90.6892 73.8469C90.8344 73.7522 91.2304 73.6254 91.569 73.5651C91.9077 73.5049 92.5014 73.3943 92.8885 73.3195C93.9424 73.116 98.4678 72.6237 100.326 72.5105C101.224 72.4559 102.001 72.354 102.052 72.2841C102.103 72.2144 102.806 72.1583 103.614 72.1596C104.423 72.1609 105.21 72.1214 105.363 72.0717C105.788 71.9339 105.695 71.4844 105.203 71.2927C104.961 71.1987 104.763 71.0633 104.764 70.9915C104.764 70.8554 103.073 70.222 101.864 69.9056C101.477 69.8043 101.121 69.671 101.073 69.6093C100.901 69.3894 97.4797 68.8514 94.8589 68.632C90.6779 68.2822 86.4307 68.3492 81.3779 68.8448C79.0579 69.0723 76.3832 69.4517 76.1886 69.5808C76.0917 69.6451 75.6959 69.7449 75.3088 69.8024C74.9218 69.86 74.1697 70.0041 73.6375 70.1225C73.1053 70.241 72.1949 70.4435 71.6143 70.5726C71.0337 70.7017 70.4793 70.89 70.3824 70.9911C70.2855 71.0922 70.0083 71.2078 69.7664 71.2482C69.0001 71.3762 66.5184 72.1646 66.335 72.3382C66.2381 72.43 65.8025 72.6193 65.367 72.7591C64.9315 72.8989 64.0206 73.2908 63.3429 73.6303C62.6652 73.9696 61.7416 74.4039 61.2905 74.5952C60.8394 74.7865 60.4259 75.0408 60.3716 75.1604C60.3174 75.2798 60.1941 75.3775 60.0977 75.3774C59.8241 75.3769 58.4634 76.1454 57.7901 76.6805C57.4551 76.9467 57.1035 77.1648 57.0085 77.1649C56.8281 77.1654 56.5744 77.3665 54.0524 79.5083C51.7329 81.4782 50.5757 82.708 50.5747 83.2038C50.5745 83.329 50.4661 83.4313 50.3341 83.4311C50.202 83.4309 49.8451 83.9011 49.5414 84.4759C49.2375 85.0507 48.9095 85.5209 48.8124 85.5208C48.7153 85.5206 48.6357 85.6121 48.6354 85.724C48.6342 86.4096 46.001 90.2883 45.5325 90.2945C45.4266 90.2959 45.199 90.4289 45.0268 90.59C44.8545 90.7512 44.367 90.9948 43.9434 91.1316C43.5197 91.2683 43.1729 91.4305 43.1728 91.4919C43.1724 91.7014 40.9571 92.0553 38.9508 92.1664C36.5799 92.2977 36.3506 92.4766 37.4511 93.3361Z" fill="url(#paint2_linear_2761_3023)"/>
<path fill-rule="evenodd" clip-rule="evenodd" d="M37.917 37.3863C39.0657 37.3882 42.0977 37.6959 42.3053 37.8318C42.4023 37.8952 42.9165 38.0729 43.4482 38.2265C43.9799 38.3802 44.6521 38.6426 44.942 38.8096C45.6943 39.2431 47.137 40.5401 47.1365 40.7826C47.1363 40.8953 47.1973 40.9876 47.272 40.9877C47.4653 40.988 48.7147 43.1895 48.7141 43.5288C48.7139 43.6118 48.7822 43.6799 48.8659 43.6801C48.9496 43.6802 49.277 44.1873 49.5936 44.8071C49.9102 45.4268 50.2572 45.9822 50.3649 46.0411C50.4725 46.1002 50.7567 46.485 50.9964 46.8963C51.236 47.3076 51.7285 47.9103 52.0905 48.2356C52.4527 48.5611 52.7488 48.8852 52.7486 48.9559C52.7482 49.162 55.2385 51.2999 55.59 51.3953C55.7656 51.443 55.9092 51.548 55.9091 51.6285C55.9088 51.7932 56.7977 52.4973 57.0154 52.5049C57.0926 52.5077 57.4406 52.7457 57.7887 53.034C58.1367 53.3222 58.5008 53.5581 58.5977 53.5583C58.6946 53.5584 59.033 53.7271 59.3497 53.9331C59.6664 54.139 60.0012 54.3077 60.0941 54.3078C60.187 54.308 60.3008 54.3923 60.347 54.495C60.3933 54.5979 60.9513 54.9122 61.5874 55.1935C62.2235 55.4747 62.7845 55.795 62.834 55.9052C62.8836 56.0154 63.0378 56.1058 63.1767 56.106C63.3157 56.1062 63.773 56.251 64.1928 56.4277C64.6128 56.6044 65.154 56.8237 65.3957 56.915C65.6373 57.0064 65.8982 57.1653 65.9753 57.2683C66.0525 57.3714 66.255 57.4558 66.4255 57.4561C66.596 57.4564 67.0628 57.5916 67.4629 57.7566C67.863 57.9216 68.271 58.0568 68.3695 58.0569C68.4679 58.0571 68.9662 58.2191 69.4763 58.4172C69.9867 58.6151 70.7206 58.8563 71.1073 58.9531C72.6185 59.3318 75.1695 59.8534 75.5316 59.8577C75.741 59.8602 75.9387 59.9262 75.9709 60.0046C76.0536 60.2061 77.9083 60.4555 83.8733 61.067C86.0882 61.2941 92.896 61.2684 95.3725 61.0237C97.943 60.7698 100.98 60.2494 101.061 60.0494C101.093 59.9686 101.268 59.9029 101.45 59.9032C102.144 59.9043 105.313 58.7953 105.313 58.551C105.314 58.4873 105.472 58.3927 105.666 58.3409C106.039 58.2409 106.138 57.8993 105.84 57.7421C105.742 57.6904 104.467 57.5853 103.007 57.5087C101.546 57.4321 100.262 57.3086 100.152 57.2342C100.042 57.1596 99.3589 57.0583 98.6336 57.0092C97.2194 56.9133 95.3427 56.6928 94.0621 56.4726C91.8846 56.0979 91.4145 56 91.1246 55.8616C90.8542 55.7325 88.2574 54.932 87.3388 54.6946C87.1695 54.6508 87.0312 54.5653 87.0314 54.5046C87.0315 54.4438 86.4266 54.1356 85.6873 53.8194C84.9479 53.5034 84.1536 53.0952 83.9221 52.9122C83.6905 52.7292 83.2478 52.4757 82.9383 52.3486C82.6287 52.2217 82.1139 51.9121 81.7939 51.6607C81.4741 51.4093 81.158 51.2032 81.0913 51.2027C81.0249 51.2023 80.689 50.9831 80.3452 50.7158C80.0012 50.4485 79.3628 49.9821 78.9264 49.6791C78.2786 49.2297 76.0913 47.3823 75.3507 46.6589C74.6434 45.9684 73.7217 44.9223 73.518 44.5788C73.3839 44.3527 73.2123 44.1674 73.1365 44.1673C73.0607 44.1672 72.7168 43.7566 72.3722 43.255C72.0274 42.7534 71.6314 42.2458 71.4922 42.127C71.353 42.0082 70.9879 41.4594 70.681 40.9073C70.3741 40.3553 70.0574 39.8667 69.9773 39.8216C69.897 39.7765 69.5426 39.0699 69.1896 38.2513C68.8366 37.4327 68.492 36.7293 68.424 36.6881C68.356 36.6468 68.2548 36.445 68.1992 36.2394C68.1435 36.0338 68.0079 35.5965 67.8977 35.2676C67.1102 32.9154 66.7036 29.5407 67.0187 27.9722C67.3336 26.4051 67.9433 24.8573 68.4002 24.4651C68.6197 24.2767 68.7993 24.0567 68.7995 23.9763C68.7999 23.7516 68.0513 23.5593 67.4722 23.6356C66.4085 23.7757 65.1886 24.0239 65.0181 24.1348C64.9213 24.198 64.3498 24.418 63.7482 24.6237C62.6656 24.994 59.6494 26.7252 59.6489 26.9765C59.6487 27.1064 59.2814 27.5273 58.7541 28.002C58.0328 28.6515 57.1796 30.8048 57.1774 31.9818C57.1767 32.3275 57.0855 32.6359 56.975 32.667C56.8241 32.7095 56.8239 32.8035 56.9743 33.0432C57.0844 33.219 57.1739 33.8018 57.1729 34.3383C57.1719 34.8746 57.3289 35.9047 57.5217 36.6274C57.843 37.8311 58.0217 38.295 58.6615 39.5864C59.1676 40.6082 59.2545 40.7994 59.369 41.1459L59.4891 41.5091L58.9668 41.1453C58.3993 40.7502 58.3688 40.7117 57.6262 39.4599C57.3498 38.9938 57.0561 38.6125 56.9735 38.6123C56.891 38.6122 56.6163 38.2383 56.363 37.7817C56.1097 37.3249 55.7522 36.8711 55.5685 36.7731C55.3845 36.6752 55.2343 36.5103 55.2345 36.4068C55.2347 36.3033 55.1754 36.2173 55.1029 36.2157C55.0305 36.2141 54.4731 35.8102 53.8645 35.318C53.2559 34.8259 52.5445 34.3778 52.2836 34.3222C52.0227 34.2667 51.5533 34.099 51.2404 33.9496C49.8101 33.267 45.3286 33.183 43.7204 33.8086C43.5268 33.8839 43.0391 34.0161 42.6363 34.1023C41.6597 34.3113 39.9371 34.9856 39.9368 35.159C39.9366 35.2352 39.8178 35.2973 39.6727 35.2971C39.5276 35.2968 39.4088 35.3639 39.4086 35.4461C39.4085 35.5283 39.27 35.5974 39.1006 35.5998C38.7643 35.6043 37.8244 36.2414 37.8239 36.4649C37.8238 36.5416 37.6653 36.6391 37.4718 36.6818C37.2612 36.7282 37.1197 36.885 37.1193 37.0721C37.1188 37.3438 37.2241 37.3852 37.917 37.3863Z" fill="url(#paint3_linear_2761_3023)"/>
<path fill-rule="evenodd" clip-rule="evenodd" d="M77.3614 109.924C77.398 110.294 77.504 111.366 77.5966 112.305C77.6893 113.245 77.8458 114.082 77.9445 114.166C78.0432 114.25 78.1235 114.465 78.1231 114.644C78.1217 115.38 79.2916 118.744 79.549 118.744C79.631 118.745 79.698 118.808 79.6979 118.886C79.6974 119.151 80.9983 121.361 81.2254 121.482C81.3496 121.548 81.4512 121.688 81.451 121.793C81.4508 121.899 81.7631 122.274 82.1451 122.627C82.5271 122.98 82.8629 123.323 82.8911 123.389C83.1324 123.957 86.9908 126.915 87.6841 127.064C87.9283 127.117 88.1862 127.247 88.2574 127.353C88.3959 127.56 90.6213 128.475 90.9882 128.476C91.1092 128.476 91.3644 128.568 91.5548 128.681C91.7454 128.793 92.4551 129.011 93.1319 129.165C94.9504 129.577 100.804 129.585 102.804 129.177C103.578 129.02 104.251 128.843 104.3 128.786C104.348 128.728 104.705 128.57 105.092 128.434C106.657 127.887 107.468 127.547 107.468 127.437C107.468 127.373 107.765 127.203 108.128 127.059C109.289 126.597 112.163 124.257 112.736 123.307C112.932 122.981 113.225 122.603 113.386 122.467C113.77 122.142 114.869 119.462 114.871 118.849C114.871 118.586 114.951 118.329 115.047 118.278C115.148 118.226 115.225 117.458 115.227 116.485C115.229 115.513 115.155 114.745 115.054 114.692C114.958 114.641 114.879 114.399 114.879 114.153C114.881 113.404 114.028 111.404 113.295 110.437C112.914 109.934 112.602 109.457 112.602 109.377C112.602 109.297 112.065 108.777 111.408 108.222C109.435 106.555 109.142 106.364 108.631 106.415C108.219 106.457 108.13 106.574 107.857 107.433C107.436 108.761 107.265 109.091 106.542 109.961C106.198 110.376 105.917 110.767 105.917 110.832C105.916 110.97 103.986 112.677 103.094 113.328C102.269 113.93 101.562 114.238 99.8033 114.762C98.0882 115.274 96.0418 115.367 95.104 114.977C94.8081 114.853 94.0125 114.542 93.336 114.285C92.6594 114.027 91.9478 113.668 91.7547 113.487C91.5616 113.305 91.1073 112.968 90.7449 112.739C90.3827 112.509 90.086 112.24 90.0857 112.141C90.0855 112.043 89.8288 111.729 89.5155 111.444C89.2021 111.159 88.8611 110.789 88.7576 110.621C88.6542 110.453 88.4859 110.181 88.3836 110.017C88.2814 109.852 88.09 109.516 87.9584 109.269C87.8268 109.022 87.6541 108.78 87.5745 108.73C87.4949 108.68 87.3604 108.411 87.2754 108.132C87.1905 107.852 87.0005 107.22 86.853 106.727C86.3242 104.956 86.1912 102.659 86.4876 100.413C86.7745 98.2396 87.3958 95.4402 87.6217 95.3034C87.6957 95.2585 88.0263 94.5313 88.3562 93.6873C88.6861 92.8433 89.061 92.0792 89.189 91.9892C89.3168 91.8993 89.4217 91.7567 89.4219 91.6721C89.4225 91.3796 90.3755 89.8424 91.1316 88.9145C91.5492 88.4018 91.8911 87.9118 91.8913 87.8254C91.8914 87.7392 92.0855 87.5043 92.3224 87.3037C92.5595 87.1029 92.9909 86.6465 93.2812 86.2894C93.9013 85.5263 98.6124 81.4167 98.8665 81.4171C98.9622 81.4172 99.3906 81.1153 99.8185 80.7462C100.246 80.377 100.657 80.0751 100.731 80.0752C100.806 80.0753 101.531 79.673 102.343 79.1812C103.156 78.6893 103.895 78.2871 103.987 78.2872C104.079 78.2874 104.307 78.1665 104.495 78.0186C104.916 77.6869 107.206 76.6486 107.514 76.6491C107.639 76.6493 107.74 76.5898 107.74 76.5168C107.741 76.3797 110.305 75.4559 110.679 75.458C110.795 75.4586 110.954 75.3701 111.031 75.2613C111.109 75.1525 111.311 75.0204 111.48 74.9678C111.65 74.9151 111.789 74.7332 111.789 74.5634C111.789 74.2798 111.714 74.2615 110.866 74.3381C109.722 74.4415 108.183 74.68 107.467 74.8648C107.17 74.9416 106.8 75.0042 106.646 75.0039C106.491 75.0037 106.141 75.0972 105.867 75.2119C105.593 75.3265 105.052 75.4985 104.665 75.5941C103.617 75.8532 102.038 76.382 101.934 76.5088C101.884 76.57 101.23 76.8624 100.482 77.1589C99.7333 77.4554 99.1207 77.7615 99.1206 77.8392C99.1204 77.9169 99.0165 77.9804 98.8897 77.9802C98.7628 77.98 98.4993 78.1058 98.3041 78.2599C98.1088 78.4138 97.7749 78.5866 97.562 78.6436C97.3489 78.7007 96.8797 78.9768 96.5191 79.2572C96.1584 79.5377 95.7799 79.7674 95.6779 79.7675C95.5759 79.7678 95.2104 79.9867 94.8657 80.2541C94.5209 80.5215 93.8517 80.9938 93.3784 81.3037C91.6412 82.4415 87.5534 86.007 86.0881 87.6625C85.8458 87.9362 85.5088 88.2958 85.3392 88.4615C85.1695 88.6273 85.0307 88.8197 85.0306 88.889C85.0305 88.9583 84.7655 89.2671 84.4421 89.575C84.1184 89.8829 83.6227 90.502 83.3403 90.9507C83.0579 91.3995 82.7245 91.8605 82.5994 91.9751C82.4743 92.0897 82.1394 92.5959 81.855 93.0997C81.5707 93.6038 81.2592 94.1169 81.1629 94.24C80.868 94.6168 80.3684 95.6122 80.0014 96.5543C79.8093 97.0472 79.5999 97.4839 79.5363 97.5249C79.2842 97.6871 78.1494 101.793 78.1466 102.554C78.1459 102.732 78.0705 102.9 77.979 102.927C77.6788 103.016 77.2066 108.365 77.3614 109.924Z" fill="url(#paint4_linear_2761_3023)"/>
<path fill-rule="evenodd" clip-rule="evenodd" d="M77.5263 22.8804C77.7381 25.2959 77.9709 27.0685 78.0948 27.2064C78.1729 27.2935 78.3715 28.0036 78.5364 28.7846C78.7013 29.5657 78.9029 30.3729 78.9843 30.5785C79.0658 30.7841 79.2352 31.2719 79.3607 31.6625C79.4862 32.0532 79.6446 32.3728 79.7124 32.3729C79.7803 32.373 79.8874 32.5742 79.9504 32.82C80.0135 33.0656 80.138 33.3052 80.2273 33.3522C80.3165 33.3992 80.3892 33.5714 80.3889 33.7349C80.3886 33.8984 80.5461 34.3108 80.7389 34.6513C80.9317 34.9919 81.0892 35.3587 81.089 35.4666C81.0888 35.5745 81.1499 35.6628 81.2246 35.6629C81.3577 35.6631 81.4982 35.8794 82.3384 37.3775C82.5673 37.7856 82.889 38.2491 83.0531 38.4074C83.2173 38.5658 83.479 38.9246 83.6348 39.2047C83.7906 39.4849 84.1381 39.9301 84.4072 40.1945C84.6763 40.4586 84.9276 40.7534 84.9659 40.8497C85.0897 41.1613 87.1199 43.3362 87.8876 43.9795C88.2981 44.3234 88.6337 44.6526 88.6336 44.7108C88.6334 44.8343 90.5812 46.4472 92.1652 47.6351C92.7693 48.0881 93.4314 48.5935 93.6366 48.7582C93.8419 48.9229 94.3821 49.2936 94.8373 49.582C95.2922 49.8704 95.8729 50.2522 96.1274 50.4305C96.3821 50.6088 97.0129 50.9434 97.5295 51.174C98.0461 51.4048 98.4688 51.6459 98.4687 51.7101C98.4686 51.774 99.1528 52.1027 99.9892 52.4404C100.826 52.778 101.608 53.1377 101.727 53.2397C101.847 53.3416 102.764 53.6569 103.765 53.9403C104.767 54.2239 105.628 54.5039 105.68 54.5627C105.862 54.7689 108.765 55.2861 110.288 55.3834C111.545 55.4639 111.826 55.4435 111.821 55.2727C111.814 55.0596 110.562 54.2396 110.242 54.2391C110.145 54.239 109.929 54.1768 109.761 54.1009C109.593 54.025 108.981 53.8112 108.401 53.6259C107.821 53.4407 107.255 53.2294 107.143 53.1565C107.031 53.0837 106.349 52.768 105.628 52.4551C104.907 52.1423 104.149 51.753 103.944 51.5899C103.739 51.4267 103.234 51.1463 102.823 50.9667C102.412 50.7871 101.846 50.438 101.564 50.1908C101.282 49.9436 100.973 49.7413 100.877 49.7411C100.513 49.7405 94.7353 45.0534 94.5557 44.6129C94.4968 44.4689 94.3423 44.351 94.212 44.3508C94.0817 44.3506 93.7999 44.0846 93.5858 43.7599C93.3718 43.4349 92.9624 42.9806 92.676 42.7502C92.3897 42.5197 92.1555 42.2865 92.1556 42.232C92.1557 42.1775 91.7219 41.5713 91.1917 40.885C90.6616 40.1988 90.2258 39.5364 90.2234 39.4131C90.221 39.2898 90.0647 39.0206 89.8758 38.8148C89.687 38.6091 89.531 38.3566 89.529 38.2539C89.5271 38.1511 89.448 38.067 89.353 38.0668C89.2582 38.0667 89.1267 37.8815 89.0608 37.6554C88.9951 37.4294 88.7178 36.7808 88.4447 36.2142C88.1716 35.6477 87.9485 35.059 87.9488 34.9059C87.949 34.7529 87.8767 34.6275 87.788 34.6274C87.6345 34.6271 87.5376 34.3263 86.9716 32.0894C86.4926 30.1962 86.303 27.3099 86.5384 25.493C86.7531 23.8365 87.3494 21.5622 87.6565 21.2288C87.7443 21.1336 88.1207 20.5486 88.493 19.9289C88.8654 19.3092 89.4958 18.514 89.8941 18.162C90.2924 17.8098 90.6582 17.4187 90.7072 17.2927C90.7559 17.1668 91.014 16.9525 91.2803 16.8165C91.5466 16.6805 91.9627 16.4138 92.2049 16.224C93.1862 15.4542 94.4319 14.9941 96.0148 14.8169C96.4841 14.7643 96.9215 14.652 96.9869 14.5674C97.0682 14.4618 97.1792 14.4631 97.3386 14.5714C97.4667 14.6583 98.0545 14.7749 98.645 14.8304C99.2354 14.8858 100.127 15.0588 100.626 15.2147C101.541 15.5006 104.514 17.095 104.513 17.2996C104.513 17.3602 104.867 17.7096 105.3 18.076C105.732 18.4423 106.088 18.7939 106.09 18.8573C106.093 18.9701 106.962 20.1646 107.149 20.3128C107.391 20.5049 108.069 22.1391 108.281 23.0418C108.409 23.5895 108.899 23.5786 109.64 23.0114C109.958 22.768 110.495 22.4138 110.832 22.2243C111.17 22.0349 111.533 21.7326 111.639 21.5528C111.745 21.3729 112.023 21.0959 112.258 20.937C112.493 20.7782 112.881 20.3229 113.121 19.9252C113.361 19.5276 113.659 19.1487 113.782 19.0831C113.906 19.0176 114.007 18.8369 114.007 18.6814C114.008 18.526 114.075 18.3635 114.158 18.3204C114.24 18.2772 114.483 17.6852 114.697 17.0049C114.911 16.3244 115.162 15.5614 115.254 15.3091C115.479 14.6934 115.477 11.2542 115.253 11.1356C115.156 11.0847 115.077 10.8894 115.078 10.7017C115.079 10.1534 114.024 7.69908 113.69 7.472C113.63 7.43081 113.312 7.01385 112.983 6.5456C112.656 6.07719 112.164 5.55324 111.891 5.38125C111.618 5.20926 111.395 5.00014 111.395 4.91676C111.396 4.71906 110.587 4.03006 110.354 4.02969C110.255 4.02953 110.052 3.8711 109.904 3.67749C109.755 3.48389 109.282 3.17156 108.854 2.98318C108.425 2.79496 107.91 2.51083 107.71 2.35166C107.509 2.19264 106.814 1.86009 106.165 1.61263C105.515 1.36532 104.746 1.07088 104.456 0.958639C103.856 0.726055 103.121 0.544369 101.732 0.284668C100.561 0.0658137 95.2129 0.148409 93.9056 0.405431C93.4217 0.500592 92.8081 0.616146 92.5421 0.662492C92.2761 0.708838 92.0582 0.800988 92.0581 0.867187C92.058 0.933535 91.6421 1.10367 91.1341 1.24556C90.0893 1.53723 88.9141 2.02311 88.5738 2.30409C88.4482 2.40775 88.0879 2.59603 87.7732 2.7224C86.3499 3.29349 82.6143 6.44398 81.8428 7.72369C81.6461 8.05004 81.425 8.31689 81.3515 8.31677C81.2782 8.31665 80.9572 8.80359 80.6383 9.39902C80.3192 9.99445 79.9862 10.5822 79.8982 10.7054C79.4401 11.3466 79.1799 11.9701 78.7676 13.4137C78.5181 14.2875 78.3138 15.131 78.3135 15.2884C78.3132 15.4457 78.2365 15.6391 78.1433 15.718C77.7991 16.0094 77.3654 21.0445 77.5263 22.8804Z" fill="url(#paint5_linear_2761_3023)"/>
<path fill-rule="evenodd" clip-rule="evenodd" d="M421.634 65.587C421.421 65.7378 420.156 66.0731 418.7 66.3643C417.557 66.5931 416.766 66.8276 416.767 66.9381C416.767 66.9984 416.391 67.1399 415.932 67.2526C415.473 67.3653 414.785 67.5829 414.405 67.7361C414.024 67.8893 413.615 68.0147 413.495 68.0149C413.375 68.0151 413.16 68.1145 413.018 68.2357C412.72 68.4897 411.029 69.3394 410.572 69.4649C410.403 69.5113 410.265 69.5975 410.265 69.6563C410.265 69.7154 409.819 70.0257 409.273 70.3461C408.728 70.6664 408.06 71.0989 407.789 71.3072C407.518 71.5155 406.855 71.9892 406.316 72.3599C405.778 72.7307 405.026 73.2865 404.647 73.5954C404.267 73.9042 403.894 74.1597 403.817 74.1633C403.741 74.1667 403.405 74.3689 403.07 74.6128C402.736 74.8564 402.369 75.0561 402.255 75.0562C402.14 75.0564 402.005 75.1503 401.953 75.2649C401.827 75.5471 400.118 76.2221 399.217 76.3461C398.816 76.4013 398.445 76.505 398.393 76.5764C398.27 76.7459 395.907 76.7496 395.783 76.5807C395.731 76.5093 395.306 76.4086 394.838 76.3566C394.087 76.273 393.355 76.0807 391.59 75.5024C391.324 75.4151 391.106 75.283 391.106 75.2089C391.106 75.1348 390.968 75.0728 390.798 75.0713C390.629 75.0698 390.292 74.9373 390.05 74.7769C389.808 74.6165 389.508 74.484 389.384 74.4824C389.173 74.4796 388.311 74.0703 388.114 73.8794C388.066 73.8324 387.551 73.6024 386.97 73.3682C385.692 72.8532 383.891 72.6651 383.892 73.0469C383.892 73.1781 384.11 73.4021 384.376 73.5445C387.225 75.0687 390.614 77.8971 392.433 80.2694C393.518 81.6852 393.898 82.4823 393.604 82.7324C393.479 82.839 392.294 82.8964 390.2 82.8969C387.339 82.8978 386.883 82.8631 386.028 82.579C385.501 82.4035 385.001 82.1585 384.919 82.0345C384.837 81.9103 384.658 81.8089 384.521 81.8092C384.024 81.81 382.373 80.8287 380.742 79.5628C380.364 79.2699 379.724 78.8361 379.32 78.5991C378.916 78.362 378.545 78.0783 378.495 77.9687C378.402 77.7626 376.621 76.7411 376.356 76.7415C376.274 76.7416 376.171 77.4312 376.127 78.2736C376.042 79.927 375.675 80.8295 374.902 81.2917C374.245 81.6838 373.823 81.5759 373.051 80.8189C372.654 80.429 372.025 79.8374 371.653 79.504C369.274 77.3711 368.599 76.7288 368.598 76.6002C368.598 76.5204 368.493 76.4553 368.364 76.4555C368.234 76.4557 367.769 76.1371 367.328 75.7473C366.35 74.8817 365.409 74.2251 365.141 74.2218C365.031 74.2205 364.823 74.0663 364.678 73.879C364.533 73.6919 364.041 73.3763 363.585 73.1778C363.129 72.9794 362.584 72.6641 362.375 72.4771C362.166 72.2902 361.915 72.1363 361.816 72.135C361.718 72.1338 361.346 71.965 360.989 71.7601C360.633 71.5552 360.239 71.3866 360.112 71.3854C359.986 71.3841 359.697 71.2165 359.468 71.0129C359.24 70.8091 358.942 70.6427 358.806 70.6429C358.67 70.6431 358.421 70.5793 358.252 70.5009C357.29 70.0528 355.109 69.2769 353.811 68.9211C352.989 68.6956 352.276 68.4645 352.228 68.4076C352.179 68.3506 351.229 68.1248 350.116 67.9059C349.004 67.687 347.85 67.4442 347.553 67.3664C347.256 67.2885 346.8 67.2252 346.541 67.2256C346.282 67.226 346.07 67.1651 346.07 67.09C346.07 67.015 345.733 66.9108 345.322 66.8584C344.911 66.8061 344.159 66.7004 343.651 66.6238C341.266 66.2642 340.767 66.1994 339.121 66.0377C338.154 65.9424 336.967 65.7726 336.483 65.6601C335.999 65.5476 335.366 65.4379 335.075 65.4163C334.681 65.3869 334.548 65.3016 334.547 65.078C334.547 64.7632 334.623 64.7465 337.36 64.4631C337.94 64.403 338.46 64.2947 338.516 64.2226C338.572 64.1505 339.204 64.0247 339.922 63.9431C341.634 63.7487 343.093 63.5532 344.392 63.3445C344.972 63.2514 345.763 63.1348 346.15 63.0856C346.537 63.0364 346.893 62.9458 346.941 62.8843C346.99 62.823 347.86 62.6238 348.875 62.4416C351.442 61.9813 352.616 61.7113 352.731 61.5545C352.786 61.4809 353.186 61.334 353.621 61.2282C354.056 61.1223 354.487 60.9798 354.579 60.9113C354.671 60.8428 354.878 60.7866 355.041 60.7863C355.337 60.7859 356.292 60.4571 356.784 60.1862C356.929 60.1065 357.76 59.76 358.63 59.4161C359.499 59.0723 360.251 58.7448 360.299 58.6882C360.347 58.6317 360.861 58.3676 361.441 58.1011C362.021 57.8348 362.574 57.5369 362.671 57.4394C362.767 57.3418 363.343 57.0034 363.95 56.6876C364.558 56.3716 365.348 55.8832 365.707 55.6021C366.066 55.3211 366.419 55.0907 366.492 55.0902C366.565 55.0897 366.976 54.7861 367.404 54.4156C367.833 54.0451 368.229 53.7418 368.285 53.7417C368.422 53.7415 370.662 51.7803 370.661 51.6613C370.661 51.6101 370.936 51.3667 371.272 51.1204C371.608 50.8742 371.886 50.6053 371.891 50.5231C371.901 50.3153 373.046 49.2511 373.259 49.2508C373.355 49.2506 373.478 49.1495 373.534 49.0262C373.72 48.611 374.469 48.7687 375.025 49.3407C375.626 49.9578 375.856 50.6265 376.033 52.2744C376.102 52.9125 376.217 53.465 376.288 53.5023C376.359 53.5396 376.607 53.3973 376.838 53.1862C377.069 52.9751 377.496 52.7007 377.786 52.5763C378.076 52.452 378.589 52.1221 378.927 51.8431C380.099 50.8762 381.076 50.1348 381.187 50.1285C381.248 50.1251 381.572 49.9229 381.906 49.6791C382.241 49.4354 382.608 49.2358 382.722 49.2356C382.836 49.2354 382.971 49.1428 383.022 49.0299C383.119 48.8137 385.557 47.8861 386.03 47.8854C386.182 47.8851 386.306 47.8273 386.306 47.7566C386.305 47.507 388.885 47.2438 390.467 47.3321C392.996 47.4734 393.595 47.5954 393.66 47.9828C393.72 48.337 392.7 50.1162 392.437 50.1166C392.351 50.1168 392.21 50.2682 392.124 50.4533C391.965 50.7961 391.72 51.0779 390.409 52.424C389.379 53.4811 389.042 53.769 387.638 54.7908C385.541 56.3174 385.257 56.5082 384.772 56.7207C384.255 56.9469 383.686 57.4235 383.687 57.6298C383.687 57.8955 384.252 57.9305 385.305 57.7303C385.899 57.6173 386.47 57.4571 386.574 57.3743C386.678 57.2915 386.961 57.1489 387.203 57.0575C387.444 56.9661 387.986 56.7467 388.406 56.5699C388.825 56.3932 389.276 56.2485 389.408 56.2482C389.539 56.248 389.709 56.1544 389.786 56.0402C389.938 55.8154 391.895 55.018 392.741 54.8361C393.027 54.7744 393.307 54.6616 393.363 54.5854C393.559 54.3142 395.503 53.997 396.983 53.9946C398.481 53.9922 400.387 54.3297 400.388 54.5975C400.388 54.6739 400.487 54.7366 400.608 54.7369C401.07 54.7381 403.014 55.7224 403.423 56.1624C403.607 56.3613 403.852 56.524 403.967 56.5238C404.082 56.5236 404.413 56.7569 404.703 57.0423C404.993 57.3279 405.319 57.5627 405.429 57.5642C405.539 57.5658 405.915 57.8357 406.265 58.1639C406.615 58.492 406.946 58.7605 407 58.7604C407.105 58.7602 408.317 59.5427 408.921 60.0006C409.118 60.1499 409.755 60.5154 410.336 60.8129C410.917 61.1102 411.471 61.4294 411.568 61.5222C411.665 61.6149 412.259 61.8781 412.888 62.1072C413.518 62.3364 414.161 62.6182 414.318 62.7338C414.475 62.8493 415.378 63.1719 416.326 63.4504C417.273 63.7291 418.094 64.0184 418.152 64.0935C418.209 64.1687 418.494 64.2671 418.784 64.3124C419.074 64.3575 419.628 64.473 420.015 64.5691C420.403 64.665 420.977 64.7778 421.291 64.8197C421.9 64.9009 422.069 65.2792 421.634 65.587Z" fill="url(#paint6_linear_2761_3023)"/>
<path fill-rule="evenodd" clip-rule="evenodd" d="M395.394 64.7672C394.717 64.6678 393.877 64.5251 393.527 64.4499C393.177 64.3748 392.57 64.3138 392.178 64.3145C391.764 64.3151 391.435 64.2373 391.392 64.1289C391.29 63.87 382.016 63.875 381.396 64.1342C381.163 64.2314 380.564 64.3891 380.064 64.4845C378.896 64.7078 378.522 64.9383 378.673 65.3418C378.991 66.1889 381.84 66.5023 387.923 66.3597C392.853 66.2442 396.234 65.8722 396.922 65.3699C397.226 65.1481 397.226 65.1302 396.934 65.0414C396.765 64.9899 396.072 64.8663 395.394 64.7672Z" fill="url(#paint7_linear_2761_3023)"/>
<path fill-rule="evenodd" clip-rule="evenodd" d="M384.548 93.528C383.658 94.2234 381.917 95.0629 380.785 95.3431C380.244 95.477 379.564 95.678 379.274 95.7897C378.454 96.1054 377.707 96.1907 375.055 96.2719C371.928 96.3676 371.457 96.2617 368.646 94.8291C367.858 94.4276 365.986 92.4726 365.544 91.5902C365.411 91.3233 365.23 91.105 365.144 91.1051C365.056 91.1053 364.843 90.8386 364.669 90.5127C364.496 90.1866 364.206 89.8067 364.026 89.6686C363.845 89.5304 363.698 89.2933 363.697 89.1417C363.697 88.99 363.585 88.8661 363.448 88.8664C363.311 88.8666 363.163 88.7827 363.12 88.6801C363.076 88.5774 362.993 88.5303 362.935 88.5753C362.814 88.6698 363.268 90.0231 363.504 90.2696C363.741 90.5165 364.937 93.9909 364.938 94.4334C364.939 94.6441 365.032 94.8427 365.146 94.8746C365.418 94.9513 365.449 97.6642 365.183 98.1483C365.077 98.3431 364.89 98.8724 364.769 99.3246C364.494 100.355 363.732 101.646 363.03 102.271C362.734 102.534 362.492 102.804 362.492 102.871C362.492 102.938 362.275 103.127 362.009 103.291C361.744 103.455 361.329 103.76 361.087 103.97C360.548 104.44 359.049 105.162 358.614 105.162C358.438 105.163 358.23 105.251 358.153 105.358C358.076 105.466 357.407 105.702 356.666 105.884C355.107 106.266 353.881 106.322 353.881 106.012C353.881 105.837 354.161 105.163 354.76 103.898C355.295 102.77 355.461 99.7279 355.085 97.9295C354.532 95.2796 353.924 93.2251 353.645 93.058C353.569 93.0125 353.23 92.3121 352.892 91.5014C352.553 90.6906 352.205 89.9887 352.118 89.9416C352.031 89.8947 351.661 89.3229 351.296 88.6714C350.932 88.0199 350.478 87.3481 350.289 87.1787C350.099 87.0092 349.786 86.5892 349.592 86.2454C349.399 85.9014 349.05 85.5139 348.815 85.384C348.581 85.254 348.388 85.0653 348.387 84.9645C348.386 84.8636 348.088 84.511 347.726 84.1807C347.364 83.8506 346.769 83.2714 346.404 82.8938C345.542 82.0029 344.152 80.8291 343.126 80.126C342.678 79.8187 342.232 79.4897 342.136 79.3946C342.039 79.2994 341.524 78.9678 340.991 78.6575C340.458 78.3472 339.943 78.0148 339.847 77.9189C339.75 77.823 339.3 77.5662 338.847 77.3483C338.394 77.1304 337.918 76.8667 337.79 76.7623C337.662 76.6578 336.964 76.3116 336.238 75.9931C335.512 75.6745 334.891 75.3576 334.859 75.2891C334.826 75.2206 334.727 75.1645 334.637 75.1647C334.547 75.1648 334.138 75.0367 333.728 74.8798C333.317 74.723 332.665 74.5084 332.278 74.4029C331.891 74.2974 331.455 74.1336 331.31 74.0388C331.165 73.9441 330.769 73.8173 330.43 73.757C330.091 73.6967 329.498 73.5862 329.111 73.5114C328.057 73.3079 323.531 72.8156 321.673 72.7024C320.775 72.6478 319.998 72.5459 319.947 72.476C319.896 72.4063 319.193 72.3502 318.385 72.3515C317.576 72.3528 316.789 72.3133 316.636 72.2636C316.211 72.1258 316.304 71.6763 316.796 71.4846C317.038 71.3906 317.236 71.2552 317.235 71.1834C317.235 71.0473 318.926 70.4138 320.135 70.0975C320.522 69.9962 320.878 69.8629 320.926 69.8012C321.098 69.5813 324.519 69.0432 327.14 68.8239C331.321 68.4741 335.568 68.5411 340.621 69.0367C342.941 69.2641 345.616 69.6436 345.81 69.7727C345.907 69.837 346.303 69.9368 346.69 69.9943C347.077 70.0519 347.829 70.196 348.361 70.3144C348.894 70.4329 349.804 70.6354 350.385 70.7645C350.965 70.8936 351.52 71.0819 351.617 71.183C351.714 71.2841 351.991 71.3997 352.233 71.4401C352.999 71.5681 355.481 72.3565 355.664 72.5301C355.761 72.6218 356.197 72.8112 356.632 72.951C357.068 73.0908 357.978 73.4827 358.656 73.8222C359.334 74.1615 360.257 74.5958 360.708 74.7871C361.16 74.9784 361.573 75.2327 361.627 75.3523C361.682 75.4717 361.805 75.5694 361.901 75.5693C362.175 75.5688 363.536 76.3373 364.209 76.8724C364.544 77.1386 364.896 77.3567 364.991 77.3568C365.171 77.3573 365.425 77.5584 367.947 79.7002C370.266 81.6701 371.423 82.8999 371.424 83.3957C371.425 83.5209 371.533 83.6232 371.665 83.623C371.797 83.6228 372.154 84.093 372.458 84.6678C372.762 85.2426 373.09 85.7128 373.187 85.7127C373.284 85.7125 373.363 85.804 373.364 85.9159C373.365 86.6015 375.998 90.4801 376.467 90.4864C376.572 90.4877 376.8 90.6208 376.972 90.7819C377.144 90.9431 377.632 91.1867 378.056 91.3235C378.479 91.4602 378.826 91.6224 378.826 91.6838C378.827 91.8933 381.042 92.2472 383.048 92.3583C385.419 92.4896 385.648 92.6685 384.548 93.528Z" fill="url(#paint8_linear_2761_3023)"/>
<path fill-rule="evenodd" clip-rule="evenodd" d="M384.081 37.5782C382.932 37.5801 379.9 37.8878 379.693 38.0237C379.596 38.0871 379.082 38.2648 378.55 38.4184C378.018 38.5721 377.346 38.8345 377.056 39.0015C376.304 39.435 374.861 40.732 374.862 40.9745C374.862 41.0872 374.801 41.1795 374.726 41.1796C374.533 41.1799 373.283 43.3814 373.284 43.7206C373.284 43.8037 373.216 43.8718 373.132 43.872C373.048 43.8721 372.721 44.3792 372.404 44.999C372.088 45.6187 371.741 46.1741 371.633 46.233C371.525 46.2921 371.241 46.6769 371.002 47.0882C370.762 47.4995 370.27 48.1022 369.908 48.4275C369.545 48.753 369.249 49.0771 369.249 49.1478C369.25 49.3539 366.76 51.4918 366.408 51.5872C366.232 51.6349 366.089 51.7399 366.089 51.8204C366.089 51.9851 365.2 52.6891 364.983 52.6968C364.905 52.6996 364.557 52.9376 364.209 53.2259C363.861 53.5141 363.497 53.75 363.4 53.7502C363.303 53.7503 362.965 53.919 362.648 54.125C362.332 54.3309 361.997 54.4996 361.904 54.4997C361.811 54.4999 361.697 54.5842 361.651 54.6869C361.605 54.7898 361.047 55.1041 360.411 55.3854C359.775 55.6666 359.214 55.9869 359.164 56.0971C359.114 56.2073 358.96 56.2976 358.821 56.2979C358.682 56.2981 358.225 56.4429 357.805 56.6196C357.385 56.7963 356.844 57.0156 356.602 57.1069C356.361 57.1983 356.1 57.3572 356.023 57.4602C355.946 57.5633 355.743 57.6477 355.572 57.648C355.402 57.6483 354.935 57.7835 354.535 57.9485C354.135 58.1135 353.727 58.2487 353.629 58.2488C353.53 58.249 353.032 58.411 352.522 58.6091C352.011 58.807 351.277 59.0482 350.891 59.145C349.38 59.5237 346.829 60.0453 346.466 60.0496C346.257 60.0521 346.059 60.1181 346.027 60.1965C345.944 60.398 344.09 60.6474 338.125 61.2589C335.91 61.486 329.102 61.4603 326.626 61.2156C324.055 60.9617 321.018 60.4413 320.938 60.2413C320.905 60.1605 320.73 60.0948 320.548 60.0951C319.854 60.0962 316.685 58.9872 316.685 58.7429C316.685 58.6792 316.526 58.5846 316.333 58.5328C315.959 58.4328 315.86 58.0912 316.158 57.934C316.256 57.8822 317.531 57.7772 318.991 57.7006C320.452 57.624 321.736 57.5005 321.846 57.426C321.956 57.3515 322.639 57.2502 323.364 57.2011C324.779 57.1051 326.655 56.8847 327.936 56.6645C330.113 56.2898 330.584 56.1919 330.873 56.0535C331.144 55.9244 333.741 55.1239 334.659 54.8865C334.829 54.8427 334.967 54.7572 334.967 54.6965C334.967 54.6357 335.571 54.3275 336.311 54.0113C337.05 53.6953 337.844 53.2871 338.076 53.1041C338.308 52.9211 338.75 52.6676 339.06 52.5405C339.369 52.4136 339.884 52.104 340.204 51.8526C340.524 51.6012 340.84 51.3951 340.907 51.3946C340.973 51.3942 341.309 51.175 341.653 50.9077C341.997 50.6404 342.635 50.174 343.072 49.871C343.719 49.4215 345.907 47.5742 346.647 46.8508C347.355 46.1603 348.276 45.1141 348.48 44.7707C348.614 44.5446 348.786 44.3593 348.862 44.3592C348.937 44.359 349.281 43.9485 349.626 43.4469C349.971 42.9453 350.367 42.4377 350.506 42.3189C350.645 42.2001 351.01 41.6513 351.317 41.0992C351.624 40.5472 351.941 40.0586 352.021 40.0135C352.101 39.9684 352.455 39.2617 352.808 38.4432C353.161 37.6246 353.506 36.9211 353.574 36.8799C353.642 36.8387 353.743 36.6368 353.799 36.4313C353.855 36.2257 353.99 35.7884 354.1 35.4595C354.888 33.1073 355.294 29.7326 354.979 28.1641C354.664 26.597 354.055 25.0491 353.598 24.657C353.378 24.4686 353.199 24.2486 353.199 24.1682C353.198 23.9435 353.947 23.7512 354.526 23.8275C355.59 23.9676 356.809 24.2158 356.98 24.3267C357.077 24.3899 357.648 24.6099 358.25 24.8156C359.332 25.1859 362.349 26.9171 362.349 27.1684C362.349 27.2983 362.717 27.7192 363.244 28.1939C363.965 28.8434 364.818 30.9967 364.821 32.1737C364.821 32.5194 364.913 32.8278 365.023 32.8589C365.174 32.9014 365.174 32.9954 365.024 33.2351C364.914 33.4109 364.824 33.9937 364.825 34.5302C364.826 35.0665 364.669 36.0966 364.476 36.8193C364.155 38.023 363.976 38.4869 363.337 39.7782C362.83 40.8001 362.744 40.9912 362.629 41.3378L362.509 41.701L363.031 41.3372C363.599 40.9421 363.629 40.9036 364.372 39.6518C364.648 39.1857 364.942 38.8044 365.025 38.8042C365.107 38.8041 365.382 38.4302 365.635 37.9736C365.888 37.5168 366.246 37.063 366.43 36.965C366.614 36.8671 366.764 36.7022 366.764 36.5986C366.763 36.4952 366.823 36.4092 366.895 36.4076C366.968 36.406 367.525 36.0021 368.134 35.5099C368.742 35.0178 369.454 34.5697 369.714 34.5141C369.975 34.4585 370.445 34.2909 370.758 34.1415C372.188 33.4589 376.669 33.3749 378.278 34.0005C378.471 34.0758 378.959 34.208 379.362 34.2942C380.338 34.5032 382.061 35.1775 382.061 35.3509C382.061 35.4271 382.18 35.4892 382.325 35.489C382.47 35.4887 382.589 35.5558 382.589 35.638C382.59 35.7202 382.728 35.7893 382.897 35.7917C383.234 35.7962 384.174 36.4333 384.174 36.6568C384.174 36.7335 384.333 36.8309 384.526 36.8737C384.737 36.9201 384.878 37.0769 384.879 37.264C384.879 37.5357 384.774 37.5771 384.081 37.5782Z" fill="url(#paint9_linear_2761_3023)"/>
<path fill-rule="evenodd" clip-rule="evenodd" d="M344.638 110.117C344.601 110.487 344.495 111.558 344.402 112.497C344.31 113.437 344.153 114.274 344.055 114.358C343.956 114.443 343.876 114.657 343.876 114.836C343.877 115.572 342.707 118.936 342.45 118.937C342.368 118.937 342.301 119.001 342.301 119.079C342.302 119.343 341.001 121.554 340.774 121.674C340.649 121.74 340.548 121.88 340.548 121.986C340.548 122.091 340.236 122.466 339.854 122.819C339.472 123.172 339.136 123.515 339.108 123.582C338.867 124.149 335.008 127.108 334.315 127.257C334.071 127.309 333.813 127.439 333.742 127.546C333.603 127.753 331.378 128.668 331.011 128.668C330.89 128.669 330.635 128.761 330.444 128.873C330.254 128.986 329.544 129.203 328.867 129.357C327.049 129.769 321.195 129.777 319.195 129.37C318.421 129.212 317.748 129.036 317.699 128.978C317.651 128.92 317.294 128.762 316.907 128.627C315.342 128.079 314.531 127.739 314.531 127.629C314.531 127.566 314.234 127.395 313.871 127.251C312.71 126.789 309.836 124.449 309.263 123.499C309.067 123.173 308.774 122.796 308.614 122.659C308.23 122.334 307.13 119.654 307.129 119.041C307.128 118.778 307.048 118.521 306.952 118.471C306.851 118.418 306.774 117.65 306.772 116.678C306.77 115.705 306.844 114.937 306.945 114.884C307.041 114.833 307.12 114.591 307.12 114.345C307.118 113.597 307.971 111.597 308.704 110.629C309.085 110.126 309.397 109.65 309.397 109.57C309.397 109.49 309.934 108.97 310.591 108.414C312.564 106.747 312.857 106.556 313.368 106.608C313.78 106.649 313.869 106.766 314.142 107.625C314.563 108.953 314.734 109.283 315.457 110.154C315.801 110.568 316.082 110.96 316.082 111.025C316.083 111.162 318.013 112.869 318.905 113.52C319.73 114.122 320.437 114.43 322.196 114.955C323.911 115.466 325.957 115.559 326.895 115.169C327.191 115.046 327.986 114.735 328.663 114.477C329.34 114.22 330.051 113.861 330.244 113.679C330.437 113.497 330.892 113.161 331.254 112.931C331.616 112.701 331.913 112.432 331.913 112.334C331.913 112.235 332.17 111.921 332.484 111.636C332.797 111.352 333.138 110.981 333.241 110.813C333.345 110.646 333.513 110.374 333.615 110.209C333.718 110.045 333.909 109.708 334.041 109.461C334.172 109.215 334.345 108.972 334.425 108.922C334.504 108.872 334.639 108.603 334.724 108.324C334.809 108.045 334.999 107.413 335.146 106.919C335.675 105.149 335.808 102.851 335.511 100.606C335.225 98.432 334.603 95.6326 334.377 95.4958C334.303 95.4509 333.973 94.7237 333.643 93.8796C333.313 93.0357 332.938 92.2715 332.81 92.1816C332.682 92.0917 332.577 91.949 332.577 91.8645C332.577 91.572 331.623 90.0348 330.867 89.1069C330.45 88.5942 330.108 88.1042 330.108 88.0178C330.108 87.9316 329.914 87.6967 329.677 87.4961C329.44 87.2953 329.008 86.8389 328.718 86.4818C328.098 85.7187 323.387 81.6091 323.132 81.6095C323.037 81.6096 322.608 81.3077 322.181 80.9386C321.753 80.5694 321.342 80.2674 321.268 80.2676C321.193 80.2677 320.468 79.8654 319.656 79.3736C318.843 78.8817 318.104 78.4794 318.012 78.4796C317.92 78.4797 317.692 78.3589 317.504 78.211C317.083 77.8793 314.793 76.841 314.485 76.8415C314.36 76.8417 314.259 76.7822 314.259 76.7091C314.258 76.5721 311.694 75.6483 311.32 75.6503C311.204 75.651 311.045 75.5625 310.968 75.4537C310.89 75.3448 310.688 75.2128 310.519 75.1601C310.349 75.1075 310.21 74.9256 310.21 74.7558C310.21 74.4722 310.285 74.4538 311.133 74.5305C312.277 74.6338 313.816 74.8724 314.532 75.0572C314.829 75.134 315.199 75.1966 315.353 75.1963C315.508 75.1961 315.858 75.2896 316.132 75.4043C316.406 75.5189 316.947 75.6909 317.335 75.7865C318.382 76.0456 319.961 76.5743 320.065 76.7012C320.115 76.7624 320.769 77.0548 321.517 77.3513C322.266 77.6478 322.878 77.9538 322.878 78.0315C322.879 78.1093 322.982 78.1728 323.109 78.1725C323.236 78.1723 323.5 78.2982 323.695 78.4522C323.89 78.6061 324.224 78.779 324.437 78.836C324.65 78.8931 325.119 79.1692 325.48 79.4495C325.841 79.7301 326.219 79.9597 326.321 79.9599C326.423 79.9602 326.789 80.1791 327.133 80.4465C327.478 80.7138 328.147 81.1862 328.621 81.4961C330.358 82.6339 334.446 86.1994 335.911 87.8549C336.153 88.1286 336.49 88.4882 336.66 88.6539C336.83 88.8197 336.968 89.0121 336.968 89.0814C336.969 89.1507 337.233 89.4595 337.557 89.7674C337.881 90.0753 338.376 90.6943 338.659 91.1431C338.941 91.5918 339.275 92.0529 339.4 92.1675C339.525 92.282 339.86 92.7882 340.144 93.2921C340.428 93.7962 340.74 94.3092 340.836 94.4324C341.131 94.8092 341.631 95.8045 341.998 96.7467C342.19 97.2396 342.399 97.6763 342.463 97.7173C342.715 97.8795 343.85 101.986 343.852 102.746C343.853 102.924 343.929 103.092 344.02 103.119C344.32 103.209 344.792 108.558 344.638 110.117Z" fill="url(#paint10_linear_2761_3023)"/>
<path fill-rule="evenodd" clip-rule="evenodd" d="M344.473 23.0723C344.261 25.4878 344.028 27.2604 343.904 27.3983C343.826 27.4854 343.627 28.1955 343.463 28.9765C343.298 29.7576 343.096 30.5648 343.015 30.7704C342.933 30.976 342.764 31.4638 342.638 31.8544C342.513 32.2451 342.354 32.5647 342.287 32.5648C342.219 32.5649 342.112 32.7661 342.049 33.0119C341.986 33.2575 341.861 33.4971 341.772 33.5441C341.683 33.5911 341.61 33.7633 341.61 33.9268C341.61 34.0903 341.453 34.5027 341.26 34.8432C341.067 35.1838 340.91 35.5506 340.91 35.6585C340.91 35.7664 340.849 35.8546 340.774 35.8548C340.641 35.855 340.501 36.0713 339.661 37.5693C339.432 37.9775 339.11 38.441 338.946 38.5993C338.782 38.7577 338.52 39.1165 338.364 39.3966C338.208 39.6768 337.861 40.122 337.592 40.3864C337.323 40.6505 337.071 40.9453 337.033 41.0416C336.909 41.3532 334.879 43.5281 334.111 44.1714C333.701 44.5153 333.365 44.8444 333.365 44.9027C333.366 45.0262 331.418 46.6391 329.834 47.827C329.23 48.28 328.568 48.7854 328.362 48.9501C328.157 49.1148 327.617 49.4855 327.162 49.7739C326.707 50.0623 326.126 50.4441 325.872 50.6224C325.617 50.8007 324.986 51.1353 324.469 51.3659C323.953 51.5967 323.53 51.8378 323.53 51.9019C323.53 51.9659 322.846 52.2946 322.01 52.6323C321.174 52.9699 320.391 53.3296 320.272 53.4316C320.152 53.5335 319.235 53.8488 318.234 54.1322C317.232 54.4158 316.371 54.6958 316.319 54.7546C316.137 54.9608 313.234 55.478 311.711 55.5753C310.454 55.6558 310.173 55.6354 310.178 55.4646C310.185 55.2515 311.437 54.4315 311.757 54.431C311.854 54.4309 312.07 54.3687 312.238 54.2928C312.406 54.2169 313.018 54.0031 313.598 53.8178C314.178 53.6326 314.744 53.4213 314.856 53.3483C314.968 53.2755 315.65 52.9599 316.371 52.647C317.092 52.3341 317.85 51.9449 318.055 51.7818C318.26 51.6186 318.765 51.3382 319.176 51.1586C319.587 50.9789 320.153 50.6299 320.435 50.3827C320.717 50.1355 321.026 49.9332 321.122 49.933C321.486 49.9324 327.264 45.2453 327.443 44.8048C327.502 44.6608 327.657 44.5429 327.787 44.5427C327.917 44.5425 328.199 44.2765 328.413 43.9518C328.627 43.6268 329.037 43.1725 329.323 42.9421C329.609 42.7116 329.844 42.4784 329.843 42.4239C329.843 42.3694 330.277 41.7632 330.807 41.0769C331.337 40.3907 331.773 39.7283 331.776 39.605C331.778 39.4817 331.934 39.2125 332.123 39.0067C332.312 38.801 332.468 38.5485 332.47 38.4458C332.472 38.343 332.551 38.2589 332.646 38.2587C332.741 38.2586 332.872 38.0734 332.938 37.8473C333.004 37.6213 333.281 36.9727 333.554 36.4061C333.827 35.8396 334.051 35.2509 334.05 35.0978C334.05 34.9447 334.122 34.8194 334.211 34.8193C334.365 34.819 334.461 34.5182 335.027 32.2813C335.506 30.3881 335.696 27.5018 335.461 25.6849C335.246 24.0284 334.65 21.7541 334.342 21.4207C334.255 21.3255 333.878 20.7405 333.506 20.1208C333.134 19.5011 332.503 18.7059 332.105 18.3539C331.707 18.0017 331.341 17.6106 331.292 17.4846C331.243 17.3587 330.985 17.1444 330.719 17.0084C330.452 16.8723 330.036 16.6057 329.794 16.4159C328.813 15.6461 327.567 15.186 325.984 15.0088C325.515 14.9562 325.078 14.8439 325.012 14.7593C324.931 14.6537 324.82 14.655 324.66 14.7633C324.532 14.8502 323.944 14.9668 323.354 15.0223C322.764 15.0777 321.872 15.2507 321.373 15.4066C320.458 15.6925 317.485 17.2869 317.486 17.4915C317.486 17.5521 317.132 17.9015 316.699 18.2678C316.267 18.6342 315.911 18.9858 315.909 19.0491C315.906 19.162 315.037 20.3564 314.85 20.5047C314.608 20.6968 313.93 22.331 313.718 23.2337C313.59 23.7814 313.1 23.7705 312.359 23.2033C312.041 22.9599 311.504 22.6057 311.167 22.4162C310.829 22.2268 310.466 21.9245 310.36 21.7447C310.254 21.5648 309.976 21.2878 309.741 21.1288C309.506 20.9701 309.118 20.5148 308.878 20.1171C308.638 19.7195 308.34 19.3406 308.217 19.275C308.093 19.2095 307.992 19.0288 307.992 18.8733C307.992 18.7179 307.924 18.5554 307.841 18.5123C307.759 18.4691 307.516 17.8771 307.302 17.1968C307.088 16.5163 306.837 15.7533 306.745 15.501C306.52 14.8853 306.522 11.4461 306.746 11.3275C306.843 11.2766 306.922 11.0813 306.922 10.8936C306.92 10.3453 307.975 7.89098 308.309 7.6639C308.369 7.62271 308.687 7.20574 309.016 6.73749C309.344 6.26909 309.835 5.74513 310.108 5.57314C310.381 5.40116 310.604 5.19204 310.604 5.10865C310.603 4.91095 311.412 4.22196 311.645 4.22158C311.744 4.22143 311.947 4.06299 312.095 3.86939C312.244 3.67578 312.717 3.36345 313.145 3.17508C313.574 2.98685 314.089 2.70272 314.289 2.54355C314.49 2.38453 315.185 2.05198 315.834 1.80453C316.484 1.55722 317.253 1.26277 317.543 1.15053C318.143 0.91795 318.878 0.736263 320.267 0.476562C321.438 0.257708 326.786 0.340304 328.093 0.597326C328.577 0.692486 329.191 0.80804 329.457 0.854387C329.723 0.900733 329.941 0.992883 329.941 1.05908C329.941 1.12543 330.357 1.29556 330.865 1.43746C331.91 1.72912 333.085 2.215 333.425 2.49599C333.551 2.59964 333.911 2.78793 334.226 2.91429C335.649 3.48539 339.385 6.63588 340.156 7.91558C340.353 8.24193 340.574 8.50878 340.647 8.50866C340.721 8.50855 341.042 8.99548 341.361 9.59091C341.68 10.1863 342.013 10.7741 342.101 10.8973C342.559 11.5385 342.819 12.162 343.231 13.6056C343.481 14.4794 343.685 15.3229 343.686 15.4802C343.686 15.6376 343.763 15.831 343.856 15.9099C344.2 16.2013 344.634 21.2364 344.473 23.0723Z" fill="url(#paint11_linear_2761_3023)"/>
<path fill-rule="evenodd" clip-rule="evenodd" d="M87.9747 26.0852C87.8793 26.2208 87.8011 27.8265 87.8011 29.6536C87.8011 33.5434 87.0774 35.3557 85.0401 36.5659L83.6373 37.3995L83.636 42.5717C83.6348 47.5522 83.5923 47.7854 82.491 48.8393C80.8821 50.3787 78.774 54.4674 77.9954 57.558C77.6231 59.0346 77.3254 62.1524 77.3125 64.703C77.2838 70.4211 78.5204 74.5685 81.5296 78.8474L83.6373 81.8444V86.8213V91.7975L85.1092 92.7904C87.2548 94.2386 87.8011 95.6962 87.8011 99.9769V103.693L210.528 103.546L333.256 103.398L333.464 99.3499C333.645 95.8372 333.827 95.1131 334.841 93.8733C335.483 93.0882 336.279 92.4452 336.61 92.4452C337.091 92.4452 337.212 91.3464 337.214 86.9687L337.217 81.4921L338.704 80.0522C343.193 75.7047 345.123 65.3738 342.992 57.0921C342.336 54.5432 341.483 52.8032 339.661 50.3005L337.211 46.9358V42.1804C337.211 37.8471 337.128 37.364 336.275 36.7382C333.962 35.0431 333.464 33.827 333.464 29.8797C333.464 26.4096 333.395 26.1296 332.527 26.0698C329.577 25.8661 88.1179 25.8809 87.9747 26.0852Z" fill="#713513"/>
<defs>
<linearGradient id="paint0_linear_2761_3023" x1="0.1221" y1="64.8633" x2="87.4516" y2="65.0288" gradientUnits="userSpaceOnUse">
  
<stop stop-color="#FFD200"/>
<stop offset="0.660327" stop-color="#CB381F"/>
<stop offset="0.826923" stop-color="#852816"/>
<stop offset="1" stop-color="#3F170D"/>
</linearGradient>

<linearGradient id="paint1_linear_2761_3023" x1="24.8475" y1="64.9547" x2="43.3578" y2="64.9898" gradientUnits="userSpaceOnUse">

<stop stop-color="#FFD200"/>
<stop offset="0.660327" stop-color="#CB381F"/>
<stop offset="0.826923" stop-color="#852816"/>
<stop offset="1" stop-color="#3F170D"/>
</linearGradient>

<linearGradient id="paint2_linear_2761_3023" x1="36.8272" y1="87.1494" x2="105.604" y2="87.2798" gradientUnits="userSpaceOnUse">

<stop stop-color="#FFD200"/>
<stop offset="0.660327" stop-color="#CB381F"/>
<stop offset="0.826923" stop-color="#852816"/>
<stop offset="1" stop-color="#3F170D"/>
</linearGradient>
<linearGradient id="paint3_linear_2761_3023" x1="37.1093" y1="42.3548" x2="106.044" y2="42.4855" gradientUnits="userSpaceOnUse">
<stop stop-color="#FFD200"/>
<stop offset="0.660327" stop-color="#CB381F"/>
<stop offset="0.826923" stop-color="#852816"/>
<stop offset="1" stop-color="#3F170D"/>
</linearGradient>
<linearGradient id="paint4_linear_2761_3023" x1="77.3448" y1="101.845" x2="115.254" y2="101.917" gradientUnits="userSpaceOnUse">
<stop stop-color="#FFD200"/>
<stop offset="0.660327" stop-color="#CB381F"/>
<stop offset="0.826923" stop-color="#852816"/>
<stop offset="1" stop-color="#3F170D"/>
</linearGradient>
<linearGradient id="paint5_linear_2761_3023" x1="77.4806" y1="27.7494" x2="115.394" y2="27.8213" gradientUnits="userSpaceOnUse">

<stop stop-color="#FFD200"/>
<stop offset="0.660327" stop-color="#CB381F"/>
<stop offset="0.826923" stop-color="#852816"/>
<stop offset="1" stop-color="#3F170D"/>
</linearGradient>
<linearGradient id="paint6_linear_2761_3023" x1="421.877" y1="65.0547" x2="334.547" y2="65.2202" gradientUnits="userSpaceOnUse">

<stop stop-color="#FFD200"/>
<stop offset="0.660327" stop-color="#CB381F"/>
<stop offset="0.826923" stop-color="#852816"/>
<stop offset="1" stop-color="#3F170D"/>
</linearGradient>
<linearGradient id="paint7_linear_2761_3023" x1="397.151" y1="65.1471" x2="378.641" y2="65.1822" gradientUnits="userSpaceOnUse">

<stop stop-color="#FFD200"/>
<stop offset="0.660327" stop-color="#CB381F"/>
<stop offset="0.826923" stop-color="#852816"/>
<stop offset="1" stop-color="#3F170D"/>
</linearGradient>

<linearGradient id="paint8_linear_2761_3023" x1="385.172" y1="87.3413" x2="316.395" y2="87.4717" gradientUnits="userSpaceOnUse">

<stop stop-color="#FFD200"/>
<stop offset="0.660327" stop-color="#CB381F"/>
<stop offset="0.826923" stop-color="#852816"/>
<stop offset="1" stop-color="#3F170D"/>
</linearGradient>

<linearGradient id="paint9_linear_2761_3023" x1="384.889" y1="42.5467" x2="315.954" y2="42.6774" gradientUnits="userSpaceOnUse">

<stop stop-color="#FFD200"/>
<stop offset="0.660327" stop-color="#CB381F"/>
<stop offset="0.826923" stop-color="#852816"/>
<stop offset="1" stop-color="#3F170D"/>
</linearGradient>

<linearGradient id="paint10_linear_2761_3023" x1="344.654" y1="102.037" x2="306.745" y2="102.109" gradientUnits="userSpaceOnUse">

<stop stop-color="#FFD200"/>
<stop offset="0.660327" stop-color="#CB381F"/>
<stop offset="0.826923" stop-color="#852816"/>
<stop offset="1" stop-color="#3F170D"/>
</linearGradient>

<linearGradient id="paint11_linear_2761_3023" x1="344.518" y1="27.9413" x2="306.605" y2="28.0132" gradientUnits="userSpaceOnUse">

<stop stop-color="#FFD200"/>
<stop offset="0.660327" stop-color="#CB381F"/>
<stop offset="0.826923" stop-color="#852816"/>
<stop offset="1" stop-color="#3F170D"/>
</linearGradient>
</defs>
</svg>
