<svg width="145" height="232" viewBox="0 0 145 232" fill="none" xmlns="http://www.w3.org/2000/svg">
<path d="M79.4249 59.0308C76.8997 63.084 75.2431 67.4749 74.7285 72.3001C74.6963 72.67 74.6802 73.04 74.6159 73.7155C75.8865 72.9274 76.8836 72.1714 77.9773 71.6246C80.2773 70.4826 82.8829 71.5441 83.9122 73.9567C84.9094 76.2728 84.0409 79.184 81.8857 80.0204C81.1136 80.3099 79.9717 80.1812 79.264 79.747C78.7654 79.4414 78.7494 78.3155 78.4277 77.254C79.264 77.3505 79.5696 77.3183 79.827 77.4148C81.1297 77.8812 82.336 78.1064 82.8828 76.3372C83.3171 74.9057 82.1912 73.0239 80.6794 72.5735C78.0738 71.7854 75.7095 73.5064 75.5487 76.6749C75.2431 82.4491 75.1466 88.2232 75.018 93.9973C74.9536 96.5868 75.018 99.1764 75.018 102.522C78.9745 99.3372 82.5612 96.7959 85.6653 93.74C86.8555 92.5659 86.9359 90.1854 87.4828 88.4805C87.4184 89.9281 87.338 91.6008 87.2576 93.2575C93.7232 93.8687 100.8 86.5183 100.157 79.7309C99.8029 76.0316 97.3421 73.5064 94.3505 73.7959C91.2463 74.1015 88.8338 77.4148 89.252 80.9693C89.3485 81.7414 89.7023 82.7707 90.2653 83.1407C91.0212 83.6393 92.1953 83.9449 92.9995 83.6875C93.4498 83.5428 93.5142 82.0952 93.7554 81.2428C93.9162 80.6798 94.1253 80.133 94.3022 79.5861C94.7204 80.0204 95.3799 80.3742 95.5246 80.905C96.0393 82.7225 94.6883 84.7812 92.7261 85.5533C90.7317 86.3253 89.4128 85.4246 88.5121 83.7036C86.7912 80.3903 88.8499 75.0504 92.4526 73.3938C95.7659 71.8658 99.3525 73.6511 100.736 77.6239C102.296 82.1596 101.057 86.261 98.7413 90.1372C98.3232 90.8288 97.8406 91.4722 97.3099 92.2603C103.293 92.791 106.204 92.1959 107.282 87.2582C107.636 90.2498 106.413 91.8099 103.92 92.6945C104.371 93.2092 104.644 93.6435 105.014 93.9169C109.373 97.198 111.673 101.605 111.882 107.218C112.026 110.966 114.23 113.395 117.736 114.199C116.868 114.054 115.935 114.054 115.147 113.716C113.828 113.137 112.927 113.475 112.059 114.585C111.222 115.646 110.37 116.756 109.34 117.609C105.561 120.745 101.556 120.552 97.2616 118.638C95.1547 117.705 92.7743 117.094 90.5065 117.03C88.0296 116.965 86.2765 119.362 86.3248 121.79C86.373 123.849 87.3059 124.846 89.5897 125.152C89.6702 124.669 89.638 124.106 89.8632 123.704C90.1688 123.158 90.6191 122.643 91.1338 122.305C91.3107 122.193 92.0988 122.595 92.147 122.836C92.2435 123.447 92.2918 124.493 91.9701 124.669C90.7639 125.377 89.3967 126.278 88.1261 126.23C86.4856 126.165 85.215 124.895 84.8129 122.997C83.8961 118.525 87.0003 115.148 91.6967 115.582C92.34 115.646 92.9834 115.791 93.9806 115.968C93.1121 111.529 93.7393 107.685 97.712 105.144C97.1169 104.291 96.6505 103.648 96.0393 102.795C98.7574 102.586 99.7707 100.785 99.7546 98.4526C99.7546 96.0561 98.3392 94.5281 96.168 93.7239C92.0827 92.212 87.0968 94.2386 84.8611 98.0505C86.6786 99.5785 88.689 100.817 90.1366 102.586C91.6002 104.371 91.2785 107.251 89.9918 108.827C88.5765 110.548 86.759 110.982 84.7968 110.146C84.0248 109.808 83.3975 109.068 82.7059 108.505C82.8024 108.344 82.8989 108.167 83.0115 108.006C83.8318 108.216 84.6521 108.521 85.4884 108.634C87.7401 108.955 89.2359 107.733 89.5576 105.449C89.8793 103.117 88.6891 101.074 86.6786 100.704C85.8262 100.544 84.8933 100.56 84.057 100.785C78.8619 102.216 74.6641 109.02 75.5969 114.569C75.7256 115.357 76.4011 116.225 77.0606 116.708C81.6122 119.973 81.5479 127.645 76.5942 130.009C76.1921 130.202 75.7095 130.781 75.7095 131.183C75.6452 135.397 75.6774 139.611 75.6774 143.616C79.5536 142.828 83.3654 142.169 87.1289 141.236C90.2653 140.464 92.0023 137.167 90.8443 134.062C90.4743 133.081 89.1716 132.116 88.1422 131.907C87.4506 131.762 86.0192 132.84 85.8262 133.612C85.6332 134.416 86.5338 135.51 87.0646 136.716C86.6625 136.507 85.8101 136.346 85.5045 135.832C84.5555 134.304 84.3143 132.567 85.6332 131.151C86.8555 129.832 88.2869 129.012 90.1687 130.202C92.3561 131.602 93.6268 134.207 92.8708 136.909C92.2918 139 93.0156 139.933 94.8169 140.48C98.3393 141.541 101.846 142.217 105.384 140.528C108.713 138.936 110.595 134.674 109.582 131.039C108.713 127.934 106.671 126.583 103.116 126.76L103.164 126.809C104.403 126.535 105.641 126.278 106.815 126.02C107.652 124.589 108.327 122.804 109.55 121.662C110.338 120.922 112.075 120.681 113.152 121.018C114.005 121.292 114.584 122.739 115.082 123.769C115.291 124.203 115.098 125.104 114.777 125.474C114.294 126.02 113.538 126.358 112.847 126.632C112.75 126.664 112.348 125.892 112.091 125.474C112.75 125.248 113.426 125.039 114.584 124.669C114.278 123.849 114.182 122.562 113.506 122.016C112.863 121.485 111.544 121.404 110.692 121.678C108.343 122.45 107.362 125.988 108.906 128.192C111.238 131.537 111.158 135.044 109.308 138.389C108.424 139.997 106.638 141.059 105.191 142.458C107.266 144.79 110.08 146.109 113.265 145.932C114.519 145.852 115.983 144.774 116.884 143.713C117.993 142.41 118.042 140.593 116.498 139.434C114.873 138.212 113.828 139.29 113.152 141.027C112.991 140.882 112.831 140.737 112.67 140.593C113.088 139.917 113.377 138.855 113.94 138.679C114.809 138.389 116.047 138.373 116.803 138.839C119.441 140.448 118.991 144.919 116.16 146.785C115.468 147.235 114.922 147.927 114.326 148.506C115.066 149.085 115.726 149.953 116.546 150.162C119.441 150.935 122.4 152.06 125.312 151.98C131.118 151.803 134.479 145.659 132.228 140.078C131.246 137.617 128.77 135.671 126.389 135.928C125.44 136.025 124.572 137.102 123.671 137.73C124.202 138.502 124.781 139.241 125.247 140.062C125.682 140.802 125.987 141.638 126.357 142.426C125.521 142.683 124.588 143.327 123.88 143.118C121.757 142.539 120.744 139.579 121.741 137.392C122.063 136.7 122.465 136.057 122.947 135.204C121.773 134.223 120.615 133.258 119.377 132.229C122.609 133.033 125.681 133.612 128.625 134.577C133.048 136.025 135.283 141.734 133.627 146.817C131.938 151.932 128.48 154.489 123.269 154.441C122.61 154.441 121.95 154.441 121.146 154.698C123.719 157.432 125.762 160.89 129.67 161.727C134.302 162.724 135.879 160.89 135.267 155.502C134.656 155.695 134.061 155.872 132.951 156.21C133.386 155.181 133.643 154.569 133.9 153.942C134.511 154.248 135.316 154.393 135.718 154.891C137.696 157.384 136.425 161.743 133.482 162.885C133.144 163.014 132.823 163.19 132.34 163.416C132.726 164.928 133.225 166.359 133.45 167.839C133.836 170.332 132.662 172.744 130.651 173.581C128.818 174.337 126.775 174.433 125.649 172.567C124.926 171.377 124.749 169.544 124.99 168.112C125.247 166.649 126.646 166.777 127.161 167.63C126.534 168.916 125.537 170.01 125.746 170.702C126.035 171.635 127.145 172.744 128.078 172.937C129.799 173.307 131.246 172.31 131.89 170.525C132.678 168.337 131.89 166.327 130.619 164.702C128.319 161.791 125.312 159.974 121.596 158.976C121.596 160.472 121.548 161.759 121.596 163.046C121.741 166.729 120.663 170.026 118.765 173.05C117.221 175.511 115.71 177.972 115.854 181.108C115.983 183.633 116.916 184.807 119.328 185.338L119.28 185.274C117.366 186.03 115.436 184.711 114.712 182.121C114.455 181.172 114.294 180.207 114.021 178.969C113.249 179.387 112.605 179.596 112.139 180.014C107.925 183.778 105.239 188.378 105.127 194.345C105.127 194.812 105.143 195.278 105.207 195.728C105.561 198.414 107.796 200.425 109.839 199.926C111.85 199.444 112.638 197.369 111.882 194.297C111.657 194.313 111.383 194.409 111.142 194.361C110.547 194.232 109.517 194.12 109.469 193.83C109.34 193.219 109.55 192.206 109.968 191.916C110.338 191.659 111.399 191.916 111.801 192.318C113.168 193.734 113.522 195.519 112.879 197.433C112.268 199.235 111.158 200.425 109.228 200.666C107.185 200.923 105.915 199.781 104.773 198.253C104.338 197.674 103.727 197.224 103.164 196.693C103.486 195.407 104.065 193.653 104.322 191.836C104.934 187.542 106.831 183.987 109.678 180.931C110.804 179.725 112.059 178.663 113.49 177.312C112.718 176.942 112.412 176.701 112.107 176.669C108.279 176.363 105.271 174.53 102.827 171.474C102.199 170.702 101.138 169.801 100.318 169.833C99.1756 169.881 97.7602 170.493 97.0525 171.377C96.1036 172.567 97.0204 173.79 98.5644 173.967C99.1273 174.031 99.642 174.546 100.173 174.867C99.5455 175.286 98.9183 176.042 98.291 176.042C96.4736 176.009 95.4924 174.739 95.3638 172.905C95.219 170.895 96.3449 169.576 98.0819 169.286C99.7064 169.029 101.411 169.367 103.261 169.463C103.293 169.093 103.422 168.579 103.341 168.096C102.859 165.088 103.888 162.644 105.947 160.633C109.276 157.368 109.517 156.323 107.829 152.028C109.694 153.54 109.791 154.328 108.761 159.041C110.257 160.135 111.785 161.019 113.008 162.242C113.603 162.821 113.844 164.043 113.796 164.96C113.78 165.474 112.863 165.941 112.348 166.423C111.994 165.941 111.608 165.474 111.287 164.96C110.724 164.059 110.096 162.322 109.678 162.386C108.44 162.547 106.992 163.142 106.14 164.075C104.58 165.812 104.917 169.222 106.494 171.377C108.086 173.549 111.045 174.433 113.667 173.516C119.232 171.57 121.773 164.252 118.814 158.108C116.063 152.398 111.254 148.956 105.834 146.431C102.489 144.871 98.9987 143.616 94.8813 144.147C95.8624 145.659 96.7792 146.914 97.5512 148.265C100.752 153.894 98.7574 159.427 92.7904 161.486C90.7317 162.193 88.5121 162.74 87.7401 165.137C87.3863 166.263 87.4828 167.726 87.8688 168.868C88.0296 169.367 89.4289 169.415 90.3939 169.704C90.4904 168.949 90.4743 168.627 90.5708 168.37C90.8282 167.678 91.1338 166.986 91.4072 166.311C91.8254 167.018 92.533 167.71 92.5974 168.45C92.7904 170.686 90.5548 172.133 88.4478 171.265C85.8423 170.203 84.443 166.134 85.9709 163.448C86.7912 161.984 86.759 160.955 85.9709 159.491C84.4751 156.66 84.9898 152.736 87.0646 150.967C87.8527 150.307 89.1716 150.034 90.2009 150.114C90.6674 150.146 91.5359 151.739 91.3429 152.189C90.9729 153.058 89.8792 153.572 89.2198 154.344C88.5925 155.068 87.5793 156.049 87.724 156.693C87.9492 157.69 88.8338 158.944 89.7184 159.282C91.7128 160.054 93.675 159.363 95.2029 157.786C96.7309 156.21 97.3099 154.28 96.6987 152.076C94.3988 143.793 86.1639 142.989 80.4542 147.476C76.0634 150.918 74.7767 155.711 76.0795 161.067C78.4277 170.734 83.7353 178.293 91.7771 183.698C94.8169 185.74 98.098 186.528 101.685 185.515C98.1623 187.976 94.5596 187.091 90.6834 185.418V214.096L90.024 214.177C89.9275 213.453 89.7345 212.745 89.7345 212.021C89.6862 204.928 89.5736 197.835 89.6701 190.742C89.7023 188.539 89.0429 187.992 87.0324 188.04C83.0437 188.137 83.0919 188.04 83.0919 192.302C83.0919 199.009 83.0276 205.716 82.9793 212.423C82.9793 212.986 82.8024 213.533 82.7059 214.096C82.4968 214.096 82.3038 214.128 82.0947 214.128C81.9661 213.324 81.7088 212.52 81.7088 211.716C81.6605 204.623 81.5962 197.53 81.6444 190.437C81.6444 188.651 81.1941 187.96 79.4249 187.992C73.9082 188.072 68.4076 188.024 62.4566 188.024V214.096C62.1832 214.112 61.9097 214.144 61.6202 214.161C61.5076 213.421 61.3308 212.697 61.3147 211.957C61.2664 204.784 61.186 197.626 61.2503 190.453C61.2503 188.651 60.8161 187.992 59.0308 188.056C54.7043 188.201 54.7043 188.121 54.6721 192.624C54.64 199.026 54.6238 205.427 54.5917 211.828C54.5917 212.6 54.4791 213.372 54.4148 214.144C54.1896 214.144 53.9805 214.128 53.7553 214.112V185.483C49.8792 186.834 46.2121 188.249 42.2394 185.402C51.375 187.268 56.4413 181.398 61.2342 175.43C65.1587 170.541 68.0537 164.976 68.6006 158.414C69.0027 153.588 67.0405 149.793 63.3573 147.123C59.8993 144.614 56.0714 143.825 52.0826 145.981C49.7827 147.219 48.3513 149.262 47.6436 151.787C46.4855 155.904 49.654 159.845 53.7232 159.507C55.3155 159.379 56.4252 158.639 56.6504 156.918C56.8756 155.261 56.1518 154.376 54.4791 154.119C53.884 154.023 53.112 153.138 52.9833 152.511C52.8546 151.851 53.2567 150.613 53.7392 150.404C54.5756 150.05 55.798 149.969 56.57 150.372C58.7574 151.53 59.8993 155.229 58.7413 158.172C57.8567 160.408 57.4546 162.193 58.7252 164.509C59.8189 166.504 58.5 169.881 56.4735 170.879C55.5085 171.361 53.9644 171.345 53.0316 170.863C52.3078 170.493 51.954 169.045 51.777 168.016C51.7127 167.581 52.5491 166.97 52.9673 166.456C53.2246 167.002 53.5624 167.517 53.7232 168.08C53.8197 168.418 53.6749 168.82 53.5784 169.704C54.7043 169.431 55.9749 169.511 56.4413 168.916C56.956 168.241 57.1812 166.649 56.763 165.989C55.7819 164.477 54.4309 163.174 53.0477 162.049C52.2756 161.421 51.1176 161.341 50.1848 160.907C45.424 158.687 43.8478 153.814 46.389 149.037C47.2736 147.38 48.3673 145.836 49.6218 143.841C39.8269 144.63 31.9781 148.345 26.3649 156.516C24.5474 159.169 24.1132 162.161 24.5153 165.33C25.1908 170.589 28.8739 174.16 33.313 173.87C37.2696 173.613 40.0843 169.367 38.8941 165.41C38.3472 163.576 37.2374 162.242 35.2591 162.258C33.3773 162.258 33.1683 163.786 32.9431 165.314C32.8788 165.78 32.2836 166.166 31.9298 166.584C31.4473 165.877 30.6753 165.233 30.5305 164.461C30.2571 162.837 32.1872 160.537 34.069 159.925C34.5515 159.765 35.0501 159.684 35.7256 159.507C34.6962 155.76 34.262 152.221 38.3955 150.243V150.211C37.9451 150.774 37.543 151.385 37.0444 151.883C35.1787 153.733 34.8088 157.207 36.7228 158.928C39.8912 161.775 41.966 164.944 40.9045 169.27C42.9311 169.27 44.7485 169.061 46.5016 169.335C48.2708 169.608 49.2197 171.281 49.0106 172.889C48.8659 173.999 47.6436 175.06 46.6785 175.865C46.3086 176.186 45.3114 175.832 44.6681 175.591C44.4429 175.511 44.4107 174.819 44.2981 174.417C44.8611 174.288 45.424 174.128 45.9869 174.031C47.4344 173.822 48.0296 172.487 47.2736 171.104C46.2121 169.174 43.6709 169.142 41.7891 171.152C39.8751 173.211 38.0255 175.286 35.227 176.009C33.9725 176.331 32.6858 176.572 31.1417 176.91C31.5921 177.537 31.8172 177.988 32.1711 178.293C37.0122 182.556 39.6822 187.911 40.5507 194.506C40.8563 196.79 39.7786 197.996 38.701 199.074C37.7842 199.991 36.1277 200.167 34.7605 200.489C34.4067 200.57 33.9081 199.894 33.4738 199.572L33.4256 199.621C36.9157 200.2 38.8779 198.688 39.2157 195.198C39.7786 189.311 35.3235 181.028 30.3536 179.114C30.1124 180.143 29.9676 181.188 29.6138 182.137C28.9382 183.907 27.9411 185.74 25.9467 185.595C24.8047 185.515 23.6468 184.293 22.7139 183.344C22.3118 182.925 22.2314 181.848 22.4244 181.172C22.5852 180.593 23.309 180.191 23.7754 179.709C24.0488 180.272 24.3866 180.818 24.5957 181.414C24.6761 181.671 24.4187 182.025 24.4831 182.314C24.6439 183.183 24.8852 184.035 25.0943 184.904C26.0432 184.373 27.4747 184.1 27.8767 183.279C29.2439 180.481 28.4075 177.763 26.9761 175.173C25.802 173.05 24.3062 170.975 23.7111 168.675C23.0034 165.909 23.116 162.917 22.8586 160.038C22.8265 159.749 22.7622 159.459 22.7139 159.169C18.9021 159.395 13.6266 163.48 12.4847 167.035C11.5679 169.914 13.128 172.825 15.6692 172.937C17.2454 173.002 18.5804 172.326 18.6769 170.589C18.7251 169.737 17.8727 168.836 17.2133 167.549C17.1489 167.581 17.8083 166.922 18.0496 167.067C18.6769 167.437 19.4006 168.048 19.6097 168.723C20.2209 170.67 19.2559 172.728 17.5832 173.565C15.8783 174.417 13.3049 173.838 12.163 172.23C10.9728 170.541 10.3777 168.707 11.1336 166.584C11.4875 165.587 11.7609 164.574 12.0665 163.576C10.9889 162.901 9.92735 162.483 9.15534 161.711C7.37005 159.942 7.12882 156.451 8.6246 154.73C9.04277 154.248 9.84693 154.119 10.4581 153.846C10.6994 154.457 10.9567 155.068 11.391 156.178C10.2973 155.792 9.76654 155.615 8.93019 155.309C8.93019 156.676 8.6246 158.044 9.02669 159.137C9.38053 160.118 10.4581 161.421 11.2784 161.47C13.1119 161.598 15.2832 161.55 16.7951 160.649C19.2076 159.186 21.2181 156.982 23.3894 155.084C23.309 154.827 23.2286 154.569 23.1642 154.296C22.1188 154.296 21.0733 154.328 20.0118 154.296C16.007 154.183 13.1441 152.157 11.4714 148.425C9.70218 144.469 9.47703 140.351 12.3399 136.925C13.5784 135.462 15.7497 134.352 17.6315 134.079C21.6685 133.483 25.0782 132.277 26.9278 128.111C26.3006 131.393 23.9845 133.21 21.4433 134.915C21.9097 135.912 22.3922 136.765 22.73 137.681C23.6306 140.126 22.1348 142.989 19.851 143.069C19.2237 143.086 18.1944 142.507 18.0496 141.992C17.9048 141.461 18.4678 140.271 18.9664 140.062C20.2692 139.563 21.202 138.904 20.6712 137.424C20.0761 135.783 18.6126 135.574 17.1329 135.816C12.2917 136.588 9.87913 142.844 12.5008 147.734C14.1252 150.758 16.8755 152.093 19.8993 151.9C22.7782 151.723 25.6572 150.822 28.4075 149.825C30.5144 149.053 30.418 148.023 28.4718 146.769C25.6733 144.967 24.8691 141.268 27.0082 139.161C27.6837 138.502 29.0187 138.164 29.9354 138.325C30.627 138.437 31.1417 139.611 31.7368 140.303C31.5277 140.464 31.3186 140.625 31.1095 140.786C30.9487 140.48 30.8522 140.03 30.6109 139.885C29.9837 139.515 29.0187 138.823 28.6487 139.048C27.8767 139.531 27.0243 140.464 26.8956 141.332C26.5739 143.504 28.4397 145.659 30.7396 145.82C34.0529 146.061 36.8836 144.774 39.473 142.169C36.9318 140.609 34.664 139.065 34.0368 135.976C33.5221 133.387 33.4256 130.83 35.0983 128.706C36.4332 127.018 36.2724 125.345 35.7095 123.527C35.5326 122.965 35.3717 122.386 35.1948 121.823L35.1465 121.887C35.9025 123.222 36.6423 124.541 37.3822 125.844C38.5241 126.117 39.8108 126.406 41.1136 126.712L41.1618 126.68C37.9129 126.39 36.0633 127.532 34.9053 130.54C33.7312 133.58 34.7123 137.118 37.2696 139.225C40.4059 141.815 47.4666 142.201 50.6834 139.756C51.2463 139.338 51.4715 137.907 51.3106 137.07C50.7477 134.159 52.0183 131.135 54.4952 129.897C56.3126 128.98 58.0175 129.784 58.693 131.216C59.2881 132.47 58.8378 134.336 58.6287 135.912C58.5804 136.282 57.6315 136.507 56.6826 137.022C56.9238 136.314 56.956 136.121 57.0364 135.96C57.535 135.14 58.4839 134.304 58.4196 133.532C58.3553 132.84 57.2455 131.827 56.5217 131.746C55.6854 131.65 54.463 132.181 53.9322 132.872C52.0505 135.349 53.3211 139.627 56.2644 140.753C57.6958 141.3 59.272 141.445 60.7839 141.783C63.3412 142.362 65.8985 142.941 68.6649 143.584C68.6649 139.531 68.7132 135.397 68.6006 131.28C68.6006 130.733 67.8285 130.074 67.2656 129.688C63.3573 127.018 62.7139 121.549 65.8181 117.834C66.9279 116.515 68.7132 115.855 68.7936 113.523C68.8901 110.499 68.1824 107.894 66.3971 105.578C64.66 103.342 62.7783 101.283 59.9476 100.592C58.1784 100.157 56.4895 100.254 55.4441 102.055C54.463 103.728 54.1092 105.578 55.412 107.234C56.7308 108.907 58.5 108.778 60.2692 108.071C60.607 107.942 60.9126 107.765 61.2825 107.588C60.9126 109.406 59.3042 110.628 57.535 110.516C55.3316 110.371 53.5945 108.73 53.2729 106.511C52.7582 102.844 54.8169 100.302 59.7063 98.6295C57.149 93.5952 51.2302 92.1638 47.7561 93.6435C45.5366 94.5924 44.3464 96.3617 44.4429 98.5813C44.5555 100.913 45.7617 102.248 48.1582 102.715C47.6275 103.487 47.1932 104.13 46.5659 105.047C50.4421 107.476 51.1176 111.288 50.1687 115.743C51.6966 115.63 52.919 115.421 54.1413 115.485C57.9532 115.695 60.3818 119.41 59.2881 123.19C58.4196 126.149 54.6078 127.339 52.726 125.136C52.2274 124.557 52.1791 123.511 52.0344 122.675C52.0183 122.562 52.9833 122.112 53.0477 122.193C53.5141 122.804 53.884 123.495 54.2539 124.171C54.3504 124.364 54.3665 124.605 54.463 124.975C55.9427 125.2 57.0203 124.637 57.5511 123.158C58.2587 121.211 57.8084 119.474 56.3287 118.139C54.7686 116.74 52.8707 116.354 50.9246 116.901C49.3645 117.335 47.8526 117.979 46.389 118.686C41.2905 121.131 36.2242 119.844 32.7018 115.309C31.9137 114.279 30.6914 113.636 29.5495 112.719C31.9298 111.127 32.1228 108.183 32.5088 105.127C33.1522 99.9002 35.7256 95.7666 40.2933 93.0001C39.3122 92.1316 38.2507 91.5043 37.6717 90.5554C37.0766 89.6225 36.964 88.3519 36.9158 87.1134C37.2696 89.4295 38.1703 91.2952 40.5024 91.7778C42.4807 92.1959 44.5394 92.2924 47.2736 92.6141C46.2604 91.0861 45.5848 90.2337 45.0541 89.2687C42.8828 85.2959 41.8213 81.1623 43.7352 76.7232C45.5687 72.4931 50.1365 71.3833 53.4176 74.4714C55.6854 76.6106 56.8112 79.2966 56.0392 82.5777C55.5406 84.6686 53.9644 85.9232 52.2274 85.6819C50.2973 85.4085 48.3513 83.3176 48.496 81.4197C48.5443 80.7442 49.075 80.0847 49.4771 79.5057C49.5736 79.377 50.4099 79.5861 50.4099 79.6826C50.4582 80.2134 50.233 80.7924 50.3456 81.291C50.5386 82.1596 50.6995 83.398 51.2624 83.7197C52.6134 84.4917 53.9001 83.8323 54.5274 82.3686C55.4924 80.1169 54.9134 77.9456 53.6588 76.0316C52.4365 74.1819 50.6351 73.249 48.4638 73.7477C46.2764 74.2463 44.845 75.7581 44.282 78.0421C43.0597 82.9798 46.2442 89.3812 51.2141 91.6973C52.9833 92.5176 54.8973 93.0001 56.8756 93.6917V87.7889C56.4413 92.5498 59.1916 95.091 62.6979 97.2785C64.7727 98.5652 66.6223 100.238 68.6971 101.83C68.874 101.444 69.1313 101.123 69.1313 100.817C68.9866 92.582 68.8096 84.347 68.6166 76.0959C68.5684 73.9889 67.2174 72.7183 65.4804 72.4609C64.3867 72.3001 62.9391 72.9435 62.0545 73.7155C61.4916 74.198 61.2342 75.8225 61.5881 76.5141C61.8776 77.0931 63.2608 77.0931 64.1776 77.2861C64.4992 77.3505 64.8691 77.2057 65.802 77.077C65.4321 78.1868 65.3999 79.3288 64.9013 79.6183C64.1775 80.0526 63.0356 80.1651 62.2475 79.8917C60.3496 79.2323 59.4972 76.9323 60.0923 74.6966C60.7839 72.1071 62.7461 70.5309 64.9978 71.1742C66.574 71.6246 67.9894 72.6379 69.5978 73.4742C68.874 67.8288 67.8607 62.2959 63.4377 58.0015C65.2551 58.5162 67.1369 60.4623 68.7614 63.7434C69.9516 66.1721 70.8845 68.7295 72.1068 71.6407C72.8145 69.6784 73.3131 68.0861 73.9564 66.5581C75.1949 63.6148 76.5459 60.7197 79.3284 58.9504L79.2801 58.9022L79.4249 59.0308ZM33.9564 107.685C31.8494 112.092 36.4172 118.622 42.4164 118.123C45.3436 117.882 47.9492 116.885 49.0428 113.668C50.0079 110.837 48.3834 108.312 46.0995 108.28C45.2953 109.599 44.6198 110.709 43.9443 111.818C43.0275 110.966 42.1108 110.097 41.001 109.052C38.7654 110.532 36.2081 110.709 33.9564 107.685ZM103.502 109.132C102.231 110.242 101.315 111.03 100.398 111.818C99.7064 110.757 99.0309 109.695 98.0498 108.167C97.6959 108.376 96.7148 108.666 96.1036 109.325C94.6239 110.934 94.833 113.861 96.4092 115.63C99.2721 118.863 104.966 119.056 108.038 116.032C110.804 113.314 111.608 110.58 110.306 107.862C108.215 110.789 105.673 110.387 103.502 109.148V109.132ZM54.4791 187.011C57.1812 187.011 59.4168 187.043 61.6524 186.979C61.9902 186.979 62.4566 186.528 62.6335 186.174C65.416 180.851 68.1502 175.495 70.8844 170.139C70.9649 169.978 70.8362 169.704 70.804 169.495C67.2656 168.772 67.0726 168.836 65.2873 171.747C64.3223 173.291 63.4538 174.916 62.3923 176.379C59.9154 179.805 57.3581 183.151 54.4791 187.011ZM89.8792 187.091C88.9625 185.772 88.3513 184.872 87.724 183.987C84.8451 179.918 81.8374 175.945 79.1032 171.779C77.2697 168.981 76.7067 168.579 73.2487 169.688C75.5809 175.607 78.5885 181.108 81.9661 186.4C82.1752 186.737 82.6899 187.043 83.0598 187.059C85.1507 187.123 87.2576 187.091 89.8953 187.091H89.8792ZM102.038 107.234C102.489 106.221 102.859 105.401 103.229 104.581C103.695 105.015 103.727 105.304 103.695 105.578C103.502 107.411 104.097 108.875 105.899 109.213C107.619 109.534 108.89 108.328 109.051 106.72C109.244 104.886 109.067 102.892 108.536 101.139C107.427 97.4715 103.357 94.9141 100.398 95.5575C100.398 97.5519 100.8 99.6106 100.318 101.428C99.4491 104.709 99.3204 104.983 102.022 107.218L102.038 107.234ZM44.4751 95.3966C39.1353 95.5414 35.3878 99.289 35.0661 104.211C34.8731 107.218 35.8381 108.971 37.8164 109.164C39.7626 109.358 40.615 108.183 40.9367 104.275C41.5318 105.61 41.8856 106.43 42.5933 108.006C43.5101 106.044 45.0058 104.339 44.652 103.294C43.7674 100.688 42.8667 98.2918 44.4751 95.3966ZM77.2536 123.479C77.2214 120.568 74.7928 117.866 72.2033 117.834C69.4369 117.802 67.0404 120.648 67.1048 123.913C67.1691 126.857 69.3726 129.044 72.2516 128.996C75.1949 128.964 77.2857 126.664 77.2536 123.495V123.479Z" fill="url(#paint0_linear_1669_4243)"/>
<path d="M72.0427 231.837C64.1456 231.837 56.2486 231.821 48.3676 231.837C45.6655 231.837 43.4138 230.84 41.8376 228.604C40.0362 226.031 37.5272 225.371 34.7125 225.227C32.7986 225.13 30.8846 225.034 29.0028 224.696C26.3651 224.229 25.2553 223.039 25.0462 220.241C24.5798 214.016 24.3064 207.792 23.8721 201.567C23.5665 197.144 21.4917 193.783 18.0981 191.113C14.4471 188.25 10.4905 185.644 7.46681 182.154C1.04943 174.771 0.116552 165.539 0.50256 155.969C0.904652 146.061 4.58783 137.328 8.81784 128.723C28.456 88.7222 48.0459 48.7053 67.668 8.70456C68.6812 6.64581 69.6784 4.58707 70.756 2.57657C71.9462 0.32482 72.6861 0.308736 73.8441 2.60874C77.3825 9.62134 80.8727 16.6661 84.3307 23.7109C98.3234 52.1956 112.332 80.6802 126.277 109.181C130.636 118.091 134.962 127.034 139.128 136.041C144.242 147.091 145.593 158.736 142.875 170.67C141.395 177.184 137.986 182.685 132.582 186.609C131.07 187.703 129.638 188.941 128.062 189.922C122.658 193.316 120.487 198.399 120.358 204.816C120.262 209.979 119.892 215.126 119.522 220.273C119.313 223.039 118.203 224.278 115.549 224.696C113.008 225.114 110.386 225.034 107.877 225.581C106.333 225.918 104.564 226.69 103.567 227.881C101.058 230.872 98.0982 232.014 94.399 231.95C86.9523 231.837 79.4894 231.918 72.0427 231.918C72.0427 231.885 72.0427 231.853 72.0427 231.837ZM58.8702 68.8585C58.3073 68.9872 57.7444 69.1159 57.1814 69.2606C54.7689 69.8718 52.9353 68.8424 52.1472 66.4299C50.4102 61.1382 53.6269 56.4739 58.9667 56.6026C60.0925 56.6347 61.2184 56.8438 62.3604 56.9725C62.4086 56.8599 62.473 56.7473 62.5212 56.6186C61.6205 55.9592 60.7037 55.2837 60.3338 55.0102C59.3849 55.5571 58.8702 56.104 58.3395 56.12C53.8843 56.2005 51.0696 58.7096 50.5389 63.2131C50.2494 65.6578 51.8417 69.0998 53.8682 70.0327C55.75 70.9012 57.4387 70.4187 58.8219 68.7942C60.5268 67.041 61.1219 64.6606 59.98 62.827C59.4814 62.0228 58.3234 61.4277 57.3905 61.2669C56.9402 61.1865 56.2968 62.3284 55.364 63.3096C59.6583 63.1809 60.4464 64.2907 59.2401 67.5718C59.0793 67.99 58.9989 68.4243 58.8702 68.8585ZM85.2635 68.3438C84.4111 63.5669 84.6684 63.1326 88.8662 63.3417C88.3194 62.4732 88.0299 61.476 87.5795 61.3795C86.8397 61.2347 85.7943 61.4438 85.2313 61.9424C83.5747 63.4222 83.7034 66.1403 85.3117 68.2956C87.3865 71.0299 90.2655 71.1424 92.3725 68.569C95.0102 65.3522 94.6885 60.2697 91.311 57.9858C89.4131 56.6991 86.9683 56.2809 84.7488 55.4606C84.7488 55.4445 85.0544 54.9781 85.36 54.5277C85.2313 54.3991 85.1027 54.2704 84.974 54.1417C83.1726 55.7662 81.3712 57.3907 79.5699 59.0152C76.7874 60.7844 75.4364 63.6634 74.1979 66.6229C73.5546 68.1508 73.056 69.7592 72.3483 71.7054C71.126 68.7942 70.1931 66.2368 69.0029 63.8082C67.3785 60.527 65.4966 58.5648 63.6792 58.0662C68.1183 62.3606 69.1155 67.8935 69.8393 73.539C68.2309 72.7187 66.8155 71.6893 65.2393 71.2389C62.9715 70.5956 61.0254 72.1718 60.3338 74.7613C59.7387 76.9809 60.5911 79.297 62.489 79.9565C63.2771 80.2299 64.419 80.1173 65.1428 79.683C65.6414 79.3774 65.6897 78.2516 66.0435 77.1418C65.0946 77.2704 64.7408 77.4152 64.4191 77.3508C63.5023 77.1578 62.1191 77.1578 61.8296 76.5788C61.4757 75.8872 61.7331 74.2627 62.296 73.7802C63.1967 73.0082 64.6282 72.3648 65.7218 72.5257C67.4589 72.783 68.8099 74.0697 68.8581 76.1606C69.0511 84.3956 69.2281 92.6306 69.3728 100.882C69.3728 101.187 69.1155 101.509 68.9386 101.895C66.8638 100.303 64.9981 98.6299 62.9394 97.3432C59.4331 95.1558 56.6828 92.5984 57.1171 87.8537V93.7565C55.1388 93.081 53.2248 92.5984 51.4556 91.7621C46.5019 89.446 43.3012 83.0446 44.5236 78.1068C45.0865 75.8229 46.5179 74.311 48.7053 73.8124C50.8766 73.3138 52.678 74.2466 53.9003 76.0963C55.1549 78.0103 55.7339 80.1816 54.7689 82.4334C54.1416 83.9131 52.871 84.5565 51.5039 83.7844C50.941 83.4627 50.7801 82.2243 50.5871 81.3558C50.4745 80.8572 50.7158 80.2781 50.6515 79.7474C50.6515 79.6509 49.799 79.4418 49.7186 79.5704C49.3004 80.1495 48.7858 80.825 48.7375 81.4844C48.5927 83.3823 50.5389 85.4732 52.4689 85.7467C54.206 85.9879 55.7982 84.7334 56.2807 82.6425C57.0528 79.3613 55.9269 76.6753 53.6591 74.5362C50.3619 71.448 45.7942 72.5417 43.9767 76.7879C42.0627 81.2271 43.1082 85.3607 45.2956 89.3334C45.8263 90.2823 46.4858 91.1509 47.5151 92.6788C44.7648 92.3572 42.7222 92.2607 40.7439 91.8425C38.4118 91.36 37.5111 89.4781 37.1572 87.1781C37.2055 88.4166 37.3181 89.6712 37.9132 90.6201C38.5083 91.5691 39.5698 92.1963 40.5348 93.0649C35.9671 95.8313 33.3937 99.9649 32.7503 105.192C32.3643 108.248 32.1713 111.191 29.7909 112.784C30.9329 113.701 32.1552 114.344 32.9433 115.373C36.4657 119.925 41.532 121.212 46.6305 118.751C48.0942 118.043 49.6221 117.416 51.1661 116.966C53.1122 116.403 55.0101 116.805 56.5702 118.204C58.0499 119.539 58.5003 121.276 57.7926 123.222C57.2458 124.702 56.1842 125.265 54.7045 125.04C54.608 124.67 54.608 124.429 54.4954 124.236C54.1255 123.56 53.7556 122.852 53.2892 122.257C53.2248 122.177 52.2598 122.627 52.2759 122.74C52.4206 123.592 52.4689 124.622 52.9675 125.201C54.8332 127.404 58.6611 126.214 59.5296 123.254C60.6394 119.475 58.1947 115.759 54.3828 115.55C53.1766 115.486 51.9381 115.695 50.4102 115.808C51.3591 111.336 50.6836 107.54 46.8074 105.112C47.4347 104.195 47.8689 103.552 48.3997 102.78C46.0032 102.313 44.7809 100.978 44.6844 98.646C44.5879 96.4264 45.7781 94.6572 47.9976 93.7082C51.4717 92.2285 57.3905 93.66 59.9478 98.6943C55.0745 100.367 52.9997 102.908 53.5144 106.575C53.8199 108.795 55.5731 110.419 57.7765 110.58C59.5457 110.693 61.1541 109.471 61.524 107.653C61.1541 107.83 60.8324 107.991 60.5108 108.136C58.7416 108.843 56.9723 108.988 55.6535 107.299C54.3507 105.643 54.7046 103.793 55.6857 102.12C56.7472 100.335 58.4199 100.238 60.1891 100.656C63.0198 101.348 64.9016 103.407 66.6386 105.643C68.4239 107.959 69.1316 110.564 69.0351 113.588C68.9547 115.92 67.1694 116.58 66.0596 117.898C62.9554 121.598 63.6149 127.082 67.5071 129.752C68.07 130.138 68.826 130.798 68.8421 131.345C68.9547 135.462 68.9064 139.58 68.9064 143.649C66.1239 143.022 63.5666 142.427 61.0254 141.847C59.5135 141.51 57.9373 141.365 56.5059 140.818C53.5626 139.692 52.2759 135.414 54.1738 132.937C54.7046 132.245 55.9269 131.715 56.7632 131.811C57.487 131.892 58.6128 132.905 58.6611 133.596C58.7254 134.352 57.7765 135.205 57.2779 136.025C57.1814 136.186 57.1493 136.379 56.9241 137.087C57.8569 136.572 58.8219 136.347 58.8702 135.977C59.0793 134.417 59.5296 132.551 58.9345 131.28C58.259 129.849 56.5541 129.045 54.7367 129.961C52.2598 131.2 50.9892 134.24 51.5521 137.135C51.713 137.987 51.4878 139.403 50.9249 139.821C47.7081 142.266 40.6474 141.88 37.5111 139.29C34.9377 137.183 33.9727 133.629 35.1468 130.605C36.3048 127.597 38.1544 126.455 41.4194 126.729C44.3305 128.546 44.8613 129.672 43.7998 131.875C43.3977 131.763 42.9796 131.65 42.5614 131.538C40.953 131.087 39.8754 131.892 40.1488 133.58C40.2775 134.368 40.953 135.591 41.4838 135.671C42.4327 135.8 44.0732 135.462 44.3627 134.819C45.0061 133.323 45.4886 131.409 45.1508 129.881C44.7648 128.208 43.5746 126.519 41.3551 126.777C40.0684 126.471 38.7817 126.182 37.6237 125.908C36.8838 124.605 36.144 123.271 35.388 121.952C34.23 121.517 33.0398 120.649 31.8979 120.729C29.7427 120.874 28.5043 124.316 29.9518 125.876C30.3861 126.343 31.351 126.326 32.0909 126.375C32.2035 126.375 32.3804 125.619 32.5251 125.217C31.914 125.152 31.3028 125.088 30.6916 124.992C30.563 124.975 30.4343 124.879 30.3056 124.799C29.9196 121.936 31.4636 120.568 33.9888 121.533C34.4552 121.71 34.9538 121.775 35.4363 121.887C35.5971 122.45 35.774 123.029 35.951 123.592C36.53 125.426 36.6747 127.082 35.3398 128.771C33.6671 130.894 33.7636 133.452 34.2783 136.041C34.8894 139.129 37.1733 140.673 39.7145 142.234C37.1251 144.839 34.2944 146.11 30.9811 145.885C28.6812 145.724 26.7994 143.568 27.1372 141.397C27.2658 140.529 28.1182 139.596 28.8903 139.113C29.2602 138.888 30.2252 139.564 30.8525 139.95C31.1098 140.094 31.1902 140.545 31.3511 140.85C31.5602 140.689 31.7692 140.529 31.9783 140.368C31.3832 139.676 30.8685 138.502 30.1769 138.389C29.2441 138.229 27.9091 138.566 27.2497 139.226C25.1106 141.333 25.8987 145.032 28.7133 146.834C30.6594 148.088 30.7559 149.117 28.649 149.889C25.8987 150.887 23.0036 151.803 20.1407 151.964C17.117 152.141 14.3667 150.822 12.7423 147.799C10.1206 142.909 12.5493 136.652 17.3744 135.88C18.8541 135.639 20.3176 135.864 20.9127 137.489C21.4435 138.968 20.5106 139.628 19.2079 140.126C18.7093 140.32 18.1303 141.526 18.2911 142.057C18.4359 142.571 19.4652 143.15 20.0925 143.134C22.3764 143.054 23.8721 140.175 22.9714 137.746C22.6337 136.829 22.1512 135.977 21.6848 134.98C24.2421 133.259 26.5581 131.441 27.1693 128.176C25.3197 132.342 21.9099 133.548 17.8729 134.143C15.9912 134.417 13.8198 135.526 12.5814 136.99C9.71852 140.416 9.94367 144.534 11.7129 148.49C13.3856 152.206 16.2485 154.248 20.2533 154.361C21.2987 154.393 22.3442 154.361 23.4057 154.361C23.4862 154.618 23.5665 154.875 23.6309 155.149C21.4596 157.047 19.4652 159.266 17.0366 160.714C15.5247 161.631 13.3534 161.663 11.5199 161.534C10.6996 161.47 9.62202 160.167 9.26818 159.202C8.88217 158.108 9.17168 156.741 9.17168 155.374C10.008 155.664 10.5388 155.857 11.6325 156.243C11.1821 155.149 10.9409 154.522 10.6996 153.91C10.0724 154.2 9.28426 154.313 8.86608 154.795C7.3703 156.516 7.61154 160.006 9.39682 161.775C10.1688 162.531 11.2304 162.966 12.308 163.641C12.0024 164.622 11.729 165.652 11.3751 166.649C10.6031 168.756 11.2143 170.606 12.4045 172.294C13.5304 173.903 16.1037 174.482 17.8247 173.629C19.4974 172.793 20.4624 170.734 19.8512 168.788C19.6421 168.113 18.9345 167.485 18.2911 167.131C18.0499 166.987 17.3904 167.646 17.4548 167.614C18.0981 168.901 18.9666 169.801 18.9184 170.654C18.8219 172.375 17.4869 173.066 15.9107 173.002C13.3534 172.889 11.7933 169.978 12.7262 167.099C13.8681 163.545 19.1275 159.459 22.9554 159.234C23.0036 159.508 23.068 159.797 23.1001 160.103C23.3575 162.998 23.2449 165.989 23.9526 168.74C24.5477 171.04 26.0434 173.115 27.2176 175.238C28.649 177.827 29.4853 180.545 28.1182 183.344C27.7161 184.164 26.3008 184.438 25.3357 184.969C25.1267 184.1 24.8854 183.248 24.7246 182.379C24.6764 182.106 24.9337 181.736 24.8372 181.478C24.6281 180.883 24.3064 180.336 24.0169 179.773C23.5505 180.256 22.8267 180.658 22.6658 181.237C22.4889 181.897 22.5533 182.99 22.9554 183.408C23.8882 184.357 25.0462 185.58 26.1882 185.66C28.1825 185.805 29.1797 183.971 29.8552 182.202C30.2252 181.253 30.3539 180.208 30.5951 179.178C35.565 181.076 40.004 189.376 39.4572 195.262C39.1194 198.752 37.1573 200.264 33.6671 199.685C32.3483 198.206 31.9461 196.533 32.7503 194.555C33.3133 194.555 34.1657 194.796 34.3748 194.506C34.8251 193.895 34.9216 193.011 35.179 192.239C34.5517 192.078 33.4741 191.611 33.3776 191.788C32.6216 193.107 31.6888 194.506 31.5441 195.954C31.3993 197.434 31.7531 199.235 33.7314 199.637C34.1657 199.959 34.6643 200.634 35.0181 200.554C36.3853 200.248 38.0579 200.071 38.9586 199.139C40.0362 198.061 41.1139 196.855 40.8083 194.571C39.9397 187.976 37.2537 182.62 32.4286 178.358C32.0748 178.052 31.8497 177.586 31.3993 176.975C32.9433 176.637 34.23 176.412 35.4845 176.074C38.267 175.35 40.1327 173.259 42.0467 171.217C43.9285 169.19 46.4697 169.238 47.5312 171.169C48.2872 172.552 47.692 173.887 46.2445 174.096C45.6655 174.176 45.1187 174.353 44.5557 174.482C44.6683 174.884 44.7005 175.576 44.9257 175.656C45.569 175.897 46.5662 176.251 46.9361 175.929C47.9012 175.125 49.1235 174.048 49.2682 172.954C49.4773 171.345 48.5123 169.673 46.7592 169.399C45.0222 169.126 43.2047 169.335 41.1621 169.335C42.2075 165.008 40.1488 161.84 36.9803 158.993C35.0664 157.272 35.4363 153.782 37.302 151.948C37.8006 151.45 38.2027 150.838 38.653 150.292C39.4411 150.822 40.2292 151.337 41.0817 151.916C40.8404 152.35 40.5509 152.656 40.4866 152.994C40.3579 153.717 40.3096 154.457 40.3579 155.181C40.3579 155.294 41.3712 155.535 41.4677 155.39C41.9019 154.747 42.4809 153.959 42.4327 153.267C42.2718 150.871 40.4544 150.533 38.6209 150.308C34.4874 152.286 34.9216 155.824 35.951 159.572C35.2755 159.749 34.7769 159.829 34.2943 159.99C32.4126 160.585 30.4826 162.901 30.756 164.526C30.8846 165.298 31.6727 165.941 32.1552 166.649C32.5091 166.231 33.0881 165.845 33.1685 165.378C33.4098 163.85 33.6027 162.322 35.4845 162.322C37.4628 162.322 38.5565 163.641 39.1194 165.475C40.3096 169.431 37.495 173.678 33.5384 173.935C29.0993 174.224 25.4001 170.654 24.7407 165.394C24.3386 162.226 24.7728 159.234 26.5903 156.58C32.2035 148.394 40.0523 144.694 49.8473 143.906C48.5928 145.901 47.499 147.445 46.6144 149.101C44.0732 153.894 45.6494 158.768 50.4102 160.971C51.343 161.406 52.5172 161.486 53.2731 162.113C54.6563 163.255 56.0073 164.558 56.9884 166.054C57.4066 166.697 57.1814 168.306 56.6667 168.981C56.2003 169.576 54.9297 169.496 53.8038 169.769C53.9003 168.885 54.0451 168.466 53.9486 168.145C53.7717 167.582 53.45 167.051 53.1927 166.52C52.7584 167.051 51.9221 167.646 52.0025 168.08C52.1633 169.11 52.5332 170.557 53.257 170.927C54.2059 171.41 55.7339 171.426 56.6989 170.943C58.7254 169.946 60.0443 166.569 58.9506 164.574C57.68 162.258 58.0821 160.473 58.9667 158.237C60.1247 155.294 58.9828 151.594 56.7954 150.436C56.0234 150.034 54.801 150.115 53.9647 150.468C53.4822 150.661 53.0801 151.916 53.2088 152.575C53.3374 153.219 54.1094 154.103 54.7045 154.184C56.3772 154.457 57.0849 155.326 56.8758 156.982C56.6507 158.687 55.5409 159.443 53.9486 159.572C49.8794 159.91 46.7109 155.969 47.869 151.852C48.5766 149.343 50.0081 147.3 52.3081 146.045C56.2968 143.89 60.1247 144.694 63.5827 147.187C67.2659 149.857 69.2281 153.653 68.826 158.478C68.2791 165.041 65.3841 170.606 61.4597 175.495C56.6668 181.462 51.6004 187.333 42.4649 185.467C46.4375 188.33 50.0885 186.899 53.9807 185.548V214.177C54.2059 214.177 54.415 214.193 54.6402 214.209C54.7045 213.437 54.8171 212.665 54.8171 211.893C54.8493 205.492 54.8654 199.09 54.8975 192.689C54.9136 188.169 54.9297 188.25 59.2562 188.121C61.0576 188.057 61.4918 188.732 61.4757 190.518C61.4114 197.691 61.4918 204.848 61.5401 212.022C61.5401 212.762 61.7331 213.485 61.8457 214.225C62.1191 214.209 62.3925 214.177 62.682 214.161V188.089C68.633 188.089 74.1497 188.137 79.6503 188.057C81.4195 188.024 81.8859 188.732 81.8699 190.501C81.8055 197.594 81.8698 204.687 81.9342 211.78C81.9342 212.585 82.1915 213.389 82.3202 214.193C82.5293 214.193 82.7223 214.161 82.9313 214.161C83.0278 213.598 83.1887 213.051 83.2048 212.488C83.2691 205.781 83.3335 199.074 83.3174 192.367C83.3174 188.089 83.2691 188.217 87.2579 188.105C89.2683 188.057 89.9278 188.604 89.8956 190.807C89.783 197.9 89.8956 204.993 89.9599 212.086C89.9599 212.81 90.1529 213.518 90.2494 214.241L90.9089 214.161V185.483C94.769 187.172 98.3878 188.057 101.91 185.58C98.3234 186.593 95.0424 185.789 92.0025 183.762C83.9607 178.358 78.6531 170.783 76.3049 161.132C75.0021 155.776 76.2888 150.999 80.6796 147.541C86.3893 143.054 94.6081 143.858 96.9241 152.141C97.5353 154.345 96.9563 156.275 95.4284 157.851C93.9004 159.427 91.9543 160.119 89.9438 159.347C89.0592 159.009 88.1747 157.755 87.9495 156.757C87.8047 156.13 88.818 155.133 89.4453 154.409C90.1208 153.637 91.1984 153.122 91.5683 152.254C91.7613 151.787 90.8928 150.211 90.4263 150.179C89.397 150.099 88.0621 150.356 87.29 151.031C85.2153 152.801 84.7005 156.725 86.1963 159.556C86.9683 161.02 87.0005 162.049 86.1963 163.513C84.6684 166.215 86.0677 170.268 88.6732 171.329C90.7802 172.198 93.0319 170.75 92.8228 168.515C92.7585 167.775 92.0508 167.083 91.6326 166.376C91.3431 167.067 91.0536 167.743 90.7963 168.434C90.6998 168.708 90.7158 169.013 90.6193 169.769C89.6543 169.48 88.2551 169.431 88.0942 168.933C87.7082 167.791 87.6117 166.327 87.9655 165.201C88.7215 162.805 90.9571 162.258 93.0158 161.55C98.9829 159.492 100.977 153.959 97.7766 148.329C97.0046 146.978 96.0878 145.724 95.1067 144.212C99.2241 143.681 102.714 144.936 106.06 146.496C111.48 149.021 116.289 152.463 119.039 158.173C121.999 164.317 119.457 171.635 113.892 173.581C111.271 174.498 108.311 173.613 106.719 171.442C105.143 169.287 104.805 165.877 106.365 164.14C107.202 163.207 108.649 162.612 109.904 162.451C110.322 162.387 110.949 164.14 111.512 165.024C111.834 165.539 112.22 166.006 112.574 166.488C113.088 166.006 114.005 165.539 114.021 165.024C114.053 164.108 113.812 162.885 113.233 162.306C112.011 161.084 110.483 160.199 108.987 159.106C110.016 154.393 109.92 153.621 108.054 152.093C109.727 156.387 109.485 157.433 106.172 160.698C104.114 162.724 103.084 165.153 103.567 168.161C103.647 168.643 103.502 169.158 103.486 169.528C101.637 169.448 99.9318 169.094 98.3074 169.351C96.5703 169.624 95.4284 170.959 95.5892 172.97C95.7179 174.787 96.699 176.058 98.5164 176.106C99.1276 176.106 99.771 175.35 100.398 174.932C99.8675 174.627 99.3528 174.096 98.7899 174.031C97.2458 173.855 96.3291 172.616 97.278 171.442C97.9857 170.557 99.4171 169.946 100.543 169.898C101.363 169.85 102.425 170.766 103.052 171.538C105.497 174.578 108.504 176.412 112.332 176.734C112.638 176.766 112.943 177.007 113.715 177.377C112.284 178.728 111.03 179.79 109.904 180.996C107.057 184.052 105.159 187.606 104.548 191.901C104.29 193.702 103.711 195.455 103.39 196.758C103.937 197.289 104.548 197.723 104.998 198.318C106.156 199.846 107.411 200.988 109.453 200.731C111.383 200.49 112.509 199.299 113.104 197.498C113.748 195.584 113.378 193.799 112.027 192.383C111.625 191.981 110.563 191.724 110.193 191.981C109.775 192.271 109.566 193.284 109.695 193.895C109.759 194.185 110.772 194.297 111.367 194.426C111.609 194.474 111.866 194.394 112.107 194.362C112.847 197.434 112.059 199.492 110.065 199.991C108.022 200.49 105.786 198.463 105.432 195.793C105.368 195.343 105.352 194.876 105.352 194.41C105.465 188.443 108.151 183.843 112.364 180.079C112.831 179.661 113.474 179.452 114.246 179.034C114.52 180.272 114.681 181.237 114.938 182.186C115.662 184.776 117.592 186.078 119.506 185.338C121.452 185.033 122.642 183.473 122.159 181.543C121.982 180.835 121.162 180.304 120.631 179.709C120.406 180.481 120.101 181.237 119.972 182.025C119.779 183.135 119.683 184.261 119.554 185.387C117.141 184.856 116.192 183.682 116.08 181.157C115.935 178.02 117.447 175.559 118.991 173.099C120.889 170.059 121.983 166.778 121.822 163.094C121.773 161.808 121.822 160.537 121.822 159.025C125.537 160.022 128.545 161.84 130.845 164.751C132.131 166.376 132.903 168.386 132.115 170.573C131.472 172.359 130.024 173.356 128.303 172.986C127.387 172.793 126.261 171.683 125.971 170.75C125.762 170.059 126.743 168.965 127.387 167.678C126.856 166.826 125.457 166.697 125.215 168.161C124.974 169.576 125.167 171.426 125.875 172.616C127.001 174.466 129.043 174.385 130.877 173.629C132.887 172.809 134.077 170.38 133.675 167.887C133.45 166.408 132.952 164.976 132.566 163.464C133.048 163.239 133.37 163.062 133.707 162.934C136.651 161.792 137.921 157.449 135.943 154.94C135.541 154.441 134.753 154.296 134.126 153.991C133.868 154.602 133.611 155.213 133.177 156.259C134.303 155.921 134.882 155.728 135.493 155.551C136.104 160.955 134.528 162.773 129.896 161.775C125.987 160.939 123.945 157.465 121.371 154.747C122.176 154.489 122.835 154.473 123.494 154.489C128.705 154.538 132.163 151.98 133.852 146.866C135.525 141.783 133.273 136.073 128.85 134.626C125.891 133.661 122.819 133.082 119.602 132.278C120.841 133.307 121.999 134.272 123.173 135.253C122.69 136.122 122.272 136.749 121.966 137.44C120.969 139.628 121.966 142.571 124.106 143.166C124.829 143.359 125.746 142.732 126.582 142.475C126.213 141.687 125.907 140.866 125.473 140.11C125.006 139.306 124.427 138.55 123.896 137.778C124.797 137.151 125.65 136.089 126.615 135.977C128.995 135.719 131.472 137.682 132.453 140.126C134.705 145.708 131.343 151.852 125.537 152.029C122.626 152.109 119.666 150.983 116.771 150.211C115.951 149.986 115.292 149.117 114.552 148.554C115.163 147.975 115.71 147.284 116.385 146.834C119.216 144.952 119.666 140.496 117.029 138.888C116.273 138.422 115.034 138.438 114.166 138.727C113.603 138.904 113.313 139.966 112.895 140.641C113.056 140.786 113.217 140.931 113.378 141.075C114.053 139.338 115.099 138.277 116.723 139.483C118.267 140.641 118.219 142.459 117.109 143.761C116.208 144.823 114.761 145.917 113.49 145.981C110.306 146.158 107.491 144.855 105.416 142.507C106.864 141.124 108.649 140.046 109.534 138.438C111.383 135.108 111.464 131.602 109.132 128.24C107.588 126.021 108.553 122.482 110.917 121.726C111.769 121.453 113.088 121.533 113.732 122.064C114.391 122.611 114.504 123.898 114.809 124.718C113.651 125.088 112.992 125.313 112.316 125.522C112.574 125.924 112.976 126.712 113.072 126.68C113.764 126.407 114.52 126.069 115.002 125.522C115.34 125.136 115.517 124.252 115.308 123.817C114.825 122.788 114.23 121.324 113.378 121.067C112.3 120.729 110.579 120.971 109.775 121.71C108.553 122.852 107.893 124.654 107.041 126.069C105.883 126.326 104.628 126.584 103.39 126.841C100.977 126.97 99.208 129.173 99.2885 131.94C99.3689 134.626 100.752 136.25 102.746 135.945C104.307 135.703 104.805 134.61 104.612 133.13C104.403 131.57 103.518 131.071 102.087 131.602C101.637 131.763 101.138 131.827 100.575 131.972C99.9318 129.173 101.524 127.919 103.358 126.793C106.912 126.616 108.955 127.967 109.823 131.071C110.837 134.706 108.955 138.968 105.625 140.561C102.103 142.25 98.5808 141.574 95.0584 140.513C93.2731 139.966 92.5333 139.049 93.1123 136.942C93.8683 134.224 92.5977 131.634 90.4103 130.235C88.5446 129.029 87.1131 129.865 85.8747 131.184C84.5558 132.599 84.7971 134.336 85.746 135.864C86.0677 136.379 86.904 136.524 87.3061 136.749C86.7753 135.543 85.8747 134.449 86.0677 133.645C86.2607 132.873 87.6921 131.795 88.3837 131.94C89.4131 132.149 90.7158 133.114 91.0858 134.095C92.2599 137.183 90.5228 140.496 87.3704 141.268C83.6069 142.185 79.795 142.861 75.9189 143.649C75.9189 139.644 75.8867 135.43 75.951 131.216C75.951 130.814 76.4336 130.235 76.8357 130.042C81.7894 127.678 81.8537 120.022 77.3021 116.74C76.6426 116.274 75.9672 115.389 75.8385 114.601C74.9056 109.052 79.1034 102.249 84.2985 100.817C85.1187 100.592 86.0677 100.576 86.9201 100.737C88.9306 101.107 90.1208 103.149 89.7991 105.482C89.4935 107.766 87.9816 108.988 85.7299 108.666C84.8936 108.554 84.0894 108.248 83.253 108.039C83.1565 108.2 83.06 108.377 82.9474 108.538C83.639 109.101 84.2502 109.857 85.0383 110.178C87.0166 111.015 88.818 110.596 90.2333 108.859C91.5361 107.283 91.8417 104.42 90.3781 102.619C88.9466 100.866 86.9362 99.611 85.1026 98.0831C87.3383 94.2712 92.3242 92.2446 96.4095 93.7565C98.5807 94.5607 99.98 96.0886 99.9961 98.4852C99.9961 100.817 98.9989 102.619 96.2808 102.828C96.892 103.68 97.3423 104.324 97.9535 105.176C93.9809 107.701 93.3536 111.545 94.2221 116.001C93.2249 115.824 92.5976 115.679 91.9382 115.615C87.2579 115.18 84.1376 118.558 85.0544 123.029C85.4404 124.927 86.711 126.198 88.3676 126.262C89.6382 126.31 91.0054 125.41 92.2116 124.702C92.5172 124.525 92.485 123.48 92.3885 122.868C92.3403 122.627 91.5522 122.225 91.3753 122.338C90.8606 122.675 90.4103 123.19 90.1047 123.737C89.8795 124.139 89.9117 124.702 89.8312 125.185C87.5474 124.895 86.5984 123.882 86.5663 121.823C86.518 119.394 88.2711 116.998 90.748 117.062C93.0158 117.11 95.3962 117.738 97.5032 118.671C101.798 120.585 105.802 120.778 109.582 117.641C110.611 116.789 111.464 115.695 112.3 114.617C113.169 113.508 114.069 113.17 115.388 113.749C116.176 114.087 117.109 114.087 117.978 114.231C114.471 113.427 112.268 110.998 112.123 107.251C111.914 101.638 109.614 97.2145 105.255 93.9495C104.886 93.66 104.612 93.2257 104.162 92.7271C106.655 91.8425 107.877 90.2663 107.523 87.2907C106.446 92.2285 103.535 92.8236 97.5514 92.2928C98.0822 91.5047 98.5647 90.8614 98.9828 90.1698C101.299 86.2935 102.537 82.1921 100.977 77.6564C99.6101 73.6837 96.0074 71.8984 92.6941 73.4264C89.0914 75.083 87.0327 80.4229 88.7537 83.7362C89.6544 85.4732 90.9732 86.374 92.9676 85.5858C94.9298 84.8138 96.2808 82.7551 95.7661 80.9376C95.6214 80.4229 94.9619 80.053 94.5437 79.6187C94.3507 80.1655 94.1577 80.7124 93.9969 81.2753C93.7396 82.1278 93.6752 83.5753 93.241 83.7201C92.4368 83.9774 91.2627 83.6718 90.5068 83.1732C89.9439 82.8033 89.59 81.79 89.4935 81.0019C89.0753 77.4313 91.4878 74.1341 94.592 73.8285C97.5835 73.539 100.06 76.0641 100.398 79.7634C101.042 86.5509 93.9648 93.9012 87.4991 93.29C87.5796 91.6173 87.66 89.9607 87.7243 88.5131C87.1774 90.218 87.097 92.6145 85.9068 93.7726C82.8027 96.8446 79.2 99.3698 75.2595 102.554C75.2595 99.1928 75.2112 96.6033 75.2595 94.0299C75.3881 88.2558 75.4846 82.4816 75.7902 76.7075C75.9511 73.539 78.3153 71.818 80.9209 72.6061C82.4327 73.0564 83.5586 74.9543 83.1244 76.3697C82.5936 78.139 81.3712 77.9299 80.0685 77.4474C79.8111 77.3509 79.5055 77.383 78.6692 77.2865C78.9909 78.332 79.007 79.4739 79.5056 79.7795C80.2132 80.2138 81.3551 80.3586 82.1272 80.053C84.2663 79.2327 85.1348 76.3215 84.1537 73.9893C83.1244 71.5767 80.5027 70.5152 78.2188 71.6571C77.1252 72.204 76.1119 72.9438 74.8574 73.748C74.9056 73.0725 74.9217 72.7026 74.97 72.3327C75.4846 67.5075 77.1412 63.1166 79.6664 59.0634C80.0524 58.8704 80.4867 58.7256 80.8083 58.4522C83.2852 56.2648 86.1159 56.3291 88.9306 57.262C92.1312 58.3235 93.9487 63.1166 92.5976 66.4459C91.2466 69.7592 89.3327 70.3061 85.4082 68.4725L85.2635 68.3438ZM69.9197 205.202C69.9197 205.202 69.8232 205.202 69.7749 205.202C69.7749 207.583 69.8554 209.963 69.7428 212.343C69.6623 214.129 70.563 214.418 71.9141 214.322C73.1364 214.225 74.8091 214.853 74.793 212.601C74.793 207.679 74.7608 202.773 74.6483 197.852C74.6161 196.243 74.1015 194.635 72.1714 194.699C70.4022 194.764 69.9679 196.292 69.9197 197.836C69.8392 200.297 69.9036 202.757 69.9036 205.202H69.9197ZM117.543 128.514C117.592 123.512 118.492 122.241 120.937 122.45C121.532 123.64 121.902 124.589 122.497 125.378C122.594 125.506 124.186 124.782 124.186 124.509C124.122 123.399 123.993 122.064 123.366 121.292C122.224 119.909 120.664 120.408 119.361 121.292C117.415 122.595 116.659 125.329 117.559 128.53L117.543 128.514ZM96.1843 214.225C96.6347 214.097 97.7122 213.871 98.6934 213.437C100.672 212.569 101.798 209.706 101.154 207.373C100.607 205.331 98.6933 204.044 96.5542 204.269C94.9941 204.43 93.9165 205.846 94.1095 207.486C94.2864 208.998 95.0102 209.561 96.0556 209.432C95.7983 208.483 94.9941 207.02 95.364 206.569C95.9591 205.829 97.3745 205.299 98.3234 205.459C100.221 205.781 101.202 208.387 100.012 210.285C98.9829 211.909 97.3102 213.083 96.1682 214.225H96.1843ZM56.8436 50.2494C57.3261 48.5928 57.5353 47.0326 58.243 45.762C59.2241 44.0088 60.8002 43.0116 62.8911 43.5424C64.8051 44.0249 65.6736 45.4564 65.8666 47.3704C66.0918 49.6382 64.4834 50.4263 62.859 51.327C64.1939 51.134 65.7218 50.8123 66.2204 49.8795C66.8155 48.7858 66.9442 47.0004 66.526 45.8102C65.6093 43.2368 62.8751 42.0948 60.5108 42.8829C57.9535 43.7354 56.3933 46.8074 56.8436 50.2494ZM81.8216 51.0858C80.8566 50.3137 79.2482 49.6543 78.9104 48.5606C78.5566 47.4508 79.1356 45.6494 79.8916 44.62C81.2587 42.7382 84.202 42.9151 85.6656 44.9417C86.6789 46.3571 87.2257 48.1263 87.8047 49.3648C88.2068 45.4081 85.4404 42.1913 81.6286 42.7543C79.2482 43.1081 77.2216 45.8906 77.6076 48.2228C78.0258 50.6997 79.4895 51.6004 81.8216 51.0858ZM48.1585 213.839C47.3704 213.373 46.7913 213.083 46.2928 212.697C44.3305 211.234 43.3977 208.837 44.4271 207.132C44.9579 206.248 46.1319 205.492 47.1291 205.315C47.8046 205.202 49.1878 206.071 49.3165 206.698C49.4773 207.502 48.7053 208.515 48.2711 209.577C49.7025 210.076 50.0724 208.821 50.3459 207.663C50.748 205.99 49.7508 204.543 48.1746 204.269C45.7298 203.851 43.5907 205.54 43.2851 208.097C42.9152 211.234 44.6522 213.389 48.1585 213.823V213.839ZM27.1372 124.927C26.7351 122.08 24.5798 120.166 22.4246 120.552C20.7037 120.858 20.1246 122.225 20.2533 123.769C20.3015 124.38 21.2344 125.41 21.7009 125.378C23.3414 125.265 23.1806 123.833 23.1162 122.579C23.1162 122.515 23.1806 122.45 23.261 122.338C25.3197 121.887 26.2686 123.287 27.1372 124.927ZM44.8131 194.185C45.0865 192.801 45.0382 191.225 47.0165 191.659C49.6703 192.255 48.7375 194.346 48.5445 196.131C49.9438 194.522 49.8794 192.769 48.5123 191.499C47.8046 190.839 46.2124 190.614 45.2795 190.968C43.9607 191.45 43.8159 192.834 44.8131 194.185ZM95.6857 195.439C95.541 193.766 95.4605 191.917 97.4549 191.659C98.243 191.563 99.192 192.801 100.302 193.59C100.093 192.85 100.06 191.354 99.4975 191.08C98.6129 190.646 97.1172 190.614 96.2969 191.145C94.769 192.094 94.8011 193.783 95.7018 195.439H95.6857ZM85.939 84.7012C84.2663 83.1732 82.7866 82.9963 81.3873 83.9131C79.779 84.9586 79.3125 86.6313 79.7468 88.9795C80.5027 85.0068 81.3873 84.3795 85.9551 84.7173L85.939 84.7012ZM58.3395 84.9425C62.8107 84.1544 63.7275 84.6369 64.9338 88.3523C65.2876 86.2614 64.596 84.7977 63.0681 83.897C61.4919 82.9802 59.9639 83.2858 58.3395 84.9264V84.9425ZM103.84 150.372C103.261 151.273 102.505 151.98 102.328 152.817C102.184 153.492 102.682 154.345 103.02 155.052C103.084 155.197 104.13 155.052 104.146 154.94C104.258 154.232 104.258 153.508 104.21 152.785C104.178 152.157 104.033 151.546 103.84 150.372Z" fill="url(#paint1_linear_1669_4243)"/>
<path d="M117.447 128.595C116.53 125.394 117.286 122.66 119.248 121.357C120.551 120.488 122.111 119.99 123.253 121.357C123.896 122.129 124.025 123.48 124.073 124.574C124.073 124.847 122.481 125.571 122.384 125.442C121.789 124.654 121.419 123.705 120.824 122.515C118.379 122.306 117.479 123.576 117.431 128.579L117.447 128.595Z" fill="url(#paint2_linear_1669_4243)"/>
<path d="M119.264 185.338C119.393 184.212 119.473 183.087 119.682 181.977C119.827 181.189 120.116 180.433 120.342 179.661C120.872 180.272 121.693 180.803 121.87 181.494C122.352 183.424 121.162 184.968 119.216 185.274L119.264 185.322V185.338Z" fill="url(#paint3_linear_1669_4243)"/>
<path d="M69.8065 205.283C69.8065 202.822 69.7582 200.361 69.8225 197.917C69.8708 196.373 70.305 194.861 72.0742 194.78C74.0043 194.7 74.519 196.324 74.5511 197.933C74.6637 202.838 74.6798 207.76 74.6959 212.682C74.6959 214.933 73.0393 214.322 71.8169 214.403C70.4659 214.515 69.5491 214.226 69.6456 212.424C69.7582 210.044 69.6778 207.663 69.6778 205.283C69.726 205.283 69.7743 205.283 69.8225 205.283H69.8065Z" fill="url(#paint4_linear_1669_4243)"/>
<path d="M79.4731 59.08C81.2744 57.4555 83.0758 55.831 84.8772 54.2065C85.0059 54.3352 85.1345 54.4639 85.2632 54.5926C84.9576 55.059 84.6681 55.5093 84.652 55.5254C86.8716 56.3457 89.3163 56.7478 91.2142 58.0506C94.5917 60.3506 94.8973 65.4331 92.2757 68.6338C90.1687 71.1912 87.2897 71.0786 85.2149 68.3604L85.1667 68.4087C89.0911 70.2422 91.0212 69.6954 92.3722 66.3821C93.7232 63.0527 91.9058 58.2597 88.7051 57.1982C85.8905 56.2653 83.0597 56.201 80.5828 58.3884C80.2612 58.6618 79.8269 58.8066 79.4409 58.9996L79.4892 59.0478L79.4731 59.08Z" fill="url(#paint5_linear_1669_4243)"/>
<path d="M58.7251 68.8742C57.3419 70.4826 55.6531 70.9652 53.7713 70.0966C51.7609 69.1638 50.1525 65.7218 50.442 63.277C50.9728 58.7735 53.7874 56.2644 58.2426 56.184C58.7734 56.184 59.288 55.6211 60.237 55.0742C60.623 55.3476 61.5236 56.0232 62.4243 56.6826C62.3761 56.7952 62.3118 56.9078 62.2635 57.0365C61.1377 56.9078 60.0118 56.6987 58.8698 56.6665C53.5301 56.5539 50.3134 61.2022 52.0504 66.4938C52.8385 68.9064 54.672 69.9358 57.0846 69.3246C57.6475 69.1798 58.2104 69.0512 58.7733 68.9225L58.7251 68.8582V68.8742Z" fill="url(#paint6_linear_1669_4243)"/>
<path d="M41.1945 126.793C43.414 126.536 44.6203 128.224 44.9902 129.897C45.344 131.425 44.8454 133.339 44.2021 134.835C43.9287 135.478 42.2881 135.816 41.3231 135.687C40.7923 135.623 40.1169 134.401 39.9882 133.596C39.7148 131.908 40.7763 131.087 42.4007 131.554C42.8189 131.666 43.2371 131.779 43.6392 131.891C44.7007 129.672 44.1699 128.562 41.2427 126.745L41.1945 126.793Z" fill="url(#paint7_linear_1669_4243)"/>
<path d="M103.068 126.729C101.235 127.838 99.6425 129.109 100.286 131.908C100.865 131.779 101.347 131.715 101.798 131.538C103.229 131.007 104.114 131.489 104.323 133.066C104.516 134.545 104.017 135.639 102.457 135.88C100.463 136.186 99.0796 134.561 98.9992 131.875C98.9188 129.109 100.688 126.905 103.101 126.777L103.052 126.729H103.068Z" fill="url(#paint8_linear_1669_4243)"/>
<path d="M96.0879 214.29C97.2298 213.148 98.9025 211.974 99.9319 210.349C101.122 208.452 100.141 205.846 98.2431 205.524C97.2942 205.363 95.8788 205.878 95.2837 206.634C94.9138 207.084 95.718 208.548 95.9753 209.497C94.9299 209.642 94.2061 209.063 94.0292 207.551C93.8362 205.91 94.9138 204.495 96.4739 204.334C98.613 204.109 100.527 205.396 101.074 207.438C101.701 209.77 100.591 212.633 98.613 213.502C97.6158 213.936 96.5382 214.161 96.1039 214.29H96.0879Z" fill="url(#paint9_linear_1669_4243)"/>
<path d="M56.7471 50.3144C56.2806 46.8724 57.8568 43.8004 60.4141 42.9479C62.7623 42.1598 65.5127 43.3018 66.4295 45.8752C66.8476 47.0654 66.719 48.8507 66.1239 49.9444C65.6253 50.8612 64.1134 51.199 62.7624 51.392C64.3868 50.4752 65.9952 49.7032 65.77 47.4354C65.577 45.5214 64.7246 44.0899 62.7945 43.6074C60.6876 43.0766 59.1114 44.0738 58.1464 45.827C57.4387 47.0976 57.2457 48.6738 56.7471 50.3144Z" fill="url(#paint10_linear_1669_4243)"/>
<path d="M81.7257 51.1501C79.3936 51.6648 77.93 50.7641 77.5118 48.2871C77.1097 45.955 79.1523 43.1724 81.5327 42.8186C85.3445 42.2557 88.1109 45.4724 87.7088 49.4291C87.1298 48.1906 86.583 46.4214 85.5697 45.006C84.1061 42.9794 81.1789 42.8025 79.7957 44.6843C79.0397 45.7137 78.4607 47.5151 78.8145 48.6249C79.1523 49.7186 80.7768 50.378 81.7257 51.1501Z" fill="url(#paint11_linear_1669_4243)"/>
<path d="M48.0459 213.92C44.5396 213.486 42.8026 211.331 43.1725 208.194C43.462 205.637 45.6172 203.948 48.0619 204.366C49.6381 204.64 50.6353 206.071 50.2332 207.76C49.9598 208.902 49.5899 210.173 48.1584 209.674C48.5766 208.629 49.3647 207.599 49.2038 206.795C49.0752 206.168 47.7081 205.299 47.0165 205.412C46.0193 205.589 44.8452 206.345 44.3145 207.229C43.2851 208.95 44.218 211.347 46.1802 212.794C46.6948 213.18 47.2739 213.454 48.0459 213.936V213.92Z" fill="url(#paint12_linear_1669_4243)"/>
<path d="M27.0244 125.008C26.172 123.384 25.2231 121.968 23.1483 122.419C23.0678 122.531 23.0035 122.596 23.0035 122.66C23.0679 123.915 23.2126 125.346 21.5881 125.459C21.1056 125.491 20.1889 124.461 20.1406 123.85C20.012 122.306 20.5749 120.939 22.3119 120.633C24.4671 120.247 26.6223 122.161 27.0244 125.008Z" fill="url(#paint13_linear_1669_4243)"/>
<path d="M33.5544 199.637C31.5761 199.235 31.2061 197.45 31.367 195.954C31.5117 194.506 32.4607 193.107 33.2005 191.788C33.297 191.627 34.3746 192.078 35.0019 192.238C34.7606 193.01 34.6481 193.895 34.1977 194.506C33.9886 194.78 33.1362 194.555 32.5732 194.555C31.7691 196.533 32.1712 198.206 33.49 199.685L33.5383 199.637H33.5544Z" fill="url(#paint14_linear_1669_4243)"/>
<path d="M58.7733 68.9384C58.8859 68.5041 58.9824 68.0699 59.1433 67.6517C60.3495 64.3706 59.5614 63.2769 55.2671 63.3894C56.1999 62.4083 56.8433 61.2664 57.2936 61.3468C58.2265 61.5076 59.3845 62.1027 59.8831 62.9069C61.025 64.7405 60.4139 67.1209 58.7251 68.8741L58.7733 68.9384Z" fill="url(#paint15_linear_1669_4243)"/>
<path d="M85.215 68.3757C83.6067 66.2205 83.478 63.5023 85.1346 62.0226C85.6976 61.524 86.743 61.331 87.4828 61.4596C87.9332 61.54 88.2227 62.5373 88.7695 63.4219C84.5717 63.2128 84.3144 63.647 85.1668 68.424L85.215 68.3757Z" fill="url(#paint16_linear_1669_4243)"/>
<path d="M35.292 121.904C34.8095 121.791 34.3109 121.727 33.8445 121.55C31.3193 120.601 29.7753 121.968 30.1613 124.831C30.29 124.895 30.4187 124.992 30.5473 125.024C31.1585 125.104 31.7697 125.169 32.3809 125.249C32.2361 125.651 32.0592 126.423 31.9466 126.407C31.2068 126.359 30.2417 126.375 29.8075 125.908C28.3599 124.332 29.5984 120.906 31.7536 120.762C32.8795 120.681 34.0696 121.55 35.2437 121.984L35.292 121.92V121.904Z" fill="url(#paint17_linear_1669_4243)"/>
<path d="M44.7166 194.248C43.7195 192.897 43.8481 191.53 45.183 191.032C46.1159 190.694 47.7082 190.903 48.4159 191.562C49.783 192.817 49.8473 194.57 48.4481 196.194C48.6411 194.409 49.59 192.318 46.9201 191.723C44.9418 191.273 44.974 192.865 44.7166 194.248Z" fill="url(#paint18_linear_1669_4243)"/>
<path d="M38.4438 150.275C40.2613 150.5 42.0948 150.838 42.2557 153.234C42.3039 153.926 41.7249 154.714 41.2906 155.357C41.1941 155.502 40.1809 155.261 40.1809 155.148C40.1326 154.425 40.1808 153.685 40.3095 152.961C40.3738 152.607 40.6473 152.318 40.9046 151.883C40.0361 151.304 39.248 150.79 38.4599 150.243V150.259L38.4438 150.275Z" fill="url(#paint19_linear_1669_4243)"/>
<path d="M95.5889 195.52C94.6883 193.847 94.6561 192.174 96.184 191.225C97.0043 190.71 98.5001 190.727 99.3847 191.161C99.9637 191.45 99.9798 192.93 100.189 193.67C99.0952 192.882 98.1302 191.627 97.3421 191.74C95.3477 191.997 95.4281 193.847 95.5728 195.52H95.5889Z" fill="url(#paint20_linear_1669_4243)"/>
<path d="M85.8265 84.7811C81.2587 84.4594 80.3902 85.0706 79.6182 89.0434C79.1839 86.6951 79.6504 85.0224 81.2587 83.9769C82.6741 83.0601 84.1377 83.2531 85.8104 84.765L85.8265 84.7811Z" fill="url(#paint21_linear_1669_4243)"/>
<path d="M58.2271 85.0237C59.8515 83.367 61.3795 83.0614 62.9557 83.9943C64.4997 84.895 65.1752 86.3586 64.8214 88.4495C63.6151 84.7342 62.6983 84.2516 58.2271 85.0397V85.0237Z" fill="url(#paint22_linear_1669_4243)"/>
<path d="M103.744 150.436C103.937 151.61 104.065 152.221 104.114 152.849C104.162 153.572 104.162 154.296 104.049 155.004C104.033 155.116 103.004 155.261 102.924 155.116C102.57 154.409 102.087 153.556 102.232 152.881C102.409 152.044 103.149 151.337 103.744 150.436Z" fill="url(#paint23_linear_1669_4243)"/>
<path d="M33.9562 107.685C36.2079 110.709 38.7652 110.532 41.0008 109.052C42.1106 110.098 43.0274 110.95 43.9441 111.819C44.6196 110.709 45.2952 109.615 46.0993 108.28C48.3832 108.328 50.0077 110.838 49.0427 113.668C47.9329 116.885 45.3274 117.882 42.4162 118.124C36.417 118.606 31.8492 112.092 33.9562 107.685Z" fill="url(#paint24_linear_1669_4243)"/>
<path d="M103.502 109.132C105.673 110.371 108.214 110.773 110.305 107.846C111.608 110.564 110.804 113.298 108.037 116.016C104.965 119.056 99.2556 118.863 96.4088 115.614C94.8487 113.845 94.6235 110.918 96.1032 109.309C96.7144 108.65 97.6955 108.36 98.0494 108.151C99.0305 109.663 99.706 110.725 100.398 111.802C101.314 111.014 102.215 110.226 103.502 109.116V109.132Z" fill="url(#paint25_linear_1669_4243)"/>
<path d="M54.479 187.012C57.3741 183.151 59.9313 179.806 62.3921 176.38C63.4537 174.916 64.3382 173.292 65.2872 171.748C67.0725 168.853 67.2655 168.772 70.8039 169.496C70.8361 169.705 70.9647 169.979 70.8843 170.14C68.1501 175.495 65.3998 180.835 62.6334 186.175C62.4404 186.529 61.9901 186.963 61.6523 186.979C59.4167 187.044 57.1811 187.012 54.479 187.012Z" fill="url(#paint26_linear_1669_4243)"/>
<path d="M89.8795 187.092C87.2418 187.092 85.1348 187.124 83.044 187.059C82.674 187.059 82.1594 186.738 81.9503 186.4C78.5727 181.108 75.565 175.608 73.2329 169.689C76.6909 168.579 77.2699 168.981 79.0874 171.78C81.8216 175.945 84.8292 179.934 87.7082 183.987C88.3355 184.872 88.9467 185.773 89.8635 187.092H89.8795Z" fill="url(#paint27_linear_1669_4243)"/>
<path d="M102.038 107.235C99.336 104.983 99.4647 104.726 100.333 101.444C100.816 99.627 100.414 97.5683 100.414 95.5739C103.373 94.9305 107.442 97.5039 108.552 101.155C109.083 102.908 109.26 104.903 109.067 106.736C108.906 108.345 107.635 109.551 105.914 109.229C104.113 108.891 103.502 107.428 103.711 105.594C103.743 105.321 103.711 105.031 103.244 104.597C102.874 105.417 102.505 106.238 102.054 107.251L102.038 107.235Z" fill="url(#paint28_linear_1669_4243)"/>
<path d="M44.4756 95.397C42.8673 98.2921 43.784 100.689 44.6525 103.294C45.0064 104.324 43.5106 106.045 42.5938 108.007C41.8862 106.414 41.5323 105.594 40.9372 104.275C40.6155 108.184 39.7631 109.358 37.817 109.165C35.8387 108.972 34.8737 107.219 35.0667 104.211C35.3723 99.3054 39.1359 95.5417 44.4756 95.397Z" fill="url(#paint29_linear_1669_4243)"/>
<path d="M77.2536 123.48C77.2857 126.649 75.1949 128.949 72.2516 128.981C69.3726 129.013 67.153 126.826 67.1048 123.898C67.0404 120.649 69.4369 117.786 72.2033 117.819C74.7928 117.851 77.2214 120.569 77.2536 123.464V123.48Z" fill="url(#paint30_linear_1669_4243)"/>
<defs>
<linearGradient id="paint0_linear_1669_4243" x1="153.582" y1="71.1884" x2="-4.09355" y2="209.886" gradientUnits="userSpaceOnUse">
<stop offset="0.00729019" stop-color="#5F3313"/>
<stop offset="0.2495" stop-color="#CC8F12"/>
<stop offset="0.4921" stop-color="#2E1F08"/>
<stop offset="0.7434" stop-color="#CC8F12"/>
<stop offset="1" stop-color="#644412"/>
</linearGradient>
<linearGradient id="paint1_linear_1669_4243" x1="70.7745" y1="-7.51485" x2="70.7745" y2="257.897" gradientUnits="userSpaceOnUse">
<stop stop-color="#77501F"/>
<stop offset="0.35" stop-color="#E0B253"/>
<stop offset="0.55" stop-color="#D6A534"/>
<stop offset="0.66" stop-color="#E0B25A"/>
<stop offset="0.76" stop-color="#BC9141"/>
<stop offset="1" stop-color="#785521"/>
</linearGradient>
<linearGradient id="paint2_linear_1669_4243" x1="124.992" y1="121.191" x2="116.787" y2="128.768" gradientUnits="userSpaceOnUse">
<stop offset="0.00729019" stop-color="#5F3313"/>
<stop offset="0.2495" stop-color="#CC8F12"/>
<stop offset="0.4921" stop-color="#2E1F08"/>
<stop offset="0.7434" stop-color="#CC8F12"/>
<stop offset="1" stop-color="#644412"/>
</linearGradient>
<linearGradient id="paint3_linear_1669_4243" x1="122.339" y1="180.14" x2="117.619" y2="182.584" gradientUnits="userSpaceOnUse">
<stop offset="0.00729019" stop-color="#5F3313"/>
<stop offset="0.2495" stop-color="#CC8F12"/>
<stop offset="0.4921" stop-color="#2E1F08"/>
<stop offset="0.7434" stop-color="#CC8F12"/>
<stop offset="1" stop-color="#644412"/>
</linearGradient>
<linearGradient id="paint4_linear_1669_4243" x1="75.3587" y1="196.436" x2="65.1627" y2="199.231" gradientUnits="userSpaceOnUse">
<stop offset="0.00729019" stop-color="#5F3313"/>
<stop offset="0.2495" stop-color="#CC8F12"/>
<stop offset="0.4921" stop-color="#2E1F08"/>
<stop offset="0.7434" stop-color="#CC8F12"/>
<stop offset="1" stop-color="#644412"/>
</linearGradient>
<linearGradient id="paint5_linear_1669_4243" x1="95.9352" y1="55.5805" x2="79.3901" y2="71.3679" gradientUnits="userSpaceOnUse">
<stop offset="0.00729019" stop-color="#5F3313"/>
<stop offset="0.2495" stop-color="#CC8F12"/>
<stop offset="0.4921" stop-color="#2E1F08"/>
<stop offset="0.7434" stop-color="#CC8F12"/>
<stop offset="1" stop-color="#644412"/>
</linearGradient>
<linearGradient id="paint6_linear_1669_4243" x1="63.9992" y1="56.3787" x2="48.5489" y2="69.1733" gradientUnits="userSpaceOnUse">
<stop offset="0.00729019" stop-color="#5F3313"/>
<stop offset="0.2495" stop-color="#CC8F12"/>
<stop offset="0.4921" stop-color="#2E1F08"/>
<stop offset="0.7434" stop-color="#CC8F12"/>
<stop offset="1" stop-color="#644412"/>
</linearGradient>
<linearGradient id="paint7_linear_1669_4243" x1="45.7843" y1="127.502" x2="37.6491" y2="132.487" gradientUnits="userSpaceOnUse">
<stop offset="0.00729019" stop-color="#5F3313"/>
<stop offset="0.2495" stop-color="#CC8F12"/>
<stop offset="0.4921" stop-color="#2E1F08"/>
<stop offset="0.7434" stop-color="#CC8F12"/>
<stop offset="1" stop-color="#644412"/>
</linearGradient>
<linearGradient id="paint8_linear_1669_4243" x1="105.066" y1="127.504" x2="96.6775" y2="132.72" gradientUnits="userSpaceOnUse">
<stop offset="0.00729019" stop-color="#5F3313"/>
<stop offset="0.2495" stop-color="#CC8F12"/>
<stop offset="0.4921" stop-color="#2E1F08"/>
<stop offset="0.7434" stop-color="#CC8F12"/>
<stop offset="1" stop-color="#644412"/>
</linearGradient>
<linearGradient id="paint9_linear_1669_4243" x1="102.198" y1="205.151" x2="92.3673" y2="212.746" gradientUnits="userSpaceOnUse">
<stop offset="0.00729019" stop-color="#5F3313"/>
<stop offset="0.2495" stop-color="#CC8F12"/>
<stop offset="0.4921" stop-color="#2E1F08"/>
<stop offset="0.7434" stop-color="#CC8F12"/>
<stop offset="1" stop-color="#644412"/>
</linearGradient>
<linearGradient id="paint10_linear_1669_4243" x1="67.9857" y1="43.4359" x2="59.321" y2="54.0611" gradientUnits="userSpaceOnUse">
<stop offset="0.00729019" stop-color="#5F3313"/>
<stop offset="0.2495" stop-color="#CC8F12"/>
<stop offset="0.4921" stop-color="#2E1F08"/>
<stop offset="0.7434" stop-color="#CC8F12"/>
<stop offset="1" stop-color="#644412"/>
</linearGradient>
<linearGradient id="paint11_linear_1669_4243" x1="89.0959" y1="43.4751" x2="80.6711" y2="54.2858" gradientUnits="userSpaceOnUse">
<stop offset="0.00729019" stop-color="#5F3313"/>
<stop offset="0.2495" stop-color="#CC8F12"/>
<stop offset="0.4921" stop-color="#2E1F08"/>
<stop offset="0.7434" stop-color="#CC8F12"/>
<stop offset="1" stop-color="#644412"/>
</linearGradient>
<linearGradient id="paint12_linear_1669_4243" x1="51.266" y1="205.116" x2="41.7107" y2="212.719" gradientUnits="userSpaceOnUse">
<stop offset="0.00729019" stop-color="#5F3313"/>
<stop offset="0.2495" stop-color="#CC8F12"/>
<stop offset="0.4921" stop-color="#2E1F08"/>
<stop offset="0.7434" stop-color="#CC8F12"/>
<stop offset="1" stop-color="#644412"/>
</linearGradient>
<linearGradient id="paint13_linear_1669_4243" x1="27.929" y1="120.996" x2="23.3564" y2="127.887" gradientUnits="userSpaceOnUse">
<stop offset="0.00729019" stop-color="#5F3313"/>
<stop offset="0.2495" stop-color="#CC8F12"/>
<stop offset="0.4921" stop-color="#2E1F08"/>
<stop offset="0.7434" stop-color="#CC8F12"/>
<stop offset="1" stop-color="#644412"/>
</linearGradient>
<linearGradient id="paint14_linear_1669_4243" x1="35.4827" y1="192.424" x2="29.0831" y2="195.575" gradientUnits="userSpaceOnUse">
<stop offset="0.00729019" stop-color="#5F3313"/>
<stop offset="0.2495" stop-color="#CC8F12"/>
<stop offset="0.4921" stop-color="#2E1F08"/>
<stop offset="0.7434" stop-color="#CC8F12"/>
<stop offset="1" stop-color="#644412"/>
</linearGradient>
<linearGradient id="paint15_linear_1669_4243" x1="61.1483" y1="61.9841" x2="53.7877" y2="67.349" gradientUnits="userSpaceOnUse">
<stop offset="0.00729019" stop-color="#5F3313"/>
<stop offset="0.2495" stop-color="#CC8F12"/>
<stop offset="0.4921" stop-color="#2E1F08"/>
<stop offset="0.7434" stop-color="#CC8F12"/>
<stop offset="1" stop-color="#644412"/>
</linearGradient>
<linearGradient id="paint16_linear_1669_4243" x1="89.4013" y1="62.0122" x2="82.6037" y2="66.9938" gradientUnits="userSpaceOnUse">
<stop offset="0.00729019" stop-color="#5F3313"/>
<stop offset="0.2495" stop-color="#CC8F12"/>
<stop offset="0.4921" stop-color="#2E1F08"/>
<stop offset="0.7434" stop-color="#CC8F12"/>
<stop offset="1" stop-color="#644412"/>
</linearGradient>
<linearGradient id="paint17_linear_1669_4243" x1="36.0928" y1="121.233" x2="30.3971" y2="127.79" gradientUnits="userSpaceOnUse">
<stop offset="0.00729019" stop-color="#5F3313"/>
<stop offset="0.2495" stop-color="#CC8F12"/>
<stop offset="0.4921" stop-color="#2E1F08"/>
<stop offset="0.7434" stop-color="#CC8F12"/>
<stop offset="1" stop-color="#644412"/>
</linearGradient>
<linearGradient id="paint18_linear_1669_4243" x1="50.1786" y1="191.321" x2="44.7776" y2="197.165" gradientUnits="userSpaceOnUse">
<stop offset="0.00729019" stop-color="#5F3313"/>
<stop offset="0.2495" stop-color="#CC8F12"/>
<stop offset="0.4921" stop-color="#2E1F08"/>
<stop offset="0.7434" stop-color="#CC8F12"/>
<stop offset="1" stop-color="#644412"/>
</linearGradient>
<linearGradient id="paint19_linear_1669_4243" x1="42.7585" y1="150.678" x2="37.6532" y2="154.697" gradientUnits="userSpaceOnUse">
<stop offset="0.00729019" stop-color="#5F3313"/>
<stop offset="0.2495" stop-color="#CC8F12"/>
<stop offset="0.4921" stop-color="#2E1F08"/>
<stop offset="0.7434" stop-color="#CC8F12"/>
<stop offset="1" stop-color="#644412"/>
</linearGradient>
<linearGradient id="paint20_linear_1669_4243" x1="100.874" y1="191.232" x2="96.1771" y2="196.812" gradientUnits="userSpaceOnUse">
<stop offset="0.00729019" stop-color="#5F3313"/>
<stop offset="0.2495" stop-color="#CC8F12"/>
<stop offset="0.4921" stop-color="#2E1F08"/>
<stop offset="0.7434" stop-color="#CC8F12"/>
<stop offset="1" stop-color="#644412"/>
</linearGradient>
<linearGradient id="paint21_linear_1669_4243" x1="86.6603" y1="83.8974" x2="81.0373" y2="90.6742" gradientUnits="userSpaceOnUse">
<stop offset="0.00729019" stop-color="#5F3313"/>
<stop offset="0.2495" stop-color="#CC8F12"/>
<stop offset="0.4921" stop-color="#2E1F08"/>
<stop offset="0.7434" stop-color="#CC8F12"/>
<stop offset="1" stop-color="#644412"/>
</linearGradient>
<linearGradient id="paint22_linear_1669_4243" x1="65.7898" y1="83.8933" x2="61.0324" y2="90.699" gradientUnits="userSpaceOnUse">
<stop offset="0.00729019" stop-color="#5F3313"/>
<stop offset="0.2495" stop-color="#CC8F12"/>
<stop offset="0.4921" stop-color="#2E1F08"/>
<stop offset="0.7434" stop-color="#CC8F12"/>
<stop offset="1" stop-color="#644412"/>
</linearGradient>
<linearGradient id="paint23_linear_1669_4243" x1="104.398" y1="150.836" x2="100.866" y2="152.374" gradientUnits="userSpaceOnUse">
<stop offset="0.00729019" stop-color="#5F3313"/>
<stop offset="0.2495" stop-color="#CC8F12"/>
<stop offset="0.4921" stop-color="#2E1F08"/>
<stop offset="0.7434" stop-color="#CC8F12"/>
<stop offset="1" stop-color="#644412"/>
</linearGradient>
<linearGradient id="paint24_linear_1669_4243" x1="51.4093" y1="108.569" x2="41.8797" y2="123.978" gradientUnits="userSpaceOnUse">
<stop offset="0.00729019" stop-color="#5F3313"/>
<stop offset="0.2495" stop-color="#CC8F12"/>
<stop offset="0.4921" stop-color="#2E1F08"/>
<stop offset="0.7434" stop-color="#CC8F12"/>
<stop offset="1" stop-color="#644412"/>
</linearGradient>
<linearGradient id="paint25_linear_1669_4243" x1="112.985" y1="108.718" x2="103.605" y2="123.995" gradientUnits="userSpaceOnUse">
<stop offset="0.00729019" stop-color="#5F3313"/>
<stop offset="0.2495" stop-color="#CC8F12"/>
<stop offset="0.4921" stop-color="#2E1F08"/>
<stop offset="0.7434" stop-color="#CC8F12"/>
<stop offset="1" stop-color="#644412"/>
</linearGradient>
<linearGradient id="paint26_linear_1669_4243" x1="73.0639" y1="170.626" x2="54.8425" y2="188.429" gradientUnits="userSpaceOnUse">
<stop offset="0.00729019" stop-color="#5F3313"/>
<stop offset="0.2495" stop-color="#CC8F12"/>
<stop offset="0.4921" stop-color="#2E1F08"/>
<stop offset="0.7434" stop-color="#CC8F12"/>
<stop offset="1" stop-color="#644412"/>
</linearGradient>
<linearGradient id="paint27_linear_1669_4243" x1="92.0613" y1="170.634" x2="73.7569" y2="188.674" gradientUnits="userSpaceOnUse">
<stop offset="0.00729019" stop-color="#5F3313"/>
<stop offset="0.2495" stop-color="#CC8F12"/>
<stop offset="0.4921" stop-color="#2E1F08"/>
<stop offset="0.7434" stop-color="#CC8F12"/>
<stop offset="1" stop-color="#644412"/>
</linearGradient>
<linearGradient id="paint28_linear_1669_4243" x1="110.37" y1="96.6409" x2="97.0292" y2="106.275" gradientUnits="userSpaceOnUse">
<stop offset="0.00729019" stop-color="#5F3313"/>
<stop offset="0.2495" stop-color="#CC8F12"/>
<stop offset="0.4921" stop-color="#2E1F08"/>
<stop offset="0.7434" stop-color="#CC8F12"/>
<stop offset="1" stop-color="#644412"/>
</linearGradient>
<linearGradient id="paint29_linear_1669_4243" x1="45.9722" y1="96.5612" x2="32.5179" y2="106.601" gradientUnits="userSpaceOnUse">
<stop offset="0.00729019" stop-color="#5F3313"/>
<stop offset="0.2495" stop-color="#CC8F12"/>
<stop offset="0.4921" stop-color="#2E1F08"/>
<stop offset="0.7434" stop-color="#CC8F12"/>
<stop offset="1" stop-color="#644412"/>
</linearGradient>
<linearGradient id="paint30_linear_1669_4243" x1="78.5843" y1="118.761" x2="67.2273" y2="129.756" gradientUnits="userSpaceOnUse">
<stop offset="0.00729019" stop-color="#5F3313"/>
<stop offset="0.2495" stop-color="#CC8F12"/>
<stop offset="0.4921" stop-color="#2E1F08"/>
<stop offset="0.7434" stop-color="#CC8F12"/>
<stop offset="1" stop-color="#644412"/>
</linearGradient>
</defs>
</svg>
