<svg width="119" height="126" viewBox="0 0 119 126" fill="none" xmlns="http://www.w3.org/2000/svg">
<path d="M26.9274 35.8195C27.42 38.9549 28.7567 41.9577 30.9375 44.8278C33.1666 47.6904 36.5099 50.7239 40.9675 53.9283C46.4259 49.6604 50.1465 45.8137 52.1291 42.3883C54.1118 38.9629 54.7962 35.2967 54.1824 31.3895C53.6065 27.7235 51.9142 24.9744 49.1056 23.1419C46.2969 21.3095 42.939 20.7002 39.0319 21.314C34.7388 21.9885 31.4921 23.6601 29.2917 26.3288C27.1396 28.99 26.3515 32.1535 26.9274 35.8195ZM49.6828 108.461C60.6325 106.741 69.3166 101.768 75.7351 93.5438L40.2175 68.5036C34.1898 73.5529 30.2518 77.9033 28.4035 81.5547C26.6035 85.1986 26.052 89.2393 26.7492 93.6771C27.6055 99.1278 30.1484 103.201 34.3779 105.898C38.5998 108.546 43.7015 109.401 49.6828 108.461ZM13.2147 96.2482C12.2296 89.9774 12.9816 84.2246 15.4708 78.9897C17.96 73.7548 23.176 67.9433 31.1187 61.5551C26.7452 57.942 23.5731 55.0546 21.6024 52.8928C19.6724 50.6753 18.0724 48.3564 16.8025 45.9363C15.5251 43.4679 14.6628 40.8108 14.2157 37.9648C13.0942 30.8258 14.5953 24.807 18.719 19.9085C22.8427 15.0099 29.2217 11.8824 37.8561 10.526C45.8151 9.27562 52.38 10.3202 57.5508 13.6598C62.7698 16.9917 65.94 22.2272 67.0616 29.3662C67.8876 34.624 66.9812 39.7091 64.3425 44.6215C61.752 49.5263 57.0428 54.7887 50.2151 60.4086L83.1146 83.4135C86.7822 77.4992 89.0239 69.1152 89.8395 58.2614L103.008 56.1926C101.839 70.4629 98.4659 81.8668 92.8873 90.4044L117.829 108.061L100.175 110.834L85.3404 100.413C80.6143 106.197 75.4794 110.636 69.9356 113.731C64.4399 116.819 58.1468 118.92 51.056 120.034C40.6851 121.663 32.1353 120.411 25.4066 116.278C18.726 112.138 14.6621 105.461 13.2147 96.2482Z" fill="#E1B01B"/>
</svg>
