<svg width="193" height="146" viewBox="0 0 193 146" fill="none" xmlns="http://www.w3.org/2000/svg">
<rect x="171.621" y="85.1001" width="91.6615" height="54.6443" transform="rotate(180 171.621 85.1001)" fill="url(#paint0_radial_2748_2999)"/>
<rect width="91.6615" height="54.6443" transform="matrix(-1 0 0 1 143.418 30.4561)" fill="url(#paint1_linear_2748_2999)"/>
<rect x="143.418" y="137.982" width="91.6615" height="54.6443" transform="rotate(180 143.418 137.982)" fill="url(#paint2_linear_2748_2999)"/>
<path d="M66.2981 78.784C66.2981 86.7705 69.4708 94.4299 75.1181 100.077C80.7654 105.725 88.4248 108.897 96.4113 108.897C104.398 108.897 112.057 105.725 117.704 100.077C123.352 94.4299 126.524 86.7705 126.524 78.784C126.524 70.7975 123.352 63.1381 117.704 57.4908C112.057 51.8435 104.398 48.6709 96.4113 48.6709C88.4248 48.6709 80.7654 51.8435 75.1181 57.4908C69.4708 63.1381 66.2981 70.7975 66.2981 78.784Z" fill="url(#paint3_linear_2748_2999)"/>
<path d="M168.683 24.5803C175.072 24.5803 181.2 27.1184 185.717 31.6362C190.235 36.1541 192.773 42.2816 192.773 48.6708V120.942C192.773 127.332 190.235 133.459 185.717 137.977C181.2 142.495 175.072 145.033 168.683 145.033H24.1398C17.7506 145.033 11.6231 142.495 7.10527 137.977C2.58742 133.459 0.0493164 127.332 0.0493164 120.942V48.6708C0.0493164 42.2816 2.58742 36.1541 7.10527 31.6362C11.6231 27.1184 17.7506 24.5803 24.1398 24.5803H38.2569C44.6456 24.5789 50.7721 22.0399 55.2889 17.5217L65.2623 7.54827C69.7791 3.03011 75.9057 0.491111 82.2943 0.489746H110.528C116.917 0.491111 123.044 3.03011 127.56 7.54827L137.534 17.5217C142.051 22.0399 148.177 24.5789 154.566 24.5803H168.683ZM162.66 48.6708C164.258 48.6708 165.789 48.0363 166.919 46.9068C168.048 45.7773 168.683 44.2454 168.683 42.6481C168.683 41.0508 168.048 39.519 166.919 38.3895C165.789 37.26 164.258 36.6255 162.66 36.6255C161.063 36.6255 159.531 37.26 158.402 38.3895C157.272 39.519 156.638 41.0508 156.638 42.6481C156.638 44.2454 157.272 45.7773 158.402 46.9068C159.531 48.0363 161.063 48.6708 162.66 48.6708ZM54.253 78.7839C54.253 89.965 58.6947 100.688 66.6009 108.594C74.5071 116.501 85.2303 120.942 96.4114 120.942C107.592 120.942 118.316 116.501 126.222 108.594C134.128 100.688 138.57 89.965 138.57 78.7839C138.57 67.6028 134.128 56.8797 126.222 48.9734C118.316 41.0672 107.592 36.6255 96.4114 36.6255C85.2303 36.6255 74.5071 41.0672 66.6009 48.9734C58.6947 56.8797 54.253 67.6028 54.253 78.7839Z" fill="url(#paint4_linear_2748_2999)"/>
<mask id="mask0_2748_2999" style="mask-type:alpha" maskUnits="userSpaceOnUse" x="0" y="0" width="193" height="146">
<path d="M66.2981 78.784C66.2981 86.7705 69.4708 94.4299 75.1181 100.077C80.7654 105.725 88.4248 108.897 96.4113 108.897C104.398 108.897 112.057 105.725 117.704 100.077C123.352 94.4299 126.524 86.7705 126.524 78.784C126.524 70.7975 123.352 63.1381 117.704 57.4908C112.057 51.8435 104.398 48.6709 96.4113 48.6709C88.4248 48.6709 80.7654 51.8435 75.1181 57.4908C69.4708 63.1381 66.2981 70.7975 66.2981 78.784Z" fill="black"/>
<path d="M168.683 24.5803C175.072 24.5803 181.2 27.1184 185.717 31.6362C190.235 36.1541 192.773 42.2816 192.773 48.6708V120.942C192.773 127.332 190.235 133.459 185.717 137.977C181.2 142.495 175.072 145.033 168.683 145.033H24.1398C17.7506 145.033 11.6231 142.495 7.10527 137.977C2.58742 133.459 0.0493164 127.332 0.0493164 120.942V48.6708C0.0493164 42.2816 2.58742 36.1541 7.10527 31.6362C11.6231 27.1184 17.7506 24.5803 24.1398 24.5803H38.2569C44.6456 24.5789 50.7721 22.0399 55.2889 17.5217L65.2623 7.54827C69.7791 3.03011 75.9057 0.491111 82.2943 0.489746H110.528C116.917 0.491111 123.044 3.03011 127.56 7.54827L137.534 17.5217C142.051 22.0399 148.177 24.5789 154.566 24.5803H168.683ZM162.66 48.6708C164.258 48.6708 165.789 48.0363 166.919 46.9068C168.048 45.7773 168.683 44.2454 168.683 42.6481C168.683 41.0508 168.048 39.519 166.919 38.3895C165.789 37.26 164.258 36.6255 162.66 36.6255C161.063 36.6255 159.531 37.26 158.402 38.3895C157.272 39.519 156.638 41.0508 156.638 42.6481C156.638 44.2454 157.272 45.7773 158.402 46.9068C159.531 48.0363 161.063 48.6708 162.66 48.6708ZM54.253 78.7839C54.253 89.965 58.6947 100.688 66.6009 108.594C74.5071 116.501 85.2303 120.942 96.4114 120.942C107.592 120.942 118.316 116.501 126.222 108.594C134.128 100.688 138.57 89.965 138.57 78.7839C138.57 67.6028 134.128 56.8797 126.222 48.9734C118.316 41.0672 107.592 36.6255 96.4114 36.6255C85.2303 36.6255 74.5071 41.0672 66.6009 48.9734C58.6947 56.8797 54.253 67.6028 54.253 78.7839Z" fill="black"/>
</mask>
<g mask="url(#mask0_2748_2999)">
<path d="M120.457 17.3272C128.49 7.38732 135.917 -1.8121 143.613 -11.3481C135.804 -24.5863 117.091 -30.3527 102.977 -22.163C95.9543 -18.0794 89.6941 -12.5148 83.6807 -6.95032C71.0929 4.71724 56.5306 9.85547 39.5226 7.92583C26.0597 6.40007 14.5041 10.1247 4.63136 19.5485C-5.84722 29.5557 -18.5023 34.0432 -32.9973 34.3573C-49.4668 34.6939 -64.3208 40.1462 -78.0305 49.4803C-89.6759 57.4008 -101.949 64.4237 -116.579 73.4885C-105.786 77.5497 -96.0034 82.8675 -85.6146 84.7746C-63.715 88.791 -43.7451 96.0159 -27.9712 112.193C-23.8874 116.389 -20.1403 121.415 -17.8516 126.755C-11.0977 142.507 1.31053 150.494 17.3762 149.26C30.323 148.273 43.8531 144.818 55.4536 139.051C68.4004 132.634 70.6217 118.274 63.3967 107.392C57.2262 98.1026 34.4291 88.8583 27.2041 96.0832C17.8249 105.462 26.2392 112.552 32.0058 113.024C35.1696 113.293 40.1957 110.892 43.4941 110.87C46.0745 130.637 25.2968 128.618 17.4884 124.646C9.27605 120.473 5.82058 113.248 7.68294 104.093C8.33365 100.907 10.1736 97.9904 12.7988 91.7976C5.28207 91.4835 -23.3938 108.11 -42.4662 70.1453C-39.2575 69.6068 -13.7903 77.5273 7.00979 50.1758C18.7 36.4665 32.7912 30.7898 50.1807 31.6199C60.8612 32.136 69.612 28.6133 77.3307 20.8948C92.9476 5.32307 102.574 4.78455 120.457 17.3272Z" fill="url(#paint5_linear_2748_2999)"/>
<path d="M289.146 54.55C280.282 46.5398 270.971 39.8759 260.111 40.3022C239.939 41.1099 224.255 32.0676 210.926 15.1272C200.964 2.44991 186.559 -5.87445 169.259 -6.05395C153.238 -6.21101 137.083 8.71001 136.185 24.6632C135.624 34.7152 140.269 42.2542 148.459 47.8636C155.123 52.4409 176.641 60.6307 179.895 41.267C179.177 34.0645 173.5 31.2374 170.044 30.5642C161.877 28.9936 159.476 37.5423 155.572 37.2058C154.607 37.116 156.873 20.1308 165.938 19.1211C182.789 17.2363 196.588 31.013 185.886 53.2935C192.235 55.111 215.616 55.4476 227.216 64.0636C225.13 68.0126 223.088 71.9617 220.934 75.8882C210.455 94.9378 193.761 100.188 173.41 97.204C154.943 94.489 139.327 99.3356 124.899 111.788C109.708 124.914 102.057 125.543 79.0803 121.908C76.7467 129.469 74.4356 137.031 71.8552 145.378C84.3084 159.603 113.141 163.889 131.339 153.029C136.454 149.977 141.391 146.455 145.878 142.573C158.848 131.332 173.006 124.847 190.867 126.799C202.131 128.033 212.273 123.635 219.61 114.593C225.018 107.929 230.56 101.265 234.958 93.9505C246.782 74.3176 254.703 71.4231 289.146 54.55Z" fill="url(#paint6_linear_2748_2999)"/>
<path d="M211.015 67.6544C195.847 65.7696 178.794 60.1378 169.773 62.6732C151.554 67.7666 129.564 49.6818 120.769 33.796C114.082 21.7021 96.4683 17.0575 85.2044 25.3594C80.7168 28.6578 77.2838 42.6589 53.477 42.7935C41.495 42.8608 31.7345 44.9699 22.49 52.4641C11.8992 61.0353 -7.50971 79.0078 -25.3031 80.4438C-13.9943 91.0119 13.7167 82.4632 27.1122 82.1266C46.0948 81.6554 63.9331 87.0405 74.7034 106.651C77.3511 111.453 89.0189 115.626 95.324 113.158C107.687 108.311 119.871 102.635 131.247 95.8584C142.018 89.4637 152.317 82.9119 165.488 84.5723C182.316 86.7039 202.129 87.938 211.015 67.6544Z" fill="url(#paint7_linear_2748_2999)"/>
<path d="M209.356 70.9756C197.06 71.9179 153.193 67.4529 138.654 61.7313C127.547 57.3559 117.158 54.6185 110.427 42.9734C105.311 34.1105 91.3542 23.9239 83.1194 30.2288C79.8434 32.7194 78.3401 50.131 60.7038 50.5573C51.8183 50.7817 42.8206 48.0219 36.0668 53.6986C28.3481 60.2055 10.5547 73.5334 -2.59403 74.8348C5.91 82.5085 36.4707 79.0307 54.0172 77.2805C68.0186 75.8894 67.3454 85.3805 75.5802 99.7406C77.5996 103.263 86.7992 108.783 90.5688 105.462C110.427 87.9159 115.161 98.6187 123.508 93.4356C131.406 88.5442 134.727 87.8935 143.612 83.6977C165.108 73.511 191.652 92.4708 209.356 70.9756Z" fill="url(#paint8_linear_2748_2999)"/>
<path d="M75.2651 134.788C75.2651 134.788 105.826 153.209 120.725 138.535C135.646 123.883 166.902 110.421 181.173 114.055C195.443 117.69 221.225 102.702 231.322 81.5434C242.474 58.1858 267.874 52.9354 267.874 52.9354C267.874 52.9354 224.613 45.1047 208.727 33.3474C204.06 29.892 187.321 -2.55278 163.761 7.27489C141.525 16.5641 154.068 35.1648 155.526 37.1842C154.965 35.4117 157.478 20.2214 166.027 19.279C182.878 17.3718 196.678 31.171 185.975 53.4515C192.325 55.2465 215.705 55.6055 227.305 64.2216C225.219 68.1481 223.177 72.1196 221.023 76.0237C210.567 95.0733 193.873 100.324 173.521 97.3395C155.055 94.6245 139.438 99.4486 125.01 111.924C109.82 125.027 102.168 125.656 79.1918 122.021L75.2651 134.788Z" fill="url(#paint9_linear_2748_2999)"/>
<path d="M76.8136 129.763C76.8136 129.763 103.425 140.376 116.776 130.997C133.896 118.97 168.316 98.5072 182.587 102.142C196.857 105.777 218.757 89.5546 224.232 79.2557C227.014 74.0277 235.047 58.8823 235.047 58.8823C217.276 47.8879 190.687 50.6253 190.687 50.6253C198.989 39.4065 189.61 16.1611 169.954 16.3182C154.045 16.4528 154.068 35.1433 155.526 37.1627C154.965 35.3901 157.478 20.1999 166.027 19.2575C182.878 17.3503 196.678 31.1494 185.975 53.43C192.325 55.225 215.705 55.584 227.306 64.2C225.219 68.1266 223.177 72.0981 221.023 76.0022C210.567 95.0518 193.873 100.302 173.522 97.318C155.055 94.603 139.438 99.4271 125.011 111.902C109.82 125.006 102.169 125.634 79.192 121.999L76.8136 129.763Z" fill="url(#paint10_linear_2748_2999)"/>
<path d="M-63.1779 87.1742C-48.2791 100.166 -7.28472 104.855 -7.28472 104.855C-7.28472 104.855 -13.7693 109.186 -2.95419 125.049C16.6118 153.769 48.07 139.252 48.1373 123.613C48.1822 113.045 43.5151 110.868 43.5151 110.868C44.6145 131.085 25.3851 128.459 17.5767 124.488C9.36433 120.292 5.90885 113.09 7.77121 103.935C8.39947 100.771 10.2394 97.8321 12.8647 91.6393C5.37034 91.3252 -23.3055 107.951 -42.4003 69.987C-39.1917 69.4485 -13.7245 77.369 7.07563 50.0176C18.7659 36.3082 32.857 30.6315 50.2465 31.4617C60.927 31.9777 69.6778 28.455 77.419 20.7365C93.0134 5.18722 102.617 4.64871 120.433 17.1016L129.341 6.26422L130.148 5.27697C130.148 5.27697 117.336 -17.7889 92.9237 -0.96068C68.5335 15.8675 61.8918 23.2046 27.225 21.1628C2.67778 19.7043 -9.46123 46.4724 -31.8095 55.0885C-53.5296 63.4577 -75.5189 50.6234 -75.5189 50.6234C-75.5189 50.6234 -78.0993 74.2053 -63.1779 87.1742Z" fill="url(#paint11_linear_2748_2999)"/>
<path d="M-25.302 95.9483C-9.10175 107.279 9.07307 95.2303 9.07307 95.2303C9.07307 95.2303 0.815865 110.062 7.39022 120.114C16.0513 133.329 42.4385 134.855 44.6599 124.13C46.7915 113.786 43.5155 110.847 43.5155 110.847C44.615 131.063 25.3856 128.438 17.5771 124.467C9.36479 120.271 5.9093 113.068 7.77166 103.914C8.39993 100.75 10.2399 97.8106 12.8651 91.6178C5.3708 91.3037 -23.3051 107.93 -42.3999 69.9655C-39.1912 69.427 -13.724 77.3475 7.07609 49.9961C18.7663 36.2867 32.8574 30.61 50.2469 31.4401C60.9275 31.9562 69.6783 28.4335 77.4195 20.715C93.0139 5.1657 102.617 4.62719 120.433 17.0801L124.876 11.695C124.876 11.695 118.795 -3.78692 95.7962 4.58231C82.1539 9.54103 73.5601 32.1357 38.8933 30.1836C4.67523 28.254 -0.597715 61.6861 -25.302 65.9941C-48.2337 69.988 -56.5583 63.3465 -56.5583 63.3465C-56.5583 63.3465 -42.8486 83.6749 -25.302 95.9483Z" fill="url(#paint12_linear_2748_2999)"/>
<path d="M175.564 70.5936C168.72 69.741 131.653 64.1989 127.591 65.3208C119.379 67.6319 109.439 59.4646 105.467 52.2845C102.438 46.8322 89.2447 38.8893 84.1513 42.6364C82.1318 44.1172 85.8341 56.2784 75.1087 56.3457C69.7011 56.3682 59.7835 53.9674 56.3954 58.1408C47.6894 68.7762 28.0112 67.587 19.9784 68.2377C25.0718 73.0169 49.821 73.2637 55.8568 73.1066C64.4282 72.8823 73.0668 79.2546 76.8364 88.611C80.2022 96.913 86.9336 96.4642 89.9178 95.8135C118.953 89.688 109.574 79.2321 125.639 75.1934C133.066 73.3759 171.548 79.7482 175.564 70.5936Z" fill="url(#paint13_linear_2748_2999)"/>
</g>
<defs>
<radialGradient id="paint0_radial_2748_2999" cx="0" cy="0" r="1" gradientUnits="userSpaceOnUse" gradientTransform="translate(217.451 112.422) rotate(90) scale(27.3222 45.8307)">
<stop stop-color="#44190E"/>
<stop offset="0.653846" stop-color="#702618"/>
<stop offset="0.9999" stop-color="#91301F"/>
</radialGradient>
<linearGradient id="paint1_linear_2748_2999" x1="103.675" y1="4.61401" x2="56.2524" y2="89.3084" gradientUnits="userSpaceOnUse">
<stop offset="0.00729019" stop-color="#5F3313"/>
<stop offset="0.2495" stop-color="#CC8F12"/>
<stop offset="0.4921" stop-color="#2E1F08"/>
<stop offset="0.7434" stop-color="#CC8F12"/>
<stop offset="1" stop-color="#644412"/>
</linearGradient>
<linearGradient id="paint2_linear_2748_2999" x1="247.093" y1="142.596" x2="199.67" y2="227.291" gradientUnits="userSpaceOnUse">
<stop offset="0.00729019" stop-color="#5F3313"/>
<stop offset="0.2495" stop-color="#CC8F12"/>
<stop offset="0.4921" stop-color="#2E1F08"/>
<stop offset="0.7434" stop-color="#CC8F12"/>
<stop offset="1" stop-color="#644412"/>
</linearGradient>
<linearGradient id="paint3_linear_2748_2999" x1="189.142" y1="43.6963" x2="189.142" y2="164.826" gradientUnits="userSpaceOnUse">
<stop stop-color="#FFC411"/>
<stop offset="0.221154" stop-color="#CD9C1A"/>
<stop offset="0.543269" stop-color="#BD6229"/>
<stop offset="0.822115" stop-color="#5D2F24"/>
<stop offset="1" stop-color="#5D2F24"/>
</linearGradient>
<linearGradient id="paint4_linear_2748_2999" x1="393.149" y1="-11.4494" x2="393.149" y2="279.262" gradientUnits="userSpaceOnUse">
<stop stop-color="#FFC411"/>
<stop offset="0.221154" stop-color="#CD9C1A"/>
<stop offset="0.543269" stop-color="#BD6229"/>
<stop offset="0.822115" stop-color="#5D2F24"/>
<stop offset="1" stop-color="#5D2F24"/>
</linearGradient>
<linearGradient id="paint5_linear_2748_2999" x1="-43.1992" y1="122.328" x2="98.8787" y2="-42.1107" gradientUnits="userSpaceOnUse">
<stop stop-color="#971C07"/>
<stop offset="0.2302" stop-color="#CF8E14"/>
<stop offset="0.4894" stop-color="#971C07"/>
<stop offset="0.7646" stop-color="#CF8E14"/>
<stop offset="1" stop-color="#971C07"/>
</linearGradient>
<linearGradient id="paint6_linear_2748_2999" x1="250.415" y1="-4.81405" x2="98.6874" y2="153.239" gradientUnits="userSpaceOnUse">
<stop stop-color="#5D2F24"/>
<stop offset="0.2302" stop-color="#D19119"/>
<stop offset="0.4894" stop-color="#5D2F24"/>
<stop offset="0.7646" stop-color="#D19119"/>
<stop offset="1" stop-color="#5D2F24"/>
</linearGradient>
<linearGradient id="paint7_linear_2748_2999" x1="27.9054" y1="4.13953" x2="150.511" y2="136.123" gradientUnits="userSpaceOnUse">
<stop stop-color="#5D2F24"/>
<stop offset="0.2302" stop-color="#D19119"/>
<stop offset="0.4894" stop-color="#5D2F24"/>
<stop offset="0.7646" stop-color="#D19119"/>
<stop offset="1" stop-color="#5D2F24"/>
</linearGradient>
<linearGradient id="paint8_linear_2748_2999" x1="39.3501" y1="-12.6678" x2="153.781" y2="140.231" gradientUnits="userSpaceOnUse">
<stop stop-color="#5D2F24"/>
<stop offset="0.2302" stop-color="#BD6229"/>
<stop offset="0.4656" stop-color="#5D2F24"/>
<stop offset="0.7646" stop-color="#BD6229"/>
<stop offset="0.9974" stop-color="#5D2F24"/>
</linearGradient>
<linearGradient id="paint9_linear_2748_2999" x1="181.966" y1="1.60984" x2="166.58" y2="138.159" gradientUnits="userSpaceOnUse">
<stop stop-color="#971C07"/>
<stop offset="0.2302" stop-color="#CF8E14"/>
<stop offset="0.4656" stop-color="#971C07"/>
<stop offset="0.7646" stop-color="#77501F"/>
<stop offset="0.9974" stop-color="#D49824"/>
</linearGradient>
<linearGradient id="paint10_linear_2748_2999" x1="208.453" y1="33.3391" x2="97.1529" y2="149.279" gradientUnits="userSpaceOnUse">
<stop stop-color="#694C38"/>
<stop offset="0.5397" stop-color="#785521"/>
<stop offset="1" stop-color="#77501F"/>
</linearGradient>
<linearGradient id="paint11_linear_2748_2999" x1="-54.6791" y1="116.236" x2="96.7762" y2="23.919" gradientUnits="userSpaceOnUse">
<stop stop-color="#971C07"/>
<stop offset="0.2302" stop-color="#5D2F24"/>
<stop offset="0.4656" stop-color="#971C07"/>
<stop offset="0.7646" stop-color="#5D2F24"/>
<stop offset="0.9974" stop-color="#971C07"/>
</linearGradient>
<linearGradient id="paint12_linear_2748_2999" x1="74.5353" y1="-27.3621" x2="-14.8938" y2="116.4" gradientUnits="userSpaceOnUse">
<stop stop-color="#530000"/>
<stop offset="0.5397" stop-color="#953120"/>
<stop offset="1" stop-color="#530000"/>
</linearGradient>
<linearGradient id="paint13_linear_2748_2999" x1="37.9261" y1="58.3057" x2="134.089" y2="78.9812" gradientUnits="userSpaceOnUse">
<stop stop-color="#530000"/>
<stop offset="0.5397" stop-color="#BD6229"/>
<stop offset="1" stop-color="#530000"/>
</linearGradient>
</defs>
</svg>
