<svg width="296" height="63" viewBox="0 0 296 63" fill="none" xmlns="http://www.w3.org/2000/svg">
<path fill-rule="evenodd" clip-rule="evenodd" d="M158.193 57.7756C160.735 56.7269 162.582 53.1294 162.086 50.1907C161.855 48.8206 161.9 48.7122 162.596 48.9746C163.016 49.1333 164.661 49.5186 166.251 49.8309C173.6 51.2751 181.719 47.4669 185.043 41.0174C186.043 39.076 186.218 38.2841 186.219 35.6922C186.222 30.7479 184.08 27.409 179.519 25.2481C177.467 24.2763 176.603 24.0892 174.163 24.0892C171.66 24.0892 170.898 24.2634 168.711 25.3356C166.655 26.3436 165.929 26.9617 164.917 28.5646C163.396 30.9723 163.018 32.9354 163.589 35.4583C164.155 37.9608 165.875 40.1501 168.065 41.1551C171.506 42.7347 175.051 41.9474 176.94 39.1844C180.24 34.3602 174.834 29.4436 170.481 33.3096L169.579 34.1114V32.7984C169.579 31.153 170.363 30.0697 172.133 29.2736C173.982 28.4413 175.386 28.4927 177.199 29.4592C179.384 30.6231 180.413 32.5801 180.402 35.5519C180.391 38.5305 179.483 40.5636 177.195 42.7325C174.58 45.2124 171.654 46.3319 167.773 46.3368C163.5 46.3418 160.818 45.1793 157.337 41.8131C149.145 33.8923 149.239 22.3414 157.56 14.2947C158.912 12.987 160.162 11.9174 160.339 11.9174C160.516 11.9174 160.29 12.8691 159.838 14.0323C159.046 16.0718 159.041 16.2205 159.694 18.1855C161.296 23.004 167.04 24.7076 170.837 21.4905C173.345 19.3665 172.589 15.397 169.557 14.7656C167.093 14.2525 165.198 16.6423 166.535 18.5765C167.161 19.4829 167.153 19.5248 166.352 19.5248C165.081 19.5248 164.036 18.8622 163.364 17.6305C161.499 14.2107 164.461 8.83532 168.823 7.72123C180.206 4.81522 190.853 7.75394 195.896 15.1935C198.238 18.6476 198.976 21.4129 198.779 25.991C198.628 29.5006 198.454 30.2846 197.348 32.4572C196.656 33.817 195.372 35.6668 194.494 36.5675C192.653 38.4579 192.92 38.7759 196.055 38.424C201.016 37.8668 205.585 33.4336 205.663 29.1039C205.701 26.9316 206.236 26.3965 207.984 26.781C210.434 27.3204 211.868 27.1869 213.746 26.2455C216.148 25.0412 216.104 24.142 213.611 23.4524C211.541 22.8804 210.097 21.7259 201.071 13.4237C193.658 6.60447 189.477 4.45197 181.917 3.56153C173.633 2.58551 163.357 5.18722 157.495 9.74516C151.95 14.0566 148.66 21.1242 148.605 28.8437C148.558 35.4313 150.346 39.6629 155.205 44.4612C158.809 48.0203 159.282 49.1865 158.135 51.684L157.444 53.1872L157.088 51.975C155.91 47.972 150.221 48.4311 149.635 52.5763C149.051 56.6995 153.804 59.5869 158.193 57.7756Z" fill="url(#paint0_linear_2180_7253)"/>
<path fill-rule="evenodd" clip-rule="evenodd" d="M143.301 57.6143C145.531 56.3089 146.109 55.3812 146.109 53.1142C146.109 51.3014 145.963 50.9096 144.984 50.1112C143.765 49.1173 141.993 48.9222 140.567 49.6251C139.394 50.2036 139.486 50.0888 138.881 51.7327L138.345 53.1872L137.714 51.773C136.427 48.8902 136.825 47.8735 140.645 44.2768C144.98 40.1954 147.102 35.0609 147.1 28.6536C147.095 13.6424 135.217 3.47828 117.626 3.43225C111.942 3.41703 109.045 4.01991 104.387 6.18762C100.974 7.77565 98.3091 9.86805 90.7464 16.898C84.9268 22.3076 82.9089 23.7088 80.9375 23.7088C79.555 23.7088 79.9618 25.0089 81.6195 25.8887C83.7939 27.0424 85.6309 27.2546 87.8627 26.6095C90.06 25.9743 89.9801 25.8925 90.2778 29.0804C90.5257 31.7388 91.6146 33.8114 93.7023 35.5999C95.8382 37.4294 97.4032 38.1578 99.7686 38.4233C103.051 38.7919 103.344 38.4302 101.39 36.4195C100.463 35.466 99.1331 33.5424 98.4351 32.1454C97.2291 29.7319 97.1653 29.3755 97.1653 25.0401C97.1653 20.5548 97.1914 20.424 98.6609 17.5058C102.405 10.0723 110.053 6.21425 120.048 6.71785C126.379 7.03698 127.642 7.46071 130.522 10.2313C132.441 12.078 133.048 12.9437 133.261 14.138C133.605 16.0695 132.627 18.1886 131.031 18.971C129.598 19.6735 128.399 19.7188 128.955 19.0493C129.172 18.7876 129.469 18.0996 129.615 17.5199C129.823 16.6979 129.662 16.2582 128.887 15.523C127.611 14.313 126.229 14.3267 124.677 15.5648C122.465 17.3293 123.274 20.7473 126.243 22.1836C129.465 23.7419 133.07 22.9401 135.222 20.1863C136.343 18.7519 136.623 14.739 135.722 13.0262C135.365 12.3484 135.172 11.701 135.292 11.5873C135.412 11.4736 136.759 12.6128 138.286 14.119C145.047 20.788 146.487 29.1507 142.247 37.1206C140.679 40.0665 136.771 43.7793 133.773 45.1699C128.589 47.5746 122.515 46.4418 118.348 42.2932C114.495 38.4568 114.38 32.2568 118.115 29.6384C119.672 28.5467 122.543 28.4337 124.168 29.4006C125.614 30.261 126.665 32.14 126.346 33.2948C126.158 33.9768 126.073 33.9597 125.057 33.0366C120.696 29.0754 115.382 35.2792 119.328 39.7249C121.42 42.0821 124.324 42.5442 127.695 41.0558C130.792 39.6884 132.461 36.933 132.442 33.218C132.415 27.905 127.775 23.9485 121.615 23.9846C116.969 24.0116 112.896 26.3874 110.675 30.3652C109.767 31.9909 109.613 32.7368 109.613 35.5002C109.613 38.3008 109.77 39.0387 110.786 41.0155C112.373 44.101 115.541 47.0291 118.92 48.5316C121.252 49.5688 122.189 49.7613 125.525 49.8906C128.394 50.0013 129.912 49.88 131.314 49.4269C132.359 49.0892 133.343 48.813 133.5 48.813C133.657 48.813 133.852 50.0545 133.933 51.5722C134.048 53.7266 134.29 54.6121 135.04 55.6106C136.858 58.0308 140.911 59.0141 143.301 57.6143Z" fill="url(#paint1_linear_2180_7253)"/>
<path fill-rule="evenodd" clip-rule="evenodd" d="M226.031 22.0158C231.824 20.2995 234.946 16.3635 234.963 10.7558C234.981 4.76689 231.479 1.26714 225.468 1.26714C222.56 1.26714 220.448 2.32569 219.142 4.43787C217.129 7.69533 218.118 11.6184 221.339 13.1528C222.967 13.9288 225.523 14.0106 226.936 13.3327C228.288 12.6842 229.756 10.5215 229.756 9.17953C229.756 7.82314 228.807 6.00574 227.933 5.68738C225.837 4.92474 223.337 5.89886 223.337 7.47814C223.337 7.8277 223.157 8.11374 222.936 8.11374C222.173 8.11374 222.539 6.55423 223.52 5.62424C224.777 4.43217 227.321 4.34887 228.947 5.44622C230.228 6.31156 231.365 8.69874 231.352 10.4986C231.34 12.1684 230.148 14.5206 228.581 15.9653C226.253 18.1124 221.388 18.7534 216.918 17.5023C214.498 16.8245 212.476 15.5727 204.367 9.72953C198.868 5.76725 194.419 3.36828 190.44 2.22034C186.237 1.00696 175.442 1.10663 174.621 2.36602C174.518 2.52387 176.637 2.66917 179.328 2.68857C184.805 2.72775 188.904 3.54249 193.048 5.41541C196.327 6.89694 198.475 8.43781 203.129 12.6458C205.307 14.6153 207.983 16.8979 209.075 17.7184C214.335 21.67 221.268 23.4269 226.031 22.0158Z" fill="#CD9C1A"/>
<path fill-rule="evenodd" clip-rule="evenodd" d="M78.0786 21.9879C82.8867 20.7083 87.3567 17.9115 92.3514 13.0588C96.0002 9.51337 99.0259 7.30458 102.435 5.69753C106.852 3.61503 109.39 3.06806 115.821 2.81359L121.638 2.58348L119.458 1.92544C118.052 1.50057 115.99 1.26816 113.641 1.27007C106.221 1.27539 99.8844 3.63177 92.1508 9.26043C81.2182 17.2177 79.4935 18.0808 74.4988 18.0922C71.0158 18.0998 68.9212 17.4117 66.9658 15.6175C63.9646 12.8636 63.9594 7.21824 66.9562 5.37803C69.3019 3.93758 71.6304 4.26279 72.6742 6.1768C73.4028 7.51226 73.4341 7.73364 72.8941 7.73364C72.6734 7.73364 72.4929 7.50351 72.4929 7.22204C72.4929 6.31981 71.0683 5.45143 69.5884 5.45143C67.5114 5.45143 65.9063 7.29469 66.1964 9.34601C66.4876 11.403 67.4693 12.6335 69.4993 13.4848C71.8478 14.4695 74.3636 13.9283 76.0871 12.0675C78.5279 9.43197 78.4906 6.09235 75.992 3.55759C74.4025 1.94522 72.6173 1.2655 69.9984 1.27577C64.3168 1.29821 60.5297 5.62793 60.9429 11.6286C61.2538 16.1435 63.6424 19.4466 67.9487 21.3158C70.7032 22.5113 75.0324 22.7984 78.0786 21.9879Z" fill="#CD9C1A"/>
<path fill-rule="evenodd" clip-rule="evenodd" d="M249.367 12.0275C250.878 11.3215 252.198 9.05757 252.213 7.14889C252.218 6.5133 251.815 5.22956 251.319 4.29614C250.612 2.96714 249.944 2.37186 248.238 1.55293C247.04 0.97782 245.483 0.506927 244.778 0.506927C243.06 0.506927 240.332 1.45252 238.75 2.5959C237.11 3.78189 235.679 6.54144 235.848 8.19185L235.976 9.44554L236.681 8.22152C238.295 5.41708 240.906 3.93023 244.216 3.93023C245.946 3.93023 246.448 4.1033 247.438 5.04204C248.254 5.81495 248.611 6.5308 248.611 7.39042V8.62737L247.683 7.80008C247.172 7.34516 246.297 6.97316 245.739 6.97316C243.009 6.97316 242.44 10.8525 244.986 12.1013C246.493 12.8399 247.669 12.8202 249.367 12.0275Z" fill="#F8CB53"/>
<path fill-rule="evenodd" clip-rule="evenodd" d="M50.7073 12.2934C51.8174 11.8697 52.9551 9.8347 52.6282 8.85792C51.9718 6.89675 49.7493 6.37222 48.1462 7.79974L47.2178 8.62704V7.82446C47.2178 5.1832 49.2835 3.74579 52.6944 4.01395C55.2483 4.21478 57.2037 5.39924 58.9376 7.7967L60.1299 9.44521L59.9249 7.79023C59.5999 5.16684 57.8163 2.77738 55.2679 1.5526C51.9008 -0.0658646 48.7491 0.301571 46.0323 2.62827C42.8269 5.37376 43.1759 10.5346 46.673 12.1078C48.0808 12.7411 49.3782 12.8008 50.7073 12.2934Z" fill="#F8CB53"/>
<path fill-rule="evenodd" clip-rule="evenodd" d="M40.4644 7.20557C41.891 6.53498 41.9941 4.19193 40.634 3.34676C38.458 1.99531 35.9113 4.31784 37.3255 6.36421C38.0897 7.46993 39.2436 7.77954 40.4644 7.20557Z" fill="#F8C900"/>
<path fill-rule="evenodd" clip-rule="evenodd" d="M258.378 6.65739C260.343 4.59847 257.338 1.70121 255.055 3.45394C253.923 4.32308 253.817 6.12792 254.856 6.84795C255.891 7.56533 257.599 7.47328 258.378 6.65739Z" fill="#F8C900"/>
<path fill-rule="evenodd" clip-rule="evenodd" d="M267.466 6.72467C268.901 6.66876 275.039 6.44092 281.107 6.21841C300.492 5.50674 300.774 4.98336 282.109 4.35157C275.049 4.1127 267.869 3.83008 266.155 3.72358C262.635 3.50487 261.449 3.88638 261.449 5.23668C261.449 5.90461 261.775 6.24503 262.712 6.55465C263.407 6.78439 264.174 6.9392 264.417 6.89889C264.66 6.85857 266.032 6.78021 267.466 6.72467Z" fill="#D2A283"/>
<path fill-rule="evenodd" clip-rule="evenodd" d="M34.1136 6.33909C34.668 5.8138 34.3515 4.32239 33.6049 3.94354C33.0721 3.6731 29.5802 3.66739 22.472 3.92528C-5.40047 4.93668 -6.53781 5.30145 15.325 6.21775C25.5961 6.64833 33.732 6.70081 34.1136 6.33909Z" fill="#D2A283"/>
<path fill-rule="evenodd" clip-rule="evenodd" d="M34.1136 6.33909C34.668 5.8138 34.3515 4.32239 33.6049 3.94354C33.0721 3.6731 29.5802 3.66739 22.472 3.92528C-5.40047 4.93668 -6.53781 5.30145 15.325 6.21775C25.5961 6.64833 33.732 6.70081 34.1136 6.33909Z" fill="#D2A283"/>
<path fill-rule="evenodd" clip-rule="evenodd" d="M149.937 61.9161C151.423 60.2185 149.72 57.2574 147.538 57.745C144.2 58.4909 144.495 62.5068 147.887 62.5068C148.784 62.5068 149.635 62.2615 149.937 61.9161Z" fill="#FCD510"/>
<defs>
<linearGradient id="paint0_linear_2180_7253" x1="182.059" y1="58.3271" x2="182.059" y2="3.35752" gradientUnits="userSpaceOnUse">
<stop stop-color="#FFD200"/>
<stop offset="0.660327" stop-color="#CB381F"/>
<stop offset="0.826923" stop-color="#852816"/>
<stop offset="1" stop-color="#3F170D"/>
</linearGradient>
<linearGradient id="paint1_linear_2180_7253" x1="113.601" y1="58.2573" x2="113.601" y2="3.43197" gradientUnits="userSpaceOnUse">
<stop stop-color="#FFD200"/>
<stop offset="0.660327" stop-color="#CB381F"/>
<stop offset="0.826923" stop-color="#852816"/>
<stop offset="1" stop-color="#3F170D"/>
</linearGradient>
</defs>
</svg>
