<svg width="173" height="49" viewBox="0 0 173 49" fill="none" xmlns="http://www.w3.org/2000/svg">
<g filter="url(#filter0_d_1528_3010)">
<rect width="158" height="40" rx="20" transform="matrix(-1 0 0 1 168.012 0.972656)" fill="url(#paint0_linear_1528_3010)"/>
<path d="M31.7185 14.4327C31.8118 14.4327 32.0251 14.4327 32.3585 14.4327C32.6918 14.4193 33.0651 14.4127 33.4785 14.4127C33.8918 14.4127 34.3051 14.4127 34.7185 14.4127C35.1318 14.3993 35.4718 14.3927 35.7385 14.3927C37.2851 14.3927 38.4585 14.6993 39.2585 15.3127C40.0718 15.926 40.4785 16.7927 40.4785 17.9127C40.4785 18.566 40.2985 19.1527 39.9385 19.6727C39.5785 20.1927 39.0785 20.6127 38.4385 20.9327C39.2385 21.2393 39.8451 21.6727 40.2585 22.2327C40.6851 22.7927 40.8985 23.4393 40.8985 24.1727C40.8985 25.3193 40.4651 26.246 39.5985 26.9527C38.7318 27.646 37.4185 27.9927 35.6585 27.9927C35.2985 27.9927 34.9118 27.9927 34.4985 27.9927C34.0851 27.9927 33.6918 27.986 33.3185 27.9727C32.9451 27.9727 32.6118 27.9727 32.3185 27.9727C32.0385 27.9727 31.8385 27.9727 31.7185 27.9727V14.4327ZM34.0985 26.2727H35.8185C36.7251 26.2727 37.3718 26.0727 37.7585 25.6727C38.1585 25.2593 38.3585 24.746 38.3585 24.1327C38.3585 23.8527 38.3118 23.5793 38.2185 23.3127C38.1385 23.046 37.9918 22.806 37.7785 22.5927C37.5651 22.3793 37.2785 22.2127 36.9185 22.0927C36.5718 21.9593 36.1318 21.8927 35.5985 21.8927C35.2785 21.8927 34.9918 21.8927 34.7385 21.8927C34.4985 21.8927 34.2851 21.8993 34.0985 21.9127V26.2727ZM34.0985 20.1927H35.6385C36.4785 20.1927 37.0785 19.9993 37.4385 19.6127C37.7985 19.226 37.9785 18.7527 37.9785 18.1927C37.9785 17.9393 37.9385 17.686 37.8585 17.4327C37.7785 17.1793 37.6385 16.9527 37.4385 16.7527C37.2518 16.5527 36.9918 16.3927 36.6585 16.2727C36.3385 16.1527 35.9318 16.0927 35.4385 16.0927C35.1451 16.0927 34.8851 16.0927 34.6585 16.0927C34.4451 16.0927 34.2585 16.0993 34.0985 16.1127V20.1927ZM41.9271 23.2327C41.9271 22.3393 42.0471 21.5527 42.2871 20.8727C42.5404 20.1927 42.8804 19.626 43.3071 19.1727C43.7471 18.706 44.2604 18.3593 44.8471 18.1327C45.4337 17.8927 46.0671 17.7727 46.7471 17.7727C47.3471 17.7727 47.8537 17.846 48.2671 17.9927C48.6937 18.1393 49.0404 18.3393 49.3071 18.5927C49.5737 18.846 49.7671 19.146 49.8871 19.4927C50.0204 19.8393 50.0871 20.2127 50.0871 20.6127C50.0871 21.0927 49.9537 21.5527 49.6871 21.9927C49.4204 22.4193 49.0337 22.7993 48.5271 23.1327C48.0337 23.4527 47.4337 23.7127 46.7271 23.9127C46.0204 24.0993 45.2271 24.1993 44.3471 24.2127C44.3871 24.5193 44.4471 24.8127 44.5271 25.0927C44.6204 25.3593 44.7471 25.5993 44.9071 25.8127C45.0804 26.0127 45.3004 26.1727 45.5671 26.2927C45.8337 26.4127 46.1671 26.4727 46.5671 26.4727C46.8604 26.4727 47.1737 26.4393 47.5071 26.3727C47.8404 26.306 48.1471 26.226 48.4271 26.1327C48.7604 26.026 49.0871 25.906 49.4071 25.7727L50.0071 27.1927C49.6604 27.366 49.2871 27.5193 48.8871 27.6527C48.5404 27.7727 48.1404 27.8793 47.6871 27.9727C47.2337 28.066 46.7537 28.1127 46.2471 28.1127C45.4737 28.1127 44.8137 27.9993 44.2671 27.7727C43.7204 27.5327 43.2737 27.1993 42.9271 26.7727C42.5804 26.346 42.3271 25.8327 42.1671 25.2327C42.0071 24.6327 41.9271 23.966 41.9271 23.2327ZM46.5671 19.3327C46.1271 19.3327 45.7604 19.4393 45.4671 19.6527C45.1871 19.8527 44.9604 20.1193 44.7871 20.4527C44.6137 20.7727 44.4871 21.1393 44.4071 21.5527C44.3404 21.9527 44.3004 22.3593 44.2871 22.7727C44.9271 22.746 45.4671 22.666 45.9071 22.5327C46.3604 22.386 46.7271 22.2127 47.0071 22.0127C47.2871 21.7993 47.4871 21.5727 47.6071 21.3327C47.7404 21.0927 47.8071 20.8527 47.8071 20.6127C47.8071 20.226 47.6937 19.9193 47.4671 19.6927C47.2404 19.4527 46.9404 19.3327 46.5671 19.3327ZM56.0402 20.0927C55.8002 20.0927 55.5602 20.1527 55.3202 20.2727C55.0802 20.3927 54.8668 20.5593 54.6802 20.7727C54.4935 20.9727 54.3402 21.2193 54.2202 21.5127C54.1002 21.806 54.0402 22.1327 54.0402 22.4927V27.9727H51.7602V22.9327C51.7602 22.1327 51.7068 21.466 51.6002 20.9327C51.4935 20.386 51.3802 19.946 51.2602 19.6127C51.1135 19.226 50.9535 18.9127 50.7802 18.6727L52.5802 17.9527C52.7002 18.0993 52.8268 18.2793 52.9602 18.4927C53.0668 18.6793 53.1735 18.8993 53.2802 19.1527C53.3868 19.406 53.4735 19.706 53.5402 20.0527C53.8068 19.2793 54.1935 18.726 54.7002 18.3927C55.2068 18.046 55.7802 17.8727 56.4202 17.8727C56.7268 17.8727 57.0135 17.9127 57.2802 17.9927C57.5468 18.0593 57.6735 18.0927 57.6602 18.0927L57.0202 20.3127C57.0335 20.3127 56.9535 20.2793 56.7802 20.2127C56.6202 20.1327 56.3735 20.0927 56.0402 20.0927ZM61.503 17.7727C61.8897 17.7727 62.2697 17.8127 62.643 17.8927C63.0163 17.9727 63.3497 18.066 63.643 18.1727C63.9897 18.2927 64.3097 18.4193 64.603 18.5527L63.923 20.1127C63.6563 19.9927 63.3897 19.886 63.123 19.7927C62.8963 19.7127 62.643 19.6393 62.363 19.5727C62.0963 19.4927 61.8297 19.4527 61.563 19.4527C61.2563 19.4527 60.9897 19.526 60.763 19.6727C60.5497 19.8193 60.443 20.0393 60.443 20.3327C60.443 21.0927 60.9963 21.686 62.103 22.1127C62.5163 22.2727 62.8897 22.446 63.223 22.6327C63.5563 22.806 63.8363 23.0127 64.063 23.2527C64.303 23.4927 64.483 23.7727 64.603 24.0927C64.723 24.3993 64.783 24.766 64.783 25.1927C64.783 25.566 64.703 25.9327 64.543 26.2927C64.3963 26.6527 64.1697 26.9727 63.863 27.2527C63.5697 27.5327 63.203 27.7593 62.763 27.9327C62.3363 28.0927 61.8497 28.1727 61.303 28.1727C60.863 28.1727 60.4297 28.1193 60.003 28.0127C59.5763 27.9193 59.1897 27.8127 58.843 27.6927C58.5097 27.5727 58.243 27.4593 58.043 27.3527L57.743 27.2127L58.483 25.5327L58.743 25.6727C58.9163 25.7793 59.1363 25.8927 59.403 26.0127C59.6697 26.1327 59.9563 26.246 60.263 26.3527C60.5697 26.446 60.8497 26.4927 61.103 26.4927C61.5697 26.4927 61.9163 26.3993 62.143 26.2127C62.3697 26.026 62.483 25.7793 62.483 25.4727C62.483 25.126 62.3563 24.8127 62.103 24.5327C61.863 24.2393 61.4963 23.9993 61.003 23.8127C59.9763 23.426 59.2363 22.986 58.783 22.4927C58.343 21.9993 58.123 21.3593 58.123 20.5727C58.123 20.1993 58.2097 19.846 58.383 19.5127C58.5563 19.166 58.7897 18.866 59.083 18.6127C59.3897 18.346 59.7497 18.1393 60.163 17.9927C60.5763 17.846 61.023 17.7727 61.503 17.7727ZM65.8052 23.2327C65.8052 22.3393 65.9252 21.5527 66.1652 20.8727C66.4185 20.1927 66.7585 19.626 67.1852 19.1727C67.6252 18.706 68.1385 18.3593 68.7252 18.1327C69.3118 17.8927 69.9452 17.7727 70.6252 17.7727C71.2252 17.7727 71.7318 17.846 72.1452 17.9927C72.5718 18.1393 72.9185 18.3393 73.1852 18.5927C73.4518 18.846 73.6452 19.146 73.7652 19.4927C73.8985 19.8393 73.9652 20.2127 73.9652 20.6127C73.9652 21.0927 73.8318 21.5527 73.5652 21.9927C73.2985 22.4193 72.9118 22.7993 72.4052 23.1327C71.9118 23.4527 71.3118 23.7127 70.6052 23.9127C69.8985 24.0993 69.1052 24.1993 68.2252 24.2127C68.2652 24.5193 68.3252 24.8127 68.4052 25.0927C68.4985 25.3593 68.6252 25.5993 68.7852 25.8127C68.9585 26.0127 69.1785 26.1727 69.4452 26.2927C69.7118 26.4127 70.0452 26.4727 70.4452 26.4727C70.7385 26.4727 71.0518 26.4393 71.3852 26.3727C71.7185 26.306 72.0252 26.226 72.3052 26.1327C72.6385 26.026 72.9652 25.906 73.2852 25.7727L73.8852 27.1927C73.5385 27.366 73.1652 27.5193 72.7652 27.6527C72.4185 27.7727 72.0185 27.8793 71.5652 27.9727C71.1118 28.066 70.6318 28.1127 70.1252 28.1127C69.3518 28.1127 68.6918 27.9993 68.1452 27.7727C67.5985 27.5327 67.1518 27.1993 66.8052 26.7727C66.4585 26.346 66.2052 25.8327 66.0452 25.2327C65.8852 24.6327 65.8052 23.966 65.8052 23.2327ZM70.4452 19.3327C70.0052 19.3327 69.6385 19.4393 69.3452 19.6527C69.0652 19.8527 68.8385 20.1193 68.6652 20.4527C68.4918 20.7727 68.3652 21.1393 68.2852 21.5527C68.2185 21.9527 68.1785 22.3593 68.1652 22.7727C68.8052 22.746 69.3452 22.666 69.7852 22.5327C70.2385 22.386 70.6052 22.2127 70.8852 22.0127C71.1652 21.7993 71.3652 21.5727 71.4852 21.3327C71.6185 21.0927 71.6852 20.8527 71.6852 20.6127C71.6852 20.226 71.5718 19.9193 71.3452 19.6927C71.1185 19.4527 70.8185 19.3327 70.4452 19.3327ZM81.6583 27.9727V21.5127C81.6583 20.9527 81.5583 20.506 81.3583 20.1727C81.1583 19.826 80.8183 19.6527 80.3383 19.6527C80.0316 19.6527 79.7316 19.7327 79.4383 19.8927C79.1583 20.0393 78.905 20.2593 78.6783 20.5527C78.4516 20.846 78.265 21.206 78.1183 21.6327C77.985 22.046 77.9183 22.5127 77.9183 23.0327V27.9727H75.6383V22.9327C75.6383 22.1327 75.585 21.466 75.4783 20.9327C75.3716 20.386 75.2583 19.946 75.1383 19.6127C74.9916 19.226 74.8316 18.9127 74.6583 18.6727L76.4583 17.9527C76.5916 18.0993 76.725 18.2793 76.8583 18.4927C76.965 18.6793 77.0716 18.9127 77.1783 19.1927C77.285 19.4593 77.3716 19.766 77.4383 20.1127C77.785 19.3127 78.285 18.7393 78.9383 18.3927C79.5916 18.0327 80.2783 17.8527 80.9983 17.8527C82.025 17.8527 82.765 18.166 83.2183 18.7927C83.685 19.406 83.9183 20.2393 83.9183 21.2927V27.9727H81.6583ZM94.0749 23.1527C94.0749 23.9527 94.1215 24.626 94.2149 25.1727C94.3215 25.706 94.4349 26.1393 94.5549 26.4727C94.7015 26.8727 94.8615 27.186 95.0349 27.4127L93.2549 28.1327C93.0815 27.9593 92.9215 27.7527 92.7749 27.5127C92.6549 27.2993 92.5415 27.046 92.4349 26.7527C92.3282 26.446 92.2615 26.086 92.2349 25.6727C92.0082 26.4727 91.6415 27.0793 91.1349 27.4927C90.6415 27.8927 89.9682 28.0927 89.1149 28.0927C88.4882 28.0927 87.9415 27.9793 87.4749 27.7527C87.0215 27.5127 86.6415 27.1793 86.3349 26.7527C86.0282 26.3127 85.8015 25.786 85.6549 25.1727C85.5082 24.5593 85.4349 23.8793 85.4349 23.1327C85.4349 22.3727 85.5482 21.6727 85.7749 21.0327C86.0149 20.3793 86.3415 19.8193 86.7549 19.3527C87.1815 18.886 87.6882 18.5193 88.2749 18.2527C88.8615 17.986 89.5082 17.8527 90.2149 17.8527C90.6149 17.8527 91.0282 17.886 91.4549 17.9527C91.8949 18.006 92.3015 18.066 92.6749 18.1327C93.0482 18.1993 93.3615 18.266 93.6149 18.3327C93.8815 18.386 94.0349 18.4193 94.0749 18.4327V23.1527ZM89.4949 26.4927C89.8282 26.4927 90.1349 26.3793 90.4149 26.1527C90.6949 25.926 90.9349 25.6327 91.1349 25.2727C91.3482 24.8993 91.5082 24.4793 91.6149 24.0127C91.7349 23.5327 91.7949 23.046 91.7949 22.5527V19.6727C91.6615 19.6327 91.4615 19.586 91.1949 19.5327C90.9282 19.4793 90.6882 19.4527 90.4749 19.4527C89.9682 19.4527 89.5482 19.5393 89.2149 19.7127C88.8949 19.886 88.6349 20.126 88.4349 20.4327C88.2349 20.7393 88.0949 21.106 88.0149 21.5327C87.9349 21.9593 87.8949 22.426 87.8949 22.9327C87.8949 23.3993 87.9082 23.846 87.9349 24.2727C87.9615 24.6993 88.0282 25.0793 88.1349 25.4127C88.2549 25.746 88.4215 26.0127 88.6349 26.2127C88.8482 26.3993 89.1349 26.4927 89.4949 26.4927ZM102.167 27.9727V21.5127C102.167 20.9527 102.067 20.506 101.867 20.1727C101.667 19.826 101.327 19.6527 100.847 19.6527C100.54 19.6527 100.24 19.7327 99.9469 19.8927C99.6669 20.0393 99.4136 20.2593 99.1869 20.5527C98.9602 20.846 98.7736 21.206 98.6269 21.6327C98.4936 22.046 98.4269 22.5127 98.4269 23.0327V27.9727H96.1469V22.9327C96.1469 22.1327 96.0936 21.466 95.9869 20.9327C95.8802 20.386 95.7669 19.946 95.6469 19.6127C95.5002 19.226 95.3402 18.9127 95.1669 18.6727L96.9669 17.9527C97.1002 18.0993 97.2336 18.2793 97.3669 18.4927C97.4736 18.6793 97.5802 18.9127 97.6869 19.1927C97.7936 19.4593 97.8802 19.766 97.9469 20.1127C98.2936 19.3127 98.7936 18.7393 99.4469 18.3927C100.1 18.0327 100.787 17.8527 101.507 17.8527C102.534 17.8527 103.274 18.166 103.727 18.7927C104.194 19.406 104.427 20.2393 104.427 21.2927V27.9727H102.167ZM108.043 29.7327C108.243 29.8127 108.457 29.8927 108.683 29.9727C108.91 30.066 109.15 30.1527 109.403 30.2327C109.657 30.3127 109.91 30.3793 110.163 30.4327C110.43 30.486 110.69 30.5127 110.943 30.5127C111.69 30.5127 112.23 30.286 112.563 29.8327C112.897 29.3927 113.063 28.8193 113.063 28.1127C113.063 27.4193 112.917 26.7193 112.623 26.0127C112.397 26.6927 112.037 27.2127 111.543 27.5727C111.063 27.9193 110.423 28.0927 109.623 28.0927C108.997 28.0927 108.45 27.9793 107.983 27.7527C107.53 27.5127 107.15 27.1793 106.843 26.7527C106.537 26.3127 106.31 25.786 106.163 25.1727C106.017 24.5593 105.943 23.8793 105.943 23.1327C105.943 22.3727 106.057 21.6727 106.283 21.0327C106.523 20.3793 106.85 19.8193 107.263 19.3527C107.69 18.886 108.197 18.5193 108.783 18.2527C109.37 17.986 110.017 17.8527 110.723 17.8527C111.043 17.8527 111.383 17.8727 111.743 17.9127C112.117 17.9527 112.477 18.006 112.823 18.0727C113.183 18.126 113.517 18.186 113.823 18.2527C114.143 18.3193 114.417 18.3793 114.643 18.4327L114.543 23.9327C114.53 24.3327 114.55 24.6993 114.603 25.0327C114.67 25.366 114.743 25.6993 114.823 26.0327C114.903 26.3527 114.977 26.6793 115.043 27.0127C115.11 27.346 115.143 27.7127 115.143 28.1127C115.143 29.526 114.783 30.5793 114.063 31.2727C113.343 31.966 112.37 32.3127 111.143 32.3127C110.743 32.3127 110.343 32.2727 109.943 32.1927C109.543 32.126 109.17 32.046 108.823 31.9527C108.49 31.8593 108.203 31.766 107.963 31.6727C107.723 31.5793 107.563 31.5127 107.483 31.4727L108.043 29.7327ZM110.003 26.4927C110.323 26.4927 110.617 26.386 110.883 26.1727C111.163 25.9593 111.41 25.6793 111.623 25.3327C111.837 24.9727 112.003 24.566 112.123 24.1127C112.243 23.6593 112.303 23.1927 112.303 22.7127V19.6727C112.17 19.6327 111.97 19.586 111.703 19.5327C111.437 19.4793 111.197 19.4527 110.983 19.4527C110.477 19.4527 110.057 19.5393 109.723 19.7127C109.403 19.886 109.143 20.126 108.943 20.4327C108.743 20.7393 108.603 21.106 108.523 21.5327C108.443 21.9593 108.403 22.426 108.403 22.9327C108.403 23.3993 108.417 23.846 108.443 24.2727C108.47 24.6993 108.537 25.0793 108.643 25.4127C108.763 25.746 108.93 26.0127 109.143 26.2127C109.357 26.3993 109.643 26.4927 110.003 26.4927ZM118.888 28.0527C118.128 28.0527 117.568 27.846 117.208 27.4327C116.848 27.006 116.668 26.466 116.668 25.8127V13.8727L118.948 13.4527V25.5927C118.948 25.8993 119.008 26.1127 119.128 26.2327C119.248 26.3527 119.422 26.4127 119.648 26.4127C119.782 26.4127 119.908 26.406 120.028 26.3927C120.162 26.3793 120.282 26.3593 120.388 26.3327C120.508 26.306 120.615 26.2793 120.708 26.2527L120.988 27.6927C120.815 27.7593 120.622 27.8193 120.408 27.8727C120.222 27.926 120.002 27.966 119.748 27.9927C119.495 28.0327 119.208 28.0527 118.888 28.0527ZM129.936 23.1527C129.936 23.9527 129.982 24.626 130.076 25.1727C130.182 25.706 130.296 26.1393 130.416 26.4727C130.562 26.8727 130.722 27.186 130.896 27.4127L129.116 28.1327C128.942 27.9593 128.782 27.7527 128.636 27.5127C128.516 27.2993 128.402 27.046 128.296 26.7527C128.189 26.446 128.122 26.086 128.096 25.6727C127.869 26.4727 127.502 27.0793 126.996 27.4927C126.502 27.8927 125.829 28.0927 124.976 28.0927C124.349 28.0927 123.802 27.9793 123.336 27.7527C122.882 27.5127 122.502 27.1793 122.196 26.7527C121.889 26.3127 121.662 25.786 121.516 25.1727C121.369 24.5593 121.296 23.8793 121.296 23.1327C121.296 22.3727 121.409 21.6727 121.636 21.0327C121.876 20.3793 122.202 19.8193 122.616 19.3527C123.042 18.886 123.549 18.5193 124.136 18.2527C124.722 17.986 125.369 17.8527 126.076 17.8527C126.476 17.8527 126.889 17.886 127.316 17.9527C127.756 18.006 128.162 18.066 128.536 18.1327C128.909 18.1993 129.222 18.266 129.476 18.3327C129.742 18.386 129.896 18.4193 129.936 18.4327V23.1527ZM125.356 26.4927C125.689 26.4927 125.996 26.3793 126.276 26.1527C126.556 25.926 126.796 25.6327 126.996 25.2727C127.209 24.8993 127.369 24.4793 127.476 24.0127C127.596 23.5327 127.656 23.046 127.656 22.5527V19.6727C127.522 19.6327 127.322 19.586 127.056 19.5327C126.789 19.4793 126.549 19.4527 126.336 19.4527C125.829 19.4527 125.409 19.5393 125.076 19.7127C124.756 19.886 124.496 20.126 124.296 20.4327C124.096 20.7393 123.956 21.106 123.876 21.5327C123.796 21.9593 123.756 22.426 123.756 22.9327C123.756 23.3993 123.769 23.846 123.796 24.2727C123.822 24.6993 123.889 25.0793 123.996 25.4127C124.116 25.746 124.282 26.0127 124.496 26.2127C124.709 26.3993 124.996 26.4927 125.356 26.4927ZM134.498 19.2927C134.885 18.786 135.345 18.4193 135.878 18.1927C136.425 17.966 136.998 17.8527 137.598 17.8527C138.625 17.8527 139.365 18.166 139.818 18.7927C140.285 19.406 140.518 20.2393 140.518 21.2927V27.9727H138.238V21.4527C138.238 20.8927 138.138 20.4527 137.938 20.1327C137.738 19.7993 137.398 19.6327 136.918 19.6327C136.638 19.6327 136.352 19.706 136.058 19.8527C135.778 19.9993 135.518 20.2127 135.278 20.4927C135.052 20.7593 134.865 21.0793 134.718 21.4527C134.572 21.826 134.498 22.2393 134.498 22.6927V27.9727H132.218V13.8727L134.498 13.4727V19.2927ZM144.839 25.1727C145.306 25.1727 145.666 25.3127 145.919 25.5927C146.173 25.8727 146.299 26.2327 146.299 26.6727C146.299 27.0993 146.173 27.4593 145.919 27.7527C145.666 28.046 145.286 28.1927 144.779 28.1927C144.313 28.1927 143.953 28.046 143.699 27.7527C143.459 27.4593 143.339 27.1127 143.339 26.7127C143.339 26.286 143.466 25.926 143.719 25.6327C143.973 25.326 144.346 25.1727 144.839 25.1727ZM143.859 14.4327H146.399L145.819 23.5727H143.859V14.4327Z" fill="#3F170D"/>
<path d="M5.51221 37.4727C9.11221 37.0727 12.1789 32.9727 13.0122 30.9727C14.6122 33.3727 18.3455 36.306 20.0122 37.4727C19.3455 37.806 16.5122 38.5727 12.5122 38.9727C7.51221 39.4727 1.01221 37.9727 5.51221 37.4727Z" fill="#B8881A"/>
</g>
<defs>
<filter id="filter0_d_1528_3010" x="-0.000244141" y="0.972656" width="172.012" height="48" filterUnits="userSpaceOnUse" color-interpolation-filters="sRGB">
<feFlood flood-opacity="0" result="BackgroundImageFix"/>
<feColorMatrix in="SourceAlpha" type="matrix" values="0 0 0 0 0 0 0 0 0 0 0 0 0 0 0 0 0 0 127 0" result="hardAlpha"/>
<feOffset dy="4"/>
<feGaussianBlur stdDeviation="2"/>
<feComposite in2="hardAlpha" operator="out"/>
<feColorMatrix type="matrix" values="0 0 0 0 0 0 0 0 0 0 0 0 0 0 0 0 0 0 0.25 0"/>
<feBlend mode="normal" in2="BackgroundImageFix" result="effect1_dropShadow_1528_3010"/>
<feBlend mode="normal" in="SourceGraphic" in2="effect1_dropShadow_1528_3010" result="shape"/>
</filter>
<linearGradient id="paint0_linear_1528_3010" x1="79" y1="0" x2="79" y2="40" gradientUnits="userSpaceOnUse">
<stop stop-color="#CE9C17"/>
<stop offset="0.520386" stop-color="#CD9514"/>
<stop offset="1" stop-color="#CC8F12"/>
</linearGradient>
</defs>
</svg>
