<svg width="447" height="639" viewBox="0 0 447 639" fill="none" xmlns="http://www.w3.org/2000/svg">
<g filter="url(#filter0_d_1548_9999)">
<path fill-rule="evenodd" clip-rule="evenodd" d="M202.297 81.1214C203.496 82.5658 204.531 82.8221 207.632 82.4431C210.861 82.0496 211.478 82.2281 211.478 83.5558C211.478 84.4265 212.402 85.3589 213.532 85.628C215.059 85.9927 215.464 86.7424 215.11 88.5498C214.498 91.6907 216.35 94.2233 220.417 95.8048C223.512 97.008 223.824 96.953 227.135 94.6278C229.77 92.7764 230.608 91.4547 230.608 89.1438C230.608 87.0182 231.111 86.0985 232.274 86.0985C233.19 86.0985 234.235 85.2159 234.595 84.1371C235.125 82.548 235.849 82.2425 238.411 82.5251C240.624 82.7697 242.257 82.3229 243.847 81.0384L246.123 79.2031L250.462 80.8337C257.076 83.3188 264.118 84.3639 283.05 85.6703C303.702 87.0953 311.63 88.4906 327.357 93.4694C360.07 103.825 364.51 104.972 384.207 108.139C390.396 109.134 397.046 110.679 398.984 111.57C403.469 113.632 405.517 117.288 404.601 121.596C404.195 123.506 404.374 125.143 405.022 125.444C405.642 125.732 406.15 127.193 406.15 128.692C406.15 132.656 408.867 134.963 415.203 136.378C425.479 138.673 430.702 142.278 433.186 148.795C434.758 152.916 434.663 518.689 433.089 522.951C431.509 527.228 425.849 531.912 419.653 534.069C414.694 535.795 412.936 535.837 334.328 536.075L254.066 536.319L251.82 534.172C249.132 531.602 245.432 531.422 241.622 533.676L238.829 535.328L236.372 532.83C235.021 531.456 233.277 530.332 232.495 530.332C231.713 530.332 230.588 529.125 229.997 527.65C229.405 526.176 227.53 524.199 225.831 523.258L222.742 521.546L219.36 523.981C217.5 525.322 215.979 527.117 215.979 527.973C215.979 528.854 214.756 529.877 213.152 530.336C211.597 530.78 209.753 532.088 209.053 533.242L207.781 535.342L204.977 533.683C200.84 531.235 195.95 531.473 195.052 534.166L194.337 536.308L113.649 536.069L32.9607 535.832L26.3272 533.281C21.2511 531.328 18.8937 529.755 16.2808 526.577L12.8679 522.426L12.5697 338.321C12.3638 211.169 12.6406 152.874 13.4631 149.88C15.519 142.406 22.7601 137.608 34.8995 135.677C38.1178 135.166 40.437 132.163 40.437 128.508C40.437 127.211 40.8061 125.873 41.2562 125.534C41.7074 125.195 42.0866 122.62 42.1001 119.813C42.135 112.581 43.9827 111.657 66.7649 107.474C83.1477 104.467 92.5234 101.966 121.33 92.9168C133.769 89.0101 144.823 87.1739 164.779 85.6991C182.628 84.3799 191.426 82.9863 196.849 80.6179C200.511 79.0187 200.555 79.0229 202.297 81.1214Z" fill="url(#paint0_linear_1548_9999)"/>
<path fill-rule="evenodd" clip-rule="evenodd" d="M227.907 2.46817C217.677 7.41114 210.59 15.9324 208.693 25.5678C207.5 31.6263 208.486 37.3059 213.871 55.4162C218.992 72.6327 221.43 83.4026 222.116 91.8373C222.648 98.3781 223.878 98.555 224 92.1084C224.095 87.0531 227.991 69.4083 232.498 53.6286C238.044 34.2083 238.185 32.8209 235.915 20.1236C234.71 13.3801 234.19 7.87666 234.466 4.79195C234.764 1.47563 234.599 -0.014325 233.935 0.000103755C233.405 0.0107354 230.693 1.12175 227.907 2.46817Z" fill="url(#paint1_linear_1548_9999)"/>
<path fill-rule="evenodd" clip-rule="evenodd" d="M253.502 23.4237C253.959 24.7648 253.183 25.6921 249.162 28.6114C240.908 34.6041 236.86 41.1691 234.977 51.6177C234.64 53.4866 232.692 61.722 230.647 69.918C226.505 86.5186 226.022 89.7415 229.036 80.6453C231.469 73.301 237.51 60.5221 241.578 54.1103C244.547 49.4316 249.617 42.5562 250.099 42.5562C250.24 42.5562 246.783 48.8335 242.418 56.5063C235.455 68.7446 230.272 79.203 230.331 80.896C230.341 81.198 231.613 79.354 233.156 76.7979C236.846 70.686 240.014 67.0969 249.554 58.2212C259.17 49.2738 261.807 44.8118 261.76 37.5619C261.724 31.9339 259.684 27.4568 255.585 24.0105C253.249 22.0464 253.009 21.9784 253.502 23.4237Z" fill="url(#paint2_linear_1548_9999)"/>
<path fill-rule="evenodd" clip-rule="evenodd" d="M190.049 24.218C186.618 27.665 184.797 32.3043 184.794 37.606C184.79 45.1093 186.917 48.7825 196.104 57.1343C205.576 65.7471 210.998 71.6928 213.747 76.4861C214.927 78.5407 216.056 80.2211 216.259 80.2211C217.461 80.2211 207.112 60.5171 199.324 47.9769C197.198 44.5549 195.638 41.7543 195.858 41.7543C196.076 41.7543 198.206 44.3844 200.589 47.5998C206.434 55.4862 212.722 67.2503 216.766 77.8648C220.886 88.6808 221.017 87.477 217.208 73.77C215.601 67.9842 213.266 58.8728 212.019 53.5229C208.904 40.1561 206.986 36.6503 199.193 30.0725C195.68 27.1076 192.806 24.2806 192.806 23.7896C192.806 22.5014 191.566 22.6944 190.049 24.218Z" fill="url(#paint3_linear_1548_9999)"/>
<path fill-rule="evenodd" clip-rule="evenodd" d="M224.547 54.0105C224.591 66.6993 224.3 79.4638 223.901 82.376L223.177 87.6709L222.629 80.485C221.878 70.6138 221.78 43.9055 222.46 33.8944C223.454 19.2396 224.462 28.9512 224.547 54.0105Z" fill="black"/>
<path fill-rule="evenodd" clip-rule="evenodd" d="M290.346 32.0891C291.144 34.7653 291.007 35.5384 289.186 38.6065C286.685 42.8213 282.948 45.3493 271.84 50.3426C250.066 60.1293 239.14 68.8941 231.942 82.3458C228.77 88.2739 226.172 97.7785 227.419 98.8935C227.904 99.327 228.409 99.0395 228.734 98.1462C229.025 97.3489 230.56 94.2687 232.144 91.3012C239.062 78.3442 256.538 69.3956 279.882 66.8563C297.202 64.972 313.536 68.8767 322.736 77.1022C327.617 81.4653 329.766 85.7195 329.766 91.0228C329.766 96.3375 327.677 100.433 323.076 104.142C318.85 107.549 319.276 108.471 325.311 108.973C330.419 109.399 334.34 107.251 337.419 102.34C339.241 99.4328 339.533 98.0229 339.526 92.1575C339.52 86.1521 339.235 84.867 337.116 81.2565C335.795 79.0061 332.76 75.463 330.373 73.3843C327.985 71.3056 326.829 69.9864 327.804 70.4524C331.357 72.1528 338.146 79.6831 339.897 83.8677C344.01 93.6945 340.831 105 332.58 109.885C330.427 111.16 328.256 112.227 327.754 112.256C325.369 112.395 330.666 113.616 333.856 113.663C340.799 113.764 348.253 108.522 350.17 102.19C351.719 97.0705 350.757 89.6408 347.947 85.0251C343.645 77.9585 332.401 70.2905 320.717 66.4554C316.408 65.0408 319.637 65.0174 325.534 66.4198C333.052 68.2088 339.676 71.5522 352.658 80.1128C370.455 91.8481 378.424 94.7059 383.859 91.3019C388.93 88.1272 388.924 80.8798 383.848 77.0613L381.23 75.0931L379.844 77.5734C378.258 80.4138 373.788 82.699 369.817 82.7005C366.182 82.7028 358.752 80.1362 355.611 77.7943L353.073 75.9009L356.493 76.3472C364.369 77.3752 371.032 73.5129 370.114 68.4516C369.353 64.2594 368.243 63.615 364.704 65.3101C360.43 67.3578 353.047 68.5779 347.838 68.0976C345.398 67.8722 338.914 66.3207 333.429 64.649C318.238 60.0196 311.771 59.0022 297.648 59.0189C289.502 59.0287 283.265 59.4478 279.09 60.2655C275.631 60.9432 272.687 61.3963 272.548 61.2723C272.409 61.1482 275.342 59.9765 279.064 58.6679C296.669 52.4802 302.524 44.7306 296.517 35.5671C295.274 33.6708 293.173 31.4294 291.848 30.586L289.438 29.0527L290.346 32.0891Z" fill="black"/>
<path fill-rule="evenodd" clip-rule="evenodd" d="M152.126 32.6476C148.774 36.1646 147.048 40.6315 147.821 43.7917C149.225 49.5326 154.779 53.733 167.297 58.5249C171.483 60.1277 173.957 61.2712 172.794 61.0662C171.631 60.8612 168.206 60.2629 165.182 59.7359C157.171 58.3419 137.479 58.5833 129.237 60.1778C125.516 60.8976 117.143 63.0274 110.631 64.9105C100.081 67.9605 98.2045 68.287 93.4209 67.9013C90.3956 67.6576 85.9925 66.6219 83.3351 65.5293C78.2901 63.4564 77.7793 63.5946 76.6714 67.3417C75.9203 69.8807 77.2253 72.684 80.0341 74.561C81.8999 75.8085 83.5923 76.1449 87.7796 76.1023C92.9557 76.05 93.075 76.0917 91.3116 77.3271C87.8075 79.7818 82.1519 81.9382 78.2225 82.3179C73.2223 82.8008 68.8869 80.9329 66.9569 77.463L65.5715 74.9733L62.9962 76.9186C57.8463 80.8092 57.4987 87.0672 62.2341 90.6449C67.7477 94.8096 75.5439 92.2076 93.2078 80.3058C108.844 69.7691 115.529 66.631 124.797 65.4769C128.124 65.0631 127.917 65.2203 122.025 67.5938C110.246 72.337 101.868 78.8138 97.7258 86.38C94.7631 91.7907 94.5711 99.6098 97.2869 104.251C99.4394 107.929 103.855 111.84 107.091 112.936C109.766 113.841 114.908 113.916 117.261 113.085C118.56 112.626 118.12 112.146 114.601 110.182C104.818 104.722 101.95 91.976 108.067 81.1379C110.485 76.8548 116.051 71.6385 120.506 69.4798C122.975 68.284 123.06 68.2787 121.203 69.4373C115.994 72.6871 110.377 78.6991 108.626 82.901C106.611 87.7354 106.254 94.7717 107.79 99.3745C110.128 106.38 117.019 110.324 123.756 108.512L127.156 107.598L122.98 103.945C119.01 100.474 116.128 95.0146 116.128 90.9631C116.128 87.3732 118.967 81.7142 122.578 78.1091C131.86 68.8405 146.797 64.8497 165.346 66.6819C189.692 69.0873 207.538 77.9884 214.585 91.2425C216.169 94.2212 217.687 97.2773 217.959 98.0343C218.975 100.862 219.927 98.4982 219.197 94.9638C215.204 75.6339 203.185 63.3076 176.428 51.1006C159.803 43.5168 154.324 38.1638 156.225 31.3644C157.002 28.5832 155.576 29.0296 152.126 32.6476Z" fill="black"/>
<path fill-rule="evenodd" clip-rule="evenodd" d="M265.668 63.7128C264.967 63.9932 264.012 64.2225 263.545 64.2225C263.078 64.2225 263.269 63.9932 263.97 63.7128C264.67 63.4325 265.625 63.2031 266.092 63.2031C266.559 63.2031 266.368 63.4325 265.668 63.7128Z" fill="black"/>
<path fill-rule="evenodd" clip-rule="evenodd" d="M23.2946 69.1743C18.9472 70.1822 15.7197 72.0327 11.9509 75.677C6.73603 80.7189 4.84018 84.9967 4.4217 92.6659C3.95748 101.175 5.95583 106.075 12.4312 112.309C20.9202 120.481 30.9788 123.349 43.1223 121.06C55.0065 118.82 65.2956 113.371 78.2124 102.473L85.3578 96.4454L84.1041 99.6519C82.5539 103.613 83.1215 109.891 85.3341 113.268C87.723 116.913 92.1458 119.301 95.6012 118.809C97.1641 118.586 99.4081 117.841 100.587 117.153L102.731 115.901L100.054 114.39C98.5805 113.559 96.3373 111.304 95.0675 109.378C92.9895 106.229 92.7583 105.159 92.7625 98.7059C92.7659 92.2922 93.0226 91.094 95.187 87.381C96.5178 85.0971 98.6034 82.0469 99.8207 80.6026L102.034 77.976L99.514 79.5849C98.1282 80.469 91.4664 85.5192 84.7106 90.8064C61.1599 109.239 49.6713 114.825 35.1543 114.902C29.3913 114.933 27.6522 114.62 23.5284 112.816C20.8609 111.649 17.3208 109.28 15.6613 107.551C6.27011 97.7727 10.2185 82.3655 22.9897 78.9552C29.199 77.2973 35.4143 80.4826 36.9112 86.0915L37.4737 88.1994L34.8968 85.9027C31.6658 83.0232 29.3515 82.999 26.1943 85.8129C22.5763 89.0382 22.755 92.7135 26.7017 96.231C29.5337 98.755 29.9225 98.8727 34.3444 98.5458C38.0133 98.2748 39.5618 97.7335 41.6305 96C50.2084 88.8109 47.4315 75.8288 36.2157 70.688C32.5155 68.9916 26.911 68.3355 23.2946 69.1743Z" fill="black"/>
<path fill-rule="evenodd" clip-rule="evenodd" d="M423.77 69.1778C428.117 70.1954 431.345 72.0637 435.114 75.7431C440.329 80.8334 442.225 85.1523 442.643 92.8953C443.107 101.486 441.109 106.433 434.633 112.727C426.145 120.978 416.086 123.873 403.942 121.562C392.058 119.301 381.769 113.799 368.852 102.797L361.707 96.7112L362.961 99.9485C364.511 103.948 363.943 110.286 361.731 113.696C359.342 117.376 354.919 119.786 351.464 119.29C349.901 119.065 347.657 118.313 346.477 117.617L344.333 116.354L347.011 114.828C348.484 113.989 350.727 111.712 351.997 109.769C354.075 106.589 354.306 105.508 354.302 98.9933C354.299 92.518 354.042 91.3083 351.878 87.5595C350.547 85.2537 348.461 82.1742 347.244 80.716L345.031 78.0641L347.551 79.6885C348.937 80.5811 355.598 85.6798 362.354 91.0179C385.905 109.628 397.393 115.267 411.91 115.345C417.673 115.376 419.412 115.061 423.536 113.239C426.204 112.061 429.744 109.669 431.403 107.924C440.795 98.0512 436.846 82.4959 424.075 79.0528C417.866 77.3789 411.65 80.5948 410.153 86.2576L409.591 88.3858L412.168 86.067C415.399 83.1598 417.713 83.1354 420.87 85.9763C424.488 89.2327 424.31 92.9433 420.363 96.4947C417.531 99.0429 417.142 99.1618 412.72 98.8317C409.051 98.5581 407.503 98.0116 405.434 96.2614C396.856 89.0032 399.633 75.8963 410.849 70.7061C414.549 68.9933 420.154 68.3309 423.77 69.1778Z" fill="black"/>
<path fill-rule="evenodd" clip-rule="evenodd" d="M162.402 78.5849C151.045 82.3271 143.518 92.5561 146.852 99.7143C148.615 103.503 151.425 105.511 154.961 105.511C159.333 105.511 161.446 103.822 162.974 99.105C165.614 90.9604 171.945 87.0497 182.478 87.0588C193.108 87.0679 203.705 90.842 211.376 97.3515C214.989 100.417 215.887 100.881 215.887 99.6809C215.887 97.2202 210.864 91.1759 206.248 88.0824C200.709 84.3697 193.311 81.0683 185.984 79.0409C179.192 77.1614 167.412 76.9338 162.402 78.5849Z" fill="black"/>
<path fill-rule="evenodd" clip-rule="evenodd" d="M264.993 77.9022C264.295 78.1027 261.252 78.9735 258.23 79.8376C251.029 81.8959 247.855 83.3787 241.576 87.6183C236.22 91.2338 231.178 97.0647 231.178 99.6431C231.178 100.8 232.179 100.286 235.946 97.1938C244.002 90.5808 254.06 87.0283 264.57 87.0837C274.702 87.1369 280.998 90.722 283.266 97.7291C285.016 103.135 287.581 105.511 291.668 105.511C294.046 105.511 295.407 104.921 297.624 102.929C300.147 100.663 300.498 99.8709 300.498 96.4452C300.498 91.5693 298.436 87.8157 293.527 83.7507C288.238 79.3729 281.859 77.4042 273.203 77.4786C269.385 77.5112 265.69 77.7026 264.993 77.9022Z" fill="black"/>
<path fill-rule="evenodd" clip-rule="evenodd" d="M177.97 93.3122C171.853 96.0564 169.388 103.304 172.17 110.371C172.803 111.982 173.977 113.955 174.779 114.758C176.825 116.808 178.561 115.763 183.657 109.414C186.171 106.281 189.026 103.67 190.748 102.93C193.943 101.555 203.586 101.249 205.648 102.457C206.727 103.089 206.691 103.203 205.403 103.213C204.57 103.219 202.365 103.928 200.502 104.789C194.832 107.411 191.958 113.723 195.127 116.595C198.297 119.467 202.768 116.845 206.615 109.859C208.043 107.265 210.141 104.245 211.275 103.148L213.338 101.154L210.551 99.231C200.745 92.4645 185.879 89.764 177.97 93.3122Z" fill="black"/>
<path fill-rule="evenodd" clip-rule="evenodd" d="M254.38 92.0587C253.917 92.2059 251.407 92.8654 248.803 93.5248C246.198 94.1843 241.742 96.1389 238.898 97.868L233.727 101.012L236.153 103.818C237.488 105.361 239.565 108.401 240.767 110.573C243.073 114.737 246.478 117.742 248.889 117.742C250.996 117.742 253.117 115.258 253.117 112.789C253.117 109.971 246.832 104.137 243.055 103.45C238.905 102.694 241.674 101.665 247.895 101.651C254.796 101.635 257.103 102.805 262.639 109.12C269.965 117.478 270.62 117.659 273.398 112.089C275.587 107.699 275.544 100.524 273.309 97.1856C271.057 93.8224 265.785 91.6922 259.854 91.7481C257.307 91.7719 254.843 91.9122 254.38 92.0587Z" fill="black"/>
<path fill-rule="evenodd" clip-rule="evenodd" d="M216.58 102.471C210.004 105.396 206.801 113.461 210.005 119.029C213.526 125.149 221.32 127.963 228.049 125.542C237.305 122.214 240.267 112.176 233.913 105.672C229.088 100.732 223.012 99.6098 216.58 102.471Z" fill="black"/>
<path fill-rule="evenodd" clip-rule="evenodd" d="M227.907 2.46817C217.677 7.41114 210.59 15.9324 208.693 25.5678C207.5 31.6263 208.486 37.3059 213.871 55.4162C218.992 72.6327 221.43 83.4026 222.116 91.8373C222.648 98.3781 223.878 98.555 224 92.1084C224.095 87.0531 227.991 69.4083 232.498 53.6286C238.044 34.2083 238.185 32.8209 235.915 20.1236C234.71 13.3801 234.19 7.87666 234.466 4.79195C234.764 1.47563 234.599 -0.014325 233.935 0.000103755C233.405 0.0107354 230.693 1.12175 227.907 2.46817Z" fill="url(#paint4_linear_1548_9999)"/>
<path fill-rule="evenodd" clip-rule="evenodd" d="M253.502 23.4237C253.959 24.7648 253.183 25.6921 249.162 28.6114C240.908 34.6041 236.86 41.1691 234.977 51.6177C234.64 53.4866 232.692 61.722 230.647 69.918C226.505 86.5186 226.022 89.7415 229.036 80.6453C231.469 73.301 237.51 60.5221 241.578 54.1103C244.547 49.4316 249.617 42.5562 250.099 42.5562C250.24 42.5562 246.783 48.8335 242.418 56.5063C235.455 68.7446 230.272 79.203 230.331 80.896C230.341 81.198 231.613 79.354 233.156 76.7979C236.846 70.686 240.014 67.0969 249.554 58.2212C259.17 49.2738 261.807 44.8118 261.76 37.5619C261.724 31.9339 259.684 27.4568 255.585 24.0105C253.249 22.0464 253.009 21.9784 253.502 23.4237Z" fill="url(#paint5_linear_1548_9999)"/>
<path fill-rule="evenodd" clip-rule="evenodd" d="M190.049 24.218C186.618 27.665 184.797 32.3043 184.794 37.606C184.79 45.1093 186.917 48.7825 196.104 57.1343C205.576 65.7471 210.998 71.6928 213.747 76.4861C214.927 78.5407 216.056 80.2211 216.259 80.2211C217.461 80.2211 207.112 60.5171 199.324 47.9769C197.198 44.5549 195.638 41.7543 195.858 41.7543C196.076 41.7543 198.206 44.3844 200.589 47.5998C206.434 55.4862 212.722 67.2503 216.766 77.8648C220.886 88.6808 221.017 87.477 217.208 73.77C215.601 67.9842 213.266 58.8728 212.019 53.5229C208.904 40.1561 206.986 36.6503 199.193 30.0725C195.68 27.1076 192.806 24.2806 192.806 23.7896C192.806 22.5014 191.566 22.6944 190.049 24.218Z" fill="url(#paint6_linear_1548_9999)"/>
<path fill-rule="evenodd" clip-rule="evenodd" d="M224.547 54.0105C224.591 66.6993 224.3 79.4638 223.901 82.376L223.177 87.6709L222.629 80.485C221.878 70.6138 221.78 43.9055 222.46 33.8944C223.454 19.2396 224.462 28.9512 224.547 54.0105Z" fill="white"/>
<path fill-rule="evenodd" clip-rule="evenodd" d="M290.346 32.0891C291.144 34.7653 291.007 35.5384 289.186 38.6065C286.685 42.8213 282.948 45.3493 271.84 50.3426C250.066 60.1293 239.14 68.8941 231.942 82.3458C228.77 88.2739 226.172 97.7785 227.419 98.8935C227.904 99.327 228.409 99.0395 228.734 98.1462C229.025 97.3489 230.56 94.2687 232.144 91.3012C239.062 78.3442 256.538 69.3956 279.882 66.8563C297.202 64.972 313.536 68.8767 322.736 77.1022C327.617 81.4653 329.766 85.7195 329.766 91.0228C329.766 96.3375 327.677 100.433 323.076 104.142C318.85 107.549 319.276 108.471 325.311 108.973C330.419 109.399 334.34 107.251 337.419 102.34C339.241 99.4328 339.533 98.0229 339.526 92.1575C339.52 86.1521 339.235 84.867 337.116 81.2565C335.795 79.0061 332.76 75.463 330.373 73.3843C327.985 71.3056 326.829 69.9864 327.804 70.4524C331.357 72.1528 338.146 79.6831 339.897 83.8677C344.01 93.6945 340.831 105 332.58 109.885C330.427 111.16 328.256 112.227 327.754 112.256C325.369 112.395 330.666 113.616 333.856 113.663C340.799 113.764 348.253 108.522 350.17 102.19C351.719 97.0705 350.757 89.6408 347.947 85.0251C343.645 77.9585 332.401 70.2905 320.717 66.4554C316.408 65.0408 319.637 65.0174 325.534 66.4198C333.052 68.2088 339.676 71.5522 352.658 80.1128C370.455 91.8481 378.424 94.7059 383.859 91.3019C388.93 88.1272 388.924 80.8798 383.848 77.0613L381.23 75.0931L379.844 77.5734C378.258 80.4138 373.788 82.699 369.817 82.7005C366.182 82.7028 358.752 80.1362 355.611 77.7943L353.073 75.9009L356.493 76.3472C364.369 77.3752 371.032 73.5129 370.114 68.4516C369.353 64.2594 368.243 63.615 364.704 65.3101C360.43 67.3578 353.047 68.5779 347.838 68.0976C345.398 67.8722 338.914 66.3207 333.429 64.649C318.238 60.0196 311.771 59.0022 297.648 59.0189C289.502 59.0287 283.265 59.4478 279.09 60.2655C275.631 60.9432 272.687 61.3963 272.548 61.2723C272.409 61.1482 275.342 59.9765 279.064 58.6679C296.669 52.4802 302.524 44.7306 296.517 35.5671C295.274 33.6708 293.173 31.4294 291.848 30.586L289.438 29.0527L290.346 32.0891Z" fill="url(#paint7_linear_1548_9999)"/>
<path fill-rule="evenodd" clip-rule="evenodd" d="M152.126 32.6476C148.774 36.1646 147.048 40.6315 147.821 43.7917C149.225 49.5326 154.779 53.733 167.297 58.5249C171.483 60.1277 173.957 61.2712 172.794 61.0662C171.631 60.8612 168.206 60.2629 165.182 59.7359C157.171 58.3419 137.479 58.5833 129.237 60.1778C125.516 60.8976 117.143 63.0274 110.631 64.9105C100.081 67.9605 98.2045 68.287 93.4209 67.9013C90.3956 67.6576 85.9925 66.6219 83.3351 65.5293C78.2901 63.4564 77.7793 63.5946 76.6714 67.3417C75.9203 69.8807 77.2253 72.684 80.0341 74.561C81.8999 75.8085 83.5923 76.1449 87.7796 76.1023C92.9557 76.05 93.075 76.0917 91.3116 77.3271C87.8075 79.7818 82.1519 81.9382 78.2225 82.3179C73.2223 82.8008 68.8869 80.9329 66.9569 77.463L65.5715 74.9733L62.9962 76.9186C57.8463 80.8092 57.4987 87.0672 62.2341 90.6449C67.7477 94.8096 75.5439 92.2076 93.2078 80.3058C108.844 69.7691 115.529 66.631 124.797 65.4769C128.124 65.0631 127.917 65.2203 122.025 67.5938C110.246 72.337 101.868 78.8138 97.7258 86.38C94.7631 91.7907 94.5711 99.6098 97.2869 104.251C99.4394 107.929 103.855 111.84 107.091 112.936C109.766 113.841 114.908 113.916 117.261 113.085C118.56 112.626 118.12 112.146 114.601 110.182C104.818 104.722 101.95 91.976 108.067 81.1379C110.485 76.8548 116.051 71.6385 120.506 69.4798C122.975 68.284 123.06 68.2787 121.203 69.4373C115.994 72.6871 110.377 78.6991 108.626 82.901C106.611 87.7354 106.254 94.7717 107.79 99.3745C110.128 106.38 117.019 110.324 123.756 108.512L127.156 107.598L122.98 103.945C119.01 100.474 116.128 95.0146 116.128 90.9631C116.128 87.3732 118.967 81.7142 122.578 78.1091C131.86 68.8405 146.797 64.8497 165.346 66.6819C189.692 69.0873 207.538 77.9884 214.585 91.2425C216.169 94.2212 217.687 97.2773 217.959 98.0343C218.975 100.862 219.927 98.4982 219.197 94.9638C215.204 75.6339 203.185 63.3076 176.428 51.1006C159.803 43.5168 154.324 38.1638 156.225 31.3644C157.002 28.5832 155.576 29.0296 152.126 32.6476Z" fill="url(#paint8_linear_1548_9999)"/>
<path fill-rule="evenodd" clip-rule="evenodd" d="M265.668 63.7128C264.967 63.9932 264.012 64.2225 263.545 64.2225C263.078 64.2225 263.269 63.9932 263.97 63.7128C264.67 63.4325 265.625 63.2031 266.092 63.2031C266.559 63.2031 266.368 63.4325 265.668 63.7128Z" fill="black"/>
<path fill-rule="evenodd" clip-rule="evenodd" d="M23.2946 69.1743C18.9472 70.1822 15.7197 72.0327 11.9509 75.677C6.73603 80.7189 4.84018 84.9967 4.4217 92.6659C3.95748 101.175 5.95583 106.075 12.4312 112.309C20.9202 120.481 30.9788 123.349 43.1223 121.06C55.0065 118.82 65.2956 113.371 78.2124 102.473L85.3578 96.4454L84.1041 99.6519C82.5539 103.613 83.1215 109.891 85.3341 113.268C87.723 116.913 92.1458 119.301 95.6012 118.809C97.1641 118.586 99.4081 117.841 100.587 117.153L102.731 115.901L100.054 114.39C98.5805 113.559 96.3373 111.304 95.0675 109.378C92.9895 106.229 92.7583 105.159 92.7625 98.7059C92.7659 92.2922 93.0226 91.094 95.187 87.381C96.5178 85.0971 98.6034 82.0469 99.8207 80.6026L102.034 77.976L99.514 79.5849C98.1282 80.469 91.4664 85.5192 84.7106 90.8064C61.1599 109.239 49.6713 114.825 35.1543 114.902C29.3913 114.933 27.6522 114.62 23.5284 112.816C20.8609 111.649 17.3208 109.28 15.6613 107.551C6.27011 97.7727 10.2185 82.3655 22.9897 78.9552C29.199 77.2973 35.4143 80.4826 36.9112 86.0915L37.4737 88.1994L34.8968 85.9027C31.6658 83.0232 29.3515 82.999 26.1943 85.8129C22.5763 89.0382 22.755 92.7135 26.7017 96.231C29.5337 98.755 29.9225 98.8727 34.3444 98.5458C38.0133 98.2748 39.5618 97.7335 41.6305 96C50.2084 88.8109 47.4315 75.8288 36.2157 70.688C32.5155 68.9916 26.911 68.3355 23.2946 69.1743Z" fill="url(#paint9_linear_1548_9999)"/>
<path fill-rule="evenodd" clip-rule="evenodd" d="M423.77 69.1778C428.117 70.1954 431.345 72.0637 435.114 75.7431C440.329 80.8334 442.225 85.1523 442.643 92.8953C443.107 101.486 441.109 106.433 434.633 112.727C426.145 120.978 416.086 123.873 403.942 121.562C392.058 119.301 381.769 113.799 368.852 102.797L361.707 96.7112L362.961 99.9485C364.511 103.948 363.943 110.286 361.731 113.696C359.342 117.376 354.919 119.786 351.464 119.29C349.901 119.065 347.657 118.313 346.477 117.617L344.333 116.354L347.011 114.828C348.484 113.989 350.727 111.712 351.997 109.769C354.075 106.589 354.306 105.508 354.302 98.9933C354.299 92.518 354.042 91.3083 351.878 87.5595C350.547 85.2537 348.461 82.1742 347.244 80.716L345.031 78.0641L347.551 79.6885C348.937 80.5811 355.598 85.6798 362.354 91.0179C385.905 109.628 397.393 115.267 411.91 115.345C417.673 115.376 419.412 115.061 423.536 113.239C426.204 112.061 429.744 109.669 431.403 107.924C440.795 98.0512 436.846 82.4959 424.075 79.0528C417.866 77.3789 411.65 80.5948 410.153 86.2576L409.591 88.3858L412.168 86.067C415.399 83.1598 417.713 83.1354 420.87 85.9763C424.488 89.2327 424.31 92.9433 420.363 96.4947C417.531 99.0429 417.142 99.1618 412.72 98.8317C409.051 98.5581 407.503 98.0116 405.434 96.2614C396.856 89.0032 399.633 75.8963 410.849 70.7061C414.549 68.9933 420.154 68.3309 423.77 69.1778Z" fill="url(#paint10_linear_1548_9999)"/>
<path fill-rule="evenodd" clip-rule="evenodd" d="M162.402 78.5849C151.045 82.3271 143.518 92.5561 146.852 99.7143C148.615 103.503 151.425 105.511 154.961 105.511C159.333 105.511 161.446 103.822 162.974 99.105C165.614 90.9604 171.945 87.0497 182.478 87.0588C193.108 87.0679 203.705 90.842 211.376 97.3515C214.989 100.417 215.887 100.881 215.887 99.6809C215.887 97.2202 210.864 91.1759 206.248 88.0824C200.709 84.3697 193.311 81.0683 185.984 79.0409C179.192 77.1614 167.412 76.9338 162.402 78.5849Z" fill="#9A5124"/>
<path fill-rule="evenodd" clip-rule="evenodd" d="M264.993 77.9022C264.295 78.1027 261.252 78.9735 258.23 79.8376C251.029 81.8959 247.855 83.3787 241.576 87.6183C236.22 91.2338 231.178 97.0647 231.178 99.6431C231.178 100.8 232.179 100.286 235.946 97.1938C244.002 90.5808 254.06 87.0283 264.57 87.0837C274.702 87.1369 280.998 90.722 283.266 97.7291C285.016 103.135 287.581 105.511 291.668 105.511C294.046 105.511 295.407 104.921 297.624 102.929C300.147 100.663 300.498 99.8709 300.498 96.4452C300.498 91.5693 298.436 87.8157 293.527 83.7507C288.238 79.3729 281.859 77.4042 273.203 77.4786C269.385 77.5112 265.69 77.7026 264.993 77.9022Z" fill="#9A5124"/>
<path fill-rule="evenodd" clip-rule="evenodd" d="M177.97 93.3122C171.853 96.0564 169.388 103.304 172.17 110.371C172.803 111.982 173.977 113.955 174.779 114.758C176.825 116.808 178.561 115.763 183.657 109.414C186.171 106.281 189.026 103.67 190.748 102.93C193.943 101.555 203.586 101.249 205.648 102.457C206.727 103.089 206.691 103.203 205.403 103.213C204.57 103.219 202.365 103.928 200.502 104.789C194.832 107.411 191.958 113.723 195.127 116.595C198.297 119.467 202.768 116.845 206.615 109.859C208.043 107.265 210.141 104.245 211.275 103.148L213.338 101.154L210.551 99.231C200.745 92.4645 185.879 89.764 177.97 93.3122Z" fill="#5D2F24"/>
<path fill-rule="evenodd" clip-rule="evenodd" d="M254.38 92.0587C253.917 92.2059 251.407 92.8654 248.803 93.5248C246.198 94.1843 241.742 96.1389 238.898 97.868L233.727 101.012L236.153 103.818C237.488 105.361 239.565 108.401 240.767 110.573C243.073 114.737 246.478 117.742 248.889 117.742C250.996 117.742 253.117 115.258 253.117 112.789C253.117 109.971 246.832 104.137 243.055 103.45C238.905 102.694 241.674 101.665 247.895 101.651C254.796 101.635 257.103 102.805 262.639 109.12C269.965 117.478 270.62 117.659 273.398 112.089C275.587 107.699 275.544 100.524 273.309 97.1856C271.057 93.8224 265.785 91.6922 259.854 91.7481C257.307 91.7719 254.843 91.9122 254.38 92.0587Z" fill="#5D2F24"/>
<path fill-rule="evenodd" clip-rule="evenodd" d="M216.58 102.471C210.004 105.396 206.801 113.461 210.005 119.029C213.526 125.149 221.32 127.963 228.049 125.542C237.305 122.214 240.267 112.176 233.913 105.672C229.088 100.732 223.012 99.6098 216.58 102.471Z" fill="url(#paint11_linear_1548_9999)"/>
<path fill-rule="evenodd" clip-rule="evenodd" d="M227.549 627.939C217.32 622.996 210.232 614.475 208.335 604.839C207.142 598.781 208.128 593.101 213.514 574.991C218.635 557.775 221.073 547.005 221.758 538.57C222.291 532.029 223.521 531.852 223.642 538.299C223.737 543.354 227.633 560.999 232.14 576.779C237.687 596.199 237.828 597.586 235.558 610.284C234.352 617.027 233.832 622.531 234.109 625.615C234.407 628.932 234.241 630.422 233.577 630.407C233.048 630.396 230.335 629.285 227.549 627.939Z" fill="url(#paint12_linear_1548_9999)"/>
<path fill-rule="evenodd" clip-rule="evenodd" d="M253.144 606.983C253.602 605.642 252.825 604.715 248.805 601.796C240.551 595.803 236.502 589.238 234.619 578.79C234.282 576.921 232.334 568.685 230.289 560.489C226.148 543.889 225.664 540.666 228.678 549.762C231.111 557.106 237.152 569.885 241.221 576.297C244.189 580.976 249.26 587.851 249.742 587.851C249.882 587.851 246.426 581.574 242.06 573.901C235.097 561.663 229.914 551.204 229.974 549.511C229.984 549.209 231.255 551.053 232.798 553.609C236.488 559.721 239.656 563.31 249.196 572.186C258.813 581.133 261.45 585.595 261.402 592.845C261.366 598.473 259.326 602.95 255.227 606.397C252.891 608.361 252.651 608.429 253.144 606.983Z" fill="url(#paint13_linear_1548_9999)"/>
<path fill-rule="evenodd" clip-rule="evenodd" d="M189.691 606.189C186.261 602.742 184.439 598.103 184.437 592.801C184.433 585.298 186.56 581.625 195.746 573.273C205.219 564.66 210.64 558.714 213.39 553.921C214.569 551.867 215.699 550.186 215.901 550.186C217.103 550.186 206.755 569.89 198.966 582.43C196.841 585.852 195.281 588.653 195.5 588.653C195.719 588.653 197.848 586.023 200.231 582.807C206.076 574.921 212.364 563.157 216.408 552.542C220.529 541.726 220.659 542.93 216.851 556.637C215.244 562.423 212.908 571.534 211.661 576.884C208.546 590.251 206.628 593.757 198.836 600.335C195.323 603.3 192.448 606.127 192.448 606.618C192.448 607.906 191.208 607.713 189.691 606.189Z" fill="url(#paint14_linear_1548_9999)"/>
<path fill-rule="evenodd" clip-rule="evenodd" d="M224.19 576.397C224.233 563.708 223.942 550.943 223.544 548.031L222.819 542.736L222.271 549.922C221.52 559.793 221.422 586.502 222.102 596.513C223.097 611.168 224.104 601.456 224.19 576.397Z" fill="black"/>
<path fill-rule="evenodd" clip-rule="evenodd" d="M289.988 598.318C290.787 595.642 290.65 594.869 288.829 591.801C286.327 587.586 282.591 585.058 271.482 580.065C249.708 570.278 238.782 561.513 231.585 548.061C228.412 542.133 225.814 532.629 227.062 531.514C227.547 531.08 228.051 531.368 228.377 532.261C228.668 533.058 230.202 536.139 231.786 539.106C238.704 552.063 256.18 561.012 279.524 563.551C296.845 565.435 313.178 561.531 322.379 553.305C327.26 548.942 329.408 544.688 329.408 539.384C329.408 534.07 327.32 529.974 322.718 526.265C318.492 522.859 318.919 521.937 324.953 521.434C330.061 521.008 333.982 523.157 337.061 528.067C338.884 530.974 339.175 532.384 339.169 538.25C339.162 544.255 338.878 545.54 336.759 549.151C335.437 551.401 332.403 554.944 330.016 557.023C327.628 559.102 326.472 560.421 327.447 559.955C331 558.254 337.789 550.724 339.539 546.54C343.653 536.713 340.474 525.407 332.222 520.522C330.07 519.247 327.898 518.18 327.397 518.151C325.011 518.012 330.308 516.791 333.498 516.744C340.441 516.643 347.895 521.885 349.812 528.217C351.361 533.337 350.399 540.766 347.589 545.382C343.287 552.449 332.043 560.117 320.359 563.952C316.05 565.366 319.279 565.39 325.176 563.987C332.695 562.198 339.319 558.855 352.301 550.294C370.097 538.559 378.066 535.701 383.502 539.105C388.572 542.28 388.566 549.527 383.49 553.346L380.873 555.314L379.487 552.834C377.9 549.993 373.431 547.708 369.459 547.707C365.824 547.704 358.394 550.271 355.254 552.613L352.715 554.506L356.135 554.06C364.012 553.032 370.675 556.894 369.756 561.956C368.995 566.148 367.886 566.792 364.347 565.097C360.073 563.049 352.69 561.829 347.48 562.31C345.04 562.535 338.556 564.087 333.071 565.758C317.881 570.388 311.413 571.405 297.29 571.388C289.144 571.379 282.907 570.959 278.732 570.142C275.273 569.464 272.329 569.011 272.19 569.135C272.051 569.259 274.984 570.431 278.707 571.739C296.311 577.927 302.166 585.677 296.159 594.84C294.916 596.736 292.815 598.978 291.49 599.821L289.081 601.354L289.988 598.318Z" fill="black"/>
<path fill-rule="evenodd" clip-rule="evenodd" d="M151.769 597.76C148.416 594.243 146.69 589.776 147.463 586.616C148.868 580.875 154.421 576.674 166.939 571.882C171.126 570.28 173.6 569.136 172.437 569.341C171.274 569.546 167.848 570.144 164.825 570.671C156.814 572.065 137.122 571.824 128.88 570.229C125.158 569.51 116.785 567.38 110.273 565.497C99.7236 562.447 97.8469 562.12 93.0632 562.506C90.0379 562.75 85.6349 563.785 82.9775 564.878C77.9325 566.951 77.4216 566.813 76.3137 563.066C75.5626 560.526 76.8677 557.723 79.6764 555.846C81.5422 554.599 83.2346 554.262 87.422 554.305C92.5981 554.357 92.7173 554.316 90.9539 553.08C87.4499 550.625 81.7942 548.469 77.8648 548.089C72.8647 547.606 68.5293 549.474 66.5992 552.944L65.2139 555.434L62.6385 553.489C57.4886 549.598 57.141 543.34 61.8765 539.762C67.39 535.598 75.1863 538.2 92.8501 550.101C108.487 560.638 115.172 563.776 124.439 564.93C127.766 565.344 127.559 565.187 121.667 562.813C109.888 558.07 101.511 551.593 97.3682 544.027C94.4055 538.617 94.2135 530.797 96.9292 526.157C99.0817 522.479 103.497 518.567 106.733 517.471C109.409 516.566 114.551 516.491 116.904 517.322C118.202 517.781 117.762 518.262 114.243 520.225C104.46 525.685 101.592 538.431 107.709 549.269C110.127 553.552 115.693 558.769 120.148 560.927C122.618 562.123 122.702 562.129 120.845 560.97C115.636 557.72 110.019 551.708 108.268 547.506C106.254 542.672 105.896 535.636 107.432 531.033C109.77 524.027 116.661 520.083 123.398 521.896L126.798 522.81L122.622 526.462C118.652 529.933 115.77 535.393 115.77 539.444C115.77 543.034 118.61 548.693 122.22 552.298C131.502 561.567 146.44 565.558 164.988 563.725C189.334 561.32 207.18 552.419 214.228 539.165C215.811 536.186 217.329 533.13 217.601 532.373C218.617 529.545 219.569 531.909 218.84 535.443C214.847 554.773 202.828 567.1 176.07 579.307C159.445 586.89 153.966 592.243 155.867 599.043C156.645 601.824 155.219 601.378 151.769 597.76Z" fill="black"/>
<path fill-rule="evenodd" clip-rule="evenodd" d="M265.31 566.694C264.61 566.414 263.654 566.185 263.187 566.185C262.721 566.185 262.912 566.414 263.612 566.694C264.312 566.975 265.268 567.204 265.735 567.204C266.201 567.204 266.01 566.975 265.31 566.694Z" fill="black"/>
<path fill-rule="evenodd" clip-rule="evenodd" d="M22.937 561.233C18.5896 560.225 15.362 558.375 11.5932 554.73C6.37836 549.688 4.48251 545.411 4.06404 537.741C3.59982 529.233 5.59817 524.333 12.0735 518.099C20.5625 509.927 30.6212 507.058 42.7646 509.347C54.6488 511.587 64.9379 517.036 77.8547 527.934L85.0002 533.962L83.7464 530.755C82.1962 526.794 82.7638 520.516 84.9765 517.139C87.3653 513.494 91.7881 511.107 95.2435 511.598C96.8065 511.821 99.0505 512.566 100.23 513.255L102.374 514.506L99.696 516.017C98.2228 516.848 95.9797 519.104 94.7098 521.029C92.6319 524.178 92.4006 525.248 92.4048 531.701C92.4082 538.115 92.6649 539.313 94.8293 543.026C96.1601 545.31 98.2457 548.36 99.463 549.805L101.677 552.431L99.1564 550.822C97.7705 549.938 91.1087 544.888 84.353 539.601C60.8023 521.168 49.3137 515.582 34.7966 515.505C29.0337 515.474 27.2945 515.787 23.1708 517.591C20.5032 518.758 16.9631 521.128 15.3036 522.856C5.91245 532.635 9.86086 548.042 22.632 551.452C28.8414 553.11 35.0567 549.925 36.5535 544.316L37.116 542.208L34.5391 544.505C31.3082 547.384 28.9939 547.408 25.8367 544.594C22.2186 541.369 22.3974 537.694 26.3441 534.176C29.176 531.652 29.5648 531.534 33.9868 531.861C37.6556 532.132 39.2042 532.674 41.2728 534.407C49.8507 541.596 47.0739 554.578 35.858 559.719C32.1578 561.416 26.5533 562.072 22.937 561.233Z" fill="black"/>
<path fill-rule="evenodd" clip-rule="evenodd" d="M423.412 561.229C427.76 560.212 430.987 558.344 434.756 554.664C439.971 549.574 441.867 545.255 442.285 537.512C442.749 528.921 440.751 523.974 434.276 517.68C425.787 509.43 415.728 506.534 403.585 508.845C391.7 511.106 381.411 516.608 368.494 527.61L361.349 533.696L362.603 530.459C364.153 526.459 363.585 520.121 361.373 516.712C358.984 513.031 354.561 510.621 351.106 511.117C349.543 511.342 347.299 512.095 346.119 512.79L343.975 514.054L346.653 515.579C348.126 516.418 350.369 518.695 351.639 520.639C353.717 523.818 353.949 524.899 353.944 531.414C353.941 537.889 353.684 539.099 351.52 542.848C350.189 545.154 348.103 548.233 346.886 549.691L344.673 552.343L347.193 550.719C348.579 549.826 355.24 544.727 361.996 539.389C385.547 520.78 397.035 515.14 411.553 515.062C417.315 515.031 419.055 515.346 423.178 517.168C425.846 518.347 429.386 520.739 431.046 522.483C440.437 532.356 436.488 547.911 423.717 551.354C417.508 553.028 411.292 549.812 409.796 544.15L409.233 542.021L411.81 544.34C415.041 547.247 417.355 547.272 420.512 544.431C424.131 541.175 423.952 537.464 420.005 533.913C417.173 531.364 416.784 531.245 412.362 531.575C408.693 531.849 407.145 532.396 405.076 534.146C396.498 541.404 399.275 554.511 410.491 559.701C414.191 561.414 419.796 562.076 423.412 561.229Z" fill="black"/>
<path fill-rule="evenodd" clip-rule="evenodd" d="M162.044 551.822C150.688 548.08 143.16 537.851 146.494 530.693C148.258 526.904 151.067 524.897 154.604 524.897C158.975 524.897 161.088 526.586 162.617 531.302C165.256 539.447 171.588 543.358 182.12 543.348C192.75 543.339 203.347 539.565 211.018 533.056C214.632 529.99 215.529 529.527 215.529 530.726C215.529 533.187 210.506 539.231 205.89 542.325C200.351 546.037 192.953 549.339 185.626 551.366C178.834 553.246 167.054 553.473 162.044 551.822Z" fill="black"/>
<path fill-rule="evenodd" clip-rule="evenodd" d="M264.635 552.505C263.938 552.305 260.894 551.434 257.872 550.57C250.671 548.511 247.498 547.029 241.218 542.789C235.862 539.173 230.82 533.342 230.82 530.764C230.82 529.607 231.821 530.121 235.588 533.213C243.645 539.826 253.703 543.379 264.212 543.323C274.344 543.27 280.641 539.685 282.909 532.678C284.659 527.272 287.223 524.897 291.311 524.897C293.688 524.897 295.049 525.487 297.266 527.478C299.79 529.744 300.141 530.536 300.141 533.962C300.141 538.838 298.079 542.592 293.169 546.657C287.88 551.034 281.501 553.003 272.845 552.929C269.028 552.896 265.333 552.705 264.635 552.505Z" fill="black"/>
<path fill-rule="evenodd" clip-rule="evenodd" d="M177.612 537.095C171.496 534.351 169.031 527.103 171.812 520.036C172.445 518.426 173.619 516.452 174.421 515.649C176.468 513.599 178.204 514.644 183.299 520.993C185.813 524.127 188.668 526.737 190.39 527.478C193.586 528.852 203.228 529.158 205.29 527.95C206.37 527.318 206.333 527.205 205.045 527.195C204.212 527.188 202.007 526.479 200.145 525.618C194.474 522.996 191.601 516.684 194.77 513.812C197.939 510.94 202.41 513.562 206.258 520.548C207.686 523.142 209.783 526.163 210.918 527.259L212.98 529.253L210.193 531.176C200.388 537.943 185.521 540.643 177.612 537.095Z" fill="black"/>
<path fill-rule="evenodd" clip-rule="evenodd" d="M254.022 538.349C253.559 538.201 251.05 537.542 248.446 536.882C245.841 536.223 241.384 534.268 238.54 532.539L233.369 529.395L235.795 526.59C237.13 525.047 239.207 522.006 240.409 519.834C242.715 515.67 246.12 512.665 248.531 512.665C250.639 512.665 252.759 515.149 252.759 517.619C252.759 520.437 246.474 526.271 242.698 526.958C238.547 527.714 241.317 528.743 247.538 528.757C254.438 528.772 256.745 527.602 262.282 521.287C269.608 512.929 270.262 512.748 273.041 518.319C275.229 522.708 275.186 529.884 272.951 533.222C270.699 536.585 265.427 538.715 259.497 538.659C256.949 538.635 254.486 538.495 254.022 538.349Z" fill="black"/>
<path fill-rule="evenodd" clip-rule="evenodd" d="M216.222 527.936C209.646 525.011 206.443 516.946 209.647 511.379C213.168 505.258 220.962 502.445 227.691 504.865C236.947 508.193 239.909 518.231 233.556 524.735C228.73 529.675 222.654 530.797 216.222 527.936Z" fill="black"/>
<path fill-rule="evenodd" clip-rule="evenodd" d="M227.549 627.939C217.32 622.996 210.232 614.475 208.335 604.839C207.142 598.781 208.128 593.101 213.514 574.991C218.635 557.775 221.073 547.005 221.758 538.57C222.291 532.029 223.521 531.852 223.642 538.299C223.737 543.354 227.633 560.999 232.14 576.779C237.687 596.199 237.828 597.586 235.558 610.284C234.352 617.027 233.832 622.531 234.109 625.615C234.407 628.932 234.241 630.422 233.577 630.407C233.048 630.396 230.335 629.285 227.549 627.939Z" fill="url(#paint15_linear_1548_9999)"/>
<path fill-rule="evenodd" clip-rule="evenodd" d="M253.144 606.983C253.602 605.642 252.825 604.715 248.805 601.796C240.551 595.803 236.502 589.238 234.619 578.79C234.282 576.921 232.334 568.685 230.289 560.489C226.148 543.889 225.664 540.666 228.678 549.762C231.111 557.106 237.152 569.885 241.221 576.297C244.189 580.976 249.26 587.851 249.742 587.851C249.882 587.851 246.426 581.574 242.06 573.901C235.097 561.663 229.914 551.204 229.974 549.511C229.984 549.209 231.255 551.053 232.798 553.609C236.488 559.721 239.656 563.31 249.196 572.186C258.813 581.133 261.45 585.595 261.402 592.845C261.366 598.473 259.326 602.95 255.227 606.397C252.891 608.361 252.651 608.429 253.144 606.983Z" fill="url(#paint16_linear_1548_9999)"/>
<path fill-rule="evenodd" clip-rule="evenodd" d="M189.691 606.189C186.261 602.742 184.439 598.103 184.437 592.801C184.433 585.298 186.56 581.625 195.746 573.273C205.219 564.66 210.64 558.714 213.39 553.921C214.569 551.867 215.699 550.186 215.901 550.186C217.103 550.186 206.755 569.89 198.966 582.43C196.841 585.852 195.281 588.653 195.5 588.653C195.719 588.653 197.848 586.023 200.231 582.807C206.076 574.921 212.364 563.157 216.408 552.542C220.529 541.726 220.659 542.93 216.851 556.637C215.244 562.423 212.908 571.534 211.661 576.884C208.546 590.251 206.628 593.757 198.836 600.335C195.323 603.3 192.448 606.127 192.448 606.618C192.448 607.906 191.208 607.713 189.691 606.189Z" fill="url(#paint17_linear_1548_9999)"/>
<path fill-rule="evenodd" clip-rule="evenodd" d="M224.19 576.397C224.233 563.708 223.942 550.943 223.544 548.031L222.819 542.736L222.271 549.922C221.52 559.793 221.422 586.502 222.102 596.513C223.097 611.168 224.104 601.456 224.19 576.397Z" fill="white"/>
<path fill-rule="evenodd" clip-rule="evenodd" d="M289.988 598.318C290.787 595.642 290.65 594.869 288.829 591.801C286.327 587.586 282.591 585.058 271.482 580.065C249.708 570.278 238.782 561.513 231.585 548.061C228.412 542.133 225.814 532.629 227.062 531.514C227.547 531.08 228.051 531.368 228.377 532.261C228.668 533.058 230.202 536.139 231.786 539.106C238.704 552.063 256.18 561.012 279.524 563.551C296.845 565.435 313.178 561.531 322.379 553.305C327.26 548.942 329.408 544.688 329.408 539.384C329.408 534.07 327.32 529.974 322.718 526.265C318.492 522.859 318.919 521.937 324.953 521.434C330.061 521.008 333.982 523.157 337.061 528.067C338.884 530.974 339.175 532.384 339.169 538.25C339.162 544.255 338.878 545.54 336.759 549.151C335.437 551.401 332.403 554.944 330.016 557.023C327.628 559.102 326.472 560.421 327.447 559.955C331 558.254 337.789 550.724 339.539 546.54C343.653 536.713 340.474 525.407 332.222 520.522C330.07 519.247 327.898 518.18 327.397 518.151C325.011 518.012 330.308 516.791 333.498 516.744C340.441 516.643 347.895 521.885 349.812 528.217C351.361 533.337 350.399 540.766 347.589 545.382C343.287 552.449 332.043 560.117 320.359 563.952C316.05 565.366 319.279 565.39 325.176 563.987C332.695 562.198 339.319 558.855 352.301 550.294C370.097 538.559 378.066 535.701 383.502 539.105C388.572 542.28 388.566 549.527 383.49 553.346L380.873 555.314L379.487 552.834C377.9 549.993 373.431 547.708 369.459 547.707C365.824 547.704 358.394 550.271 355.254 552.613L352.715 554.506L356.135 554.06C364.012 553.032 370.675 556.894 369.756 561.956C368.995 566.148 367.886 566.792 364.347 565.097C360.073 563.049 352.69 561.829 347.48 562.31C345.04 562.535 338.556 564.087 333.071 565.758C317.881 570.388 311.413 571.405 297.29 571.388C289.144 571.379 282.907 570.959 278.732 570.142C275.273 569.464 272.329 569.011 272.19 569.135C272.051 569.259 274.984 570.431 278.707 571.739C296.311 577.927 302.166 585.677 296.159 594.84C294.916 596.736 292.815 598.978 291.49 599.821L289.081 601.354L289.988 598.318Z" fill="url(#paint18_linear_1548_9999)"/>
<path fill-rule="evenodd" clip-rule="evenodd" d="M151.769 597.76C148.416 594.243 146.69 589.776 147.463 586.616C148.868 580.875 154.421 576.674 166.939 571.882C171.126 570.28 173.6 569.136 172.437 569.341C171.274 569.546 167.848 570.144 164.825 570.671C156.814 572.065 137.122 571.824 128.88 570.229C125.158 569.51 116.785 567.38 110.273 565.497C99.7236 562.447 97.8469 562.12 93.0632 562.506C90.0379 562.75 85.6349 563.785 82.9775 564.878C77.9325 566.951 77.4216 566.813 76.3137 563.066C75.5626 560.526 76.8677 557.723 79.6764 555.846C81.5422 554.599 83.2346 554.262 87.422 554.305C92.5981 554.357 92.7173 554.316 90.9539 553.08C87.4499 550.625 81.7942 548.469 77.8648 548.089C72.8647 547.606 68.5293 549.474 66.5992 552.944L65.2139 555.434L62.6385 553.489C57.4886 549.598 57.141 543.34 61.8765 539.762C67.39 535.598 75.1863 538.2 92.8501 550.101C108.487 560.638 115.172 563.776 124.439 564.93C127.766 565.344 127.559 565.187 121.667 562.813C109.888 558.07 101.511 551.593 97.3682 544.027C94.4055 538.617 94.2135 530.797 96.9292 526.157C99.0817 522.479 103.497 518.567 106.733 517.471C109.409 516.566 114.551 516.491 116.904 517.322C118.202 517.781 117.762 518.262 114.243 520.225C104.46 525.685 101.592 538.431 107.709 549.269C110.127 553.552 115.693 558.769 120.148 560.927C122.618 562.123 122.702 562.129 120.845 560.97C115.636 557.72 110.019 551.708 108.268 547.506C106.254 542.672 105.896 535.636 107.432 531.033C109.77 524.027 116.661 520.083 123.398 521.896L126.798 522.81L122.622 526.462C118.652 529.933 115.77 535.393 115.77 539.444C115.77 543.034 118.61 548.693 122.22 552.298C131.502 561.567 146.44 565.558 164.988 563.725C189.334 561.32 207.18 552.419 214.228 539.165C215.811 536.186 217.329 533.13 217.601 532.373C218.617 529.545 219.569 531.909 218.84 535.443C214.847 554.773 202.828 567.1 176.07 579.307C159.445 586.89 153.966 592.243 155.867 599.043C156.645 601.824 155.219 601.378 151.769 597.76Z" fill="url(#paint19_linear_1548_9999)"/>
<path fill-rule="evenodd" clip-rule="evenodd" d="M265.31 566.694C264.61 566.414 263.654 566.185 263.187 566.185C262.721 566.185 262.912 566.414 263.612 566.694C264.312 566.975 265.268 567.204 265.735 567.204C266.201 567.204 266.01 566.975 265.31 566.694Z" fill="black"/>
<path fill-rule="evenodd" clip-rule="evenodd" d="M22.937 561.233C18.5896 560.225 15.362 558.375 11.5932 554.73C6.37836 549.688 4.48251 545.411 4.06404 537.741C3.59982 529.233 5.59817 524.333 12.0735 518.099C20.5625 509.927 30.6212 507.058 42.7646 509.347C54.6488 511.587 64.9379 517.036 77.8547 527.934L85.0002 533.962L83.7464 530.755C82.1962 526.794 82.7638 520.516 84.9765 517.139C87.3653 513.494 91.7881 511.107 95.2435 511.598C96.8065 511.821 99.0505 512.566 100.23 513.255L102.374 514.506L99.696 516.017C98.2228 516.848 95.9797 519.104 94.7098 521.029C92.6319 524.178 92.4006 525.248 92.4048 531.701C92.4082 538.115 92.6649 539.313 94.8293 543.026C96.1601 545.31 98.2457 548.36 99.463 549.805L101.677 552.431L99.1564 550.822C97.7705 549.938 91.1087 544.888 84.353 539.601C60.8023 521.168 49.3137 515.582 34.7966 515.505C29.0337 515.474 27.2945 515.787 23.1708 517.591C20.5032 518.758 16.9631 521.128 15.3036 522.856C5.91245 532.635 9.86086 548.042 22.632 551.452C28.8414 553.11 35.0567 549.925 36.5535 544.316L37.116 542.208L34.5391 544.505C31.3082 547.384 28.9939 547.408 25.8367 544.594C22.2186 541.369 22.3974 537.694 26.3441 534.176C29.176 531.652 29.5648 531.534 33.9868 531.861C37.6556 532.132 39.2042 532.674 41.2728 534.407C49.8507 541.596 47.0739 554.578 35.858 559.719C32.1578 561.416 26.5533 562.072 22.937 561.233Z" fill="url(#paint20_linear_1548_9999)"/>
<path fill-rule="evenodd" clip-rule="evenodd" d="M423.412 561.229C427.76 560.212 430.987 558.344 434.756 554.664C439.971 549.574 441.867 545.255 442.285 537.512C442.749 528.921 440.751 523.974 434.276 517.68C425.787 509.43 415.728 506.534 403.585 508.845C391.7 511.106 381.411 516.608 368.494 527.61L361.349 533.696L362.603 530.459C364.153 526.459 363.585 520.121 361.373 516.712C358.984 513.031 354.561 510.621 351.106 511.117C349.543 511.342 347.299 512.095 346.119 512.79L343.975 514.054L346.653 515.579C348.126 516.418 350.369 518.695 351.639 520.639C353.717 523.818 353.949 524.899 353.944 531.414C353.941 537.889 353.684 539.099 351.52 542.848C350.189 545.154 348.103 548.233 346.886 549.691L344.673 552.343L347.193 550.719C348.579 549.826 355.24 544.727 361.996 539.389C385.547 520.78 397.035 515.14 411.553 515.062C417.315 515.031 419.055 515.346 423.178 517.168C425.846 518.347 429.386 520.739 431.046 522.483C440.437 532.356 436.488 547.911 423.717 551.354C417.508 553.028 411.292 549.812 409.796 544.15L409.233 542.021L411.81 544.34C415.041 547.247 417.355 547.272 420.512 544.431C424.131 541.175 423.952 537.464 420.005 533.913C417.173 531.364 416.784 531.245 412.362 531.575C408.693 531.849 407.145 532.396 405.076 534.146C396.498 541.404 399.275 554.511 410.491 559.701C414.191 561.414 419.796 562.076 423.412 561.229Z" fill="url(#paint21_linear_1548_9999)"/>
<path fill-rule="evenodd" clip-rule="evenodd" d="M162.044 551.822C150.688 548.08 143.16 537.851 146.494 530.693C148.258 526.904 151.067 524.897 154.604 524.897C158.975 524.897 161.088 526.586 162.617 531.302C165.256 539.447 171.588 543.358 182.12 543.348C192.75 543.339 203.347 539.565 211.018 533.056C214.632 529.99 215.529 529.527 215.529 530.726C215.529 533.187 210.506 539.231 205.89 542.325C200.351 546.037 192.953 549.339 185.626 551.366C178.834 553.246 167.054 553.473 162.044 551.822Z" fill="#9A5124"/>
<path fill-rule="evenodd" clip-rule="evenodd" d="M264.635 552.505C263.938 552.305 260.894 551.434 257.872 550.57C250.671 548.511 247.498 547.029 241.218 542.789C235.862 539.173 230.82 533.342 230.82 530.764C230.82 529.607 231.821 530.121 235.588 533.213C243.645 539.826 253.703 543.379 264.212 543.323C274.344 543.27 280.641 539.685 282.909 532.678C284.659 527.272 287.223 524.897 291.311 524.897C293.688 524.897 295.049 525.487 297.266 527.478C299.79 529.744 300.141 530.536 300.141 533.962C300.141 538.838 298.079 542.592 293.169 546.657C287.88 551.034 281.501 553.003 272.845 552.929C269.028 552.896 265.333 552.705 264.635 552.505Z" fill="#9A5124"/>
<path fill-rule="evenodd" clip-rule="evenodd" d="M177.612 537.095C171.496 534.351 169.031 527.103 171.812 520.036C172.445 518.426 173.619 516.452 174.421 515.649C176.468 513.599 178.204 514.644 183.299 520.993C185.813 524.127 188.668 526.737 190.39 527.478C193.586 528.852 203.228 529.158 205.29 527.95C206.37 527.318 206.333 527.205 205.045 527.195C204.212 527.188 202.007 526.479 200.145 525.618C194.474 522.996 191.601 516.684 194.77 513.812C197.939 510.94 202.41 513.562 206.258 520.548C207.686 523.142 209.783 526.163 210.918 527.259L212.98 529.253L210.193 531.176C200.388 537.943 185.521 540.643 177.612 537.095Z" fill="#5D2F24"/>
<path fill-rule="evenodd" clip-rule="evenodd" d="M254.022 538.349C253.559 538.201 251.05 537.542 248.446 536.882C245.841 536.223 241.384 534.268 238.54 532.539L233.369 529.395L235.795 526.59C237.13 525.047 239.207 522.006 240.409 519.834C242.715 515.67 246.12 512.665 248.531 512.665C250.639 512.665 252.759 515.149 252.759 517.619C252.759 520.437 246.474 526.271 242.698 526.958C238.547 527.714 241.317 528.743 247.538 528.757C254.438 528.772 256.745 527.602 262.282 521.287C269.608 512.929 270.262 512.748 273.041 518.319C275.229 522.708 275.186 529.884 272.951 533.222C270.699 536.585 265.427 538.715 259.497 538.659C256.949 538.635 254.486 538.495 254.022 538.349Z" fill="#5D2F24"/>
<path fill-rule="evenodd" clip-rule="evenodd" d="M216.222 527.936C209.646 525.011 206.443 516.946 209.647 511.379C213.168 505.258 220.962 502.445 227.691 504.865C236.947 508.193 239.909 518.231 233.556 524.735C228.73 529.675 222.654 530.797 216.222 527.936Z" fill="url(#paint22_linear_1548_9999)"/>
<path d="M114.328 236.048C113.624 235.664 112.12 235.472 109.816 235.472C107.576 235.472 106.104 235.664 105.4 236.048C104.056 236.752 103.128 237.936 102.616 239.6C102.424 240.304 102.328 242.064 102.328 244.88C102.328 247.824 102.424 249.616 102.616 250.256C103.064 251.856 103.992 253.008 105.4 253.712C106.232 254.16 107.704 254.384 109.816 254.384C111.672 254.384 113.048 254.224 113.944 253.904C114.84 253.584 115.64 252.976 116.344 252.08L117.208 251.024V238.832L116.344 237.776C115.704 237.072 115.032 236.496 114.328 236.048ZM88.408 231.824C89.304 230.928 89.848 230.48 90.04 230.48C90.232 230.48 90.328 238.032 90.328 253.136C90.328 268.176 90.488 275.856 90.808 276.176C91.32 276.688 91.8 276.72 92.248 276.272C92.44 276.08 92.536 268.72 92.536 254.192V232.304L93.496 231.44C94.136 230.8 94.936 230.48 95.896 230.48C97.56 230.48 98.648 230.96 99.16 231.92C99.416 232.304 99.576 236.112 99.64 243.344C99.64 250.768 99.768 254.48 100.024 254.48C100.216 254.48 100.344 251.568 100.408 245.744C100.472 239.792 100.696 236.432 101.08 235.664C102.04 233.68 103.448 232.24 105.304 231.344C106.136 230.96 106.84 230.736 107.416 230.672C108.056 230.608 109.752 230.576 112.504 230.576C115.256 230.576 116.92 230.608 117.496 230.672C118.072 230.736 118.776 230.96 119.608 231.344C121.464 232.24 122.872 233.68 123.832 235.664C124.216 236.496 124.408 239.568 124.408 244.88C124.408 250.192 124.216 253.264 123.832 254.096C122.872 256.144 121.464 257.616 119.608 258.512C118.392 259.152 116.024 259.472 112.504 259.472H110.008C109.176 259.472 108.76 259.504 108.76 259.568C108.76 259.696 110.136 261.424 112.888 264.752C115.704 268.08 117.464 270.128 118.168 270.896C119.896 272.752 121.56 273.872 123.16 274.256L124.6 274.544L124.12 275.408C122.904 277.648 121.08 278.768 118.648 278.768C117.688 278.768 116.76 278.544 115.864 278.096C114.84 277.584 113.784 276.784 112.696 275.696C111.608 274.544 109.368 271.92 105.976 267.824C101.944 262.96 99.832 260.528 99.64 260.528C99.576 260.528 99.544 263.216 99.544 268.592C99.544 273.136 99.448 275.824 99.256 276.656C99.128 277.488 98.616 278.096 97.72 278.48C97.208 278.736 95.928 278.864 93.88 278.864C92.024 278.864 90.744 278.64 90.04 278.192C89.464 277.808 89.048 277.392 88.792 276.944C88.536 276.432 88.408 268.784 88.408 254V231.824ZM135.552 244.592C137.28 242.736 139.936 241.808 143.52 241.808H144.672C146.656 241.872 148.064 242.128 148.896 242.576C150.432 243.344 151.36 244.592 151.68 246.32C152 248.048 152.224 252.912 152.352 260.912C152.416 269.488 152.576 274.032 152.832 274.544C153.152 275.44 153.888 275.888 155.04 275.888C155.36 275.888 155.584 275.856 155.712 275.792C156.608 275.664 156.736 275.952 156.096 276.656C155.968 276.784 155.776 276.976 155.52 277.232C154.304 278.448 152.672 279.056 150.624 279.056C148.384 279.056 146.784 278.384 145.824 277.04C145.504 276.656 145.312 275.696 145.248 274.16C145.184 272.56 145.12 268.176 145.056 261.008L144.96 245.744L144.192 245.36C143.808 245.168 143.424 245.072 143.04 245.072C142.272 245.072 141.536 245.392 140.832 246.032C140.128 246.608 139.776 247.28 139.776 248.048C139.776 249.392 140.544 250.864 142.08 252.464C143.04 253.424 143.456 253.968 143.328 254.096C143.264 254.16 143.2 254.192 143.136 254.192C142.624 254.192 141.728 254 140.448 253.616C139.232 253.232 138.336 252.88 137.76 252.56C136.992 252.112 136.416 251.76 136.032 251.504C135.648 251.184 135.296 250.704 134.976 250.064C134.72 249.424 134.592 248.624 134.592 247.664C134.592 246.64 134.624 246 134.688 245.744C134.816 245.424 135.104 245.04 135.552 244.592ZM142.368 256.688C143.2 256.368 143.68 256.496 143.808 257.072C143.872 257.264 143.904 258.832 143.904 261.776V265.136C143.84 269.232 143.68 271.824 143.424 272.912C143.232 274 142.592 275.088 141.504 276.176C139.84 277.84 137.696 278.672 135.072 278.672C132.384 278.672 130.272 277.904 128.736 276.368C127.2 274.96 126.432 272.4 126.432 268.688C126.432 266.32 126.848 264.432 127.68 263.024C129.408 260.016 132.608 258.416 137.28 258.224C137.728 258.224 138.208 258.224 138.72 258.224C139.232 258.16 139.552 258.128 139.68 258.128C140 258.128 140.16 258.16 140.16 258.224L139.968 258.608C139.52 259.056 138.976 259.376 138.336 259.568C137.504 259.888 136.704 260.432 135.936 261.2C135.168 261.904 134.688 262.608 134.496 263.312C134.048 265.04 133.824 266.864 133.824 268.784C133.824 270.896 134.112 272.496 134.688 273.584C135.328 274.672 136.32 275.216 137.664 275.216C138.688 275.216 139.552 274.864 140.256 274.16C140.96 273.456 141.408 272.368 141.6 270.896C141.856 269.424 141.984 266.8 141.984 263.024C141.984 258.864 142.112 256.752 142.368 256.688ZM174.861 241.52C175.949 241.2 176.813 241.04 177.453 241.04C178.989 241.04 180.333 241.52 181.485 242.48C182.701 243.44 183.501 244.592 183.885 245.936C184.205 246.832 184.365 251.792 184.365 260.816C184.365 269.328 184.461 274.064 184.653 275.024C184.717 275.408 184.813 275.632 184.941 275.696C185.133 275.76 185.517 275.728 186.093 275.6C186.925 275.472 187.341 275.472 187.341 275.6L186.669 276.752C185.581 278.288 184.045 279.056 182.061 279.056C180.589 279.056 179.565 278.448 178.989 277.232C178.413 275.888 178.125 271.632 178.125 264.464C178.125 263.952 178.125 263.12 178.125 261.968C178.189 260.816 178.221 259.92 178.221 259.28C178.221 258.512 178.221 257.616 178.221 256.592C178.285 255.568 178.317 254.864 178.317 254.48C178.317 252.304 178.189 250.8 177.933 249.968C177.741 249.136 177.261 248.208 176.493 247.184C175.661 245.968 174.733 245.36 173.709 245.36C172.877 245.36 172.013 245.808 171.117 246.704C170.029 247.792 169.389 248.944 169.197 250.16C169.069 251.312 168.973 255.696 168.909 263.312C168.845 272.336 168.653 277.104 168.333 277.616C167.821 278.576 167.085 279.056 166.125 279.056C165.421 279.056 164.685 278.672 163.917 277.904L162.765 276.656V262.352C162.765 258.256 162.733 255.152 162.669 253.04C162.669 250.928 162.605 249.232 162.477 247.952C162.413 246.672 162.285 245.904 162.093 245.648C161.965 245.392 161.741 245.264 161.421 245.264C161.101 245.264 160.557 245.52 159.789 246.032C159.021 246.608 158.637 246.736 158.637 246.416C158.637 246.288 158.733 246.032 158.925 245.648C159.437 244.752 160.205 243.92 161.229 243.152C162.317 242.32 163.277 241.904 164.109 241.904C164.621 241.904 165.165 242.128 165.741 242.576L166.509 243.248L166.605 258.992C166.733 269.488 166.893 274.96 167.085 275.408L167.277 275.6C167.597 275.6 167.757 271.12 167.757 262.16C167.757 255.12 167.853 250.992 168.045 249.776C168.493 245.552 170.765 242.8 174.861 241.52ZM200.092 236.336C201.244 235.952 202.652 235.76 204.316 235.76C206.3 235.76 207.868 236.016 209.02 236.528C210.492 237.168 211.228 237.744 211.228 238.256C211.228 238.384 210.684 238.32 209.596 238.064C208.892 237.872 208.22 237.776 207.58 237.776C204.764 237.776 202.748 238.544 201.532 240.08C201.084 240.656 200.796 241.52 200.668 242.672C200.54 243.824 200.476 246.256 200.476 249.968V258.224C200.54 265.84 200.636 270.576 200.764 272.432C200.892 274.224 201.244 275.28 201.82 275.6C202.076 275.728 202.268 275.792 202.396 275.792C203.228 275.792 203.964 275.216 204.604 274.064L205.276 272.912L205.372 258.416C205.436 248.88 205.596 243.824 205.852 243.248C206.428 241.904 207.42 241.232 208.828 241.232C209.98 241.232 211.004 241.68 211.9 242.576C212.412 243.088 212.732 243.536 212.86 243.92C213.052 244.304 213.18 245.232 213.244 246.704C213.372 248.112 213.436 250.448 213.436 253.712C213.436 258.96 213.404 263.6 213.34 267.632C213.212 279.792 213.052 287.76 212.86 291.536C212.732 295.312 212.412 297.744 211.9 298.832C211.004 300.752 209.276 302.352 206.716 303.632C204.22 304.912 201.564 305.552 198.748 305.552H197.98C195.932 305.488 194.428 304.752 193.468 303.344C192.636 302.192 192.156 299.408 192.028 294.992C191.964 291.664 191.836 289.776 191.644 289.328C191.452 288.88 190.716 288.592 189.436 288.464L190.204 287.696C191.228 286.672 192.476 286.16 193.948 286.16C194.652 286.16 195.164 286.288 195.484 286.544C196.124 286.992 196.54 287.696 196.732 288.656C196.924 289.552 197.052 291.44 197.116 294.32C197.18 297.328 197.34 299.376 197.596 300.464C197.916 301.616 198.588 302.192 199.612 302.192C200.444 302.192 202.236 301.616 204.988 300.464L207.772 299.312L207.964 293.552C208.092 290.48 208.156 281.232 208.156 265.808C208.156 251.856 208.092 244.784 207.964 244.592C207.772 244.272 207.548 244.208 207.292 244.4C206.972 244.528 206.78 249.36 206.716 258.896C206.652 267.152 206.492 272.048 206.236 273.584C206.044 275.12 205.372 276.432 204.22 277.52C203.324 278.416 202.396 278.928 201.436 279.056C201.18 279.12 200.86 279.152 200.476 279.152C198.94 279.152 197.628 278.608 196.54 277.52C195.644 276.624 195.1 275.344 194.908 273.68C194.78 272.016 194.716 266.704 194.716 257.744V241.712L195.388 240.176C196.156 238.448 197.724 237.168 200.092 236.336ZM236.868 245.168C236.292 244.528 235.684 244.208 235.044 244.208C233.636 244.208 232.612 245.136 231.972 246.992C231.588 248.016 231.396 250.16 231.396 253.424C231.396 257.328 231.62 259.28 232.068 259.28C232.388 259.28 233.22 258.512 234.564 256.976C235.972 255.376 236.836 254.224 237.156 253.52C237.732 252.24 238.02 250.864 238.02 249.392C238.02 247.408 237.636 246 236.868 245.168ZM220.74 222.704C220.996 222.64 221.444 222.608 222.084 222.608C223.492 222.608 224.516 222.8 225.156 223.184C226.18 223.824 227.012 225.104 227.652 227.024C227.972 228.048 228.132 236.176 228.132 251.408C228.132 266.512 228.324 274.384 228.708 275.024C229.092 275.472 229.316 275.664 229.38 275.6C229.508 275.472 229.572 273.168 229.572 268.688C229.636 264.144 229.732 259.408 229.86 254.48C229.988 249.488 230.148 246.544 230.34 245.648C230.852 243.856 231.556 242.64 232.452 242C233.412 241.296 234.82 240.944 236.676 240.944C238.852 240.944 240.612 241.584 241.956 242.864C243.3 244.08 243.972 246.064 243.972 248.816C243.972 250.224 243.812 251.408 243.492 252.368C243.172 253.52 242.564 254.544 241.668 255.44C240.772 256.336 240.324 256.816 240.324 256.88C240.324 256.944 240.772 257.424 241.668 258.32C242.628 259.216 243.236 260.176 243.492 261.2C243.812 262.16 243.972 263.92 243.972 266.48V268.88V271.376C243.972 273.488 244.036 274.928 244.164 275.696C244.356 276.4 244.708 276.976 245.22 277.424C245.54 277.68 245.7 277.936 245.7 278.192C245.7 278.576 244.74 278.832 242.82 278.96H241.764C240.996 278.96 240.356 278.8 239.844 278.48C238.948 277.968 238.404 277.232 238.212 276.272C238.02 275.248 237.924 272.912 237.924 269.264C237.924 264.976 237.7 262.416 237.252 261.584C236.932 260.944 236.612 260.528 236.292 260.336C236.036 260.144 235.62 260.048 235.044 260.048C233.892 260.048 232.932 260.88 232.164 262.544C231.716 263.504 231.492 265.808 231.492 269.456C231.492 273.168 231.332 275.504 231.012 276.464C230.372 278.256 229.156 279.152 227.364 279.152C225.572 279.152 224.196 278.128 223.236 276.08L222.564 274.736V229.52L221.796 228.464C221.22 227.76 220.612 227.408 219.972 227.408C218.436 227.408 217.476 228.112 217.092 229.52C216.964 230.032 216.9 230.416 216.9 230.672C216.9 232.144 217.86 233.552 219.78 234.896C220.356 235.28 220.58 235.536 220.452 235.664C220.388 235.728 220.26 235.76 220.068 235.76C219.3 235.76 218.436 235.344 217.476 234.512C215.94 233.168 215.172 231.504 215.172 229.52C215.172 227.92 215.684 226.448 216.708 225.104C217.732 223.76 219.076 222.96 220.74 222.704ZM257.06 244.592C258.788 242.736 261.444 241.808 265.028 241.808H266.18C268.164 241.872 269.572 242.128 270.404 242.576C271.94 243.344 272.868 244.592 273.188 246.32C273.508 248.048 273.732 252.912 273.86 260.912C273.924 269.488 274.084 274.032 274.34 274.544C274.66 275.44 275.396 275.888 276.548 275.888C276.868 275.888 277.092 275.856 277.22 275.792C278.116 275.664 278.244 275.952 277.604 276.656C277.476 276.784 277.284 276.976 277.028 277.232C275.812 278.448 274.18 279.056 272.132 279.056C269.892 279.056 268.292 278.384 267.332 277.04C267.012 276.656 266.82 275.696 266.756 274.16C266.692 272.56 266.628 268.176 266.564 261.008L266.468 245.744L265.7 245.36C265.316 245.168 264.932 245.072 264.548 245.072C263.78 245.072 263.044 245.392 262.34 246.032C261.636 246.608 261.284 247.28 261.284 248.048C261.284 249.392 262.052 250.864 263.588 252.464C264.548 253.424 264.964 253.968 264.836 254.096C264.772 254.16 264.708 254.192 264.644 254.192C264.132 254.192 263.236 254 261.956 253.616C260.74 253.232 259.844 252.88 259.268 252.56C258.5 252.112 257.924 251.76 257.54 251.504C257.156 251.184 256.804 250.704 256.484 250.064C256.228 249.424 256.1 248.624 256.1 247.664C256.1 246.64 256.132 246 256.196 245.744C256.324 245.424 256.612 245.04 257.06 244.592ZM263.876 256.688C264.708 256.368 265.188 256.496 265.316 257.072C265.38 257.264 265.412 258.832 265.412 261.776V265.136C265.348 269.232 265.188 271.824 264.932 272.912C264.74 274 264.1 275.088 263.012 276.176C261.348 277.84 259.204 278.672 256.58 278.672C253.892 278.672 251.78 277.904 250.244 276.368C248.708 274.96 247.94 272.4 247.94 268.688C247.94 266.32 248.356 264.432 249.188 263.024C250.916 260.016 254.116 258.416 258.788 258.224C259.236 258.224 259.716 258.224 260.228 258.224C260.74 258.16 261.06 258.128 261.188 258.128C261.508 258.128 261.668 258.16 261.668 258.224L261.476 258.608C261.028 259.056 260.484 259.376 259.844 259.568C259.012 259.888 258.212 260.432 257.444 261.2C256.676 261.904 256.196 262.608 256.004 263.312C255.556 265.04 255.332 266.864 255.332 268.784C255.332 270.896 255.62 272.496 256.196 273.584C256.836 274.672 257.828 275.216 259.172 275.216C260.196 275.216 261.06 274.864 261.764 274.16C262.468 273.456 262.916 272.368 263.108 270.896C263.364 269.424 263.492 266.8 263.492 263.024C263.492 258.864 263.62 256.752 263.876 256.688ZM284.753 242.48C283.537 241.2 282.929 240.4 282.929 240.08C282.929 239.76 283.537 238.96 284.753 237.68C285.969 236.4 286.737 235.76 287.057 235.76C287.377 235.76 288.145 236.4 289.361 237.68C290.641 238.896 291.281 239.664 291.281 239.984C291.281 240.304 290.673 241.136 289.457 242.48C288.241 243.76 287.473 244.4 287.153 244.4C286.833 244.4 286.033 243.76 284.753 242.48ZM285.233 246.32C285.425 246.256 285.777 246.224 286.289 246.224C287.633 246.224 288.657 246.416 289.361 246.8C290.193 247.248 290.673 247.792 290.801 248.432C291.057 249.392 291.217 253.648 291.281 261.2C291.409 269.648 291.633 274.224 291.953 274.928C292.209 275.248 292.657 275.44 293.297 275.504C294.513 275.568 294.513 276.176 293.297 277.328C292.337 278.352 291.153 278.864 289.745 278.864C288.017 278.864 286.801 278.192 286.097 276.848C285.713 276.208 285.521 272.784 285.521 266.576V260.72C285.521 253.808 285.297 250.128 284.849 249.68C284.529 249.36 284.209 249.2 283.889 249.2C283.441 249.2 282.833 249.456 282.065 249.968C281.297 250.48 280.721 250.736 280.337 250.736C280.209 250.736 280.145 250.672 280.145 250.544C280.145 250.352 280.529 249.808 281.297 248.912C282.641 247.504 283.953 246.64 285.233 246.32ZM305.532 244.592C307.26 242.736 309.916 241.808 313.5 241.808H314.652C316.636 241.872 318.044 242.128 318.876 242.576C320.412 243.344 321.34 244.592 321.66 246.32C321.98 248.048 322.204 252.912 322.332 260.912C322.396 269.488 322.556 274.032 322.812 274.544C323.132 275.44 323.868 275.888 325.02 275.888C325.34 275.888 325.564 275.856 325.692 275.792C326.588 275.664 326.716 275.952 326.076 276.656C325.948 276.784 325.756 276.976 325.5 277.232C324.284 278.448 322.652 279.056 320.604 279.056C318.364 279.056 316.764 278.384 315.804 277.04C315.484 276.656 315.292 275.696 315.228 274.16C315.164 272.56 315.1 268.176 315.036 261.008L314.94 245.744L314.172 245.36C313.788 245.168 313.404 245.072 313.02 245.072C312.252 245.072 311.516 245.392 310.812 246.032C310.108 246.608 309.756 247.28 309.756 248.048C309.756 249.392 310.524 250.864 312.06 252.464C313.02 253.424 313.436 253.968 313.308 254.096C313.244 254.16 313.18 254.192 313.116 254.192C312.604 254.192 311.708 254 310.428 253.616C309.212 253.232 308.316 252.88 307.74 252.56C306.972 252.112 306.396 251.76 306.012 251.504C305.628 251.184 305.276 250.704 304.956 250.064C304.7 249.424 304.572 248.624 304.572 247.664C304.572 246.64 304.604 246 304.668 245.744C304.796 245.424 305.084 245.04 305.532 244.592ZM312.348 256.688C313.18 256.368 313.66 256.496 313.788 257.072C313.852 257.264 313.884 258.832 313.884 261.776V265.136C313.82 269.232 313.66 271.824 313.404 272.912C313.212 274 312.572 275.088 311.484 276.176C309.82 277.84 307.676 278.672 305.052 278.672C302.364 278.672 300.252 277.904 298.716 276.368C297.18 274.96 296.412 272.4 296.412 268.688C296.412 266.32 296.828 264.432 297.66 263.024C299.388 260.016 302.588 258.416 307.26 258.224C307.708 258.224 308.188 258.224 308.7 258.224C309.212 258.16 309.532 258.128 309.66 258.128C309.98 258.128 310.14 258.16 310.14 258.224L309.948 258.608C309.5 259.056 308.956 259.376 308.316 259.568C307.484 259.888 306.684 260.432 305.916 261.2C305.148 261.904 304.668 262.608 304.476 263.312C304.028 265.04 303.804 266.864 303.804 268.784C303.804 270.896 304.092 272.496 304.668 273.584C305.308 274.672 306.3 275.216 307.644 275.216C308.668 275.216 309.532 274.864 310.236 274.16C310.94 273.456 311.388 272.368 311.58 270.896C311.836 269.424 311.964 266.8 311.964 263.024C311.964 258.864 312.092 256.752 312.348 256.688ZM344.841 241.52C345.929 241.2 346.793 241.04 347.433 241.04C348.969 241.04 350.313 241.52 351.465 242.48C352.681 243.44 353.481 244.592 353.865 245.936C354.185 246.832 354.345 251.792 354.345 260.816C354.345 269.328 354.441 274.064 354.633 275.024C354.697 275.408 354.793 275.632 354.921 275.696C355.113 275.76 355.497 275.728 356.073 275.6C356.905 275.472 357.321 275.472 357.321 275.6L356.649 276.752C355.561 278.288 354.025 279.056 352.041 279.056C350.569 279.056 349.545 278.448 348.969 277.232C348.393 275.888 348.105 271.632 348.105 264.464C348.105 263.952 348.105 263.12 348.105 261.968C348.169 260.816 348.201 259.92 348.201 259.28C348.201 258.512 348.201 257.616 348.201 256.592C348.265 255.568 348.297 254.864 348.297 254.48C348.297 252.304 348.169 250.8 347.913 249.968C347.721 249.136 347.241 248.208 346.473 247.184C345.641 245.968 344.713 245.36 343.689 245.36C342.857 245.36 341.993 245.808 341.097 246.704C340.009 247.792 339.369 248.944 339.177 250.16C339.049 251.312 338.953 255.696 338.889 263.312C338.825 272.336 338.633 277.104 338.313 277.616C337.801 278.576 337.065 279.056 336.105 279.056C335.401 279.056 334.665 278.672 333.897 277.904L332.745 276.656V262.352C332.745 258.256 332.713 255.152 332.649 253.04C332.649 250.928 332.585 249.232 332.457 247.952C332.393 246.672 332.265 245.904 332.073 245.648C331.945 245.392 331.721 245.264 331.401 245.264C331.081 245.264 330.537 245.52 329.769 246.032C329.001 246.608 328.617 246.736 328.617 246.416C328.617 246.288 328.713 246.032 328.905 245.648C329.417 244.752 330.185 243.92 331.209 243.152C332.297 242.32 333.257 241.904 334.089 241.904C334.601 241.904 335.145 242.128 335.721 242.576L336.489 243.248L336.585 258.992C336.713 269.488 336.873 274.96 337.065 275.408L337.257 275.6C337.577 275.6 337.737 271.12 337.737 262.16C337.737 255.12 337.833 250.992 338.025 249.776C338.473 245.552 340.745 242.8 344.841 241.52Z" fill="#3F170D"/>
<path d="M244.178 348.05C243.278 346.55 242.628 345.8 242.228 345.8C242.128 345.8 242.078 345.9 242.078 346.1C242.078 346.3 242.228 346.8 242.528 347.6C243.228 348.9 243.578 350.7 243.578 353C243.578 355.4 243.128 357.7 242.228 359.9C240.528 363.2 238.128 365.65 235.028 367.25L232.778 368.45L235.028 369.8C241.228 373.5 244.328 379.2 244.328 386.9C244.328 389.5 243.878 392.05 242.978 394.55L241.928 397.55L242.978 396.5C243.778 395.8 244.528 394.6 245.228 392.9C245.928 391.1 246.378 389.5 246.578 388.1C246.578 388 246.578 387.8 246.578 387.5C246.678 387.1 246.728 386.8 246.728 386.6C246.728 383.8 246.128 380.75 244.928 377.45C243.528 373.95 241.078 371.5 237.578 370.1C236.078 369.6 235.228 369.15 235.028 368.75C235.028 368.45 235.928 367.85 237.728 366.95C241.028 365.35 243.278 363.35 244.478 360.95C245.078 359.75 245.378 357.65 245.378 354.65C245.378 351.45 244.978 349.25 244.178 348.05ZM201.578 345.95C203.478 343.15 206.528 340.9 210.728 339.2C215.028 337.4 219.728 336.5 224.828 336.5C227.928 336.5 231.178 336.9 234.578 337.7C244.878 340.3 250.028 345.75 250.028 354.05C250.028 355.45 249.878 356.9 249.578 358.4C248.778 362.3 247.328 365.25 245.228 367.25L243.878 368.45L245.378 370.25C248.878 374.35 250.628 379.5 250.628 385.7C250.628 387.8 250.428 389.6 250.028 391.1C248.528 396.5 245.128 400.9 239.828 404.3C234.628 407.7 228.228 409.4 220.628 409.4C216.028 409.4 212.528 409.05 210.128 408.35C207.828 407.55 205.378 406 202.778 403.7C198.378 399.8 196.178 395.4 196.178 390.5C196.178 384.6 199.078 381.65 204.878 381.65C206.678 381.65 208.928 382.65 211.628 384.65C212.928 385.65 213.578 386.35 213.578 386.75C213.578 387.15 212.878 387.35 211.478 387.35C209.878 387.35 208.828 387.7 208.328 388.4C207.928 389 207.728 390.3 207.728 392.3C207.828 398.1 209.728 401.9 213.428 403.7C215.328 404.7 217.078 405.2 218.678 405.2C220.478 405.2 222.128 404.45 223.628 402.95C227.428 399.35 229.328 393.55 229.328 385.55C229.328 380.85 228.328 377.35 226.328 375.05C225.428 374.05 224.078 373.1 222.278 372.2C220.578 371.3 219.278 370.85 218.378 370.85C216.778 370.85 216.078 370.1 216.278 368.6C216.478 368 217.578 367.1 219.578 365.9C223.878 363.4 226.628 360.5 227.828 357.2C228.328 356 228.578 354.05 228.578 351.35C228.578 348.95 228.328 347.3 227.828 346.4C225.928 342.8 223.278 341 219.878 341C219.178 341 218.628 341.05 218.228 341.15C215.428 341.85 212.978 343.4 210.878 345.8C208.878 348.1 207.878 350.55 207.878 353.15C207.878 355.85 208.528 357.2 209.828 357.2C209.928 357.2 210.728 356.95 212.228 356.45C213.728 355.95 214.678 355.7 215.078 355.7H215.228C215.328 355.8 215.378 355.95 215.378 356.15C215.378 356.85 214.728 357.85 213.428 359.15C212.228 360.35 210.978 361.3 209.678 362C208.478 362.6 207.278 362.9 206.078 362.9C203.978 362.9 202.178 362.2 200.678 360.8C199.178 359.4 198.428 357.65 198.428 355.55C198.428 354.65 198.778 353.1 199.478 350.9C200.178 348.7 200.878 347.05 201.578 345.95Z" fill="#3F170D"/>
</g>
<defs>
<filter id="filter0_d_1548_9999" x="0" y="0" width="446.707" height="638.407" filterUnits="userSpaceOnUse" color-interpolation-filters="sRGB">
<feFlood flood-opacity="0" result="BackgroundImageFix"/>
<feColorMatrix in="SourceAlpha" type="matrix" values="0 0 0 0 0 0 0 0 0 0 0 0 0 0 0 0 0 0 127 0" result="hardAlpha"/>
<feOffset dy="4"/>
<feGaussianBlur stdDeviation="2"/>
<feComposite in2="hardAlpha" operator="out"/>
<feColorMatrix type="matrix" values="0 0 0 0 0 0 0 0 0 0 0 0 0 0 0 0 0 0 0.25 0"/>
<feBlend mode="normal" in2="BackgroundImageFix" result="effect1_dropShadow_1548_9999"/>
<feBlend mode="normal" in="SourceGraphic" in2="effect1_dropShadow_1548_9999" result="shape"/>
</filter>
<linearGradient id="paint0_linear_1548_9999" x1="47.0242" y1="195.09" x2="240.411" y2="567.859" gradientUnits="userSpaceOnUse">
<stop stop-color="#E1B01B"/>
<stop offset="0.5" stop-color="#CD9C1A"/>
<stop offset="1" stop-color="#D89300"/>
</linearGradient>
<linearGradient id="paint1_linear_1548_9999" x1="222.768" y1="0" x2="222.768" y2="96.8446" gradientUnits="userSpaceOnUse">
<stop stop-color="#FFD200"/>
<stop offset="0.660327" stop-color="#CB381F"/>
<stop offset="0.826923" stop-color="#852816"/>
<stop offset="1" stop-color="#3F170D"/>
</linearGradient>
<linearGradient id="paint2_linear_1548_9999" x1="244.43" y1="22.4268" x2="244.43" y2="85.6306" gradientUnits="userSpaceOnUse">
<stop stop-color="#FFD200"/>
<stop offset="0.660327" stop-color="#CB381F"/>
<stop offset="0.826923" stop-color="#852816"/>
<stop offset="1" stop-color="#3F170D"/>
</linearGradient>
<linearGradient id="paint3_linear_1548_9999" x1="202.379" y1="22.9365" x2="202.379" y2="85.1209" gradientUnits="userSpaceOnUse">
<stop stop-color="#FFD200"/>
<stop offset="0.660327" stop-color="#CB381F"/>
<stop offset="0.826923" stop-color="#852816"/>
<stop offset="1" stop-color="#3F170D"/>
</linearGradient>
<linearGradient id="paint4_linear_1548_9999" x1="222.768" y1="0" x2="222.768" y2="96.8446" gradientUnits="userSpaceOnUse">
<stop stop-color="#FFD200"/>
<stop offset="0.660327" stop-color="#CB381F"/>
<stop offset="0.826923" stop-color="#852816"/>
<stop offset="1" stop-color="#3F170D"/>
</linearGradient>
<linearGradient id="paint5_linear_1548_9999" x1="244.43" y1="22.4268" x2="244.43" y2="85.6306" gradientUnits="userSpaceOnUse">
<stop stop-color="#FFD200"/>
<stop offset="0.660327" stop-color="#CB381F"/>
<stop offset="0.826923" stop-color="#852816"/>
<stop offset="1" stop-color="#3F170D"/>
</linearGradient>
<linearGradient id="paint6_linear_1548_9999" x1="202.379" y1="22.9365" x2="202.379" y2="85.1209" gradientUnits="userSpaceOnUse">
<stop stop-color="#FFD200"/>
<stop offset="0.660327" stop-color="#CB381F"/>
<stop offset="0.826923" stop-color="#852816"/>
<stop offset="1" stop-color="#3F170D"/>
</linearGradient>
<linearGradient id="paint7_linear_1548_9999" x1="307.379" y1="29.0527" x2="307.379" y2="113.664" gradientUnits="userSpaceOnUse">
<stop stop-color="#FFC411"/>
<stop offset="0.221154" stop-color="#CD9C1A"/>
<stop offset="0.447115" stop-color="#BD6229"/>
<stop offset="0.605769" stop-color="#5D2F24"/>
<stop offset="0.807692" stop-color="#5D2F24"/>
</linearGradient>
<linearGradient id="paint8_linear_1548_9999" x1="139.176" y1="29.5625" x2="139.176" y2="113.664" gradientUnits="userSpaceOnUse">
<stop stop-color="#FFC411"/>
<stop offset="0.221154" stop-color="#CD9C1A"/>
<stop offset="0.447115" stop-color="#BD6229"/>
<stop offset="0.605769" stop-color="#5D2F24"/>
<stop offset="0.807692" stop-color="#5D2F24"/>
</linearGradient>
<linearGradient id="paint9_linear_1548_9999" x1="53.5445" y1="68.8105" x2="53.5445" y2="121.82" gradientUnits="userSpaceOnUse">
<stop stop-color="#FFD200"/>
<stop offset="0.660327" stop-color="#CB381F"/>
<stop offset="0.826923" stop-color="#852816"/>
<stop offset="1" stop-color="#3F170D"/>
</linearGradient>
<linearGradient id="paint10_linear_1548_9999" x1="393.52" y1="68.8105" x2="393.52" y2="122.33" gradientUnits="userSpaceOnUse">
<stop stop-color="#FFD200"/>
<stop offset="0.660327" stop-color="#CB381F"/>
<stop offset="0.826923" stop-color="#852816"/>
<stop offset="1" stop-color="#3F170D"/>
</linearGradient>
<linearGradient id="paint11_linear_1548_9999" x1="223.023" y1="100.922" x2="223.023" y2="126.407" gradientUnits="userSpaceOnUse">
<stop stop-color="#FFD200"/>
<stop offset="0.660327" stop-color="#CB381F"/>
<stop offset="0.826923" stop-color="#852816"/>
<stop offset="1" stop-color="#3F170D"/>
</linearGradient>
<linearGradient id="paint12_linear_1548_9999" x1="222.41" y1="630.407" x2="222.41" y2="533.563" gradientUnits="userSpaceOnUse">
<stop stop-color="#FFD200"/>
<stop offset="0.660327" stop-color="#CB381F"/>
<stop offset="0.826923" stop-color="#852816"/>
<stop offset="1" stop-color="#3F170D"/>
</linearGradient>
<linearGradient id="paint13_linear_1548_9999" x1="244.073" y1="607.98" x2="244.073" y2="544.777" gradientUnits="userSpaceOnUse">
<stop stop-color="#FFD200"/>
<stop offset="0.660327" stop-color="#CB381F"/>
<stop offset="0.826923" stop-color="#852816"/>
<stop offset="1" stop-color="#3F170D"/>
</linearGradient>
<linearGradient id="paint14_linear_1548_9999" x1="202.022" y1="607.471" x2="202.022" y2="545.286" gradientUnits="userSpaceOnUse">
<stop stop-color="#FFD200"/>
<stop offset="0.660327" stop-color="#CB381F"/>
<stop offset="0.826923" stop-color="#852816"/>
<stop offset="1" stop-color="#3F170D"/>
</linearGradient>
<linearGradient id="paint15_linear_1548_9999" x1="222.41" y1="630.407" x2="222.41" y2="533.563" gradientUnits="userSpaceOnUse">
<stop stop-color="#FFD200"/>
<stop offset="0.660327" stop-color="#CB381F"/>
<stop offset="0.826923" stop-color="#852816"/>
<stop offset="1" stop-color="#3F170D"/>
</linearGradient>
<linearGradient id="paint16_linear_1548_9999" x1="244.073" y1="607.98" x2="244.073" y2="544.777" gradientUnits="userSpaceOnUse">
<stop stop-color="#FFD200"/>
<stop offset="0.660327" stop-color="#CB381F"/>
<stop offset="0.826923" stop-color="#852816"/>
<stop offset="1" stop-color="#3F170D"/>
</linearGradient>
<linearGradient id="paint17_linear_1548_9999" x1="202.022" y1="607.471" x2="202.022" y2="545.286" gradientUnits="userSpaceOnUse">
<stop stop-color="#FFD200"/>
<stop offset="0.660327" stop-color="#CB381F"/>
<stop offset="0.826923" stop-color="#852816"/>
<stop offset="1" stop-color="#3F170D"/>
</linearGradient>
<linearGradient id="paint18_linear_1548_9999" x1="307.022" y1="601.354" x2="307.022" y2="516.743" gradientUnits="userSpaceOnUse">
<stop stop-color="#FFC411"/>
<stop offset="0.221154" stop-color="#CD9C1A"/>
<stop offset="0.447115" stop-color="#BD6229"/>
<stop offset="0.605769" stop-color="#5D2F24"/>
<stop offset="0.807692" stop-color="#5D2F24"/>
</linearGradient>
<linearGradient id="paint19_linear_1548_9999" x1="138.818" y1="600.845" x2="138.818" y2="516.743" gradientUnits="userSpaceOnUse">
<stop stop-color="#FFC411"/>
<stop offset="0.221154" stop-color="#CD9C1A"/>
<stop offset="0.447115" stop-color="#BD6229"/>
<stop offset="0.605769" stop-color="#5D2F24"/>
<stop offset="0.807692" stop-color="#5D2F24"/>
</linearGradient>
<linearGradient id="paint20_linear_1548_9999" x1="53.1869" y1="561.597" x2="53.1869" y2="508.587" gradientUnits="userSpaceOnUse">
<stop stop-color="#FFD200"/>
<stop offset="0.660327" stop-color="#CB381F"/>
<stop offset="0.826923" stop-color="#852816"/>
<stop offset="1" stop-color="#3F170D"/>
</linearGradient>
<linearGradient id="paint21_linear_1548_9999" x1="393.162" y1="561.597" x2="393.162" y2="508.077" gradientUnits="userSpaceOnUse">
<stop stop-color="#FFD200"/>
<stop offset="0.660327" stop-color="#CB381F"/>
<stop offset="0.826923" stop-color="#852816"/>
<stop offset="1" stop-color="#3F170D"/>
</linearGradient>
<linearGradient id="paint22_linear_1548_9999" x1="222.665" y1="529.485" x2="222.665" y2="504" gradientUnits="userSpaceOnUse">
<stop stop-color="#FFD200"/>
<stop offset="0.660327" stop-color="#CB381F"/>
<stop offset="0.826923" stop-color="#852816"/>
<stop offset="1" stop-color="#3F170D"/>
</linearGradient>
</defs>
</svg>
