<svg width="35" height="34" viewBox="0 0 35 34" fill="none" xmlns="http://www.w3.org/2000/svg">
<path fill-rule="evenodd" clip-rule="evenodd" d="M17.4581 0.0886056C17.4776 0.137339 17.5127 0.272905 17.5361 0.389865C17.6668 1.04243 17.9891 1.74659 18.3796 2.23286C18.5931 2.49868 18.9752 2.85289 19.2037 2.99682C19.8119 3.37988 19.9827 3.49765 20.156 3.65339C20.3719 3.84757 20.6018 4.13845 20.756 4.41256C20.9938 4.83528 21.1987 5.66512 21.2441 6.38953C21.2668 6.75072 21.2974 6.867 21.3545 6.8098C21.4002 6.76412 21.5065 6.21852 21.5455 5.83004C21.5953 5.33228 21.5478 4.60143 21.4349 4.13108C21.2656 3.42517 20.8337 2.81681 20.3259 2.56892C20.1198 2.4683 20.0297 2.44693 19.718 2.42467C19.3208 2.39632 19.2034 2.35652 19.2034 2.25023C19.2034 2.09226 19.6927 1.97264 20.0651 2.03959C20.5155 2.12058 20.9364 2.40164 21.2598 2.83729C21.904 3.70517 22.0817 5.26665 21.6972 6.68086C21.5083 7.37574 21.5061 7.47275 21.6845 7.24794C23.1422 5.411 23.5793 5.02284 24.565 4.69007C24.9846 4.54841 25.6053 4.51038 25.9703 4.60398C26.5498 4.75263 27.0137 5.13523 26.9176 5.38548C26.9015 5.42745 26.8365 5.4121 26.5682 5.30294C26.0537 5.09358 25.7676 5.03273 25.2994 5.03319C24.9727 5.03347 24.8391 5.04995 24.626 5.11626C24.2384 5.23687 23.8001 5.47568 23.4532 5.75532C22.9553 6.1566 21.7202 7.57918 21.8002 7.65917C21.8111 7.67013 21.9589 7.55015 22.1286 7.39258C22.6715 6.88834 23.2013 6.52272 23.6336 6.35384C24.028 6.19977 24.2869 6.17042 24.9429 6.20533C25.8966 6.25609 26.5904 6.24517 26.8843 6.17475C27.2843 6.07891 27.8607 5.8608 28.3829 5.6076C29.2043 5.20941 29.5358 5.07147 29.5904 5.10521C29.6071 5.11556 29.5174 5.26296 29.391 5.43283C29.0508 5.89007 28.7525 6.50929 28.6617 6.94693C28.5534 7.46817 28.5829 7.86796 28.789 8.67768C28.9808 9.43125 29.0012 9.80325 28.8765 10.2804C28.7457 10.7808 28.3908 11.4141 28.0162 11.8158C27.6238 12.2364 26.3672 12.9946 25.335 13.4335C24.8899 13.6227 23.2687 14.3417 23.0059 14.4664C22.855 14.538 22.8542 14.5976 23.0045 14.5657C23.159 14.5329 23.8864 14.2412 24.3248 14.0361C24.5197 13.945 24.9583 13.7508 25.2994 13.6047C25.6406 13.4586 26.0871 13.2549 26.2918 13.1522C27.2879 12.6524 27.7827 12.3892 27.993 12.2475C28.7499 11.7374 29.3759 11.0234 29.6558 10.3509C29.8351 9.92007 29.8813 9.66074 29.861 9.19726C29.8395 8.70376 29.7539 8.40608 29.5531 8.12563C29.4748 8.01629 29.4107 7.90961 29.4107 7.88863C29.4107 7.86662 29.4835 7.85046 29.5827 7.85046C30.0267 7.85046 30.2947 8.3638 30.2962 9.21732C30.2974 9.91915 30.1302 10.4337 29.6909 11.0806C29.36 11.568 28.5546 12.2913 27.8711 12.7151C27.7216 12.8078 27.6092 12.8998 27.6214 12.9195C27.6335 12.9392 27.6544 12.9486 27.6676 12.9405C27.6809 12.9323 27.9173 12.8842 28.1929 12.8336C28.603 12.7582 28.7993 12.7416 29.2739 12.7423C29.8828 12.743 30.2102 12.7925 30.6688 12.9529C31.0036 13.07 31.5045 13.3649 31.7598 13.5954C32.151 13.9485 32.4589 14.4919 32.4587 14.8293C32.4587 14.9607 32.3618 15.1925 32.2993 15.211C32.2476 15.2263 32.1288 15.0217 32.0589 14.7971C31.7827 13.91 31.0164 13.3365 29.8558 13.1483C29.079 13.0223 27.4967 13.1494 27.4322 13.343C27.4201 13.3791 27.493 13.3835 27.7848 13.3641C28.4613 13.3191 29.1541 13.4286 29.6767 13.6631C30.1905 13.8936 30.521 14.1709 31.1127 14.868C31.303 15.0922 31.5202 15.334 31.5955 15.4055C32.1224 15.9062 33.1263 16.4535 33.9828 16.707C34.2654 16.7906 34.5166 16.8652 34.541 16.8726C34.6443 16.9039 34.5649 16.9499 34.2397 17.0468C32.9949 17.4178 31.9772 18.1246 31.1441 19.1968C30.6358 19.8508 30.2028 20.1936 29.5835 20.4318C29.049 20.6374 28.2192 20.7757 27.7894 20.7309C27.561 20.707 27.1778 20.7382 27.1779 20.7806C27.178 20.8246 27.6145 20.9336 27.9922 20.9839C28.8558 21.0989 29.7748 21.0219 30.5077 20.7731C31.3257 20.4955 31.748 20.0805 32.0689 19.2389C32.1297 19.0794 32.2004 18.9316 32.226 18.9104C32.2975 18.8511 32.3729 18.8991 32.4392 19.0461C32.4955 19.171 32.4956 19.1942 32.4406 19.4073C32.1934 20.365 31.3292 21.0357 29.9955 21.3048C29.5751 21.3896 28.7112 21.3899 28.0816 21.3054C27.8282 21.2714 27.593 21.2355 27.5589 21.2255C27.4021 21.1797 27.527 21.2934 27.8418 21.4829C28.564 21.9179 29.3465 22.6246 29.7047 23.1654C29.9589 23.5491 30.1714 24 30.2659 24.3565C30.3628 24.7213 30.371 25.3825 30.2827 25.709C30.2224 25.9322 30.194 25.9912 30.0189 26.2561C29.8715 26.4791 29.5801 26.6131 29.3959 26.5424C29.3116 26.5101 29.3266 26.4604 29.4746 26.2827C29.6736 26.0437 29.7521 25.8991 29.8218 25.6425C29.9094 25.32 29.9104 24.6829 29.8238 24.3311C29.728 23.9421 29.4548 23.4047 29.1779 23.0608C28.9012 22.7172 28.2639 22.1302 27.8988 21.8826C27.6503 21.7141 27.2515 21.4957 27.1924 21.4957C27.176 21.4957 27.404 21.7389 27.699 22.0362C27.9941 22.3335 28.2785 22.629 28.331 22.6929C28.5285 22.9336 28.7772 23.3982 28.8838 23.7259C28.9843 24.0349 28.9941 24.1065 28.994 24.526C28.994 24.9461 28.9824 25.0291 28.8638 25.4652C28.6522 26.2432 28.6122 26.525 28.6598 26.9039C28.7342 27.4964 28.957 28.0524 29.3742 28.6866L29.5931 29.0194L29.4862 28.998C29.4274 28.9862 29.2388 28.9105 29.0671 28.8297C27.271 27.9844 26.6386 27.8533 25.5214 28.0947C24.6537 28.2822 24.2223 28.2479 23.5695 27.9395C23.1969 27.7635 22.6857 27.4177 22.2795 27.0669C21.7492 26.6089 21.7208 26.5865 21.6979 26.6095C21.6292 26.6781 22.2597 27.4955 22.7995 28.0376C23.407 28.6476 23.9338 28.9826 24.5816 29.1706C24.8387 29.2453 24.9677 29.2609 25.3349 29.2618C25.8585 29.2631 26.023 29.2306 26.4601 29.0391C26.8285 28.8777 26.915 28.8796 26.8812 29.0485C26.8489 29.2103 26.7406 29.3414 26.5171 29.4898C26.2115 29.6926 25.9509 29.7644 25.5121 29.7665C24.5669 29.7711 23.6273 29.3155 22.7082 28.407C22.418 28.12 22.2014 27.8513 21.6531 27.098C21.6044 27.0311 21.5591 26.9928 21.5524 27.0129C21.5457 27.033 21.6033 27.2951 21.6804 27.5953C22.0017 28.8464 21.9682 29.7056 21.5612 30.6511C21.3723 31.09 21.2274 31.3069 20.9046 31.6345C20.5761 31.9678 20.3556 32.0992 20.0079 32.1687C19.7524 32.2198 19.4594 32.1638 19.3172 32.0369C19.226 31.9554 19.2244 31.9485 19.2853 31.9013C19.3206 31.8739 19.4857 31.8322 19.6522 31.8086C20.5641 31.6792 21.2438 30.8606 21.4893 29.5964C21.6066 28.9925 21.506 27.8807 21.2992 27.4943C21.2269 27.3592 21.1839 27.4009 21.2076 27.5829C21.2322 27.7715 21.1508 28.4177 21.048 28.85C20.9083 29.437 20.6158 30.0465 20.3046 30.3988C20.1302 30.5961 19.8362 30.8125 19.2565 31.1699C18.5913 31.5801 18.1575 32.0723 17.7873 32.8372C17.6574 33.1054 17.4716 33.6406 17.415 33.9094C17.3809 34.071 17.3403 34.0215 17.2596 33.7201C17.0955 33.1068 16.8215 32.5661 16.4243 32.0711C16.0822 31.645 15.8479 31.4494 15.2733 31.1104C14.4882 30.6473 14.1334 30.2755 13.7954 29.5619C13.5286 28.9988 13.4536 28.6626 13.4387 27.9639C13.4317 27.6325 13.4141 27.3534 13.3997 27.3437C13.3495 27.3097 13.2037 27.7541 13.1382 28.1411C12.9221 29.4184 13.259 30.6808 13.999 31.3659C14.3247 31.6675 14.6284 31.7991 15.1452 31.8626C15.4035 31.8943 15.4465 31.9126 15.4465 31.991C15.4465 32.0982 15.1667 32.2085 14.8997 32.2066C14.062 32.2005 13.2095 31.3139 12.8314 30.0554C12.7614 29.8225 12.7428 29.666 12.7278 29.1846C12.7078 28.5424 12.7459 28.2555 12.9694 27.3661C13.0274 27.1348 13.0694 26.9287 13.0625 26.9081C13.0557 26.8875 13.0012 26.9572 12.9415 27.0629C12.7337 27.4304 12.0945 28.1868 11.6157 28.6316C11.3052 28.9201 10.8329 29.2602 10.5377 29.4078C10.1517 29.601 9.45554 29.7892 9.12721 29.7892C8.91767 29.7892 8.45231 29.6668 8.23438 29.5544C7.93369 29.3993 7.75552 29.1906 7.75552 28.9935C7.75552 28.8681 7.87546 28.8736 8.17509 29.0128C8.73103 29.2711 9.36981 29.3354 9.93522 29.19C10.2839 29.1004 10.7747 28.8576 11.1048 28.6115C11.4059 28.387 11.973 27.8278 12.3303 27.4031C12.475 27.2311 12.6473 27.0277 12.7131 26.9512C12.8813 26.7559 12.8077 26.7781 12.5199 27.0096C11.902 27.5068 11.0372 27.982 10.4846 28.1282C10.049 28.2434 9.60305 28.2371 9.03144 28.1076C8.50356 27.9881 8.01584 27.9748 7.52515 28.0667C7.02523 28.1603 6.78536 28.2478 5.65911 28.7476C5.33457 28.8916 5.05145 29.0095 5.03001 29.0095C4.96129 29.0095 4.98681 28.9569 5.19489 28.6702C5.58429 28.1336 5.70097 27.9102 5.90136 27.3178C6.02077 26.9648 6.03062 26.9041 6.03221 26.5108C6.03381 26.1239 6.02144 26.0391 5.89491 25.5716C5.7681 25.1029 5.7558 25.0186 5.75555 24.6146C5.75523 24.1241 5.79542 23.9426 6.00652 23.4816C6.2499 22.9501 6.45238 22.6781 7.05504 22.0728C7.31161 21.8151 7.51185 21.5947 7.50005 21.5829C7.46971 21.5525 7.04809 21.7857 6.69225 22.0296C6.34467 22.2679 5.70583 22.8741 5.49275 23.168C5.28236 23.4582 5.11578 23.776 5.00386 24.1007C4.91362 24.3626 4.90618 24.4262 4.90618 24.9336C4.90618 25.4393 4.91362 25.5035 5.00017 25.7415C5.05185 25.8837 5.16576 26.1059 5.2533 26.2354C5.34081 26.3648 5.40439 26.4837 5.39457 26.4996C5.38475 26.5155 5.30154 26.5285 5.20967 26.5285C4.89296 26.5285 4.63806 26.2066 4.49391 25.6247C4.34481 25.0228 4.43855 24.336 4.75799 23.6902C4.99581 23.2095 5.15339 22.9941 5.57338 22.5759C6.02477 22.1264 6.55789 21.7168 7.03388 21.4539C7.21612 21.3532 7.35651 21.2621 7.34584 21.2514C7.31926 21.2248 7.1462 21.2409 6.59284 21.3211C5.7143 21.4484 4.76264 21.3937 4.05181 21.175C3.70965 21.0698 3.24589 20.8227 2.97082 20.5992C2.70738 20.3851 2.37004 19.9364 2.26357 19.6584C2.16355 19.3973 2.16323 19.0196 2.26293 18.9035L2.33481 18.8198L2.39584 18.9064C2.42944 18.954 2.50674 19.1214 2.56766 19.2785C2.89416 20.1206 3.39999 20.5988 4.21346 20.8345C4.93322 21.0431 5.97451 21.096 6.80252 20.966C7.2308 20.8988 7.47198 20.8324 7.47198 20.7817C7.47198 20.7438 7.15396 20.7211 6.63679 20.722C5.30813 20.7241 4.33619 20.2438 3.43341 19.1388C2.89607 18.4811 2.49933 18.1274 1.85439 17.7308C1.27399 17.374 0.764362 17.1547 0.144299 16.9952C-0.0777473 16.938 -0.0435066 16.8754 0.248146 16.8054C0.638226 16.7118 1.34703 16.4191 1.81895 16.1568C2.54105 15.7555 2.74863 15.5809 3.71511 14.5622C4.31532 13.9295 4.88264 13.6096 5.71759 13.4331C6.00769 13.3718 6.74198 13.3634 7.20227 13.4161C7.74244 13.478 7.62332 13.39 6.98813 13.2579C6.27368 13.1094 6.02293 13.0862 5.3351 13.1048C4.57706 13.1254 4.17805 13.2106 3.68395 13.4573C3.15437 13.7218 2.84262 14.0854 2.52723 14.8063C2.43546 15.0161 2.34523 15.1971 2.32666 15.2085C2.30812 15.22 2.26205 15.2014 2.2243 15.1673C2.17007 15.1182 2.15565 15.0577 2.15565 14.8794C2.15565 14.1763 2.80573 13.3985 3.70695 13.0233C4.17603 12.828 4.56614 12.7637 5.27456 12.7646C5.97522 12.7655 6.47868 12.8386 7.04997 13.0223C7.23165 13.0808 7.38628 13.1225 7.39362 13.1152C7.40096 13.1079 7.2023 12.9668 6.95215 12.8018C5.68318 11.9648 4.84344 10.9796 4.55941 9.99471C4.49087 9.75711 4.47758 9.62792 4.47736 9.19726C4.47704 8.57213 4.54856 8.30897 4.7917 8.04043C4.92925 7.88848 4.95721 7.87388 5.13878 7.85882C5.24742 7.84982 5.3458 7.85779 5.35739 7.87654C5.36898 7.89529 5.30912 8.01622 5.22438 8.14526C5.0091 8.47303 4.92014 8.82062 4.92014 9.33417C4.92014 10.1 5.17104 10.7156 5.7402 11.3463C6.13638 11.7853 6.69994 12.2548 7.18937 12.5536C7.73156 12.8847 7.85366 12.9417 9.49219 13.6287C9.73586 13.7309 10.0197 13.853 10.1229 13.9C10.7915 14.2046 11.8439 14.5136 12.2129 14.5136C12.4601 14.5136 12.3156 14.4547 11.4238 14.1923C10.9505 14.053 10.5125 13.8847 9.4213 13.4229C8.96321 13.229 8.54854 13.0583 8.49981 13.0436C8.11721 12.9277 7.34801 12.4095 6.93833 11.9917C6.44965 11.4932 5.96385 10.6649 5.81917 10.0833C5.72461 9.7032 5.73843 9.23972 5.85723 8.8074C5.90813 8.62221 5.98433 8.30571 6.02658 8.10408C6.09665 7.76943 6.09991 7.70287 6.06376 7.34119C6.03888 7.09235 5.98798 6.83978 5.92695 6.66225C5.78773 6.25747 5.48077 5.66303 5.27531 5.4003C5.1782 5.27614 5.09845 5.1606 5.09806 5.14355C5.09657 5.07841 5.32064 5.16333 5.93365 5.46016C6.73794 5.8496 6.90466 5.92488 7.18844 6.0266C7.88488 6.27625 8.49233 6.34288 9.1058 6.23698C9.64264 6.14427 10.1397 6.15522 10.5677 6.26913C11.2826 6.45942 11.6781 6.67827 12.3542 7.258C12.756 7.60254 12.8946 7.70174 12.8946 7.64475C12.8946 7.58967 11.9652 6.49823 11.6331 6.16326C11.2423 5.76922 10.9541 5.55235 10.5555 5.35234C9.79391 4.97028 9.03417 4.95259 8.16789 5.2967C7.80936 5.43914 7.75552 5.43815 7.75552 5.28912C7.75552 5.08968 7.89622 4.93427 8.22322 4.77251C8.91196 4.43184 9.59947 4.44176 10.3715 4.80356C11.1381 5.16276 11.7397 5.68972 12.7071 6.84921C13.0143 7.21735 13.1539 7.34051 13.0888 7.18591C13.014 7.00852 12.885 6.50099 12.8027 6.06062C12.7191 5.61285 12.7117 5.50563 12.7272 4.96191C12.7417 4.45215 12.7589 4.30754 12.8385 4.02269C13.181 2.79763 13.9948 2.00249 14.9062 2.00249C15.1973 2.00249 15.3942 2.071 15.4304 2.1848C15.4698 2.30892 15.3862 2.35691 15.1306 2.35691C14.3167 2.35691 13.6972 2.84456 13.3226 3.78013C13.1511 4.20848 13.1051 4.47745 13.0844 5.17457C13.0685 5.71148 13.0771 5.88735 13.1392 6.28494C13.1797 6.54476 13.2221 6.7723 13.2334 6.79056C13.2763 6.85988 13.32 6.77702 13.32 6.62639C13.32 6.44244 13.4425 5.65725 13.519 5.35178C13.6007 5.02496 13.7567 4.62146 13.8977 4.37226C14.1975 3.8424 14.5384 3.53558 15.2693 3.13806C15.4934 3.0161 15.7541 2.85976 15.8486 2.79062C16.094 2.61092 16.5956 2.03453 16.7794 1.72079C16.9542 1.42258 17.1756 0.8756 17.2919 0.454369C17.334 0.301932 17.3807 0.137339 17.3957 0.0886056L17.4228 0L17.4581 0.0886056Z" fill="url(#paint0_radial_1531_6897)"/>
<path fill-rule="evenodd" clip-rule="evenodd" d="M17.2836 3.79148C16.8748 4.39066 16.4807 4.76359 16.1224 4.88997C16.0411 4.91865 15.78 4.96674 15.5422 4.99687C15.1726 5.04369 15.0678 5.07218 14.8197 5.19332C14.4951 5.35186 14.3668 5.47949 14.1627 5.8467C13.9405 6.24642 13.8765 6.54449 13.8961 7.08665C13.9166 7.65482 13.9629 7.81945 14.4681 9.12203C14.6694 9.64086 14.8523 10.1402 14.8745 10.2317C14.9238 10.4343 14.925 10.8593 14.8774 11.2173C14.7891 11.8804 14.8653 13.6273 14.9825 13.6273C14.9997 13.6273 15.0051 13.23 14.9947 12.7324C14.9799 12.0289 14.9893 11.7032 15.0384 11.2095C15.0727 10.8642 15.0936 10.4894 15.0848 10.3766C15.0743 10.2421 14.9985 9.98909 14.8641 9.64009C14.378 8.37742 14.3716 8.35615 14.3684 8.00974C14.3661 7.74495 14.3794 7.66273 14.4469 7.52564C14.5257 7.36569 14.6839 7.17685 14.739 7.17685C14.7539 7.17685 14.773 7.44401 14.7816 7.77051C14.7952 8.28711 14.8097 8.40535 14.8935 8.68151C15.0102 9.06649 15.2054 9.52809 15.3436 9.74595C15.4412 9.89995 15.4514 9.90601 15.579 9.8862L15.7124 9.8655L16.0818 10.3313C16.4527 10.799 16.8454 11.1943 16.9154 11.1703C16.9726 11.1507 16.9454 11.0353 16.7385 10.4198C16.4827 9.65912 16.416 9.38487 16.3639 8.87974C16.3117 8.3731 16.3544 7.88775 16.4926 7.41846C16.5404 7.25635 16.7391 6.80471 16.9342 6.41484C17.2739 5.73619 17.3794 5.5514 17.4084 5.58454C17.4157 5.59286 17.5127 5.80701 17.6241 6.06042C18.2138 7.40286 18.3176 7.77533 18.3171 8.54694C18.3167 9.25543 18.2156 9.77115 17.9068 10.6393C17.6983 11.2256 17.7006 11.2173 17.7459 11.2173C17.8381 11.2173 18.5856 10.371 18.7878 10.0377C18.8613 9.91646 18.9474 9.79787 18.9791 9.77413C19.0444 9.72518 19.1007 9.74485 19.0807 9.80957C19.0733 9.83332 19.0578 9.95641 19.0462 10.0831L19.0252 10.3135L19.1006 10.2249C19.2994 9.99135 19.5721 9.30023 19.7037 8.69665C19.7899 8.30161 19.8159 7.61467 19.7584 7.25659C19.7387 7.1345 19.7408 7.07052 19.7645 7.07052C19.8495 7.07052 20.0248 7.26939 20.1324 7.48778C20.2856 7.79893 20.3062 8.11203 20.1992 8.50204C20.0839 8.92217 19.6834 9.91561 19.4546 10.3489C19.2187 10.7956 19.1751 10.9069 19.2467 10.8795C19.356 10.8375 19.7834 10.0407 20.0636 9.35655C20.2955 8.79029 20.6464 7.72762 20.6896 7.46039C20.7371 7.16732 20.738 6.64011 20.6915 6.39308C20.6376 6.10639 20.4952 5.84816 20.2448 5.58273C19.9638 5.28484 19.7044 5.15182 19.2129 5.05365C19.0134 5.01381 18.7662 4.93871 18.6635 4.88682C18.3221 4.71415 17.8295 4.15607 17.5979 3.67941C17.5568 3.59463 17.5064 3.53059 17.4861 3.53707C17.4657 3.54359 17.3746 3.65807 17.2836 3.79148Z" fill="#F9D156"/>
<path fill-rule="evenodd" clip-rule="evenodd" d="M23.5083 7.47986C22.2854 7.79551 20.9938 9.25984 20.5395 10.8455C20.4892 11.0209 20.4073 11.4117 20.3574 11.7138C20.2692 12.2481 20.1427 12.9743 20.1021 13.18C20.0723 13.3315 20.1604 13.2837 20.2617 13.0935C20.6806 12.3073 21.2033 11.5952 21.8085 10.9864C22.4409 10.3503 22.9809 9.99023 23.725 9.70854C24.0341 9.59151 25.182 9.23287 25.2473 9.23287C25.3049 9.23287 25.2983 9.25576 25.0058 10.0658C24.6867 10.9497 24.5085 11.3068 24.1351 11.8104C23.6442 12.4724 22.803 13.2085 22.1784 13.5225C22.0266 13.5988 21.8925 13.6773 21.8804 13.697C21.8372 13.7669 23.495 13.6636 23.9173 13.57C24.567 13.4261 26.0305 12.7699 26.4976 12.413C26.8748 12.1248 27.1584 11.7775 27.3797 11.3328L27.5856 10.9189L27.598 10.4857C27.6131 9.96113 27.5816 9.84772 27.2836 9.35273C27.0172 8.91027 26.9741 8.73469 27.0297 8.31814C27.0523 8.14872 27.0936 7.92264 27.1214 7.81574C27.1492 7.70881 27.1646 7.60954 27.1557 7.59511C27.1468 7.58065 27.0389 7.60671 26.916 7.65296C26.221 7.91459 25.7887 7.91208 24.9923 7.64176C24.7032 7.54365 24.4188 7.45721 24.3604 7.44966C24.0982 7.41581 23.7019 7.42985 23.5083 7.47986Z" fill="#F9D156"/>
<path fill-rule="evenodd" clip-rule="evenodd" d="M9.75277 7.65838C9.34682 7.7971 9.20554 7.82897 8.93668 7.84226C8.55387 7.86118 8.24371 7.81337 7.83797 7.67277C7.67568 7.61652 7.54288 7.58441 7.54288 7.60143C7.54288 7.61844 7.58272 7.78105 7.63138 7.96276C7.72888 8.32661 7.74979 8.77028 7.67738 8.93831C7.65388 8.99282 7.55872 9.1578 7.4659 9.30496C7.24509 9.65499 7.20051 9.7678 7.13536 10.1415C7.0508 10.6264 7.12746 11.0663 7.37201 11.4996C7.63464 11.965 8.00232 12.3484 8.42918 12.602C8.81394 12.8306 10.7801 13.538 11.3175 13.6412C11.4734 13.6712 11.8163 13.7213 12.0795 13.7527C12.3426 13.7841 12.5939 13.8182 12.6377 13.8286C12.7888 13.8645 12.7224 13.7469 12.5137 13.6088C12.1313 13.3559 11.6724 12.9623 11.2263 12.5046C10.5072 11.7668 10.1047 11.0906 9.72757 9.98648C9.61954 9.67026 9.51386 9.37917 9.49273 9.33966C9.43769 9.23684 9.48589 9.24492 9.89911 9.40774C10.0944 9.48472 10.4536 9.62103 10.6972 9.71066C11.9539 10.173 12.7599 10.7736 13.5273 11.8197C14.5377 13.1969 14.7432 13.4546 14.7928 13.4061C14.8329 13.3669 14.4417 11.8178 14.2176 11.1285C13.982 10.4033 13.763 9.89114 13.5055 9.46275C12.995 8.61344 12.4497 8.0934 11.6876 7.7292C11.0067 7.40377 10.5471 7.38693 9.75277 7.65838Z" fill="#F9D156"/>
<path fill-rule="evenodd" clip-rule="evenodd" d="M22.5898 8.50416C22.6589 8.96502 22.4897 9.24317 21.8609 9.7025C21.5089 9.9596 21.2387 10.2568 20.9915 10.6586C20.762 11.0317 20.7686 11.0225 20.7468 11.0006C20.6863 10.9402 21.0762 9.94326 21.3182 9.53939C21.6696 8.953 22.1897 8.41424 22.4555 8.36105C22.563 8.33957 22.5656 8.34223 22.5898 8.50416Z" fill="url(#paint1_radial_1531_6897)"/>
<path fill-rule="evenodd" clip-rule="evenodd" d="M12.3265 8.43745C12.5005 8.5139 12.9829 9.02179 13.2178 9.37586C13.3272 9.54077 13.4909 9.8336 13.5816 10.0265C13.8576 10.6136 13.9929 11.1732 13.7623 10.7736C13.4952 10.3108 13.138 9.90926 12.7176 9.59939C12.4006 9.36576 12.1227 9.0718 12.0788 8.92351C12.0569 8.8499 12.0442 8.70196 12.0505 8.59475C12.0635 8.37139 12.1125 8.34346 12.3265 8.43745Z" fill="url(#paint2_radial_1531_6897)"/>
<path fill-rule="evenodd" clip-rule="evenodd" d="M26.9937 11.1891C27.2432 11.4386 26.3609 12.5642 25.9158 12.5642C25.7666 12.5642 25.7604 12.5044 25.8813 12.2312C26.0534 11.8419 26.3891 11.4089 26.6445 11.2466C26.8134 11.1393 26.9255 11.1208 26.9937 11.1891Z" fill="url(#paint3_radial_1531_6897)"/>
<path fill-rule="evenodd" clip-rule="evenodd" d="M8.03373 11.2352C8.31224 11.3578 8.56717 11.6353 8.89611 12.174C9.08658 12.486 9.17334 12.652 9.17334 12.7046C9.17334 12.864 8.2421 12.3098 8.02597 12.0217C7.85053 11.7879 7.75136 11.5407 7.76267 11.3653C7.77497 11.1744 7.83263 11.1467 8.03373 11.2352Z" fill="url(#paint4_radial_1531_6897)"/>
<path fill-rule="evenodd" clip-rule="evenodd" d="M17.1413 12.5693C16.8365 12.8108 16.5304 13.3494 16.4185 13.8412C16.3427 14.1747 16.3648 14.6196 16.473 14.9375C16.5673 15.2145 16.8589 15.8048 17.0251 16.0551C17.1459 16.2372 17.3011 16.3567 17.3515 16.3066C17.3661 16.292 17.3861 16.042 17.3958 15.7511C17.4061 15.4428 17.4283 15.2184 17.449 15.2134C17.4702 15.2082 17.4987 15.4112 17.5199 15.7187C17.5394 16.0013 17.5682 16.2525 17.584 16.2769C17.6402 16.3638 17.7468 16.3212 17.8504 16.1706C18.0226 15.9203 18.3428 15.2249 18.4421 14.8858C18.6866 14.0509 18.5438 13.3697 18.0131 12.8389C17.6201 12.446 17.3878 12.3742 17.1413 12.5693Z" fill="#F9D156"/>
<path fill-rule="evenodd" clip-rule="evenodd" d="M25.4557 12.7473C25.3063 12.9163 24.3639 13.2734 24.0674 13.2734C23.8261 13.2734 24.0192 13.1587 24.7619 12.8606C25.0631 12.7397 25.2868 12.6709 25.3788 12.6709H25.5232L25.4557 12.7473Z" fill="url(#paint5_radial_1531_6897)"/>
<path fill-rule="evenodd" clip-rule="evenodd" d="M10.2235 12.8795C10.616 13.013 10.825 13.1172 10.9129 13.2231C10.954 13.2726 10.9437 13.2759 10.8195 13.2534C10.4438 13.1854 9.74019 12.9485 9.65197 12.8603C9.48979 12.6981 9.71237 12.7056 10.2235 12.8795Z" fill="url(#paint6_radial_1531_6897)"/>
<path fill-rule="evenodd" clip-rule="evenodd" d="M26.6287 14.194C26.2778 14.212 25.8791 14.2505 25.7426 14.2795C25.2505 14.3842 24.619 14.6738 24.1079 15.0293C23.8099 15.2366 22.9085 16.0483 22.7594 16.2438C22.5794 16.4796 22.7172 16.3899 23.139 15.9968C23.9327 15.2571 24.2447 15.0344 24.9274 14.7203C25.3822 14.5111 25.589 14.4641 25.9551 14.487C26.2819 14.5073 26.616 14.6325 26.7587 14.7879L26.8413 14.8778L26.5401 14.8464C25.5852 14.7468 24.8923 14.9286 24.1942 15.4619C23.5492 15.9546 22.8268 16.637 22.918 16.6674C22.9397 16.6746 23.1375 16.6246 23.3576 16.5562C24.2729 16.2721 24.8047 16.1788 25.502 16.18C26.1749 16.1813 26.7508 16.3048 27.6938 16.6499C28.0798 16.7911 28.4316 16.8979 28.8349 16.9961C28.9178 17.0162 28.9856 17.0456 28.9856 17.0612C28.9856 17.0769 28.838 17.1256 28.6577 17.1696C28.4774 17.2135 28.1225 17.3295 27.8691 17.4274C27.6157 17.5253 27.2907 17.6505 27.1468 17.7057C26.5896 17.9195 26.2742 17.9692 25.4768 17.9692C24.6273 17.9692 24.3909 17.9275 23.4442 17.6107C22.8571 17.4142 22.7832 17.3965 22.7832 17.4528C22.7832 17.5143 23.5246 18.2597 23.8119 18.4871C24.7972 19.2669 25.5981 19.5068 26.6818 19.3469L26.8413 19.3234L26.7753 19.3978C26.7026 19.4798 26.3208 19.648 25.9927 19.7427C25.4014 19.9134 24.8735 19.7563 23.4447 18.9842C22.6699 18.5654 22.3942 18.4434 22.4922 18.5623C22.5571 18.6412 23.2239 19.0416 23.7112 19.2944C24.3137 19.6069 24.9978 19.8914 25.3764 19.9868C26.249 20.2068 27.641 20.1866 28.2561 19.945C28.6441 19.7926 29.0783 19.4257 29.2357 19.1172C29.2726 19.0448 29.3508 18.8366 29.4095 18.6546C29.4682 18.4726 29.5634 18.253 29.621 18.1666C29.8719 17.7908 30.3224 17.4209 30.8374 17.1678C30.969 17.1031 31.0767 17.0318 31.0767 17.0093C31.0767 16.9868 30.9828 16.9277 30.8682 16.878C30.5493 16.7397 30.0397 16.4114 29.8526 16.2238C29.6823 16.0529 29.5666 15.8382 29.3933 15.3717C29.1338 14.6731 28.6504 14.2877 27.9046 14.1845C27.7101 14.1576 27.2735 14.1609 26.6287 14.194Z" fill="#F9D156"/>
<path fill-rule="evenodd" clip-rule="evenodd" d="M6.58604 14.2649C6.24718 14.3616 6.05497 14.4747 5.8241 14.713C5.64537 14.8976 5.58713 14.998 5.27744 15.6555C5.05447 16.1289 4.63058 16.5116 3.98734 16.8203C3.81818 16.9014 3.67978 16.9816 3.67978 16.9984C3.67978 17.0153 3.79542 17.087 3.93673 17.1578C4.3144 17.3472 4.64483 17.5785 4.91636 17.8437C5.20163 18.1222 5.30076 18.2826 5.49009 18.7719C5.66263 19.2177 5.82392 19.4622 6.06614 19.6449C6.33355 19.8466 6.46437 19.9166 6.78097 20.0271C7.03846 20.117 7.12047 20.1275 7.67387 20.1414C8.75191 20.1686 9.39055 20.0477 10.148 19.6731C10.6844 19.4078 11.1067 19.1126 11.9086 18.4426C12.503 17.9458 12.6863 17.7742 12.6225 17.7742C12.5786 17.7742 12.3404 17.9521 11.9555 18.2724C11.0814 18.9996 10.1465 19.5998 9.67192 19.7382C9.29138 19.8493 8.80603 19.79 8.3943 19.5821C8.2049 19.4865 8.08195 19.3854 8.11498 19.3524C8.12324 19.3441 8.24913 19.3541 8.39473 19.3745C8.7859 19.4295 9.38799 19.3942 9.68606 19.2988C10.2536 19.1171 10.7265 18.8121 11.3712 18.212C11.5566 18.0394 11.7873 17.8312 11.8838 17.7493C11.9803 17.6674 12.0472 17.5882 12.0323 17.5733C12.0175 17.5585 11.699 17.6221 11.3247 17.7147C10.326 17.9619 10.1605 17.9868 9.52023 17.9868C9.05367 17.9868 8.87171 17.9708 8.50438 17.8972C7.96758 17.7896 7.8952 17.7673 7.01135 17.4377C6.63123 17.296 6.22676 17.1592 6.11257 17.1339C5.93333 17.0941 5.91317 17.0817 5.9652 17.0437C5.99837 17.0194 6.0918 16.9888 6.17285 16.9756C6.25391 16.9623 6.71895 16.8185 7.20628 16.6559C7.69361 16.4933 8.21195 16.3362 8.35815 16.3069C9.07057 16.1638 9.71495 16.1496 10.3104 16.2638C10.6553 16.33 11.4274 16.5512 11.6371 16.6439C11.9565 16.7852 11.9164 16.7033 11.4346 16.2304C10.3725 15.1878 9.94004 14.9369 9.02815 14.8339C8.75237 14.8027 8.59763 14.8016 8.44569 14.8297C8.33192 14.8507 8.17516 14.8679 8.09737 14.8679H7.95592L8.0358 14.7829C8.07975 14.7361 8.21411 14.6536 8.3344 14.5995C8.98002 14.3091 9.97357 14.5915 10.7919 15.298C10.8861 15.3794 11.1516 15.6228 11.3819 15.8392C12.018 16.4365 12.044 16.3995 11.4416 15.7542C10.6388 14.8942 9.92296 14.4613 8.9987 14.2769C8.33706 14.1449 7.0291 14.1384 6.58604 14.2649Z" fill="#F9D156"/>
<path fill-rule="evenodd" clip-rule="evenodd" d="M19.8771 14.5511C19.7504 14.5884 19.5271 14.6854 19.3809 14.7666C18.9226 15.0213 18.2141 15.8078 17.9934 16.3068C17.9263 16.4585 17.9252 16.4753 17.9786 16.5288C18.032 16.5822 18.0711 16.5684 18.4962 16.3474C18.9888 16.0912 19.1585 16.0392 18.9585 16.2058C18.8941 16.2594 18.7197 16.3772 18.5709 16.4676C18.2747 16.6474 18.1528 16.7769 18.1896 16.8726C18.211 16.9287 18.2775 16.9321 19.0007 16.9143C19.8055 16.8945 20.1313 16.8514 20.5023 16.7156C21.1018 16.4961 21.6257 15.8742 21.6757 15.3227L21.6948 15.1121L21.501 14.9244C21.0542 14.4916 20.5072 14.3659 19.8771 14.5511Z" fill="#F9D156"/>
<path fill-rule="evenodd" clip-rule="evenodd" d="M13.9403 14.5825C13.7371 14.67 13.3773 14.981 13.3064 15.1303C13.1457 15.4691 13.5406 16.1486 14.1361 16.5577C14.5273 16.8265 14.9899 16.9237 15.997 16.9489C16.6471 16.9651 16.7483 16.9603 16.7887 16.9116C16.8782 16.8038 16.7278 16.6695 16.2086 16.3933C15.5957 16.0673 15.8227 16.053 16.5072 16.3745C16.7416 16.4845 16.9497 16.5645 16.9697 16.5521C17.0495 16.5027 16.9966 16.3508 16.8072 16.0856C16.2252 15.2708 15.7664 14.8707 15.145 14.6358C14.7365 14.4814 14.2274 14.4588 13.9403 14.5825Z" fill="#F9D156"/>
<path fill-rule="evenodd" clip-rule="evenodd" d="M18.148 17.2463C18.1406 17.2847 18.2735 17.3969 18.5552 17.5903C18.9381 17.8533 19.0961 17.9998 19.0483 18.0477C19.0382 18.0578 18.8274 17.9446 18.5799 17.7961C18.13 17.5262 17.948 17.4674 17.9054 17.5783C17.8805 17.6432 18.1525 18.1503 18.4337 18.5635C19.172 19.6484 20.1638 20.0455 21.041 19.6074C21.2645 19.4958 21.5073 19.2729 21.5073 19.1794C21.5073 19.0498 21.3692 18.5943 21.2711 18.4002C21.0666 17.9957 20.4886 17.5407 19.9629 17.3702C19.4615 17.2077 18.1722 17.1197 18.148 17.2463Z" fill="#F9D156"/>
<path fill-rule="evenodd" clip-rule="evenodd" d="M15.5836 17.2637C15.085 17.3284 14.6226 17.4524 14.3726 17.5885C14.1629 17.7026 13.7879 18.0675 13.6657 18.2763C13.571 18.4381 13.4089 18.9331 13.3711 19.1762C13.3521 19.2977 13.3628 19.3367 13.4399 19.4284C13.595 19.6127 14.1176 19.7948 14.4883 19.7938C14.9043 19.7927 15.319 19.6399 15.6991 19.3478C16.2377 18.9339 17.1579 17.721 17.0571 17.5578C17.0258 17.5073 16.8473 17.5521 16.6155 17.6686C16.3534 17.8004 15.9785 17.9513 15.9135 17.9513C15.8 17.9513 15.9918 17.8112 16.4242 17.5784C16.6663 17.448 16.8644 17.3265 16.8644 17.3085C16.8644 17.1972 16.259 17.1761 15.5836 17.2637Z" fill="#F9D156"/>
<path fill-rule="evenodd" clip-rule="evenodd" d="M17.5541 17.8142C17.5409 17.8557 17.5267 18.0789 17.5225 18.31C17.5183 18.5412 17.5032 18.742 17.489 18.7563C17.4269 18.8183 17.3971 18.6469 17.3966 18.2249C17.3962 17.8486 17.3868 17.7683 17.3411 17.7508C17.2423 17.7129 17.1126 17.8873 16.8626 18.394C16.4264 19.2779 16.3041 19.8087 16.4112 20.3526C16.5132 20.8705 16.8062 21.3345 17.1815 21.5727C17.3738 21.6947 17.5276 21.7003 17.7441 21.593C18.2119 21.361 18.5657 20.7077 18.5657 20.0756C18.5657 19.6286 18.2895 18.7722 17.9376 18.1285C17.7349 17.7575 17.6057 17.6516 17.5541 17.8142Z" fill="#F9D156"/>
<path fill-rule="evenodd" clip-rule="evenodd" d="M22.1895 20.4209C22.0092 20.4332 21.8616 20.4578 21.8616 20.4757C21.8616 20.4936 21.9772 20.5617 22.1186 20.627C23.1222 21.0911 24.2638 22.2164 24.7798 23.2504C24.8909 23.4731 25.3647 24.6547 25.4228 24.8541C25.4526 24.9563 25.4401 24.9551 25.1223 24.824C24.9761 24.7636 24.6252 24.6297 24.3426 24.5262C23.4182 24.1879 22.8516 23.9018 22.2869 23.4882C21.7024 23.0602 20.9432 22.1738 20.3375 21.2124C20.1963 20.9883 20.0588 20.7815 20.032 20.753C19.945 20.6604 19.9736 20.8512 20.1054 21.2424C20.1726 21.4419 20.2688 21.8159 20.3192 22.0734C20.3696 22.3308 20.4511 22.7489 20.5004 23.0023C20.6081 23.556 20.7267 23.9424 20.8856 24.257C21.5048 25.4833 22.0761 26.1588 22.876 26.6105C23.3227 26.8627 23.5477 26.9265 24.0059 26.9305C24.4495 26.9343 24.6144 26.8951 25.1755 26.6524C25.8212 26.373 26.3193 26.3503 26.9942 26.5697C27.1173 26.6096 27.2268 26.6335 27.2378 26.6226C27.2486 26.6117 27.2216 26.4572 27.1777 26.2794C27.1295 26.0845 27.0978 25.8471 27.0978 25.6818C27.0978 25.4362 27.1115 25.3801 27.2289 25.1461C27.3011 25.0024 27.3887 24.844 27.4238 24.7941C27.606 24.5347 27.7435 24.0932 27.7444 23.7643C27.7461 23.1784 27.5557 22.6668 27.1198 22.086C26.723 21.5574 26.2632 21.2489 25.2995 20.8649C24.554 20.5678 24.0445 20.4294 23.5274 20.3835C23.3521 20.368 22.7014 20.3862 22.1895 20.4209Z" fill="#F9D156"/>
<path fill-rule="evenodd" clip-rule="evenodd" d="M10.4847 20.5456C9.76571 20.7889 8.91329 21.1317 8.62886 21.292C8.10226 21.5886 7.56134 22.125 7.31583 22.594C7.12363 22.9611 7.06749 23.1972 7.0671 23.64C7.06667 24.1008 7.10403 24.2319 7.40561 24.8273C7.55312 25.1186 7.61865 25.2922 7.6352 25.4357C7.66033 25.6534 7.60695 26.1143 7.5215 26.4172C7.49205 26.5216 7.47706 26.6162 7.48822 26.6274C7.49939 26.6385 7.61596 26.6089 7.74727 26.5615C7.96141 26.4843 8.04275 26.4754 8.5354 26.4754H9.08475L9.47738 26.6406C10.0515 26.8821 10.1993 26.9184 10.6071 26.9184C11.3864 26.9184 12.0566 26.5803 12.7397 25.8425C13.0602 25.4964 13.28 25.1525 13.6039 24.4906C14.032 23.6159 14.2092 23.1423 14.6152 21.7878C14.7393 21.3734 14.8585 21.0066 14.88 20.9726C14.9088 20.9271 14.9115 21.013 14.8904 21.3008C14.8747 21.5153 14.8618 22.1931 14.8618 22.8071L14.8617 23.9236L14.7531 24.2248C14.6934 24.3905 14.52 24.8451 14.3677 25.2349C13.8753 26.4961 13.7861 27.0779 13.9723 27.812C14.0867 28.263 14.2068 28.4859 14.486 28.7651C14.7843 29.0633 15.0136 29.1802 15.4264 29.2442C15.9454 29.3247 16.0908 29.3659 16.3008 29.4917C16.583 29.6609 16.9894 30.1044 17.2157 30.49C17.3212 30.6699 17.4207 30.8171 17.4368 30.8171C17.4529 30.8171 17.5282 30.6935 17.6042 30.5424C17.775 30.2027 17.9961 29.9053 18.2774 29.6371C18.5337 29.3926 18.6976 29.3145 19.1587 29.2172C19.5939 29.1254 19.8445 29.0082 20.0785 28.7872C20.8061 28.1 20.8909 27.19 20.3716 25.6425C20.1275 24.9153 19.5959 23.7249 19.4694 23.6223C19.4094 23.5736 19.4056 23.5751 19.4242 23.64C19.4354 23.679 19.5718 24.0219 19.7273 24.402C20.0458 25.1803 20.1672 25.5441 20.2326 25.9155C20.2758 26.161 20.2739 26.1807 20.1824 26.4316C20.0951 26.6709 19.9115 26.9539 19.8436 26.9539C19.8282 26.9539 19.8067 26.7107 19.796 26.4134C19.7635 25.5145 19.6299 24.9667 19.2664 24.2425C18.9316 23.5754 18.7854 23.4131 18.9848 23.9299C19.1252 24.2938 19.1408 24.3772 19.0834 24.4558C19.0396 24.5157 19.0199 24.4973 18.8449 24.2329C18.6527 23.9423 17.8064 22.9843 17.742 22.9843C17.7229 22.9843 17.7186 23.0123 17.7323 23.0464C18.1749 24.1477 18.3395 24.9565 18.3074 25.8729C18.2819 26.6005 18.1491 27.0783 17.7531 27.8668C17.568 28.2354 17.4314 28.6027 17.4314 28.7319C17.4314 28.854 17.3764 28.7722 17.2734 28.4974C17.2227 28.362 17.0792 28.059 16.9546 27.824C16.1803 26.3642 16.1422 25.485 16.7749 23.6793C16.8835 23.3695 16.9623 23.1063 16.9499 23.0945C16.9222 23.0679 16.3634 23.6567 15.9526 24.1451C15.5083 24.6733 15.4475 24.6242 15.7509 23.9824C15.923 23.6184 15.9217 23.6223 15.8739 23.6223C15.8158 23.6223 15.5608 24.0087 15.3617 24.3986C14.9982 25.1101 14.7732 25.9529 14.7732 26.6028V26.9671L14.6726 26.8707C14.5032 26.7085 14.408 26.4731 14.3911 26.1754C14.3666 25.7458 14.3873 25.6692 14.8891 24.3312L15.002 24.0299L15.0045 22.3375C15.0062 21.1605 14.9954 20.6452 14.9691 20.6452C14.9285 20.6452 14.4473 21.2015 13.9581 21.8141C13.0802 22.9134 12.702 23.2847 12.0253 23.7117C11.5104 24.0365 11.1929 24.1846 10.1178 24.6018C9.94526 24.6687 9.72647 24.7628 9.63166 24.8109C9.41664 24.9198 9.37467 24.9212 9.40395 24.8185C9.47253 24.5777 9.84109 23.6639 9.98825 23.3698C10.5693 22.2089 11.4059 21.3059 12.4966 20.6621C12.6578 20.567 12.7841 20.4724 12.7774 20.452C12.7558 20.386 12.5032 20.3678 11.7252 20.3758L10.9632 20.3837L10.4847 20.5456Z" fill="#F9D156"/>
<path fill-rule="evenodd" clip-rule="evenodd" d="M11.0165 20.7187C10.8702 20.8206 9.67978 21.2831 9.56389 21.2831C9.45806 21.2831 9.47383 21.1591 9.5899 21.0788C9.81985 20.9197 10.5845 20.6804 10.8606 20.6812C11.0163 20.6816 11.0561 20.6911 11.0165 20.7187Z" fill="url(#paint7_radial_1531_6897)"/>
<path fill-rule="evenodd" clip-rule="evenodd" d="M24.528 20.7847C25.1217 20.9448 25.5261 21.1773 25.4111 21.2923C25.3586 21.3447 23.9525 20.8411 23.9261 20.7604C23.9043 20.694 24.2423 20.7076 24.528 20.7847Z" fill="url(#paint8_radial_1531_6897)"/>
<path fill-rule="evenodd" clip-rule="evenodd" d="M9.20874 21.3234C9.20863 21.5448 8.39623 22.7371 8.14005 22.8919C8.02894 22.9589 7.85814 22.9661 7.79817 22.9061C7.73838 22.8463 7.74533 22.6378 7.81395 22.4322C7.93534 22.0686 8.33746 21.65 8.76575 21.4414C9.07041 21.293 9.20878 21.2561 9.20874 21.3234Z" fill="url(#paint9_radial_1531_6897)"/>
<path fill-rule="evenodd" clip-rule="evenodd" d="M26.1452 21.47C26.5921 21.6963 27.1071 22.3582 27.1072 22.7065C27.1072 22.915 27.0811 22.9486 26.9191 22.9486C26.7885 22.9486 26.7535 22.9275 26.5691 22.7379C26.231 22.3902 25.7616 21.6328 25.7608 21.4334C25.7603 21.3205 25.8706 21.331 26.1452 21.47Z" fill="url(#paint10_radial_1531_6897)"/>
<path fill-rule="evenodd" clip-rule="evenodd" d="M13.9035 23.259C13.803 23.6825 13.4014 24.562 13.085 25.0511C12.7895 25.508 12.3711 25.8764 12.1793 25.8489C12.0223 25.8264 11.9537 25.4861 12.0573 25.2426C12.1039 25.1328 12.5676 24.6548 12.824 24.4522C13.2162 24.1422 13.503 23.7907 13.7829 23.2767C13.8493 23.1549 13.9144 23.0552 13.9277 23.0552C13.941 23.0552 13.9301 23.1469 13.9035 23.259Z" fill="url(#paint11_radial_1531_6897)"/>
<path fill-rule="evenodd" clip-rule="evenodd" d="M20.99 23.4182C21.3099 24.0237 21.4724 24.2152 22.0035 24.6131C22.2622 24.8069 22.5358 25.0832 22.6088 25.2243C22.685 25.3714 22.6965 25.5755 22.638 25.7432C22.5865 25.8909 22.4613 25.8918 22.2412 25.746C21.7632 25.4294 21.1642 24.5099 20.9266 23.7281C20.8406 23.4452 20.7717 23.0903 20.8028 23.0903C20.8104 23.0903 20.8947 23.2379 20.99 23.4182Z" fill="url(#paint12_radial_1531_6897)"/>
<defs>
<radialGradient id="paint0_radial_1531_6897" cx="0" cy="0" r="1" gradientUnits="userSpaceOnUse" gradientTransform="translate(17.2918 17) rotate(90) scale(17 17.2917)">
<stop stop-color="#44190E"/>
<stop offset="0.653846" stop-color="#702618"/>
<stop offset="0.9999" stop-color="#91301F"/>
</radialGradient>
<radialGradient id="paint1_radial_1531_6897" cx="0" cy="0" r="1" gradientUnits="userSpaceOnUse" gradientTransform="translate(21.6724 9.68043) rotate(90) scale(1.32886 0.931884)">
<stop stop-color="#44190E"/>
<stop offset="0.653846" stop-color="#702618"/>
<stop offset="0.9999" stop-color="#91301F"/>
</radialGradient>
<radialGradient id="paint2_radial_1531_6897" cx="0" cy="0" r="1" gradientUnits="userSpaceOnUse" gradientTransform="translate(12.9643 9.6476) rotate(90) scale(1.26089 0.915385)">
<stop stop-color="#44190E"/>
<stop offset="0.653846" stop-color="#702618"/>
<stop offset="0.9999" stop-color="#91301F"/>
</radialGradient>
<radialGradient id="paint3_radial_1531_6897" cx="0" cy="0" r="1" gradientUnits="userSpaceOnUse" gradientTransform="translate(26.417 11.8566) rotate(90) scale(0.707643 0.620326)">
<stop stop-color="#44190E"/>
<stop offset="0.653846" stop-color="#702618"/>
<stop offset="0.9999" stop-color="#91301F"/>
</radialGradient>
<radialGradient id="paint4_radial_1531_6897" cx="0" cy="0" r="1" gradientUnits="userSpaceOnUse" gradientTransform="translate(8.46757 11.9599) rotate(90) scale(0.772918 0.705772)">
<stop stop-color="#44190E"/>
<stop offset="0.653846" stop-color="#702618"/>
<stop offset="0.9999" stop-color="#91301F"/>
</radialGradient>
<radialGradient id="paint5_radial_1531_6897" cx="0" cy="0" r="1" gradientUnits="userSpaceOnUse" gradientTransform="translate(24.7462 12.9722) rotate(90) scale(0.301259 0.776996)">
<stop stop-color="#44190E"/>
<stop offset="0.653846" stop-color="#702618"/>
<stop offset="0.9999" stop-color="#91301F"/>
</radialGradient>
<radialGradient id="paint6_radial_1531_6897" cx="0" cy="0" r="1" gradientUnits="userSpaceOnUse" gradientTransform="translate(10.2672 13.0052) rotate(90) scale(0.261557 0.667403)">
<stop stop-color="#44190E"/>
<stop offset="0.653846" stop-color="#702618"/>
<stop offset="0.9999" stop-color="#91301F"/>
</radialGradient>
<radialGradient id="paint7_radial_1531_6897" cx="0" cy="0" r="1" gradientUnits="userSpaceOnUse" gradientTransform="translate(10.2619 20.9821) rotate(90) scale(0.300994 0.768908)">
<stop stop-color="#44190E"/>
<stop offset="0.653846" stop-color="#702618"/>
<stop offset="0.9999" stop-color="#91301F"/>
</radialGradient>
<radialGradient id="paint8_radial_1531_6897" cx="0" cy="0" r="1" gradientUnits="userSpaceOnUse" gradientTransform="translate(24.6779 21.0069) rotate(90) scale(0.289156 0.752801)">
<stop stop-color="#44190E"/>
<stop offset="0.653846" stop-color="#702618"/>
<stop offset="0.9999" stop-color="#91301F"/>
</radialGradient>
<radialGradient id="paint9_radial_1531_6897" cx="0" cy="0" r="1" gradientUnits="userSpaceOnUse" gradientTransform="translate(8.48314 22.119) rotate(90) scale(0.827985 0.725604)">
<stop stop-color="#44190E"/>
<stop offset="0.653846" stop-color="#702618"/>
<stop offset="0.9999" stop-color="#91301F"/>
</radialGradient>
<radialGradient id="paint10_radial_1531_6897" cx="0" cy="0" r="1" gradientUnits="userSpaceOnUse" gradientTransform="translate(26.434 22.1525) rotate(90) scale(0.796076 0.673208)">
<stop stop-color="#44190E"/>
<stop offset="0.653846" stop-color="#702618"/>
<stop offset="0.9999" stop-color="#91301F"/>
</radialGradient>
<radialGradient id="paint11_radial_1531_6897" cx="0" cy="0" r="1" gradientUnits="userSpaceOnUse" gradientTransform="translate(12.9707 24.4527) rotate(90) scale(1.39757 0.962686)">
<stop stop-color="#44190E"/>
<stop offset="0.653846" stop-color="#702618"/>
<stop offset="0.9999" stop-color="#91301F"/>
</radialGradient>
<radialGradient id="paint12_radial_1531_6897" cx="0" cy="0" r="1" gradientUnits="userSpaceOnUse" gradientTransform="translate(21.7351 24.4725) rotate(90) scale(1.38216 0.939942)">
<stop stop-color="#44190E"/>
<stop offset="0.653846" stop-color="#702618"/>
<stop offset="0.9999" stop-color="#91301F"/>
</radialGradient>
</defs>
</svg>
