<svg width="373" height="357" viewBox="0 0 373 357" fill="none" xmlns="http://www.w3.org/2000/svg">
<g opacity="0.3">
<path fill-rule="evenodd" clip-rule="evenodd" d="M184.706 0.930037C184.496 1.44156 184.118 2.86451 183.865 4.09216C182.455 10.9417 178.979 18.3329 174.767 23.4369C172.465 26.227 168.344 29.945 165.879 31.4557C159.319 35.4764 157.477 36.7127 155.608 38.3473C153.279 40.3856 150.799 43.4387 149.137 46.3158C146.572 50.7529 144.363 59.4632 143.872 67.0668C143.627 70.858 143.298 72.0786 142.681 71.4782C142.188 70.9987 141.042 65.2719 140.622 61.1942C140.084 55.9696 140.597 48.2983 141.814 43.3613C143.64 35.9519 148.299 29.5662 153.776 26.9644C155.999 25.9082 156.971 25.6839 160.332 25.4503C164.616 25.1527 165.883 24.7349 165.883 23.6192C165.883 21.9612 160.605 20.7056 156.588 21.4083C151.731 22.2584 147.191 25.2085 143.703 29.7813C136.755 38.8908 134.838 55.2807 138.985 70.1248C141.023 77.4185 141.046 78.4367 139.122 76.077C123.401 56.7959 118.686 52.7216 108.055 49.2287C103.529 47.7418 96.835 47.3426 92.8981 48.3251C86.6473 49.8853 81.6446 53.9012 82.6806 56.528C82.8541 56.9685 83.5552 56.8074 86.4489 55.6616C91.9986 53.4641 95.0842 52.8254 100.134 52.8302C103.657 52.8332 105.098 53.0062 107.397 53.7022C111.577 54.9682 116.304 57.4748 120.046 60.41C125.416 64.6219 138.738 79.5539 137.875 80.3935C137.757 80.5085 136.163 79.2492 134.333 77.5952C128.477 72.3026 122.763 68.4649 118.1 66.6922C113.846 65.0751 111.054 64.767 103.979 65.1335C93.6932 65.6662 86.2096 65.5516 83.0395 64.8124C78.7253 63.8065 72.5093 61.5171 66.8767 58.8594C58.0177 54.6799 54.4416 53.232 53.853 53.5861C53.6725 53.6948 54.6404 55.242 56.0036 57.025C59.6729 61.8244 62.8901 68.3239 63.8702 72.9175C65.0372 78.3887 64.7199 82.585 62.4967 91.0841C60.4275 98.9939 60.2085 102.899 61.5533 107.907C62.9638 113.159 66.791 119.807 70.8316 124.023C75.064 128.438 88.6167 136.396 99.7502 141.003C104.55 142.989 122.036 150.535 124.871 151.845C126.498 152.596 126.507 153.221 124.885 152.887C123.219 152.543 115.374 149.48 110.646 147.328C108.543 146.371 103.813 144.334 100.134 142.8C96.4543 141.266 91.6378 139.129 89.4302 138.051C78.6871 132.804 73.3503 130.042 71.0816 128.554C62.9187 123.2 56.1672 115.706 53.1477 108.647C51.2134 104.125 50.7157 101.403 50.9344 96.5378C51.1668 91.3579 52.0892 88.2334 54.2551 85.2896C55.0999 84.1419 55.791 83.0222 55.791 82.8019C55.791 82.5709 55.0063 82.4013 53.9363 82.4013C49.1469 82.4013 46.257 87.7895 46.241 96.7484C46.228 104.115 48.0307 109.516 52.7689 116.306C56.3384 121.422 65.025 129.014 72.3966 133.463C74.0093 134.435 75.2215 135.401 75.09 135.608C74.9589 135.814 74.7341 135.914 74.5911 135.828C74.4478 135.743 71.8985 135.238 68.926 134.706C64.5024 133.915 62.3851 133.741 57.267 133.748C50.6997 133.756 47.1683 134.275 42.2222 135.958C38.611 137.187 33.2088 140.283 30.4546 142.703C26.2352 146.409 22.9153 152.113 22.9172 155.654C22.9176 157.033 23.9619 159.466 24.6366 159.66C25.1936 159.821 26.4753 157.673 27.2291 155.316C30.2085 146.004 38.4726 139.985 50.9906 138.009C59.369 136.686 76.4344 138.021 77.1305 140.054C77.2605 140.432 76.4749 140.478 73.3277 140.274C66.0307 139.802 58.5586 140.952 52.9225 143.412C47.3813 145.832 43.8159 148.743 37.434 156.06C35.382 158.413 33.0391 160.952 32.2276 161.702C26.5437 166.957 15.7161 172.702 6.4791 175.363C3.43055 176.241 0.721448 177.023 0.458451 177.101C-0.656228 177.43 0.200041 177.912 3.70769 178.929C17.1335 182.823 28.1098 190.242 37.0957 201.496C42.5777 208.362 47.2486 211.959 53.9275 214.459C59.6924 216.618 68.6423 218.069 73.2777 217.599C75.7417 217.349 79.874 217.676 79.8732 218.12C79.8721 218.583 75.1637 219.727 71.0911 220.255C61.7757 221.462 51.8644 220.654 43.9596 218.042C35.1366 215.128 30.5827 210.772 27.1209 201.938C26.4653 200.265 25.7031 198.714 25.4267 198.491C24.6561 197.868 23.8422 198.372 23.1278 199.915C22.5204 201.225 22.5192 201.469 23.1121 203.706C25.778 213.759 35.0991 220.799 49.4837 223.623C54.0185 224.513 63.3354 224.516 70.1259 223.63C72.8591 223.273 75.3966 222.895 75.7643 222.791C77.4547 222.31 76.1079 223.503 72.7131 225.493C64.9237 230.058 56.4841 237.476 52.6202 243.153C49.8786 247.18 47.5873 251.913 46.567 255.655C45.5227 259.484 45.4344 266.424 46.3862 269.851C47.0372 272.194 47.3434 272.813 49.2314 275.593C50.8212 277.935 53.9646 279.341 55.9508 278.599C56.8606 278.26 56.6981 277.738 55.1022 275.873C52.9554 273.365 52.1095 271.846 51.3575 269.153C50.4126 265.768 50.4023 259.08 51.3361 255.388C52.369 251.305 55.3159 245.665 58.3025 242.055C61.2868 238.448 68.1603 232.286 72.0976 229.688C74.7784 227.919 79.0789 225.627 79.7169 225.627C79.8939 225.627 77.4352 228.18 74.2524 231.3C71.0701 234.421 68.0028 237.523 67.4367 238.193C65.3059 240.719 62.624 245.596 61.4745 249.036C60.3904 252.28 60.2842 253.03 60.2853 257.434C60.2861 261.843 60.4103 262.714 61.6897 267.293C63.9719 275.458 64.403 278.416 63.8901 282.393C63.0873 288.613 60.6848 294.448 56.1848 301.105L53.8235 304.598L54.9772 304.374C55.6114 304.25 57.6454 303.455 59.4967 302.607C78.8686 293.735 85.6901 292.359 97.7398 294.892C107.098 296.86 111.751 296.5 118.792 293.263C122.81 291.416 128.324 287.786 132.705 284.104C138.424 279.296 138.731 279.062 138.978 279.303C139.718 280.023 132.919 288.603 127.096 294.293C120.545 300.696 114.862 304.212 107.876 306.186C105.103 306.969 103.712 307.133 99.7513 307.142C94.1034 307.157 92.3293 306.815 87.6152 304.805C83.642 303.111 82.7089 303.131 83.0732 304.903C83.4222 306.602 84.5892 307.978 87.0005 309.536C90.296 311.664 93.1072 312.418 97.84 312.44C108.034 312.489 118.168 307.706 128.081 298.17C131.212 295.158 133.548 292.338 139.461 284.431C139.986 283.729 140.475 283.327 140.548 283.538C140.62 283.749 139.999 286.5 139.167 289.651C135.702 302.782 136.063 311.801 140.452 321.725C142.489 326.332 144.052 328.609 147.534 332.048C151.077 335.546 153.455 336.925 157.205 337.654C159.961 338.19 163.121 337.603 164.655 336.271C165.639 335.416 165.656 335.343 164.999 334.848C164.618 334.56 162.838 334.123 161.042 333.875C151.207 332.516 143.875 323.924 141.228 310.655C139.963 304.316 141.048 292.647 143.278 288.59C144.058 287.173 144.522 287.61 144.266 289.521C144.001 291.5 144.879 298.282 145.988 302.82C147.494 308.982 150.649 315.379 154.006 319.077C155.886 321.148 159.058 323.42 165.309 327.171C172.484 331.477 177.163 336.643 181.156 344.672C182.556 347.487 184.561 353.105 185.171 355.925C185.539 357.622 185.977 357.102 186.847 353.939C188.618 347.501 191.572 341.825 195.857 336.63C199.546 332.157 202.073 330.104 208.27 326.546C216.738 321.685 220.565 317.782 224.211 310.293C227.088 304.382 227.897 300.854 228.058 293.52C228.134 290.041 228.323 287.112 228.478 287.009C229.02 286.653 230.592 291.318 231.298 295.38C233.63 308.786 229.996 322.037 222.015 329.228C218.501 332.394 215.226 333.775 209.652 334.441C206.866 334.774 206.403 334.967 206.403 335.789C206.403 336.914 209.42 338.073 212.3 338.052C221.335 337.989 230.529 328.683 234.608 315.473C235.363 313.028 235.563 311.386 235.725 306.333C235.941 299.591 235.53 296.58 233.12 287.245C232.493 284.817 232.041 282.653 232.115 282.438C232.189 282.222 232.777 282.953 233.421 284.062C235.661 287.92 242.556 295.859 247.72 300.528C251.069 303.556 256.162 307.125 259.346 308.676C263.509 310.703 271.018 312.678 274.559 312.678C276.819 312.678 281.839 311.394 284.189 310.213C287.432 308.586 289.354 306.395 289.354 304.327C289.354 303.01 288.06 303.068 284.829 304.529C278.832 307.24 271.943 307.915 265.845 306.389C262.084 305.448 256.79 302.9 253.23 300.316C249.983 297.96 243.866 292.09 240.013 287.633C238.452 285.827 236.593 283.693 235.883 282.89C234.069 280.84 234.863 281.073 237.967 283.503C244.632 288.721 253.959 293.709 259.92 295.244C264.617 296.453 269.427 296.387 275.592 295.028C281.286 293.773 286.546 293.634 291.839 294.599C297.23 295.581 299.817 296.5 311.965 301.745C315.465 303.257 318.519 304.494 318.75 304.494C319.491 304.494 319.216 303.943 316.972 300.933C312.772 295.301 311.513 292.956 309.352 286.738C308.064 283.033 307.958 282.396 307.941 278.267C307.923 274.206 308.057 273.316 309.421 268.409C310.789 263.49 310.922 262.605 310.925 258.364C310.928 253.216 310.494 251.31 308.218 246.472C305.593 240.893 303.409 238.037 296.909 231.684C294.142 228.98 291.982 226.666 292.109 226.542C292.436 226.223 296.984 228.671 300.822 231.231C304.571 233.732 311.461 240.095 313.759 243.18C316.028 246.226 317.825 249.561 319.032 252.97C320.005 255.719 320.085 256.386 320.085 261.712C320.085 267.021 320.005 267.694 319.072 270.192C318.514 271.685 317.286 274.018 316.342 275.376C315.398 276.735 314.712 277.983 314.818 278.15C314.924 278.317 315.821 278.453 316.812 278.453C320.228 278.453 322.977 275.074 324.532 268.967C326.14 262.649 325.129 255.44 321.684 248.661C319.119 243.615 317.419 241.355 312.889 236.965C308.021 232.247 302.271 227.948 297.137 225.188C295.171 224.131 293.657 223.175 293.772 223.063C294.059 222.784 295.926 222.952 301.894 223.794C311.369 225.13 321.634 224.556 329.3 222.261C332.991 221.156 337.993 218.563 340.959 216.216C343.801 213.969 347.439 209.259 348.587 206.342C349.666 203.601 349.67 199.637 348.594 198.418L347.819 197.54L347.161 198.448C346.798 198.948 345.965 200.706 345.308 202.354C341.786 211.193 336.331 216.213 327.557 218.687C319.794 220.876 308.563 221.431 299.632 220.067C295.013 219.362 292.412 218.664 292.412 218.132C292.412 217.735 295.842 217.497 301.42 217.506C315.75 217.528 326.233 212.486 335.97 200.888C341.766 193.985 346.045 190.272 353.001 186.109C359.261 182.364 364.757 180.062 371.445 178.387C373.84 177.787 373.47 177.13 370.325 176.396C366.118 175.413 358.473 172.341 353.383 169.588C345.595 165.375 343.356 163.543 332.932 152.85C326.458 146.209 320.339 142.852 311.334 140.999C308.205 140.355 300.285 140.267 295.321 140.821C289.495 141.47 290.78 140.546 297.631 139.16C305.336 137.601 308.041 137.357 315.459 137.553C323.635 137.769 327.939 138.664 333.268 141.253C338.98 144.029 342.342 147.845 345.744 155.413C346.733 157.614 347.707 159.514 347.907 159.635C348.107 159.755 348.604 159.56 349.011 159.201C349.596 158.686 349.751 158.051 349.751 156.179C349.751 148.8 342.74 140.636 333.02 136.698C327.96 134.648 323.753 133.972 316.112 133.982C308.555 133.992 303.125 134.759 296.964 136.687C295.004 137.301 293.336 137.739 293.257 137.662C293.178 137.585 295.321 136.105 298.019 134.372C311.705 125.587 320.762 115.246 323.826 104.908C324.565 102.414 324.708 101.058 324.71 96.5378C324.714 89.9762 323.943 87.214 321.32 84.3953C319.837 82.8004 319.535 82.6472 317.577 82.4891C316.405 82.3946 315.344 82.4783 315.219 82.6751C315.094 82.8719 315.74 84.1412 316.654 85.4957C318.975 88.9361 319.935 92.5844 319.935 97.9749C319.935 106.013 317.229 112.475 311.09 119.095C306.817 123.703 300.739 128.631 295.46 131.768C289.612 135.243 288.295 135.841 270.623 143.052C267.995 144.124 264.934 145.406 263.821 145.899C256.609 149.097 245.259 152.34 241.278 152.34C238.612 152.34 240.171 151.722 249.79 148.967C254.894 147.505 259.619 145.739 271.387 140.892C276.328 138.857 280.801 137.065 281.326 136.91C285.453 135.694 293.749 130.255 298.168 125.869C303.438 120.637 308.678 111.942 310.238 105.838C311.258 101.848 311.109 96.9835 309.828 92.4457C309.279 90.5019 308.457 87.1798 308.001 85.0634C307.246 81.5509 307.21 80.8522 307.6 77.0558C307.869 74.4439 308.418 71.7929 309.076 69.9295C310.577 65.6807 313.888 59.4413 316.104 56.6835C317.152 55.3804 318.012 54.1676 318.016 53.9886C318.032 53.3049 315.615 54.1962 309.004 57.3119C300.329 61.3996 298.531 62.1897 295.47 63.2574C287.959 65.8779 281.407 66.5773 274.79 65.4657C269 64.4925 263.639 64.6074 259.023 65.8031C251.312 67.8004 247.047 70.0976 239.755 76.1827C235.421 79.799 233.926 80.8403 233.926 80.2421C233.926 79.664 243.95 68.2078 247.532 64.6919C251.747 60.5558 254.855 58.2795 259.155 56.1802C267.369 52.1699 275.563 51.9842 284.906 55.5961C288.773 57.0912 289.354 57.0808 289.354 55.5165C289.354 53.4232 287.836 51.7919 284.309 50.094C276.881 46.5182 269.466 46.6224 261.139 50.4199C252.871 54.1903 246.382 59.7214 235.948 71.8919C232.636 75.756 231.13 77.0487 231.832 75.426C232.638 73.5641 234.029 68.2368 234.917 63.6145C235.819 58.9145 235.899 57.7891 235.732 52.0821C235.575 46.7314 235.39 45.2136 234.531 42.2237C230.837 29.365 222.059 21.0188 212.23 21.0188C209.09 21.0188 206.966 21.7379 206.576 22.9325C206.152 24.2353 207.053 24.739 209.809 24.739C218.588 24.739 225.27 29.8575 229.31 39.6776C231.16 44.1738 231.656 46.997 231.879 54.3142C232.051 59.9498 231.957 61.7957 231.288 65.969C230.851 68.6962 230.394 71.0846 230.272 71.2762C229.809 72.0038 229.338 71.1341 229.338 69.553C229.338 67.6222 228.016 59.3806 227.192 56.1742C226.31 52.7439 224.627 48.5085 223.107 45.8929C219.874 40.3312 216.197 37.1107 208.314 32.9382C205.896 31.6581 203.085 30.0171 202.066 29.2913C199.419 27.4052 194.009 21.3551 192.026 18.0621C190.141 14.9319 187.754 9.19063 186.499 4.76923C186.045 3.16919 185.541 1.44156 185.38 0.930037L185.087 0L184.706 0.930037Z" fill="url(#paint0_radial_3000_3197)"/>
<path fill-rule="evenodd" clip-rule="evenodd" d="M186.59 39.7981C190.998 46.0874 195.249 50.0017 199.113 51.3283C199.99 51.6293 202.806 52.1341 205.371 52.4503C209.358 52.9418 210.488 53.2409 213.163 54.5124C216.664 56.1764 218.048 57.5161 220.249 61.3705C222.646 65.5661 223.337 68.6947 223.125 74.3854C222.904 80.3492 222.405 82.0772 216.955 95.7495C214.785 101.195 212.812 106.437 212.573 107.397C212.041 109.524 212.028 113.985 212.541 117.742C213.494 124.702 212.671 143.039 211.407 143.039C211.222 143.039 211.164 138.869 211.276 133.646C211.436 126.261 211.335 122.843 210.805 117.661C210.434 114.036 210.209 110.101 210.304 108.918C210.418 107.506 211.236 104.85 212.685 101.187C217.927 87.9339 217.997 87.7107 218.031 84.0746C218.056 81.2953 217.912 80.4322 217.184 78.9932C216.334 77.3143 214.629 75.3322 214.034 75.3322C213.874 75.3322 213.667 78.1365 213.574 81.5635C213.428 86.986 213.271 88.227 212.368 91.1257C211.109 95.1666 209.003 100.012 207.513 102.298C206.46 103.915 206.35 103.978 204.974 103.771L203.535 103.553L199.551 108.442C195.551 113.351 191.315 117.501 190.561 117.249C189.943 117.044 190.236 115.832 192.469 109.372C195.228 101.387 195.947 98.5084 196.509 93.2064C197.072 87.8885 196.611 82.7941 195.12 77.8682C194.605 76.1667 192.462 71.4261 190.357 67.3339C186.694 60.2106 185.556 58.2709 185.243 58.6187C185.164 58.7061 184.118 60.9539 182.917 63.6138C176.557 77.7046 175.437 81.6141 175.442 89.7132C175.446 97.1498 176.537 102.563 179.867 111.675C182.116 117.829 182.091 117.742 181.603 117.742C180.608 117.742 172.547 108.86 170.366 105.361C169.572 104.088 168.644 102.843 168.302 102.594C167.598 102.08 166.991 102.287 167.207 102.966C167.286 103.215 167.453 104.507 167.578 105.837L167.805 108.256L166.992 107.326C164.848 104.874 161.906 97.62 160.487 91.2846C159.558 87.1381 159.277 79.9277 159.898 76.1693C160.109 74.8877 160.087 74.2162 159.832 74.2162C158.914 74.2162 157.023 76.3036 155.864 78.5959C154.211 81.8618 153.989 85.1482 155.143 89.2419C156.386 93.6517 160.706 104.079 163.174 108.628C165.718 113.316 166.188 114.485 165.416 114.196C164.237 113.756 159.627 105.392 156.605 98.2111C154.104 92.2675 150.32 81.1133 149.853 78.3083C149.341 75.2322 149.331 69.6984 149.833 67.1055C150.415 64.0963 151.95 61.3858 154.651 58.5997C157.682 55.473 160.479 54.0768 165.781 53.0463C167.932 52.6282 170.599 51.8399 171.706 51.2952C175.389 49.4828 180.701 43.625 183.199 38.6218C183.643 37.7319 184.186 37.0597 184.405 37.1278C184.625 37.1962 185.608 38.3979 186.59 39.7981Z" fill="#F9D156"/>
<path fill-rule="evenodd" clip-rule="evenodd" d="M119.454 78.5093C132.643 81.8224 146.574 97.1926 151.473 113.836C152.016 115.678 152.9 119.779 153.438 122.951C154.39 128.558 155.753 136.181 156.191 138.34C156.513 139.931 155.563 139.429 154.47 137.432C149.952 129.18 144.314 121.705 137.787 115.316C130.966 108.638 125.142 104.859 117.116 101.902C113.782 100.674 101.402 96.9095 100.697 96.9095C100.077 96.9095 100.148 97.1498 103.302 105.652C106.744 114.93 108.666 118.678 112.694 123.964C117.988 130.913 127.061 138.639 133.798 141.935C135.434 142.736 136.881 143.56 137.012 143.767C137.478 144.5 119.597 143.416 115.042 142.434C108.035 140.924 92.2505 134.035 87.2123 130.289C83.1439 127.264 80.0858 123.619 77.6989 118.951L75.478 114.607L75.3438 110.059C75.1813 104.554 75.5208 103.363 78.7352 98.1676C81.6087 93.5234 82.0732 91.6805 81.4734 87.3082C81.2295 85.5299 80.7845 83.1568 80.4849 82.0349C80.1848 80.9125 80.0181 79.8705 80.1144 79.7191C80.2108 79.5673 81.374 79.8407 82.6997 80.3262C90.1962 83.0724 94.8583 83.046 103.449 80.2086C106.566 79.1789 109.633 78.2716 110.264 78.1923C113.092 77.837 117.365 77.9844 119.454 78.5093Z" fill="#F9D156"/>
<path fill-rule="evenodd" clip-rule="evenodd" d="M267.813 80.3884C272.191 81.8445 273.715 82.1789 276.615 82.3184C280.744 82.5171 284.089 82.0152 288.465 80.5394C290.216 79.949 291.648 79.612 291.648 79.7906C291.648 79.9691 291.218 81.6759 290.693 83.5833C289.642 87.4024 289.416 92.0592 290.197 93.823C290.451 94.3951 291.477 96.1269 292.478 97.6715C294.86 101.345 295.34 102.53 296.043 106.452C296.955 111.542 296.128 116.159 293.491 120.708C290.658 125.593 286.693 129.616 282.089 132.278C277.939 134.678 256.733 142.103 250.937 143.187C249.255 143.501 245.556 144.027 242.718 144.357C239.88 144.686 237.17 145.044 236.698 145.154C235.068 145.53 235.784 144.295 238.035 142.846C242.16 140.192 247.109 136.06 251.92 131.257C259.676 123.512 264.017 116.414 268.085 104.825C269.25 101.506 270.39 98.4505 270.618 98.0357C271.211 96.9564 270.691 97.0413 266.235 98.7503C264.128 99.5583 260.254 100.989 257.626 101.93C244.073 106.782 235.38 113.087 227.103 124.067C216.206 138.522 213.988 141.227 213.454 140.718C213.022 140.307 217.241 124.047 219.657 116.812C222.199 109.201 224.561 103.824 227.338 99.3277C232.844 90.4131 238.725 84.9545 246.944 81.1317C254.289 77.7158 259.245 77.5391 267.813 80.3884Z" fill="#F9D156"/>
<path fill-rule="evenodd" clip-rule="evenodd" d="M129.361 89.2604C128.615 94.0977 130.44 97.0173 137.223 101.839C141.019 104.537 143.934 107.657 146.599 111.874C149.075 115.791 149.003 115.694 149.239 115.464C149.891 114.83 145.686 104.366 143.075 100.127C139.286 93.9716 133.677 88.3166 130.809 87.7582C129.65 87.5328 129.622 87.5607 129.361 89.2604Z" fill="url(#paint1_radial_3000_3197)"/>
<path fill-rule="evenodd" clip-rule="evenodd" d="M240.055 88.5623C238.178 89.3648 232.975 94.6957 230.442 98.4122C229.261 100.143 227.495 103.217 226.517 105.242C223.541 111.404 222.081 117.278 224.568 113.083C227.449 108.225 231.302 104.011 235.837 100.758C239.256 98.3061 242.252 95.2206 242.727 93.6641C242.962 92.8915 243.099 91.3387 243.032 90.2133C242.891 87.8689 242.362 87.5757 240.055 88.5623Z" fill="url(#paint2_radial_3000_3197)"/>
<path fill-rule="evenodd" clip-rule="evenodd" d="M81.8618 117.445C79.1707 120.064 88.6875 131.879 93.4879 131.879C95.0965 131.879 95.1634 131.251 93.8603 128.383C92.0036 124.298 88.3828 119.752 85.6286 118.049C83.8067 116.923 82.5976 116.729 81.8618 117.445Z" fill="url(#paint3_radial_3000_3197)"/>
<path fill-rule="evenodd" clip-rule="evenodd" d="M286.355 117.932C283.351 119.218 280.601 122.131 277.054 127.785C274.999 131.06 274.063 132.803 274.063 133.354C274.063 135.028 284.107 129.211 286.438 126.187C288.331 123.732 289.4 121.137 289.278 119.296C289.146 117.293 288.524 117.003 286.355 117.932Z" fill="url(#paint4_radial_3000_3197)"/>
<path fill-rule="evenodd" clip-rule="evenodd" d="M188.123 131.933C191.41 134.467 194.712 140.121 195.918 145.282C196.737 148.784 196.498 153.453 195.331 156.79C194.314 159.697 191.168 165.894 189.377 168.52C188.074 170.431 186.4 171.687 185.856 171.161C185.698 171.007 185.483 168.384 185.378 165.329C185.267 162.094 185.027 159.739 184.805 159.686C184.576 159.632 184.269 161.762 184.04 164.989C183.83 167.956 183.519 170.593 183.348 170.849C182.742 171.76 181.592 171.314 180.475 169.732C178.618 167.106 175.164 159.807 174.093 156.247C171.456 147.484 172.996 140.334 178.721 134.762C182.959 130.638 185.464 129.884 188.123 131.933Z" fill="#F9D156"/>
<path fill-rule="evenodd" clip-rule="evenodd" d="M98.4499 133.797C100.062 135.571 110.225 139.32 113.424 139.32C116.026 139.32 113.943 138.115 105.932 134.986C102.684 133.717 100.272 132.996 99.279 132.996H97.7217L98.4499 133.797Z" fill="url(#paint5_radial_3000_3197)"/>
<path fill-rule="evenodd" clip-rule="evenodd" d="M262.739 135.19C258.505 136.592 256.251 137.685 255.303 138.797C254.86 139.316 254.971 139.351 256.311 139.115C260.363 138.401 267.952 135.914 268.903 134.988C270.653 133.286 268.252 133.365 262.739 135.19Z" fill="url(#paint6_radial_3000_3197)"/>
<path fill-rule="evenodd" clip-rule="evenodd" d="M85.7987 148.985C89.5831 149.174 93.8836 149.578 95.3553 149.883C100.663 150.982 107.473 154.022 112.986 157.753C116.2 159.929 125.923 168.449 127.531 170.5C129.472 172.976 127.986 172.035 123.436 167.908C114.876 160.144 111.511 157.806 104.147 154.51C99.2425 152.314 97.0117 151.821 93.0636 152.06C89.5392 152.274 85.9348 153.588 84.3958 155.219L83.5051 156.163L86.7544 155.833C97.0533 154.788 104.526 156.696 112.055 162.293C119.013 167.466 126.804 174.628 125.82 174.947C125.587 175.023 123.453 174.497 121.079 173.78C111.207 170.797 105.471 169.818 97.9505 169.832C90.6925 169.845 84.4814 171.141 74.3106 174.763C70.1477 176.246 66.353 177.366 62.0028 178.397C61.1091 178.609 60.3782 178.917 60.3782 179.081C60.3782 179.245 61.9696 179.757 63.9142 180.218C65.8587 180.679 69.6863 181.897 72.4195 182.924C75.1527 183.951 78.6584 185.266 80.21 185.845C86.2204 188.089 89.6221 188.612 98.2223 188.612C107.385 188.612 109.934 188.174 120.144 184.848C126.476 182.786 127.274 182.6 127.274 183.191C127.274 183.836 119.278 191.661 116.179 194.048C105.552 202.232 96.9142 204.751 85.2253 203.072L83.5051 202.825L84.2173 203.607C85.0013 204.467 89.1187 206.233 92.6577 207.227C99.0357 209.019 104.729 207.369 120.14 199.265C128.496 194.87 131.469 193.588 130.413 194.837C129.712 195.665 122.521 199.868 117.265 202.521C110.767 205.801 103.389 208.787 99.3045 209.789C89.8931 212.098 74.8798 211.886 68.2464 209.35C64.0613 207.75 59.3782 203.899 57.6806 200.661C57.2823 199.901 56.4386 197.716 55.8056 195.805C55.173 193.895 54.1462 191.59 53.5243 190.683C50.8186 186.739 45.9596 182.856 40.405 180.2C38.9856 179.521 37.8247 178.772 37.8247 178.536C37.8247 178.3 38.8366 177.68 40.0728 177.158C43.5128 175.706 49.0086 172.261 51.0269 170.291C52.8633 168.498 54.1118 166.244 55.9811 161.347C58.78 154.015 63.9933 149.969 72.0373 148.886C74.1351 148.604 78.8438 148.638 85.7987 148.985Z" fill="#F9D156"/>
<path fill-rule="evenodd" clip-rule="evenodd" d="M301.968 149.73C305.623 150.745 307.696 151.932 310.186 154.434C312.114 156.371 312.742 157.425 316.082 164.326C318.487 169.295 323.059 173.312 329.997 176.552C331.821 177.404 333.314 178.246 333.314 178.422C333.314 178.599 332.067 179.352 330.543 180.095C326.469 182.083 322.905 184.511 319.977 187.294C316.9 190.218 315.831 191.901 313.789 197.037C311.928 201.716 310.188 204.282 307.576 206.2C304.692 208.317 303.281 209.052 299.866 210.212C297.089 211.156 296.204 211.266 290.236 211.412C278.608 211.697 271.72 210.428 263.551 206.496C257.766 203.712 253.21 200.613 244.562 193.58C238.151 188.366 236.174 186.565 236.862 186.565C237.335 186.565 239.904 188.432 244.056 191.794C253.483 199.427 263.567 205.727 268.686 207.18C272.79 208.345 278.025 207.723 282.465 205.541C284.508 204.537 285.834 203.476 285.478 203.13C285.389 203.043 284.031 203.148 282.461 203.362C278.242 203.94 271.748 203.569 268.533 202.567C262.412 200.66 257.312 197.459 250.358 191.16C248.359 189.349 245.871 187.163 244.829 186.303C243.788 185.444 243.067 184.613 243.227 184.456C243.388 184.301 246.822 184.968 250.859 185.941C261.631 188.535 263.416 188.797 270.322 188.797C275.354 188.797 277.316 188.628 281.278 187.855C287.068 186.726 287.848 186.492 297.381 183.033C301.481 181.545 305.843 180.11 307.075 179.844C309.008 179.426 309.226 179.297 308.665 178.897C308.307 178.642 307.299 178.321 306.425 178.182C305.551 178.043 300.535 176.533 295.279 174.826C290.023 173.12 284.432 171.471 282.855 171.163C275.171 169.662 268.222 169.513 261.799 170.712C258.079 171.406 249.751 173.727 247.491 174.701C244.045 176.184 244.478 175.324 249.674 170.36C261.129 159.417 265.794 156.783 275.629 155.702C278.603 155.375 280.272 155.363 281.911 155.658C283.138 155.879 284.829 156.059 285.668 156.059H287.194L286.332 155.167C285.858 154.676 284.409 153.81 283.111 153.242C276.148 150.193 265.432 153.158 256.606 160.574C255.59 161.428 252.727 163.983 250.242 166.254C243.382 172.524 243.101 172.136 249.598 165.362C258.258 156.335 265.978 151.792 275.947 149.856C283.083 148.47 297.19 148.402 301.968 149.73Z" fill="#F9D156"/>
<path fill-rule="evenodd" clip-rule="evenodd" d="M158.62 152.737C159.986 153.128 162.395 154.145 163.971 154.999C168.914 157.672 176.555 165.927 178.936 171.165C179.66 172.757 179.672 172.933 179.096 173.494C178.52 174.055 178.098 173.911 173.513 171.591C168.2 168.902 166.37 168.356 168.527 170.104C169.221 170.667 171.102 171.904 172.708 172.852C175.902 174.74 177.216 176.099 176.82 177.104C176.589 177.692 175.872 177.728 168.072 177.541C159.391 177.334 155.878 176.881 151.877 175.456C145.411 173.152 139.76 166.624 139.22 160.835L139.014 158.625L141.105 156.654C145.924 152.111 151.823 150.792 158.62 152.737Z" fill="#F9D156"/>
<path fill-rule="evenodd" clip-rule="evenodd" d="M222.648 153.063C224.84 153.982 228.721 157.246 229.486 158.813C231.22 162.37 226.96 169.502 220.537 173.796C216.318 176.617 211.329 177.637 200.466 177.902C193.454 178.072 192.363 178.022 191.928 177.511C190.962 176.379 192.584 174.969 198.184 172.07C204.794 168.648 202.346 168.498 194.963 171.872C192.436 173.028 190.191 173.867 189.975 173.737C189.114 173.219 189.685 171.624 191.728 168.84C198.006 160.288 202.954 156.088 209.656 153.622C214.061 152.002 219.552 151.765 222.648 153.063Z" fill="#F9D156"/>
<path fill-rule="evenodd" clip-rule="evenodd" d="M177.269 181.024C177.348 181.426 175.915 182.604 172.877 184.635C168.747 187.394 167.042 188.933 167.558 189.435C167.667 189.541 169.941 188.354 172.61 186.795C177.463 183.962 179.426 183.345 179.885 184.509C180.153 185.189 177.22 190.513 174.187 194.85C166.224 206.237 155.527 210.405 146.066 205.806C143.655 204.635 141.036 202.295 141.036 201.314C141.036 199.954 142.526 195.173 143.584 193.135C145.79 188.89 152.024 184.113 157.693 182.325C163.101 180.618 177.007 179.695 177.269 181.024Z" fill="#F9D156"/>
<path fill-rule="evenodd" clip-rule="evenodd" d="M204.926 181.208C210.304 181.888 215.291 183.189 217.988 184.618C220.249 185.815 224.293 189.646 225.612 191.837C226.633 193.535 228.382 198.731 228.789 201.282C228.994 202.558 228.879 202.968 228.047 203.93C226.375 205.864 220.738 207.776 216.739 207.765C212.253 207.754 207.78 206.15 203.68 203.083C197.871 198.739 187.947 186.008 189.034 184.296C189.371 183.765 191.296 184.236 193.797 185.458C196.624 186.841 200.667 188.426 201.367 188.426C202.592 188.426 200.523 186.955 195.86 184.511C193.249 183.143 191.112 181.868 191.112 181.678C191.112 180.511 197.641 180.289 204.926 181.208Z" fill="#F9D156"/>
<path fill-rule="evenodd" clip-rule="evenodd" d="M183.674 186.986C183.816 187.422 183.97 189.765 184.015 192.191C184.06 194.618 184.223 196.726 184.376 196.875C185.046 197.526 185.367 195.727 185.373 191.297C185.377 187.348 185.479 186.505 185.971 186.321C187.037 185.923 188.436 187.754 191.133 193.072C195.837 202.351 197.156 207.922 196.001 213.631C194.9 219.067 191.741 223.938 187.693 226.438C185.619 227.718 183.959 227.777 181.625 226.65C176.579 224.215 172.764 217.358 172.764 210.724C172.764 206.031 175.743 197.043 179.537 190.286C181.724 186.391 183.118 185.28 183.674 186.986Z" fill="#F9D156"/>
<path fill-rule="evenodd" clip-rule="evenodd" d="M133.677 214.342C135.622 214.471 137.213 214.729 137.213 214.917C137.213 215.105 135.966 215.82 134.442 216.506C123.617 221.377 111.305 233.189 105.74 244.041C104.541 246.379 99.4307 258.782 98.8038 260.875C98.4827 261.947 98.6176 261.934 102.045 260.558C103.622 259.925 107.406 258.519 110.455 257.433C120.425 253.882 126.536 250.879 132.626 246.538C138.93 242.045 147.12 232.741 153.652 222.65C155.175 220.297 156.658 218.127 156.947 217.828C157.885 216.856 157.576 218.858 156.155 222.965C155.43 225.059 154.393 228.984 153.849 231.687C153.306 234.39 152.426 238.777 151.895 241.437C150.733 247.25 149.454 251.305 147.741 254.607C141.062 267.478 134.9 274.569 126.273 279.31C121.455 281.958 119.028 282.627 114.086 282.669C109.302 282.71 107.523 282.298 101.472 279.75C94.5075 276.818 89.1352 276.58 81.8561 278.882C80.5285 279.301 79.3466 279.551 79.2288 279.437C79.1115 279.323 79.4031 277.702 79.8772 275.835C80.3966 273.789 80.7388 271.298 80.7388 269.562C80.7388 266.984 80.5908 266.396 79.3244 263.94C78.5461 262.431 77.6004 260.768 77.2227 260.245C75.2571 257.522 73.7747 252.888 73.7648 249.435C73.7464 243.286 75.7999 237.916 80.5014 231.82C84.7808 226.271 89.7403 223.033 100.134 219.002C108.174 215.884 113.67 214.431 119.247 213.95C121.138 213.787 128.156 213.978 133.677 214.342Z" fill="#F9D156"/>
<path fill-rule="evenodd" clip-rule="evenodd" d="M259.92 215.654C267.674 218.208 276.868 221.806 279.936 223.488C285.616 226.602 291.45 232.232 294.098 237.154C296.171 241.008 296.776 243.486 296.78 248.134C296.785 252.971 296.382 254.346 293.129 260.597C291.538 263.654 290.832 265.476 290.653 266.982C290.382 269.267 290.958 274.105 291.879 277.284C292.197 278.381 292.359 279.373 292.238 279.491C292.118 279.608 290.861 279.297 289.444 278.799C287.135 277.989 286.257 277.895 280.944 277.895H275.019L270.784 279.629C264.592 282.164 262.998 282.546 258.6 282.546C250.195 282.546 242.966 278.996 235.598 271.252C232.142 267.619 229.771 264.01 226.277 257.063C221.66 247.881 219.749 242.91 215.371 228.693C214.031 224.343 212.746 220.492 212.514 220.136C212.204 219.659 212.174 220.56 212.402 223.581C212.571 225.832 212.71 232.947 212.711 239.392L212.712 251.11L213.883 254.272C214.527 256.012 216.397 260.783 218.039 264.875C223.35 278.112 224.313 284.219 222.304 291.924C221.07 296.659 219.775 298.998 216.763 301.929C213.547 305.059 211.073 306.286 206.621 306.958C201.023 307.803 199.455 308.235 197.191 309.556C194.147 311.332 189.763 315.986 187.322 320.034C186.184 321.922 185.111 323.467 184.937 323.467C184.764 323.467 183.952 322.17 183.132 320.584C181.29 317.019 178.905 313.897 175.872 311.081C173.107 308.515 171.339 307.695 166.366 306.674C161.673 305.71 158.969 304.48 156.446 302.161C148.598 294.948 147.684 285.396 153.285 269.153C155.917 261.52 161.65 249.025 163.015 247.948C163.663 247.437 163.704 247.452 163.502 248.134C163.382 248.543 161.91 252.143 160.233 256.133C156.798 264.302 155.489 268.12 154.783 272.018C154.318 274.595 154.338 274.802 155.325 277.436C156.267 279.947 158.246 282.918 158.979 282.918C159.145 282.918 159.377 280.365 159.492 277.244C159.843 267.81 161.284 262.06 165.204 254.458C168.816 247.456 170.392 245.753 168.242 251.177C166.727 254.997 166.559 255.872 167.179 256.697C167.651 257.326 167.863 257.133 169.751 254.357C171.824 251.307 180.951 241.252 181.646 241.252C181.851 241.252 181.898 241.545 181.751 241.903C176.977 253.463 175.202 261.952 175.548 271.571C175.822 279.208 177.255 284.223 181.527 292.5C183.523 296.369 184.996 300.224 184.996 301.581C184.996 302.862 185.59 302.004 186.7 299.119C187.247 297.698 188.795 294.517 190.138 292.051C198.49 276.728 198.901 267.499 192.076 248.546C190.905 245.294 190.056 242.532 190.189 242.408C190.488 242.129 196.515 248.309 200.946 253.435C205.738 258.98 206.393 258.465 203.121 251.728C201.265 247.908 201.279 247.948 201.794 247.948C202.421 247.948 205.171 252.004 207.319 256.096C211.239 263.565 213.666 272.411 213.666 279.232V283.057L214.751 282.045C216.578 280.342 217.605 277.872 217.788 274.746C218.051 270.237 217.828 269.433 212.416 255.389L211.198 252.226L211.172 234.463C211.153 222.108 211.27 216.699 211.553 216.699C211.991 216.699 217.181 222.538 222.458 228.969C231.926 240.507 236.006 244.405 243.304 248.886C248.858 252.296 252.281 253.851 263.877 258.229C265.738 258.932 268.098 259.919 269.12 260.424C271.439 261.567 271.892 261.582 271.576 260.504C270.837 257.976 266.861 248.385 265.274 245.298C259.007 233.113 249.984 223.634 238.22 216.877C236.482 215.878 235.119 214.886 235.192 214.671C235.425 213.979 238.149 213.787 246.54 213.872L254.759 213.955L259.92 215.654Z" fill="#F9D156"/>
<path fill-rule="evenodd" clip-rule="evenodd" d="M254.186 217.471C255.763 218.54 268.602 223.395 269.852 223.395C270.994 223.395 270.824 222.092 269.572 221.25C267.092 219.58 258.845 217.069 255.866 217.076C254.187 217.081 253.758 217.181 254.186 217.471Z" fill="url(#paint7_radial_3000_3197)"/>
<path fill-rule="evenodd" clip-rule="evenodd" d="M108.456 218.162C102.053 219.843 97.6914 222.283 98.9318 223.49C99.4976 224.041 114.663 218.755 114.949 217.907C115.183 217.21 111.538 217.353 108.456 218.162Z" fill="url(#paint8_radial_3000_3197)"/>
<path fill-rule="evenodd" clip-rule="evenodd" d="M273.681 223.82C273.682 226.144 282.445 238.659 285.208 240.283C286.406 240.988 288.248 241.063 288.895 240.433C289.54 239.806 289.465 237.617 288.725 235.459C287.415 231.643 283.078 227.248 278.459 225.059C275.173 223.501 273.681 223.114 273.681 223.82Z" fill="url(#paint9_radial_3000_3197)"/>
<path fill-rule="evenodd" clip-rule="evenodd" d="M91.0144 225.361C86.1945 227.735 80.6394 234.684 80.6387 238.339C80.6383 240.527 80.92 240.88 82.6673 240.88C84.0756 240.88 84.4533 240.659 86.4422 238.669C90.089 235.019 95.1513 227.069 95.1605 224.977C95.1658 223.791 93.9755 223.902 91.0144 225.361Z" fill="url(#paint10_radial_3000_3197)"/>
<path fill-rule="evenodd" clip-rule="evenodd" d="M223.047 244.134C224.13 248.58 228.463 257.811 231.875 262.945C235.062 267.74 239.574 271.608 241.643 271.319C243.337 271.083 244.076 267.511 242.96 264.955C242.456 263.802 237.455 258.785 234.69 256.658C230.46 253.405 227.367 249.715 224.348 244.32C223.632 243.042 222.929 241.995 222.786 241.995C222.643 241.995 222.76 242.958 223.047 244.134Z" fill="url(#paint11_radial_3000_3197)"/>
<path fill-rule="evenodd" clip-rule="evenodd" d="M146.615 245.809C143.164 252.165 141.412 254.175 135.683 258.352C132.893 260.386 129.943 263.285 129.155 264.767C128.333 266.311 128.209 268.453 128.84 270.213C129.395 271.763 130.746 271.772 133.12 270.243C138.275 266.919 144.736 257.268 147.299 249.062C148.226 246.093 148.969 242.368 148.634 242.368C148.551 242.368 147.643 243.916 146.615 245.809Z" fill="url(#paint12_radial_3000_3197)"/>
</g>
<defs>
<radialGradient id="paint0_radial_3000_3197" cx="0" cy="0" r="1" gradientUnits="userSpaceOnUse" gradientTransform="translate(186.5 178.438) rotate(90) scale(178.438 186.5)">
<stop stop-color="#44190E"/>
<stop offset="0.653846" stop-color="#702618"/>
<stop offset="0.9999" stop-color="#91301F"/>
</radialGradient>
<radialGradient id="paint1_radial_3000_3197" cx="0" cy="0" r="1" gradientUnits="userSpaceOnUse" gradientTransform="translate(139.256 101.607) rotate(90) scale(13.9482 10.0509)">
<stop stop-color="#44190E"/>
<stop offset="0.653846" stop-color="#702618"/>
<stop offset="0.9999" stop-color="#91301F"/>
</radialGradient>
<radialGradient id="paint2_radial_3000_3197" cx="0" cy="0" r="1" gradientUnits="userSpaceOnUse" gradientTransform="translate(233.176 101.265) rotate(90) scale(13.2347 9.87291)">
<stop stop-color="#44190E"/>
<stop offset="0.653846" stop-color="#702618"/>
<stop offset="0.9999" stop-color="#91301F"/>
</radialGradient>
<radialGradient id="paint3_radial_3000_3197" cx="0" cy="0" r="1" gradientUnits="userSpaceOnUse" gradientTransform="translate(88.0817 124.451) rotate(90) scale(7.42768 6.69055)">
<stop stop-color="#44190E"/>
<stop offset="0.653846" stop-color="#702618"/>
<stop offset="0.9999" stop-color="#91301F"/>
</radialGradient>
<radialGradient id="paint4_radial_3000_3197" cx="0" cy="0" r="1" gradientUnits="userSpaceOnUse" gradientTransform="translate(281.676 125.538) rotate(90) scale(8.11283 7.61212)">
<stop stop-color="#44190E"/>
<stop offset="0.653846" stop-color="#702618"/>
<stop offset="0.9999" stop-color="#91301F"/>
</radialGradient>
<radialGradient id="paint5_radial_3000_3197" cx="0" cy="0" r="1" gradientUnits="userSpaceOnUse" gradientTransform="translate(106.102 136.158) rotate(90) scale(3.16213 8.38031)">
<stop stop-color="#44190E"/>
<stop offset="0.653846" stop-color="#702618"/>
<stop offset="0.9999" stop-color="#91301F"/>
</radialGradient>
<radialGradient id="paint6_radial_3000_3197" cx="0" cy="0" r="1" gradientUnits="userSpaceOnUse" gradientTransform="translate(262.268 136.51) rotate(90) scale(2.7454 7.19829)">
<stop stop-color="#44190E"/>
<stop offset="0.653846" stop-color="#702618"/>
<stop offset="0.9999" stop-color="#91301F"/>
</radialGradient>
<radialGradient id="paint7_radial_3000_3197" cx="0" cy="0" r="1" gradientUnits="userSpaceOnUse" gradientTransform="translate(262.324 220.236) rotate(90) scale(3.15934 8.29307)">
<stop stop-color="#44190E"/>
<stop offset="0.653846" stop-color="#702618"/>
<stop offset="0.9999" stop-color="#91301F"/>
</radialGradient>
<radialGradient id="paint8_radial_3000_3197" cx="0" cy="0" r="1" gradientUnits="userSpaceOnUse" gradientTransform="translate(106.84 220.495) rotate(90) scale(3.03509 8.11935)">
<stop stop-color="#44190E"/>
<stop offset="0.653846" stop-color="#702618"/>
<stop offset="0.9999" stop-color="#91301F"/>
</radialGradient>
<radialGradient id="paint9_radial_3000_3197" cx="0" cy="0" r="1" gradientUnits="userSpaceOnUse" gradientTransform="translate(281.507 232.171) rotate(90) scale(8.69083 7.82603)">
<stop stop-color="#44190E"/>
<stop offset="0.653846" stop-color="#702618"/>
<stop offset="0.9999" stop-color="#91301F"/>
</radialGradient>
<radialGradient id="paint10_radial_3000_3197" cx="0" cy="0" r="1" gradientUnits="userSpaceOnUse" gradientTransform="translate(87.8996 232.524) rotate(90) scale(8.35591 7.2609)">
<stop stop-color="#44190E"/>
<stop offset="0.653846" stop-color="#702618"/>
<stop offset="0.9999" stop-color="#91301F"/>
</radialGradient>
<radialGradient id="paint11_radial_3000_3197" cx="0" cy="0" r="1" gradientUnits="userSpaceOnUse" gradientTransform="translate(233.108 256.665) rotate(90) scale(14.6694 10.3831)">
<stop stop-color="#44190E"/>
<stop offset="0.653846" stop-color="#702618"/>
<stop offset="0.9999" stop-color="#91301F"/>
</radialGradient>
<radialGradient id="paint12_radial_3000_3197" cx="0" cy="0" r="1" gradientUnits="userSpaceOnUse" gradientTransform="translate(138.578 256.875) rotate(90) scale(14.5076 10.1378)">
<stop stop-color="#44190E"/>
<stop offset="0.653846" stop-color="#702618"/>
<stop offset="0.9999" stop-color="#91301F"/>
</radialGradient>
</defs>
</svg>
