<svg width="721" height="152" viewBox="0 0 721 152" fill="none" xmlns="http://www.w3.org/2000/svg">
<path fill-rule="evenodd" clip-rule="evenodd" d="M335.65 11.5326C329.453 14.089 324.953 22.8588 326.161 30.0227C326.724 33.3626 326.613 33.6269 324.917 32.9871C323.893 32.6004 319.883 31.6611 316.007 30.8999C298.093 27.3791 278.3 36.6626 270.198 52.3849C267.76 57.1176 267.334 59.0481 267.33 65.3663C267.323 77.4195 272.545 85.5588 283.663 90.8264C288.665 93.1955 290.771 93.6517 296.719 93.6517C302.822 93.6517 304.679 93.2271 310.011 90.6132C315.022 88.156 316.792 86.6492 319.26 82.7418C322.966 76.8724 323.889 72.0869 322.497 65.9365C321.117 59.8362 316.924 54.499 311.587 52.0493C303.197 48.1984 294.556 50.1178 289.95 56.8533C281.907 68.6135 295.084 80.599 305.695 71.1745L307.896 69.2199V72.4207C307.896 76.432 305.983 79.0727 301.669 81.0135C297.16 83.0423 293.738 82.9171 289.318 80.561C283.993 77.7236 281.485 72.953 281.512 65.7084C281.538 58.4472 283.751 53.4911 289.328 48.204C295.704 42.1584 302.838 39.4295 312.297 39.4175C322.714 39.4054 329.252 42.2391 337.739 50.4451C357.707 69.754 357.479 97.9124 337.195 117.528C333.898 120.716 330.85 123.323 330.42 123.323C329.989 123.323 330.538 121.003 331.64 118.168C333.572 113.196 333.584 112.834 331.991 108.043C328.086 96.2971 314.084 92.144 304.828 99.9866C298.715 105.164 300.557 114.841 307.948 116.38C313.954 117.631 318.574 111.805 315.316 107.09C313.789 104.881 313.809 104.779 315.762 104.779C318.859 104.779 321.407 106.394 323.045 109.396C327.591 117.733 320.372 130.837 309.737 133.553C281.988 140.637 256.034 133.473 243.74 115.337C238.032 106.917 236.232 100.176 236.712 89.0155C237.081 80.4599 237.504 78.5489 240.2 73.2525C241.888 69.9376 245.018 65.4284 247.158 63.2327C251.647 58.6243 250.995 57.8492 243.353 58.7069C231.26 60.0653 220.12 70.8722 219.932 81.427C219.838 86.7225 218.534 88.0271 214.273 87.0897C208.301 85.7748 204.804 86.1003 200.227 88.3952C194.372 91.3308 194.478 93.5229 200.556 95.2039C205.603 96.5985 209.121 99.4127 231.124 119.652C249.196 136.275 259.388 141.522 277.818 143.693C298.012 146.072 323.061 139.73 337.352 128.619C350.87 118.109 358.891 100.88 359.025 82.0612C359.138 66.0024 354.779 55.6868 342.936 43.9897C334.15 35.3135 332.997 32.4706 335.793 26.3823L337.476 22.7179L338.345 25.673C341.218 35.4313 355.084 34.3121 356.514 24.207C357.936 14.1558 346.35 7.11708 335.65 11.5326Z" fill="url(#paint0_linear_1514_3713)"/>
<path fill-rule="evenodd" clip-rule="evenodd" d="M371.954 11.9254C366.519 15.1077 365.108 17.3692 365.108 22.8955C365.108 27.3148 365.466 28.2698 367.852 30.2161C370.823 32.639 375.143 33.1147 378.62 31.4011C381.479 29.9908 381.255 30.2708 382.73 26.2633L384.035 22.7175L385.573 26.165C388.711 33.1925 387.741 35.671 378.429 44.439C367.861 54.3883 362.689 66.9051 362.694 82.5245C362.706 119.118 391.661 143.896 434.545 144.008C448.4 144.045 455.462 142.575 466.818 137.291C475.138 133.42 481.634 128.319 500.07 111.182C514.256 97.9946 519.175 94.5786 523.981 94.5786C527.351 94.5786 526.36 91.4093 522.319 89.2646C517.018 86.4523 512.54 85.9349 507.099 87.5075C501.743 89.056 501.938 89.2553 501.212 81.4841C500.607 75.0036 497.953 69.9511 492.864 65.5912C487.657 61.1312 483.842 59.3555 478.076 58.7083C470.073 57.8098 469.359 58.6916 474.124 63.593C476.384 65.9176 479.625 70.6067 481.326 74.0124C484.266 79.8958 484.422 80.7646 484.422 91.3333C484.422 102.267 484.358 102.586 480.776 109.7C471.649 127.821 453.004 137.226 428.641 135.998C413.207 135.22 410.126 134.188 403.106 127.433C398.428 122.932 396.949 120.821 396.43 117.91C395.592 113.201 397.974 108.036 401.865 106.128C405.359 104.416 408.283 104.305 406.927 105.937C406.397 106.575 405.673 108.253 405.317 109.666C404.811 111.669 405.202 112.741 407.093 114.534C410.204 117.483 413.572 117.45 417.355 114.432C422.747 110.13 420.775 101.798 413.537 98.2968C405.683 94.4979 396.894 96.4526 391.649 103.166C388.917 106.662 388.233 116.445 390.431 120.62C391.3 122.272 391.772 123.851 391.479 124.128C391.187 124.405 387.902 121.628 384.18 117.956C367.699 101.699 364.189 81.3126 374.525 61.8841C378.346 54.7026 387.873 45.6519 395.181 42.2619C407.818 36.3999 422.626 39.1612 432.783 49.2746C442.177 58.6267 442.456 73.7407 433.352 80.1239C429.557 82.785 422.558 83.0604 418.597 80.7034C415.072 78.606 412.51 74.0254 413.286 71.2103C413.745 69.5478 413.951 69.5895 416.429 71.8399C427.059 81.4962 440.014 66.3729 430.395 55.5353C425.295 49.7892 418.216 48.6626 409.998 52.2909C402.447 55.6243 398.38 62.3413 398.426 71.3976C398.491 84.3493 409.802 93.9944 424.819 93.9063C436.146 93.8405 446.074 88.049 451.488 78.3519C453.701 74.3889 454.077 72.5706 454.078 65.8342C454.078 59.0069 453.696 57.2081 451.217 52.3892C447.349 44.8674 439.625 37.7295 431.39 34.0669C425.705 31.5383 423.421 31.0692 415.287 30.7539C408.295 30.4841 404.594 30.7799 401.176 31.8842C398.628 32.7076 396.23 33.3808 395.847 33.3808C395.464 33.3808 394.989 30.3543 394.792 26.6546C394.512 21.4027 393.92 19.2441 392.092 16.8101C387.661 10.91 377.78 8.51312 371.954 11.9254Z" fill="url(#paint1_linear_1514_3713)"/>
<path fill-rule="evenodd" clip-rule="evenodd" d="M170.28 98.7067C156.159 102.89 148.548 112.485 148.506 126.156C148.461 140.755 156.998 149.287 171.652 149.287C178.741 149.287 183.89 146.706 187.073 141.557C191.98 133.616 189.57 124.053 181.716 120.312C177.748 118.421 171.519 118.221 168.074 119.874C164.779 121.455 161.198 126.727 161.198 129.998C161.198 133.305 163.511 137.735 165.643 138.511C170.752 140.37 176.846 137.996 176.846 134.146C176.846 133.294 177.286 132.596 177.824 132.596C179.684 132.596 178.793 136.398 176.401 138.665C173.337 141.571 167.135 141.774 163.172 139.099C160.047 136.99 157.277 131.17 157.308 126.783C157.337 122.712 160.244 116.978 164.063 113.456C169.738 108.222 181.598 106.66 192.494 109.709C198.395 111.362 203.324 114.413 223.091 128.657C236.497 138.317 247.342 144.165 257.041 146.963C267.288 149.921 293.602 149.678 295.604 146.608C295.855 146.223 290.691 145.869 284.13 145.822C270.777 145.726 260.786 143.74 250.684 139.174C242.692 135.563 237.454 131.806 226.109 121.548C220.799 116.747 214.276 111.183 211.615 109.183C198.792 99.5495 181.89 95.2666 170.28 98.7067Z" fill="#CD9C1A"/>
<path fill-rule="evenodd" clip-rule="evenodd" d="M530.95 98.7745C519.229 101.894 508.332 108.712 496.156 120.541C487.262 129.184 479.886 134.569 471.575 138.486C460.808 143.563 454.62 144.896 438.944 145.517L424.764 146.078L430.076 147.682C433.505 148.717 438.531 149.284 444.257 149.279C462.345 149.266 477.793 143.522 496.645 129.801C523.296 110.403 527.501 108.299 539.677 108.271C548.167 108.253 553.273 109.93 558.04 114.304C565.356 121.017 565.369 134.779 558.064 139.265C552.345 142.777 546.669 141.984 544.124 137.318C542.348 134.062 542.272 133.523 543.589 133.523C544.126 133.523 544.566 134.084 544.566 134.77C544.566 136.969 548.039 139.086 551.647 139.086C556.71 139.086 560.623 134.593 559.916 129.592C559.206 124.578 556.813 121.578 551.864 119.503C546.139 117.102 540.006 118.422 535.805 122.958C529.855 129.383 529.946 137.524 536.037 143.703C539.911 147.634 544.263 149.29 550.648 149.265C564.498 149.211 573.73 138.656 572.723 124.028C571.965 113.021 566.142 104.969 555.644 100.413C548.929 97.4986 538.376 96.7985 530.95 98.7745Z" fill="#CD9C1A"/>
<path fill-rule="evenodd" clip-rule="evenodd" d="M113.391 123.057C109.708 124.778 106.488 130.296 106.453 134.949C106.441 136.499 107.422 139.628 108.632 141.904C110.355 145.143 111.985 146.595 116.142 148.591C119.062 149.993 122.858 151.141 124.577 151.141C128.766 151.141 135.416 148.836 139.271 146.048C143.269 143.157 146.759 136.43 146.347 132.407L146.035 129.351L144.317 132.335C140.381 139.171 134.016 142.796 125.947 142.796C121.729 142.796 120.506 142.374 118.092 140.085C116.105 138.201 115.234 136.456 115.234 134.361V131.345L117.497 133.362C118.742 134.471 120.875 135.378 122.235 135.378C128.89 135.378 130.278 125.921 124.07 122.877C120.397 121.076 117.529 121.124 113.391 123.057Z" fill="#F8CB53"/>
<path fill-rule="evenodd" clip-rule="evenodd" d="M597.672 122.407C594.966 123.44 592.192 128.401 592.989 130.782C594.589 135.563 600.007 136.842 603.915 133.362L606.178 131.345V133.301C606.178 139.74 601.143 143.244 592.828 142.59C586.602 142.101 581.836 139.213 577.609 133.369L574.702 129.35L575.202 133.385C575.994 139.78 580.342 145.605 586.554 148.591C594.763 152.536 602.446 151.64 609.068 145.968C616.883 139.276 616.032 126.695 607.507 122.86C604.075 121.316 600.912 121.17 597.672 122.407Z" fill="#F8CB53"/>
<path fill-rule="evenodd" clip-rule="evenodd" d="M622.643 134.811C619.165 136.445 618.914 142.157 622.229 144.218C627.534 147.512 633.742 141.85 630.295 136.862C628.432 134.166 625.619 133.412 622.643 134.811Z" fill="#F8C900"/>
<path fill-rule="evenodd" clip-rule="evenodd" d="M91.424 136.146C86.6329 141.165 93.9589 148.228 99.5246 143.956C102.284 141.837 102.542 137.437 100.01 135.682C97.4865 133.933 93.3223 134.157 91.424 136.146Z" fill="#F8C900"/>
<path fill-rule="evenodd" clip-rule="evenodd" d="M69.2675 135.982C65.7713 136.118 50.8081 136.673 36.0162 137.216C-11.2419 138.951 -11.9275 140.227 33.5712 141.767C50.7837 142.349 68.2856 143.038 72.4646 143.298C81.0454 143.831 83.9373 142.901 83.9373 139.609C83.9373 137.981 83.1422 137.151 80.8576 136.396C79.1637 135.836 77.2929 135.459 76.7012 135.557C76.1085 135.655 72.7638 135.846 69.2675 135.982Z" fill="#D2A283"/>
<path fill-rule="evenodd" clip-rule="evenodd" d="M638.127 136.923C636.776 138.204 637.547 141.839 639.367 142.763C640.666 143.422 649.179 143.436 666.506 142.807C734.453 140.342 737.225 139.452 683.929 137.219C658.891 136.169 639.057 136.041 638.127 136.923Z" fill="#D2A283"/>
<path fill-rule="evenodd" clip-rule="evenodd" d="M638.127 136.923C636.776 138.204 637.547 141.839 639.367 142.763C640.666 143.422 649.179 143.436 666.506 142.807C734.453 140.342 737.225 139.452 683.929 137.219C658.891 136.169 639.057 136.041 638.127 136.923Z" fill="#D2A283"/>
<path fill-rule="evenodd" clip-rule="evenodd" d="M355.774 1.44C352.152 5.57828 356.304 12.7968 361.623 11.6081C369.759 9.7898 369.04 0 360.772 0C358.586 0 356.512 0.59807 355.774 1.44Z" fill="#FCD510"/>
<defs>
<linearGradient id="paint0_linear_1514_3713" x1="277.471" y1="10.188" x2="277.471" y2="144.19" gradientUnits="userSpaceOnUse">
<stop stop-color="#FFD200"/>
<stop offset="0.660327" stop-color="#CB381F"/>
<stop offset="0.826923" stop-color="#852816"/>
<stop offset="1" stop-color="#3F170D"/>
</linearGradient>
<linearGradient id="paint1_linear_1514_3713" x1="444.356" y1="10.3579" x2="444.356" y2="144.009" gradientUnits="userSpaceOnUse">
<stop stop-color="#FFD200"/>
<stop offset="0.660327" stop-color="#CB381F"/>
<stop offset="0.826923" stop-color="#852816"/>
<stop offset="1" stop-color="#3F170D"/>
</linearGradient>
</defs>
</svg>
