<svg width="265" height="190" viewBox="0 0 265 190" fill="none" xmlns="http://www.w3.org/2000/svg">
<path d="M198.236 54.9236C177.563 49.7834 159.209 41.3305 144.538 30.9794C140.933 28.4371 135.92 30.159 134.7 34.3977C125.586 66.0848 107.142 150.291 156.025 185.134C161.393 188.959 168.017 190.607 174.552 189.74C234.061 181.846 257.198 98.8063 263.984 66.5412C264.892 62.2252 261.268 58.3561 256.894 58.9143C239.084 61.1888 218.909 60.0638 198.236 54.9236Z" fill="url(#paint0_linear_3619_3255)"/>
<path d="M245.548 90.2584C232.647 96.3972 212.293 92.6073 207.938 80.6116C207.938 80.6116 206.99 84.2487 206.423 87.1748C205.857 90.1018 214.119 111.811 237.762 110.098C244.299 109.026 250.02 106.439 253.35 104.68C257.405 93.1769 260.341 82.3835 262.382 73.7231C259.437 78.6795 253.839 86.3139 245.548 90.2584Z" fill="url(#paint1_linear_3619_3255)"/>
<path d="M188.756 133.32C184.065 136.687 178.319 135.032 178.319 135.032C178.319 135.032 172.467 133.804 169.899 128.631C167.226 124.792 161.089 123.946 161.089 123.946C161.089 123.946 164.618 128.904 167.239 134.771C169.861 140.637 176.567 142.078 176.567 142.078C176.567 142.078 183.167 143.945 188.231 139.99C193.295 136.035 198.735 133.306 198.735 133.306C198.735 133.306 192.915 131.18 188.756 133.32Z" fill="url(#paint2_linear_3619_3255)"/>
<path d="M173.71 153.57C183.879 156.098 192.774 160.588 199.649 166.18C197.275 157.634 187.94 149.666 175.453 146.561C162.966 143.457 150.986 146.126 144.886 152.565C153.578 150.843 163.542 151.042 173.71 153.57Z" fill="#3F1111"/>
<path d="M171.034 164.335C177.865 166.033 183.674 169.724 188.007 174.629C186.996 166.535 181.139 159.513 172.751 157.427C164.362 155.341 155.898 158.804 151.215 165.481C157.34 163.177 164.202 162.637 171.034 164.335Z" fill="url(#paint3_linear_3619_3255)"/>
<path d="M263.986 66.5413C264.894 62.2253 261.27 58.3562 256.895 58.9145C239.084 61.189 218.909 60.064 198.236 54.9238C177.563 49.7836 159.211 41.3307 144.538 30.9796C143.514 30.2572 142.377 29.8904 141.245 29.8159C141.245 29.8159 149.949 39.5617 166.821 47.3837C183.693 55.2057 211.291 63.6549 239.413 64.5252C254.942 64.9854 259.646 82.2363 245.222 124.903C255.372 102.714 261.128 80.1269 263.986 66.5413Z" fill="url(#paint4_linear_3619_3255)"/>
<path d="M194.985 81.8184C194.985 81.8184 189.993 115.719 183.52 127.937C180.806 133.384 173.969 128.963 177.642 121.488C181.314 114.013 187.64 95.8613 188.537 87.696C189.433 79.5317 195.754 77.0026 194.985 81.8184Z" fill="url(#paint5_linear_3619_3255)"/>
<path d="M243.179 129.232C220.245 132.762 204.692 118.464 204.692 118.464C211.012 132.267 227.863 139.044 236.536 141.707C238.921 137.63 241.131 133.449 243.179 129.232Z" fill="url(#paint6_linear_3619_3255)"/>
<path d="M123.728 99.5347C142.339 113.393 162.776 108.044 162.776 108.044C150.728 117.28 132.665 115.377 123.754 113.668C123.556 108.948 123.562 104.219 123.728 99.5347Z" fill="url(#paint7_linear_3619_3255)"/>
<path d="M211.657 140.6C211.657 140.6 221.439 141.899 217.492 149.759C221.695 145.817 221.901 139.52 211.657 140.6Z" fill="url(#paint8_linear_3619_3255)"/>
<path d="M146.255 124.34C146.255 124.34 137.004 120.907 136.809 129.7C134.942 124.248 137.71 118.588 146.255 124.34Z" fill="#CEC9B3"/>
<path d="M218.529 103.508C212.709 99.2511 208.631 93.5027 206.423 87.1743C204.246 95.2387 207.079 104.165 214.225 109.392C221.371 114.618 230.735 114.614 237.762 110.096C231.062 109.91 224.348 107.764 218.529 103.508Z" fill="#3F1111"/>
<path d="M225.243 91.2812C218.259 89.4895 212.338 85.6666 207.938 80.6104C208.912 88.9067 214.856 96.1432 223.432 98.3422C232.007 100.542 240.701 97.0607 245.547 90.2571C239.258 92.5721 232.227 93.0728 225.243 91.2812Z" fill="url(#paint9_linear_3619_3255)"/>
<path d="M139.885 63.9875C148.409 75.4523 168.169 81.6364 177.634 73.077C177.634 73.077 176.769 76.7348 175.899 79.5854C175.028 82.4361 157.562 97.7492 137.474 85.1622C132.201 81.1536 128.356 76.1897 126.238 73.076C128.041 61.0124 130.502 50.1012 132.755 41.4927C133.036 47.2524 134.407 56.62 139.885 63.9875Z" fill="url(#paint10_linear_3619_3255)"/>
<path d="M157.554 88.3486C164.688 87.3132 170.984 84.1439 175.899 79.5864C174.045 87.731 167.362 94.2913 158.601 95.5634C149.84 96.8355 141.567 92.4459 137.475 85.1632C143.481 88.1346 150.418 89.384 157.554 88.3486Z" fill="#3F1111"/>
<path d="M157.346 74.4007C164.356 76.0886 171.378 75.4832 177.634 73.0767C172.889 79.9511 164.247 83.5608 155.64 81.4881C147.032 79.4154 140.981 72.2686 139.885 63.9873C144.36 68.9776 150.337 72.7127 157.346 74.4007Z" fill="url(#paint11_linear_3619_3255)"/>
<path opacity="0.44" d="M139.823 35.5332C139.823 35.5332 159.857 54.4183 189.462 60.5704C219.067 66.7224 205.416 74.2097 183.137 66.5545C160.859 58.9003 138.401 41.2505 139.823 35.5332Z" fill="white"/>
<path opacity="0.44" d="M182.75 97.2915C182.75 97.2915 177.436 113.805 172.533 118.934C168.335 118.797 166.704 117.485 162.15 119.677C164.773 114.888 170.251 114.739 170.251 114.739C170.251 114.739 180.838 103.768 182.75 97.2915Z" fill="white"/>
<g opacity="0.44">
<path d="M142.996 164.79C121.892 130.524 131.357 77.8633 135.104 59.1469C137.26 48.3724 134.524 45.6019 131.813 45.187C122.609 82.185 111.953 153.721 156.027 185.134C161.395 188.96 168.019 190.607 174.553 189.741C176.791 189.444 178.971 189.029 181.108 188.525C168.84 191.149 156.903 185.997 142.996 164.79Z" fill="white"/>
<path d="M182.773 188.123C182.715 188.138 182.659 188.153 182.601 188.168C182.659 188.153 182.716 188.138 182.773 188.123Z" fill="white"/>
</g>
<path d="M195.594 177.868C230.287 157.475 246.585 106.512 252.04 88.2201C255.18 77.6908 258.895 76.5243 261.485 77.4267C252.291 114.427 228.207 182.624 174.554 189.741C168.019 190.607 161.394 188.961 156.027 185.134C154.188 183.824 152.457 182.435 150.805 180.991C160.415 189.053 173.374 190.092 195.594 177.868Z" fill="url(#paint12_linear_3619_3255)"/>
<path d="M149.521 179.855C149.564 179.896 149.607 179.936 149.651 179.975C149.607 179.936 149.565 179.895 149.521 179.855Z" fill="#CEC9B3"/>
<path d="M143.782 30.5228C143.728 30.4945 143.672 30.4728 143.617 30.4464C143.405 30.3427 143.19 30.2502 142.972 30.172C142.93 30.1569 142.887 30.1446 142.843 30.1305C142.603 30.0503 142.36 29.9843 142.116 29.9334C142.097 29.9296 142.079 29.9268 142.061 29.923C138.947 29.3073 135.657 31.0725 134.701 34.3975C134.087 36.5324 133.429 38.9125 132.754 41.4934C132.753 41.4981 132.751 41.5029 132.75 41.5066C131.908 44.725 131.038 48.2641 130.183 52.0671C130.18 52.0784 130.178 52.0897 130.175 52.101C130.011 52.8309 129.848 53.5702 129.685 54.3189C129.674 54.3736 129.661 54.4264 129.649 54.4811C129.545 54.9592 129.443 55.4439 129.34 55.9295C129.332 55.9673 129.324 56.005 129.316 56.0427C129.312 56.0597 129.309 56.0767 129.305 56.0936C129.272 56.2511 129.239 56.4067 129.205 56.5642C129.1 57.0621 128.997 57.5656 128.895 58.0711C128.851 58.2842 128.808 58.4963 128.765 58.7104C128.668 59.1885 128.573 59.6694 128.477 60.1532C128.429 60.3974 128.381 60.6416 128.334 60.8877C128.241 61.3621 128.15 61.8383 128.059 62.3182C128.01 62.5776 127.962 62.8388 127.913 63.1C127.824 63.5762 127.736 64.0543 127.649 64.5352C127.6 64.8049 127.552 65.0765 127.504 65.3481C127.419 65.8271 127.333 66.3061 127.249 66.7899C127.201 67.0681 127.154 67.3491 127.107 67.6291C127.024 68.1148 126.942 68.6004 126.861 69.0908C126.819 69.3454 126.779 69.6028 126.737 69.8583C126.571 70.8862 126.409 71.9225 126.252 72.9683C126.248 72.9985 126.243 73.0287 126.239 73.0588C126.238 73.0645 126.237 73.0702 126.236 73.0758C126.207 73.2729 126.176 73.4671 126.148 73.6642C126.085 74.0961 126.023 74.5318 125.962 74.9665C125.908 75.3409 125.854 75.7152 125.803 76.0915C125.745 76.5073 125.69 76.9269 125.635 77.3456C125.582 77.7436 125.528 78.1415 125.477 78.5423C125.424 78.9534 125.374 79.3674 125.323 79.7814C125.272 80.1963 125.221 80.6112 125.172 81.0289C125.124 81.4344 125.077 81.8408 125.031 82.2482C124.982 82.6791 124.934 83.1101 124.888 83.5429C124.845 83.9456 124.802 84.3492 124.761 84.7537C124.715 85.1922 124.672 85.6316 124.63 86.072C124.59 86.4746 124.551 86.8764 124.514 87.28C124.472 87.7401 124.432 88.2022 124.393 88.6643C124.36 89.0481 124.326 89.4309 124.295 89.8156C124.254 90.3126 124.217 90.8105 124.181 91.3093C124.154 91.6658 124.126 92.0222 124.101 92.3796C124.059 92.9926 124.021 93.6074 123.984 94.2222C123.968 94.4655 123.952 94.7078 123.937 94.9511C123.888 95.8055 123.844 96.6617 123.805 97.5208C123.794 97.7782 123.786 98.0366 123.774 98.294C123.749 98.9069 123.724 99.5199 123.704 100.134C123.694 100.458 123.687 100.783 123.678 101.108C123.663 101.654 123.649 102.201 123.638 102.748C123.632 103.103 123.628 103.46 123.622 103.816C123.615 104.337 123.609 104.857 123.606 105.379C123.605 105.742 123.604 106.105 123.604 106.468C123.604 106.507 123.604 106.547 123.604 106.586V106.587C123.605 107.066 123.607 107.544 123.612 108.023C123.616 108.387 123.62 108.75 123.625 109.114C123.634 109.64 123.644 110.165 123.657 110.69C123.666 111.042 123.674 111.393 123.685 111.745C123.702 112.288 123.721 112.831 123.743 113.375C123.747 113.472 123.75 113.569 123.754 113.667C123.764 113.907 123.773 114.146 123.785 114.387C123.812 114.967 123.844 115.547 123.877 116.126C123.894 116.422 123.908 116.718 123.927 117.014C123.971 117.72 124.022 118.426 124.076 119.131C124.089 119.3 124.1 119.47 124.113 119.638C124.183 120.522 124.261 121.404 124.348 122.285C124.362 122.43 124.379 122.574 124.394 122.718C124.467 123.445 124.544 124.172 124.629 124.897C124.66 125.17 124.696 125.441 124.729 125.712C124.802 126.307 124.877 126.902 124.957 127.495C125 127.812 125.046 128.128 125.092 128.445C125.17 128.992 125.25 129.539 125.335 130.084C125.388 130.42 125.442 130.754 125.497 131.088C125.584 131.615 125.672 132.141 125.766 132.666C125.826 133.005 125.887 133.345 125.951 133.683C126.048 134.206 126.15 134.727 126.253 135.248C126.32 135.581 126.387 135.914 126.456 136.246C126.566 136.774 126.682 137.301 126.8 137.826C126.872 138.146 126.943 138.467 127.017 138.786C127.146 139.34 127.282 139.892 127.42 140.442C127.491 140.726 127.558 141.01 127.631 141.293C127.8 141.946 127.976 142.594 128.157 143.241C128.206 143.419 128.252 143.598 128.303 143.775C128.541 144.61 128.788 145.439 129.046 146.265C129.074 146.352 129.103 146.437 129.13 146.524C129.36 147.25 129.596 147.973 129.841 148.692C129.927 148.943 130.019 149.191 130.106 149.44C130.301 149.991 130.496 150.542 130.7 151.088C130.81 151.383 130.925 151.675 131.038 151.969C131.229 152.466 131.423 152.963 131.623 153.456C131.749 153.767 131.879 154.075 132.008 154.384C132.106 154.616 132.207 154.846 132.306 155.077C157.79 118.499 153.901 60.8764 150.48 34.9218C148.444 33.6393 146.452 32.3286 144.538 30.9782C144.293 30.8066 144.04 30.6567 143.782 30.5228Z" fill="url(#paint13_linear_3619_3255)"/>
<path d="M68.4695 24.0652C46.8978 28.4057 26.0277 28.6264 7.75458 25.4494C3.26598 24.6687 -0.653063 28.4934 0.0824641 32.9886C5.58194 66.5984 25.5873 153.364 86.6247 164.282C93.3275 165.481 100.24 164.091 105.957 160.392C158.022 126.716 142.913 38.9662 134.985 5.84485C133.924 1.41471 128.831 -0.59669 124.994 1.85884C109.373 11.8563 90.0412 19.7246 68.4695 24.0652Z" fill="url(#paint14_linear_3619_3255)"/>
<path d="M94.275 101.443C91.3838 106.66 85.2883 107.655 85.2883 107.655C85.2883 107.655 79.2825 109.095 74.5987 105.401C70.4062 102.999 64.3022 104.923 64.3022 104.923C64.3022 104.923 69.7876 107.992 74.8288 112.31C79.87 116.626 86.7669 115.007 86.7669 115.007C86.7669 115.007 93.7535 113.833 96.7324 107.902C99.7113 101.971 103.583 97.019 103.583 97.019C103.583 97.019 97.2124 97.6056 94.275 101.443Z" fill="url(#paint15_linear_3619_3255)"/>
<path d="M88.3608 122.923C75.3438 125.541 62.4627 123.94 51.1177 119.077C59.3735 132.057 75.0251 139.301 91.0087 136.085C106.992 132.868 118.625 120.135 121.218 104.972C112.637 113.845 101.378 120.303 88.3608 122.923Z" fill="#3F1111"/>
<path d="M92.5173 143.58C85.3893 145.014 78.3339 144.137 72.1206 141.473C76.6422 148.583 85.2139 152.549 93.9676 150.788C102.721 149.027 109.092 142.053 110.512 133.75C105.812 138.609 99.6453 142.146 92.5173 143.58Z" fill="url(#paint16_linear_3619_3255)"/>
<path d="M134.986 5.84485C133.925 1.41471 128.832 -0.59669 124.995 1.85884C109.372 11.8563 90.0411 19.7237 68.4694 24.0642C46.8977 28.4048 26.0276 28.6254 7.75452 25.4485C6.47961 25.2269 5.25562 25.3872 4.16553 25.8182C4.16553 25.8182 16.5988 31.0687 35.8073 30.9131C55.0159 30.7575 84.5152 26.4443 111.154 14.8258C125.855 8.39089 137.872 22.4168 143.268 68.6249C142.935 43.4227 138.324 19.7916 134.986 5.84485Z" fill="url(#paint17_linear_3619_3255)"/>
<path d="M77.325 50.6091C77.325 50.6091 87.6506 84.4631 87.0075 98.7324C86.8812 105.016 78.5452 103.912 78.6697 95.3103C78.7932 86.7084 76.6753 66.967 73.9029 58.9479C71.1305 50.9288 75.9133 45.7735 77.325 50.6091Z" fill="url(#paint18_linear_3619_3255)"/>
<path d="M143.275 73.5688C123.425 87.0016 102.585 80.53 102.585 80.53C114.586 90.6208 133.314 89.4996 142.588 88.1512C143.013 83.2891 143.228 78.4111 143.275 73.5688Z" fill="url(#paint19_linear_3619_3255)"/>
<path d="M18.6328 98.6477C42.1329 103.359 58.8482 89.3301 58.8482 89.3301C51.6834 103.278 33.9799 109.486 24.9055 111.83C22.6339 107.511 20.549 103.095 18.6328 98.6477Z" fill="url(#paint20_linear_3619_3255)"/>
<path d="M118.874 98.1158C118.874 98.1158 128.58 95.0039 128.371 104.087C130.551 98.5477 127.959 92.5786 118.874 98.1158Z" fill="url(#paint21_linear_3619_3255)"/>
<path d="M50.6281 111.847C50.6281 111.847 40.474 112.732 44.18 121.026C40.0271 116.762 40.1082 110.255 50.6281 111.847Z" fill="url(#paint22_linear_3619_3255)"/>
<path d="M94.1215 71.0539C94.1215 71.0539 93.2549 57.7588 94.4403 51.57C95.6256 45.3812 111.437 26.5913 128.57 42.6163C132.947 50.545 133.44 63.1423 133.44 63.1423C133.44 63.1423 109.574 46.7975 94.1215 71.0539Z" fill="url(#paint23_linear_3619_3255)"/>
<path d="M62.988 77.3182C62.988 77.3182 58.6456 64.7228 55.1584 59.4732C51.6713 54.2246 29.8242 43.0125 20.2228 64.4163C19.2524 73.4199 23.6703 85.2289 23.6703 85.2289C23.6703 85.2289 39.3568 60.9264 62.988 77.3182Z" fill="url(#paint24_linear_3619_3255)"/>
<path d="M112.551 60.9856C119.852 59.5164 127.077 60.4151 133.44 63.1422C128.81 55.8614 120.031 51.799 111.066 53.603C102.101 55.4069 95.5766 62.549 94.1226 71.0538C98.9346 66.0767 105.251 62.4547 112.551 60.9856Z" fill="#3F1111"/>
<path d="M94.4402 51.5699C94.4402 51.5699 106.002 29.5399 128.57 42.6163C123.791 33.8418 111.933 31.3599 104.004 35.7363C96.0762 40.1136 93.947 49.1191 94.4402 51.5699Z" fill="url(#paint25_linear_3619_3255)"/>
<path d="M42.0991 75.1614C34.7985 76.6306 28.4834 80.2535 23.6694 85.2296C25.1235 76.7249 31.648 69.5827 40.613 67.7797C49.5779 65.9758 58.3571 70.0382 62.9871 77.3189C56.6248 74.5909 49.3997 73.6922 42.0991 75.1614Z" fill="#3F1111"/>
<path d="M55.1583 59.474C55.1583 59.474 35.9752 43.63 20.2227 64.4171C21.2364 54.4771 31.2112 47.6018 40.2158 48.5721C49.2194 49.5415 54.6651 57.0231 55.1583 59.474Z" fill="url(#paint26_linear_3619_3255)"/>
<path opacity="0.44" d="M5.3667 31.7847C5.3667 31.7847 32.4171 40.5592 62.7755 33.2152C93.133 25.8703 83.6994 38.8957 59.5166 41.5983C35.3338 44.3 6.56712 37.75 5.3667 31.7847Z" fill="white"/>
<path opacity="0.44" d="M72.7417 70.4629C72.7417 70.4629 75.0803 88.2277 72.77 95.1832C68.7906 96.9107 66.6878 96.4072 63.4053 100.468C63.7372 94.8371 68.785 92.276 68.785 92.276C68.785 92.276 73.8196 77.3552 72.7417 70.4629Z" fill="white"/>
<g opacity="0.44">
<path d="M65.4667 151.051C30.6178 128.391 16.1741 75.0447 11.3989 55.9153C8.64912 44.9032 4.86963 43.5273 2.15479 44.3374C9.91836 82.9459 31.5928 154.438 86.6244 164.282C93.3271 165.481 100.239 164.091 105.956 160.392C107.914 159.126 109.766 157.773 111.538 156.36C101.246 164.233 87.8257 164.701 65.4667 151.051Z" fill="white"/>
</g>
<path d="M120.352 140.008C143.725 105.633 136.412 50.8517 133.418 31.364C131.694 20.1463 134.647 17.4145 137.464 17.1118C145.237 55.7175 152.9 130.03 105.958 160.392C100.241 164.091 93.3287 165.482 86.6259 164.282C84.3307 163.872 82.0996 163.341 79.9194 162.723C92.4555 166.002 105.012 161.243 120.352 140.008Z" fill="url(#paint27_linear_3619_3255)"/>
<path d="M78.2188 162.23C78.2772 162.249 78.3357 162.266 78.3941 162.285C78.3347 162.267 78.2763 162.248 78.2188 162.23Z" fill="#CEC9B3"/>
<defs>
<linearGradient id="paint0_linear_3619_3255" x1="-22.5038" y1="16.5613" x2="-22.5038" y2="338.711" gradientUnits="userSpaceOnUse">
<stop stop-color="#FFC411"/>
<stop offset="0.221154" stop-color="#CD9C1A"/>
<stop offset="0.543269" stop-color="#BD6229"/>
<stop offset="0.822115" stop-color="#5D2F24"/>
<stop offset="1" stop-color="#5D2F24"/>
</linearGradient>
<linearGradient id="paint1_linear_3619_3255" x1="234.389" y1="73.7231" x2="234.389" y2="110.194" gradientUnits="userSpaceOnUse">
<stop stop-color="#FFC411"/>
<stop offset="0.221154" stop-color="#CD9C1A"/>
<stop offset="0.447115" stop-color="#BD6229"/>
<stop offset="0.605769" stop-color="#5D2F24"/>
<stop offset="0.807692" stop-color="#5D2F24"/>
</linearGradient>
<linearGradient id="paint2_linear_3619_3255" x1="179.912" y1="123.946" x2="179.912" y2="142.518" gradientUnits="userSpaceOnUse">
<stop stop-color="#FFC411"/>
<stop offset="0.221154" stop-color="#CD9C1A"/>
<stop offset="0.447115" stop-color="#BD6229"/>
<stop offset="0.605769" stop-color="#5D2F24"/>
<stop offset="0.807692" stop-color="#5D2F24"/>
</linearGradient>
<linearGradient id="paint3_linear_3619_3255" x1="169.611" y1="156.822" x2="169.611" y2="174.629" gradientUnits="userSpaceOnUse">
<stop stop-color="#FFC411"/>
<stop offset="0.221154" stop-color="#CD9C1A"/>
<stop offset="0.447115" stop-color="#BD6229"/>
<stop offset="0.605769" stop-color="#5D2F24"/>
<stop offset="0.807692" stop-color="#5D2F24"/>
</linearGradient>
<linearGradient id="paint4_linear_3619_3255" x1="202.686" y1="29.8159" x2="202.686" y2="124.903" gradientUnits="userSpaceOnUse">
<stop stop-color="#FFC411"/>
<stop offset="0.221154" stop-color="#CD9C1A"/>
<stop offset="0.447115" stop-color="#BD6229"/>
<stop offset="0.605769" stop-color="#5D2F24"/>
<stop offset="0.807692" stop-color="#5D2F24"/>
</linearGradient>
<linearGradient id="paint5_linear_3619_3255" x1="185.816" y1="79.3862" x2="185.816" y2="130.361" gradientUnits="userSpaceOnUse">
<stop stop-color="#FFC411"/>
<stop offset="0.221154" stop-color="#CD9C1A"/>
<stop offset="0.447115" stop-color="#BD6229"/>
<stop offset="0.605769" stop-color="#5D2F24"/>
<stop offset="0.807692" stop-color="#5D2F24"/>
</linearGradient>
<linearGradient id="paint6_linear_3619_3255" x1="223.935" y1="118.464" x2="223.935" y2="141.707" gradientUnits="userSpaceOnUse">
<stop stop-color="#FFC411"/>
<stop offset="0.221154" stop-color="#CD9C1A"/>
<stop offset="0.447115" stop-color="#BD6229"/>
<stop offset="0.605769" stop-color="#5D2F24"/>
<stop offset="0.807692" stop-color="#5D2F24"/>
</linearGradient>
<linearGradient id="paint7_linear_3619_3255" x1="143.19" y1="99.5347" x2="143.19" y2="115.087" gradientUnits="userSpaceOnUse">
<stop stop-color="#FFC411"/>
<stop offset="0.221154" stop-color="#CD9C1A"/>
<stop offset="0.447115" stop-color="#BD6229"/>
<stop offset="0.605769" stop-color="#5D2F24"/>
<stop offset="0.807692" stop-color="#5D2F24"/>
</linearGradient>
<linearGradient id="paint8_linear_3619_3255" x1="215.931" y1="140.478" x2="215.931" y2="149.759" gradientUnits="userSpaceOnUse">
<stop stop-color="#FFC411"/>
<stop offset="0.221154" stop-color="#CD9C1A"/>
<stop offset="0.447115" stop-color="#BD6229"/>
<stop offset="0.605769" stop-color="#5D2F24"/>
<stop offset="0.807692" stop-color="#5D2F24"/>
</linearGradient>
<linearGradient id="paint9_linear_3619_3255" x1="226.742" y1="80.6104" x2="226.742" y2="98.9994" gradientUnits="userSpaceOnUse">
<stop stop-color="#FDEFC5"/>
<stop offset="0.64662" stop-color="#CD9C1A"/>
<stop offset="1" stop-color="#B1811B"/>
</linearGradient>
<linearGradient id="paint10_linear_3619_3255" x1="151.936" y1="41.4927" x2="151.936" y2="90.0599" gradientUnits="userSpaceOnUse">
<stop stop-color="#FFC411"/>
<stop offset="0.221154" stop-color="#CD9C1A"/>
<stop offset="0.447115" stop-color="#BD6229"/>
<stop offset="0.605769" stop-color="#5D2F24"/>
<stop offset="0.807692" stop-color="#5D2F24"/>
</linearGradient>
<linearGradient id="paint11_linear_3619_3255" x1="158.76" y1="63.9873" x2="158.76" y2="82.0707" gradientUnits="userSpaceOnUse">
<stop stop-color="#FDEFC5"/>
<stop offset="0.64662" stop-color="#CD9C1A"/>
<stop offset="1" stop-color="#B1811B"/>
</linearGradient>
<linearGradient id="paint12_linear_3619_3255" x1="206.145" y1="77.1816" x2="206.145" y2="189.967" gradientUnits="userSpaceOnUse">
<stop stop-color="#FFC411"/>
<stop offset="0.221154" stop-color="#CD9C1A"/>
<stop offset="0.447115" stop-color="#BD6229"/>
<stop offset="0.605769" stop-color="#5D2F24"/>
<stop offset="0.807692" stop-color="#5D2F24"/>
</linearGradient>
<linearGradient id="paint13_linear_3619_3255" x1="138.285" y1="29.8018" x2="138.285" y2="155.077" gradientUnits="userSpaceOnUse">
<stop stop-color="#FFC411"/>
<stop offset="0.221154" stop-color="#CD9C1A"/>
<stop offset="0.447115" stop-color="#BD6229"/>
<stop offset="0.605769" stop-color="#5D2F24"/>
<stop offset="0.807692" stop-color="#5D2F24"/>
</linearGradient>
<linearGradient id="paint14_linear_3619_3255" x1="-148.99" y1="-12.7389" x2="-148.99" y2="316.909" gradientUnits="userSpaceOnUse">
<stop stop-color="#FFC411"/>
<stop offset="0.221154" stop-color="#CD9C1A"/>
<stop offset="0.543269" stop-color="#BD6229"/>
<stop offset="0.822115" stop-color="#5D2F24"/>
<stop offset="1" stop-color="#5D2F24"/>
</linearGradient>
<linearGradient id="paint15_linear_3619_3255" x1="67.5169" y1="101.655" x2="71.5348" y2="119.684" gradientUnits="userSpaceOnUse">
<stop stop-color="#E1B01B"/>
<stop offset="0.5" stop-color="#CD9C1A"/>
<stop offset="1" stop-color="#D89300"/>
</linearGradient>
<linearGradient id="paint16_linear_3619_3255" x1="91.3164" y1="133.75" x2="91.3164" y2="151.204" gradientUnits="userSpaceOnUse">
<stop stop-color="#FDEFC5"/>
<stop offset="0.64662" stop-color="#CD9C1A"/>
<stop offset="1" stop-color="#B1811B"/>
</linearGradient>
<linearGradient id="paint17_linear_3619_3255" x1="73.7167" y1="0.799316" x2="73.7167" y2="68.6249" gradientUnits="userSpaceOnUse">
<stop stop-color="#FFC411"/>
<stop offset="0.221154" stop-color="#CD9C1A"/>
<stop offset="0.447115" stop-color="#BD6229"/>
<stop offset="0.605769" stop-color="#5D2F24"/>
<stop offset="0.807692" stop-color="#5D2F24"/>
</linearGradient>
<linearGradient id="paint18_linear_3619_3255" x1="80.045" y1="48.7368" x2="80.045" y2="102.733" gradientUnits="userSpaceOnUse">
<stop stop-color="#FFC411"/>
<stop offset="0.221154" stop-color="#CD9C1A"/>
<stop offset="0.447115" stop-color="#BD6229"/>
<stop offset="0.605769" stop-color="#5D2F24"/>
<stop offset="0.807692" stop-color="#5D2F24"/>
</linearGradient>
<linearGradient id="paint19_linear_3619_3255" x1="122.93" y1="73.5688" x2="122.93" y2="89.0171" gradientUnits="userSpaceOnUse">
<stop stop-color="#FFC411"/>
<stop offset="0.221154" stop-color="#CD9C1A"/>
<stop offset="0.447115" stop-color="#BD6229"/>
<stop offset="0.605769" stop-color="#5D2F24"/>
<stop offset="0.807692" stop-color="#5D2F24"/>
</linearGradient>
<linearGradient id="paint20_linear_3619_3255" x1="38.7405" y1="89.3301" x2="38.7405" y2="111.83" gradientUnits="userSpaceOnUse">
<stop stop-color="#FFC411"/>
<stop offset="0.221154" stop-color="#CD9C1A"/>
<stop offset="0.447115" stop-color="#BD6229"/>
<stop offset="0.605769" stop-color="#5D2F24"/>
<stop offset="0.807692" stop-color="#5D2F24"/>
</linearGradient>
<linearGradient id="paint21_linear_3619_3255" x1="123.986" y1="95.9087" x2="123.986" y2="104.087" gradientUnits="userSpaceOnUse">
<stop stop-color="#FFC411"/>
<stop offset="0.221154" stop-color="#CD9C1A"/>
<stop offset="0.447115" stop-color="#BD6229"/>
<stop offset="0.605769" stop-color="#5D2F24"/>
<stop offset="0.807692" stop-color="#5D2F24"/>
</linearGradient>
<linearGradient id="paint22_linear_3619_3255" x1="46.1241" y1="111.602" x2="46.1241" y2="121.026" gradientUnits="userSpaceOnUse">
<stop stop-color="#FFC411"/>
<stop offset="0.221154" stop-color="#CD9C1A"/>
<stop offset="0.447115" stop-color="#BD6229"/>
<stop offset="0.605769" stop-color="#5D2F24"/>
<stop offset="0.807692" stop-color="#5D2F24"/>
</linearGradient>
<linearGradient id="paint23_linear_3619_3255" x1="113.628" y1="36.3008" x2="113.628" y2="71.0539" gradientUnits="userSpaceOnUse">
<stop stop-color="#FFC411"/>
<stop offset="0.221154" stop-color="#CD9C1A"/>
<stop offset="0.447115" stop-color="#BD6229"/>
<stop offset="0.605769" stop-color="#5D2F24"/>
<stop offset="0.807692" stop-color="#5D2F24"/>
</linearGradient>
<linearGradient id="paint24_linear_3619_3255" x1="41.5357" y1="51.8188" x2="41.5357" y2="85.2289" gradientUnits="userSpaceOnUse">
<stop stop-color="#FFC411"/>
<stop offset="0.221154" stop-color="#CD9C1A"/>
<stop offset="0.447115" stop-color="#BD6229"/>
<stop offset="0.605769" stop-color="#5D2F24"/>
<stop offset="0.807692" stop-color="#5D2F24"/>
</linearGradient>
<linearGradient id="paint25_linear_3619_3255" x1="111.471" y1="33.623" x2="111.471" y2="51.5699" gradientUnits="userSpaceOnUse">
<stop stop-color="#FDEFC5"/>
<stop offset="0.64662" stop-color="#CD9C1A"/>
<stop offset="1" stop-color="#B1811B"/>
</linearGradient>
<linearGradient id="paint26_linear_3619_3255" x1="37.6905" y1="48.481" x2="37.6905" y2="64.4171" gradientUnits="userSpaceOnUse">
<stop stop-color="#FDEFC5"/>
<stop offset="0.64662" stop-color="#CD9C1A"/>
<stop offset="1" stop-color="#B1811B"/>
</linearGradient>
<linearGradient id="paint27_linear_3619_3255" x1="111.604" y1="17.1118" x2="111.604" y2="164.702" gradientUnits="userSpaceOnUse">
<stop stop-color="#FFC411"/>
<stop offset="0.221154" stop-color="#CD9C1A"/>
<stop offset="0.447115" stop-color="#BD6229"/>
<stop offset="0.605769" stop-color="#5D2F24"/>
<stop offset="0.807692" stop-color="#5D2F24"/>
</linearGradient>
</defs>
</svg>
