<svg width="508" height="480" viewBox="0 0 508 480" fill="none" xmlns="http://www.w3.org/2000/svg">
<g filter="url(#filter0_d_1528_5178)">
<path d="M103.686 474.521C103.686 474.521 110.157 377.835 155.497 273.692C208.562 151.766 248.406 97.6557 264.342 81.9436" stroke="url(#paint0_linear_1528_5178)" stroke-width="0.882353" stroke-miterlimit="10"/>
<path d="M207.709 166.625C208.643 165.336 209.396 163.865 209.981 162.261C226.242 117.53 251.931 81.0316 283.546 54.6265C286.898 51.8327 290.509 49.0652 294.869 49.8704C297.293 50.3172 299.658 52.1283 300.909 55.0456C303.536 61.238 299.805 67.2893 296.328 71.4942C267.786 106.014 237.756 138.403 206.364 168.462L207.709 166.625Z" fill="url(#paint1_linear_1528_5178)"/>
<g filter="url(#filter1_d_1528_5178)">
<path d="M324.645 116.49C325.517 116.232 326.33 115.799 327.078 115.222C347.911 99.1191 372.168 91.472 397.332 91.703C399.999 91.7305 402.81 91.8864 405.154 94.2339C406.457 95.5386 407.38 97.5278 407.372 99.6004C407.339 103.987 403.626 105.489 400.529 106.141C375.106 111.495 349.353 115.081 323.394 116.852L324.645 116.49Z" fill="url(#paint2_linear_1528_5178)"/>
</g>
<g filter="url(#filter2_d_1528_5178)">
<path d="M384.695 173.244C385.603 173.507 386.51 173.587 387.403 173.505C412.272 171.207 437.669 178.139 461.397 192.396C463.91 193.909 466.52 195.615 467.984 198.956C468.799 200.813 469.034 203.051 468.362 204.84C466.924 208.618 462.931 207.843 459.792 206.677C434.027 197.11 408.518 185.827 383.395 172.858L384.695 173.244Z" fill="url(#paint3_linear_1528_5178)"/>
</g>
<path d="M188.65 204.407C209.129 175.767 234.058 152.772 261.774 137.001C270.089 132.253 279.868 128.391 288.917 130.128C293.242 130.945 294.441 138.761 290.525 140.707C251.795 159.963 215.029 184.938 181.08 215.077" fill="url(#paint4_linear_1528_5178)"/>
<path d="M162.504 259.667C182.192 228.528 204.782 205.503 232.184 190.556C236.69 188.091 241.355 185.863 246.363 185.622C249.125 185.48 252.019 186.065 254.683 187.42C257.414 188.806 257.828 193.989 255.188 195.048C218.565 209.701 162.504 259.667 162.504 259.667Z" fill="url(#paint5_linear_1528_5178)"/>
<path d="M185.662 209.933C206.145 173.627 216.58 127.068 214.872 79.624C214.748 76.4452 214.063 72.3928 211.71 71.5458C210.349 71.0522 209.02 71.9585 207.921 72.9196C192.405 86.2583 187.572 113.413 186.817 138.803C186.061 164.193 188.144 190.716 182.005 214.137L185.662 209.933Z" fill="url(#paint6_linear_1528_5178)"/>
<path d="M150.642 292.974C173.482 254.32 209.809 230.722 248.438 228.913C251.514 228.771 253.196 234.162 250.765 236.4C219.688 265.106 173.028 263.978 145.946 299.657" fill="url(#paint7_linear_1528_5178)"/>
<g filter="url(#filter3_d_1528_5178)">
<path d="M297.329 207.967C318.734 198.785 343.873 202.386 365.129 217.408C366.821 218.605 366.46 221.888 364.623 221.963C341.115 222.976 316.218 203.24 293.224 209.247" fill="url(#paint8_linear_1528_5178)"/>
</g>
<path d="M136.548 320.847C159.453 285.498 195.34 276.854 231.883 273.871C234.97 273.619 236.742 279.06 234.299 281.329C204.542 309.106 157.215 294.327 132.689 330.52L136.548 320.847Z" fill="url(#paint9_linear_1528_5178)"/>
<path d="M126.556 364.597C149.157 330.417 184.704 312.144 220.823 316.092C226.464 316.701 233.287 319.358 236.633 324.901C238.195 327.511 237.091 331.081 234.708 331.253C193.525 334.46 153.867 350.484 119.809 377.755" fill="url(#paint10_linear_1528_5178)"/>
<path d="M155.494 273.671C161.066 223.61 149.907 168.711 125.736 125.544C123.805 122.102 119.868 123.817 120.268 127.914C125.316 180.451 156.268 230.438 155.029 283.174" fill="url(#paint11_linear_1528_5178)"/>
<path d="M144.089 298.711C147.878 250.748 129.09 206.092 106.896 164.434C105.024 160.919 101.008 162.555 101.379 166.689C106.05 217.171 144.651 258.957 141.491 309.262L144.089 298.711Z" fill="url(#paint12_linear_1528_5178)"/>
<path d="M134.231 318.993C131.994 271.3 112.949 223.355 83.7271 191.849C79.1633 186.938 72.8063 182.425 67.851 183.451C65.5112 183.93 64.7945 187.716 66.5193 190.136C96.4461 231.944 119.608 282.105 133.591 335.479" fill="url(#paint13_linear_1528_5178)"/>
<path d="M165.778 248.491C175.125 235.635 176.035 215.462 176.492 196.855C177.128 170.519 177.748 143.896 173.919 117.461C173.104 111.776 172.029 105.992 169.742 100.889C167.456 95.7859 163.741 91.3568 159.441 90.2424C152.702 88.4702 146.787 95.2023 144.077 103.05C138.78 118.464 142.128 137.715 147.946 154.206C153.763 170.697 161.898 185.944 166.807 202.851C171.716 219.759 171.096 237.889 163.208 251.019L165.778 248.491Z" fill="url(#paint14_linear_1528_5178)"/>
<path d="M117.335 402.998C144.131 375.935 179.805 363.24 214.971 363.233C217.357 363.22 219.788 365.109 220.766 368.105C222.564 373.724 217.418 377.339 213.29 378.556C180.225 388.34 147.17 398.094 114.105 407.878L114.555 406.979C115.31 405.444 116.248 404.086 117.335 402.998Z" fill="url(#paint15_linear_1528_5178)"/>
<path d="M126.451 346.907C115.236 301.348 91.2667 259.613 62.8119 228.595C60.8747 226.488 58.4449 226.545 56.238 227.459C45.6152 231.805 53.5683 243.573 56.456 248.205C79.4441 285.269 104.216 316.64 127.204 353.705L127.188 352.592C127.143 350.691 126.911 348.747 126.451 346.907Z" fill="url(#paint16_linear_1528_5178)"/>
<path d="M121.867 371.468C110.482 330.95 81.6673 298.008 50.0101 289.651C48.1015 289.158 46.1587 290.034 45.2143 292.114C43.4309 296.077 46.8708 300.493 49.8096 303.137C72.6233 323.566 95.4434 344.019 118.257 364.448C118.849 364.991 119.364 365.694 119.72 366.531L121.867 371.468Z" fill="url(#paint17_linear_1528_5178)"/>
<path d="M117.85 376.449C100.577 355.246 79.8618 338.998 57.9277 329.475C54.7717 328.103 50.3009 327.766 49.6873 331.862C49.3312 334.246 50.7093 336.677 52.1022 338.491C57.5757 345.593 64.8197 349.509 71.814 353.218C87.889 361.733 103.964 370.248 120.015 378.745" fill="url(#paint18_linear_1528_5178)"/>
</g>
<defs>
<filter id="filter0_d_1528_5178" x="44.7242" y="49.7285" width="429.765" height="428.324" filterUnits="userSpaceOnUse" color-interpolation-filters="sRGB">
<feFlood flood-opacity="0" result="BackgroundImageFix"/>
<feColorMatrix in="SourceAlpha" type="matrix" values="0 0 0 0 0 0 0 0 0 0 0 0 0 0 0 0 0 0 127 0" result="hardAlpha"/>
<feOffset dx="3.97059" dy="1.76471"/>
<feGaussianBlur stdDeviation="0.882353"/>
<feComposite in2="hardAlpha" operator="out"/>
<feColorMatrix type="matrix" values="0 0 0 0 0 0 0 0 0 0 0 0 0 0 0 0 0 0 0.25 0"/>
<feBlend mode="normal" in2="BackgroundImageFix" result="effect1_dropShadow_1528_5178"/>
<feBlend mode="normal" in="SourceGraphic" in2="effect1_dropShadow_1528_5178" result="shape"/>
</filter>
<filter id="filter1_d_1528_5178" x="323.394" y="91.6982" width="89.7143" height="28.6827" filterUnits="userSpaceOnUse" color-interpolation-filters="sRGB">
<feFlood flood-opacity="0" result="BackgroundImageFix"/>
<feColorMatrix in="SourceAlpha" type="matrix" values="0 0 0 0 0 0 0 0 0 0 0 0 0 0 0 0 0 0 127 0" result="hardAlpha"/>
<feOffset dx="3.97059" dy="1.76471"/>
<feGaussianBlur stdDeviation="0.882353"/>
<feComposite in2="hardAlpha" operator="out"/>
<feColorMatrix type="matrix" values="0 0 0 0 0 0 0 0 0 0 0 0 0 0 0 0 0 0 0.25 0"/>
<feBlend mode="normal" in2="BackgroundImageFix" result="effect1_dropShadow_1528_5178"/>
<feBlend mode="normal" in="SourceGraphic" in2="effect1_dropShadow_1528_5178" result="shape"/>
</filter>
<filter id="filter2_d_1528_5178" x="383.395" y="172.857" width="91.0942" height="38.3068" filterUnits="userSpaceOnUse" color-interpolation-filters="sRGB">
<feFlood flood-opacity="0" result="BackgroundImageFix"/>
<feColorMatrix in="SourceAlpha" type="matrix" values="0 0 0 0 0 0 0 0 0 0 0 0 0 0 0 0 0 0 127 0" result="hardAlpha"/>
<feOffset dx="3.97059" dy="1.76471"/>
<feGaussianBlur stdDeviation="0.882353"/>
<feComposite in2="hardAlpha" operator="out"/>
<feColorMatrix type="matrix" values="0 0 0 0 0 0 0 0 0 0 0 0 0 0 0 0 0 0 0.25 0"/>
<feBlend mode="normal" in2="BackgroundImageFix" result="effect1_dropShadow_1528_5178"/>
<feBlend mode="normal" in="SourceGraphic" in2="effect1_dropShadow_1528_5178" result="shape"/>
</filter>
<filter id="filter3_d_1528_5178" x="293.224" y="202.955" width="78.7303" height="22.5753" filterUnits="userSpaceOnUse" color-interpolation-filters="sRGB">
<feFlood flood-opacity="0" result="BackgroundImageFix"/>
<feColorMatrix in="SourceAlpha" type="matrix" values="0 0 0 0 0 0 0 0 0 0 0 0 0 0 0 0 0 0 127 0" result="hardAlpha"/>
<feOffset dx="3.97059" dy="1.76471"/>
<feGaussianBlur stdDeviation="0.882353"/>
<feComposite in2="hardAlpha" operator="out"/>
<feColorMatrix type="matrix" values="0 0 0 0 0 0 0 0 0 0 0 0 0 0 0 0 0 0 0.25 0"/>
<feBlend mode="normal" in2="BackgroundImageFix" result="effect1_dropShadow_1528_5178"/>
<feBlend mode="normal" in="SourceGraphic" in2="effect1_dropShadow_1528_5178" result="shape"/>
</filter>
<linearGradient id="paint0_linear_1528_5178" x1="230.042" y1="443.696" x2="111.485" y2="96.1628" gradientUnits="userSpaceOnUse">
<stop stop-color="#77501F"/>
<stop offset="0.35" stop-color="#E0B253"/>
<stop offset="0.55" stop-color="#D6A534"/>
<stop offset="0.66" stop-color="#E0B25A"/>
<stop offset="0.76" stop-color="#BC9141"/>
<stop offset="1" stop-color="#785521"/>
</linearGradient>
<linearGradient id="paint1_linear_1528_5178" x1="265.227" y1="153.826" x2="235.503" y2="56.6257" gradientUnits="userSpaceOnUse">
<stop stop-color="#77501F"/>
<stop offset="0.35" stop-color="#E0B253"/>
<stop offset="0.55" stop-color="#D6A534"/>
<stop offset="0.66" stop-color="#E0B25A"/>
<stop offset="0.76" stop-color="#BC9141"/>
<stop offset="1" stop-color="#785521"/>
</linearGradient>
<linearGradient id="paint2_linear_1528_5178" x1="361.499" y1="135.263" x2="385.673" y2="78.7327" gradientUnits="userSpaceOnUse">
<stop stop-color="#77501F"/>
<stop offset="0.35" stop-color="#E0B253"/>
<stop offset="0.55" stop-color="#D6A534"/>
<stop offset="0.66" stop-color="#E0B25A"/>
<stop offset="0.76" stop-color="#BC9141"/>
<stop offset="1" stop-color="#785521"/>
</linearGradient>
<linearGradient id="paint3_linear_1528_5178" x1="413.537" y1="210.079" x2="454.39" y2="174.5" gradientUnits="userSpaceOnUse">
<stop stop-color="#77501F"/>
<stop offset="0.35" stop-color="#E0B253"/>
<stop offset="0.55" stop-color="#D6A534"/>
<stop offset="0.66" stop-color="#E0B25A"/>
<stop offset="0.76" stop-color="#BC9141"/>
<stop offset="1" stop-color="#785521"/>
</linearGradient>
<linearGradient id="paint4_linear_1528_5178" x1="243.785" y1="195.617" x2="225.565" y2="142.102" gradientUnits="userSpaceOnUse">
<stop stop-color="#77501F"/>
<stop offset="0.35" stop-color="#E0B253"/>
<stop offset="0.55" stop-color="#D6A534"/>
<stop offset="0.66" stop-color="#E0B25A"/>
<stop offset="0.76" stop-color="#BC9141"/>
<stop offset="1" stop-color="#785521"/>
</linearGradient>
<linearGradient id="paint5_linear_1528_5178" x1="215.636" y1="243.26" x2="199.389" y2="195.546" gradientUnits="userSpaceOnUse">
<stop stop-color="#77501F"/>
<stop offset="0.35" stop-color="#E0B253"/>
<stop offset="0.55" stop-color="#D6A534"/>
<stop offset="0.66" stop-color="#E0B25A"/>
<stop offset="0.76" stop-color="#BC9141"/>
<stop offset="1" stop-color="#785521"/>
</linearGradient>
<linearGradient id="paint6_linear_1528_5178" x1="215.29" y1="207.606" x2="168.566" y2="70.7899" gradientUnits="userSpaceOnUse">
<stop stop-color="#77501F"/>
<stop offset="0.35" stop-color="#E0B253"/>
<stop offset="0.55" stop-color="#D6A534"/>
<stop offset="0.66" stop-color="#E0B25A"/>
<stop offset="0.76" stop-color="#BC9141"/>
<stop offset="1" stop-color="#785521"/>
</linearGradient>
<linearGradient id="paint7_linear_1528_5178" x1="204.218" y1="281.283" x2="190.14" y2="239.925" gradientUnits="userSpaceOnUse">
<stop stop-color="#77501F"/>
<stop offset="0.35" stop-color="#E0B253"/>
<stop offset="0.55" stop-color="#D6A534"/>
<stop offset="0.66" stop-color="#E0B25A"/>
<stop offset="0.76" stop-color="#BC9141"/>
<stop offset="1" stop-color="#785521"/>
</linearGradient>
<linearGradient id="paint8_linear_1528_5178" x1="328.969" y1="224.387" x2="338.115" y2="201.525" gradientUnits="userSpaceOnUse">
<stop stop-color="#77501F"/>
<stop offset="0.35" stop-color="#E0B253"/>
<stop offset="0.55" stop-color="#D6A534"/>
<stop offset="0.66" stop-color="#E0B25A"/>
<stop offset="0.76" stop-color="#BC9141"/>
<stop offset="1" stop-color="#785521"/>
</linearGradient>
<linearGradient id="paint9_linear_1528_5178" x1="187.632" y1="312.909" x2="177.186" y2="282.209" gradientUnits="userSpaceOnUse">
<stop stop-color="#77501F"/>
<stop offset="0.35" stop-color="#E0B253"/>
<stop offset="0.55" stop-color="#D6A534"/>
<stop offset="0.66" stop-color="#E0B25A"/>
<stop offset="0.76" stop-color="#BC9141"/>
<stop offset="1" stop-color="#785521"/>
</linearGradient>
<linearGradient id="paint10_linear_1528_5178" x1="181.509" y1="358.075" x2="168.823" y2="320.795" gradientUnits="userSpaceOnUse">
<stop stop-color="#77501F"/>
<stop offset="0.35" stop-color="#E0B253"/>
<stop offset="0.55" stop-color="#D6A534"/>
<stop offset="0.66" stop-color="#E0B25A"/>
<stop offset="0.76" stop-color="#BC9141"/>
<stop offset="1" stop-color="#785521"/>
</linearGradient>
<linearGradient id="paint11_linear_1528_5178" x1="165.684" y1="285.74" x2="105.858" y2="110.297" gradientUnits="userSpaceOnUse">
<stop stop-color="#77501F"/>
<stop offset="0.35" stop-color="#E0B253"/>
<stop offset="0.55" stop-color="#D6A534"/>
<stop offset="0.66" stop-color="#E0B25A"/>
<stop offset="0.76" stop-color="#BC9141"/>
<stop offset="1" stop-color="#785521"/>
</linearGradient>
<linearGradient id="paint12_linear_1528_5178" x1="147.735" y1="312.934" x2="91.7297" y2="148.713" gradientUnits="userSpaceOnUse">
<stop stop-color="#77501F"/>
<stop offset="0.35" stop-color="#E0B253"/>
<stop offset="0.55" stop-color="#D6A534"/>
<stop offset="0.66" stop-color="#E0B25A"/>
<stop offset="0.76" stop-color="#BC9141"/>
<stop offset="1" stop-color="#785521"/>
</linearGradient>
<linearGradient id="paint13_linear_1528_5178" x1="126.328" y1="344.302" x2="65.0477" y2="164.795" gradientUnits="userSpaceOnUse">
<stop stop-color="#77501F"/>
<stop offset="0.35" stop-color="#E0B253"/>
<stop offset="0.55" stop-color="#D6A534"/>
<stop offset="0.66" stop-color="#E0B25A"/>
<stop offset="0.76" stop-color="#BC9141"/>
<stop offset="1" stop-color="#785521"/>
</linearGradient>
<linearGradient id="paint14_linear_1528_5178" x1="186.291" y1="249.084" x2="128.832" y2="80.8163" gradientUnits="userSpaceOnUse">
<stop stop-color="#77501F"/>
<stop offset="0.35" stop-color="#E0B253"/>
<stop offset="0.55" stop-color="#D6A534"/>
<stop offset="0.66" stop-color="#E0B25A"/>
<stop offset="0.76" stop-color="#BC9141"/>
<stop offset="1" stop-color="#785521"/>
</linearGradient>
<linearGradient id="paint15_linear_1528_5178" x1="170.289" y1="394.028" x2="162.282" y2="370.492" gradientUnits="userSpaceOnUse">
<stop stop-color="#77501F"/>
<stop offset="0.35" stop-color="#E0B253"/>
<stop offset="0.55" stop-color="#D6A534"/>
<stop offset="0.66" stop-color="#E0B25A"/>
<stop offset="0.76" stop-color="#BC9141"/>
<stop offset="1" stop-color="#785521"/>
</linearGradient>
<linearGradient id="paint16_linear_1528_5178" x1="108.458" y1="365.578" x2="55.5892" y2="210.762" gradientUnits="userSpaceOnUse">
<stop stop-color="#77501F"/>
<stop offset="0.35" stop-color="#E0B253"/>
<stop offset="0.55" stop-color="#D6A534"/>
<stop offset="0.66" stop-color="#E0B25A"/>
<stop offset="0.76" stop-color="#BC9141"/>
<stop offset="1" stop-color="#785521"/>
</linearGradient>
<linearGradient id="paint17_linear_1528_5178" x1="97.0775" y1="383.826" x2="59.4662" y2="273.689" gradientUnits="userSpaceOnUse">
<stop stop-color="#77501F"/>
<stop offset="0.35" stop-color="#E0B253"/>
<stop offset="0.55" stop-color="#D6A534"/>
<stop offset="0.66" stop-color="#E0B25A"/>
<stop offset="0.76" stop-color="#BC9141"/>
<stop offset="1" stop-color="#785521"/>
</linearGradient>
<linearGradient id="paint18_linear_1528_5178" x1="94.3547" y1="390.162" x2="68.6773" y2="314.932" gradientUnits="userSpaceOnUse">
<stop stop-color="#77501F"/>
<stop offset="0.35" stop-color="#E0B253"/>
<stop offset="0.55" stop-color="#D6A534"/>
<stop offset="0.66" stop-color="#E0B25A"/>
<stop offset="0.76" stop-color="#BC9141"/>
<stop offset="1" stop-color="#785521"/>
</linearGradient>
</defs>
</svg>
