<svg width="1029" height="589" viewBox="0 0 1029 589" fill="none" xmlns="http://www.w3.org/2000/svg">
<g opacity="0.5">
<path fill-rule="evenodd" clip-rule="evenodd" d="M512.393 3.40014C511.078 13.9192 506.346 23.5224 495.178 38.3339C483.308 54.0762 480.134 61.159 481.185 69.5569C482.058 76.5298 484.978 81.0365 495.105 91.0356C505.627 101.425 507.409 104.296 510.46 115.779C512.032 121.696 512.269 123.938 512.321 133.405C512.39 145.638 511.36 150.693 507 159.516C501.581 170.48 495.701 176.583 483.529 183.875C472.83 190.285 467.556 195.362 464.151 202.533C458.89 213.61 460.822 224.784 469.583 233.958C472.444 236.955 474.461 238.276 477.47 239.125C478.914 239.533 478.734 239.194 476.248 236.833C472.902 233.654 470.726 229.374 470.71 225.939C470.671 217.634 476.174 211.91 485.362 210.699C489.676 210.131 490.222 210.833 488.007 214.097C485.947 217.133 485.304 220.249 485.828 224.669C486.588 231.085 489.675 235.114 501.793 245.51C506.803 249.808 510.118 254.622 511.771 260.003C512.43 262.147 513.142 263.901 513.354 263.899C513.565 263.899 514.595 261.471 515.643 258.505C517.804 252.386 520.621 248.84 528.339 242.526C536.239 236.063 541.212 227.964 541.178 221.616C541.162 218.553 539.34 213.93 537.572 212.467C535.401 210.671 536.31 210.138 540.826 210.56C555.513 211.931 561.021 225.777 550.921 235.938C548.975 237.895 547.678 239.497 548.038 239.497C549.746 239.497 553.605 237.298 556.368 234.751C569.102 223.014 568.472 205.193 554.877 192.607C552.721 190.612 547.507 186.846 543.291 184.24C531.516 176.963 525.026 170.401 520.18 160.873C515.411 151.497 512.933 138.574 514.095 129.152C515.64 116.618 518.21 107.731 522.057 101.605C522.973 100.147 527.61 95.1132 532.362 90.4194C539.331 83.5353 541.406 81.0311 543.086 77.4762C548.525 65.9694 546.032 56.5309 533.331 40.5412C529.782 36.0724 525.81 30.8085 524.506 28.8446C519.412 21.1687 515.341 11.0422 514.351 3.57775C513.727 -1.12759 512.967 -1.19674 512.393 3.40014Z" fill="url(#paint0_linear_2342_2804)"/>
<path fill-rule="evenodd" clip-rule="evenodd" d="M514.848 52.9035C516.042 58.8141 516.033 71.2157 514.832 76.6302C514.315 78.9608 513.676 80.8671 513.414 80.8671C512.606 80.8671 511.334 75.7008 510.641 69.6064C509.774 61.9698 511.513 48.3276 513.354 48.3276C513.668 48.3276 514.339 50.3864 514.848 52.9035Z" fill="url(#paint1_linear_2342_2804)"/>
<path fill-rule="evenodd" clip-rule="evenodd" d="M459.441 92.2039C450.509 93.5712 440.488 101.048 436.161 109.572C432.063 117.645 432.648 127.987 437.703 136.873C445.309 150.241 461.579 155.952 471.32 148.674C474.335 146.422 473.624 146.001 469.985 147.884C465.602 150.153 459.332 150.032 454.322 147.581C443.107 142.094 437.522 127.834 442.424 117.204C449.919 100.952 471.271 99.1599 484.329 113.685C490.307 120.337 493.146 127.835 493.128 136.936C493.1 150.781 486.645 162.74 475.103 170.328C472.739 171.883 470.909 173.261 471.038 173.389C471.504 173.855 480.28 170.214 482.78 168.518C489.833 163.733 495.702 156.028 498.726 147.584C499.995 144.039 500.226 141.961 500.239 133.913C500.253 125.816 500.022 123.678 498.665 119.355C496.318 111.882 494.296 108.348 489.393 103.15C481.466 94.7474 470.058 90.5783 459.441 92.2039Z" fill="#F2F0EF"/>
<path fill-rule="evenodd" clip-rule="evenodd" d="M554.709 92.4054C544.198 94.0304 534.254 100.858 528.769 110.217C523.76 118.764 521.642 132.916 523.828 143.234C525.974 153.367 532.173 162.638 540.536 168.222C544.331 170.756 551.891 174.114 552.479 173.526C552.623 173.383 550.778 171.996 548.379 170.445C537.343 163.308 531 150.896 531.041 136.516C531.07 126.31 533.539 119.859 539.876 113.421C551.417 101.7 566.592 100.487 576.859 110.463C583.594 117.01 585.544 126.954 581.717 135.247C576.236 147.128 563.143 153.064 553.904 147.856C550.275 145.81 549.667 146.325 552.701 148.878C555.7 151.401 559.037 152.256 564.505 151.898C578.862 150.959 590.68 137.435 590.68 121.942C590.68 115.58 589.281 111.034 585.707 105.789C578.926 95.837 566.689 90.5541 554.709 92.4054Z" fill="#F2F0EF"/>
<path fill-rule="evenodd" clip-rule="evenodd" d="M459.506 117.736C457.006 118.825 455.899 120.108 455.122 122.819C453.648 127.958 457.315 132.381 463.054 132.385C471.252 132.393 473.487 120.91 465.88 117.866C462.697 116.592 462.155 116.581 459.506 117.736Z" fill="#F8C900"/>
<path fill-rule="evenodd" clip-rule="evenodd" d="M560.852 117.983C554.341 121.236 555.149 130.832 562.043 132.126C571.357 133.873 576.095 123.548 568.369 118.341C565.617 116.487 564.001 116.41 560.852 117.983Z" fill="#F8C900"/>
<path fill-rule="evenodd" clip-rule="evenodd" d="M427.983 172.298C416.613 176.051 409.448 188.433 410.553 202.416C411.372 212.775 416.11 222.171 424.767 230.605C434.277 239.87 444.96 245.837 467.294 254.357C485.045 261.128 495.691 270.763 502.899 286.58C505.969 293.317 509.653 304.982 511.369 313.405C512.162 317.298 512.936 320.608 513.09 320.761C513.489 321.161 513.804 319.998 515.45 312.032C520.61 287.064 530.51 270.193 545.421 260.96C548.129 259.282 555.475 255.906 561.745 253.456C568.015 251.006 575.947 247.654 579.371 246.006C601.301 235.454 614.126 220.269 616.12 202.492C617.376 191.302 611.119 178.412 602.112 173.631C599.672 172.336 598.145 172.066 593.392 172.086C586.555 172.117 582.878 173.511 578.151 177.868C571.514 183.986 571.746 194.08 578.677 200.739C581.462 203.416 585.029 204.374 589.264 203.582C594.133 202.673 597.487 197.987 595.506 194.862C595.068 194.17 594.572 194.454 593.437 196.048C589.67 201.337 583.783 195.076 587.265 189.484C589.975 185.131 595.094 185.132 599.314 189.485C607.084 197.502 603.849 213.3 592.269 223.884C585.611 229.969 577.812 233.731 559.836 239.528C548.65 243.135 543.731 245.364 536.848 249.944C526.22 257.016 518.446 267.518 513.719 281.188C513.342 282.278 513.005 281.841 511.999 278.953C509.551 271.923 505.037 264.483 499.895 258.999C490.72 249.217 483.388 245.043 463.691 238.387C444.945 232.053 438.602 228.572 431.158 220.532C425.077 213.963 421.967 205.669 422.831 198.321C423.866 189.512 429.646 184.352 435.664 186.867C440.102 188.721 441.43 194.688 437.947 197.127C435.848 198.596 434.272 198.382 433.009 196.456C431.647 194.377 430.695 194.837 430.695 197.573C430.695 200.45 433.941 203.361 437.795 203.939C443.533 204.8 448.704 201.72 451.461 195.799C455.514 187.095 451.713 178.492 441.808 173.959C438.021 172.225 430.824 171.36 427.983 172.298Z" fill="#9A5124"/>
<path fill-rule="evenodd" clip-rule="evenodd" d="M514.077 180.12C514.077 184.098 516.494 190.435 520.758 197.642C523.017 201.461 525.336 205.92 525.912 207.552C529.513 217.767 523.307 227.273 513.024 227.291C510.029 227.297 504.488 224.287 502.758 221.714C498.921 216.006 499.471 209.933 504.706 200.224C506.629 196.657 508.762 192.609 509.445 191.229C510.872 188.347 512.721 181.648 512.721 179.361C512.721 178.506 513.026 177.808 513.399 177.808C513.772 177.808 514.077 178.849 514.077 180.12Z" fill="url(#paint2_linear_2342_2804)"/>
<path fill-rule="evenodd" clip-rule="evenodd" d="M437.243 257.786C424.541 260.098 414.436 265.399 405.389 274.498C389.397 290.58 382.577 314.657 387.651 337.115C389.05 343.312 393.687 353.396 397.766 359.111C401.677 364.593 409.681 372.022 415.173 375.269C422.404 379.544 427.623 380.84 437.61 380.84C442.447 380.84 446.517 380.543 446.897 380.162C447.348 379.71 445.72 379.46 442.012 379.411C432.129 379.281 423.813 375.876 416.083 368.793C406.225 359.76 400.347 348.159 398.745 334.579C395.882 310.3 412.639 284.665 436.796 276.367C442.588 274.378 457.18 274.535 463.507 276.654C487.172 284.583 504.181 303.551 511.038 329.658C511.965 333.191 512.895 335.42 513.441 335.42C513.984 335.42 515.078 332.816 516.258 328.714C520.467 314.073 526.604 303.376 536.36 293.674C542.704 287.365 548.018 283.489 555.223 279.917C563.916 275.608 566.304 275.084 577.122 275.112C586.027 275.136 587.382 275.303 591.522 276.891C608.215 283.291 621.995 299.072 626.594 317.056C628.448 324.307 628.458 334.94 626.616 342.26C623.513 354.595 615.622 366.347 606.093 372.828C599.143 377.555 593.088 379.434 584.704 379.462C578.636 379.483 578.477 379.522 580.636 380.447C583.772 381.791 594.01 381.697 599.493 380.275C622.13 374.401 639.175 351.726 640.636 325.54C641.738 305.786 634.491 287.202 620.413 273.687C612.374 265.97 606.499 262.486 596.312 259.395C591.101 257.814 589.135 257.578 580.851 257.549C570.225 257.509 566.009 258.357 557.672 262.205C550.446 265.539 545.649 268.944 538.577 275.755C524.452 289.359 516.997 305.232 514.752 326.488C514.286 330.895 513.675 334.251 513.394 333.944C513.113 333.637 512.523 330.336 512.082 326.607C510.294 311.483 505.278 297.481 497.744 286.583C493.553 280.52 485.591 272.384 479.818 268.264C474.761 264.656 465.842 260.378 460.184 258.846C455.406 257.553 441.943 256.931 437.243 257.786Z" fill="#713513"/>
<path fill-rule="evenodd" clip-rule="evenodd" d="M449.594 290.093C440.003 291.306 431.675 295.128 424.85 301.447C418.983 306.879 415.614 311.962 413.157 319.09C408.807 331.71 411.44 344.398 419.718 350.712C423.515 353.608 426.416 354.523 431.777 354.516C435.976 354.511 437.225 354.217 440.135 352.547C448.343 347.839 450.835 337.369 445.436 330.281C441.516 325.135 433.403 323.569 428.267 326.968L425.563 328.758L426.268 326.903C428.475 321.099 434.225 315.562 440.938 312.776C445.115 311.043 446.286 310.869 454 310.846C461.715 310.822 462.857 310.983 466.75 312.642C482.502 319.351 493.098 335.283 496.406 357.231C499.236 376 496.037 395.567 487.408 412.272C481.121 424.442 474.427 431.77 463.67 438.257C459.197 440.954 459.22 441.006 464.214 439.524C486.331 432.955 506.094 408.112 511.61 379.944C512.879 373.462 512.889 373.467 514.33 381.515C517.747 400.585 531.502 422.375 546.359 432.252C551.238 435.495 559.799 439.414 563.835 440.252C565.837 440.668 565.475 440.307 561.448 437.87C554.655 433.76 550.212 429.791 545.71 423.812C522.355 392.799 523.17 342.808 547.391 320.613C557.038 311.773 568.81 308.654 580.829 311.754C587.105 313.373 591.367 315.743 594.908 319.585C597.43 322.321 600.146 327.235 599.496 327.886C599.347 328.035 598.198 327.532 596.945 326.768C591.527 323.464 583.201 325.865 579.77 331.72C577.788 335.102 577.413 341.501 578.976 345.243C582.403 353.444 594.355 357.279 602.936 352.931C615.691 346.467 619.058 329.589 610.786 313.572C607.447 307.104 598.447 298.1 592.293 295.07C578.155 288.107 560.944 288.114 547.12 295.084C537.678 299.845 531.379 305.631 525.215 315.204C519.739 323.706 516.491 331.767 514.348 342.174C513.324 347.144 513.061 347.76 512.69 346.049C506.756 318.69 494.601 301.205 476.369 293.796C468.698 290.679 457.357 289.111 449.594 290.093Z" fill="url(#paint3_linear_2342_2804)"/>
<path fill-rule="evenodd" clip-rule="evenodd" d="M463.573 332.131C472.152 336.611 476.558 343.835 477.802 355.459C479.102 367.602 472.269 385.266 462.03 396.228C452.555 406.373 437.929 413.798 425.304 414.872L420.187 415.308L422.899 416.511C430.865 420.047 453.217 421.419 462.556 418.946C470.505 416.841 477.491 412.9 482.203 407.861C490.535 398.954 494.167 388.172 493.561 374.14C492.763 355.667 484.295 341.121 470.13 333.894C467.025 332.31 463.822 331.026 463.012 331.041C461.727 331.065 461.798 331.204 463.573 332.131Z" fill="#F2F0EF"/>
<path fill-rule="evenodd" clip-rule="evenodd" d="M559.48 332.587C550.805 336.156 543.657 343.228 538.87 352.975C534.466 361.945 533.497 366.262 533.457 377.111C533.426 385.631 533.565 386.663 535.485 392.055C539.738 404.006 547.974 412.833 558.882 417.133C563.186 418.83 573.716 420.489 580.173 420.489C585.098 420.489 595.943 419.03 600.31 417.78C603.472 416.875 603.102 415.28 599.597 414.705C587.613 412.744 574.333 405.629 565.861 396.63C551.394 381.264 545.789 358.35 552.785 343.171C554.963 338.448 557.209 335.88 561.857 332.802C565.154 330.619 564.424 330.552 559.48 332.587Z" fill="#F2F0EF"/>
<path fill-rule="evenodd" clip-rule="evenodd" d="M512.431 424.176C511.845 425.136 510.858 426.75 510.237 427.762C509.616 428.775 507.735 431.29 506.056 433.351C501.298 439.193 499.597 443.493 500.009 448.634C500.454 454.172 502.772 458.4 508.941 464.925L513.738 470L518.482 464.548C524.569 457.552 526.39 453.968 526.808 448.16C527.184 442.929 526.264 440.643 521.061 433.881C519.363 431.675 516.967 428.197 515.735 426.151L513.496 422.432L512.431 424.176Z" fill="#F9DB50"/>
</g>
<g opacity="0.5">
<path fill-rule="evenodd" clip-rule="evenodd" d="M914.328 118.429C908.064 126.982 899.26 133.073 882.298 140.585C864.271 148.569 858.054 153.214 854.889 161.064C852.261 167.581 852.622 172.939 856.608 186.601C860.751 200.796 860.912 204.171 857.995 215.689C856.491 221.623 855.608 223.697 851.051 231.995C845.162 242.719 841.805 246.635 833.704 252.224C823.638 259.17 815.532 261.644 801.35 262.097C788.885 262.496 781.807 264.368 775.345 268.978C765.362 276.099 761.617 286.803 764.811 299.08C765.854 303.09 766.974 305.225 769.191 307.43C770.255 308.488 770.262 308.104 769.238 304.832C767.859 300.428 768.039 295.629 769.696 292.62C773.7 285.344 781.292 283.019 789.909 286.428C793.955 288.029 794.091 288.908 790.568 290.683C787.292 292.334 785.215 294.745 783.524 298.862C781.068 304.837 781.806 309.859 787.34 324.836C789.628 331.028 790.183 336.846 789.012 342.352C788.545 344.546 788.315 346.425 788.5 346.526C788.685 346.629 790.766 345.008 793.124 342.925C797.987 338.629 802.173 336.901 811.987 335.137C822.034 333.33 830.317 328.672 833.374 323.108C834.849 320.423 835.505 315.498 834.671 313.36C833.648 310.735 834.702 310.711 838.442 313.275C850.61 321.615 848.69 336.392 834.923 340.36C832.271 341.124 830.359 341.893 830.674 342.068C832.166 342.898 836.608 342.853 840.26 341.972C857.095 337.907 865.209 322.029 859.45 304.421C858.536 301.628 855.811 295.803 853.394 291.475C846.643 279.391 844.163 270.501 844.562 259.819C844.954 249.307 849.071 236.81 854.669 229.141C862.113 218.941 868.68 212.424 875.021 208.942C876.53 208.113 883.029 205.969 889.465 204.179C898.902 201.552 901.932 200.372 905.129 198.083C915.477 190.673 917.888 181.213 914.564 161.065C913.636 155.434 912.725 148.904 912.54 146.553C911.821 137.369 913.188 126.541 915.953 119.537C917.695 115.122 917.065 114.692 914.328 118.429Z" fill="url(#paint4_linear_2342_2804)"/>
<path fill-rule="evenodd" clip-rule="evenodd" d="M892.402 162.88C890.571 168.626 884.533 179.458 880.851 183.605C879.266 185.391 877.781 186.746 877.552 186.618C876.846 186.225 878.246 181.092 880.605 175.43C883.56 168.335 891.713 157.26 893.322 158.156C893.596 158.308 893.182 160.433 892.402 162.88Z" fill="url(#paint5_linear_2342_2804)"/>
<path fill-rule="evenodd" clip-rule="evenodd" d="M824.877 170.28C816.407 167.132 804.014 168.792 796.089 174.137C788.583 179.199 784.064 188.52 784.162 198.743C784.307 214.122 795.747 227.024 807.798 225.401C811.528 224.899 811.111 224.185 807.016 224.062C802.082 223.913 796.663 220.758 793.476 216.18C786.345 205.932 788.399 190.756 797.851 183.851C812.302 173.295 831.832 182.111 836.179 201.153C838.169 209.872 837.003 217.804 832.562 225.748C825.806 237.833 814.35 245.144 800.575 246.163C797.753 246.372 795.484 246.686 795.534 246.86C795.714 247.494 805.154 248.58 808.163 248.313C816.653 247.562 825.528 243.682 832.276 237.774C835.109 235.294 836.321 233.591 840.246 226.564C844.195 219.496 845.033 217.515 845.949 213.077C847.532 205.407 847.484 201.336 845.727 194.409C842.886 183.212 834.944 174.022 824.877 170.28Z" fill="#F2F0EF"/>
<path fill-rule="evenodd" clip-rule="evenodd" d="M908.026 216.781C898.051 213.089 886.042 214.221 876.699 219.731C868.165 224.765 859.433 236.1 856.326 246.179C853.274 256.078 854.183 267.193 858.775 276.139C860.859 280.199 865.833 286.809 866.633 286.581C866.828 286.525 865.89 284.417 864.548 281.895C858.375 270.292 858.868 256.362 865.896 243.817C870.884 234.913 876.178 230.475 884.846 227.932C900.63 223.302 914.48 229.62 918.6 243.33C921.303 252.326 918.171 261.963 910.795 267.349C900.228 275.065 885.901 273.886 880.36 264.843C878.183 261.29 877.402 261.445 878.812 265.15C880.205 268.814 882.706 271.183 887.657 273.53C900.659 279.69 917.563 273.619 925.096 260.081C928.19 254.522 929.177 249.869 928.605 243.547C927.518 231.554 919.394 220.988 908.026 216.781Z" fill="#F2F0EF"/>
<path fill-rule="evenodd" clip-rule="evenodd" d="M812.518 192.622C809.804 192.359 808.214 192.941 806.216 194.932C802.429 198.706 803.483 204.354 808.495 207.149C815.656 211.142 823.193 202.194 818.025 195.836C815.863 193.175 815.395 192.902 812.518 192.622Z" fill="#F8C900"/>
<path fill-rule="evenodd" clip-rule="evenodd" d="M900.957 242.118C893.685 241.794 889.725 250.572 895.12 255.055C902.41 261.111 911.57 254.393 907.351 246.086C905.848 243.127 904.473 242.274 900.957 242.118Z" fill="#F8C900"/>
<path fill-rule="evenodd" clip-rule="evenodd" d="M758.443 224.972C746.682 222.723 734.4 230.058 728.567 242.814C724.246 252.264 723.817 262.779 727.28 274.358C731.085 287.078 737.519 297.486 752.893 315.791C765.111 330.34 769.728 343.936 768.336 361.262C767.743 368.642 765.29 380.625 762.694 388.82C761.494 392.607 760.561 395.877 760.62 396.085C760.775 396.629 761.616 395.766 766.927 389.605C783.577 370.297 800.431 360.368 817.95 359.55C821.132 359.401 829.194 360.023 835.864 360.931C842.534 361.839 851.095 362.766 854.888 362.992C879.182 364.434 897.772 357.401 908.159 342.837C914.697 333.67 915.498 319.364 909.952 310.806C908.449 308.489 907.246 307.51 903.083 305.216C897.094 301.918 893.203 301.349 886.954 302.858C878.179 304.977 873.474 313.909 876.292 323.099C877.424 326.792 880.076 329.363 884.161 330.731C888.858 332.304 894.068 329.84 893.856 326.146C893.81 325.328 893.238 325.336 891.471 326.177C885.608 328.967 883.508 320.633 889.27 317.44C893.755 314.954 898.227 317.444 899.798 323.3C902.689 334.083 892.18 346.315 876.916 349.932C868.139 352.012 859.494 351.507 840.968 347.832C829.439 345.545 824.058 345.1 815.816 345.755C803.09 346.767 791.19 352.164 780.413 361.81C779.553 362.58 779.472 362.035 779.997 359.021C781.276 351.688 780.949 342.993 779.122 335.7C775.862 322.691 771.484 315.478 757.509 300.085C744.208 285.435 740.358 279.308 737.763 268.663C735.644 259.967 736.959 251.207 741.286 245.206C746.474 238.011 754.034 236.314 758.07 241.437C761.047 245.216 759.305 251.074 755.076 251.513C752.528 251.776 751.254 250.822 751.088 248.525C750.908 246.047 749.853 245.985 748.522 248.376C747.123 250.891 748.544 255.012 751.631 257.391C756.226 260.934 762.243 260.756 767.531 256.924C775.305 251.289 776.166 241.923 769.716 233.145C767.25 229.788 761.381 225.533 758.443 224.972Z" fill="#9A5124"/>
<path fill-rule="evenodd" clip-rule="evenodd" d="M829.87 273.67C827.936 277.146 826.966 283.859 827.188 292.23C827.305 296.665 827.163 301.689 826.873 303.395C825.052 314.072 815.007 319.361 806.013 314.377C803.393 312.925 800.015 307.601 799.754 304.512C799.176 297.658 802.611 292.619 811.906 286.68C815.32 284.499 819.152 281.999 820.421 281.125C823.069 279.301 827.942 274.346 829.055 272.347C829.47 271.6 830.076 271.139 830.402 271.32C830.728 271.501 830.488 272.559 829.87 273.67Z" fill="url(#paint6_linear_2342_2804)"/>
<path fill-rule="evenodd" clip-rule="evenodd" d="M724.966 304.176C712.742 300.019 701.335 299.738 689.005 303.289C667.211 309.567 649.544 327.29 643.057 349.381C641.267 355.477 640.415 366.543 641.2 373.52C641.953 380.212 645.335 390.595 648.554 396.103C652.794 403.355 656.724 407.025 665.452 411.881C669.678 414.233 673.379 415.953 673.897 415.805C674.511 415.629 673.209 414.619 669.993 412.773C661.42 407.854 655.809 400.835 652.499 390.887C648.277 378.2 648.781 365.205 653.985 352.559C663.288 329.952 690.396 315.699 715.54 320.195C721.568 321.273 734.243 328.505 738.741 333.434C755.565 351.869 761.205 376.714 754.502 402.862C753.594 406.4 753.322 408.8 753.799 409.065C754.274 409.329 756.497 407.585 759.522 404.575C770.319 393.828 780.883 387.465 794.126 383.731C802.737 381.302 809.265 380.5 817.298 380.882C826.989 381.343 829.33 382.046 838.77 387.332C846.54 391.682 847.642 392.487 850.489 395.888C861.963 409.597 866.331 430.087 861.604 448.038C859.699 455.277 854.537 464.573 849.368 470.073C840.659 479.342 828.05 485.775 816.572 486.805C808.199 487.556 801.995 486.254 794.655 482.202C789.343 479.269 789.185 479.226 790.622 481.085C792.709 483.783 801.7 488.68 807.183 490.102C829.82 495.977 855.74 484.451 869.749 462.28C880.318 445.554 883.021 425.791 877.291 407.136C874.02 396.484 870.58 390.583 863.181 382.928C859.396 379.013 857.793 377.851 850.568 373.797C841.303 368.596 837.207 367.287 828.05 366.595C820.115 365.995 814.268 366.638 804.776 369.151C785.818 374.17 771.585 384.415 759.288 401.897C756.738 405.522 754.573 408.157 754.476 407.753C754.38 407.348 755.469 404.176 756.897 400.704C762.689 386.618 765.115 371.943 763.83 358.758C763.116 351.422 760.115 340.441 757.073 334.034C754.409 328.422 748.696 320.347 744.496 316.257C740.95 312.804 729.488 305.714 724.966 304.176Z" fill="#713513"/>
<path fill-rule="evenodd" clip-rule="evenodd" d="M720.049 338.412C711.078 334.809 701.943 334.098 692.906 336.302C685.139 338.195 679.723 340.999 674.11 346.033C664.173 354.945 660.303 367.312 664.467 376.855C666.377 381.232 668.467 383.442 673.154 386.043C676.826 388.08 678.06 388.43 681.416 388.386C690.877 388.263 698.146 380.327 696.874 371.507C695.951 365.104 689.623 359.791 683.483 360.264L680.25 360.513L681.768 359.235C686.518 355.236 694.235 353.194 701.456 354.024C705.948 354.54 707.056 354.958 713.808 358.688C720.561 362.419 721.48 363.115 724.076 366.457C734.578 379.98 736.09 399.053 728.309 419.841C721.655 437.617 709.345 453.16 693.682 463.561C682.271 471.139 672.858 474.287 660.305 474.725C655.084 474.907 655.079 474.963 660.164 476.096C682.684 481.111 712.034 469.013 730.55 447.081C734.811 442.034 734.817 442.043 732.163 449.776C725.876 468.101 727.3 493.83 735.48 509.685C738.166 514.891 743.741 522.479 746.861 525.174C748.408 526.51 748.267 526.019 745.933 521.931C741.996 515.037 740.043 509.408 739.016 501.995C733.689 463.538 758.709 420.251 790.666 412.634C803.394 409.601 815.197 412.599 824.192 421.153C828.889 425.619 831.461 429.762 832.687 434.841C833.561 438.458 833.544 444.073 832.66 444.325C832.457 444.384 831.698 443.385 830.974 442.108C827.846 436.587 819.404 434.637 813.558 438.084C810.182 440.076 806.742 445.485 806.289 449.515C805.296 458.347 813.876 467.51 823.487 467.883C837.777 468.437 848.925 455.326 849.486 437.307C849.713 430.032 846.226 417.788 842.322 412.147C833.354 399.189 818.312 390.826 802.842 390.195C792.277 389.765 783.96 391.757 773.918 397.125C764.999 401.891 758.241 407.356 751.308 415.408C747.997 419.253 747.468 419.663 747.975 417.987C756.093 391.196 753.974 370.006 741.645 354.667C736.458 348.214 727.31 341.328 720.049 338.412Z" fill="url(#paint7_linear_2342_2804)"/>
<path fill-rule="evenodd" clip-rule="evenodd" d="M711.824 381.942C717.141 390.029 717.479 398.484 712.914 409.246C708.145 420.489 693.585 432.601 679.308 437.202C666.096 441.459 649.705 440.836 638.15 435.636L633.467 433.528L635.252 435.898C640.493 442.862 659.358 454.929 668.721 457.309C676.69 459.335 684.711 459.287 691.279 457.176C702.891 453.445 711.307 445.789 717.601 433.233C725.886 416.703 725.559 399.874 716.695 386.672C714.753 383.778 712.578 381.098 711.863 380.718C710.729 380.114 710.724 380.27 711.824 381.942Z" fill="#F2F0EF"/>
<path fill-rule="evenodd" clip-rule="evenodd" d="M795.408 428.975C786.092 427.876 776.406 430.58 767.484 436.77C759.274 442.466 756.328 445.767 751.018 455.228C746.848 462.658 746.468 463.627 745.523 469.272C743.429 481.783 746.333 493.501 753.775 502.563C756.711 506.138 765.104 512.708 770.747 515.848C775.051 518.243 785.236 522.242 789.66 523.272C792.864 524.019 793.316 522.445 790.532 520.239C781.014 512.698 772.87 500.023 769.842 488.041C764.672 467.579 770.917 444.831 784.411 434.969C788.61 431.9 791.821 430.748 797.38 430.319C801.322 430.014 800.717 429.602 795.408 428.975Z" fill="#F2F0EF"/>
<path fill-rule="evenodd" clip-rule="evenodd" d="M709.759 486.13C708.781 486.684 707.134 487.614 706.099 488.197C705.063 488.78 702.197 490.063 699.728 491.048C692.73 493.839 689.153 496.769 687.013 501.462C684.708 506.518 684.678 511.339 686.896 520.041L688.62 526.808L695.416 524.351C704.137 521.197 707.471 518.951 710.66 514.079C713.533 509.69 713.84 507.245 712.582 498.807C712.171 496.054 711.768 491.85 711.687 489.463L711.538 485.124L709.759 486.13Z" fill="#F9DB50"/>
</g>
<g opacity="0.5">
<path fill-rule="evenodd" clip-rule="evenodd" d="M113.811 115.429C120.074 123.982 128.878 130.073 145.84 137.585C163.867 145.569 170.084 150.214 173.249 158.064C175.877 164.581 175.516 169.939 171.53 183.601C167.387 197.796 167.226 201.171 170.144 212.689C171.647 218.623 172.53 220.697 177.087 228.995C182.976 239.719 186.333 243.635 194.434 249.224C204.501 256.17 212.606 258.644 226.788 259.097C239.254 259.496 246.331 261.368 252.793 265.978C262.776 273.099 266.521 283.803 263.327 296.08C262.284 300.09 261.164 302.225 258.947 304.43C257.884 305.488 257.876 305.104 258.901 301.832C260.279 297.428 260.099 292.629 258.442 289.62C254.438 282.344 246.847 280.019 238.229 283.428C234.183 285.029 234.047 285.908 237.57 287.683C240.846 289.334 242.923 291.745 244.615 295.862C247.07 301.837 246.332 306.859 240.798 321.836C238.51 328.028 237.955 333.846 239.127 339.352C239.593 341.546 239.823 343.425 239.638 343.526C239.453 343.629 237.372 342.008 235.014 339.925C230.151 335.629 225.965 333.901 216.151 332.137C206.105 330.33 197.821 325.672 194.764 320.108C193.289 317.423 192.633 312.498 193.467 310.36C194.49 307.735 193.437 307.711 189.696 310.275C177.528 318.615 179.448 333.392 193.215 337.36C195.867 338.124 197.779 338.893 197.464 339.068C195.972 339.898 191.53 339.853 187.878 338.972C171.043 334.907 162.929 319.029 168.689 301.421C169.602 298.628 172.327 292.803 174.744 288.475C181.495 276.391 183.975 267.501 183.576 256.819C183.184 246.307 179.067 233.81 173.47 226.141C166.025 215.941 159.458 209.424 153.118 205.942C151.608 205.113 145.109 202.969 138.674 201.179C129.237 198.552 126.206 197.372 123.009 195.083C112.662 187.673 110.25 178.213 113.574 158.065C114.503 152.434 115.413 145.904 115.598 143.553C116.317 134.369 114.95 123.541 112.186 116.537C110.443 112.122 111.074 111.692 113.811 115.429Z" fill="url(#paint8_linear_2342_2804)"/>
<path fill-rule="evenodd" clip-rule="evenodd" d="M135.736 159.88C137.567 165.626 143.605 176.458 147.287 180.605C148.872 182.391 150.357 183.746 150.586 183.618C151.292 183.225 149.892 178.092 147.534 172.43C144.578 165.335 136.425 154.26 134.816 155.156C134.542 155.308 134.957 157.433 135.736 159.88Z" fill="url(#paint9_linear_2342_2804)"/>
<path fill-rule="evenodd" clip-rule="evenodd" d="M203.261 167.28C211.731 164.132 224.124 165.792 232.049 171.137C239.555 176.199 244.074 185.52 243.977 195.743C243.831 211.122 232.391 224.024 220.34 222.401C216.611 221.899 217.027 221.185 221.122 221.062C226.056 220.913 231.476 217.758 234.662 213.18C241.793 202.932 239.74 187.756 230.287 180.851C215.836 170.295 196.306 179.111 191.959 198.153C189.969 206.872 191.135 214.804 195.577 222.748C202.332 234.833 213.788 242.144 227.563 243.163C230.386 243.372 232.654 243.686 232.604 243.86C232.424 244.494 222.985 245.58 219.975 245.313C211.485 244.562 202.611 240.682 195.862 234.774C193.029 232.294 191.817 230.591 187.892 223.564C183.943 216.496 183.105 214.515 182.189 210.077C180.606 202.407 180.654 198.336 182.411 191.409C185.252 180.212 193.194 171.022 203.261 167.28Z" fill="#F2F0EF"/>
<path fill-rule="evenodd" clip-rule="evenodd" d="M120.112 213.781C130.087 210.089 142.096 211.221 151.44 216.731C159.973 221.765 168.705 233.1 171.813 243.179C174.864 253.078 173.955 264.193 169.363 273.139C167.279 277.199 162.305 283.809 161.506 283.581C161.31 283.525 162.248 281.417 163.59 278.895C169.763 267.292 169.27 253.362 162.243 240.817C157.254 231.913 151.961 227.475 143.292 224.932C127.509 220.302 113.658 226.62 109.538 240.33C106.836 249.326 109.967 258.963 117.344 264.349C127.911 272.065 142.237 270.886 147.778 261.843C149.955 258.29 150.736 258.445 149.327 262.15C147.933 265.814 145.432 268.183 140.481 270.53C127.479 276.69 110.575 270.619 103.042 257.081C99.9484 251.522 98.9612 246.869 99.5335 240.547C100.62 228.554 108.744 217.988 120.112 213.781Z" fill="#F2F0EF"/>
<path fill-rule="evenodd" clip-rule="evenodd" d="M215.62 189.622C218.334 189.359 219.925 189.941 221.922 191.932C225.709 195.706 224.655 201.354 219.643 204.149C212.482 208.142 204.946 199.194 210.113 192.836C212.276 190.175 212.744 189.902 215.62 189.622Z" fill="#F8C900"/>
<path fill-rule="evenodd" clip-rule="evenodd" d="M127.181 239.118C134.453 238.794 138.413 247.572 133.018 252.055C125.729 258.111 116.568 251.393 120.787 243.086C122.29 240.127 123.665 239.274 127.181 239.118Z" fill="#F8C900"/>
<path fill-rule="evenodd" clip-rule="evenodd" d="M269.695 221.972C281.456 219.723 293.738 227.058 299.572 239.814C303.893 249.264 304.322 259.779 300.858 271.358C297.053 284.078 290.619 294.486 275.246 312.791C263.027 327.34 258.41 340.936 259.802 358.262C260.395 365.642 262.849 377.625 265.444 385.82C266.644 389.607 267.577 392.877 267.518 393.085C267.363 393.629 266.523 392.766 261.211 386.605C244.561 367.297 227.707 357.368 210.188 356.55C207.006 356.401 198.944 357.023 192.274 357.931C185.604 358.839 177.043 359.766 173.25 359.992C148.956 361.434 130.366 354.401 119.98 339.837C113.441 330.67 112.641 316.364 118.187 307.806C119.689 305.489 120.892 304.51 125.055 302.216C131.044 298.918 134.935 298.349 141.184 299.858C149.959 301.977 154.664 310.909 151.846 320.099C150.714 323.792 148.062 326.363 143.977 327.731C139.28 329.304 134.071 326.84 134.282 323.146C134.329 322.328 134.901 322.336 136.667 323.177C142.53 325.967 144.63 317.633 138.868 314.44C134.384 311.954 129.911 314.444 128.34 320.3C125.449 331.083 135.958 343.315 151.222 346.932C160 349.012 168.644 348.507 187.171 344.832C198.699 342.545 204.08 342.1 212.322 342.755C225.048 343.767 236.948 349.164 247.726 358.81C248.585 359.58 248.667 359.035 248.141 356.021C246.862 348.688 247.189 339.993 249.016 332.7C252.277 319.691 256.654 312.478 270.629 297.085C283.93 282.435 287.78 276.308 290.375 265.663C292.495 256.967 291.179 248.207 286.852 242.206C281.664 235.011 274.104 233.314 270.068 238.437C267.092 242.216 268.833 248.074 273.062 248.513C275.61 248.776 276.884 247.822 277.05 245.525C277.23 243.047 278.285 242.985 279.616 245.376C281.015 247.891 279.594 252.012 276.508 254.391C271.912 257.934 265.895 257.756 260.608 253.924C252.833 248.289 251.972 238.923 258.422 230.145C260.889 226.788 266.758 222.533 269.695 221.972Z" fill="#9A5124"/>
<path fill-rule="evenodd" clip-rule="evenodd" d="M198.268 270.67C200.202 274.146 201.172 280.859 200.951 289.23C200.833 293.665 200.975 298.689 201.265 300.395C203.086 311.072 213.131 316.361 222.126 311.377C224.745 309.925 228.123 304.601 228.384 301.512C228.962 294.658 225.528 289.619 216.232 283.68C212.818 281.499 208.986 278.999 207.718 278.125C205.069 276.301 200.196 271.346 199.084 269.347C198.668 268.6 198.062 268.139 197.736 268.32C197.411 268.501 197.65 269.559 198.268 270.67Z" fill="url(#paint10_linear_2342_2804)"/>
<path fill-rule="evenodd" clip-rule="evenodd" d="M303.172 301.176C315.396 297.019 326.804 296.738 339.134 300.289C360.927 306.567 378.594 324.29 385.081 346.381C386.871 352.477 387.723 363.543 386.938 370.52C386.185 377.212 382.804 387.595 379.584 393.103C375.344 400.355 371.414 404.025 362.686 408.881C358.46 411.233 354.759 412.953 354.241 412.805C353.628 412.629 354.929 411.619 358.145 409.773C366.719 404.854 372.329 397.835 375.639 387.887C379.861 375.2 379.357 362.205 374.153 349.559C364.85 326.952 337.742 312.699 312.598 317.195C306.57 318.273 293.895 325.505 289.397 330.434C272.574 348.869 266.934 373.714 273.637 399.862C274.544 403.4 274.816 405.8 274.339 406.065C273.864 406.329 271.641 404.585 268.616 401.575C257.819 390.828 247.255 384.465 234.012 380.731C225.402 378.302 218.873 377.5 210.84 377.882C201.149 378.343 198.808 379.046 189.368 384.332C181.598 388.682 180.496 389.487 177.65 392.888C166.175 406.597 161.808 427.087 166.534 445.038C168.439 452.277 173.601 461.573 178.77 467.073C187.479 476.342 200.088 482.775 211.567 483.805C219.939 484.556 226.143 483.254 233.483 479.202C238.795 476.269 238.954 476.226 237.516 478.085C235.429 480.783 226.438 485.68 220.955 487.102C198.319 492.977 172.398 481.451 158.389 459.28C147.82 442.554 145.117 422.791 150.847 404.136C154.119 393.484 157.558 387.583 164.957 379.928C168.742 376.013 170.345 374.851 177.57 370.797C186.835 365.596 190.931 364.287 200.088 363.595C208.023 362.995 213.87 363.638 223.363 366.151C242.32 371.17 256.553 381.415 268.85 398.897C271.4 402.522 273.565 405.157 273.662 404.753C273.758 404.348 272.669 401.176 271.241 397.704C265.45 383.618 263.024 368.943 264.308 355.758C265.022 348.422 268.023 337.441 271.065 331.034C273.729 325.422 279.442 317.347 283.642 313.257C287.188 309.804 298.65 302.714 303.172 301.176Z" fill="#713513"/>
<path fill-rule="evenodd" clip-rule="evenodd" d="M308.089 335.412C317.06 331.809 326.195 331.098 335.232 333.302C342.999 335.195 348.415 337.999 354.029 343.033C363.965 351.945 367.835 364.312 363.671 373.855C361.761 378.232 359.672 380.442 354.984 383.043C351.312 385.08 350.078 385.43 346.722 385.386C337.261 385.263 329.992 377.327 331.264 368.507C332.187 362.104 338.515 356.791 344.655 357.264L347.888 357.513L346.371 356.235C341.62 352.236 333.903 350.194 326.682 351.024C322.19 351.54 321.082 351.958 314.33 355.688C307.577 359.419 306.658 360.115 304.062 363.457C293.56 376.98 292.048 396.053 299.829 416.841C306.483 434.617 318.793 450.16 334.456 460.561C345.867 468.139 355.28 471.287 367.833 471.725C373.054 471.907 373.059 471.963 367.974 473.096C345.454 478.111 316.105 466.013 297.588 444.081C293.327 439.034 293.321 439.043 295.975 446.776C302.262 465.101 300.838 490.83 292.658 506.685C289.972 511.891 284.397 519.479 281.277 522.174C279.731 523.51 279.871 523.019 282.205 518.931C286.142 512.037 288.095 506.408 289.122 498.995C294.449 460.538 269.429 417.251 237.472 409.634C224.744 406.601 212.941 409.599 203.946 418.153C199.249 422.619 196.677 426.762 195.451 431.841C194.577 435.458 194.594 441.073 195.478 441.325C195.681 441.384 196.44 440.385 197.164 439.108C200.292 433.587 208.735 431.637 214.58 435.084C217.956 437.076 221.396 442.485 221.849 446.515C222.842 455.347 214.263 464.51 204.651 464.883C190.362 465.437 179.213 452.326 178.652 434.307C178.426 427.032 181.912 414.788 185.816 409.147C194.784 396.189 209.826 387.826 225.296 387.195C235.861 386.765 244.178 388.757 254.22 394.125C263.139 398.891 269.897 404.356 276.83 412.408C280.141 416.253 280.671 416.663 280.163 414.987C272.045 388.196 274.164 367.006 286.494 351.667C291.681 345.214 300.828 338.328 308.089 335.412Z" fill="url(#paint11_linear_2342_2804)"/>
<path fill-rule="evenodd" clip-rule="evenodd" d="M316.314 378.942C310.997 387.029 310.659 395.484 315.224 406.246C319.993 417.489 334.553 429.601 348.83 434.202C362.042 438.459 378.433 437.836 389.988 432.636L394.671 430.528L392.886 432.898C387.645 439.862 368.78 451.929 359.417 454.309C351.448 456.335 343.427 456.287 336.859 454.176C325.247 450.445 316.831 442.789 310.538 430.233C302.252 413.703 302.579 396.874 311.443 383.672C313.385 380.778 315.56 378.098 316.275 377.718C317.409 377.114 317.415 377.27 316.314 378.942Z" fill="#F2F0EF"/>
<path fill-rule="evenodd" clip-rule="evenodd" d="M232.73 425.975C242.047 424.876 251.732 427.58 260.654 433.77C268.864 439.466 271.81 442.767 277.12 452.228C281.29 459.658 281.67 460.627 282.615 466.272C284.71 478.783 281.805 490.501 274.363 499.563C271.428 503.138 263.034 509.708 257.392 512.848C253.087 515.243 242.902 519.242 238.478 520.272C235.274 521.019 234.822 519.445 237.606 517.239C247.124 509.698 255.268 497.023 258.296 485.041C263.466 464.579 257.221 441.831 243.728 431.969C239.528 428.9 236.317 427.748 230.758 427.319C226.816 427.014 227.421 426.602 232.73 425.975Z" fill="#F2F0EF"/>
<path fill-rule="evenodd" clip-rule="evenodd" d="M318.379 483.13C319.357 483.684 321.005 484.614 322.04 485.197C323.075 485.78 325.941 487.063 328.41 488.048C335.408 490.839 338.986 493.769 341.125 498.462C343.43 503.518 343.46 508.339 341.243 517.041L339.518 523.808L332.722 521.351C324.001 518.197 320.667 515.951 317.478 511.079C314.606 506.69 314.298 504.245 315.557 495.807C315.967 493.054 316.37 488.85 316.451 486.463L316.6 482.124L318.379 483.13Z" fill="#F9DB50"/>
</g>
<defs>
<linearGradient id="paint0_linear_2342_2804" x1="513.379" y1="0" x2="513.379" y2="263.899" gradientUnits="userSpaceOnUse">
<stop stop-color="#953120"/>
<stop offset="1" stop-color="#F34D30"/>
</linearGradient>
<linearGradient id="paint1_linear_2342_2804" x1="513.075" y1="48.3276" x2="513.075" y2="80.8671" gradientUnits="userSpaceOnUse">
<stop stop-color="#FFD200"/>
<stop offset="1" stop-color="#F9DB50"/>
</linearGradient>
<linearGradient id="paint2_linear_2342_2804" x1="513.604" y1="177.808" x2="513.604" y2="227.291" gradientUnits="userSpaceOnUse">
<stop stop-color="#F9DB50"/>
<stop offset="1" stop-color="#FFD200"/>
</linearGradient>
<linearGradient id="paint3_linear_2342_2804" x1="513.192" y1="440.497" x2="508.023" y2="320.31" gradientUnits="userSpaceOnUse">
<stop stop-color="#F9DB50"/>
<stop offset="1" stop-color="#C0A320"/>
</linearGradient>
<linearGradient id="paint4_linear_2342_2804" x1="916.843" y1="115.938" x2="788.523" y2="346.539" gradientUnits="userSpaceOnUse">
<stop stop-color="#953120"/>
<stop offset="1" stop-color="#F34D30"/>
</linearGradient>
<linearGradient id="paint5_linear_2342_2804" x1="893.078" y1="158.02" x2="877.255" y2="186.453" gradientUnits="userSpaceOnUse">
<stop stop-color="#FFD200"/>
<stop offset="1" stop-color="#F9DB50"/>
</linearGradient>
<linearGradient id="paint6_linear_2342_2804" x1="830.581" y1="271.419" x2="806.52" y2="314.659" gradientUnits="userSpaceOnUse">
<stop stop-color="#F9DB50"/>
<stop offset="1" stop-color="#FFD200"/>
</linearGradient>
<linearGradient id="paint7_linear_2342_2804" x1="702.489" y1="500.763" x2="756.412" y2="393.227" gradientUnits="userSpaceOnUse">
<stop stop-color="#F9DB50"/>
<stop offset="1" stop-color="#C0A320"/>
</linearGradient>
<linearGradient id="paint8_linear_2342_2804" x1="111.295" y1="112.938" x2="239.615" y2="343.539" gradientUnits="userSpaceOnUse">
<stop stop-color="#953120"/>
<stop offset="1" stop-color="#F34D30"/>
</linearGradient>
<linearGradient id="paint9_linear_2342_2804" x1="135.06" y1="155.02" x2="150.883" y2="183.453" gradientUnits="userSpaceOnUse">
<stop stop-color="#FFD200"/>
<stop offset="1" stop-color="#F9DB50"/>
</linearGradient>
<linearGradient id="paint10_linear_2342_2804" x1="197.558" y1="268.419" x2="221.619" y2="311.659" gradientUnits="userSpaceOnUse">
<stop stop-color="#F9DB50"/>
<stop offset="1" stop-color="#FFD200"/>
</linearGradient>
<linearGradient id="paint11_linear_2342_2804" x1="325.649" y1="497.763" x2="271.726" y2="390.227" gradientUnits="userSpaceOnUse">
<stop stop-color="#F9DB50"/>
<stop offset="1" stop-color="#C0A320"/>
</linearGradient>
</defs>
</svg>
