<svg width="1700" height="427" viewBox="0 0 1700 427" fill="none" xmlns="http://www.w3.org/2000/svg">
<path d="M42.3418 306.324L41.8906 305.771L28.4482 289.316C9.56152 266.197 1.82231 243.88 2.00293 212.932C2.08481 199.008 3.97874 182.102 6.27734 174.252V174.251C8.70014 165.972 13.2216 156.275 18.4248 147.588C23.4836 139.142 29.0719 131.842 33.8428 127.748L34.3027 127.362C36.0498 125.923 37.5624 124.62 38.7383 123.04C39.9546 121.406 40.7481 119.569 41.2695 117.112C42.2713 112.391 42.33 104.963 42.334 91.4062L42.3408 64.2295L50.1982 60.21L50.1992 60.2109C57.0086 56.7288 61.7776 52.2844 64.7803 45.8125C67.7412 39.4305 68.8975 31.2562 68.8975 20.4766C68.8975 15.4893 69.0215 10.8159 69.2197 7.31055C69.3191 5.55394 69.4357 4.11723 69.5605 3.09082C69.5719 2.99739 69.5855 2.90848 69.5967 2.82422C70.3183 2.8102 71.2968 2.79605 72.5283 2.78223C75.4635 2.74928 79.8097 2.71748 85.4756 2.68652C96.8065 2.62461 113.403 2.56638 134.52 2.5127C176.751 2.40533 237.054 2.31416 309.452 2.24023C454.248 2.09237 647.419 2.01232 841.15 2.00195C1222.63 1.98155 1606.1 2.23378 1626.89 2.77051L1627.6 2.7959C1628.99 2.87782 1629.61 3.03036 1629.97 3.24609C1630.2 3.38605 1630.55 3.68085 1630.86 4.78711C1631.2 5.95155 1631.42 7.74201 1631.54 10.5488C1631.67 13.3261 1631.7 16.952 1631.7 21.7188C1631.7 32.5781 1632.48 40.0641 1635.32 46.0439C1638.21 52.1008 1643.08 56.3478 1650.55 61.0674C1651.84 61.8801 1652.65 62.5313 1653.24 63.3369C1653.83 64.1317 1654.32 65.2261 1654.69 67.0752C1655.46 70.9012 1655.6 77.2758 1655.6 89.2568V116.1L1656.07 116.659L1671.69 135.133C1683.17 148.711 1688.46 158.027 1692.55 171.704C1699.24 194.084 1699.56 219.287 1694.67 241.841C1689.77 264.427 1679.69 284.107 1665.83 295.661L1656.35 303.566L1655.63 304.166V305.102L1655.62 335.171C1655.61 347.215 1655.41 354.602 1654.85 358.967C1654.57 361.18 1654.21 362.378 1653.89 362.98C1653.82 363.122 1653.76 363.202 1653.72 363.243C1652.75 363.254 1651.72 363.631 1650.83 364.056C1649.86 364.515 1648.8 365.153 1647.72 365.904C1645.56 367.408 1643.16 369.458 1641.03 371.705L1641.03 371.706C1637.66 375.245 1635.54 378.211 1634.17 382.878C1632.86 387.385 1632.28 393.428 1631.7 403.034L1630.48 423.383L849.631 424.191L68.8975 424.998V406.596C68.8975 394.816 68.0373 386.577 65.2783 380.236C62.4644 373.77 57.7819 369.503 50.7344 365.408H50.7334L42.3418 360.535V306.324Z" fill="url(#paint0_linear_1528_3402)" stroke="url(#paint1_linear_1528_3402)" stroke-width="4"/>
<defs>
<linearGradient id="paint0_linear_1528_3402" x1="77.5" y1="427" x2="1625.5" y2="-1.02891e-06" gradientUnits="userSpaceOnUse">
<stop stop-color="#B1811B"/>
</linearGradient>
<linearGradient id="paint1_linear_1528_3402" x1="850" y1="0.000976563" x2="850" y2="427.001" gradientUnits="userSpaceOnUse">
<stop stop-color="#3F170D"/>
</linearGradient>
</defs>
</svg>
