<svg width="614" height="194" viewBox="0 0 614 194" fill="none" xmlns="http://www.w3.org/2000/svg">
<g filter="url(#filter0_d_1528_3383)">
<path fill-rule="evenodd" clip-rule="evenodd" d="M4.52352 93.7826C4.82929 93.9989 6.64351 94.4797 8.73149 94.8973C10.3705 95.2254 11.5045 95.5618 11.5042 95.7202C11.504 95.8067 12.0429 96.0097 12.7013 96.1713C13.3598 96.3328 14.3453 96.6449 14.8912 96.8646C15.437 97.0843 16.0243 97.2642 16.1963 97.2644C16.3686 97.2647 16.6763 97.4073 16.8805 97.5812C17.3073 97.9453 19.7325 99.1639 20.3876 99.3439C20.6304 99.4105 20.8286 99.534 20.8285 99.6185C20.8283 99.7031 21.4681 100.148 22.25 100.608C23.032 101.067 23.9902 101.687 24.3791 101.986C24.7682 102.285 25.7184 102.964 26.4907 103.496C27.2632 104.027 28.3409 104.825 28.8856 105.268C29.43 105.71 29.9653 106.077 30.0747 106.082C30.1844 106.087 30.6663 106.377 31.1459 106.727C31.6254 107.076 32.152 107.362 32.3157 107.363C32.4796 107.363 32.6741 107.497 32.7479 107.662C32.9297 108.066 35.3798 109.035 36.6718 109.212C37.2477 109.291 37.7798 109.44 37.854 109.543C38.0301 109.786 41.4192 109.791 41.5962 109.549C41.6708 109.446 42.2812 109.302 42.9527 109.227C44.0296 109.108 45.0788 108.832 47.6095 108.002C47.9913 107.877 48.3037 107.688 48.3039 107.581C48.3041 107.475 48.5027 107.386 48.7456 107.384C48.9885 107.382 49.4711 107.192 49.8183 106.962C50.1655 106.732 50.5954 106.542 50.7737 106.54C51.0766 106.536 52.3128 105.949 52.595 105.675C52.6645 105.607 53.4028 105.278 54.2357 104.942C56.0681 104.203 58.6513 103.933 58.6502 104.481C58.6499 104.669 58.3373 104.99 57.9553 105.195C53.8697 107.38 49.0101 111.437 46.4013 114.839C44.8444 116.869 44.3005 118.012 44.7213 118.371C44.9005 118.524 46.5998 118.606 49.603 118.607C53.7069 118.608 54.36 118.558 55.5862 118.151C56.3431 117.899 57.0588 117.548 57.1764 117.37C57.2942 117.192 57.551 117.047 57.7475 117.047C58.461 117.048 60.8286 115.641 63.1679 113.825C63.7092 113.405 64.6266 112.783 65.2061 112.443C65.7858 112.103 66.3182 111.696 66.3897 111.539C66.5236 111.244 69.077 109.779 69.4568 109.779C69.5748 109.78 69.7223 110.768 69.7851 111.977C69.9079 114.348 70.4336 115.642 71.543 116.305C72.4845 116.867 73.0903 116.712 74.1968 115.627C74.7663 115.068 75.6688 114.219 76.2019 113.741C79.6132 110.682 80.5822 109.761 80.5825 109.577C80.5827 109.462 80.7342 109.369 80.9194 109.369C81.1045 109.369 81.7727 108.913 82.404 108.354C83.8066 107.112 85.1569 106.171 85.5411 106.166C85.6985 106.164 85.9972 105.943 86.205 105.674C86.4128 105.406 87.1181 104.953 87.7724 104.669C88.4266 104.384 89.2074 103.932 89.5072 103.664C89.8071 103.396 90.1679 103.175 90.3092 103.173C90.4504 103.171 90.9838 102.929 91.4948 102.636C92.0056 102.342 92.5715 102.1 92.7523 102.098C92.9331 102.096 93.3487 101.856 93.6759 101.564C94.003 101.272 94.4307 101.033 94.6262 101.033C94.8214 101.034 95.1787 100.942 95.4197 100.83C96.7995 100.187 99.9275 99.0743 101.789 98.564C102.968 98.2406 103.99 97.9092 104.06 97.8277C104.13 97.7459 105.492 97.4222 107.088 97.1082C108.684 96.7942 110.338 96.446 110.764 96.3344C111.19 96.2228 111.843 96.1319 112.215 96.1325C112.586 96.1331 112.891 96.0457 112.891 95.9381C112.891 95.8306 113.374 95.6811 113.963 95.606C114.553 95.5309 115.632 95.3793 116.36 95.2695C119.78 94.7538 120.496 94.6609 122.856 94.4289C124.243 94.2923 125.946 94.0488 126.64 93.8875C127.334 93.7261 128.242 93.5688 128.658 93.5377C129.224 93.4956 129.415 93.3733 129.416 93.0527C129.417 92.6012 129.307 92.5772 125.382 92.1708C124.55 92.0846 123.804 91.9293 123.724 91.8259C123.644 91.7225 122.737 91.5421 121.707 91.4251C119.253 91.1462 117.161 90.866 115.297 90.5666C114.465 90.4331 113.33 90.2658 112.776 90.1953C112.221 90.1247 111.71 89.9949 111.641 89.9067C111.572 89.8187 110.324 89.533 108.868 89.2718C105.186 88.6116 103.503 88.2245 103.338 87.9996C103.26 87.894 102.686 87.6833 102.062 87.5316C101.438 87.3798 100.82 87.1754 100.688 87.0771C100.556 86.9789 100.259 86.8983 100.026 86.8979C99.6011 86.8972 98.2312 86.4257 97.525 86.0373C97.3171 85.923 96.1264 85.426 94.8789 84.9328C93.6314 84.4399 92.5541 83.9702 92.4849 83.889C92.4157 83.8079 91.6787 83.4291 90.8472 83.047C90.0156 82.665 89.222 82.2379 89.0835 82.098C88.9451 81.958 88.1193 81.4728 87.2485 81.0199C86.3775 80.5667 85.2439 79.8663 84.7294 79.4632C84.2146 79.0602 83.7078 78.7297 83.6029 78.7291C83.4982 78.7283 82.9097 78.293 82.2953 77.7616C81.6809 77.2302 81.1123 76.7953 81.0316 76.7952C80.8358 76.7949 77.6235 73.9824 77.6238 73.8116C77.624 73.7383 77.2299 73.3892 76.7481 73.0359C76.2661 72.6828 75.8671 72.2973 75.861 72.1794C75.8459 71.8813 74.2049 70.3551 73.899 70.3546C73.7615 70.3544 73.584 70.2095 73.5044 70.0326C73.2369 69.4372 72.1641 69.6633 71.3656 70.4837C70.5041 71.3687 70.1747 72.3275 69.92 74.6909C69.8215 75.606 69.657 76.3983 69.555 76.4519C69.4528 76.5053 69.0978 76.3012 68.766 75.9985C68.4344 75.6958 67.8228 75.3022 67.407 75.1239C66.9912 74.9455 66.2544 74.4724 65.7696 74.0724C64.089 72.6858 62.6878 71.6225 62.5289 71.6135C62.4414 71.6086 61.9771 71.3185 61.4976 70.9689C61.018 70.6195 60.4915 70.3332 60.3278 70.3329C60.1639 70.3326 59.9704 70.1999 59.8976 70.038C59.7582 69.7279 56.2621 68.3976 55.5837 68.3966C55.3658 68.3962 55.1879 68.3132 55.1881 68.2119C55.1887 67.854 51.4893 67.4764 49.2213 67.6031C45.5936 67.8058 44.7348 67.9808 44.6409 68.5363C44.555 69.0443 46.018 71.5958 46.3958 71.5964C46.5186 71.5966 46.7202 71.8138 46.8435 72.0793C47.0724 72.5708 47.4242 72.9749 49.304 74.9054C50.7806 76.4214 51.2638 76.8343 53.2774 78.2997C56.2856 80.4889 56.6924 80.7626 57.3882 81.0674C58.129 81.3917 58.9449 82.0752 58.9443 82.3711C58.9436 82.7522 58.1332 82.8023 56.623 82.5153C55.7711 82.3532 54.9521 82.1234 54.803 82.0046C54.654 81.8859 54.2483 81.6815 53.9018 81.5504C53.5552 81.4194 52.779 81.1046 52.1767 80.8512C51.5747 80.5978 50.9282 80.3901 50.74 80.3898C50.5519 80.3895 50.3078 80.2552 50.1971 80.0915C49.9793 79.769 47.1734 78.6255 45.9597 78.3647C45.5486 78.2762 45.1471 78.1144 45.0679 78.0052C44.7861 77.6162 41.9986 77.1612 39.876 77.1578C37.7275 77.1544 34.9937 77.6384 34.993 78.0224C34.9927 78.132 34.8508 78.222 34.6773 78.2223C34.0143 78.2241 31.2272 79.6357 30.6409 80.2667C30.3761 80.552 30.0245 80.7852 29.8598 80.7849C29.6952 80.7847 29.2204 81.1193 28.8047 81.5286C28.3893 81.9381 27.9206 82.2749 27.7632 82.277C27.6061 82.2793 27.0666 82.6663 26.5644 83.137C26.0621 83.6077 25.5877 83.9927 25.5098 83.9925C25.3602 83.9923 23.6222 85.1144 22.7551 85.7711C22.4725 85.9852 21.5595 86.5094 20.7264 86.936C19.8933 87.3625 19.098 87.8202 18.959 87.9533C18.8201 88.0862 17.9681 88.4637 17.0659 88.7923C16.1636 89.1208 15.241 89.525 15.0158 89.6908C14.7907 89.8565 13.495 90.319 12.1366 90.7185C10.7785 91.1181 9.59992 91.533 9.5175 91.6407C9.43507 91.7486 9.02723 91.8898 8.61096 91.9547C8.1947 92.0194 7.39994 92.1851 6.84482 92.3228C6.28971 92.4604 5.46645 92.6221 5.01564 92.6823C4.14228 92.7987 3.8999 93.3412 4.52352 93.7826Z" fill="url(#paint0_linear_1528_3383)"/>
<path fill-rule="evenodd" clip-rule="evenodd" d="M42.1536 92.6057C43.1249 92.4633 44.33 92.2586 44.8319 92.1508C45.3337 92.0431 46.204 91.9556 46.7659 91.9565C47.3591 91.9575 47.8317 91.8459 47.893 91.6904C48.0393 91.3191 61.3391 91.3262 62.2292 91.698C62.5629 91.8374 63.4222 92.0636 64.139 92.2004C65.8143 92.5207 66.3506 92.8511 66.1334 93.4298C65.6771 94.6446 61.5912 95.0941 52.8681 94.8896C45.798 94.724 40.9496 94.1905 39.9628 93.4702C39.5273 93.1521 39.5264 93.1264 39.9448 92.9991C40.1883 92.9251 41.1823 92.748 42.1536 92.6057Z" fill="url(#paint1_linear_1528_3383)"/>
<path fill-rule="evenodd" clip-rule="evenodd" d="M57.7086 133.853C58.9854 134.851 61.481 136.054 63.1044 136.456C63.8811 136.648 64.8566 136.937 65.2725 137.097C66.4484 137.549 67.5198 137.672 71.3223 137.788C75.8066 137.926 76.482 137.774 80.5139 135.719C81.6441 135.143 84.3288 132.34 84.9618 131.074C85.1532 130.692 85.4121 130.378 85.5366 130.379C85.6615 130.379 85.9674 129.996 86.2167 129.529C86.4657 129.061 86.8814 128.517 87.14 128.319C87.3984 128.12 87.6104 127.78 87.6108 127.563C87.6112 127.345 87.7722 127.168 87.9689 127.168C88.1654 127.168 88.377 127.048 88.4393 126.901C88.5014 126.754 88.6203 126.686 88.7034 126.751C88.8781 126.886 88.2266 128.827 87.888 129.18C87.5486 129.534 85.8322 134.517 85.831 135.152C85.8304 135.454 85.6964 135.739 85.5334 135.784C85.143 135.894 85.0981 139.785 85.4794 140.479C85.6327 140.759 85.8998 141.518 86.0731 142.166C86.4681 143.644 87.5614 145.495 88.5683 146.391C88.9923 146.768 89.3391 147.156 89.3389 147.252C89.3387 147.349 89.6505 147.62 90.0314 147.854C90.4122 148.089 91.0074 148.528 91.3536 148.829C92.1278 149.502 94.2762 150.537 94.9004 150.538C95.1536 150.539 95.451 150.665 95.5617 150.819C95.6723 150.973 96.6324 151.312 97.6949 151.572C99.9302 152.12 101.688 152.201 101.689 151.756C101.689 151.506 101.287 150.54 100.427 148.725C99.6603 147.107 99.4229 142.745 99.9614 140.165C100.755 136.365 101.626 133.419 102.027 133.179C102.136 133.114 102.622 132.11 103.107 130.947C103.592 129.784 104.092 128.778 104.217 128.71C104.342 128.643 104.873 127.823 105.395 126.888C105.918 125.954 106.568 124.991 106.84 124.748C107.112 124.505 107.561 123.902 107.839 123.409C108.115 122.916 108.617 122.36 108.953 122.174C109.289 121.988 109.565 121.717 109.567 121.572C109.569 121.428 109.996 120.922 110.515 120.448C111.034 119.975 111.888 119.144 112.412 118.603C113.648 117.325 115.641 115.642 117.112 114.633C117.754 114.193 118.394 113.721 118.533 113.584C118.672 113.448 119.41 112.972 120.174 112.527C120.938 112.082 121.676 111.606 121.815 111.468C121.954 111.331 122.6 110.962 123.249 110.65C123.899 110.337 124.581 109.959 124.764 109.809C124.948 109.659 125.95 109.163 126.991 108.706C128.032 108.249 128.922 107.795 128.968 107.697C129.015 107.598 129.158 107.518 129.287 107.518C129.415 107.518 130.002 107.335 130.59 107.11C131.179 106.885 132.115 106.577 132.67 106.426C133.225 106.275 133.85 106.04 134.058 105.904C134.266 105.768 134.834 105.586 135.32 105.5C135.805 105.413 136.657 105.255 137.212 105.147C138.723 104.855 145.213 104.149 147.878 103.987C149.166 103.909 150.28 103.763 150.353 103.662C150.426 103.562 151.434 103.482 152.594 103.484C153.753 103.486 154.882 103.429 155.101 103.358C155.711 103.16 155.578 102.515 154.872 102.241C154.525 102.106 154.242 101.912 154.242 101.809C154.243 101.613 151.817 100.705 150.084 100.251C149.529 100.106 149.019 99.9149 148.95 99.8265C148.703 99.5111 143.796 98.7395 140.038 98.4248C134.042 97.9232 127.951 98.0192 120.705 98.73C117.377 99.0562 113.541 99.6005 113.262 99.7856C113.124 99.8778 112.556 100.021 112.001 100.103C111.446 100.186 110.367 100.393 109.604 100.562C108.841 100.732 107.535 101.023 106.702 101.208C105.87 101.393 105.075 101.663 104.936 101.808C104.797 101.953 104.399 102.119 104.052 102.177C102.953 102.36 99.3944 103.491 99.1313 103.74C98.9924 103.872 98.3677 104.143 97.7431 104.344C97.1185 104.544 95.8122 105.106 94.8403 105.593C93.8684 106.08 92.5439 106.702 91.897 106.977C91.2501 107.251 90.6569 107.616 90.5792 107.787C90.5014 107.959 90.3246 108.099 90.1864 108.098C89.7939 108.098 87.8426 109.2 86.8769 109.967C86.3965 110.349 85.8923 110.662 85.7561 110.662C85.4973 110.663 85.1336 110.951 81.5167 114.023C78.1903 116.848 76.5307 118.611 76.5293 119.322C76.529 119.502 76.3736 119.649 76.1842 119.648C75.9948 119.648 75.483 120.322 75.0474 121.147C74.6116 121.971 74.1412 122.645 74.002 122.645C73.8628 122.645 73.7485 122.776 73.7482 122.937C73.7463 123.92 69.9701 129.482 69.2982 129.491C69.1464 129.493 68.8199 129.684 68.5731 129.915C68.326 130.146 67.6267 130.496 67.0193 130.692C66.4116 130.888 65.9143 131.12 65.9141 131.208C65.9136 131.509 62.7366 132.016 59.8593 132.176C56.4592 132.364 56.1304 132.621 57.7086 133.853Z" fill="url(#paint2_linear_1528_3383)"/>
<path fill-rule="evenodd" clip-rule="evenodd" d="M58.3772 53.6141C60.0246 53.6168 64.3728 54.0581 64.6705 54.253C64.8096 54.3439 65.5471 54.5988 66.3096 54.819C67.0721 55.0395 68.036 55.4158 68.4517 55.6552C69.5308 56.2769 71.5996 58.137 71.599 58.4848C71.5986 58.6464 71.6862 58.7787 71.7933 58.7789C72.0705 58.7794 73.8623 61.9366 73.8613 62.423C73.8611 62.5422 73.959 62.6398 74.0791 62.64C74.1991 62.6402 74.6686 63.3675 75.1227 64.2563C75.5767 65.1451 76.0743 65.9416 76.2288 66.026C76.3832 66.1107 76.7908 66.6626 77.1344 67.2525C77.4781 67.8424 78.1844 68.7067 78.7035 69.1732C79.2229 69.6399 79.6475 70.1048 79.6473 70.2062C79.6468 70.5017 83.218 73.5677 83.7222 73.7046C83.974 73.7729 84.18 73.9235 84.1798 74.039C84.1794 74.2751 85.4541 75.2848 85.7663 75.2958C85.877 75.2999 86.3762 75.6412 86.8753 76.0545C87.3744 76.4679 87.8966 76.8062 88.0356 76.8065C88.1746 76.8067 88.6599 77.0486 89.114 77.344C89.5682 77.6393 90.0484 77.8812 90.1816 77.8814C90.3147 77.8816 90.478 78.0025 90.5443 78.1499C90.6106 78.2974 91.4109 78.7481 92.3232 79.1516C93.2354 79.5549 94.0399 80.0141 94.1109 80.1722C94.182 80.3302 94.4032 80.4598 94.6024 80.4602C94.8017 80.4605 95.4575 80.6681 96.0596 80.9215C96.6619 81.175 97.438 81.4895 97.7846 81.6203C98.1311 81.7514 98.5052 81.9794 98.6159 82.127C98.7266 82.2749 99.0169 82.396 99.2616 82.3964C99.506 82.3967 100.175 82.5907 100.749 82.8273C101.323 83.064 101.908 83.2578 102.049 83.258C102.191 83.2583 102.905 83.4906 103.637 83.7747C104.369 84.0585 105.421 84.4044 105.976 84.5433C108.143 85.0864 111.801 85.8344 112.321 85.8406C112.621 85.8441 112.905 85.9388 112.951 86.0512C113.069 86.3402 115.729 86.6979 124.283 87.5748C127.46 87.9005 137.223 87.8637 140.775 87.5127C144.461 87.1486 148.817 86.4022 148.932 86.1155C148.979 85.9996 149.23 85.9053 149.49 85.9057C150.486 85.9073 155.03 84.317 155.031 83.9666C155.031 83.8753 155.258 83.7396 155.536 83.6652C156.071 83.5219 156.214 83.032 155.786 82.8065C155.645 82.7323 153.817 82.5817 151.723 82.4719C149.629 82.362 147.786 82.1848 147.629 82.0781C147.471 81.9711 146.492 81.8259 145.451 81.7555C143.423 81.6179 140.732 81.3017 138.895 80.9859C135.773 80.4486 135.099 80.3082 134.683 80.1097C134.295 79.9246 130.571 78.7766 129.253 78.4361C129.011 78.3733 128.812 78.2507 128.813 78.1637C128.813 78.0764 127.945 77.6344 126.885 77.181C125.825 76.7277 124.685 76.1424 124.354 75.88C124.021 75.6175 123.387 75.2539 122.943 75.0717C122.499 74.8897 121.76 74.4457 121.301 74.0852C120.843 73.7246 120.389 73.4291 120.294 73.4283C120.199 73.4277 119.717 73.1134 119.224 72.7301C118.73 72.3467 117.815 71.6779 117.189 71.2434C116.26 70.5987 113.123 67.9494 112.061 66.912C111.047 65.9218 109.725 64.4215 109.433 63.929C109.241 63.6046 108.994 63.3389 108.886 63.3387C108.777 63.3386 108.284 62.7497 107.79 62.0304C107.295 61.311 106.727 60.5832 106.528 60.4127C106.328 60.2425 105.804 59.4553 105.364 58.6636C104.924 57.8719 104.47 57.1713 104.355 57.1066C104.24 57.0419 103.732 56.0285 103.225 54.8546C102.719 53.6807 102.225 52.6718 102.128 52.6127C102.03 52.5536 101.885 52.2641 101.805 51.9693C101.725 51.6745 101.531 51.0473 101.373 50.5756C100.243 47.2024 99.6603 42.3627 100.112 40.1132C100.564 37.8659 101.438 35.6461 102.093 35.0837C102.408 34.8135 102.666 34.498 102.666 34.3827C102.667 34.0604 101.593 33.7847 100.763 33.8941C99.2371 34.095 97.4876 34.451 97.2432 34.61C97.1043 34.7007 96.2848 35.0161 95.4219 35.3111C93.8693 35.8422 89.5438 38.3248 89.5431 38.6853C89.5428 38.8715 89.0161 39.4753 88.2599 40.156C87.2254 41.0874 86.0018 44.1754 85.9986 45.8635C85.9977 46.3592 85.867 46.8016 85.7085 46.8461C85.492 46.907 85.4917 47.0418 85.7075 47.3857C85.8654 47.6377 85.9937 48.4735 85.9922 49.2429C85.9908 50.012 86.216 51.4893 86.4925 52.5257C86.9533 54.252 87.2095 54.9172 88.127 56.7692C88.8529 58.2347 88.9775 58.5088 89.1417 59.0058L89.314 59.5266L88.5649 59.0049C87.7511 58.4382 87.7073 58.3831 86.6424 56.5879C86.2459 55.9195 85.8248 55.3725 85.7063 55.3724C85.588 55.3722 85.194 54.836 84.8308 54.1811C84.4676 53.5261 83.9549 52.8753 83.6913 52.7347C83.4275 52.5943 83.2121 52.3578 83.2123 52.2093C83.2126 52.061 83.1276 51.9376 83.0237 51.9353C82.9198 51.933 82.1204 51.3538 81.2476 50.648C80.3748 49.9421 79.3546 49.2995 78.9804 49.2199C78.6063 49.1402 77.9331 48.8997 77.4843 48.6855C75.4332 47.7065 69.0062 47.5861 66.6999 48.4833C66.4223 48.5913 65.7228 48.7809 65.1452 48.9045C63.7447 49.2042 61.2742 50.1713 61.2738 50.4198C61.2736 50.5291 61.1032 50.6182 60.8951 50.6179C60.687 50.6176 60.5166 50.7137 60.5164 50.8316C60.5161 50.9495 60.3175 51.0486 60.0746 51.052C59.5924 51.0586 58.2444 51.9721 58.2437 52.2927C58.2435 52.4026 58.0163 52.5425 57.7387 52.6037C57.4367 52.6703 57.2338 52.8952 57.2333 53.1635C57.2325 53.5531 57.3835 53.6125 58.3772 53.6141Z" fill="url(#paint3_linear_1528_3383)"/>
<path fill-rule="evenodd" clip-rule="evenodd" d="M114.947 157.642C114.999 158.172 115.151 159.708 115.284 161.056C115.417 162.403 115.641 163.604 115.783 163.725C115.924 163.845 116.04 164.153 116.039 164.41C116.037 165.465 117.715 170.29 118.084 170.291C118.201 170.291 118.298 170.382 118.297 170.494C118.297 170.873 120.162 174.043 120.488 174.216C120.666 174.311 120.812 174.512 120.812 174.663C120.811 174.814 121.259 175.352 121.807 175.858C122.355 176.364 122.836 176.856 122.877 176.952C123.223 177.766 128.756 182.008 129.751 182.222C130.101 182.298 130.471 182.484 130.573 182.636C130.771 182.934 133.963 184.246 134.489 184.247C134.662 184.247 135.028 184.379 135.302 184.54C135.575 184.702 136.593 185.014 137.563 185.234C140.171 185.825 148.566 185.837 151.435 185.252C152.545 185.026 153.51 184.774 153.579 184.691C153.649 184.608 154.16 184.381 154.715 184.187C156.96 183.402 158.122 182.914 158.123 182.756C158.123 182.665 158.549 182.421 159.07 182.214C160.735 181.552 164.856 178.196 165.678 176.833C165.959 176.366 166.379 175.824 166.609 175.629C167.16 175.163 168.737 171.32 168.739 170.44C168.739 170.063 168.854 169.695 168.993 169.622C169.137 169.547 169.247 168.446 169.25 167.051C169.252 165.656 169.146 164.555 169.002 164.479C168.864 164.406 168.751 164.058 168.752 163.706C168.754 162.632 167.531 159.764 166.479 158.377C165.933 157.655 165.486 156.971 165.486 156.857C165.486 156.742 164.715 155.997 163.773 155.2C160.944 152.809 160.524 152.536 159.791 152.609C159.199 152.668 159.072 152.836 158.681 154.069C158.077 155.973 157.831 156.446 156.794 157.695C156.302 158.289 155.898 158.851 155.898 158.944C155.898 159.141 153.129 161.589 151.85 162.522C150.667 163.386 149.653 163.827 147.131 164.58C144.671 165.313 141.736 165.447 140.391 164.887C139.967 164.71 138.826 164.264 137.856 163.895C136.886 163.526 135.865 163.011 135.588 162.75C135.311 162.49 134.66 162.007 134.14 161.677C133.621 161.348 133.195 160.962 133.195 160.821C133.194 160.68 132.826 160.23 132.377 159.821C131.927 159.412 131.438 158.881 131.29 158.641C131.142 158.4 130.9 158.01 130.754 157.774C130.607 157.538 130.333 157.055 130.144 156.702C129.955 156.348 129.707 156 129.593 155.928C129.479 155.857 129.286 155.471 129.164 155.07C129.043 154.67 128.77 153.763 128.559 153.056C127.8 150.517 127.61 147.222 128.035 144.002C128.446 140.884 129.337 136.87 129.661 136.673C129.767 136.609 130.241 135.566 130.714 134.356C131.188 133.145 131.725 132.05 131.909 131.921C132.092 131.792 132.242 131.587 132.243 131.466C132.243 131.046 133.61 128.842 134.695 127.511C135.293 126.776 135.784 126.073 135.784 125.949C135.784 125.826 136.063 125.489 136.402 125.201C136.742 124.913 137.361 124.259 137.777 123.746C138.667 122.652 145.423 116.758 145.787 116.759C145.925 116.759 146.539 116.326 147.153 115.797C147.766 115.267 148.355 114.834 148.462 114.835C148.568 114.835 149.609 114.258 150.773 113.552C151.939 112.847 152.999 112.27 153.131 112.27C153.262 112.271 153.59 112.097 153.859 111.885C154.463 111.41 157.747 109.92 158.189 109.921C158.367 109.921 158.513 109.836 158.513 109.731C158.514 109.535 162.191 108.21 162.728 108.213C162.895 108.214 163.122 108.087 163.233 107.931C163.344 107.775 163.634 107.585 163.877 107.51C164.12 107.434 164.319 107.174 164.319 106.93C164.32 106.523 164.212 106.497 162.996 106.607C161.355 106.755 159.148 107.097 158.122 107.362C157.695 107.472 157.165 107.562 156.944 107.562C156.722 107.561 156.219 107.696 155.826 107.86C155.433 108.024 154.657 108.271 154.102 108.408C152.599 108.78 150.335 109.538 150.186 109.72C150.114 109.808 149.177 110.227 148.104 110.652C147.03 111.077 146.152 111.516 146.152 111.628C146.151 111.739 146.002 111.83 145.821 111.83C145.639 111.83 145.261 112.01 144.981 112.231C144.701 112.452 144.222 112.7 143.916 112.782C143.611 112.863 142.938 113.259 142.421 113.661C141.904 114.064 141.361 114.393 141.215 114.393C141.068 114.394 140.544 114.708 140.05 115.091C139.555 115.475 138.596 116.152 137.917 116.596C135.425 118.228 129.563 123.341 127.462 125.716C127.114 126.108 126.631 126.624 126.388 126.861C126.144 127.099 125.945 127.375 125.945 127.475C125.945 127.574 125.565 128.017 125.101 128.458C124.637 128.9 123.926 129.788 123.521 130.431C123.116 131.075 122.638 131.736 122.459 131.9C122.279 132.065 121.799 132.791 121.391 133.513C120.983 134.236 120.536 134.972 120.398 135.148C119.975 135.689 119.259 137.116 118.733 138.467C118.457 139.174 118.157 139.801 118.066 139.859C117.704 140.092 116.077 145.981 116.073 147.071C116.072 147.326 115.964 147.567 115.832 147.607C115.402 147.735 114.725 155.406 114.947 157.642Z" fill="url(#paint4_linear_1528_3383)"/>
<path fill-rule="evenodd" clip-rule="evenodd" d="M115.18 32.812C115.484 36.2761 115.818 38.8183 115.995 39.0159C116.107 39.1408 116.392 40.1592 116.629 41.2793C116.865 42.3994 117.154 43.5571 117.271 43.852C117.388 44.1468 117.631 44.8463 117.811 45.4066C117.991 45.9668 118.218 46.4251 118.315 46.4253C118.413 46.4255 118.566 46.7139 118.657 47.0664C118.747 47.4187 118.926 47.7623 119.054 47.8298C119.182 47.8971 119.286 48.1441 119.285 48.3785C119.285 48.613 119.511 49.2044 119.787 49.6928C120.064 50.1812 120.29 50.7073 120.289 50.862C120.289 51.0167 120.377 51.1433 120.484 51.1435C120.675 51.1438 120.876 51.454 122.081 53.6024C122.409 54.1877 122.871 54.8524 123.106 55.0795C123.342 55.3066 123.717 55.8211 123.94 56.2229C124.164 56.6246 124.662 57.2632 125.048 57.6423C125.434 58.0211 125.794 58.4439 125.849 58.582C126.027 59.0289 128.938 62.1478 130.039 63.0704C130.628 63.5636 131.109 64.0356 131.109 64.1192C131.109 64.2962 133.902 66.6094 136.174 68.3129C137.04 68.9626 137.99 69.6874 138.284 69.9236C138.578 70.1598 139.353 70.6914 140.006 71.105C140.658 71.5186 141.491 72.0662 141.856 72.3218C142.221 72.5776 143.126 73.0574 143.867 73.3882C144.608 73.7192 145.214 74.0649 145.214 74.1569C145.214 74.2486 146.195 74.7199 147.394 75.2043C148.594 75.6884 149.716 76.2043 149.887 76.3505C150.058 76.4967 151.374 76.9489 152.81 77.3554C154.246 77.7621 155.482 78.1635 155.556 78.2478C155.817 78.5436 159.98 79.2853 162.165 79.4249C163.967 79.5403 164.37 79.5111 164.362 79.2661C164.353 78.9605 162.557 77.7846 162.098 77.7838C161.959 77.7836 161.649 77.6944 161.408 77.5856C161.167 77.4768 160.29 77.1702 159.458 76.9044C158.626 76.6388 157.814 76.3358 157.653 76.2312C157.493 76.1268 156.515 75.6741 155.481 75.2254C154.447 74.7767 153.36 74.2184 153.066 73.9846C152.772 73.7505 152.048 73.3483 151.459 73.0909C150.869 72.8332 150.057 72.3326 149.652 71.9781C149.249 71.6236 148.805 71.3334 148.668 71.3332C148.146 71.3324 139.86 64.6105 139.602 63.9788C139.518 63.7722 139.296 63.6032 139.109 63.6029C138.922 63.6026 138.518 63.2212 138.211 62.7554C137.904 62.2895 137.317 61.6379 136.906 61.3074C136.496 60.9769 136.16 60.6425 136.16 60.5643C136.16 60.4861 135.538 59.6168 134.778 58.6325C134.018 57.6485 133.393 56.6985 133.389 56.5217C133.386 56.3449 133.161 55.9588 132.891 55.6637C132.62 55.3686 132.396 55.0065 132.393 54.8593C132.391 54.7118 132.277 54.5912 132.141 54.591C132.005 54.5908 131.816 54.3252 131.722 54.001C131.628 53.6768 131.23 52.7468 130.838 51.9341C130.447 51.1217 130.127 50.2775 130.127 50.0578C130.127 49.8384 130.024 49.6586 129.897 49.6584C129.676 49.6581 129.537 49.2266 128.726 46.0187C128.039 43.3037 127.767 39.1644 128.104 36.5588C128.412 34.1831 129.267 30.9215 129.708 30.4435C129.834 30.3069 130.374 29.4679 130.907 28.5792C131.442 27.6905 132.346 26.5501 132.917 26.0453C133.488 25.5402 134.013 24.9794 134.083 24.7986C134.153 24.6181 134.523 24.3107 134.905 24.1156C135.287 23.9206 135.883 23.5382 136.231 23.2659C137.638 22.162 139.424 21.5022 141.695 21.248C142.368 21.1726 142.995 21.0115 143.089 20.8902C143.205 20.7389 143.364 20.7407 143.593 20.896C143.777 21.0206 144.62 21.1878 145.467 21.2674C146.313 21.3469 147.592 21.595 148.308 21.8186C149.62 22.2285 153.883 24.5151 153.882 24.8085C153.882 24.8955 154.39 25.3965 155.01 25.9219C155.631 26.4473 156.14 26.9515 156.143 27.0424C156.148 27.2042 157.394 28.9172 157.662 29.1298C158.009 29.4053 158.981 31.749 159.285 33.0434C159.47 33.8289 160.172 33.8133 161.235 32.9998C161.691 32.6508 162.461 32.1428 162.945 31.871C163.429 31.5994 163.949 31.1659 164.101 30.9081C164.253 30.6501 164.653 30.2528 164.989 30.0249C165.326 29.7972 165.883 29.1442 166.227 28.5739C166.571 28.0037 166.998 27.4603 167.175 27.3663C167.352 27.2723 167.497 27.0132 167.498 26.7901C167.498 26.5672 167.595 26.3342 167.714 26.2725C167.832 26.2105 168.18 25.3616 168.487 24.3859C168.794 23.41 169.154 22.3157 169.286 21.954C169.608 21.0709 169.606 16.1387 169.284 15.9687C169.145 15.8956 169.032 15.6155 169.033 15.3464C169.034 14.5601 167.522 11.0403 167.043 10.7147C166.956 10.6556 166.5 10.0576 166.03 9.3861C165.559 8.71436 164.854 7.96295 164.463 7.7163C164.072 7.46965 163.752 7.16975 163.752 7.05017C163.753 6.76664 162.593 5.77855 162.259 5.77801C162.117 5.77778 161.826 5.55058 161.613 5.27292C161.4 4.99528 160.722 4.54736 160.107 4.27721C159.492 4.00727 158.753 3.5998 158.466 3.37153C158.179 3.14349 157.182 2.66657 156.251 2.31169C155.319 1.95702 154.216 1.53476 153.801 1.37379C152.939 1.04024 151.886 0.779682 149.893 0.40724C148.214 0.093383 140.545 0.211834 138.67 0.580427C137.976 0.716904 137.096 0.882615 136.714 0.949081C136.333 1.01555 136.02 1.14771 136.02 1.24264C136.02 1.33779 135.424 1.58178 134.695 1.78528C133.197 2.20355 131.511 2.90035 131.023 3.30332C130.843 3.45197 130.327 3.722 129.875 3.90322C127.834 4.72223 122.477 9.24038 121.37 11.0756C121.088 11.5436 120.771 11.9263 120.666 11.9262C120.561 11.926 120.1 12.6243 119.643 13.4782C119.185 14.3321 118.708 15.1751 118.582 15.3517C117.925 16.2713 117.552 17.1654 116.96 19.2357C116.603 20.4888 116.309 21.6985 116.309 21.9242C116.309 22.1498 116.199 22.4272 116.065 22.5403C115.571 22.9583 114.949 30.1791 115.18 32.812Z" fill="url(#paint5_linear_1528_3383)"/>
<path fill-rule="evenodd" clip-rule="evenodd" d="M608.671 94.058C608.365 94.2743 606.551 94.7551 604.463 95.1727C602.824 95.5008 601.69 95.8372 601.69 95.9956C601.69 96.0821 601.151 96.2851 600.493 96.4466C599.834 96.6082 598.849 96.9203 598.303 97.14C597.757 97.3597 597.17 97.5396 596.998 97.5398C596.825 97.5401 596.518 97.6827 596.314 97.8566C595.887 98.2207 593.462 99.4393 592.806 99.6193C592.564 99.6859 592.365 99.8094 592.366 99.8939C592.366 99.9785 591.726 100.424 590.944 100.883C590.162 101.342 589.204 101.963 588.815 102.261C588.426 102.56 587.476 103.24 586.703 103.771C585.931 104.303 584.853 105.1 584.309 105.543C583.764 105.986 583.229 106.352 583.119 106.357C583.01 106.362 582.528 106.652 582.048 107.002C581.569 107.351 581.042 107.638 580.878 107.638C580.715 107.638 580.52 107.773 580.446 107.937C580.264 108.342 577.814 109.31 576.522 109.488C575.946 109.567 575.414 109.716 575.34 109.818C575.164 110.061 571.775 110.066 571.598 109.824C571.523 109.722 570.913 109.577 570.241 109.503C569.164 109.383 568.115 109.107 565.585 108.278C565.203 108.153 564.89 107.963 564.89 107.857C564.89 107.751 564.691 107.662 564.448 107.66C564.206 107.657 563.723 107.467 563.376 107.237C563.029 107.007 562.599 106.817 562.42 106.815C562.117 106.811 560.881 106.224 560.599 105.95C560.53 105.883 559.791 105.553 558.958 105.217C557.126 104.479 554.543 104.209 554.544 104.756C554.544 104.945 554.857 105.266 555.239 105.47C559.324 107.656 564.184 111.712 566.793 115.114C568.35 117.145 568.894 118.288 568.473 118.646C568.294 118.799 566.594 118.882 563.591 118.882C559.487 118.884 558.834 118.834 557.608 118.426C556.851 118.175 556.135 117.823 556.018 117.645C555.9 117.467 555.643 117.322 555.447 117.322C554.733 117.324 552.366 115.916 550.026 114.101C549.485 113.681 548.567 113.059 547.988 112.719C547.408 112.379 546.876 111.972 546.804 111.815C546.67 111.519 544.117 110.054 543.737 110.055C543.619 110.055 543.472 111.044 543.409 112.252C543.286 114.623 542.761 115.917 541.651 116.58C540.71 117.143 540.104 116.988 538.997 115.902C538.428 115.343 537.525 114.495 536.992 114.017C533.581 110.958 532.612 110.037 532.612 109.852C532.611 109.738 532.46 109.644 532.275 109.645C532.09 109.645 531.421 109.188 530.79 108.629C529.387 107.388 528.037 106.446 527.653 106.441C527.496 106.439 527.197 106.218 526.989 105.95C526.781 105.681 526.076 105.229 525.422 104.944C524.767 104.659 523.987 104.207 523.687 103.939C523.387 103.671 523.026 103.45 522.885 103.448C522.744 103.447 522.21 103.205 521.699 102.911C521.189 102.617 520.623 102.375 520.442 102.374C520.261 102.372 519.845 102.131 519.518 101.839C519.191 101.547 518.763 101.308 518.568 101.309C518.373 101.309 518.015 101.217 517.774 101.105C516.395 100.462 513.267 99.3497 511.405 98.8394C510.226 98.516 509.204 98.1846 509.134 98.1031C509.065 98.0213 507.702 97.6976 506.106 97.3836C504.51 97.0696 502.856 96.7214 502.43 96.6098C502.004 96.4982 501.351 96.4073 500.979 96.4079C500.608 96.4085 500.303 96.3211 500.303 96.2135C500.303 96.106 499.821 95.9565 499.231 95.8814C498.641 95.8063 497.563 95.6547 496.834 95.5449C493.414 95.0292 492.698 94.9363 490.338 94.7043C488.951 94.5677 487.248 94.3242 486.554 94.1629C485.86 94.0015 484.952 93.8442 484.536 93.8131C483.97 93.771 483.779 93.6487 483.778 93.3281C483.777 92.8765 483.887 92.8526 487.812 92.4462C488.644 92.36 489.39 92.2047 489.47 92.1013C489.55 91.9979 490.457 91.8174 491.487 91.7005C493.941 91.4216 496.033 91.1414 497.897 90.842C498.729 90.7084 499.864 90.5412 500.418 90.4707C500.973 90.4001 501.484 90.2703 501.553 90.1821C501.622 90.0941 502.87 89.8084 504.326 89.5472C508.008 88.887 509.691 88.4998 509.856 88.275C509.934 88.1694 510.508 87.9587 511.132 87.807C511.756 87.6552 512.374 87.4508 512.506 87.3525C512.638 87.2543 512.936 87.1737 513.168 87.1733C513.593 87.1726 514.963 86.7011 515.669 86.3127C515.877 86.1984 517.068 85.7014 518.315 85.2082C519.563 84.7153 520.64 84.2455 520.709 84.1644C520.778 84.0833 521.515 83.7045 522.347 83.3224C523.178 82.9404 523.972 82.5133 524.111 82.3734C524.249 82.2334 525.075 81.7482 525.946 81.2953C526.817 80.8421 527.95 80.1417 528.465 79.7386C528.979 79.3355 529.486 79.0051 529.591 79.0045C529.696 79.0037 530.284 78.5684 530.899 78.037C531.513 77.5056 532.082 77.0707 532.163 77.0706C532.358 77.0703 535.571 74.2577 535.57 74.0869C535.57 74.0137 535.964 73.6646 536.446 73.3113C536.928 72.9582 537.327 72.5726 537.333 72.4548C537.348 72.1566 538.989 70.6305 539.295 70.63C539.433 70.6298 539.61 70.4849 539.69 70.3079C539.957 69.7126 541.03 69.9387 541.829 70.7591C542.69 71.6441 543.019 72.6029 543.274 74.9663C543.373 75.8814 543.537 76.6737 543.639 76.7273C543.741 76.7807 544.096 76.5766 544.428 76.2739C544.76 75.9712 545.371 75.5776 545.787 75.3992C546.203 75.2209 546.94 74.7478 547.424 74.3478C549.105 72.9611 550.506 71.8979 550.665 71.8888C550.753 71.884 551.217 71.5939 551.697 71.2443C552.176 70.8948 552.703 70.6085 552.866 70.6083C553.03 70.608 553.224 70.4753 553.296 70.3133C553.436 70.0032 556.932 68.673 557.61 68.6719C557.828 68.6716 558.006 68.5886 558.006 68.4873C558.005 68.1294 561.705 67.7518 563.973 67.8785C567.6 68.0812 568.459 68.2561 568.553 68.8117C568.639 69.3197 567.176 71.8712 566.798 71.8718C566.675 71.872 566.474 72.0892 566.351 72.3547C566.122 72.8462 565.77 73.2503 563.89 75.1808C562.414 76.6968 561.93 77.1097 559.917 78.5751C556.908 80.7643 556.502 81.038 555.806 81.3428C555.065 81.6671 554.249 82.3506 554.25 82.6465C554.25 83.0276 555.061 83.0777 556.571 82.7907C557.423 82.6286 558.242 82.3988 558.391 82.28C558.54 82.1613 558.946 81.9569 559.292 81.8258C559.639 81.6947 560.415 81.38 561.017 81.1266C561.619 80.8731 562.266 80.6655 562.454 80.6652C562.642 80.6649 562.886 80.5306 562.997 80.3669C563.215 80.0444 566.021 78.9009 567.234 78.6401C567.646 78.5515 568.047 78.3898 568.126 78.2806C568.408 77.8916 571.195 77.4366 573.318 77.4332C575.467 77.4298 578.2 77.9138 578.201 78.2978C578.201 78.4073 578.343 78.4974 578.517 78.4977C579.18 78.4994 581.967 79.9111 582.553 80.5421C582.818 80.8273 583.17 81.0606 583.334 81.0603C583.499 81.0601 583.974 81.3947 584.389 81.804C584.805 82.2135 585.274 82.5503 585.431 82.5524C585.588 82.5547 586.127 82.9417 586.63 83.4124C587.132 83.8831 587.606 84.268 587.684 84.2679C587.834 84.2677 589.572 85.3898 590.439 86.0465C590.722 86.2606 591.635 86.7848 592.468 87.2114C593.301 87.6378 594.096 88.0956 594.235 88.2287C594.374 88.3615 595.226 88.7391 596.128 89.0676C597.03 89.3962 597.953 89.8004 598.178 89.9661C598.403 90.1319 599.699 90.5944 601.057 90.9939C602.416 91.3935 603.594 91.8084 603.677 91.9161C603.759 92.024 604.167 92.1652 604.583 92.2301C604.999 92.2948 605.794 92.4604 606.349 92.5982C606.904 92.7358 607.728 92.8975 608.178 92.9576C609.052 93.0741 609.294 93.6166 608.671 94.058Z" fill="url(#paint6_linear_1528_3383)"/>
<path fill-rule="evenodd" clip-rule="evenodd" d="M571.04 92.8801C570.069 92.7377 568.864 92.533 568.362 92.4252C567.86 92.3175 566.99 92.23 566.428 92.2309C565.835 92.2319 565.362 92.1203 565.301 91.9648C565.155 91.5935 551.855 91.6006 550.965 91.9724C550.631 92.1118 549.772 92.338 549.055 92.4748C547.38 92.7951 546.843 93.1255 547.061 93.7042C547.517 94.919 551.603 95.3685 560.326 95.164C567.396 94.9984 572.244 94.4649 573.231 93.7446C573.667 93.4265 573.668 93.4008 573.249 93.2735C573.006 93.1995 572.012 93.0224 571.04 92.8801Z" fill="url(#paint7_linear_1528_3383)"/>
<path fill-rule="evenodd" clip-rule="evenodd" d="M555.485 134.128C554.209 135.125 551.713 136.329 550.09 136.731C549.313 136.923 548.337 137.211 547.922 137.371C546.746 137.824 545.674 137.946 541.872 138.063C537.388 138.2 536.712 138.048 532.68 135.994C531.55 135.418 528.865 132.614 528.232 131.349C528.041 130.966 527.782 130.653 527.657 130.653C527.533 130.653 527.227 130.271 526.977 129.803C526.728 129.336 526.313 128.791 526.054 128.593C525.796 128.395 525.584 128.055 525.583 127.837C525.583 127.62 525.422 127.442 525.225 127.442C525.029 127.443 524.817 127.322 524.755 127.175C524.693 127.028 524.574 126.96 524.491 127.025C524.316 127.161 524.968 129.101 525.306 129.455C525.646 129.809 527.362 134.792 527.363 135.426C527.364 135.728 527.498 136.013 527.661 136.059C528.051 136.169 528.096 140.059 527.715 140.754C527.561 141.033 527.294 141.792 527.121 142.441C526.726 143.918 525.633 145.769 524.626 146.666C524.202 147.043 523.855 147.43 523.855 147.527C523.855 147.623 523.544 147.894 523.163 148.129C522.782 148.364 522.187 148.802 521.841 149.103C521.066 149.776 518.918 150.812 518.294 150.813C518.04 150.813 517.743 150.939 517.632 151.093C517.522 151.247 516.562 151.586 515.499 151.847C513.264 152.395 511.506 152.476 511.506 152.031C511.505 151.78 511.907 150.814 512.767 149C513.534 147.381 513.771 143.019 513.233 140.44C512.439 136.64 511.568 133.693 511.167 133.454C511.058 133.388 510.572 132.384 510.087 131.221C509.602 130.059 509.102 129.052 508.977 128.984C508.852 128.917 508.322 128.097 507.799 127.163C507.276 126.228 506.626 125.265 506.354 125.022C506.082 124.779 505.633 124.177 505.355 123.684C505.079 123.19 504.577 122.635 504.241 122.448C503.905 122.262 503.629 121.991 503.627 121.847C503.625 121.702 503.198 121.196 502.679 120.723C502.16 120.249 501.306 119.419 500.782 118.877C499.546 117.599 497.553 115.916 496.082 114.908C495.44 114.467 494.8 113.995 494.662 113.859C494.523 113.722 493.784 113.247 493.02 112.802C492.256 112.357 491.518 111.88 491.379 111.743C491.24 111.605 490.595 111.237 489.945 110.924C489.295 110.612 488.614 110.234 488.43 110.084C488.247 109.934 487.245 109.437 486.203 108.981C485.162 108.524 484.272 108.069 484.226 107.971C484.179 107.873 484.036 107.792 483.908 107.793C483.779 107.793 483.192 107.609 482.604 107.384C482.015 107.159 481.08 106.851 480.524 106.7C479.969 106.549 479.345 106.314 479.136 106.178C478.928 106.042 478.36 105.86 477.874 105.774C477.389 105.687 476.537 105.529 475.982 105.422C474.471 105.13 467.981 104.424 465.316 104.261C464.028 104.183 462.914 104.037 462.841 103.937C462.768 103.837 461.76 103.756 460.6 103.758C459.441 103.76 458.312 103.703 458.093 103.632C457.483 103.435 457.616 102.79 458.322 102.515C458.669 102.38 458.952 102.186 458.952 102.083C458.952 101.888 461.377 100.979 463.11 100.526C463.665 100.38 464.175 100.189 464.245 100.101C464.491 99.7855 469.398 99.0139 473.156 98.6992C479.152 98.1976 485.243 98.2937 492.49 99.0045C495.817 99.3307 499.653 99.8749 499.932 100.06C500.071 100.152 500.638 100.295 501.193 100.378C501.748 100.46 502.827 100.667 503.59 100.837C504.353 101.007 505.659 101.297 506.492 101.482C507.324 101.667 508.119 101.937 508.258 102.083C508.397 102.227 508.795 102.393 509.142 102.451C510.241 102.635 513.8 103.765 514.063 104.014C514.202 104.146 514.826 104.418 515.451 104.618C516.076 104.818 517.382 105.381 518.354 105.867C519.326 106.354 520.65 106.977 521.297 107.251C521.944 107.526 522.537 107.89 522.615 108.062C522.693 108.233 522.87 108.373 523.008 108.373C523.4 108.372 525.352 109.474 526.317 110.242C526.798 110.623 527.302 110.936 527.438 110.936C527.697 110.937 528.061 111.226 531.677 114.297C535.004 117.122 536.663 118.886 536.665 119.597C536.665 119.776 536.82 119.923 537.01 119.923C537.199 119.923 537.711 120.597 538.147 121.421C538.583 122.246 539.053 122.92 539.192 122.92C539.331 122.919 539.446 123.051 539.446 123.211C539.448 124.194 543.224 129.757 543.896 129.766C544.048 129.768 544.374 129.958 544.621 130.19C544.868 130.421 545.567 130.77 546.175 130.966C546.782 131.162 547.28 131.395 547.28 131.483C547.281 131.783 550.458 132.291 553.335 132.45C556.735 132.638 557.064 132.895 555.485 134.128Z" fill="url(#paint8_linear_1528_3383)"/>
<path fill-rule="evenodd" clip-rule="evenodd" d="M554.815 53.8885C553.168 53.8912 548.82 54.3326 548.522 54.5274C548.383 54.6183 547.645 54.8732 546.883 55.0934C546.12 55.3139 545.156 55.6902 544.741 55.9296C543.662 56.5513 541.593 58.4114 541.593 58.7592C541.594 58.9208 541.506 59.0532 541.399 59.0533C541.122 59.0538 539.33 62.211 539.331 62.6974C539.331 62.8166 539.233 62.9143 539.113 62.9145C538.993 62.9146 538.524 63.6419 538.07 64.5307C537.616 65.4195 537.118 66.216 536.964 66.3005C536.809 66.3851 536.402 66.937 536.058 67.5269C535.714 68.1168 535.008 68.9811 534.489 69.4476C533.969 69.9143 533.545 70.3792 533.545 70.4806C533.546 70.7761 529.974 73.8421 529.47 73.979C529.218 74.0473 529.012 74.1979 529.013 74.3134C529.013 74.5496 527.738 75.5593 527.426 75.5703C527.315 75.5743 526.816 75.9156 526.317 76.329C525.818 76.7423 525.296 77.0807 525.157 77.0809C525.018 77.0811 524.533 77.323 524.078 77.6184C523.624 77.9138 523.144 78.1556 523.011 78.1558C522.878 78.156 522.714 78.277 522.648 78.4243C522.582 78.5718 521.781 79.0225 520.869 79.426C519.957 79.8293 519.153 80.2885 519.081 80.4466C519.01 80.6046 518.789 80.7342 518.59 80.7346C518.391 80.7349 517.735 80.9425 517.133 81.196C516.531 81.4494 515.754 81.7639 515.408 81.8947C515.061 82.0258 514.687 82.2538 514.576 82.4014C514.466 82.5493 514.175 82.6704 513.931 82.6708C513.686 82.6712 513.017 82.8651 512.443 83.1018C511.869 83.3384 511.284 83.5322 511.143 83.5325C511.002 83.5327 510.287 83.765 509.556 84.0491C508.824 84.3329 507.771 84.6788 507.217 84.8177C505.049 85.3608 501.391 86.1088 500.872 86.115C500.571 86.1185 500.288 86.2132 500.242 86.3256C500.123 86.6146 497.463 86.9723 488.909 87.8493C485.732 88.1749 475.969 88.1381 472.418 87.7872C468.731 87.423 464.376 86.6767 464.261 86.3899C464.214 86.274 463.963 86.1797 463.702 86.1801C462.706 86.1817 458.162 84.5914 458.161 84.241C458.161 84.1497 457.934 84.014 457.656 83.9396C457.121 83.7963 456.978 83.3064 457.406 83.0809C457.547 83.0067 459.375 82.8561 461.469 82.7463C463.564 82.6364 465.406 82.4593 465.563 82.3525C465.721 82.2455 466.701 82.1004 467.741 82.0299C469.769 81.8923 472.46 81.5762 474.297 81.2603C477.42 80.723 478.094 80.5826 478.51 80.3841C478.897 80.199 482.622 79.051 483.939 78.7105C484.182 78.6477 484.38 78.5251 484.38 78.4381C484.38 78.3509 485.247 77.9088 486.307 77.4554C487.368 77.0022 488.507 76.4168 488.839 76.1544C489.171 75.892 489.806 75.5283 490.25 75.3461C490.694 75.1641 491.432 74.7202 491.891 74.3596C492.349 73.9991 492.803 73.7035 492.898 73.7027C492.994 73.7021 493.475 73.3878 493.969 73.0045C494.462 72.6212 495.377 71.9523 496.003 71.5178C496.932 70.8732 500.069 68.2238 501.131 67.1864C502.145 66.1962 503.467 64.6959 503.759 64.2034C503.952 63.879 504.198 63.6133 504.307 63.6132C504.415 63.613 504.908 63.0242 505.403 62.3048C505.897 61.5855 506.465 60.8576 506.665 60.6871C506.864 60.5169 507.388 59.7297 507.828 58.938C508.268 58.1463 508.722 57.4457 508.837 57.381C508.952 57.3163 509.461 56.3029 509.967 55.129C510.473 53.9551 510.967 52.9462 511.065 52.8871C511.162 52.828 511.308 52.5385 511.387 52.2437C511.467 51.9489 511.662 51.3218 511.82 50.85C512.949 47.4768 513.532 42.6371 513.08 40.3876C512.629 38.1403 511.754 35.9205 511.099 35.3581C510.784 35.088 510.527 34.7725 510.526 34.6572C510.526 34.3349 511.599 34.0591 512.43 34.1685C513.955 34.3695 515.705 34.7254 515.949 34.8844C516.088 34.9751 516.908 35.2905 517.77 35.5855C519.323 36.1166 523.649 38.5993 523.649 38.9597C523.65 39.1459 524.176 39.7497 524.932 40.4304C525.967 41.3618 527.191 44.4499 527.194 46.1379C527.195 46.6336 527.325 47.076 527.484 47.1205C527.7 47.1814 527.701 47.3162 527.485 47.6601C527.327 47.9121 527.199 48.7479 527.2 49.5173C527.202 50.2864 526.976 51.7637 526.7 52.8001C526.239 54.5264 525.983 55.1916 525.065 57.0436C524.34 58.5091 524.215 58.7832 524.051 59.2802L523.878 59.801L524.627 59.2793C525.441 58.7126 525.485 58.6575 526.55 56.8623C526.946 56.1939 527.368 55.647 527.486 55.6468C527.604 55.6466 527.998 55.1104 528.362 54.4555C528.725 53.8005 529.238 53.1497 529.501 53.0091C529.765 52.8687 529.98 52.6322 529.98 52.4837C529.98 52.3354 530.065 52.212 530.169 52.2097C530.273 52.2074 531.072 51.6282 531.945 50.9224C532.818 50.2166 533.838 49.5739 534.212 49.4943C534.586 49.4146 535.259 49.1741 535.708 48.9599C537.759 47.9809 544.186 47.8605 546.493 48.7577C546.77 48.8657 547.47 49.0553 548.047 49.1789C549.448 49.4786 551.918 50.4457 551.919 50.6943C551.919 50.8036 552.089 50.8926 552.297 50.8923C552.505 50.892 552.676 50.9881 552.676 51.106C552.676 51.2239 552.875 51.323 553.118 51.3265C553.6 51.333 554.948 52.2465 554.949 52.5671C554.949 52.6771 555.176 52.8169 555.454 52.8781C555.756 52.9447 555.959 53.1696 555.959 53.4379C555.96 53.8275 555.809 53.8869 554.815 53.8885Z" fill="url(#paint9_linear_1528_3383)"/>
<path fill-rule="evenodd" clip-rule="evenodd" d="M498.247 157.917C498.195 158.447 498.043 159.984 497.91 161.331C497.777 162.678 497.553 163.879 497.411 164C497.27 164.121 497.154 164.429 497.155 164.685C497.157 165.741 495.479 170.565 495.11 170.566C494.993 170.566 494.896 170.658 494.897 170.769C494.897 171.149 493.032 174.319 492.706 174.492C492.528 174.586 492.382 174.787 492.382 174.938C492.383 175.09 491.935 175.628 491.387 176.134C490.839 176.64 490.358 177.132 490.317 177.227C489.971 178.041 484.438 182.284 483.443 182.498C483.093 182.573 482.723 182.759 482.621 182.912C482.423 183.209 479.231 184.521 478.705 184.522C478.532 184.522 478.166 184.654 477.892 184.816C477.619 184.977 476.601 185.289 475.631 185.509C473.023 186.101 464.628 186.112 461.759 185.528C460.649 185.302 459.684 185.049 459.615 184.966C459.545 184.883 459.034 184.656 458.479 184.462C456.234 183.677 455.072 183.189 455.071 183.032C455.071 182.94 454.645 182.696 454.124 182.489C452.459 181.827 448.338 178.472 447.516 177.109C447.235 176.642 446.815 176.1 446.585 175.904C446.034 175.438 444.457 171.595 444.455 170.715C444.454 170.338 444.34 169.97 444.201 169.897C444.057 169.822 443.947 168.721 443.944 167.326C443.942 165.931 444.048 164.83 444.192 164.754C444.33 164.681 444.443 164.333 444.442 163.981C444.44 162.908 445.663 160.039 446.715 158.652C447.261 157.931 447.708 157.247 447.708 157.132C447.708 157.018 448.478 156.272 449.421 155.476C452.25 153.085 452.67 152.811 453.403 152.885C453.995 152.944 454.122 153.112 454.513 154.344C455.117 156.248 455.363 156.722 456.4 157.97C456.892 158.564 457.296 159.126 457.296 159.219C457.296 159.417 460.065 161.865 461.344 162.798C462.527 163.661 463.54 164.103 466.063 164.855C468.523 165.588 471.458 165.722 472.803 165.162C473.227 164.986 474.368 164.54 475.338 164.17C476.308 163.801 477.329 163.286 477.606 163.026C477.883 162.765 478.534 162.282 479.054 161.953C479.573 161.623 479.999 161.238 479.999 161.096C480 160.955 480.368 160.505 480.817 160.096C481.267 159.688 481.756 159.157 481.904 158.916C482.052 158.675 482.294 158.285 482.44 158.049C482.587 157.814 482.861 157.331 483.05 156.977C483.239 156.623 483.487 156.275 483.601 156.204C483.715 156.132 483.908 155.746 484.03 155.346C484.151 154.945 484.424 154.039 484.635 153.331C485.394 150.792 485.584 147.497 485.159 144.277C484.748 141.16 483.857 137.145 483.533 136.949C483.427 136.885 482.953 135.842 482.48 134.631C482.006 133.421 481.469 132.325 481.285 132.196C481.102 132.067 480.952 131.862 480.951 131.741C480.95 131.322 479.584 129.117 478.499 127.786C477.901 127.051 477.41 126.348 477.41 126.225C477.41 126.101 477.131 125.764 476.792 125.476C476.452 125.189 475.833 124.534 475.417 124.022C474.527 122.927 467.771 117.034 467.407 117.034C467.269 117.035 466.655 116.602 466.041 116.072C465.428 115.543 464.839 115.11 464.732 115.11C464.626 115.11 463.585 114.533 462.42 113.828C461.255 113.122 460.195 112.546 460.063 112.546C459.932 112.546 459.604 112.373 459.335 112.161C458.731 111.685 455.447 110.196 455.005 110.197C454.826 110.197 454.681 110.112 454.681 110.007C454.68 109.81 451.003 108.485 450.466 108.488C450.299 108.489 450.072 108.362 449.961 108.206C449.85 108.05 449.56 107.861 449.317 107.785C449.074 107.71 448.875 107.449 448.875 107.205C448.874 106.799 448.982 106.772 450.198 106.882C451.839 107.031 454.046 107.373 455.072 107.638C455.499 107.748 456.029 107.838 456.25 107.837C456.472 107.837 456.975 107.971 457.368 108.135C457.761 108.3 458.537 108.547 459.092 108.684C460.595 109.055 462.859 109.813 463.008 109.995C463.08 110.083 464.017 110.502 465.09 110.928C466.164 111.353 467.042 111.792 467.042 111.903C467.043 112.015 467.192 112.106 467.373 112.105C467.555 112.105 467.933 112.286 468.213 112.507C468.493 112.727 468.972 112.975 469.278 113.057C469.583 113.139 470.256 113.535 470.773 113.937C471.29 114.339 471.833 114.668 471.979 114.669C472.126 114.669 472.65 114.983 473.144 115.366C473.639 115.75 474.598 116.427 475.277 116.872C477.769 118.504 483.631 123.617 485.732 125.991C486.08 126.383 486.563 126.899 486.806 127.137C487.05 127.375 487.249 127.65 487.249 127.75C487.249 127.849 487.629 128.292 488.093 128.734C488.557 129.175 489.268 130.063 489.673 130.707C490.078 131.35 490.556 132.011 490.735 132.176C490.915 132.34 491.395 133.066 491.803 133.789C492.211 134.511 492.658 135.247 492.796 135.424C493.219 135.964 493.935 137.392 494.461 138.743C494.737 139.45 495.037 140.076 495.128 140.135C495.49 140.367 497.117 146.256 497.121 147.347C497.122 147.602 497.23 147.843 497.362 147.882C497.792 148.01 498.469 155.681 498.247 157.917Z" fill="url(#paint10_linear_1528_3383)"/>
<path fill-rule="evenodd" clip-rule="evenodd" d="M498.014 33.0874C497.71 36.5514 497.376 39.0936 497.199 39.2913C497.087 39.4162 496.802 40.4346 496.565 41.5547C496.329 42.6748 496.04 43.8325 495.923 44.1274C495.806 44.4222 495.563 45.1217 495.383 45.6819C495.203 46.2422 494.976 46.7005 494.879 46.7007C494.781 46.7008 494.628 46.9893 494.537 47.3418C494.447 47.694 494.268 48.0377 494.14 48.1052C494.012 48.1724 493.908 48.4195 493.909 48.6539C493.909 48.8883 493.683 49.4798 493.407 49.9682C493.13 50.4566 492.904 50.9826 492.905 51.1374C492.905 51.2921 492.817 51.4187 492.71 51.4189C492.519 51.4192 492.318 51.7293 491.113 53.8777C490.784 54.4631 490.323 55.1278 490.088 55.3549C489.852 55.582 489.477 56.0965 489.254 56.4983C489.03 56.9 488.532 57.5386 488.146 57.9176C487.76 58.2965 487.4 58.7192 487.345 58.8573C487.167 59.3042 484.256 62.4232 483.155 63.3458C482.566 63.839 482.085 64.311 482.085 64.3946C482.085 64.5716 479.292 66.8848 477.02 68.5883C476.154 69.238 475.204 69.9628 474.91 70.199C474.616 70.4352 473.841 70.9668 473.188 71.3804C472.536 71.794 471.703 72.3416 471.338 72.5972C470.973 72.853 470.068 73.3328 469.327 73.6636C468.586 73.9946 467.98 74.3403 467.98 74.4323C467.98 74.524 466.999 74.9953 465.8 75.4797C464.6 75.9638 463.478 76.4797 463.307 76.6259C463.136 76.7721 461.82 77.2243 460.384 77.6307C458.948 78.0374 457.712 78.4389 457.638 78.5232C457.377 78.819 453.214 79.5607 451.029 79.7003C449.227 79.8157 448.824 79.7865 448.832 79.5415C448.841 79.2359 450.637 78.06 451.096 78.0592C451.235 78.059 451.545 77.9698 451.786 77.861C452.027 77.7522 452.904 77.4456 453.736 77.1798C454.568 76.9142 455.38 76.6112 455.541 76.5066C455.701 76.4022 456.679 75.9495 457.713 75.5008C458.747 75.0521 459.834 74.4938 460.128 74.26C460.422 74.0259 461.146 73.6237 461.735 73.3663C462.325 73.1086 463.137 72.608 463.542 72.2535C463.945 71.899 464.388 71.6088 464.526 71.6086C465.048 71.6077 473.334 64.8859 473.592 64.2541C473.676 64.0476 473.898 63.8786 474.085 63.8783C474.272 63.878 474.676 63.4966 474.983 63.0308C475.29 62.5649 475.877 61.9133 476.287 61.5828C476.698 61.2523 477.034 60.9179 477.034 60.8397C477.034 60.7615 477.656 59.8921 478.416 58.9079C479.176 57.9239 479.801 56.9739 479.805 56.7971C479.808 56.6203 480.032 56.2342 480.303 55.9391C480.574 55.644 480.798 55.2819 480.801 55.1347C480.803 54.9872 480.917 54.8666 481.053 54.8664C481.189 54.8662 481.378 54.6006 481.472 54.2764C481.566 53.9522 481.964 53.0222 482.356 52.2095C482.747 51.3971 483.067 50.5529 483.067 50.3332C483.067 50.1138 483.17 49.934 483.297 49.9338C483.518 49.9335 483.657 49.502 484.468 46.2941C485.155 43.5791 485.427 39.4398 485.09 36.8342C484.782 34.4585 483.927 31.1969 483.486 30.7188C483.36 30.5823 482.82 29.7433 482.286 28.8546C481.752 27.9659 480.848 26.8255 480.277 26.3207C479.706 25.8156 479.181 25.2548 479.111 25.074C479.041 24.8935 478.671 24.5861 478.289 24.391C477.907 24.196 477.311 23.8136 476.963 23.5413C475.556 22.4373 473.769 21.7776 471.499 21.5234C470.826 21.448 470.199 21.2869 470.105 21.1656C469.989 21.0142 469.83 21.016 469.601 21.1714C469.417 21.2959 468.574 21.4632 467.727 21.5427C466.881 21.6223 465.602 21.8704 464.886 22.094C463.574 22.5039 459.311 24.7905 459.312 25.0839C459.312 25.1709 458.804 25.6719 458.184 26.1973C457.563 26.7227 457.054 27.2269 457.051 27.3178C457.046 27.4796 455.8 29.1926 455.532 29.4052C455.185 29.6807 454.213 32.0243 453.909 33.3188C453.724 34.1043 453.022 34.0887 451.959 33.2752C451.503 32.9262 450.733 32.4182 450.249 32.1464C449.765 31.8748 449.245 31.4413 449.093 31.1835C448.941 30.9255 448.541 30.5282 448.205 30.3003C447.868 30.0726 447.311 29.4196 446.967 28.8493C446.623 28.2791 446.196 27.7357 446.019 27.6417C445.842 27.5477 445.697 27.2886 445.696 27.0655C445.696 26.8426 445.599 26.6096 445.48 26.5479C445.362 26.4859 445.014 25.637 444.707 24.6613C444.4 23.6854 444.04 22.5911 443.908 22.2294C443.586 21.3463 443.588 16.4141 443.91 16.2441C444.049 16.171 444.162 15.8909 444.161 15.6218C444.16 14.8355 445.672 11.3157 446.151 10.9901C446.238 10.931 446.694 10.333 447.164 9.66149C447.635 8.98975 448.34 8.23834 448.731 7.99169C449.122 7.74504 449.442 7.44514 449.442 7.32556C449.441 7.04203 450.601 6.05394 450.935 6.0534C451.077 6.05317 451.368 5.82597 451.581 5.54832C451.794 5.27067 452.472 4.82275 453.087 4.5526C453.702 4.28266 454.44 3.87519 454.728 3.64692C455.015 3.41888 456.012 2.94196 456.943 2.58708C457.875 2.23241 458.978 1.81015 459.393 1.64918C460.255 1.31563 461.308 1.05507 463.301 0.68263C464.98 0.368774 472.649 0.487225 474.524 0.855818C475.218 0.992294 476.098 1.15801 476.48 1.22447C476.861 1.29094 477.173 1.4231 477.174 1.51803C477.174 1.61318 477.77 1.85717 478.499 2.06067C479.997 2.47894 481.683 3.17574 482.171 3.57871C482.351 3.72736 482.867 3.99739 483.319 4.17861C485.36 4.99762 490.717 9.51577 491.824 11.351C492.106 11.819 492.423 12.2017 492.528 12.2015C492.633 12.2014 493.094 12.8997 493.551 13.7536C494.009 14.6075 494.486 15.4505 494.612 15.6271C495.269 16.5467 495.642 17.4408 496.234 19.5111C496.591 20.7642 496.885 21.9739 496.885 22.1996C496.885 22.4252 496.995 22.7026 497.129 22.8157C497.623 23.2337 498.245 30.4545 498.014 33.0874Z" fill="url(#paint11_linear_1528_3383)"/>
<path fill-rule="evenodd" clip-rule="evenodd" d="M130.165 37.4065C130.028 37.6009 129.916 39.9036 129.916 42.5239C129.916 48.1024 128.878 50.7014 125.957 52.4369L123.945 53.6324L123.943 61.05C123.941 68.1925 123.88 68.527 122.301 70.0384C119.994 72.246 116.97 78.1098 115.854 82.542C115.32 84.6596 114.893 89.1308 114.874 92.7887C114.833 100.989 116.607 106.937 120.922 113.073L123.945 117.371V124.509V131.645L126.056 133.069C129.133 135.146 129.916 137.236 129.916 143.375V148.705L305.921 148.493L481.925 148.282L482.224 142.476C482.483 137.438 482.744 136.4 484.198 134.622C485.119 133.496 486.261 132.574 486.736 132.574C487.425 132.574 487.599 130.998 487.602 124.72L487.606 116.866L489.738 114.801C496.176 108.566 498.943 93.7507 495.888 81.8737C494.947 78.2184 493.723 75.723 491.111 72.1339L487.598 67.3086V60.4888C487.598 54.2744 487.479 53.5815 486.254 52.684C482.939 50.2531 482.224 48.5091 482.224 42.8483C482.224 37.8718 482.125 37.4702 480.88 37.3844C476.65 37.0923 130.371 37.1136 130.165 37.4065Z" fill="#713513"/>
<path d="M243.08 55.218C244.667 54.5647 245.973 54.238 247 54.238C250.08 54.238 252.507 55.8713 254.28 59.138C255.213 60.9113 256.193 63.618 257.22 67.258C258.34 70.8047 261.56 82.6113 266.88 102.678C267.72 105.571 268.887 109.911 270.38 115.698C270.94 117.845 271.36 119.058 271.64 119.338C272.013 119.711 272.433 119.805 272.9 119.618C273.367 119.431 273.6 119.011 273.6 118.358C273.6 116.771 268.7 98.1513 258.9 62.498C257.5 57.458 256.8 54.8447 256.8 54.658C256.8 54.4713 256.893 54.378 257.08 54.378C257.36 54.2847 257.687 54.2847 258.06 54.378C258.433 54.4713 258.76 54.6113 259.04 54.798C259.413 55.078 260.02 56.758 260.86 59.838C270.1 95.3047 274.907 113.225 275.28 113.598C276.493 109.585 279.153 99.9247 283.26 84.618C288.487 65.018 291.24 55.078 291.52 54.798C291.8 54.518 292.267 54.378 292.92 54.378C293.573 54.2847 293.9 54.4247 293.9 54.798C293.9 55.1713 293.06 58.3913 291.38 64.458C290.82 66.418 290.027 69.4047 289 73.418C287.973 77.4313 287.367 79.718 287.18 80.278C286.34 83.2647 282.793 96.4713 276.54 119.898C276.073 121.858 275.42 123.258 274.58 124.098C273.927 124.751 273.367 125.171 272.9 125.358C272.433 125.451 271.173 125.498 269.12 125.498C267.067 125.498 265.807 125.451 265.34 125.358C264.873 125.265 264.36 124.938 263.8 124.378C263.053 123.725 262.353 122.278 261.7 120.038C261.047 117.798 258.48 108.371 254 91.758C253.067 88.398 251.947 84.4313 250.64 79.858C249.427 75.1913 248.82 72.7647 248.82 72.578C246.487 63.8047 244.293 58.858 242.24 57.738C241.4 57.2713 240.98 56.898 240.98 56.618C240.98 56.4313 241.68 55.9647 243.08 55.218ZM303.689 72.158C301.916 70.2913 301.029 69.1247 301.029 68.658C301.029 68.1913 301.916 67.0247 303.689 65.158C305.462 63.2913 306.582 62.358 307.049 62.358C307.516 62.358 308.636 63.2913 310.409 65.158C312.276 66.9313 313.209 68.0513 313.209 68.518C313.209 68.9847 312.322 70.198 310.549 72.158C308.776 74.0247 307.656 74.958 307.189 74.958C306.722 74.958 305.556 74.0247 303.689 72.158ZM304.389 77.758C304.669 77.6647 305.182 77.618 305.929 77.618C307.889 77.618 309.382 77.898 310.409 78.458C311.622 79.1113 312.322 79.9047 312.509 80.838C312.882 82.238 313.116 88.4447 313.209 99.458C313.396 111.778 313.722 118.451 314.189 119.478C314.562 119.945 315.216 120.225 316.149 120.318C317.922 120.411 317.922 121.298 316.149 122.978C314.749 124.471 313.022 125.218 310.969 125.218C308.449 125.218 306.676 124.238 305.649 122.278C305.089 121.345 304.809 116.351 304.809 107.298V98.758C304.809 88.678 304.482 83.3113 303.829 82.658C303.362 82.1913 302.896 81.958 302.429 81.958C301.776 81.958 300.889 82.3313 299.769 83.078C298.649 83.8247 297.809 84.198 297.249 84.198C297.062 84.198 296.969 84.1047 296.969 83.918C296.969 83.638 297.529 82.8447 298.649 81.538C300.609 79.4847 302.522 78.2247 304.389 77.758ZM340.852 103.378C339.826 102.071 339.266 101.558 339.172 101.838L339.872 103.658C340.526 104.965 340.852 106.831 340.852 109.258C340.852 112.618 340.292 114.951 339.172 116.258C338.332 117.191 338.146 117.658 338.612 117.658C338.706 117.751 338.846 117.751 339.032 117.658C339.499 117.471 340.152 116.725 340.992 115.418C341.832 114.018 342.346 112.758 342.532 111.638C342.719 110.705 342.812 109.958 342.812 109.398C342.812 107.251 342.159 105.245 340.852 103.378ZM329.932 94.138C329.932 94.0447 329.839 93.998 329.652 93.998C329.559 93.998 329.512 94.0447 329.512 94.138C329.512 94.3247 329.559 94.418 329.652 94.418C329.839 94.418 329.932 94.3247 329.932 94.138ZM329.372 81.118C330.026 79.9047 330.352 79.1113 330.352 78.738L330.212 78.598C330.119 78.598 329.699 79.018 328.952 79.858C327.272 81.9113 326.432 84.2447 326.432 86.858C326.432 89.5647 327.272 91.6647 328.952 93.158C329.232 93.3447 329.372 93.438 329.372 93.438C329.372 93.3447 329.186 92.9713 328.812 92.318C328.346 91.3847 328.112 89.7047 328.112 87.278C328.112 84.8513 328.532 82.798 329.372 81.118ZM331.752 72.018C332.406 71.8313 333.386 71.738 334.692 71.738C338.986 71.738 342.486 73.2313 345.192 76.218C346.126 77.1513 346.592 78.4113 346.592 79.998C346.592 81.7713 345.892 83.498 344.492 85.178C342.626 87.2313 341.692 87.698 341.692 86.578C341.786 86.4847 341.832 86.3447 341.832 86.158C342.486 82.8913 342.812 81.118 342.812 80.838C342.812 79.998 342.159 79.1113 340.852 78.178C340.106 77.618 338.939 77.338 337.352 77.338C335.859 77.338 334.599 77.8047 333.572 78.738C331.239 80.8847 330.072 83.8713 330.072 87.698C330.072 91.2447 331.146 93.8113 333.292 95.398C334.132 96.1447 335.672 96.7513 337.912 97.218C340.059 97.778 341.552 98.2913 342.392 98.758C343.326 99.2247 344.399 100.111 345.612 101.418C348.039 103.845 349.252 106.971 349.252 110.798V111.638C348.972 117.705 346.219 121.951 340.992 124.378C339.126 125.218 336.932 125.638 334.412 125.638C332.266 125.638 330.492 125.358 329.092 124.798C326.946 123.958 325.172 122.745 323.772 121.158C322.466 119.571 321.812 117.938 321.812 116.258C321.812 115.325 321.999 114.531 322.372 113.878C323.212 112.291 324.099 111.498 325.032 111.498C325.219 111.498 325.406 112.385 325.592 114.158C326.152 117.891 327.739 119.758 330.352 119.758C333.152 119.758 335.532 118.078 337.492 114.718C338.239 113.411 338.612 111.638 338.612 109.398C338.612 106.598 338.099 104.498 337.072 103.098C336.046 101.605 334.226 100.485 331.612 99.738C326.852 98.338 323.539 95.6313 321.672 91.618C321.019 89.938 320.692 88.0713 320.692 86.018C320.692 83.498 321.066 81.4913 321.812 79.998C322.746 78.2247 324.146 76.5913 326.012 75.098C327.879 73.5113 329.792 72.4847 331.752 72.018ZM359.066 72.158C357.292 70.2913 356.406 69.1247 356.406 68.658C356.406 68.1913 357.292 67.0247 359.066 65.158C360.839 63.2913 361.959 62.358 362.426 62.358C362.892 62.358 364.012 63.2913 365.786 65.158C367.652 66.9313 368.586 68.0513 368.586 68.518C368.586 68.9847 367.699 70.198 365.926 72.158C364.152 74.0247 363.032 74.958 362.566 74.958C362.099 74.958 360.932 74.0247 359.066 72.158ZM359.766 77.758C360.046 77.6647 360.559 77.618 361.306 77.618C363.266 77.618 364.759 77.898 365.786 78.458C366.999 79.1113 367.699 79.9047 367.886 80.838C368.259 82.238 368.492 88.4447 368.586 99.458C368.772 111.778 369.099 118.451 369.566 119.478C369.939 119.945 370.592 120.225 371.526 120.318C373.299 120.411 373.299 121.298 371.526 122.978C370.126 124.471 368.399 125.218 366.346 125.218C363.826 125.218 362.052 124.238 361.026 122.278C360.466 121.345 360.186 116.351 360.186 107.298V98.758C360.186 88.678 359.859 83.3113 359.206 82.658C358.739 82.1913 358.272 81.958 357.806 81.958C357.152 81.958 356.266 82.3313 355.146 83.078C354.026 83.8247 353.186 84.198 352.626 84.198C352.439 84.198 352.346 84.1047 352.346 83.918C352.346 83.638 352.906 82.8447 354.026 81.538C355.986 79.4847 357.899 78.2247 359.766 77.758Z" fill="#FFDA88"/>
</g>
<defs>
<filter id="filter0_d_1528_3383" x="0.174805" y="0.226562" width="612.844" height="193.733" filterUnits="userSpaceOnUse" color-interpolation-filters="sRGB">
<feFlood flood-opacity="0" result="BackgroundImageFix"/>
<feColorMatrix in="SourceAlpha" type="matrix" values="0 0 0 0 0 0 0 0 0 0 0 0 0 0 0 0 0 0 127 0" result="hardAlpha"/>
<feOffset dy="4"/>
<feGaussianBlur stdDeviation="2"/>
<feComposite in2="hardAlpha" operator="out"/>
<feColorMatrix type="matrix" values="0 0 0 0 0 0 0 0 0 0 0 0 0 0 0 0 0 0 0.25 0"/>
<feBlend mode="normal" in2="BackgroundImageFix" result="effect1_dropShadow_1528_3383"/>
<feBlend mode="normal" in="SourceGraphic" in2="effect1_dropShadow_1528_3383" result="shape"/>
</filter>
<linearGradient id="paint0_linear_1528_3383" x1="4.17531" y1="93.0192" x2="129.415" y2="93.2566" gradientUnits="userSpaceOnUse">
<stop stop-color="#FFD200"/>
<stop offset="0.660327" stop-color="#CB381F"/>
<stop offset="0.826923" stop-color="#852816"/>
<stop offset="1" stop-color="#3F170D"/>
</linearGradient>
<linearGradient id="paint1_linear_1528_3383" x1="39.6336" y1="93.1507" x2="66.1793" y2="93.201" gradientUnits="userSpaceOnUse">
<stop stop-color="#FFD200"/>
<stop offset="0.660327" stop-color="#CB381F"/>
<stop offset="0.826923" stop-color="#852816"/>
<stop offset="1" stop-color="#3F170D"/>
</linearGradient>
<linearGradient id="paint2_linear_1528_3383" x1="56.8139" y1="124.981" x2="155.447" y2="125.168" gradientUnits="userSpaceOnUse">
<stop stop-color="#FFD200"/>
<stop offset="0.660327" stop-color="#CB381F"/>
<stop offset="0.826923" stop-color="#852816"/>
<stop offset="1" stop-color="#3F170D"/>
</linearGradient>
<linearGradient id="paint3_linear_1528_3383" x1="57.2189" y1="60.7395" x2="156.079" y2="60.9269" gradientUnits="userSpaceOnUse">
<stop stop-color="#FFD200"/>
<stop offset="0.660327" stop-color="#CB381F"/>
<stop offset="0.826923" stop-color="#852816"/>
<stop offset="1" stop-color="#3F170D"/>
</linearGradient>
<linearGradient id="paint4_linear_1528_3383" x1="114.923" y1="146.055" x2="169.289" y2="146.158" gradientUnits="userSpaceOnUse">
<stop stop-color="#FFD200"/>
<stop offset="0.660327" stop-color="#CB381F"/>
<stop offset="0.826923" stop-color="#852816"/>
<stop offset="1" stop-color="#3F170D"/>
</linearGradient>
<linearGradient id="paint5_linear_1528_3383" x1="115.115" y1="39.7947" x2="169.486" y2="39.8977" gradientUnits="userSpaceOnUse">
<stop stop-color="#FFD200"/>
<stop offset="0.660327" stop-color="#CB381F"/>
<stop offset="0.826923" stop-color="#852816"/>
<stop offset="1" stop-color="#3F170D"/>
</linearGradient>
<linearGradient id="paint6_linear_1528_3383" x1="609.019" y1="93.2946" x2="483.779" y2="93.532" gradientUnits="userSpaceOnUse">
<stop stop-color="#FFD200"/>
<stop offset="0.660327" stop-color="#CB381F"/>
<stop offset="0.826923" stop-color="#852816"/>
<stop offset="1" stop-color="#3F170D"/>
</linearGradient>
<linearGradient id="paint7_linear_1528_3383" x1="573.56" y1="93.4251" x2="547.015" y2="93.4754" gradientUnits="userSpaceOnUse">
<stop stop-color="#FFD200"/>
<stop offset="0.660327" stop-color="#CB381F"/>
<stop offset="0.826923" stop-color="#852816"/>
<stop offset="1" stop-color="#3F170D"/>
</linearGradient>
<linearGradient id="paint8_linear_1528_3383" x1="556.38" y1="125.255" x2="457.747" y2="125.442" gradientUnits="userSpaceOnUse">
<stop stop-color="#FFD200"/>
<stop offset="0.660327" stop-color="#CB381F"/>
<stop offset="0.826923" stop-color="#852816"/>
<stop offset="1" stop-color="#3F170D"/>
</linearGradient>
<linearGradient id="paint9_linear_1528_3383" x1="555.973" y1="61.0139" x2="457.113" y2="61.2013" gradientUnits="userSpaceOnUse">
<stop stop-color="#FFD200"/>
<stop offset="0.660327" stop-color="#CB381F"/>
<stop offset="0.826923" stop-color="#852816"/>
<stop offset="1" stop-color="#3F170D"/>
</linearGradient>
<linearGradient id="paint10_linear_1528_3383" x1="498.271" y1="146.33" x2="443.905" y2="146.433" gradientUnits="userSpaceOnUse">
<stop stop-color="#FFD200"/>
<stop offset="0.660327" stop-color="#CB381F"/>
<stop offset="0.826923" stop-color="#852816"/>
<stop offset="1" stop-color="#3F170D"/>
</linearGradient>
<linearGradient id="paint11_linear_1528_3383" x1="498.079" y1="40.0701" x2="443.708" y2="40.1731" gradientUnits="userSpaceOnUse">
<stop stop-color="#FFD200"/>
<stop offset="0.660327" stop-color="#CB381F"/>
<stop offset="0.826923" stop-color="#852816"/>
<stop offset="1" stop-color="#3F170D"/>
</linearGradient>
</defs>
</svg>
