<svg width="371" height="365" viewBox="0 0 371 365" fill="none" xmlns="http://www.w3.org/2000/svg">
<g filter="url(#filter0_d_1528_4194)">
<path fill-rule="evenodd" clip-rule="evenodd" d="M183.754 0.930037C183.55 1.44156 183.181 2.86451 182.936 4.09216C181.564 10.9417 178.181 18.3329 174.082 23.4369C171.841 26.227 167.831 29.945 165.432 31.4557C159.048 35.4764 157.255 36.7127 155.437 38.3473C153.17 40.3856 150.757 43.4387 149.138 46.3158C146.643 50.7529 144.492 59.4632 144.015 67.0668C143.777 70.858 143.456 72.0786 142.856 71.4782C142.376 70.9986 141.261 65.2719 140.852 61.1942C140.329 55.9696 140.828 48.2983 142.012 43.3613C143.79 35.9519 148.323 29.5662 153.653 26.9644C155.816 25.9082 156.762 25.6839 160.034 25.4503C164.203 25.1527 165.436 24.7349 165.436 23.6192C165.436 21.9612 160.299 20.7056 156.39 21.4083C151.663 22.2584 147.245 25.2085 143.851 29.7813C137.089 38.8908 135.223 55.2807 139.259 70.1248C141.242 77.4185 141.265 78.4367 139.392 76.077C124.092 56.7959 119.504 52.7216 109.158 49.2287C104.753 47.7418 98.2389 47.3426 94.4075 48.3251C88.3243 49.8853 83.4558 53.9012 84.4639 56.528C84.6328 56.9685 85.3151 56.8074 88.1312 55.6616C93.5322 53.4641 96.5351 52.8254 101.449 52.8302C104.878 52.8332 106.281 53.0062 108.517 53.7022C112.586 54.9682 117.186 57.4748 120.828 60.41C126.053 64.6219 139.018 79.5539 138.178 80.3935C138.063 80.5085 136.512 79.2492 134.731 77.5952C129.033 72.3026 123.472 68.4649 118.934 66.6922C114.794 65.0751 112.076 64.767 105.191 65.1335C95.1813 65.6662 87.8984 65.5516 84.8133 64.8124C80.6147 63.8065 74.5654 61.5171 69.0837 58.8594C60.4623 54.6799 56.9821 53.232 56.4092 53.5861C56.2336 53.6948 57.1755 55.242 58.5021 57.025C62.0731 61.8244 65.204 68.3239 66.1578 72.9175C67.2936 78.3887 66.9848 82.5851 64.8212 91.0841C62.8075 98.9939 62.5943 102.899 63.903 107.907C65.2758 113.159 69.0004 119.807 72.9326 124.023C77.0515 128.438 90.241 136.396 101.076 141.003C105.747 142.989 122.765 150.535 125.523 151.845C127.107 152.596 127.115 153.221 125.537 152.887C123.915 152.543 116.281 149.48 111.679 147.328C109.633 146.371 105.03 144.334 101.449 142.8C97.8684 141.266 93.181 139.129 91.0326 138.051C80.5775 132.804 75.3838 130.042 73.1759 128.554C65.2319 123.2 58.6614 115.706 55.7228 108.647C53.8404 104.125 53.3561 101.403 53.5689 96.5378C53.795 91.3579 54.6927 88.2334 56.8005 85.2896C57.6227 84.1419 58.2953 83.0222 58.2953 82.8019C58.2953 82.5709 57.5316 82.4013 56.4903 82.4013C51.8293 82.4013 49.0169 87.7895 49.0013 96.7484C48.9886 104.115 50.743 109.516 55.3541 116.306C58.828 121.422 67.2817 129.014 74.4556 133.463C76.0251 134.435 77.2048 135.401 77.0768 135.608C76.9492 135.814 76.7305 135.914 76.5914 135.828C76.4519 135.743 73.9709 135.238 71.0781 134.706C66.7731 133.915 64.7126 133.741 59.7316 133.747C53.3404 133.756 49.9038 134.275 45.0903 135.958C41.5758 137.187 36.3185 140.283 33.6382 142.703C29.5319 146.409 26.3009 152.113 26.3028 155.654C26.3031 157.033 27.3195 159.466 27.9761 159.66C28.5181 159.821 29.7655 157.673 30.4991 155.316C33.3986 146.004 41.4412 139.985 53.6235 138.009C61.7774 136.686 78.3852 138.021 79.0627 140.054C79.1891 140.432 78.4246 140.478 75.3618 140.274C68.2605 139.802 60.9887 140.952 55.5037 143.412C50.111 145.832 46.6412 148.743 40.4304 156.06C38.4334 158.413 36.1534 160.952 35.3636 161.702C29.8321 166.957 19.2948 172.702 10.3054 175.363C7.33858 176.241 4.70211 177.023 4.44616 177.101C3.36137 177.43 4.19468 177.912 7.60829 178.929C20.6742 182.823 31.3562 190.242 40.1012 201.496C45.4362 208.362 49.9819 211.959 56.4817 214.459C62.0921 216.618 70.8021 218.069 75.3131 217.599C77.7111 217.349 81.7326 217.676 81.7318 218.12C81.7307 218.583 77.1486 219.727 73.1852 220.255C64.1196 221.462 54.474 220.654 46.7811 218.042C38.1946 215.128 33.7628 210.772 30.3938 201.938C29.7558 200.265 29.014 198.714 28.7451 198.491C27.9951 197.868 27.203 198.372 26.5077 199.915C25.9166 201.225 25.9155 201.469 26.4925 203.706C29.0869 213.759 38.1581 220.799 52.1571 223.623C56.5703 224.513 65.6374 224.516 72.2458 223.63C74.9058 223.273 77.3752 222.895 77.7331 222.791C79.3781 222.31 78.0675 223.503 74.7636 225.493C67.1831 230.058 58.9698 237.476 55.2094 243.153C52.5413 247.18 50.3115 251.913 49.3186 255.655C48.3022 259.484 48.2163 266.424 49.1426 269.851C49.7762 272.194 50.0741 272.813 51.9115 275.593C53.4587 277.935 56.5178 279.341 58.4508 278.599C59.3362 278.26 59.1781 277.738 57.6249 275.873C55.5357 273.365 54.7124 271.846 53.9807 269.153C53.061 265.768 53.051 259.08 53.9598 255.388C54.965 251.305 57.8329 245.665 60.7394 242.055C63.6438 238.448 70.3329 232.286 74.1647 229.688C76.7736 227.919 80.9588 225.627 81.5797 225.627C81.7519 225.627 79.3592 228.18 76.2618 231.3C73.1647 234.421 70.1797 237.523 69.6287 238.193C67.5551 240.719 64.9451 245.596 63.8264 249.036C62.7714 252.28 62.668 253.03 62.6691 257.434C62.6698 261.843 62.7907 262.714 64.0359 267.293C66.2568 275.458 66.6764 278.416 66.1772 282.393C65.3959 288.613 63.0578 294.448 58.6785 301.105L56.3805 304.598L57.5033 304.374C58.1205 304.25 60.0999 303.455 61.9016 302.607C80.7542 293.735 87.3928 292.359 99.1195 294.892C108.227 296.86 112.755 296.5 119.607 293.263C123.518 291.416 128.883 287.786 133.147 284.104C138.713 279.296 139.011 279.062 139.252 279.303C139.973 280.023 133.355 288.603 127.689 294.293C121.313 300.696 115.783 304.212 108.984 306.186C106.285 306.969 104.931 307.133 101.077 307.142C95.5805 307.157 93.854 306.815 89.2663 304.805C85.3996 303.111 84.4915 303.131 84.846 304.903C85.1856 306.602 86.3214 307.978 88.6681 309.536C91.8752 311.664 94.611 312.418 99.2169 312.44C109.137 312.489 119 307.706 128.647 298.17C131.694 295.158 133.967 292.338 139.722 284.431C140.233 283.729 140.709 283.327 140.78 283.538C140.85 283.749 140.245 286.5 139.436 289.651C136.063 302.782 136.415 311.801 140.687 321.725C142.669 326.332 144.19 328.609 147.579 332.048C151.027 335.546 153.341 336.925 156.991 337.654C159.672 338.19 162.748 337.603 164.24 336.271C165.198 335.416 165.215 335.343 164.575 334.848C164.205 334.56 162.472 334.123 160.725 333.875C151.153 332.516 144.018 323.924 141.442 310.655C140.211 304.316 141.266 292.647 143.437 288.59C144.196 287.173 144.647 287.61 144.398 289.521C144.14 291.5 144.994 298.282 146.074 302.82C147.54 308.982 150.61 315.379 153.877 319.077C155.707 321.148 158.793 323.42 164.878 327.171C171.86 331.477 176.413 336.643 180.299 344.672C181.662 347.487 183.613 353.105 184.207 355.925C184.565 357.622 184.991 357.102 185.838 353.939C187.561 347.501 190.436 341.825 194.606 336.63C198.196 332.157 200.656 330.104 206.686 326.546C214.927 321.685 218.652 317.782 222.2 310.293C225 304.382 225.787 300.854 225.943 293.52C226.017 290.041 226.202 287.112 226.353 287.009C226.88 286.653 228.41 291.318 229.097 295.38C231.366 308.786 227.829 322.037 220.063 329.228C216.643 332.394 213.456 333.775 208.031 334.441C205.32 334.774 204.869 334.967 204.869 335.789C204.869 336.914 207.805 338.073 210.608 338.052C219.401 337.989 228.349 328.682 232.318 315.473C233.053 313.028 233.248 311.386 233.405 306.333C233.615 299.591 233.215 296.58 230.87 287.245C230.26 284.817 229.82 282.654 229.892 282.438C229.964 282.222 230.536 282.953 231.163 284.062C233.343 287.92 240.053 295.859 245.079 300.528C248.338 303.556 253.295 307.125 256.393 308.676C260.445 310.703 267.752 312.678 271.199 312.678C273.398 312.678 278.283 311.394 280.57 310.213C283.726 308.586 285.596 306.395 285.596 304.327C285.596 303.01 284.337 303.068 281.192 304.529C275.357 307.24 268.652 307.915 262.717 306.389C259.058 305.448 253.905 302.9 250.441 300.316C247.281 297.96 241.328 292.09 237.578 287.633C236.059 285.827 234.25 283.693 233.559 282.89C231.794 280.84 232.567 281.073 235.587 283.503C242.074 288.721 251.15 293.709 256.951 295.244C261.523 296.453 266.204 296.387 272.204 295.028C277.745 293.773 282.864 293.634 288.014 294.599C293.262 295.581 295.779 296.5 307.601 301.745C311.008 303.257 313.979 304.494 314.204 304.494C314.926 304.494 314.658 303.943 312.474 300.933C308.386 295.301 307.162 292.956 305.058 286.738C303.805 283.033 303.702 282.396 303.685 278.267C303.668 274.206 303.798 273.316 305.126 268.409C306.457 263.49 306.586 262.605 306.589 258.364C306.592 253.216 306.17 251.31 303.954 246.472C301.4 240.893 299.275 238.037 292.949 231.684C290.256 228.98 288.154 226.666 288.278 226.542C288.596 226.223 293.022 228.671 296.757 231.231C300.405 233.732 307.111 240.095 309.347 243.18C311.555 246.226 313.304 249.561 314.479 252.97C315.426 255.719 315.504 256.386 315.504 261.712C315.504 267.021 315.426 267.694 314.517 270.192C313.975 271.685 312.779 274.018 311.861 275.376C310.942 276.735 310.275 277.983 310.378 278.15C310.481 278.317 311.354 278.453 312.318 278.453C315.643 278.453 318.318 275.074 319.831 268.967C321.396 262.649 320.412 255.44 317.059 248.661C314.563 243.615 312.909 241.355 308.501 236.965C303.763 232.247 298.167 227.948 293.171 225.188C291.258 224.131 289.784 223.175 289.896 223.063C290.175 222.784 291.992 222.952 297.8 223.794C307.022 225.13 317.011 224.556 324.472 222.261C328.063 221.156 332.931 218.563 335.818 216.216C338.583 213.969 342.124 209.259 343.242 206.342C344.292 203.601 344.295 199.637 343.249 198.418L342.494 197.54L341.854 198.448C341.501 198.948 340.689 200.706 340.05 202.354C336.623 211.193 331.314 216.213 322.775 218.687C315.22 220.876 304.29 221.431 295.599 220.067C291.104 219.362 288.572 218.664 288.572 218.132C288.572 217.735 291.911 217.497 297.339 217.506C311.285 217.528 321.487 212.486 330.963 200.888C336.603 193.985 340.767 190.272 347.537 186.109C353.629 182.364 358.978 180.062 365.486 178.387C367.817 177.787 367.458 177.13 364.396 176.396C360.302 175.413 352.862 172.341 347.909 169.588C340.329 165.375 338.15 163.543 328.006 152.85C321.706 146.209 315.751 142.852 306.987 140.999C303.942 140.355 296.235 140.267 291.403 140.821C285.734 141.47 286.984 140.546 293.651 139.16C301.15 137.601 303.782 137.357 311.002 137.553C318.959 137.769 323.147 138.664 328.333 141.253C333.892 144.029 337.164 147.845 340.474 155.413C341.438 157.614 342.385 159.514 342.58 159.635C342.774 159.755 343.258 159.56 343.654 159.201C344.223 158.686 344.375 158.051 344.375 156.179C344.375 148.8 337.551 140.636 328.092 136.698C323.168 134.648 319.073 133.972 311.637 133.982C304.283 133.992 298.999 134.759 293.002 136.687C291.095 137.301 289.472 137.739 289.395 137.662C289.318 137.585 291.403 136.105 294.029 134.372C307.348 125.587 316.163 115.246 319.144 104.908C319.863 102.414 320.003 101.058 320.005 96.5378C320.008 89.9762 319.258 87.214 316.706 84.3953C315.262 82.8004 314.968 82.6472 313.063 82.4891C311.922 82.3946 310.89 82.4783 310.768 82.6751C310.646 82.8719 311.275 84.1412 312.164 85.4957C314.424 88.9361 315.357 92.5844 315.357 97.9749C315.357 106.013 312.724 112.475 306.75 119.095C302.591 123.703 296.676 128.631 291.539 131.768C285.848 135.243 284.566 135.841 267.368 143.052C264.81 144.124 261.831 145.406 260.748 145.899C253.73 149.097 242.683 152.34 238.81 152.34C236.215 152.34 237.733 151.722 247.093 148.967C252.06 147.505 256.658 145.739 268.112 140.892C272.92 138.857 277.272 137.065 277.784 136.91C281.8 135.694 289.874 130.255 294.174 125.869C299.303 120.637 304.402 111.942 305.921 105.838C306.913 101.848 306.768 96.9835 305.521 92.4457C304.987 90.5019 304.187 87.1798 303.744 85.0634C303.008 81.5508 302.974 80.8522 303.354 77.0558C303.615 74.4439 304.149 71.7929 304.79 69.9295C306.251 65.6807 309.473 59.4413 311.63 56.6835C312.649 55.3804 313.486 54.1676 313.49 53.9886C313.506 53.3049 311.154 54.1962 304.719 57.3119C296.277 61.3996 294.527 62.1897 291.549 63.2574C284.238 65.8779 277.862 66.5773 271.423 65.4657C265.788 64.4925 260.571 64.6074 256.079 65.8031C248.575 67.8004 244.424 70.0976 237.327 76.1827C233.109 79.799 231.654 80.8403 231.654 80.2421C231.654 79.664 241.41 68.2078 244.896 64.6919C248.997 60.5558 252.022 58.2795 256.207 56.1802C264.201 52.1699 272.175 51.9842 281.268 55.5961C285.031 57.0913 285.596 57.0808 285.596 55.5165C285.596 53.4232 284.119 51.7919 280.687 50.094C273.458 46.5182 266.241 46.6224 258.138 50.4199C250.092 54.1903 243.777 59.7214 233.622 71.8919C230.399 75.756 228.933 77.0487 229.617 75.426C230.401 73.5641 231.755 68.2368 232.619 63.6145C233.497 58.9145 233.574 57.7892 233.412 52.0821C233.259 46.7314 233.079 45.2136 232.243 42.2237C228.648 29.365 220.106 21.0188 210.54 21.0188C207.484 21.0188 205.417 21.7379 205.038 22.9325C204.625 24.2353 205.502 24.739 208.184 24.739C216.728 24.739 223.231 29.8575 227.162 39.6776C228.963 44.1738 229.445 46.997 229.662 54.3142C229.83 59.9498 229.739 61.7957 229.088 65.969C228.662 68.6963 228.217 71.0846 228.098 71.2762C227.648 72.0038 227.19 71.1341 227.19 69.553C227.19 67.6222 225.903 59.3806 225.101 56.1742C224.243 52.7439 222.605 48.5085 221.126 45.8929C217.979 40.3312 214.4 37.1107 206.729 32.9382C204.376 31.6581 201.64 30.0171 200.649 29.2913C198.072 27.4052 192.808 21.3551 190.878 18.0621C189.043 14.9319 186.72 9.19063 185.499 4.76923C185.057 3.16919 184.567 1.44156 184.41 0.930037L184.125 0L183.754 0.930037Z" fill="url(#paint0_linear_1528_4194)"/>
<path fill-rule="evenodd" clip-rule="evenodd" d="M185.587 39.7981C189.878 46.0874 194.015 50.0017 197.775 51.3283C198.628 51.6293 201.369 52.1341 203.865 52.4503C207.745 52.9418 208.845 53.2409 211.449 54.5124C214.856 56.1764 216.202 57.5161 218.345 61.3705C220.677 65.5661 221.35 68.6947 221.144 74.3854C220.928 80.3492 220.443 82.0772 215.139 95.7495C213.027 101.195 211.107 106.437 210.874 107.397C210.356 109.524 210.343 113.985 210.843 117.742C211.77 124.702 210.97 143.039 209.74 143.039C209.56 143.039 209.503 138.869 209.612 133.646C209.767 126.261 209.669 122.843 209.153 117.661C208.793 114.036 208.574 110.101 208.666 108.918C208.777 107.506 209.573 104.85 210.983 101.187C216.085 87.9339 216.153 87.7107 216.186 84.0746C216.21 81.2953 216.07 80.4322 215.362 78.9932C214.535 77.3143 212.875 75.3322 212.296 75.3322C212.14 75.3322 211.939 78.1365 211.849 81.5635C211.706 86.986 211.554 88.227 210.675 91.1257C209.449 95.1666 207.4 100.012 205.95 102.298C204.925 103.915 204.818 103.978 203.479 103.771L202.079 103.553L198.202 108.442C194.309 113.351 190.186 117.501 189.452 117.249C188.851 117.044 189.136 115.832 191.309 109.372C193.994 101.387 194.694 98.5084 195.24 93.2064C195.788 87.8885 195.34 82.7941 193.889 77.8682C193.388 76.1667 191.302 71.4261 189.254 67.3339C185.689 60.2106 184.581 58.2709 184.277 58.6187C184.2 58.7061 183.182 60.9539 182.013 63.6138C175.823 77.7046 174.734 81.6141 174.739 89.7132C174.743 97.1498 175.805 102.563 179.045 111.675C181.234 117.829 181.21 117.742 180.734 117.742C179.766 117.742 171.921 108.86 169.798 105.361C169.026 104.088 168.123 102.843 167.79 102.594C167.105 102.08 166.514 102.287 166.724 102.966C166.802 103.215 166.964 104.507 167.086 105.837L167.307 108.256L166.515 107.326C164.429 104.874 161.566 97.62 160.184 91.2846C159.28 87.1381 159.007 79.9277 159.611 76.1693C159.817 74.8877 159.795 74.2162 159.547 74.2162C158.654 74.2162 156.814 76.3036 155.685 78.5959C154.077 81.8618 153.861 85.1482 154.984 89.2419C156.194 93.6517 160.398 104.079 162.8 108.628C165.275 113.316 165.733 114.485 164.981 114.196C163.834 113.756 159.348 105.392 156.407 98.2111C153.973 92.2675 150.29 81.1133 149.836 78.3083C149.338 75.2322 149.328 69.6984 149.816 67.1055C150.383 64.0963 151.877 61.3858 154.505 58.5997C157.455 55.473 160.177 54.0768 165.336 53.0463C167.43 52.6282 170.025 51.8399 171.103 51.2952C174.687 49.4828 179.857 43.625 182.288 38.6218C182.72 37.7319 183.248 37.0597 183.462 37.1278C183.675 37.1962 184.632 38.3979 185.587 39.7981Z" fill="#3F170D"/>
<path fill-rule="evenodd" clip-rule="evenodd" d="M120.251 78.5093C133.087 81.8224 146.644 97.1926 151.412 113.836C151.94 115.678 152.8 119.779 153.324 122.951C154.25 128.558 155.577 136.181 156.003 138.34C156.317 139.931 155.392 139.429 154.328 137.432C149.931 129.18 144.445 121.705 138.092 115.316C131.454 108.638 125.786 104.859 117.976 101.902C114.731 100.674 102.683 96.9095 101.997 96.9095C101.393 96.9095 101.463 97.1498 104.532 105.652C107.881 114.93 109.752 118.678 113.672 123.964C118.825 130.913 127.654 138.639 134.21 141.935C135.803 142.736 137.21 143.56 137.338 143.767C137.791 144.5 120.39 143.416 115.957 142.434C109.138 140.924 93.7769 134.035 88.8737 130.289C84.9143 127.264 81.9382 123.619 79.6154 118.951L77.454 114.607L77.3234 110.059C77.1653 104.554 77.4956 103.363 80.6239 98.1676C83.4203 93.5234 83.8723 91.6805 83.2886 87.3082C83.0513 85.5299 82.6183 83.1568 82.3266 82.0349C82.0346 80.9125 81.8724 79.8705 81.9661 79.7191C82.0599 79.5673 83.1919 79.8407 84.4821 80.3262C91.7777 83.0724 96.3147 83.046 104.675 80.2086C107.709 79.1789 110.693 78.2716 111.307 78.1923C114.059 77.837 118.218 77.9844 120.251 78.5093Z" fill="#3F170D"/>
<path fill-rule="evenodd" clip-rule="evenodd" d="M264.633 80.3879C268.894 81.844 270.377 82.1784 273.199 82.3179C277.217 82.5166 280.472 82.0147 284.731 80.5389C286.435 79.9486 287.828 79.6115 287.828 79.7901C287.828 79.9686 287.41 81.6755 286.9 83.5828C285.876 87.4019 285.657 92.0588 286.417 93.8225C286.663 94.3946 287.662 96.1264 288.637 97.671C290.954 101.345 291.422 102.529 292.106 106.451C292.994 111.541 292.189 116.159 289.622 120.707C286.865 125.592 283.006 129.616 278.526 132.278C274.487 134.677 253.85 142.103 248.209 143.186C246.572 143.501 242.973 144.027 240.211 144.356C237.448 144.685 234.812 145.044 234.351 145.153C232.765 145.529 233.462 144.295 235.653 142.846C239.667 140.192 244.484 136.06 249.166 131.256C256.714 123.512 260.938 116.414 264.897 104.824C266.031 101.505 267.14 98.45 267.362 98.0352C267.94 96.956 267.434 97.0408 263.097 98.7498C261.046 99.5578 257.277 100.989 254.719 101.929C241.529 106.782 233.069 113.087 225.014 124.066C214.409 138.522 212.251 141.227 211.731 140.718C211.31 140.306 215.416 124.047 217.768 116.812C220.242 109.2 222.54 103.824 225.243 99.3272C230.601 90.4126 236.325 84.954 244.324 81.1312C251.471 77.7154 256.295 77.5386 264.633 80.3879Z" fill="#3F170D"/>
<path fill-rule="evenodd" clip-rule="evenodd" d="M129.892 89.2609C129.167 94.0982 130.943 97.0178 137.543 101.839C141.238 104.538 144.074 107.657 146.668 111.875C149.078 115.791 149.008 115.694 149.238 115.465C149.872 114.83 145.78 104.366 143.239 100.127C139.551 93.9721 134.092 88.3171 131.302 87.7587C130.173 87.5333 130.147 87.5612 129.892 89.2609Z" fill="url(#paint1_linear_1528_4194)"/>
<path fill-rule="evenodd" clip-rule="evenodd" d="M237.619 88.5618C235.793 89.3643 230.73 94.6952 228.264 98.4117C227.115 100.143 225.397 103.216 224.445 105.241C221.549 111.403 220.128 117.277 222.548 113.083C225.352 108.225 229.102 104.01 233.514 100.758C236.842 98.3056 239.758 95.2202 240.22 93.6636C240.449 92.891 240.582 91.3382 240.517 90.2128C240.379 87.8684 239.865 87.5753 237.619 88.5618Z" fill="url(#paint2_linear_1528_4194)"/>
<path fill-rule="evenodd" clip-rule="evenodd" d="M83.6665 117.445C81.0476 120.064 90.3092 131.879 94.981 131.879C96.5464 131.879 96.6115 131.251 95.3433 128.383C93.5365 124.298 90.0127 119.752 87.3324 118.049C85.5593 116.923 84.3827 116.729 83.6665 117.445Z" fill="url(#paint3_linear_1528_4194)"/>
<path fill-rule="evenodd" clip-rule="evenodd" d="M282.677 117.931C279.754 119.217 277.078 122.13 273.625 127.785C271.626 131.059 270.716 132.802 270.716 133.354C270.716 135.027 280.49 129.21 282.759 126.186C284.6 123.732 285.641 121.137 285.523 119.296C285.393 117.292 284.788 117.002 282.677 117.931Z" fill="url(#paint4_linear_1528_4194)"/>
<path fill-rule="evenodd" clip-rule="evenodd" d="M187.079 131.933C190.279 134.467 193.493 140.121 194.666 145.282C195.463 148.784 195.231 153.453 194.095 156.79C193.105 159.697 190.044 165.894 188.3 168.52C187.032 170.431 185.403 171.687 184.874 171.161C184.72 171.007 184.511 168.384 184.408 165.329C184.3 162.094 184.067 159.739 183.85 159.686C183.628 159.632 183.329 161.762 183.106 164.989C182.902 167.956 182.599 170.593 182.433 170.849C181.843 171.76 180.724 171.314 179.636 169.732C177.83 167.106 174.468 159.807 173.426 156.247C170.86 147.484 172.359 140.334 177.93 134.762C182.054 130.638 184.492 129.884 187.079 131.933Z" fill="#3F170D"/>
<path fill-rule="evenodd" clip-rule="evenodd" d="M99.8103 133.797C101.379 135.571 111.27 139.319 114.382 139.319C116.915 139.319 114.888 138.115 107.092 134.986C103.931 133.717 101.583 132.995 100.617 132.995H99.1016L99.8103 133.797Z" fill="url(#paint5_linear_1528_4194)"/>
<path fill-rule="evenodd" clip-rule="evenodd" d="M259.695 135.19C255.575 136.591 253.381 137.685 252.458 138.796C252.027 139.316 252.135 139.35 253.439 139.115C257.382 138.401 264.768 135.914 265.694 134.988C267.396 133.286 265.06 133.364 259.695 135.19Z" fill="url(#paint6_linear_1528_4194)"/>
<path fill-rule="evenodd" clip-rule="evenodd" d="M87.4984 148.986C91.1813 149.175 95.3665 149.579 96.7988 149.884C101.964 150.982 108.592 154.022 113.957 157.754C117.085 159.929 126.547 168.45 128.112 170.501C130.001 172.976 128.555 172.035 124.127 167.909C115.796 160.144 112.521 157.807 105.355 154.51C100.582 152.314 98.4107 151.821 94.5685 152.061C91.1386 152.275 87.6308 153.588 86.1331 155.22L85.2663 156.163L88.4284 155.834C98.4513 154.789 105.724 156.697 113.051 162.294C119.822 167.466 127.404 174.628 126.446 174.947C126.22 175.023 124.143 174.498 121.833 173.781C112.225 170.798 106.643 169.819 99.3244 169.832C92.2609 169.846 86.2164 171.141 76.3182 174.764C72.267 176.246 68.574 177.367 64.3405 178.397C63.4707 178.609 62.7594 178.917 62.7594 179.082C62.7594 179.246 64.3081 179.757 66.2006 180.218C68.093 180.68 71.818 181.897 74.4779 182.924C77.1378 183.952 80.5495 185.267 82.0595 185.846C87.9087 188.09 91.2193 188.612 99.5889 188.612C108.506 188.612 110.987 188.174 120.923 184.848C127.086 182.786 127.862 182.6 127.862 183.191C127.862 183.837 120.08 191.661 117.064 194.048C106.722 202.233 98.3158 204.751 86.9404 203.073L85.2663 202.826L85.9594 203.607C86.7224 204.467 90.7293 206.233 94.1735 207.227C100.381 209.019 105.921 207.37 120.919 199.265C129.051 194.87 131.944 193.589 130.917 194.837C130.235 195.666 123.236 199.869 118.121 202.522C111.797 205.802 104.617 208.788 100.642 209.789C91.483 212.099 76.8722 211.886 70.4166 209.35C66.3438 207.751 61.7862 203.9 60.1341 200.661C59.7465 199.901 58.9254 197.716 58.3094 195.806C57.6937 193.896 56.6945 191.591 56.0892 190.684C53.4561 186.739 48.7274 182.857 43.3216 180.2C41.9404 179.521 40.8105 178.773 40.8105 178.537C40.8105 178.3 41.7953 177.68 42.9984 177.158C46.3461 175.706 51.6946 172.261 53.6588 170.291C55.446 168.498 56.661 166.244 58.4801 161.347C61.204 154.015 66.2776 149.969 74.1059 148.887C76.1475 148.604 80.73 148.638 87.4984 148.986Z" fill="#3F170D"/>
<path fill-rule="evenodd" clip-rule="evenodd" d="M297.872 149.729C301.429 150.745 303.447 151.931 305.87 154.433C307.746 156.37 308.357 157.424 311.608 164.326C313.948 169.295 318.398 173.312 325.149 176.551C326.925 177.403 328.378 178.245 328.378 178.421C328.378 178.598 327.164 179.351 325.68 180.095C321.716 182.082 318.248 184.511 315.398 187.294C312.404 190.217 311.363 191.901 309.376 197.036C307.565 201.716 305.872 204.282 303.329 206.199C300.523 208.317 299.149 209.051 295.826 210.212C293.124 211.155 292.263 211.265 286.454 211.412C275.139 211.696 268.435 210.427 260.485 206.496C254.855 203.711 250.422 200.613 242.005 193.58C235.766 188.365 233.842 186.564 234.512 186.564C234.972 186.564 237.472 188.432 241.512 191.793C250.687 199.427 260.501 205.726 265.482 207.179C269.476 208.345 274.57 207.722 278.892 205.541C280.88 204.537 282.171 203.476 281.824 203.129C281.737 203.042 280.416 203.147 278.888 203.362C274.782 203.939 268.462 203.569 265.333 202.567C259.376 200.659 254.413 197.459 247.646 191.16C245.7 189.348 243.278 187.163 242.265 186.303C241.252 185.443 240.55 184.612 240.706 184.456C240.862 184.3 244.204 184.968 248.133 185.94C258.616 188.534 260.353 188.796 267.074 188.796C271.971 188.796 273.881 188.628 277.737 187.855C283.371 186.726 284.131 186.492 293.408 183.032C297.398 181.545 301.643 180.109 302.842 179.843C304.723 179.426 304.935 179.296 304.389 178.896C304.041 178.642 303.06 178.32 302.209 178.181C301.359 178.043 296.477 176.533 291.362 174.826C286.247 173.119 280.806 171.471 279.272 171.163C271.794 169.661 265.03 169.512 258.78 170.711C255.159 171.405 247.055 173.727 244.855 174.7C241.502 176.183 241.923 175.323 246.98 170.36C258.128 159.417 262.667 156.782 272.239 155.701C275.134 155.374 276.758 155.362 278.353 155.657C279.547 155.878 281.192 156.059 282.009 156.059H283.494L282.655 155.166C282.194 154.675 280.783 153.809 279.521 153.241C272.744 150.193 262.316 153.157 253.726 160.573C252.738 161.427 249.951 163.983 247.533 166.254C240.856 172.524 240.583 172.135 246.906 165.362C255.334 156.335 262.847 151.791 272.548 149.856C279.493 148.47 293.222 148.401 297.872 149.729Z" fill="#3F170D"/>
<path fill-rule="evenodd" clip-rule="evenodd" d="M158.367 152.736C159.697 153.127 162.041 154.145 163.575 154.998C168.385 157.671 175.822 165.927 178.139 171.165C178.843 172.757 178.855 172.933 178.294 173.494C177.734 174.054 177.323 173.911 172.861 171.59C167.69 168.901 165.909 168.356 168.009 170.104C168.684 170.667 170.515 171.903 172.077 172.852C175.186 174.74 176.465 176.099 176.08 177.104C175.854 177.692 175.157 177.727 167.565 177.541C159.118 177.333 155.699 176.881 151.805 175.455C145.512 173.151 140.013 166.623 139.488 160.834L139.287 158.624L141.322 156.654C146.012 152.111 151.753 150.792 158.367 152.736Z" fill="#3F170D"/>
<path fill-rule="evenodd" clip-rule="evenodd" d="M220.68 153.064C222.813 153.983 226.59 157.246 227.333 158.814C229.021 162.37 224.876 169.502 218.625 173.797C214.519 176.618 209.663 177.638 199.092 177.902C192.268 178.072 191.206 178.022 190.782 177.511C189.843 176.38 191.421 174.969 196.871 172.071C203.304 168.649 200.921 168.498 193.737 171.873C191.277 173.028 189.093 173.867 188.882 173.737C188.044 173.219 188.6 171.624 190.588 168.841C196.697 160.289 201.513 156.089 208.036 153.623C212.323 152.002 217.666 151.766 220.68 153.064Z" fill="#3F170D"/>
<path fill-rule="evenodd" clip-rule="evenodd" d="M176.515 181.025C176.592 181.427 175.198 182.605 172.241 184.635C168.222 187.395 166.563 188.934 167.065 189.436C167.172 189.542 169.384 188.354 171.982 186.795C176.704 183.962 178.615 183.345 179.062 184.509C179.323 185.19 176.468 190.513 173.517 194.85C165.767 206.238 155.357 210.406 146.149 205.807C143.803 204.636 141.254 202.296 141.254 201.314C141.254 199.955 142.704 195.173 143.734 193.136C145.881 188.89 151.948 184.114 157.465 182.325C162.728 180.619 176.261 179.695 176.515 181.025Z" fill="#3F170D"/>
<path fill-rule="evenodd" clip-rule="evenodd" d="M203.431 181.209C208.665 181.888 213.518 183.189 216.143 184.618C218.343 185.816 222.28 189.646 223.563 191.838C224.557 193.535 226.258 198.731 226.655 201.283C226.854 202.559 226.742 202.968 225.932 203.93C224.305 205.864 218.819 207.776 214.928 207.766C210.562 207.754 206.209 206.15 202.219 203.084C196.566 198.74 186.908 186.008 187.966 184.296C188.293 183.766 190.167 184.236 192.601 185.459C195.352 186.842 199.286 188.427 199.968 188.427C201.16 188.427 199.147 186.956 194.609 184.512C192.068 183.143 189.988 181.868 189.988 181.679C189.988 180.511 196.342 180.289 203.431 181.209Z" fill="#3F170D"/>
<path fill-rule="evenodd" clip-rule="evenodd" d="M182.75 186.986C182.888 187.422 183.037 189.764 183.081 192.191C183.125 194.618 183.283 196.725 183.433 196.875C184.084 197.526 184.397 195.726 184.402 191.297C184.407 187.348 184.506 186.504 184.985 186.32C186.022 185.923 187.384 187.753 190.008 193.072C194.586 202.35 195.87 207.922 194.746 213.63C193.675 219.067 190.6 223.937 186.66 226.437C184.642 227.718 183.027 227.776 180.756 226.65C175.845 224.215 172.132 217.358 172.132 210.723C172.132 206.031 175.031 197.042 178.724 190.285C180.852 186.391 182.208 185.28 182.75 186.986Z" fill="#3F170D"/>
<path fill-rule="evenodd" clip-rule="evenodd" d="M134.093 214.343C135.986 214.471 137.534 214.73 137.534 214.918C137.534 215.105 136.321 215.82 134.837 216.506C124.303 221.377 112.32 233.189 106.905 244.042C105.738 246.379 100.765 258.782 100.155 260.875C99.8422 261.948 99.9735 261.935 103.309 260.559C104.844 259.926 108.527 258.519 111.493 257.433C121.197 253.882 127.143 250.879 133.07 246.539C139.205 242.045 147.175 232.741 153.532 222.651C155.015 220.298 156.458 218.128 156.739 217.828C157.652 216.857 157.352 218.859 155.968 222.965C155.263 225.06 154.253 228.985 153.724 231.687C153.196 234.39 152.34 238.778 151.823 241.438C150.692 247.25 149.447 251.306 147.78 254.608C141.28 267.479 135.283 274.57 126.888 279.311C122.199 281.959 119.837 282.627 115.027 282.669C110.371 282.71 108.64 282.299 102.751 279.75C95.9736 276.818 90.7453 276.58 83.6614 278.882C82.3694 279.302 81.2191 279.552 81.1046 279.438C80.9903 279.323 81.2742 277.702 81.7355 275.836C82.2411 273.789 82.574 271.298 82.574 269.563C82.574 266.985 82.43 266.396 81.1976 263.94C80.4401 262.431 79.5198 260.769 79.1522 260.246C77.2393 257.522 75.7967 252.889 75.787 249.436C75.7691 243.286 77.7676 237.917 82.343 231.82C86.5077 226.272 91.3342 223.034 101.449 219.003C109.274 215.885 114.622 214.432 120.05 213.951C121.89 213.787 128.72 213.978 134.093 214.343Z" fill="#3F170D"/>
<path fill-rule="evenodd" clip-rule="evenodd" d="M256.951 215.655C264.498 218.209 273.445 221.807 276.431 223.489C281.958 226.602 287.636 232.232 290.213 237.155C292.23 241.008 292.819 243.486 292.823 248.135C292.828 252.972 292.436 254.347 289.27 260.597C287.722 263.654 287.034 265.477 286.86 266.982C286.597 269.268 287.157 274.106 288.054 277.285C288.363 278.381 288.52 279.374 288.403 279.491C288.286 279.608 287.062 279.297 285.684 278.8C283.436 277.989 282.583 277.896 277.412 277.896H271.645L267.524 279.629C261.498 282.165 259.947 282.546 255.667 282.546C247.487 282.546 240.452 278.997 233.282 271.253C229.918 267.62 227.611 264.01 224.211 257.063C219.717 247.881 217.857 242.91 213.596 228.693C212.293 224.343 211.042 220.493 210.817 220.137C210.514 219.659 210.485 220.561 210.707 223.582C210.872 225.832 211.007 232.947 211.008 239.392L211.008 251.111L212.148 254.273C212.775 256.012 214.595 260.783 216.193 264.875C221.362 278.113 222.299 284.219 220.344 291.925C219.143 296.66 217.882 298.999 214.951 301.929C211.821 305.059 209.414 306.286 205.082 306.958C199.634 307.804 198.107 308.236 195.904 309.556C192.941 311.332 188.675 315.987 186.3 320.035C185.193 321.923 184.148 323.468 183.979 323.468C183.81 323.468 183.02 322.17 182.222 320.585C180.43 317.019 178.108 313.897 175.156 311.082C172.466 308.515 170.745 307.696 165.906 306.675C161.338 305.711 158.707 304.481 156.251 302.162C148.614 294.949 147.724 285.396 153.175 269.154C155.736 261.52 161.316 249.025 162.644 247.949C163.275 247.438 163.314 247.453 163.118 248.135C163.001 248.544 161.569 252.143 159.937 256.133C156.594 264.302 155.32 268.121 154.633 272.019C154.18 274.595 154.2 274.803 155.161 277.436C156.077 279.948 158.003 282.918 158.716 282.918C158.878 282.918 159.103 280.365 159.216 277.245C159.557 267.81 160.959 262.06 164.775 254.459C168.29 247.456 169.824 245.753 167.731 251.177C166.257 254.997 166.093 255.873 166.696 256.698C167.156 257.326 167.363 257.133 169.199 254.357C171.217 251.308 180.1 241.252 180.776 241.252C180.976 241.252 181.021 241.546 180.878 241.903C176.232 253.463 174.504 261.953 174.841 271.572C175.108 279.209 176.503 284.224 180.66 292.501C182.602 296.369 184.036 300.225 184.036 301.581C184.036 302.862 184.614 302.004 185.694 299.12C186.227 297.698 187.733 294.518 189.04 292.051C197.168 276.729 197.568 267.5 190.926 248.547C189.787 245.295 188.96 242.533 189.09 242.408C189.38 242.129 195.247 248.309 199.558 253.436C204.221 258.98 204.86 258.465 201.675 251.729C199.869 247.908 199.883 247.949 200.384 247.949C200.994 247.949 203.67 252.004 205.76 256.097C209.575 263.565 211.937 272.411 211.937 279.233V283.057L212.993 282.045C214.771 280.342 215.771 277.872 215.948 274.746C216.205 270.238 215.988 269.433 210.721 255.389L209.536 252.227L209.51 234.463C209.492 222.109 209.605 216.699 209.881 216.699C210.308 216.699 215.358 222.539 220.493 228.97C229.707 240.507 233.678 244.405 240.781 248.887C246.185 252.296 249.517 253.851 260.802 258.229C262.613 258.932 264.91 259.92 265.905 260.424C268.162 261.568 268.602 261.583 268.295 260.504C267.575 257.976 263.707 248.385 262.162 245.298C256.063 233.113 247.282 223.635 235.833 216.877C234.141 215.879 232.815 214.887 232.886 214.672C233.113 213.979 235.764 213.788 243.93 213.872L251.929 213.955L256.951 215.655Z" fill="#3F170D"/>
<path fill-rule="evenodd" clip-rule="evenodd" d="M251.371 217.471C252.906 218.54 265.401 223.395 266.618 223.395C267.728 223.395 267.563 222.092 266.344 221.25C263.931 219.58 255.905 217.069 253.007 217.076C251.372 217.081 250.955 217.181 251.371 217.471Z" fill="url(#paint7_linear_1528_4194)"/>
<path fill-rule="evenodd" clip-rule="evenodd" d="M109.549 218.162C103.317 219.843 99.0725 222.283 100.28 223.49C100.83 224.041 115.59 218.755 115.867 217.907C116.095 217.21 112.548 217.353 109.549 218.162Z" fill="url(#paint8_linear_1528_4194)"/>
<path fill-rule="evenodd" clip-rule="evenodd" d="M270.344 223.82C270.345 226.144 278.872 238.659 281.561 240.283C282.727 240.988 284.52 241.063 285.15 240.433C285.777 239.806 285.704 237.617 284.984 235.459C283.71 231.643 279.489 227.248 274.994 225.059C271.796 223.501 270.343 223.114 270.344 223.82Z" fill="url(#paint9_linear_1528_4194)"/>
<path fill-rule="evenodd" clip-rule="evenodd" d="M92.5739 225.36C87.8832 227.735 82.4771 234.683 82.4763 238.338C82.4759 240.527 82.7501 240.88 84.4506 240.88C85.8211 240.88 86.1887 240.658 88.1242 238.668C91.6733 235.019 96.5999 227.068 96.6088 224.976C96.614 223.791 95.4555 223.901 92.5739 225.36Z" fill="url(#paint10_linear_1528_4194)"/>
<path fill-rule="evenodd" clip-rule="evenodd" d="M221.067 244.134C222.121 248.58 226.337 257.811 229.658 262.945C232.76 267.74 237.151 271.608 239.165 271.319C240.813 271.083 241.532 267.511 240.446 264.955C239.956 263.802 235.089 258.785 232.398 256.658C228.282 253.405 225.271 249.715 222.333 244.32C221.636 243.042 220.952 241.995 220.813 241.995C220.674 241.995 220.788 242.958 221.067 244.134Z" fill="url(#paint11_linear_1528_4194)"/>
<path fill-rule="evenodd" clip-rule="evenodd" d="M146.685 245.809C143.326 252.165 141.621 254.175 136.046 258.352C133.331 260.386 130.459 263.286 129.693 264.767C128.893 266.311 128.773 268.453 129.387 270.214C129.927 271.764 131.241 271.773 133.551 270.243C138.569 266.92 144.856 257.268 147.35 249.063C148.253 246.094 148.976 242.368 148.65 242.368C148.569 242.368 147.685 243.917 146.685 245.809Z" fill="url(#paint12_linear_1528_4194)"/>
</g>
<defs>
<filter id="filter0_d_1528_4194" x="0" y="0" width="371" height="364.877" filterUnits="userSpaceOnUse" color-interpolation-filters="sRGB">
<feFlood flood-opacity="0" result="BackgroundImageFix"/>
<feColorMatrix in="SourceAlpha" type="matrix" values="0 0 0 0 0 0 0 0 0 0 0 0 0 0 0 0 0 0 127 0" result="hardAlpha"/>
<feOffset dy="4"/>
<feGaussianBlur stdDeviation="2"/>
<feComposite in2="hardAlpha" operator="out"/>
<feColorMatrix type="matrix" values="0 0 0 0 0 0 0 0 0 0 0 0 0 0 0 0 0 0 0.25 0"/>
<feBlend mode="normal" in2="BackgroundImageFix" result="effect1_dropShadow_1528_4194"/>
<feBlend mode="normal" in="SourceGraphic" in2="effect1_dropShadow_1528_4194" result="shape"/>
</filter>
<linearGradient id="paint0_linear_1528_4194" x1="185.5" y1="0" x2="185.5" y2="356.877" gradientUnits="userSpaceOnUse">
<stop stop-color="#CE9C17"/>
<stop offset="0.520386" stop-color="#CD9514"/>
<stop offset="1" stop-color="#CC8F12"/>
</linearGradient>
<linearGradient id="paint1_linear_1528_4194" x1="139.522" y1="87.6592" x2="139.522" y2="115.556" gradientUnits="userSpaceOnUse">
<stop stop-color="#CE9C17"/>
<stop offset="0.520386" stop-color="#CD9514"/>
<stop offset="1" stop-color="#CC8F12"/>
</linearGradient>
<linearGradient id="paint2_linear_1528_4194" x1="230.925" y1="88.0293" x2="230.925" y2="114.499" gradientUnits="userSpaceOnUse">
<stop stop-color="#CE9C17"/>
<stop offset="0.520386" stop-color="#CD9514"/>
<stop offset="1" stop-color="#CC8F12"/>
</linearGradient>
<linearGradient id="paint3_linear_1528_4194" x1="89.7197" y1="117.023" x2="89.7197" y2="131.879" gradientUnits="userSpaceOnUse">
<stop stop-color="#CE9C17"/>
<stop offset="0.520386" stop-color="#CD9514"/>
<stop offset="1" stop-color="#CC8F12"/>
</linearGradient>
<linearGradient id="paint4_linear_1528_4194" x1="278.124" y1="117.425" x2="278.124" y2="133.65" gradientUnits="userSpaceOnUse">
<stop stop-color="#CE9C17"/>
<stop offset="0.520386" stop-color="#CD9514"/>
<stop offset="1" stop-color="#CC8F12"/>
</linearGradient>
<linearGradient id="paint5_linear_1528_4194" x1="107.257" y1="132.995" x2="107.257" y2="139.319" gradientUnits="userSpaceOnUse">
<stop stop-color="#CE9C17"/>
<stop offset="0.520386" stop-color="#CD9514"/>
<stop offset="1" stop-color="#CC8F12"/>
</linearGradient>
<linearGradient id="paint6_linear_1528_4194" x1="259.237" y1="133.764" x2="259.237" y2="139.254" gradientUnits="userSpaceOnUse">
<stop stop-color="#CE9C17"/>
<stop offset="0.520386" stop-color="#CD9514"/>
<stop offset="1" stop-color="#CC8F12"/>
</linearGradient>
<linearGradient id="paint7_linear_1528_4194" x1="259.291" y1="217.076" x2="259.291" y2="223.395" gradientUnits="userSpaceOnUse">
<stop stop-color="#CE9C17"/>
<stop offset="0.520386" stop-color="#CD9514"/>
<stop offset="1" stop-color="#CC8F12"/>
</linearGradient>
<linearGradient id="paint8_linear_1528_4194" x1="107.976" y1="217.46" x2="107.976" y2="223.53" gradientUnits="userSpaceOnUse">
<stop stop-color="#CE9C17"/>
<stop offset="0.520386" stop-color="#CD9514"/>
<stop offset="1" stop-color="#CC8F12"/>
</linearGradient>
<linearGradient id="paint9_linear_1528_4194" x1="277.96" y1="223.48" x2="277.96" y2="240.862" gradientUnits="userSpaceOnUse">
<stop stop-color="#CE9C17"/>
<stop offset="0.520386" stop-color="#CD9514"/>
<stop offset="1" stop-color="#CC8F12"/>
</linearGradient>
<linearGradient id="paint10_linear_1528_4194" x1="89.5426" y1="224.168" x2="89.5426" y2="240.88" gradientUnits="userSpaceOnUse">
<stop stop-color="#CE9C17"/>
<stop offset="0.520386" stop-color="#CD9514"/>
<stop offset="1" stop-color="#CC8F12"/>
</linearGradient>
<linearGradient id="paint11_linear_1528_4194" x1="230.858" y1="241.995" x2="230.858" y2="271.334" gradientUnits="userSpaceOnUse">
<stop stop-color="#CE9C17"/>
<stop offset="0.520386" stop-color="#CD9514"/>
<stop offset="1" stop-color="#CC8F12"/>
</linearGradient>
<linearGradient id="paint12_linear_1528_4194" x1="138.864" y1="242.368" x2="138.864" y2="271.383" gradientUnits="userSpaceOnUse">
<stop stop-color="#CE9C17"/>
<stop offset="0.520386" stop-color="#CD9514"/>
<stop offset="1" stop-color="#CC8F12"/>
</linearGradient>
</defs>
</svg>
