<svg width="363" height="357" viewBox="0 0 363 357" fill="none" xmlns="http://www.w3.org/2000/svg">
<path fill-rule="evenodd" clip-rule="evenodd" d="M179.754 0.930037C179.55 1.44156 179.181 2.86451 178.936 4.09216C177.564 10.9417 174.181 18.3329 170.082 23.4369C167.841 26.227 163.831 29.945 161.432 31.4557C155.048 35.4764 153.255 36.7127 151.437 38.3473C149.17 40.3856 146.757 43.4387 145.138 46.3158C142.643 50.7529 140.492 59.4632 140.015 67.0668C139.777 70.858 139.456 72.0786 138.856 71.4782C138.376 70.9987 137.261 65.2719 136.852 61.1942C136.329 55.9696 136.828 48.2983 138.012 43.3613C139.79 35.9519 144.323 29.5662 149.653 26.9644C151.816 25.9082 152.762 25.6839 156.034 25.4503C160.203 25.1527 161.436 24.7349 161.436 23.6192C161.436 21.9612 156.299 20.7056 152.39 21.4083C147.663 22.2584 143.245 25.2085 139.851 29.7813C133.089 38.8908 131.223 55.2807 135.259 70.1248C137.242 77.4185 137.265 78.4367 135.392 76.077C120.092 56.7959 115.504 52.7216 105.158 49.2287C100.753 47.7418 94.2389 47.3426 90.4075 48.3251C84.3243 49.8853 79.4558 53.9012 80.4639 56.528C80.6328 56.9685 81.3151 56.8074 84.1312 55.6616C89.5322 53.4641 92.5351 52.8254 97.449 52.8302C100.878 52.8332 102.281 53.0062 104.517 53.7022C108.586 54.9682 113.186 57.4748 116.828 60.41C122.053 64.6219 135.018 79.5539 134.178 80.3935C134.063 80.5085 132.512 79.2492 130.731 77.5952C125.033 72.3026 119.472 68.4649 114.934 66.6922C110.794 65.0751 108.076 64.767 101.191 65.1335C91.1813 65.6662 83.8984 65.5516 80.8133 64.8124C76.6147 63.8065 70.5654 61.5171 65.0837 58.8594C56.4623 54.6799 52.9821 53.232 52.4092 53.5861C52.2336 53.6948 53.1755 55.242 54.5021 57.025C58.0731 61.8244 61.204 68.3239 62.1578 72.9175C63.2936 78.3887 62.9848 82.585 60.8212 91.0841C58.8075 98.9939 58.5943 102.899 59.9031 107.907C61.2758 113.159 65.0004 119.807 68.9326 124.023C73.0515 128.438 86.241 136.396 97.0759 141.003C101.747 142.989 118.765 150.535 121.523 151.845C123.107 152.596 123.115 153.221 121.537 152.887C119.915 152.543 112.281 149.48 107.679 147.328C105.633 146.371 101.03 144.334 97.449 142.8C93.8684 141.266 89.181 139.129 87.0326 138.051C76.5775 132.804 71.3838 130.042 69.1759 128.554C61.2319 123.2 54.6614 115.706 51.7228 108.647C49.8404 104.125 49.3561 101.403 49.5688 96.5378C49.795 91.3579 50.6927 88.2334 52.8005 85.2896C53.6227 84.1419 54.2953 83.0222 54.2953 82.8019C54.2953 82.5709 53.5315 82.4013 52.4903 82.4013C47.8293 82.4013 45.0169 87.7895 45.0013 96.7484C44.9886 104.115 46.743 109.516 51.3541 116.306C54.828 121.422 63.2817 129.014 70.4556 133.463C72.0252 134.435 73.2048 135.401 73.0768 135.608C72.9492 135.814 72.7305 135.914 72.5914 135.828C72.4519 135.743 69.9709 135.238 67.0781 134.706C62.7731 133.915 60.7125 133.741 55.7316 133.748C49.3404 133.756 45.9038 134.275 41.0903 135.958C37.5758 137.187 32.3185 140.283 29.6382 142.703C25.5319 146.409 22.3009 152.113 22.3028 155.654C22.3031 157.033 23.3195 159.466 23.9761 159.66C24.5181 159.821 25.7655 157.673 26.4991 155.316C29.3986 146.004 37.4412 139.985 49.6235 138.009C57.7774 136.686 74.3852 138.021 75.0627 140.054C75.1891 140.432 74.4246 140.478 71.3618 140.274C64.2605 139.802 56.9887 140.952 51.5037 143.412C46.111 145.832 42.6412 148.743 36.4304 156.06C34.4334 158.413 32.1534 160.952 31.3636 161.702C25.8321 166.957 15.2948 172.702 6.30539 175.363C3.33858 176.241 0.702106 177.023 0.44616 177.101C-0.638635 177.43 0.194678 177.912 3.60829 178.929C16.6742 182.823 27.3562 190.242 36.1012 201.496C41.4362 208.362 45.9819 211.959 52.4817 214.459C58.0921 216.618 66.8021 218.069 71.3131 217.599C73.7111 217.349 77.7326 217.676 77.7319 218.12C77.7307 218.583 73.1486 219.727 69.1852 220.255C60.1196 221.462 50.474 220.654 42.7811 218.042C34.1946 215.128 29.7628 210.772 26.3938 201.938C25.7558 200.265 25.014 198.714 24.745 198.491C23.9951 197.868 23.203 198.372 22.5077 199.915C21.9166 201.225 21.9155 201.469 22.4925 203.706C25.0869 213.759 34.1581 220.799 48.1571 223.623C52.5703 224.513 61.6374 224.516 68.2459 223.63C70.9058 223.273 73.3752 222.895 73.7331 222.791C75.3781 222.31 74.0675 223.503 70.7636 225.493C63.1831 230.058 54.9698 237.476 51.2094 243.153C48.5413 247.18 46.3115 251.913 45.3186 255.655C44.3022 259.484 44.2163 266.424 45.1426 269.851C45.7762 272.194 46.0741 272.813 47.9115 275.593C49.4587 277.935 52.5178 279.341 54.4508 278.599C55.3362 278.26 55.1781 277.738 53.6249 275.873C51.5357 273.365 50.7124 271.846 49.9807 269.153C49.061 265.768 49.051 259.08 49.9598 255.388C50.965 251.305 53.8329 245.665 56.7394 242.055C59.6438 238.448 66.3329 232.286 70.1647 229.688C72.7736 227.919 76.9588 225.627 77.5797 225.627C77.7519 225.627 75.3592 228.18 72.2618 231.3C69.1647 234.421 66.1797 237.523 65.6287 238.193C63.5551 240.719 60.9451 245.596 59.8264 249.036C58.7714 252.28 58.668 253.03 58.6691 257.434C58.6698 261.843 58.7907 262.714 60.0359 267.293C62.2568 275.458 62.6764 278.416 62.1772 282.393C61.3959 288.613 59.0578 294.448 54.6785 301.105L52.3805 304.598L53.5033 304.374C54.1205 304.25 56.0999 303.455 57.9016 302.607C76.7542 293.735 83.3928 292.359 95.1195 294.892C104.227 296.86 108.755 296.5 115.607 293.263C119.518 291.416 124.883 287.786 129.147 284.104C134.713 279.296 135.011 279.062 135.252 279.303C135.973 280.023 129.355 288.603 123.689 294.293C117.313 300.696 111.783 304.212 104.984 306.186C102.285 306.969 100.931 307.133 97.077 307.142C91.5805 307.157 89.854 306.815 85.2663 304.805C81.3996 303.111 80.4915 303.131 80.846 304.903C81.1856 306.602 82.3214 307.978 84.6681 309.536C87.8752 311.664 90.611 312.418 95.2169 312.44C105.137 312.489 115 307.706 124.647 298.17C127.694 295.158 129.967 292.338 135.722 284.431C136.233 283.729 136.709 283.327 136.78 283.538C136.85 283.749 136.245 286.5 135.436 289.651C132.063 302.782 132.415 311.801 136.687 321.725C138.669 326.332 140.19 328.609 143.579 332.048C147.027 335.546 149.341 336.925 152.991 337.654C155.672 338.19 158.748 337.603 160.24 336.271C161.198 335.416 161.215 335.343 160.575 334.848C160.205 334.56 158.472 334.123 156.725 333.875C147.153 332.516 140.018 323.924 137.442 310.655C136.211 304.316 137.266 292.647 139.437 288.59C140.196 287.173 140.647 287.61 140.398 289.521C140.14 291.5 140.994 298.282 142.074 302.82C143.54 308.982 146.61 315.379 149.877 319.077C151.707 321.148 154.793 323.42 160.878 327.171C167.86 331.477 172.413 336.643 176.299 344.672C177.662 347.487 179.613 353.105 180.207 355.925C180.565 357.622 180.991 357.102 181.838 353.939C183.561 347.501 186.436 341.825 190.606 336.63C194.196 332.157 196.656 330.104 202.686 326.546C210.927 321.685 214.652 317.782 218.2 310.293C221 304.382 221.787 300.854 221.943 293.52C222.017 290.041 222.202 287.112 222.353 287.009C222.88 286.653 224.41 291.318 225.097 295.38C227.366 308.786 223.829 322.037 216.063 329.228C212.643 332.394 209.456 333.775 204.031 334.441C201.32 334.774 200.869 334.967 200.869 335.789C200.869 336.914 203.805 338.073 206.608 338.052C215.401 337.989 224.349 328.683 228.318 315.473C229.053 313.028 229.248 311.386 229.405 306.333C229.615 299.591 229.215 296.58 226.87 287.245C226.26 284.817 225.82 282.653 225.892 282.438C225.964 282.222 226.536 282.953 227.163 284.062C229.343 287.92 236.053 295.859 241.079 300.528C244.338 303.556 249.295 307.125 252.393 308.676C256.445 310.703 263.752 312.678 267.199 312.678C269.398 312.678 274.283 311.394 276.57 310.213C279.726 308.586 281.596 306.395 281.596 304.327C281.596 303.01 280.337 303.068 277.192 304.529C271.357 307.24 264.652 307.915 258.717 306.389C255.058 305.448 249.905 302.9 246.441 300.316C243.281 297.96 237.328 292.09 233.578 287.633C232.059 285.827 230.25 283.693 229.559 282.89C227.794 280.84 228.567 281.073 231.587 283.503C238.074 288.721 247.15 293.709 252.951 295.244C257.523 296.453 262.204 296.387 268.204 295.028C273.745 293.773 278.864 293.634 284.014 294.599C289.262 295.581 291.779 296.5 303.601 301.745C307.008 303.257 309.979 304.494 310.204 304.494C310.926 304.494 310.658 303.943 308.474 300.933C304.386 295.301 303.162 292.956 301.058 286.738C299.805 283.033 299.702 282.396 299.685 278.267C299.668 274.206 299.798 273.316 301.126 268.409C302.457 263.49 302.586 262.605 302.589 258.364C302.592 253.216 302.17 251.31 299.954 246.472C297.4 240.893 295.275 238.037 288.949 231.684C286.256 228.98 284.154 226.666 284.278 226.542C284.596 226.223 289.022 228.671 292.757 231.231C296.405 233.732 303.111 240.095 305.347 243.18C307.555 246.226 309.304 249.561 310.479 252.97C311.426 255.719 311.504 256.386 311.504 261.712C311.504 267.021 311.426 267.694 310.517 270.192C309.975 271.685 308.779 274.018 307.861 275.376C306.942 276.735 306.275 277.983 306.378 278.15C306.481 278.317 307.354 278.453 308.318 278.453C311.643 278.453 314.318 275.074 315.831 268.967C317.396 262.649 316.412 255.44 313.059 248.661C310.563 243.615 308.909 241.355 304.501 236.965C299.763 232.247 294.167 227.948 289.171 225.188C287.258 224.131 285.784 223.175 285.896 223.063C286.175 222.784 287.992 222.952 293.8 223.794C303.022 225.13 313.011 224.556 320.472 222.261C324.063 221.156 328.931 218.563 331.818 216.216C334.583 213.969 338.124 209.259 339.242 206.342C340.292 203.601 340.295 199.637 339.249 198.418L338.494 197.54L337.854 198.448C337.501 198.948 336.689 200.706 336.05 202.354C332.623 211.193 327.314 216.213 318.775 218.687C311.22 220.876 300.29 221.431 291.599 220.067C287.104 219.362 284.572 218.664 284.572 218.132C284.572 217.735 287.911 217.497 293.339 217.506C307.285 217.528 317.487 212.486 326.963 200.888C332.603 193.985 336.767 190.272 343.537 186.109C349.629 182.364 354.978 180.062 361.486 178.387C363.817 177.787 363.458 177.13 360.396 176.396C356.302 175.413 348.862 172.341 343.909 169.588C336.329 165.375 334.15 163.543 324.006 152.85C317.706 146.209 311.751 142.852 302.987 140.999C299.942 140.355 292.235 140.267 287.403 140.821C281.734 141.47 282.984 140.546 289.651 139.16C297.15 137.601 299.782 137.357 307.002 137.553C314.959 137.769 319.147 138.664 324.333 141.253C329.892 144.029 333.164 147.845 336.474 155.413C337.438 157.614 338.385 159.514 338.58 159.635C338.774 159.755 339.258 159.56 339.654 159.201C340.223 158.686 340.375 158.051 340.375 156.179C340.375 148.8 333.551 140.636 324.092 136.698C319.168 134.648 315.073 133.972 307.637 133.982C300.283 133.992 294.999 134.759 289.002 136.687C287.095 137.301 285.472 137.739 285.395 137.662C285.318 137.585 287.403 136.105 290.029 134.372C303.348 125.587 312.163 115.246 315.144 104.908C315.863 102.414 316.003 101.058 316.005 96.5378C316.008 89.9762 315.258 87.214 312.706 84.3953C311.262 82.8004 310.968 82.6472 309.063 82.4891C307.922 82.3946 306.89 82.4783 306.768 82.6751C306.646 82.8719 307.275 84.1412 308.164 85.4957C310.424 88.9361 311.357 92.5844 311.357 97.9749C311.357 106.013 308.724 112.475 302.75 119.095C298.591 123.703 292.676 128.631 287.539 131.768C281.848 135.243 280.566 135.841 263.368 143.052C260.81 144.124 257.831 145.406 256.748 145.899C249.73 149.097 238.683 152.34 234.81 152.34C232.215 152.34 233.733 151.722 243.093 148.967C248.06 147.505 252.658 145.739 264.112 140.892C268.92 138.857 273.272 137.065 273.784 136.91C277.8 135.694 285.874 130.255 290.174 125.869C295.303 120.637 300.402 111.942 301.921 105.838C302.913 101.848 302.768 96.9835 301.521 92.4457C300.987 90.5019 300.187 87.1798 299.744 85.0634C299.008 81.5509 298.974 80.8522 299.354 77.0558C299.615 74.4439 300.149 71.7929 300.79 69.9295C302.251 65.6807 305.473 59.4413 307.63 56.6835C308.649 55.3804 309.486 54.1676 309.49 53.9886C309.506 53.3049 307.154 54.1962 300.719 57.3119C292.277 61.3996 290.527 62.1897 287.549 63.2574C280.238 65.8779 273.862 66.5773 267.423 65.4657C261.788 64.4925 256.571 64.6074 252.079 65.8031C244.575 67.8004 240.424 70.0976 233.327 76.1827C229.109 79.799 227.654 80.8403 227.654 80.2421C227.654 79.664 237.41 68.2078 240.896 64.6919C244.997 60.5558 248.022 58.2795 252.207 56.1802C260.201 52.1699 268.175 51.9842 277.268 55.5961C281.031 57.0912 281.596 57.0808 281.596 55.5165C281.596 53.4232 280.119 51.7919 276.687 50.094C269.458 46.5182 262.241 46.6224 254.138 50.4199C246.092 54.1903 239.777 59.7214 229.623 71.8919C226.399 75.756 224.933 77.0487 225.617 75.426C226.401 73.5641 227.755 68.2368 228.619 63.6145C229.497 58.9145 229.574 57.7891 229.412 52.0821C229.259 46.7314 229.079 45.2136 228.243 42.2237C224.648 29.365 216.106 21.0188 206.54 21.0188C203.484 21.0188 201.417 21.7379 201.038 22.9325C200.625 24.2353 201.502 24.739 204.184 24.739C212.728 24.739 219.231 29.8575 223.162 39.6776C224.963 44.1738 225.445 46.997 225.662 54.3142C225.83 59.9498 225.739 61.7957 225.088 65.969C224.662 68.6962 224.217 71.0846 224.098 71.2762C223.648 72.0038 223.19 71.1341 223.19 69.553C223.19 67.6222 221.903 59.3806 221.101 56.1742C220.243 52.7439 218.605 48.5085 217.126 45.8929C213.979 40.3312 210.4 37.1107 202.729 32.9382C200.376 31.6581 197.64 30.0171 196.649 29.2913C194.072 27.4052 188.808 21.3551 186.878 18.0621C185.043 14.9319 182.72 9.19063 181.499 4.76923C181.057 3.16919 180.567 1.44156 180.41 0.930037L180.125 0L179.754 0.930037Z" fill="url(#paint0_radial_1528_1892)"/>
<path fill-rule="evenodd" clip-rule="evenodd" d="M181.587 39.7981C185.878 46.0874 190.015 50.0017 193.775 51.3283C194.628 51.6293 197.369 52.1341 199.865 52.4503C203.745 52.9418 204.845 53.2409 207.449 54.5124C210.856 56.1764 212.202 57.5161 214.345 61.3705C216.677 65.5661 217.35 68.6947 217.144 74.3854C216.928 80.3492 216.443 82.0772 211.139 95.7495C209.027 101.195 207.107 106.437 206.874 107.397C206.356 109.524 206.343 113.985 206.843 117.742C207.77 124.702 206.97 143.039 205.74 143.039C205.56 143.039 205.503 138.869 205.612 133.646C205.767 126.261 205.669 122.843 205.153 117.661C204.793 114.036 204.574 110.101 204.666 108.918C204.777 107.506 205.573 104.85 206.983 101.187C212.085 87.9339 212.153 87.7107 212.186 84.0746C212.21 81.2953 212.07 80.4322 211.362 78.9932C210.535 77.3143 208.875 75.3322 208.296 75.3322C208.14 75.3322 207.939 78.1365 207.849 81.5635C207.706 86.986 207.554 88.227 206.675 91.1257C205.449 95.1666 203.4 100.012 201.95 102.298C200.925 103.915 200.818 103.978 199.479 103.771L198.079 103.553L194.202 108.442C190.309 113.351 186.186 117.501 185.452 117.249C184.851 117.044 185.136 115.832 187.309 109.372C189.994 101.387 190.694 98.5084 191.24 93.2064C191.788 87.8885 191.34 82.7941 189.889 77.8682C189.388 76.1667 187.302 71.4261 185.254 67.3339C181.689 60.2106 180.581 58.2709 180.277 58.6187C180.2 58.7061 179.182 60.9539 178.013 63.6138C171.823 77.7046 170.734 81.6141 170.739 89.7132C170.743 97.1498 171.804 102.563 175.045 111.675C177.234 117.829 177.21 117.742 176.734 117.742C175.766 117.742 167.921 108.86 165.798 105.361C165.026 104.088 164.123 102.843 163.79 102.594C163.105 102.08 162.514 102.287 162.724 102.966C162.802 103.215 162.964 104.507 163.086 105.837L163.307 108.256L162.515 107.326C160.429 104.874 157.566 97.62 156.184 91.2846C155.28 87.1381 155.007 79.9277 155.611 76.1693C155.817 74.8877 155.795 74.2162 155.547 74.2162C154.654 74.2162 152.814 76.3036 151.685 78.5959C150.077 81.8618 149.861 85.1482 150.984 89.2419C152.194 93.6517 156.398 104.079 158.8 108.628C161.275 113.316 161.733 114.485 160.981 114.196C159.834 113.756 155.348 105.392 152.407 98.2111C149.973 92.2675 146.29 81.1133 145.836 78.3083C145.338 75.2322 145.328 69.6984 145.816 67.1055C146.383 64.0963 147.877 61.3858 150.505 58.5997C153.455 55.473 156.177 54.0768 161.336 53.0463C163.43 52.6282 166.025 51.8399 167.103 51.2952C170.687 49.4828 175.857 43.625 178.288 38.6218C178.72 37.7319 179.248 37.0597 179.462 37.1278C179.675 37.1962 180.632 38.3979 181.587 39.7981Z" fill="#F9D156"/>
<path fill-rule="evenodd" clip-rule="evenodd" d="M116.251 78.5093C129.087 81.8224 142.644 97.1926 147.412 113.836C147.94 115.678 148.8 119.779 149.324 122.951C150.25 128.558 151.577 136.181 152.003 138.34C152.317 139.931 151.392 139.429 150.328 137.432C145.931 129.18 140.445 121.705 134.092 115.316C127.454 108.638 121.786 104.859 113.976 101.902C110.731 100.674 98.6833 96.9095 97.9973 96.9095C97.3931 96.9095 97.4627 97.1498 100.532 105.652C103.881 114.93 105.752 118.678 109.672 123.964C114.825 130.913 123.654 138.639 130.21 141.935C131.803 142.736 133.21 143.56 133.338 143.767C133.791 144.5 116.39 143.416 111.957 142.434C105.138 140.924 89.7769 134.035 84.8737 130.289C80.9143 127.264 77.9382 123.619 75.6154 118.951L73.454 114.607L73.3234 110.059C73.1653 104.554 73.4956 103.363 76.6239 98.1676C79.4203 93.5234 79.8723 91.6805 79.2886 87.3082C79.0513 85.5299 78.6183 83.1568 78.3266 82.0349C78.0346 80.9125 77.8724 79.8705 77.9661 79.7191C78.0599 79.5673 79.1919 79.8407 80.4821 80.3262C87.7777 83.0724 92.3147 83.046 100.675 80.2086C103.709 79.1789 106.693 78.2716 107.307 78.1923C110.059 77.837 114.218 77.9844 116.251 78.5093Z" fill="#F9D156"/>
<path fill-rule="evenodd" clip-rule="evenodd" d="M260.633 80.3884C264.894 81.8445 266.377 82.1789 269.199 82.3184C273.217 82.5171 276.472 82.0152 280.731 80.5394C282.435 79.949 283.829 79.612 283.829 79.7906C283.829 79.9691 283.41 81.6759 282.9 83.5833C281.876 87.4024 281.657 92.0592 282.417 93.823C282.663 94.3951 283.662 96.1269 284.637 97.6715C286.954 101.345 287.422 102.53 288.106 106.452C288.994 111.542 288.189 116.159 285.622 120.708C282.865 125.593 279.006 129.616 274.526 132.278C270.487 134.678 249.85 142.103 244.209 143.187C242.572 143.501 238.973 144.027 236.211 144.357C233.449 144.686 230.812 145.044 230.351 145.154C228.766 145.53 229.462 144.295 231.654 142.846C235.667 140.192 240.484 136.06 245.166 131.257C252.714 123.512 256.938 116.414 260.897 104.825C262.031 101.506 263.14 98.4505 263.362 98.0357C263.94 96.9564 263.434 97.0413 259.097 98.7503C257.047 99.5583 253.277 100.989 250.719 101.93C237.529 106.782 229.069 113.087 221.014 124.067C210.409 138.522 208.251 141.227 207.731 140.718C207.31 140.307 211.416 124.047 213.768 116.812C216.242 109.201 218.54 103.824 221.243 99.3277C226.601 90.4131 232.325 84.9545 240.324 81.1317C247.471 77.7158 252.295 77.5391 260.633 80.3884Z" fill="#F9D156"/>
<path fill-rule="evenodd" clip-rule="evenodd" d="M125.892 89.2604C125.167 94.0977 126.943 97.0173 133.543 101.839C137.238 104.537 140.075 107.657 142.669 111.874C145.078 115.791 145.008 115.694 145.238 115.464C145.872 114.83 141.78 104.366 139.239 100.127C135.551 93.9716 130.093 88.3166 127.302 87.7582C126.173 87.5328 126.147 87.5607 125.892 89.2604Z" fill="url(#paint1_radial_1528_1892)"/>
<path fill-rule="evenodd" clip-rule="evenodd" d="M233.619 88.5623C231.793 89.3648 226.729 94.6957 224.264 98.4122C223.115 100.143 221.397 103.217 220.445 105.242C217.548 111.404 216.128 117.278 218.548 113.083C221.352 108.225 225.101 104.011 229.514 100.758C232.842 98.3061 235.758 95.2206 236.22 93.6641C236.449 92.8915 236.582 91.3387 236.516 90.2133C236.379 87.8689 235.865 87.5757 233.619 88.5623Z" fill="url(#paint2_radial_1528_1892)"/>
<path fill-rule="evenodd" clip-rule="evenodd" d="M79.6666 117.445C77.0476 120.064 86.3093 131.879 90.9811 131.879C92.5465 131.879 92.6116 131.251 91.3434 128.383C89.5365 124.298 86.0128 119.752 83.3324 118.049C81.5594 116.923 80.3827 116.729 79.6666 117.445Z" fill="url(#paint3_radial_1528_1892)"/>
<path fill-rule="evenodd" clip-rule="evenodd" d="M278.677 117.932C275.754 119.218 273.078 122.131 269.625 127.785C267.626 131.06 266.716 132.803 266.716 133.354C266.716 135.028 276.49 129.211 278.759 126.187C280.6 123.732 281.641 121.137 281.523 119.296C281.393 117.293 280.788 117.003 278.677 117.932Z" fill="url(#paint4_radial_1528_1892)"/>
<path fill-rule="evenodd" clip-rule="evenodd" d="M183.079 131.933C186.279 134.467 189.493 140.121 190.666 145.282C191.463 148.784 191.231 153.453 190.095 156.79C189.105 159.697 186.044 165.894 184.3 168.52C183.032 170.431 181.403 171.687 180.874 171.161C180.72 171.007 180.511 168.384 180.408 165.329C180.3 162.094 180.067 159.739 179.85 159.686C179.628 159.632 179.329 161.762 179.106 164.989C178.902 167.956 178.599 170.593 178.433 170.849C177.843 171.76 176.724 171.314 175.637 169.732C173.83 167.106 170.468 159.807 169.426 156.247C166.86 147.484 168.359 140.334 173.93 134.762C178.054 130.638 180.492 129.884 183.079 131.933Z" fill="#F9D156"/>
<path fill-rule="evenodd" clip-rule="evenodd" d="M95.8102 133.797C97.3786 135.571 107.27 139.32 110.382 139.32C112.915 139.32 110.888 138.115 103.092 134.986C99.931 133.717 97.5832 132.996 96.6171 132.996H95.1015L95.8102 133.797Z" fill="url(#paint5_radial_1528_1892)"/>
<path fill-rule="evenodd" clip-rule="evenodd" d="M255.695 135.19C251.575 136.592 249.381 137.685 248.458 138.797C248.027 139.316 248.135 139.351 249.439 139.115C253.382 138.401 260.768 135.914 261.694 134.988C263.396 133.286 261.06 133.365 255.695 135.19Z" fill="url(#paint6_radial_1528_1892)"/>
<path fill-rule="evenodd" clip-rule="evenodd" d="M83.4983 148.985C87.1813 149.174 91.3665 149.578 92.7987 149.883C97.9641 150.982 104.592 154.022 109.957 157.753C113.085 159.929 122.546 168.449 124.112 170.5C126.001 172.976 124.555 172.035 120.127 167.908C111.796 160.144 108.521 157.806 101.355 154.51C96.5817 152.314 94.4106 151.821 90.5685 152.06C87.1385 152.274 83.6308 153.588 82.133 155.219L81.2662 156.163L84.4284 155.833C94.4512 154.788 101.724 156.696 109.051 162.293C115.822 167.466 123.404 174.628 122.446 174.947C122.219 175.023 120.143 174.497 117.833 173.78C108.225 170.797 102.643 169.818 95.3243 169.832C88.2609 169.845 82.2164 171.141 72.3182 174.763C68.2669 176.246 64.5739 177.366 60.3404 178.397C59.4706 178.609 58.7594 178.917 58.7594 179.081C58.7594 179.245 60.3081 179.757 62.2005 180.218C64.0929 180.679 67.8179 181.897 70.4778 182.924C73.1377 183.951 76.5495 185.266 78.0595 185.845C83.9087 188.089 87.2192 188.612 95.5888 188.612C104.506 188.612 106.987 188.174 116.923 184.848C123.086 182.786 123.862 182.6 123.862 183.191C123.862 183.836 116.08 191.661 113.064 194.048C102.722 202.232 94.3158 204.751 82.9403 203.072L81.2662 202.825L81.9593 203.607C82.7223 204.467 86.7293 206.233 90.1734 207.227C96.3805 209.019 101.921 207.369 116.919 199.265C125.051 194.87 127.944 193.588 126.917 194.837C126.235 195.665 119.236 199.868 114.121 202.521C107.797 205.801 100.617 208.787 96.642 209.789C87.483 212.098 72.8721 211.886 66.4165 209.35C62.3437 207.75 57.7862 203.899 56.134 200.661C55.7464 199.901 54.9254 197.716 54.3093 195.805C53.6936 193.895 52.6944 191.59 52.0891 190.683C49.456 186.739 44.7273 182.856 39.3216 180.2C37.9403 179.521 36.8105 178.772 36.8105 178.536C36.8105 178.3 37.7952 177.68 38.9983 177.158C42.3461 175.706 47.6945 172.261 49.6588 170.291C51.4459 168.498 52.6609 166.244 54.4801 161.347C57.204 154.015 62.2775 149.969 70.1058 148.886C72.1474 148.604 76.7299 148.638 83.4983 148.985Z" fill="#F9D156"/>
<path fill-rule="evenodd" clip-rule="evenodd" d="M293.872 149.73C297.429 150.745 299.447 151.932 301.87 154.434C303.746 156.371 304.357 157.425 307.608 164.326C309.948 169.295 314.398 173.312 321.149 176.552C322.925 177.404 324.378 178.246 324.378 178.422C324.378 178.599 323.164 179.352 321.68 180.095C317.716 182.083 314.248 184.511 311.398 187.294C308.404 190.218 307.363 191.901 305.376 197.037C303.565 201.716 301.872 204.282 299.329 206.2C296.523 208.317 295.149 209.052 291.826 210.212C289.124 211.156 288.263 211.266 282.454 211.412C271.139 211.697 264.435 210.428 256.485 206.496C250.855 203.712 246.422 200.613 238.005 193.58C231.766 188.366 229.842 186.565 230.512 186.565C230.972 186.565 233.472 188.432 237.512 191.794C246.687 199.427 256.501 205.727 261.482 207.18C265.476 208.345 270.57 207.723 274.892 205.541C276.88 204.537 278.171 203.476 277.824 203.13C277.737 203.043 276.416 203.148 274.888 203.362C270.782 203.94 264.462 203.569 261.333 202.567C255.376 200.66 250.413 197.459 243.646 191.16C241.7 189.349 239.278 187.163 238.265 186.303C237.252 185.444 236.55 184.613 236.706 184.456C236.862 184.301 240.204 184.968 244.133 185.941C254.616 188.535 256.353 188.797 263.074 188.797C267.971 188.797 269.881 188.628 273.737 187.855C279.371 186.726 280.131 186.492 289.408 183.033C293.398 181.545 297.643 180.11 298.842 179.844C300.723 179.426 300.935 179.297 300.389 178.897C300.041 178.642 299.06 178.321 298.209 178.182C297.359 178.043 292.477 176.533 287.362 174.826C282.247 173.12 276.806 171.471 275.272 171.163C267.794 169.662 261.03 169.513 254.78 170.712C251.159 171.406 243.055 173.727 240.855 174.701C237.502 176.184 237.923 175.324 242.98 170.36C254.128 159.417 258.667 156.783 268.239 155.702C271.134 155.375 272.758 155.363 274.353 155.658C275.547 155.879 277.192 156.059 278.009 156.059H279.494L278.655 155.167C278.194 154.676 276.783 153.81 275.521 153.242C268.744 150.193 258.316 153.158 249.726 160.574C248.738 161.428 245.951 163.983 243.533 166.254C236.856 172.524 236.583 172.136 242.906 165.362C251.334 156.335 258.847 151.792 268.548 149.856C275.493 148.47 289.222 148.402 293.872 149.73Z" fill="#F9D156"/>
<path fill-rule="evenodd" clip-rule="evenodd" d="M154.367 152.737C155.697 153.128 158.041 154.145 159.575 154.999C164.385 157.672 171.822 165.927 174.139 171.165C174.843 172.757 174.855 172.933 174.294 173.494C173.734 174.055 173.323 173.911 168.861 171.591C163.69 168.902 161.909 168.356 164.008 170.104C164.684 170.667 166.515 171.904 168.077 172.852C171.186 174.74 172.465 176.099 172.08 177.104C171.854 177.692 171.157 177.728 163.565 177.541C155.118 177.334 151.699 176.881 147.805 175.456C141.512 173.152 136.012 166.624 135.488 160.835L135.287 158.625L137.322 156.654C142.012 152.111 147.752 150.792 154.367 152.737Z" fill="#F9D156"/>
<path fill-rule="evenodd" clip-rule="evenodd" d="M216.679 153.063C218.813 153.982 222.59 157.246 223.333 158.813C225.021 162.37 220.875 169.502 214.625 173.796C210.519 176.617 205.663 177.637 195.092 177.902C188.268 178.072 187.206 178.022 186.782 177.511C185.843 176.379 187.421 174.969 192.871 172.07C199.304 168.648 196.921 168.498 189.737 171.872C187.277 173.028 185.092 173.867 184.882 173.737C184.044 173.219 184.6 171.624 186.588 168.84C192.697 160.288 197.513 156.088 204.035 153.622C208.323 152.002 213.666 151.765 216.679 153.063Z" fill="#F9D156"/>
<path fill-rule="evenodd" clip-rule="evenodd" d="M172.516 181.024C172.593 181.426 171.198 182.604 168.241 184.635C164.222 187.394 162.563 188.933 163.065 189.435C163.172 189.541 165.384 188.354 167.982 186.795C172.705 183.962 174.615 183.345 175.062 184.509C175.323 185.189 172.468 190.513 169.517 194.85C161.767 206.237 151.357 210.405 142.149 205.806C139.804 204.635 137.255 202.295 137.255 201.314C137.255 199.954 138.704 195.173 139.734 193.135C141.881 188.89 147.948 184.113 153.465 182.325C158.728 180.618 172.261 179.695 172.516 181.024Z" fill="#F9D156"/>
<path fill-rule="evenodd" clip-rule="evenodd" d="M199.431 181.208C204.665 181.888 209.518 183.189 212.143 184.618C214.343 185.815 218.28 189.646 219.563 191.837C220.557 193.535 222.258 198.731 222.655 201.282C222.854 202.558 222.742 202.968 221.932 203.93C220.305 205.864 214.819 207.776 210.928 207.765C206.562 207.754 202.209 206.15 198.219 203.083C192.566 198.739 182.908 186.008 183.966 184.296C184.293 183.765 186.167 184.236 188.601 185.458C191.352 186.841 195.286 188.426 195.968 188.426C197.16 188.426 195.147 186.955 190.609 184.511C188.068 183.143 185.988 181.868 185.988 181.678C185.988 180.511 192.342 180.289 199.431 181.208Z" fill="#F9D156"/>
<path fill-rule="evenodd" clip-rule="evenodd" d="M178.75 186.986C178.888 187.422 179.037 189.765 179.081 192.191C179.125 194.618 179.283 196.726 179.433 196.875C180.084 197.526 180.397 195.727 180.402 191.297C180.407 187.348 180.506 186.505 180.985 186.321C182.022 185.923 183.384 187.754 186.008 193.072C190.586 202.351 191.87 207.922 190.746 213.631C189.675 219.067 186.6 223.938 182.66 226.438C180.642 227.718 179.027 227.777 176.756 226.65C171.845 224.215 168.132 217.358 168.132 210.724C168.132 206.031 171.031 197.043 174.724 190.286C176.852 186.391 178.208 185.28 178.75 186.986Z" fill="#F9D156"/>
<path fill-rule="evenodd" clip-rule="evenodd" d="M130.093 214.342C131.986 214.471 133.534 214.729 133.534 214.917C133.534 215.105 132.321 215.82 130.837 216.506C120.303 221.377 108.32 233.189 102.905 244.041C101.738 246.379 96.7648 258.782 96.1547 260.875C95.8422 261.947 95.9735 261.934 99.309 260.558C100.844 259.925 104.527 258.519 107.493 257.433C117.197 253.882 123.143 250.879 129.07 246.538C135.205 242.045 143.175 232.741 149.532 222.65C151.015 220.297 152.458 218.127 152.739 217.828C153.652 216.856 153.352 218.858 151.968 222.965C151.263 225.059 150.253 228.984 149.724 231.687C149.196 234.39 148.34 238.777 147.823 241.437C146.692 247.25 145.447 251.305 143.78 254.607C137.28 267.478 131.283 274.569 122.888 279.31C118.199 281.958 115.837 282.627 111.027 282.669C106.371 282.71 104.64 282.298 98.751 279.75C91.9736 276.818 86.7453 276.58 79.6614 278.882C78.3694 279.301 77.2191 279.551 77.1046 279.437C76.9903 279.323 77.2742 277.702 77.7355 275.835C78.2411 273.789 78.574 271.298 78.574 269.562C78.574 266.984 78.43 266.396 77.1976 263.94C76.4401 262.431 75.5198 260.768 75.1522 260.245C73.2393 257.522 71.7967 252.888 71.787 249.435C71.7691 243.286 73.7676 237.916 78.343 231.82C82.5077 226.271 87.3342 223.033 97.4489 219.002C105.274 215.884 110.622 214.431 116.05 213.95C117.89 213.787 124.72 213.978 130.093 214.342Z" fill="#F9D156"/>
<path fill-rule="evenodd" clip-rule="evenodd" d="M252.951 215.654C260.498 218.208 269.445 221.806 272.431 223.488C277.958 226.602 283.636 232.232 286.213 237.154C288.23 241.008 288.819 243.486 288.823 248.134C288.828 252.971 288.436 254.346 285.27 260.597C283.722 263.654 283.034 265.476 282.86 266.982C282.597 269.267 283.157 274.105 284.054 277.284C284.363 278.381 284.52 279.373 284.403 279.491C284.286 279.608 283.062 279.297 281.684 278.799C279.436 277.989 278.583 277.895 273.412 277.895H267.645L263.524 279.629C257.498 282.164 255.947 282.546 251.667 282.546C243.487 282.546 236.452 278.996 229.282 271.252C225.918 267.619 223.611 264.01 220.211 257.063C215.717 247.881 213.857 242.91 209.596 228.693C208.293 224.343 207.042 220.492 206.817 220.136C206.514 219.659 206.485 220.56 206.707 223.581C206.872 225.832 207.007 232.947 207.008 239.392L207.008 251.11L208.148 254.272C208.775 256.012 210.595 260.783 212.193 264.875C217.362 278.112 218.299 284.219 216.344 291.924C215.143 296.659 213.882 298.998 210.951 301.929C207.821 305.059 205.414 306.286 201.082 306.958C195.634 307.803 194.107 308.235 191.904 309.556C188.941 311.332 184.675 315.986 182.3 320.034C181.193 321.922 180.148 323.467 179.979 323.467C179.81 323.467 179.02 322.17 178.222 320.584C176.43 317.019 174.108 313.897 171.156 311.081C168.466 308.515 166.745 307.695 161.906 306.674C157.338 305.71 154.707 304.48 152.251 302.161C144.614 294.948 143.724 285.396 149.175 269.153C151.736 261.52 157.316 249.025 158.644 247.948C159.275 247.437 159.314 247.452 159.118 248.134C159.001 248.543 157.569 252.143 155.937 256.133C152.594 264.302 151.32 268.12 150.633 272.018C150.18 274.595 150.2 274.802 151.161 277.436C152.077 279.947 154.003 282.918 154.716 282.918C154.878 282.918 155.103 280.365 155.216 277.244C155.557 267.81 156.959 262.06 160.775 254.458C164.29 247.456 165.824 245.753 163.731 251.177C162.257 254.997 162.093 255.872 162.696 256.697C163.156 257.326 163.363 257.133 165.199 254.357C167.217 251.307 176.1 241.252 176.776 241.252C176.976 241.252 177.021 241.545 176.878 241.903C172.232 253.463 170.504 261.952 170.841 271.571C171.108 279.208 172.503 284.223 176.66 292.5C178.602 296.369 180.036 300.224 180.036 301.581C180.036 302.862 180.614 302.004 181.694 299.119C182.227 297.698 183.733 294.517 185.04 292.051C193.168 276.728 193.568 267.499 186.926 248.546C185.787 245.294 184.96 242.532 185.09 242.408C185.38 242.129 191.247 248.309 195.558 253.435C200.221 258.98 200.86 258.465 197.675 251.728C195.869 247.908 195.883 247.948 196.384 247.948C196.994 247.948 199.67 252.004 201.76 256.096C205.575 263.565 207.937 272.411 207.937 279.232V283.057L208.993 282.045C210.771 280.342 211.771 277.872 211.948 274.746C212.205 270.237 211.988 269.433 206.721 255.389L205.536 252.226L205.51 234.463C205.492 222.108 205.605 216.699 205.881 216.699C206.308 216.699 211.358 222.538 216.493 228.969C225.707 240.507 229.678 244.405 236.781 248.886C242.185 252.296 245.517 253.851 256.802 258.229C258.613 258.932 260.91 259.919 261.905 260.424C264.162 261.567 264.602 261.582 264.295 260.504C263.575 257.976 259.707 248.385 258.162 245.298C252.063 233.113 243.282 223.634 231.833 216.877C230.141 215.878 228.815 214.886 228.886 214.671C229.113 213.979 231.764 213.787 239.93 213.872L247.929 213.955L252.951 215.654Z" fill="#F9D156"/>
<path fill-rule="evenodd" clip-rule="evenodd" d="M247.371 217.471C248.906 218.54 261.401 223.395 262.618 223.395C263.728 223.395 263.563 222.092 262.344 221.25C259.931 219.58 251.905 217.069 249.007 217.076C247.372 217.081 246.955 217.181 247.371 217.471Z" fill="url(#paint7_radial_1528_1892)"/>
<path fill-rule="evenodd" clip-rule="evenodd" d="M105.549 218.162C99.3172 219.843 95.0725 222.283 96.2797 223.49C96.8302 224.041 111.59 218.755 111.867 217.907C112.095 217.21 108.548 217.353 105.549 218.162Z" fill="url(#paint8_radial_1528_1892)"/>
<path fill-rule="evenodd" clip-rule="evenodd" d="M266.344 223.82C266.345 226.144 274.872 238.659 277.561 240.283C278.727 240.988 280.52 241.063 281.149 240.433C281.777 239.806 281.704 237.617 280.984 235.459C279.71 231.643 275.489 227.248 270.993 225.059C267.796 223.501 266.343 223.114 266.344 223.82Z" fill="url(#paint9_radial_1528_1892)"/>
<path fill-rule="evenodd" clip-rule="evenodd" d="M88.574 225.361C83.8832 227.735 78.4771 234.684 78.4764 238.339C78.476 240.527 78.7502 240.88 80.4507 240.88C81.8212 240.88 82.1887 240.659 84.1243 238.669C87.6733 235.019 92.5999 227.069 92.6088 224.977C92.6141 223.791 91.4556 223.902 88.574 225.361Z" fill="url(#paint10_radial_1528_1892)"/>
<path fill-rule="evenodd" clip-rule="evenodd" d="M217.067 244.134C218.121 248.58 222.337 257.811 225.658 262.945C228.76 267.74 233.151 271.608 235.165 271.319C236.813 271.083 237.532 267.511 236.446 264.955C235.956 263.802 231.089 258.785 228.398 256.658C224.282 253.405 221.271 249.715 218.333 244.32C217.636 243.042 216.952 241.995 216.813 241.995C216.674 241.995 216.788 242.958 217.067 244.134Z" fill="url(#paint11_radial_1528_1892)"/>
<path fill-rule="evenodd" clip-rule="evenodd" d="M142.685 245.809C139.326 252.165 137.621 254.175 132.046 258.352C129.331 260.386 126.459 263.285 125.693 264.767C124.893 266.311 124.773 268.453 125.386 270.213C125.927 271.763 127.241 271.772 129.551 270.243C134.568 266.919 140.856 257.268 143.35 249.062C144.253 246.093 144.976 242.368 144.65 242.368C144.569 242.368 143.685 243.916 142.685 245.809Z" fill="url(#paint12_radial_1528_1892)"/>
<defs>
<radialGradient id="paint0_radial_1528_1892" cx="0" cy="0" r="1" gradientUnits="userSpaceOnUse" gradientTransform="translate(181.5 178.438) rotate(90) scale(178.438 181.5)">
<stop stop-color="#44190E"/>
<stop offset="0.653846" stop-color="#702618"/>
<stop offset="0.9999" stop-color="#91301F"/>
</radialGradient>
<radialGradient id="paint1_radial_1528_1892" cx="0" cy="0" r="1" gradientUnits="userSpaceOnUse" gradientTransform="translate(135.522 101.607) rotate(90) scale(13.9482 9.7814)">
<stop stop-color="#44190E"/>
<stop offset="0.653846" stop-color="#702618"/>
<stop offset="0.9999" stop-color="#91301F"/>
</radialGradient>
<radialGradient id="paint2_radial_1528_1892" cx="0" cy="0" r="1" gradientUnits="userSpaceOnUse" gradientTransform="translate(226.925 101.265) rotate(90) scale(13.2347 9.60822)">
<stop stop-color="#44190E"/>
<stop offset="0.653846" stop-color="#702618"/>
<stop offset="0.9999" stop-color="#91301F"/>
</radialGradient>
<radialGradient id="paint3_radial_1528_1892" cx="0" cy="0" r="1" gradientUnits="userSpaceOnUse" gradientTransform="translate(85.7197 124.451) rotate(90) scale(7.42768 6.51117)">
<stop stop-color="#44190E"/>
<stop offset="0.653846" stop-color="#702618"/>
<stop offset="0.9999" stop-color="#91301F"/>
</radialGradient>
<radialGradient id="paint4_radial_1528_1892" cx="0" cy="0" r="1" gradientUnits="userSpaceOnUse" gradientTransform="translate(274.124 125.538) rotate(90) scale(8.11283 7.40805)">
<stop stop-color="#44190E"/>
<stop offset="0.653846" stop-color="#702618"/>
<stop offset="0.9999" stop-color="#91301F"/>
</radialGradient>
<radialGradient id="paint5_radial_1528_1892" cx="0" cy="0" r="1" gradientUnits="userSpaceOnUse" gradientTransform="translate(103.257 136.158) rotate(90) scale(3.16213 8.15563)">
<stop stop-color="#44190E"/>
<stop offset="0.653846" stop-color="#702618"/>
<stop offset="0.9999" stop-color="#91301F"/>
</radialGradient>
<radialGradient id="paint6_radial_1528_1892" cx="0" cy="0" r="1" gradientUnits="userSpaceOnUse" gradientTransform="translate(255.237 136.51) rotate(90) scale(2.7454 7.00531)">
<stop stop-color="#44190E"/>
<stop offset="0.653846" stop-color="#702618"/>
<stop offset="0.9999" stop-color="#91301F"/>
</radialGradient>
<radialGradient id="paint7_radial_1528_1892" cx="0" cy="0" r="1" gradientUnits="userSpaceOnUse" gradientTransform="translate(255.291 220.236) rotate(90) scale(3.15934 8.07074)">
<stop stop-color="#44190E"/>
<stop offset="0.653846" stop-color="#702618"/>
<stop offset="0.9999" stop-color="#91301F"/>
</radialGradient>
<radialGradient id="paint8_radial_1528_1892" cx="0" cy="0" r="1" gradientUnits="userSpaceOnUse" gradientTransform="translate(103.976 220.495) rotate(90) scale(3.03509 7.90167)">
<stop stop-color="#44190E"/>
<stop offset="0.653846" stop-color="#702618"/>
<stop offset="0.9999" stop-color="#91301F"/>
</radialGradient>
<radialGradient id="paint9_radial_1528_1892" cx="0" cy="0" r="1" gradientUnits="userSpaceOnUse" gradientTransform="translate(273.96 232.171) rotate(90) scale(8.69083 7.61621)">
<stop stop-color="#44190E"/>
<stop offset="0.653846" stop-color="#702618"/>
<stop offset="0.9999" stop-color="#91301F"/>
</radialGradient>
<radialGradient id="paint10_radial_1528_1892" cx="0" cy="0" r="1" gradientUnits="userSpaceOnUse" gradientTransform="translate(85.5426 232.524) rotate(90) scale(8.35591 7.06624)">
<stop stop-color="#44190E"/>
<stop offset="0.653846" stop-color="#702618"/>
<stop offset="0.9999" stop-color="#91301F"/>
</radialGradient>
<radialGradient id="paint11_radial_1528_1892" cx="0" cy="0" r="1" gradientUnits="userSpaceOnUse" gradientTransform="translate(226.858 256.665) rotate(90) scale(14.6694 10.1047)">
<stop stop-color="#44190E"/>
<stop offset="0.653846" stop-color="#702618"/>
<stop offset="0.9999" stop-color="#91301F"/>
</radialGradient>
<radialGradient id="paint12_radial_1528_1892" cx="0" cy="0" r="1" gradientUnits="userSpaceOnUse" gradientTransform="translate(134.863 256.875) rotate(90) scale(14.5076 9.86598)">
<stop stop-color="#44190E"/>
<stop offset="0.653846" stop-color="#702618"/>
<stop offset="0.9999" stop-color="#91301F"/>
</radialGradient>
</defs>
</svg>
