<svg width="270" height="768" viewBox="0 0 270 768" fill="none" xmlns="http://www.w3.org/2000/svg">
<path d="M-31.1471 0L-31.1471 768L262.336 768V750.287H237.361V740.362H242.524V735.756H249.142V720.639H242.568V715.153H236.831V654.517H243.538L243.538 649.408H250.201V633.872H237.14V628.345H239.876V626.041H242.038V624.031H243.847V621.979H248.083V624.869H254.835V621.979H258.938L258.938 618.252H261.807V603.638H264.057V593.588C267.543 590.949 266.484 587.348 266.484 587.348C268.161 586.888 267.852 584.208 267.852 584.208C267.852 584.208 270.014 580.69 268.47 577.34C266.969 573.99 263.748 573.571 263.748 573.571C265.204 563.018 257.173 559.208 253.026 560.757C248.834 562.307 249.451 564.987 249.451 564.987C250.775 564.4 252.54 565.447 252.055 567.415C251.569 569.425 246.804 570.179 245.348 571.436C243.891 572.692 244.024 574.032 243.45 574.618C242.877 575.204 241.641 574.199 240.891 574.241C240.141 574.283 239.258 575.204 240.317 575.874C241.376 576.544 241.156 577.968 241.156 577.968H232.507V565.824H229.948C232.683 561.595 237.096 561.972 237.096 561.972H241.509C241.509 561.972 241.509 558.077 241.509 552.131C241.509 546.226 234.493 545.556 234.493 545.556H229.021C228.227 547.943 226.462 548.153 224.608 548.027C222.799 547.901 222.049 545.933 220.725 545.933C219.446 545.933 210.885 545.933 210.885 545.933C210.885 542.332 221.034 531.947 222.358 527.55C223.682 523.111 221.608 518.882 217.769 517.667C213.974 516.453 208.767 516.997 208.767 516.997L180.879 512.81C180.879 512.81 184.056 512.558 184.939 510.046C185.777 507.491 184.63 506.738 184.63 506.738C184.63 506.738 188.248 502.047 191.028 501.001C193.808 499.954 194.338 501.964 194.338 501.964C199.898 496.646 198.177 491.244 195.926 488.312C193.72 485.423 190.013 486.093 190.013 486.093C190.631 482.785 188.998 480.063 186.263 478.471C183.527 476.838 182.997 476.294 183.527 474.703C184.012 473.07 187.145 474.033 187.145 474.033C187.145 474.033 192.352 471.436 190.322 466.286C188.292 461.135 179.644 463.354 179.644 463.354C179.644 463.313 179.688 463.271 179.688 463.229C180.526 459.711 177.967 456.319 174.26 455.649L169.539 454.854C169.539 454.854 170.024 452.174 173.069 450.666C176.114 449.159 179.335 450.205 179.335 450.205C188.028 417.124 189.307 408.162 187.542 400.541C179.908 368.339 107.056 356.53 109.88 407.827C110.189 413.606 112.748 415.993 112.748 415.993C117.161 410.465 124.354 414.109 124.309 420.097C124.265 426.127 118.176 430.901 113.543 433.455C108.909 436.01 104.894 441.495 104.453 444.133C104.011 446.772 105.732 451.127 105.732 451.127C98.9369 451.127 99.0252 454.142 99.0252 454.142V457.701C103.526 459.46 101.055 462.894 98.2309 463.899C95.4068 464.862 92.1856 463.647 92.3621 460.297C92.5386 456.947 99.1134 437.14 98.0544 432.701C97.0395 428.263 92.9799 427.132 92.9799 427.132H76.918V417.961H78.5948V414.402H80.8011V411.889H83.8899V409.795C88.8762 409.795 89.4939 415.239 89.4939 415.239H98.4515V410.842H103.658V396.73H102.423L102.423 392.836H106.924L120.162 332.702C125.28 330.692 126.428 326.044 125.986 322.359C125.545 318.674 124.221 316.036 124.221 316.036C124.221 316.036 125.81 311.555 130.708 310.006C135.562 308.414 137.503 311.555 137.503 311.555C141.475 309.587 141.254 305.022 140.195 302.468C138.43 298.239 133.752 298.28 133.752 298.28C133.752 298.28 133.929 295.852 132.826 294.889C131.679 293.925 130.62 294.093 130.575 292.711C130.531 291.329 132.164 291.287 132.164 291.287C132.164 291.287 132.164 289.528 132.164 287.979C132.164 286.388 130.002 285.718 130.002 285.718H124.971C124.971 281.153 132.958 281.656 132.958 281.656C132.958 281.656 134.812 265.073 130.443 255.819C127.266 249.035 120.956 243.633 116.543 241.874C111.248 239.78 103.835 239.655 96.51 243.214C90.8177 245.978 86.8022 252.301 86.4051 255.525C85.8756 259.713 86.8022 261.89 86.8022 261.89C92.5386 258.624 95.2745 262.895 94.4802 266.497C93.6859 270.056 87.773 273.155 82.9191 275.333C78.0652 277.468 77.2268 282.828 77.2268 282.828V288.188H73.5202V292.125C73.5202 292.125 72.9025 293.465 71.1816 293.842L71.0051 293.884C69.3283 294.135 67.0337 293.59 67.5632 290.617C68.0927 287.56 73.2996 280.106 73.2996 274.956C73.2996 269.805 66.1071 269.889 66.1071 269.889V265.157H64.4744V262.979C64.4744 261.179 65.9305 259.671 67.828 259.545C67.9162 259.545 68.0045 259.545 68.0927 259.545C69.9902 259.545 71.5346 260.927 71.7111 262.686C71.7111 262.77 71.7111 262.896 71.7111 262.979V264.696H80.3598V260.257H84.1547V248.365H82.6544L80.5363 243.549L85.1254 244.386L88.5231 227.469C88.5231 227.469 93.3329 225.375 94.2596 220.559C95.2303 215.743 91.3031 213.985 91.3031 213.985C91.3031 213.985 91.965 211.933 94.3037 211.807C96.6424 211.682 97.7897 213.608 97.7897 213.608C97.7897 213.608 98.5839 210.551 98.9811 207.578C99.3782 204.646 95.451 203.893 95.451 203.893C95.451 203.893 97.7455 198.491 96.6424 195.476C95.5392 192.461 89.4057 191.162 89.4057 191.162L95.451 189.446C95.451 189.446 95.7157 188.147 97.6573 178.349C98.8045 172.612 95.451 166.079 89.4057 162.017C84.1988 158.541 79.742 157.243 70.6079 159.756C66.9454 160.761 60.9002 164.99 62.8858 172.905C62.8858 172.905 64.342 171.523 66.5483 171.983C68.0927 172.318 69.3724 173.617 69.0635 175.668C68.4016 179.94 57.4583 183.08 57.4583 190.953C57.4583 190.953 54.8107 189.864 53.6635 191.791C52.5162 193.717 53.6635 195.392 53.6635 195.392C53.6635 195.392 53.0016 198.198 50.354 197.988C50.0892 197.988 49.8245 197.946 49.5597 197.863C46.2503 196.941 47.6182 192.754 49.5597 190.367C51.5013 188.022 52.6044 180.903 43.4262 180.065V178.139H45.9414V167.126H47.5299V165.074H49.6921V164.446C49.6921 163.441 50.5305 162.645 51.5895 162.645C52.6486 162.645 53.487 163.441 53.487 164.446V166.916H60.5913V161.682H65.2687V154.27H64.1214V151.339H69.0194V141.33H67.475V138.232C67.475 138.232 72.9466 138.902 72.9466 131.573C72.9466 124.245 64.6068 124.329 64.6068 124.329V123.156C64.6068 123.156 70.9609 120.853 71.3581 115.242C71.7993 109.631 69.4165 106.783 65.4893 106.113C62.0033 105.527 59.7088 107.62 59.7088 107.62C59.7088 102.512 56.4434 101.13 54.3253 100.627C52.2073 100.125 48.5448 100.837 48.5448 104.103C48.5448 107.369 51.1483 107.369 51.1483 107.369C50.3099 110.636 45.8531 110.384 44.8824 110.301C44.75 110.301 44.6617 110.259 44.6617 110.259V102.763C44.6617 102.763 46.7356 101.339 46.9122 100.669C47.0445 100.167 46.9563 97.4447 46.9563 96.1884C46.9563 95.8116 46.6474 95.5603 46.2503 95.5603H43.7792C43.7792 92.1265 39.5431 90.6608 39.5431 90.6608H35.66V89.9489C35.66 89.9489 37.425 77.47 35.5717 72.2355C33.7184 67.0011 29.1293 61.7666 23.9224 61.7666C17.7889 61.7666 17.3917 65.1167 17.5241 67.0429C17.7006 69.3042 19.7746 69.9324 19.7746 69.9324C16.774 69.9324 15.9356 74.7481 15.9356 74.7481C15.9356 74.7481 14.7 73.8268 13.7734 73.9943C12.3172 74.2874 12.4055 75.7531 12.4055 77.4281C12.4055 79.5637 15.6708 79.48 15.6708 79.48C15.6708 79.48 15.0089 83.4582 10.8169 82.3694C6.62495 81.3226 6.71321 76.9675 8.74303 73.4918C10.7728 70.058 17.9212 65.7866 17.9212 55.904C17.9212 52.5958 16.7298 49.9996 15.1854 48.0314C12.3172 44.4301 7.7281 42.4619 2.96248 42.4619H-2.02379C-5.77452 42.7132 -12.6582 43.8438 -12.6582 50.2508C-12.6582 53.7684 -11.202 55.8203 -11.202 55.8203V59.2541H-14.1144V38.9862H-12.2611V32.8724C-12.2611 30.0667 -14.5115 29.6061 -14.5115 29.6061H-17.3356V27.8054H-15.6147C-15.6147 23.7016 -17.468 21.1891 -17.468 21.1891H-19.4537C-18.2623 13.7352 -24.9253 12.8977 -24.9253 12.8977V11.2227L-23.3367 11.2227V8.4589L-25.3665 8.4589C-25.3665 6.61638 -26.9109 5.86257 -26.9109 5.86257C-26.9109 5.86257 -26.6021 5.48573 -26.9109 4.27134C-27.2198 3.18257 -31.1471 0 -31.1471 0Z" fill="url(#paint0_linear_1528_1602)"/>
<path d="M0.272829 438.019H4.15594V440.824H8.08317V444.509H14.0843V443.63C14.0843 443.63 11.6574 443.379 11.6574 441.327C11.6574 439.736 12.6282 437.6 18.1881 437.977C22.3801 438.27 25.513 442.792 23.9686 448.069C22.4683 453.261 17.7027 453.555 17.7027 453.555H11.9663L11.9663 456.737H8.34793V459.292H4.7737L4.7737 461.846H0.22871L0.22871 438.019H0.272829Z" fill="url(#paint1_linear_1528_1602)" stroke="url(#paint2_linear_1528_1602)" stroke-width="0.062974" stroke-miterlimit="10"/>
<path d="M0.273439 466.914H4.15655V469.719H8.08378V473.405H14.0849V472.525C14.0849 472.525 11.658 472.274 11.658 470.222C11.658 468.631 12.6288 466.495 18.1887 466.872C22.3807 467.165 25.5136 471.688 23.9692 476.964C22.4689 482.157 17.7033 482.45 17.7033 482.45H11.9669L11.9669 485.632H8.34854V488.187H4.77431L4.77431 490.741H0.22932L0.22932 466.914H0.273439Z" fill="url(#paint3_linear_1528_1602)" stroke="url(#paint4_linear_1528_1602)" stroke-width="0.062974" stroke-miterlimit="10"/>
<path d="M0.274538 495.809H4.15765V498.615H8.08487V502.3H14.086V501.421C14.086 501.421 11.6591 501.169 11.6591 499.117C11.6591 497.526 12.6299 495.391 18.1898 495.767C22.3818 496.061 25.5147 500.583 23.9703 505.859C22.47 511.052 17.7044 511.345 17.7044 511.345H11.968L11.968 514.528H8.34964V517.082H4.77541L4.77541 519.637H0.230419L0.230419 495.809H0.274538Z" fill="url(#paint5_linear_1528_1602)" stroke="url(#paint6_linear_1528_1602)" stroke-width="0.062974" stroke-miterlimit="10"/>
<path d="M0.276002 524.704H4.15911V527.509H8.08634V531.195H14.0875V530.315C14.0875 530.315 11.6606 530.064 11.6606 528.012C11.6606 526.421 12.6313 524.285 18.1912 524.662C22.3832 524.955 25.5162 529.478 23.9718 534.754C22.4715 539.947 17.7058 540.24 17.7058 540.24H11.9694L11.9694 543.422H8.3511V545.977H4.77688L4.77688 548.531H0.231884L0.231884 524.704H0.276002Z" fill="url(#paint7_linear_1528_1602)" stroke="url(#paint8_linear_1528_1602)" stroke-width="0.062974" stroke-miterlimit="10"/>
<path d="M0.272279 553.602H4.15539V556.408H8.08262V560.093H14.0838V559.214C14.0838 559.214 11.6568 558.962 11.6568 556.911C11.6568 555.319 12.6276 553.184 18.1875 553.56C22.3795 553.854 25.5125 558.376 23.9681 563.652C22.4678 568.845 17.7021 569.138 17.7021 569.138H11.9657L11.9657 572.321H8.34738V574.875H4.77315L4.77315 577.43H0.22816L0.22816 553.602H0.272279Z" fill="url(#paint9_linear_1528_1602)" stroke="url(#paint10_linear_1528_1602)" stroke-width="0.062974" stroke-miterlimit="10"/>
<path d="M0.268495 582.486H4.1516V585.292H8.07883V588.977H14.08V588.098C14.08 588.098 11.6531 587.847 11.6531 585.795C11.6531 584.203 12.6238 582.068 18.1837 582.445C22.3757 582.738 25.5087 587.26 23.9643 592.537C22.464 597.729 17.6983 598.022 17.6983 598.022H11.9619L11.9619 601.205H8.34359V603.759H4.76937L4.76937 606.314H0.224376L0.224376 582.486H0.268495Z" fill="url(#paint11_linear_1528_1602)" stroke="url(#paint12_linear_1528_1602)" stroke-width="0.062974" stroke-miterlimit="10"/>
<path d="M0.270265 611.381H4.15337V614.187H8.0806V617.872H14.0818V616.992C14.0818 616.992 11.6548 616.741 11.6548 614.689C11.6548 613.098 12.6256 610.962 18.1855 611.339C22.3775 611.632 25.5105 616.155 23.966 621.431C22.4657 626.624 17.7001 626.917 17.7001 626.917H11.9637L11.9637 630.099H8.34536V632.654H4.77114L4.77114 635.25H0.226146L0.226146 611.381H0.270265Z" fill="url(#paint13_linear_1528_1602)" stroke="url(#paint14_linear_1528_1602)" stroke-width="0.062974" stroke-miterlimit="10"/>
<path d="M49.3817 427.09L49.3817 448.279H54.2797V446.562C56.3537 446.143 56.3978 444.552 56.3978 444.385C58.2952 450.331 63.8992 449.535 63.8992 449.535C66.0173 452.257 63.8992 453.765 63.8992 453.765H61.9136V458.078H73.254L73.254 570.891H88.1245V566.536H86.7566V563.94C86.7566 563.94 87.8598 563.94 89.8013 563.186C91.7429 562.39 92.9343 559.878 92.9343 559.878C93.1108 560.966 94.0816 560.925 94.0816 560.925V562.935H98.3618V555.355H132.56V562.935H136.399V560.883C137.634 560.589 137.943 559.584 137.943 559.584C139.002 562.474 173.332 563.353 174.524 563.856C175.671 564.317 175.23 565.489 175.23 565.489L173.729 566.913V570.682H182.246V622.147H189.835L195.484 616.787H213.972L220.68 622.147L226.681 616.452V613.227H243.846V621.979H248.082V624.869H254.833V621.979H258.937V618.252H261.805L261.805 603.638H264.056V593.587C267.542 590.949 266.483 587.348 266.483 587.348C268.159 586.887 267.85 584.207 267.85 584.207C267.85 584.207 270.013 580.69 268.468 577.34C266.968 573.99 263.747 573.571 263.747 573.571C265.203 563.018 257.172 559.208 253.024 560.757C248.832 562.306 249.45 564.986 249.45 564.986C250.774 564.4 252.539 565.447 252.053 567.415C251.568 569.425 246.802 570.179 245.346 571.435C243.89 572.692 244.022 574.032 243.449 574.618C242.875 575.204 241.64 574.199 240.889 574.241C240.139 574.283 239.257 575.204 240.316 575.874C241.375 576.544 241.154 577.968 241.154 577.968H232.505V565.824H229.946C232.682 561.595 237.095 561.971 237.095 561.971H241.507C241.507 561.971 241.507 558.077 241.507 552.131C241.507 546.226 234.491 545.556 234.491 545.556H229.019C228.225 547.943 226.46 548.153 224.607 548.027C222.798 547.901 222.048 545.933 220.724 545.933C219.444 545.933 210.884 545.933 210.884 545.933C210.884 542.332 221.033 531.947 222.356 527.55C223.68 523.111 221.606 518.881 217.767 517.667C213.972 516.453 208.766 516.997 208.766 516.997L180.878 512.809C180.878 512.809 184.055 512.558 184.937 510.046C185.776 507.491 184.628 506.737 184.628 506.737C184.628 506.737 188.247 502.047 191.027 501C193.807 499.954 194.336 501.964 194.336 501.964C199.896 496.645 198.175 491.243 195.925 488.312C193.718 485.423 190.012 486.093 190.012 486.093C190.63 482.785 188.997 480.063 186.261 478.471C183.525 476.838 182.996 476.294 183.525 474.703C184.011 473.069 187.144 474.033 187.144 474.033C187.144 474.033 192.351 471.436 190.321 466.285C188.291 461.135 179.642 463.354 179.642 463.354C179.642 463.312 179.686 463.271 179.686 463.229C180.525 459.711 177.965 456.319 174.259 455.649L169.537 454.854C169.537 454.854 170.023 452.173 173.067 450.666C176.112 449.158 179.333 450.205 179.333 450.205C188.026 417.123 189.262 409.251 187.541 400.541C181.496 370.683 107.055 353.598 109.879 407.827C110.055 411.093 112.747 415.993 112.747 415.993C117.16 410.465 124.352 414.108 124.308 420.097C124.264 426.127 118.174 430.901 113.541 433.455C108.908 436.009 104.892 441.495 104.451 444.133C104.01 446.771 105.731 451.127 105.731 451.127C98.9354 451.127 99.0237 454.142 99.0237 454.142V457.701C103.525 459.46 101.053 462.894 98.2294 463.899C95.4053 464.862 92.1841 463.647 92.3606 460.297C92.5372 456.947 99.1119 437.14 98.0529 432.701C97.038 428.262 92.9784 427.132 92.9784 427.132H76.9165V427.09H49.3817Z" fill="url(#paint15_linear_1528_1602)" stroke="url(#paint16_linear_1528_1602)" stroke-width="0.062974" stroke-miterlimit="10"/>
<path d="M-31.1493 310.925V395.639H-26.6485L-17.6467 386.887V334.919H16.1098V387.599L25.1115 396.77H34.1133L43.115 387.599V334.919H83.8876L83.8876 409.835C88.8738 409.835 89.4916 415.279 89.4916 415.279H98.4492V410.882H103.656L103.656 396.77H102.421V392.875H106.921L120.159 332.742C125.278 330.732 126.425 326.084 125.984 322.399C125.543 318.714 124.219 316.075 124.219 316.075C124.219 316.075 125.807 311.595 130.705 310.045C135.559 308.454 137.501 311.595 137.501 311.595C141.472 309.627 141.252 305.062 140.193 302.508C138.428 298.278 133.75 298.32 133.75 298.32C133.75 298.32 133.927 295.891 132.824 294.928C131.676 293.965 130.617 294.133 130.573 292.751C130.529 291.369 132.162 291.327 132.162 291.327C132.162 291.327 132.162 289.568 132.162 288.019C132.162 286.427 129.999 285.757 129.999 285.757H124.969C124.969 281.193 132.956 281.696 132.956 281.696C132.956 281.696 134.589 264.82 130.441 255.858C126.293 246.813 118.88 242.709 115.35 241.495C110.496 239.82 102.774 240.322 97.8756 242.165C91.9627 244.384 87.0647 249.074 86.3587 255.565C85.9174 259.753 86.7558 261.93 86.7558 261.93C92.4922 258.664 95.228 262.935 94.4337 266.537C93.6395 270.096 87.7266 273.195 82.8727 275.372C78.0188 277.508 77.1804 282.868 77.1804 282.868L77.1804 288.228H73.4738V292.164C73.4738 292.164 72.856 293.504 71.1351 293.881L70.9586 293.923V302.675H57.8973V310.925L-31.1493 310.925Z" fill="url(#paint17_linear_1528_1602)" stroke="url(#paint18_linear_1528_1602)" stroke-width="0.062974" stroke-miterlimit="10"/>
<path d="M-31.1428 207.96L-31.1428 242.926H-28.2305L-22.4058 237.608V227.139L13.4688 227.139V237.608L19.2934 242.926H25.1181L30.9427 237.608V227.139H61.2133L61.2133 240.665H67.8322V259.635C67.9205 259.635 68.0088 259.635 68.097 259.635C69.9944 259.635 71.5388 261.017 71.7154 262.775C71.7154 263.906 71.7154 264.785 71.7154 264.785H80.3641V260.347H84.1589V248.454H82.6586L80.5406 243.638L85.1297 244.476L88.5274 227.558C88.5274 227.558 93.3372 225.464 94.2638 220.648C95.2346 215.833 91.3074 214.074 91.3074 214.074C91.3074 214.074 91.9693 212.022 94.308 211.896C96.6466 211.771 97.7939 213.697 97.7939 213.697C97.7939 213.697 98.5882 210.64 98.9853 207.667C99.3825 204.736 95.4552 203.982 95.4552 203.982C95.4552 203.982 97.7498 198.58 96.6466 195.565C95.5435 192.55 89.4099 191.252 89.4099 191.252L95.4552 189.535C95.4552 189.535 95.72 188.237 97.6615 178.438C99.6031 168.681 90.9544 159.677 83.5412 158.002C79.5698 157.081 60.066 157.081 62.8901 172.994C62.8901 172.994 64.3463 171.612 66.5526 172.073C68.097 172.408 69.3767 173.706 69.0678 175.758C68.4059 180.029 57.4626 183.17 57.4626 191.042C57.4626 191.042 54.815 189.954 53.6677 191.88C52.5205 193.806 53.6677 195.481 53.6677 195.481C53.6677 195.481 53.0058 198.287 50.3583 198.077L50.3583 202.684H43.96V207.876L-31.1428 207.876V207.96Z" fill="url(#paint19_linear_1528_1602)" stroke="url(#paint20_linear_1528_1602)" stroke-width="0.062974" stroke-miterlimit="10"/>
<path d="M-31.1432 119.678L-31.1432 148.405H-28.7163L-22.9799 144.468V137.098L6.01102 137.098V144.468L10.8649 148.405H15.7188L20.5727 144.468V137.098H44.3567L44.3567 147.693H51.6816V162.768C52.7406 162.768 53.579 163.564 53.579 164.569V167.039H60.6834V161.805H65.3607V154.393H64.2135V151.462H69.1115V141.453H67.567V138.355C67.567 138.355 73.0387 139.025 73.0387 131.696C73.0387 124.368 64.6988 124.452 64.6988 124.452V123.279C64.6988 123.279 71.053 120.976 71.4502 115.365C71.8914 109.754 69.5086 106.906 65.5814 106.236C62.0954 105.65 59.8008 107.743 59.8008 107.743C59.8008 102.635 56.5355 101.253 54.4174 100.75C52.2994 100.248 48.6369 100.96 48.6369 104.226C48.6369 107.492 51.2404 107.492 51.2404 107.492C50.402 110.759 45.9452 110.507 44.9744 110.424V115.658H39.1498V119.762L-31.1432 119.762V119.678Z" fill="url(#paint21_linear_1528_1602)" stroke="url(#paint22_linear_1528_1602)" stroke-width="0.062974" stroke-miterlimit="10"/>
<path d="M-21.8345 276.422C-13.8477 276.422 -14.9067 270.14 -15.9216 269.429C-15.9216 269.429 -14.3331 268.968 -14.3331 272.108C-14.3331 272.108 -13.7594 272.15 -12.9652 272.025C-11.1119 271.774 -9.74394 270.308 -9.74394 268.507V268.13C-9.74394 268.13 -9.74394 266.665 -8.02302 266.665C-8.02302 266.665 -7.00812 266.539 -6.43447 267.083H-6.08147V266.623C-6.08147 266.246 -5.90497 265.869 -5.64022 265.576L-4.53706 264.529C-4.22818 264.236 -3.78691 264.068 -3.34565 264.068H1.90537C2.34664 264.068 2.7879 264.236 3.09678 264.529L4.19994 265.576C4.50882 265.869 4.68531 266.246 4.68531 266.623V267.083H5.03833C5.56784 266.539 6.62688 266.665 6.62688 266.665C8.3478 266.665 8.34779 268.13 8.34779 268.13V268.507C8.34779 270.266 9.71571 271.774 11.569 272.025C12.3192 272.109 12.9369 272.108 12.9369 272.108C12.9369 268.968 14.5255 269.429 14.5255 269.429C13.5106 270.14 12.4515 276.422 20.4384 276.422C28.4252 276.422 27.4986 269.931 27.4986 266.246C27.4986 261.179 22.3358 260.718 22.3358 260.718H17.7025V259.629H16.467C16.467 258.75 16.2905 257.996 16.0699 257.41C15.4521 256.028 13.9518 255.149 12.3192 255.149C12.3192 250.878 8.83318 250.752 8.83318 250.752H5.8326L5.8326 249.119H7.06813V246.732L4.19994 244.303V242.921H2.56726V242.125H-3.91928V242.921H-5.55196V244.303L-8.42016 246.732V249.119H-7.18463V250.752H-10.1411C-10.1411 250.752 -13.6712 250.919 -13.6712 255.149C-15.2597 255.149 -16.8041 255.986 -17.3778 257.41C-17.6425 257.996 -17.819 258.708 -17.819 259.629H-19.0546V260.718H-23.6878C-23.6878 260.718 -28.8506 261.179 -28.8506 266.246C-28.8506 269.931 -29.8214 276.422 -21.8345 276.422Z" fill="url(#paint23_linear_1528_1602)" stroke="url(#paint24_linear_1528_1602)" stroke-width="0.062974" stroke-miterlimit="10"/>
<path d="M-11.1984 274.791C-8.7715 274.289 -7.66834 271.944 -7.31533 270.939C-7.22708 270.688 -6.96233 270.478 -6.65345 270.478H-4.53539V268.468C-4.53539 268.133 -4.27062 267.882 -3.91761 267.882H-0.696399H2.52481C2.87782 267.882 3.14257 268.133 3.14257 268.468L3.14257 270.478H5.26063C5.56951 270.478 5.83428 270.646 5.92253 270.939C6.27554 271.944 7.37868 274.247 9.80562 274.791C10.0263 274.833 10.2028 275.043 10.2028 275.252L10.2028 294.515C10.2028 294.724 10.0263 294.934 9.7615 294.934H-0.696399H-11.1543C-11.375 294.934 -11.5956 294.766 -11.5956 294.515L-11.5956 275.252C-11.5956 275.043 -11.4191 274.833 -11.1984 274.791Z" fill="url(#paint25_linear_1528_1602)" stroke="url(#paint26_linear_1528_1602)" stroke-width="0.062974" stroke-miterlimit="10"/>
<path d="M-22.4059 183.543C-14.1984 183.543 -15.2575 177.094 -16.3165 176.341C-16.3165 176.341 -14.6838 175.88 -14.6838 179.104C-14.6838 179.104 -14.066 179.146 -13.3159 179.021C-11.4185 178.769 -10.0064 177.22 -10.0064 175.419V175.001C-10.0064 175.001 -10.0064 173.493 -8.24138 173.493C-8.24138 173.493 -7.18234 173.367 -6.6087 173.954H-6.2557V173.451C-6.2557 173.032 -6.07919 172.655 -5.77031 172.362L-4.66716 171.315C-4.31415 170.98 -3.87289 170.855 -3.43163 170.855H1.95177C2.39303 170.855 2.87841 171.022 3.1873 171.315L4.29045 172.362C4.59934 172.655 4.77584 173.032 4.77584 173.451V173.954H5.12886C5.7025 173.409 6.76152 173.493 6.76152 173.493C8.52657 173.493 8.52658 175.001 8.52658 175.001V175.419C8.52658 177.22 9.93862 178.769 11.836 179.021C12.6303 179.104 13.2039 179.104 13.2039 179.104C13.2039 175.88 14.8366 176.341 14.8366 176.341C13.7776 177.094 12.7186 183.543 20.926 183.543C29.1335 183.543 28.1627 176.843 28.1627 173.074C28.1627 167.882 22.8235 167.421 22.8235 167.421H18.102L18.102 166.332H16.8664C16.8664 165.411 16.6899 164.657 16.4252 164.071C15.8074 162.647 14.2188 161.768 12.5862 161.768C12.5862 157.413 8.96783 157.245 8.96783 157.245H5.92313L5.92313 155.57H7.15866V153.1L4.20221 150.629V149.205H2.52542V148.368H-4.13765V149.205H-5.81443V150.629L-8.77089 153.1V155.57H-7.53535V157.245H-10.5801C-10.5801 157.245 -14.1984 157.413 -14.1984 161.768C-15.8311 161.768 -17.4196 162.647 -18.0374 164.071C-18.3022 164.657 -18.4787 165.411 -18.4787 166.332H-19.7142V167.421H-24.4357C-24.4357 167.421 -29.7749 167.882 -29.7749 173.074C-29.6426 176.843 -30.6134 183.543 -22.4059 183.543Z" fill="url(#paint27_linear_1528_1602)" stroke="url(#paint28_linear_1528_1602)" stroke-width="0.062974" stroke-miterlimit="10"/>
<path d="M-11.4634 181.862C-8.94823 181.318 -7.84507 178.931 -7.49206 177.926C-7.40381 177.633 -7.13904 177.465 -6.83016 177.465H-4.66799V175.371C-4.66799 175.036 -4.3591 174.743 -4.00609 174.743H-0.696624H2.61284C2.96585 174.743 3.27472 175.036 3.27472 175.371L3.27472 177.465H5.43691C5.7458 177.465 6.01054 177.633 6.0988 177.926C6.4518 178.931 7.55497 181.36 10.0702 181.862C10.2908 181.904 10.5114 182.113 10.5114 182.323L10.5114 202.13C10.5114 202.381 10.2908 202.549 10.0702 202.549H-0.696624H-11.4634C-11.7282 202.549 -11.9047 202.339 -11.9047 202.13L-11.9047 182.323C-11.9047 182.071 -11.7282 181.904 -11.4634 181.862Z" fill="url(#paint29_linear_1528_1602)" stroke="url(#paint30_linear_1528_1602)" stroke-width="0.062974" stroke-miterlimit="10"/>
<path d="M-31.1433 687.437H164.027V689.07H167.822V697.361H164.909V699.413H163.277V701.758H155.069V708.542H-15.9639V703.559H-31.1433V687.437Z" fill="url(#paint31_linear_1528_1602)" stroke="url(#paint32_linear_1528_1602)" stroke-width="0.062974" stroke-miterlimit="10"/>
<path d="M76.3483 654.311L76.3483 626.547C76.3483 626.547 78.2458 610.174 64.5225 610.174C49.4755 610.174 50.0491 622.234 51.7701 624.83C53.5351 627.51 61.3896 628.641 61.9191 623.281C61.9191 623.281 63.3752 633.205 53.0056 637.225V638.691H20.9258V644.973H12.9831V651.421H0.230672V654.269H76.3483V654.311Z" fill="url(#paint33_linear_1528_1602)" stroke="url(#paint34_linear_1528_1602)" stroke-width="0.062974" stroke-miterlimit="10"/>
<defs>
<linearGradient id="paint0_linear_1528_1602" x1="208.853" y1="394.555" x2="122.57" y2="693.739" gradientUnits="userSpaceOnUse">
<stop stop-color="#FD5C40"/>
<stop offset="1" stop-color="#971C07"/>
</linearGradient>
<linearGradient id="paint1_linear_1528_1602" x1="12.2989" y1="437.933" x2="12.2989" y2="461.846" gradientUnits="userSpaceOnUse">
<stop stop-color="#F9D0B2"/>
<stop offset="0.5" stop-color="#F39358"/>
<stop offset="1" stop-color="#DA702E"/>
</linearGradient>
<linearGradient id="paint2_linear_1528_1602" x1="25.4971" y1="449.929" x2="-0.817082" y2="449.929" gradientUnits="userSpaceOnUse">
<stop offset="0.00537634" stop-color="#CF8E14"/>
<stop offset="0.2328" stop-color="#E9CE74"/>
<stop offset="0.5053" stop-color="#D19119"/>
<stop offset="0.754" stop-color="#E7C86C"/>
<stop offset="1" stop-color="#D49824"/>
</linearGradient>
<linearGradient id="paint3_linear_1528_1602" x1="12.2995" y1="466.828" x2="12.2995" y2="490.741" gradientUnits="userSpaceOnUse">
<stop stop-color="#F9D0B2"/>
<stop offset="0.5" stop-color="#F39358"/>
<stop offset="1" stop-color="#DA702E"/>
</linearGradient>
<linearGradient id="paint4_linear_1528_1602" x1="25.4977" y1="478.827" x2="-0.816471" y2="478.827" gradientUnits="userSpaceOnUse">
<stop offset="0.00537634" stop-color="#CF8E14"/>
<stop offset="0.2328" stop-color="#E9CE74"/>
<stop offset="0.5053" stop-color="#D19119"/>
<stop offset="0.754" stop-color="#E7C86C"/>
<stop offset="1" stop-color="#D49824"/>
</linearGradient>
<linearGradient id="paint5_linear_1528_1602" x1="12.3006" y1="495.724" x2="12.3006" y2="519.637" gradientUnits="userSpaceOnUse">
<stop stop-color="#F9D0B2"/>
<stop offset="0.5" stop-color="#F39358"/>
<stop offset="1" stop-color="#DA702E"/>
</linearGradient>
<linearGradient id="paint6_linear_1528_1602" x1="25.4988" y1="507.725" x2="-0.815373" y2="507.725" gradientUnits="userSpaceOnUse">
<stop offset="0.00537634" stop-color="#CF8E14"/>
<stop offset="0.2328" stop-color="#E9CE74"/>
<stop offset="0.5053" stop-color="#D19119"/>
<stop offset="0.754" stop-color="#E7C86C"/>
<stop offset="1" stop-color="#D49824"/>
</linearGradient>
<linearGradient id="paint7_linear_1528_1602" x1="12.3021" y1="524.618" x2="12.3021" y2="548.531" gradientUnits="userSpaceOnUse">
<stop stop-color="#F9D0B2"/>
<stop offset="0.5" stop-color="#F39358"/>
<stop offset="1" stop-color="#DA702E"/>
</linearGradient>
<linearGradient id="paint8_linear_1528_1602" x1="25.5003" y1="536.621" x2="-0.813908" y2="536.621" gradientUnits="userSpaceOnUse">
<stop offset="0.00537634" stop-color="#CF8E14"/>
<stop offset="0.2328" stop-color="#E9CE74"/>
<stop offset="0.5053" stop-color="#D19119"/>
<stop offset="0.754" stop-color="#E7C86C"/>
<stop offset="1" stop-color="#D49824"/>
</linearGradient>
<linearGradient id="paint9_linear_1528_1602" x1="12.2984" y1="553.517" x2="12.2984" y2="577.43" gradientUnits="userSpaceOnUse">
<stop stop-color="#F9D0B2"/>
<stop offset="0.5" stop-color="#F39358"/>
<stop offset="1" stop-color="#DA702E"/>
</linearGradient>
<linearGradient id="paint10_linear_1528_1602" x1="25.4966" y1="565.523" x2="-0.817631" y2="565.523" gradientUnits="userSpaceOnUse">
<stop offset="0.00537634" stop-color="#CF8E14"/>
<stop offset="0.2328" stop-color="#E9CE74"/>
<stop offset="0.5053" stop-color="#D19119"/>
<stop offset="0.754" stop-color="#E7C86C"/>
<stop offset="1" stop-color="#D49824"/>
</linearGradient>
<linearGradient id="paint11_linear_1528_1602" x1="12.2946" y1="582.401" x2="12.2946" y2="606.314" gradientUnits="userSpaceOnUse">
<stop stop-color="#F9D0B2"/>
<stop offset="0.5" stop-color="#F39358"/>
<stop offset="1" stop-color="#DA702E"/>
</linearGradient>
<linearGradient id="paint12_linear_1528_1602" x1="25.4928" y1="594.409" x2="-0.821415" y2="594.409" gradientUnits="userSpaceOnUse">
<stop offset="0.00537634" stop-color="#CF8E14"/>
<stop offset="0.2328" stop-color="#E9CE74"/>
<stop offset="0.5053" stop-color="#D19119"/>
<stop offset="0.754" stop-color="#E7C86C"/>
<stop offset="1" stop-color="#D49824"/>
</linearGradient>
<linearGradient id="paint13_linear_1528_1602" x1="12.2964" y1="611.295" x2="12.2964" y2="635.25" gradientUnits="userSpaceOnUse">
<stop stop-color="#F9D0B2"/>
<stop offset="0.5" stop-color="#F39358"/>
<stop offset="1" stop-color="#DA702E"/>
</linearGradient>
<linearGradient id="paint14_linear_1528_1602" x1="25.4946" y1="623.306" x2="-0.819645" y2="623.306" gradientUnits="userSpaceOnUse">
<stop offset="0.00537634" stop-color="#CF8E14"/>
<stop offset="0.2328" stop-color="#E9CE74"/>
<stop offset="0.5053" stop-color="#D19119"/>
<stop offset="0.754" stop-color="#E7C86C"/>
<stop offset="1" stop-color="#D49824"/>
</linearGradient>
<linearGradient id="paint15_linear_1528_1602" x1="159.203" y1="372.546" x2="159.203" y2="624.869" gradientUnits="userSpaceOnUse">
<stop offset="0.189554" stop-color="#E1B01B"/>
<stop offset="0.590222" stop-color="#BD6229"/>
<stop offset="0.975962" stop-color="#5D2F24"/>
</linearGradient>
<linearGradient id="paint16_linear_1528_1602" x1="47.1769" y1="498.553" x2="271.377" y2="498.553" gradientUnits="userSpaceOnUse">
<stop offset="0.00537634" stop-color="#CF8E14"/>
<stop offset="0.2328" stop-color="#E9CE74"/>
<stop offset="0.5053" stop-color="#D19119"/>
<stop offset="0.754" stop-color="#E7C86C"/>
<stop offset="1" stop-color="#D49824"/>
</linearGradient>
<linearGradient id="paint17_linear_1528_1602" x1="54.8524" y1="240.475" x2="54.8524" y2="415.279" gradientUnits="userSpaceOnUse">
<stop stop-color="#FFC411"/>
<stop offset="0.221154" stop-color="#CD9C1A"/>
<stop offset="0.447115" stop-color="#BD6229"/>
<stop offset="0.605769" stop-color="#5D2F24"/>
<stop offset="0.807692" stop-color="#5D2F24"/>
</linearGradient>
<linearGradient id="paint18_linear_1528_1602" x1="-32.8759" y1="327.77" x2="142.696" y2="327.77" gradientUnits="userSpaceOnUse">
<stop offset="0.00537634" stop-color="#CF8E14"/>
<stop offset="0.2328" stop-color="#E9CE74"/>
<stop offset="0.5053" stop-color="#D19119"/>
<stop offset="0.754" stop-color="#E7C86C"/>
<stop offset="1" stop-color="#D49824"/>
</linearGradient>
<linearGradient id="paint19_linear_1528_1602" x1="33.9354" y1="157.68" x2="33.9354" y2="264.785" gradientUnits="userSpaceOnUse">
<stop stop-color="#FFC411"/>
<stop offset="0.221154" stop-color="#CD9C1A"/>
<stop offset="0.447115" stop-color="#BD6229"/>
<stop offset="0.605769" stop-color="#5D2F24"/>
<stop offset="0.807692" stop-color="#5D2F24"/>
</linearGradient>
<linearGradient id="paint20_linear_1528_1602" x1="-32.4493" y1="211.167" x2="100.408" y2="211.167" gradientUnits="userSpaceOnUse">
<stop offset="0.00537634" stop-color="#CF8E14"/>
<stop offset="0.2328" stop-color="#E9CE74"/>
<stop offset="0.5053" stop-color="#D19119"/>
<stop offset="0.754" stop-color="#E7C86C"/>
<stop offset="1" stop-color="#D49824"/>
</linearGradient>
<linearGradient id="paint21_linear_1528_1602" x1="20.9477" y1="100.604" x2="20.9477" y2="167.039" gradientUnits="userSpaceOnUse">
<stop stop-color="#FFC411"/>
<stop offset="0.221154" stop-color="#CD9C1A"/>
<stop offset="0.447115" stop-color="#BD6229"/>
<stop offset="0.605769" stop-color="#5D2F24"/>
<stop offset="0.807692" stop-color="#5D2F24"/>
</linearGradient>
<linearGradient id="paint22_linear_1528_1602" x1="-32.189" y1="133.781" x2="74.1546" y2="133.781" gradientUnits="userSpaceOnUse">
<stop offset="0.00537634" stop-color="#CF8E14"/>
<stop offset="0.2328" stop-color="#E9CE74"/>
<stop offset="0.5053" stop-color="#D19119"/>
<stop offset="0.754" stop-color="#E7C86C"/>
<stop offset="1" stop-color="#D49824"/>
</linearGradient>
<linearGradient id="paint23_linear_1528_1602" x1="-0.678137" y1="242.125" x2="-0.627467" y2="266.614" gradientUnits="userSpaceOnUse">
<stop stop-color="#F9D0B2"/>
<stop offset="0.5" stop-color="#F39358"/>
<stop offset="1" stop-color="#DA702E"/>
</linearGradient>
<linearGradient id="paint24_linear_1528_1602" x1="28.6322" y1="259.277" x2="-30.0076" y2="259.277" gradientUnits="userSpaceOnUse">
<stop offset="0.00537634" stop-color="#CF8E14"/>
<stop offset="0.2328" stop-color="#E9CE74"/>
<stop offset="0.5053" stop-color="#D19119"/>
<stop offset="0.754" stop-color="#E7C86C"/>
<stop offset="1" stop-color="#D49824"/>
</linearGradient>
<linearGradient id="paint25_linear_1528_1602" x1="-0.696408" y1="267.882" x2="-0.696408" y2="294.934" gradientUnits="userSpaceOnUse">
<stop stop-color="#F9D0B2"/>
<stop offset="0.5" stop-color="#F39358"/>
<stop offset="1" stop-color="#DA702E"/>
</linearGradient>
<linearGradient id="paint26_linear_1528_1602" x1="11.3253" y1="281.425" x2="-12.6974" y2="281.425" gradientUnits="userSpaceOnUse">
<stop offset="0.00537634" stop-color="#CF8E14"/>
<stop offset="0.2328" stop-color="#E9CE74"/>
<stop offset="0.5053" stop-color="#D19119"/>
<stop offset="0.754" stop-color="#E7C86C"/>
<stop offset="1" stop-color="#D49824"/>
</linearGradient>
<linearGradient id="paint27_linear_1528_1602" x1="-0.788351" y1="148.368" x2="-0.638709" y2="170.015" gradientUnits="userSpaceOnUse">
<stop stop-color="#F9D0B2"/>
<stop offset="0.5" stop-color="#F39358"/>
<stop offset="1" stop-color="#DA702E"/>
</linearGradient>
<linearGradient id="paint28_linear_1528_1602" x1="29.4283" y1="165.899" x2="-30.7987" y2="165.899" gradientUnits="userSpaceOnUse">
<stop offset="0.00537634" stop-color="#CF8E14"/>
<stop offset="0.2328" stop-color="#E9CE74"/>
<stop offset="0.5053" stop-color="#D19119"/>
<stop offset="0.754" stop-color="#E7C86C"/>
<stop offset="1" stop-color="#D49824"/>
</linearGradient>
<linearGradient id="paint29_linear_1528_1602" x1="-0.696633" y1="174.743" x2="-0.696633" y2="202.549" gradientUnits="userSpaceOnUse">
<stop stop-color="#F9D0B2"/>
<stop offset="0.5" stop-color="#F39358"/>
<stop offset="1" stop-color="#DA702E"/>
</linearGradient>
<linearGradient id="paint30_linear_1528_1602" x1="11.6318" y1="188.661" x2="-13.0039" y2="188.661" gradientUnits="userSpaceOnUse">
<stop offset="0.00537634" stop-color="#CF8E14"/>
<stop offset="0.2328" stop-color="#E9CE74"/>
<stop offset="0.5053" stop-color="#D19119"/>
<stop offset="0.754" stop-color="#E7C86C"/>
<stop offset="1" stop-color="#D49824"/>
</linearGradient>
<linearGradient id="paint31_linear_1528_1602" x1="68.3392" y1="687.437" x2="68.3447" y2="702.507" gradientUnits="userSpaceOnUse">
<stop stop-color="#F9D0B2"/>
<stop offset="0.5" stop-color="#F39358"/>
<stop offset="1" stop-color="#DA702E"/>
</linearGradient>
<linearGradient id="paint32_linear_1528_1602" x1="168.918" y1="697.988" x2="-32.2645" y2="697.988" gradientUnits="userSpaceOnUse">
<stop offset="0.00537634" stop-color="#CF8E14"/>
<stop offset="0.2328" stop-color="#E9CE74"/>
<stop offset="0.5053" stop-color="#D19119"/>
<stop offset="0.754" stop-color="#E7C86C"/>
<stop offset="1" stop-color="#D49824"/>
</linearGradient>
<linearGradient id="paint33_linear_1528_1602" x1="38.334" y1="610.174" x2="38.3962" y2="641.689" gradientUnits="userSpaceOnUse">
<stop stop-color="#F9D0B2"/>
<stop offset="0.5" stop-color="#F39358"/>
<stop offset="1" stop-color="#DA702E"/>
</linearGradient>
<linearGradient id="paint34_linear_1528_1602" x1="77.5499" y1="632.251" x2="-0.815117" y2="632.251" gradientUnits="userSpaceOnUse">
<stop offset="0.00537634" stop-color="#CF8E14"/>
<stop offset="0.2328" stop-color="#E9CE74"/>
<stop offset="0.5053" stop-color="#D19119"/>
<stop offset="0.754" stop-color="#E7C86C"/>
<stop offset="1" stop-color="#D49824"/>
</linearGradient>
</defs>
</svg>
