<svg width="508" height="480" viewBox="0 0 508 480" fill="none" xmlns="http://www.w3.org/2000/svg">
<g filter="url(#filter0_dd_1528_5178)">
<path d="M103.686 474.521C103.686 474.521 110.157 377.834 155.496 273.691C208.561 151.765 248.405 97.6548 264.341 81.9426" stroke="url(#paint0_linear_1528_5178)" stroke-width="0.882353" stroke-miterlimit="10"/>
<path d="M207.709 166.624C208.642 165.335 209.396 163.864 209.98 162.26C226.242 117.529 251.93 81.0306 283.545 54.6256C286.897 51.8317 290.508 49.0642 294.868 49.8694C297.292 50.3162 299.657 52.1273 300.908 55.0447C303.536 61.237 299.805 67.2883 296.327 71.4932C267.786 106.013 237.755 138.402 206.363 168.461L207.709 166.624Z" fill="url(#paint1_linear_1528_5178)"/>
<g filter="url(#filter1_d_1528_5178)">
<path d="M324.645 116.489C325.517 116.231 326.33 115.798 327.078 115.221C347.911 99.1181 372.168 91.4711 397.331 91.702C399.998 91.7295 402.81 91.8855 405.153 94.2329C406.457 95.5376 407.38 97.5268 407.372 99.5995C407.339 103.986 403.626 105.488 400.528 106.14C375.105 111.494 349.352 115.08 323.393 116.851L324.645 116.489Z" fill="url(#paint2_linear_1528_5178)"/>
</g>
<g filter="url(#filter2_d_1528_5178)">
<path d="M384.695 173.243C385.602 173.506 386.51 173.586 387.403 173.504C412.272 171.206 437.668 178.138 461.397 192.395C463.91 193.908 466.52 195.614 467.984 198.955C468.798 200.812 469.034 203.05 468.362 204.839C466.924 208.617 462.93 207.842 459.792 206.676C434.027 197.109 408.517 185.826 383.395 172.857L384.695 173.243Z" fill="url(#paint3_linear_1528_5178)"/>
</g>
<path d="M188.65 204.406C209.128 175.766 234.057 152.772 261.773 137C270.088 132.252 279.867 128.39 288.916 130.127C293.241 130.944 294.441 138.76 290.524 140.706C251.794 159.962 215.028 184.937 181.079 215.076" fill="url(#paint4_linear_1528_5178)"/>
<path d="M162.503 259.666C182.191 228.527 204.782 205.502 232.184 190.555C236.689 188.09 241.354 185.862 246.362 185.621C249.125 185.479 252.019 186.064 254.683 187.419C257.414 188.805 257.828 193.988 255.187 195.047C218.565 209.7 162.503 259.666 162.503 259.666Z" fill="url(#paint5_linear_1528_5178)"/>
<path d="M185.662 209.932C206.144 173.626 216.58 127.067 214.872 79.623C214.747 76.4442 214.062 72.3919 211.709 71.5448C210.348 71.0512 209.02 71.9575 207.921 72.9186C192.405 86.2574 187.572 113.412 186.816 138.802C186.061 164.192 188.144 190.715 182.005 214.136L185.662 209.932Z" fill="url(#paint6_linear_1528_5178)"/>
<path d="M150.642 292.973C173.482 254.319 209.808 230.721 248.437 228.912C251.514 228.77 253.195 234.161 250.764 236.399C219.688 265.105 173.028 263.977 145.945 299.656" fill="url(#paint7_linear_1528_5178)"/>
<g filter="url(#filter3_d_1528_5178)">
<path d="M297.328 207.966C318.734 198.784 343.872 202.385 365.128 217.407C366.82 218.604 366.46 221.887 364.623 221.962C341.114 222.975 316.218 203.239 293.224 209.246" fill="url(#paint8_linear_1528_5178)"/>
</g>
<path d="M136.547 320.846C159.453 285.497 195.34 276.853 231.882 273.87C234.969 273.618 236.742 279.059 234.299 281.328C204.541 309.105 157.214 294.326 132.689 330.519L136.547 320.846Z" fill="url(#paint9_linear_1528_5178)"/>
<path d="M126.555 364.596C149.157 330.416 184.703 312.143 220.822 316.091C226.464 316.7 233.286 319.357 236.632 324.9C238.195 327.51 237.091 331.08 234.707 331.252C193.524 334.459 153.867 350.483 119.808 377.754" fill="url(#paint10_linear_1528_5178)"/>
<path d="M155.493 273.67C161.065 223.609 149.906 168.71 125.735 125.543C123.804 122.101 119.868 123.816 120.267 127.913C125.315 180.45 156.267 230.437 155.029 283.173" fill="url(#paint11_linear_1528_5178)"/>
<path d="M144.088 298.71C147.877 250.747 129.09 206.091 106.896 164.433C105.023 160.918 101.008 162.554 101.378 166.688C106.049 217.17 144.651 258.956 141.49 309.261L144.088 298.71Z" fill="url(#paint12_linear_1528_5178)"/>
<path d="M134.23 318.992C131.993 271.299 112.948 223.354 83.7265 191.848C79.1627 186.937 72.8057 182.424 67.8504 183.45C65.5106 183.929 64.7939 187.715 66.5187 190.135C96.4455 231.943 119.607 282.104 133.59 335.478" fill="url(#paint13_linear_1528_5178)"/>
<path d="M165.777 248.49C175.124 235.634 176.034 215.461 176.492 196.854C177.128 170.518 177.748 143.895 173.918 117.46C173.103 111.775 172.028 105.991 169.742 100.888C167.455 95.7849 163.74 91.3559 159.441 90.2414C152.701 88.4692 146.787 95.2014 144.077 103.049C138.779 118.463 142.127 137.714 147.945 154.205C153.763 170.696 161.897 185.943 166.806 202.85C171.716 219.758 171.095 237.888 163.208 251.018L165.777 248.49Z" fill="url(#paint14_linear_1528_5178)"/>
<path d="M117.334 402.997C144.13 375.934 179.804 363.239 214.971 363.232C217.356 363.219 219.788 365.108 220.765 368.104C222.564 373.723 217.417 377.338 213.29 378.555C180.224 388.339 147.17 398.093 114.104 407.877L114.555 406.978C115.31 405.443 116.248 404.085 117.334 402.997Z" fill="url(#paint15_linear_1528_5178)"/>
<path d="M126.45 346.906C115.235 301.347 91.266 259.612 62.8113 228.594C60.8741 226.487 58.4443 226.544 56.2374 227.458C45.6146 231.804 53.5676 243.572 56.4554 248.204C79.4435 285.268 104.215 316.639 127.203 353.704L127.187 352.591C127.142 350.69 126.91 348.746 126.45 346.906Z" fill="url(#paint16_linear_1528_5178)"/>
<path d="M121.867 371.467C110.481 330.949 81.6667 298.007 50.0095 289.65C48.1009 289.157 46.1581 290.033 45.2137 292.113C43.4303 296.076 46.8702 300.492 49.809 303.136C72.6227 323.565 95.4428 344.018 118.257 364.447C118.848 364.99 119.364 365.693 119.719 366.53L121.867 371.467Z" fill="url(#paint17_linear_1528_5178)"/>
<path d="M117.85 376.448C100.576 355.245 79.8612 338.997 57.9271 329.474C54.7711 328.102 50.3003 327.765 49.6866 331.861C49.3306 334.245 50.7086 336.676 52.1016 338.49C57.5751 345.592 64.8191 349.509 71.8134 353.217C87.8884 361.732 103.963 370.247 120.014 378.744" fill="url(#paint18_linear_1528_5178)"/>
</g>
<defs>
<filter id="filter0_dd_1528_5178" x="42.9589" y="49.7275" width="431.53" height="428.324" filterUnits="userSpaceOnUse" color-interpolation-filters="sRGB">
<feFlood flood-opacity="0" result="BackgroundImageFix"/>
<feColorMatrix in="SourceAlpha" type="matrix" values="0 0 0 0 0 0 0 0 0 0 0 0 0 0 0 0 0 0 127 0" result="hardAlpha"/>
<feOffset dy="1.76471"/>
<feGaussianBlur stdDeviation="0.882353"/>
<feComposite in2="hardAlpha" operator="out"/>
<feColorMatrix type="matrix" values="0 0 0 0 0 0 0 0 0 0 0 0 0 0 0 0 0 0 0.25 0"/>
<feBlend mode="normal" in2="BackgroundImageFix" result="effect1_dropShadow_1528_5178"/>
<feColorMatrix in="SourceAlpha" type="matrix" values="0 0 0 0 0 0 0 0 0 0 0 0 0 0 0 0 0 0 127 0" result="hardAlpha"/>
<feOffset dx="3.97059" dy="1.76471"/>
<feGaussianBlur stdDeviation="0.882353"/>
<feComposite in2="hardAlpha" operator="out"/>
<feColorMatrix type="matrix" values="0 0 0 0 0 0 0 0 0 0 0 0 0 0 0 0 0 0 0.25 0"/>
<feBlend mode="normal" in2="effect1_dropShadow_1528_5178" result="effect2_dropShadow_1528_5178"/>
<feBlend mode="normal" in="SourceGraphic" in2="effect2_dropShadow_1528_5178" result="shape"/>
</filter>
<filter id="filter1_d_1528_5178" x="323.393" y="91.6973" width="89.7143" height="28.6827" filterUnits="userSpaceOnUse" color-interpolation-filters="sRGB">
<feFlood flood-opacity="0" result="BackgroundImageFix"/>
<feColorMatrix in="SourceAlpha" type="matrix" values="0 0 0 0 0 0 0 0 0 0 0 0 0 0 0 0 0 0 127 0" result="hardAlpha"/>
<feOffset dx="3.97059" dy="1.76471"/>
<feGaussianBlur stdDeviation="0.882353"/>
<feComposite in2="hardAlpha" operator="out"/>
<feColorMatrix type="matrix" values="0 0 0 0 0 0 0 0 0 0 0 0 0 0 0 0 0 0 0.25 0"/>
<feBlend mode="normal" in2="BackgroundImageFix" result="effect1_dropShadow_1528_5178"/>
<feBlend mode="normal" in="SourceGraphic" in2="effect1_dropShadow_1528_5178" result="shape"/>
</filter>
<filter id="filter2_d_1528_5178" x="383.395" y="172.856" width="91.0942" height="38.3068" filterUnits="userSpaceOnUse" color-interpolation-filters="sRGB">
<feFlood flood-opacity="0" result="BackgroundImageFix"/>
<feColorMatrix in="SourceAlpha" type="matrix" values="0 0 0 0 0 0 0 0 0 0 0 0 0 0 0 0 0 0 127 0" result="hardAlpha"/>
<feOffset dx="3.97059" dy="1.76471"/>
<feGaussianBlur stdDeviation="0.882353"/>
<feComposite in2="hardAlpha" operator="out"/>
<feColorMatrix type="matrix" values="0 0 0 0 0 0 0 0 0 0 0 0 0 0 0 0 0 0 0.25 0"/>
<feBlend mode="normal" in2="BackgroundImageFix" result="effect1_dropShadow_1528_5178"/>
<feBlend mode="normal" in="SourceGraphic" in2="effect1_dropShadow_1528_5178" result="shape"/>
</filter>
<filter id="filter3_d_1528_5178" x="293.224" y="202.954" width="78.7303" height="22.5753" filterUnits="userSpaceOnUse" color-interpolation-filters="sRGB">
<feFlood flood-opacity="0" result="BackgroundImageFix"/>
<feColorMatrix in="SourceAlpha" type="matrix" values="0 0 0 0 0 0 0 0 0 0 0 0 0 0 0 0 0 0 127 0" result="hardAlpha"/>
<feOffset dx="3.97059" dy="1.76471"/>
<feGaussianBlur stdDeviation="0.882353"/>
<feComposite in2="hardAlpha" operator="out"/>
<feColorMatrix type="matrix" values="0 0 0 0 0 0 0 0 0 0 0 0 0 0 0 0 0 0 0.25 0"/>
<feBlend mode="normal" in2="BackgroundImageFix" result="effect1_dropShadow_1528_5178"/>
<feBlend mode="normal" in="SourceGraphic" in2="effect1_dropShadow_1528_5178" result="shape"/>
</filter>
<linearGradient id="paint0_linear_1528_5178" x1="230.042" y1="443.695" x2="111.484" y2="96.1618" gradientUnits="userSpaceOnUse">
<stop stop-color="#77501F"/>
<stop offset="0.35" stop-color="#E0B253"/>
<stop offset="0.55" stop-color="#D6A534"/>
<stop offset="0.66" stop-color="#E0B25A"/>
<stop offset="0.76" stop-color="#BC9141"/>
<stop offset="1" stop-color="#785521"/>
</linearGradient>
<linearGradient id="paint1_linear_1528_5178" x1="265.226" y1="153.825" x2="235.503" y2="56.6247" gradientUnits="userSpaceOnUse">
<stop stop-color="#77501F"/>
<stop offset="0.35" stop-color="#E0B253"/>
<stop offset="0.55" stop-color="#D6A534"/>
<stop offset="0.66" stop-color="#E0B25A"/>
<stop offset="0.76" stop-color="#BC9141"/>
<stop offset="1" stop-color="#785521"/>
</linearGradient>
<linearGradient id="paint2_linear_1528_5178" x1="361.499" y1="135.262" x2="385.672" y2="78.7317" gradientUnits="userSpaceOnUse">
<stop stop-color="#77501F"/>
<stop offset="0.35" stop-color="#E0B253"/>
<stop offset="0.55" stop-color="#D6A534"/>
<stop offset="0.66" stop-color="#E0B25A"/>
<stop offset="0.76" stop-color="#BC9141"/>
<stop offset="1" stop-color="#785521"/>
</linearGradient>
<linearGradient id="paint3_linear_1528_5178" x1="413.536" y1="210.078" x2="454.39" y2="174.499" gradientUnits="userSpaceOnUse">
<stop stop-color="#77501F"/>
<stop offset="0.35" stop-color="#E0B253"/>
<stop offset="0.55" stop-color="#D6A534"/>
<stop offset="0.66" stop-color="#E0B25A"/>
<stop offset="0.76" stop-color="#BC9141"/>
<stop offset="1" stop-color="#785521"/>
</linearGradient>
<linearGradient id="paint4_linear_1528_5178" x1="243.785" y1="195.616" x2="225.564" y2="142.101" gradientUnits="userSpaceOnUse">
<stop stop-color="#77501F"/>
<stop offset="0.35" stop-color="#E0B253"/>
<stop offset="0.55" stop-color="#D6A534"/>
<stop offset="0.66" stop-color="#E0B25A"/>
<stop offset="0.76" stop-color="#BC9141"/>
<stop offset="1" stop-color="#785521"/>
</linearGradient>
<linearGradient id="paint5_linear_1528_5178" x1="215.635" y1="243.259" x2="199.388" y2="195.545" gradientUnits="userSpaceOnUse">
<stop stop-color="#77501F"/>
<stop offset="0.35" stop-color="#E0B253"/>
<stop offset="0.55" stop-color="#D6A534"/>
<stop offset="0.66" stop-color="#E0B25A"/>
<stop offset="0.76" stop-color="#BC9141"/>
<stop offset="1" stop-color="#785521"/>
</linearGradient>
<linearGradient id="paint6_linear_1528_5178" x1="215.289" y1="207.605" x2="168.566" y2="70.7889" gradientUnits="userSpaceOnUse">
<stop stop-color="#77501F"/>
<stop offset="0.35" stop-color="#E0B253"/>
<stop offset="0.55" stop-color="#D6A534"/>
<stop offset="0.66" stop-color="#E0B25A"/>
<stop offset="0.76" stop-color="#BC9141"/>
<stop offset="1" stop-color="#785521"/>
</linearGradient>
<linearGradient id="paint7_linear_1528_5178" x1="204.217" y1="281.282" x2="190.14" y2="239.924" gradientUnits="userSpaceOnUse">
<stop stop-color="#77501F"/>
<stop offset="0.35" stop-color="#E0B253"/>
<stop offset="0.55" stop-color="#D6A534"/>
<stop offset="0.66" stop-color="#E0B25A"/>
<stop offset="0.76" stop-color="#BC9141"/>
<stop offset="1" stop-color="#785521"/>
</linearGradient>
<linearGradient id="paint8_linear_1528_5178" x1="328.968" y1="224.386" x2="338.115" y2="201.524" gradientUnits="userSpaceOnUse">
<stop stop-color="#77501F"/>
<stop offset="0.35" stop-color="#E0B253"/>
<stop offset="0.55" stop-color="#D6A534"/>
<stop offset="0.66" stop-color="#E0B25A"/>
<stop offset="0.76" stop-color="#BC9141"/>
<stop offset="1" stop-color="#785521"/>
</linearGradient>
<linearGradient id="paint9_linear_1528_5178" x1="187.632" y1="312.908" x2="177.185" y2="282.208" gradientUnits="userSpaceOnUse">
<stop stop-color="#77501F"/>
<stop offset="0.35" stop-color="#E0B253"/>
<stop offset="0.55" stop-color="#D6A534"/>
<stop offset="0.66" stop-color="#E0B25A"/>
<stop offset="0.76" stop-color="#BC9141"/>
<stop offset="1" stop-color="#785521"/>
</linearGradient>
<linearGradient id="paint10_linear_1528_5178" x1="181.508" y1="358.074" x2="168.822" y2="320.794" gradientUnits="userSpaceOnUse">
<stop stop-color="#77501F"/>
<stop offset="0.35" stop-color="#E0B253"/>
<stop offset="0.55" stop-color="#D6A534"/>
<stop offset="0.66" stop-color="#E0B25A"/>
<stop offset="0.76" stop-color="#BC9141"/>
<stop offset="1" stop-color="#785521"/>
</linearGradient>
<linearGradient id="paint11_linear_1528_5178" x1="165.683" y1="285.739" x2="105.858" y2="110.296" gradientUnits="userSpaceOnUse">
<stop stop-color="#77501F"/>
<stop offset="0.35" stop-color="#E0B253"/>
<stop offset="0.55" stop-color="#D6A534"/>
<stop offset="0.66" stop-color="#E0B25A"/>
<stop offset="0.76" stop-color="#BC9141"/>
<stop offset="1" stop-color="#785521"/>
</linearGradient>
<linearGradient id="paint12_linear_1528_5178" x1="147.734" y1="312.933" x2="91.7291" y2="148.712" gradientUnits="userSpaceOnUse">
<stop stop-color="#77501F"/>
<stop offset="0.35" stop-color="#E0B253"/>
<stop offset="0.55" stop-color="#D6A534"/>
<stop offset="0.66" stop-color="#E0B25A"/>
<stop offset="0.76" stop-color="#BC9141"/>
<stop offset="1" stop-color="#785521"/>
</linearGradient>
<linearGradient id="paint13_linear_1528_5178" x1="126.327" y1="344.301" x2="65.0471" y2="164.794" gradientUnits="userSpaceOnUse">
<stop stop-color="#77501F"/>
<stop offset="0.35" stop-color="#E0B253"/>
<stop offset="0.55" stop-color="#D6A534"/>
<stop offset="0.66" stop-color="#E0B25A"/>
<stop offset="0.76" stop-color="#BC9141"/>
<stop offset="1" stop-color="#785521"/>
</linearGradient>
<linearGradient id="paint14_linear_1528_5178" x1="186.29" y1="249.083" x2="128.832" y2="80.8153" gradientUnits="userSpaceOnUse">
<stop stop-color="#77501F"/>
<stop offset="0.35" stop-color="#E0B253"/>
<stop offset="0.55" stop-color="#D6A534"/>
<stop offset="0.66" stop-color="#E0B25A"/>
<stop offset="0.76" stop-color="#BC9141"/>
<stop offset="1" stop-color="#785521"/>
</linearGradient>
<linearGradient id="paint15_linear_1528_5178" x1="170.289" y1="394.027" x2="162.282" y2="370.491" gradientUnits="userSpaceOnUse">
<stop stop-color="#77501F"/>
<stop offset="0.35" stop-color="#E0B253"/>
<stop offset="0.55" stop-color="#D6A534"/>
<stop offset="0.66" stop-color="#E0B25A"/>
<stop offset="0.76" stop-color="#BC9141"/>
<stop offset="1" stop-color="#785521"/>
</linearGradient>
<linearGradient id="paint16_linear_1528_5178" x1="108.458" y1="365.577" x2="55.5885" y2="210.761" gradientUnits="userSpaceOnUse">
<stop stop-color="#77501F"/>
<stop offset="0.35" stop-color="#E0B253"/>
<stop offset="0.55" stop-color="#D6A534"/>
<stop offset="0.66" stop-color="#E0B25A"/>
<stop offset="0.76" stop-color="#BC9141"/>
<stop offset="1" stop-color="#785521"/>
</linearGradient>
<linearGradient id="paint17_linear_1528_5178" x1="97.0769" y1="383.825" x2="59.4656" y2="273.688" gradientUnits="userSpaceOnUse">
<stop stop-color="#77501F"/>
<stop offset="0.35" stop-color="#E0B253"/>
<stop offset="0.55" stop-color="#D6A534"/>
<stop offset="0.66" stop-color="#E0B25A"/>
<stop offset="0.76" stop-color="#BC9141"/>
<stop offset="1" stop-color="#785521"/>
</linearGradient>
<linearGradient id="paint18_linear_1528_5178" x1="94.3541" y1="390.161" x2="68.6766" y2="314.931" gradientUnits="userSpaceOnUse">
<stop stop-color="#77501F"/>
<stop offset="0.35" stop-color="#E0B253"/>
<stop offset="0.55" stop-color="#D6A534"/>
<stop offset="0.66" stop-color="#E0B25A"/>
<stop offset="0.76" stop-color="#BC9141"/>
<stop offset="1" stop-color="#785521"/>
</linearGradient>
</defs>
</svg>
