<svg width="374" height="79" viewBox="0 0 374 79" fill="none" xmlns="http://www.w3.org/2000/svg">
<path fill-rule="evenodd" clip-rule="evenodd" d="M174.109 5.98166C170.895 7.30772 168.56 11.8568 169.187 15.5729C169.479 17.3054 169.422 17.4425 168.542 17.1106C168.011 16.91 165.931 16.4228 163.92 16.0279C154.628 14.2016 144.361 19.0172 140.158 27.1727C138.893 29.6277 138.672 30.6291 138.67 33.9065C138.667 40.1588 141.375 44.3808 147.143 47.1133C149.737 48.3422 150.83 48.5788 153.915 48.5788C157.081 48.5788 158.044 48.3585 160.81 47.0026C163.409 45.728 164.327 44.9465 165.607 42.9196C167.53 39.875 168.008 37.3926 167.287 34.2023C166.571 31.0379 164.396 28.2694 161.627 26.9986C157.275 25.0011 152.793 25.9967 150.404 29.4906C146.231 35.5909 153.067 41.808 158.571 36.9193L159.713 35.9054V37.5658C159.713 39.6465 158.72 41.0163 156.483 42.023C154.144 43.0754 152.369 43.0105 150.076 41.7883C147.314 40.3165 146.013 37.8419 146.027 34.084C146.04 30.3174 147.188 27.7466 150.081 25.004C153.389 21.868 157.089 20.4525 161.995 20.4462C167.399 20.44 170.791 21.9098 175.193 26.1665C185.551 36.1825 185.433 50.7889 174.911 60.9641C173.201 62.6177 171.619 63.9702 171.396 63.9702C171.173 63.9702 171.458 62.7668 172.029 61.296C173.031 58.717 173.038 58.5289 172.211 56.0441C170.186 49.9511 162.923 47.7967 158.121 51.8649C154.951 54.5507 155.906 59.5702 159.739 60.3686C162.855 61.0175 165.252 57.9955 163.561 55.5497C162.77 54.4035 162.78 54.3506 163.793 54.3506C165.399 54.3506 166.721 55.1885 167.571 56.7459C169.929 61.0704 166.184 67.8676 160.668 69.2764C146.274 72.9511 132.811 69.2351 126.433 59.8275C123.472 55.4597 122.539 51.963 122.788 46.1739C122.979 41.7359 123.198 40.7446 124.597 37.9972C125.473 36.2777 127.097 33.9387 128.207 32.7997C130.535 30.4093 130.197 30.0072 126.233 30.4521C119.96 31.1567 114.181 36.7626 114.084 42.2376C114.035 44.9845 113.358 45.6612 111.148 45.1749C108.05 44.4929 106.236 44.6617 103.862 45.8521C100.825 47.3749 100.88 48.512 104.033 49.384C106.651 50.1074 108.476 51.5672 119.889 62.0655C129.264 70.6886 134.55 73.4105 144.11 74.5364C154.586 75.7706 167.579 72.4807 174.992 66.7171C182.004 61.2652 186.165 52.3281 186.234 42.5666C186.293 34.2364 184.032 28.8855 177.889 22.8179C173.331 18.3174 172.733 16.8427 174.183 13.6846L175.056 11.7837L175.507 13.3166C176.997 18.3785 184.19 17.7979 184.932 12.5562C185.67 7.34235 179.66 3.69122 174.109 5.98166Z" fill="url(#paint0_linear_1528_2670)"/>
<path fill-rule="evenodd" clip-rule="evenodd" d="M192.941 6.18564C190.122 7.83636 189.39 9.00948 189.39 11.8761C189.39 14.1685 189.576 14.6639 190.813 15.6735C192.355 16.9303 194.595 17.177 196.399 16.2882C197.882 15.5566 197.766 15.7019 198.531 13.6231L199.208 11.7838L200.006 13.5721C201.633 17.2174 201.13 18.5031 196.3 23.0513C190.818 28.2122 188.135 34.705 188.138 42.8071C188.144 61.789 203.164 74.6418 225.408 74.7C232.595 74.7192 236.259 73.9569 242.149 71.2158C246.465 69.2077 249.835 66.5618 259.398 57.6723C266.757 50.8318 269.308 49.0598 271.801 49.0598C273.549 49.0598 273.035 47.4159 270.939 46.3033C268.189 44.8445 265.866 44.5761 263.044 45.3919C260.266 46.1951 260.367 46.2985 259.99 42.2674C259.677 38.9058 258.3 36.285 255.66 34.0234C252.959 31.7099 250.98 30.7888 247.989 30.4531C243.838 29.987 243.467 30.4444 245.939 32.9869C247.111 34.1927 248.793 36.625 249.675 38.3917C251.2 41.4435 251.281 41.8942 251.281 47.3764C251.281 53.0481 251.248 53.2136 249.39 56.9037C244.656 66.3035 234.984 71.1821 222.346 70.5453C214.34 70.1417 212.742 69.6059 209.101 66.1025C206.674 63.7673 205.907 62.6726 205.637 61.1623C205.203 58.7199 206.438 56.0403 208.457 55.051C210.269 54.1626 211.786 54.1053 211.082 54.9519C210.808 55.2828 210.432 56.1529 210.247 56.8859C209.985 57.9253 210.188 58.4813 211.168 59.411C212.782 60.941 214.529 60.9237 216.492 59.3581C219.289 57.1269 218.266 52.8048 214.511 50.9886C210.437 49.018 205.878 50.0319 203.158 53.5142C201.74 55.328 201.386 60.4024 202.526 62.5682C202.977 63.4253 203.221 64.244 203.069 64.3878C202.918 64.5316 201.214 63.091 199.283 61.1864C190.734 52.7533 188.913 42.1784 194.275 32.1004C196.257 28.3752 201.199 23.6804 204.99 21.9219C211.545 18.8811 219.226 20.3135 224.495 25.5596C229.367 30.4108 229.512 38.2508 224.79 41.5618C222.821 42.9422 219.19 43.0851 217.136 41.8624C215.308 40.7745 213.978 38.3984 214.381 36.9381C214.619 36.0757 214.726 36.0974 216.011 37.2647C221.526 42.2737 228.245 34.4289 223.256 28.8072C220.61 25.8265 216.939 25.2421 212.676 27.1242C208.759 28.8533 206.649 32.3376 206.673 37.0353C206.707 43.7537 212.574 48.7568 220.363 48.7111C226.239 48.677 231.389 45.6728 234.197 40.6427C235.346 38.587 235.54 37.6437 235.541 34.1494C235.541 30.608 235.342 29.6749 234.057 27.1752C232.051 23.2735 228.044 19.5709 223.772 17.671C220.823 16.3594 219.638 16.116 215.419 15.9524C211.792 15.8125 209.872 15.9659 208.099 16.5388C206.778 16.9659 205.534 17.3151 205.335 17.3151C205.136 17.3151 204.89 15.7451 204.788 13.826C204.643 11.1017 204.336 9.98202 203.387 8.71945C201.089 5.65896 195.963 4.41562 192.941 6.18564Z" fill="url(#paint1_linear_1528_2670)"/>
<path fill-rule="evenodd" clip-rule="evenodd" d="M88.3281 51.2013C81.0032 53.3715 77.0554 58.3487 77.0335 65.4398C77.0102 73.0129 81.4384 77.4384 89.0399 77.4384C92.7173 77.4384 95.3883 76.0998 97.039 73.4289C99.5847 69.3098 98.3342 64.3489 94.2605 62.4087C92.2019 61.4275 88.9709 61.324 87.1837 62.1812C85.4746 63.0012 83.6173 65.7361 83.6173 67.433C83.6173 69.1482 84.8171 71.4463 85.923 71.8489C88.5732 72.8132 91.7342 71.5815 91.7342 69.5844C91.7342 69.1424 91.9625 68.7807 92.2415 68.7807C93.2064 68.7807 92.7442 70.7527 91.5033 71.9287C89.914 73.4361 86.6966 73.5415 84.6411 72.1538C83.0202 71.0596 81.583 68.0409 81.5993 65.7649C81.6145 63.6534 83.1222 60.679 85.1032 58.8523C88.0471 56.1371 94.1991 55.3267 99.851 56.9086C102.912 57.7657 105.469 59.3486 115.722 66.7375C122.677 71.7479 128.302 74.7814 133.333 76.233C138.649 77.7674 152.299 77.6413 153.337 76.0488C153.467 75.8492 150.788 75.6655 147.385 75.6409C140.459 75.5914 135.276 74.5611 130.036 72.1928C125.89 70.3194 123.173 68.3709 117.288 63.0498C114.534 60.5593 111.15 57.6729 109.77 56.6354C103.118 51.6385 94.3508 49.4169 88.3281 51.2013Z" fill="#CD9C1A"/>
<path fill-rule="evenodd" clip-rule="evenodd" d="M275.417 51.2365C269.337 52.8546 263.684 56.3912 257.369 62.5276C252.755 67.0108 248.929 69.8039 244.617 71.836C239.033 74.4694 235.823 75.161 227.691 75.4828L220.335 75.7738L223.091 76.6059C224.87 77.1432 227.477 77.437 230.447 77.4346C239.83 77.4279 247.843 74.4482 257.622 67.3307C271.447 57.2685 273.628 56.1772 279.944 56.1628C284.348 56.1531 286.997 57.0232 289.469 59.292C293.264 62.7743 293.271 69.913 289.481 72.24C286.515 74.0615 283.571 73.6503 282.251 71.23C281.329 69.5413 281.29 69.2613 281.973 69.2613C282.252 69.2613 282.48 69.5523 282.48 69.9082C282.48 71.0491 284.281 72.1472 286.153 72.1472C288.779 72.1472 290.809 69.8164 290.442 67.2224C290.074 64.6213 288.832 63.0653 286.266 61.9889C283.296 60.7436 280.115 61.4281 277.935 63.781C274.849 67.1137 274.896 71.3368 278.055 74.542C280.065 76.5809 282.323 77.4404 285.634 77.4274C292.819 77.399 297.608 71.924 297.085 64.3361C296.692 58.6268 293.672 54.45 288.226 52.0864C284.743 50.5747 279.269 50.2116 275.417 51.2365Z" fill="#CD9C1A"/>
<path fill-rule="evenodd" clip-rule="evenodd" d="M58.8181 63.8321C56.9076 64.7248 55.2376 67.5876 55.2193 70.0012C55.2132 70.8049 55.722 72.4282 56.3496 73.6085C57.2434 75.2891 58.0886 76.0418 60.2451 77.0774C61.7599 77.8046 63.7288 78.4001 64.6206 78.4001C66.7934 78.4001 70.2431 77.2043 72.2428 75.7585C74.3167 74.2588 76.1268 70.7693 75.9132 68.6823L75.7514 67.097L74.86 68.6448C72.8186 72.1911 69.5166 74.0712 65.3314 74.0712C63.1434 74.0712 62.5087 73.8524 61.2567 72.6653C60.2259 71.688 59.7739 70.7827 59.7739 69.6957V68.1316L60.9478 69.1777C61.5935 69.753 62.7 70.2234 63.4056 70.2234C66.8578 70.2234 67.5777 65.3178 64.3573 63.7388C62.4524 62.8047 60.9645 62.8297 58.8181 63.8321Z" fill="#F8CB53"/>
<path fill-rule="evenodd" clip-rule="evenodd" d="M310.028 63.4952C308.624 64.0311 307.185 66.6043 307.599 67.8395C308.429 70.3194 311.239 70.9827 313.266 69.1776L314.44 68.1314V69.1463C314.44 72.4862 311.828 74.3039 307.515 73.9648C304.285 73.7108 301.813 72.213 299.62 69.1814L298.113 67.0968L298.372 69.1896C298.783 72.5069 301.038 75.5285 304.261 77.0772C308.518 79.1238 312.504 78.6592 315.939 75.717C319.993 72.2453 319.551 65.7193 315.129 63.73C313.349 62.9291 311.708 62.8536 310.028 63.4952Z" fill="#F8CB53"/>
<path fill-rule="evenodd" clip-rule="evenodd" d="M322.98 69.9293C321.176 70.7772 321.046 73.7401 322.765 74.8088C325.517 76.5178 328.737 73.5809 326.949 70.9932C325.983 69.595 324.524 69.2035 322.98 69.9293Z" fill="#F8C900"/>
<path fill-rule="evenodd" clip-rule="evenodd" d="M47.4237 70.6218C44.9384 73.2253 48.7386 76.889 51.6257 74.6726C53.0573 73.5736 53.1907 71.2913 51.8773 70.3808C50.5684 69.4737 48.4084 69.5901 47.4237 70.6218Z" fill="#F8C900"/>
<path fill-rule="evenodd" clip-rule="evenodd" d="M35.9307 70.5365C34.1171 70.6072 26.3554 70.8953 18.6824 71.1767C-5.83144 72.0766 -6.18706 72.7384 17.4142 73.5373C26.3427 73.8394 35.4214 74.1967 37.5891 74.3314C42.0402 74.608 43.5403 74.1256 43.5403 72.4181C43.5403 71.5735 43.1278 71.143 41.9428 70.7515C41.0641 70.461 40.0937 70.2652 39.7868 70.3162C39.4793 70.3672 37.7444 70.4663 35.9307 70.5365Z" fill="#D2A283"/>
<path fill-rule="evenodd" clip-rule="evenodd" d="M331.012 71.0247C330.311 71.6889 330.711 73.5749 331.655 74.0539C332.329 74.3959 336.745 74.4031 345.733 74.077C380.978 72.7981 382.417 72.3368 354.771 71.1781C341.783 70.6337 331.494 70.5673 331.012 71.0247Z" fill="#D2A283"/>
<path fill-rule="evenodd" clip-rule="evenodd" d="M331.012 71.0247C330.311 71.6889 330.711 73.5749 331.655 74.0539C332.329 74.3959 336.745 74.4031 345.733 74.077C380.978 72.7981 382.417 72.3368 354.771 71.1781C341.783 70.6337 331.494 70.5673 331.012 71.0247Z" fill="#D2A283"/>
<path fill-rule="evenodd" clip-rule="evenodd" d="M184.548 0.746965C182.669 2.89359 184.823 6.63803 187.582 6.02141C191.803 5.0782 191.43 0 187.14 0C186.007 0 184.931 0.310233 184.548 0.746965Z" fill="#FCD510"/>
<defs>
<linearGradient id="paint0_linear_1528_2670" x1="143.93" y1="5.28418" x2="143.93" y2="74.7944" gradientUnits="userSpaceOnUse">
<stop stop-color="#FFD200"/>
<stop offset="0.660327" stop-color="#CB381F"/>
<stop offset="0.826923" stop-color="#852816"/>
<stop offset="1" stop-color="#3F170D"/>
</linearGradient>
<linearGradient id="paint1_linear_1528_2670" x1="230.498" y1="5.37256" x2="230.498" y2="74.7004" gradientUnits="userSpaceOnUse">
<stop stop-color="#FFD200"/>
<stop offset="0.660327" stop-color="#CB381F"/>
<stop offset="0.826923" stop-color="#852816"/>
<stop offset="1" stop-color="#3F170D"/>
</linearGradient>
</defs>
</svg>
