<svg width="506" height="480" viewBox="0 0 506 480" fill="none" xmlns="http://www.w3.org/2000/svg">
<g filter="url(#filter0_dd_1528_5178)">
<path d="M101.686 474.521C101.686 474.521 108.157 377.835 153.496 273.692C206.561 151.766 246.406 97.6557 262.341 81.9436" stroke="url(#paint0_linear_1528_5178)" stroke-width="0.882353" stroke-miterlimit="10"/>
<path d="M205.709 166.626C206.643 165.337 207.396 163.866 207.981 162.262C224.242 117.531 249.93 81.0325 281.545 54.6275C284.898 51.8337 288.509 49.0661 292.868 49.8714C295.292 50.3181 297.657 52.1293 298.909 55.0466C301.536 61.239 297.805 67.2902 294.328 71.4952C265.786 106.015 235.756 138.404 204.364 168.463L205.709 166.626Z" fill="url(#paint1_linear_1528_5178)"/>
<g filter="url(#filter1_d_1528_5178)">
<path d="M322.645 116.49C323.517 116.232 324.33 115.799 325.078 115.222C345.911 99.1191 370.168 91.472 395.332 91.703C397.998 91.7305 400.81 91.8864 403.154 94.2339C404.457 95.5386 405.38 97.5278 405.372 99.6004C405.339 103.987 401.626 105.489 398.529 106.141C373.106 111.495 347.352 115.081 321.393 116.852L322.645 116.49Z" fill="url(#paint2_linear_1528_5178)"/>
</g>
<g filter="url(#filter2_d_1528_5178)">
<path d="M382.695 173.244C383.603 173.507 384.51 173.587 385.403 173.505C410.272 171.207 435.669 178.139 459.397 192.396C461.91 193.909 464.52 195.615 465.984 198.956C466.799 200.813 467.034 203.051 466.362 204.84C464.924 208.618 460.931 207.843 457.792 206.677C432.027 197.11 406.518 185.827 381.395 172.858L382.695 173.244Z" fill="url(#paint3_linear_1528_5178)"/>
</g>
<path d="M186.65 204.407C207.129 175.767 232.058 152.772 259.774 137.001C268.088 132.253 277.868 128.391 286.917 130.128C291.242 130.945 292.441 138.761 288.525 140.707C249.795 159.963 213.029 184.938 179.08 215.077" fill="url(#paint4_linear_1528_5178)"/>
<path d="M160.504 259.667C180.191 228.528 202.782 205.503 230.184 190.556C234.689 188.091 239.355 185.863 244.363 185.622C247.125 185.48 250.019 186.065 252.683 187.42C255.414 188.806 255.828 193.989 253.188 195.048C216.565 209.701 160.504 259.667 160.504 259.667Z" fill="url(#paint5_linear_1528_5178)"/>
<path d="M183.662 209.934C204.145 173.628 214.58 127.069 212.872 79.625C212.748 76.4462 212.063 72.3938 209.71 71.5468C208.349 71.0531 207.02 71.9595 205.921 72.9205C190.405 86.2593 185.572 113.414 184.817 138.804C184.061 164.194 186.144 190.717 180.005 214.138L183.662 209.934Z" fill="url(#paint6_linear_1528_5178)"/>
<path d="M148.642 292.975C171.482 254.321 207.809 230.723 246.438 228.914C249.514 228.772 251.196 234.163 248.765 236.401C217.688 265.107 171.028 263.979 143.945 299.658" fill="url(#paint7_linear_1528_5178)"/>
<g filter="url(#filter3_d_1528_5178)">
<path d="M295.328 207.967C316.734 198.785 341.873 202.386 363.129 217.408C364.821 218.605 364.46 221.888 362.623 221.963C339.115 222.976 314.218 203.24 291.224 209.247" fill="url(#paint8_linear_1528_5178)"/>
</g>
<path d="M134.548 320.847C157.453 285.498 193.34 276.854 229.883 273.871C232.969 273.619 234.742 279.06 232.299 281.329C202.542 309.106 155.215 294.327 130.689 330.52L134.548 320.847Z" fill="url(#paint9_linear_1528_5178)"/>
<path d="M124.555 364.597C147.157 330.417 182.703 312.144 218.822 316.092C224.464 316.701 231.286 319.358 234.633 324.901C236.195 327.511 235.091 331.081 232.708 331.253C191.525 334.46 151.867 350.484 117.808 377.755" fill="url(#paint10_linear_1528_5178)"/>
<path d="M153.493 273.671C159.066 223.61 147.907 168.711 123.736 125.544C121.805 122.102 117.868 123.817 118.268 127.914C123.316 180.451 154.267 230.438 153.029 283.174" fill="url(#paint11_linear_1528_5178)"/>
<path d="M142.089 298.711C145.878 250.748 127.09 206.092 104.896 164.434C103.024 160.919 99.0083 162.555 99.3785 166.689C104.05 217.171 142.651 258.957 139.491 309.262L142.089 298.711Z" fill="url(#paint12_linear_1528_5178)"/>
<path d="M132.231 318.993C129.994 271.3 110.949 223.355 81.7269 191.849C77.1632 186.938 70.8062 182.425 65.8508 183.451C63.5111 183.93 62.7944 187.716 64.5192 190.136C94.446 231.944 117.608 282.105 131.591 335.479" fill="url(#paint13_linear_1528_5178)"/>
<path d="M163.777 248.492C173.124 235.636 174.035 215.463 174.492 196.856C175.128 170.52 175.748 143.897 171.919 117.462C171.104 111.776 170.029 105.993 167.742 100.89C165.456 95.7869 161.741 91.3578 157.441 90.2434C150.702 88.4711 144.787 95.2033 142.077 103.051C136.779 118.465 140.128 137.716 145.945 154.207C151.763 170.698 159.897 185.945 164.807 202.852C169.716 219.76 169.095 237.89 161.208 251.02L163.777 248.492Z" fill="url(#paint14_linear_1528_5178)"/>
<path d="M115.335 402.998C142.131 375.935 177.805 363.24 212.971 363.233C215.357 363.22 217.788 365.109 218.766 368.105C220.564 373.724 215.418 377.339 211.29 378.556C178.225 388.34 145.17 398.094 112.105 407.878L112.555 406.979C113.31 405.444 114.248 404.086 115.335 402.998Z" fill="url(#paint15_linear_1528_5178)"/>
<path d="M124.451 346.908C113.236 301.349 89.2665 259.614 60.8117 228.596C58.8745 226.489 56.4448 226.546 54.2378 227.46C43.615 231.806 51.5681 243.574 54.4558 248.205C77.4439 285.27 102.216 316.641 125.204 353.706L125.188 352.593C125.143 350.692 124.91 348.748 124.451 346.908Z" fill="url(#paint16_linear_1528_5178)"/>
<path d="M119.867 371.468C108.482 330.95 79.6671 298.008 48.0099 289.651C46.1013 289.158 44.1585 290.034 43.2141 292.114C41.4307 296.077 44.8706 300.493 47.8094 303.137C70.6231 323.566 93.4433 344.019 116.257 364.448C116.849 364.991 117.364 365.694 117.719 366.531L119.867 371.468Z" fill="url(#paint17_linear_1528_5178)"/>
<path d="M115.85 376.449C98.5768 355.246 77.8617 338.998 55.9276 329.475C52.7716 328.103 48.3008 327.766 47.6871 331.862C47.3311 334.246 48.7091 336.677 50.1021 338.491C55.5756 345.593 62.8196 349.509 69.8138 353.218C85.8889 361.733 101.964 370.248 118.015 378.745" fill="url(#paint18_linear_1528_5178)"/>
</g>
<defs>
<filter id="filter0_dd_1528_5178" x="40.9593" y="49.7295" width="431.53" height="428.323" filterUnits="userSpaceOnUse" color-interpolation-filters="sRGB">
<feFlood flood-opacity="0" result="BackgroundImageFix"/>
<feColorMatrix in="SourceAlpha" type="matrix" values="0 0 0 0 0 0 0 0 0 0 0 0 0 0 0 0 0 0 127 0" result="hardAlpha"/>
<feOffset dy="1.76471"/>
<feGaussianBlur stdDeviation="0.882353"/>
<feComposite in2="hardAlpha" operator="out"/>
<feColorMatrix type="matrix" values="0 0 0 0 0 0 0 0 0 0 0 0 0 0 0 0 0 0 0.25 0"/>
<feBlend mode="normal" in2="BackgroundImageFix" result="effect1_dropShadow_1528_5178"/>
<feColorMatrix in="SourceAlpha" type="matrix" values="0 0 0 0 0 0 0 0 0 0 0 0 0 0 0 0 0 0 127 0" result="hardAlpha"/>
<feOffset dx="3.97059" dy="1.76471"/>
<feGaussianBlur stdDeviation="0.882353"/>
<feComposite in2="hardAlpha" operator="out"/>
<feColorMatrix type="matrix" values="0 0 0 0 0 0 0 0 0 0 0 0 0 0 0 0 0 0 0.25 0"/>
<feBlend mode="normal" in2="effect1_dropShadow_1528_5178" result="effect2_dropShadow_1528_5178"/>
<feBlend mode="normal" in="SourceGraphic" in2="effect2_dropShadow_1528_5178" result="shape"/>
</filter>
<filter id="filter1_d_1528_5178" x="321.393" y="91.6982" width="89.7143" height="28.6827" filterUnits="userSpaceOnUse" color-interpolation-filters="sRGB">
<feFlood flood-opacity="0" result="BackgroundImageFix"/>
<feColorMatrix in="SourceAlpha" type="matrix" values="0 0 0 0 0 0 0 0 0 0 0 0 0 0 0 0 0 0 127 0" result="hardAlpha"/>
<feOffset dx="3.97059" dy="1.76471"/>
<feGaussianBlur stdDeviation="0.882353"/>
<feComposite in2="hardAlpha" operator="out"/>
<feColorMatrix type="matrix" values="0 0 0 0 0 0 0 0 0 0 0 0 0 0 0 0 0 0 0.25 0"/>
<feBlend mode="normal" in2="BackgroundImageFix" result="effect1_dropShadow_1528_5178"/>
<feBlend mode="normal" in="SourceGraphic" in2="effect1_dropShadow_1528_5178" result="shape"/>
</filter>
<filter id="filter2_d_1528_5178" x="381.395" y="172.857" width="91.0942" height="38.3068" filterUnits="userSpaceOnUse" color-interpolation-filters="sRGB">
<feFlood flood-opacity="0" result="BackgroundImageFix"/>
<feColorMatrix in="SourceAlpha" type="matrix" values="0 0 0 0 0 0 0 0 0 0 0 0 0 0 0 0 0 0 127 0" result="hardAlpha"/>
<feOffset dx="3.97059" dy="1.76471"/>
<feGaussianBlur stdDeviation="0.882353"/>
<feComposite in2="hardAlpha" operator="out"/>
<feColorMatrix type="matrix" values="0 0 0 0 0 0 0 0 0 0 0 0 0 0 0 0 0 0 0.25 0"/>
<feBlend mode="normal" in2="BackgroundImageFix" result="effect1_dropShadow_1528_5178"/>
<feBlend mode="normal" in="SourceGraphic" in2="effect1_dropShadow_1528_5178" result="shape"/>
</filter>
<filter id="filter3_d_1528_5178" x="291.224" y="202.955" width="78.7303" height="22.5753" filterUnits="userSpaceOnUse" color-interpolation-filters="sRGB">
<feFlood flood-opacity="0" result="BackgroundImageFix"/>
<feColorMatrix in="SourceAlpha" type="matrix" values="0 0 0 0 0 0 0 0 0 0 0 0 0 0 0 0 0 0 127 0" result="hardAlpha"/>
<feOffset dx="3.97059" dy="1.76471"/>
<feGaussianBlur stdDeviation="0.882353"/>
<feComposite in2="hardAlpha" operator="out"/>
<feColorMatrix type="matrix" values="0 0 0 0 0 0 0 0 0 0 0 0 0 0 0 0 0 0 0.25 0"/>
<feBlend mode="normal" in2="BackgroundImageFix" result="effect1_dropShadow_1528_5178"/>
<feBlend mode="normal" in="SourceGraphic" in2="effect1_dropShadow_1528_5178" result="shape"/>
</filter>
<linearGradient id="paint0_linear_1528_5178" x1="228.042" y1="443.696" x2="109.484" y2="96.1628" gradientUnits="userSpaceOnUse">
<stop stop-color="#77501F"/>
<stop offset="0.35" stop-color="#E0B253"/>
<stop offset="0.55" stop-color="#D6A534"/>
<stop offset="0.66" stop-color="#E0B25A"/>
<stop offset="0.76" stop-color="#BC9141"/>
<stop offset="1" stop-color="#785521"/>
</linearGradient>
<linearGradient id="paint1_linear_1528_5178" x1="263.227" y1="153.827" x2="233.503" y2="56.6267" gradientUnits="userSpaceOnUse">
<stop stop-color="#77501F"/>
<stop offset="0.35" stop-color="#E0B253"/>
<stop offset="0.55" stop-color="#D6A534"/>
<stop offset="0.66" stop-color="#E0B25A"/>
<stop offset="0.76" stop-color="#BC9141"/>
<stop offset="1" stop-color="#785521"/>
</linearGradient>
<linearGradient id="paint2_linear_1528_5178" x1="359.499" y1="135.263" x2="383.673" y2="78.7327" gradientUnits="userSpaceOnUse">
<stop stop-color="#77501F"/>
<stop offset="0.35" stop-color="#E0B253"/>
<stop offset="0.55" stop-color="#D6A534"/>
<stop offset="0.66" stop-color="#E0B25A"/>
<stop offset="0.76" stop-color="#BC9141"/>
<stop offset="1" stop-color="#785521"/>
</linearGradient>
<linearGradient id="paint3_linear_1528_5178" x1="411.537" y1="210.079" x2="452.39" y2="174.5" gradientUnits="userSpaceOnUse">
<stop stop-color="#77501F"/>
<stop offset="0.35" stop-color="#E0B253"/>
<stop offset="0.55" stop-color="#D6A534"/>
<stop offset="0.66" stop-color="#E0B25A"/>
<stop offset="0.76" stop-color="#BC9141"/>
<stop offset="1" stop-color="#785521"/>
</linearGradient>
<linearGradient id="paint4_linear_1528_5178" x1="241.785" y1="195.617" x2="223.565" y2="142.102" gradientUnits="userSpaceOnUse">
<stop stop-color="#77501F"/>
<stop offset="0.35" stop-color="#E0B253"/>
<stop offset="0.55" stop-color="#D6A534"/>
<stop offset="0.66" stop-color="#E0B25A"/>
<stop offset="0.76" stop-color="#BC9141"/>
<stop offset="1" stop-color="#785521"/>
</linearGradient>
<linearGradient id="paint5_linear_1528_5178" x1="213.636" y1="243.26" x2="197.389" y2="195.546" gradientUnits="userSpaceOnUse">
<stop stop-color="#77501F"/>
<stop offset="0.35" stop-color="#E0B253"/>
<stop offset="0.55" stop-color="#D6A534"/>
<stop offset="0.66" stop-color="#E0B25A"/>
<stop offset="0.76" stop-color="#BC9141"/>
<stop offset="1" stop-color="#785521"/>
</linearGradient>
<linearGradient id="paint6_linear_1528_5178" x1="213.29" y1="207.607" x2="166.566" y2="70.7908" gradientUnits="userSpaceOnUse">
<stop stop-color="#77501F"/>
<stop offset="0.35" stop-color="#E0B253"/>
<stop offset="0.55" stop-color="#D6A534"/>
<stop offset="0.66" stop-color="#E0B25A"/>
<stop offset="0.76" stop-color="#BC9141"/>
<stop offset="1" stop-color="#785521"/>
</linearGradient>
<linearGradient id="paint7_linear_1528_5178" x1="202.218" y1="281.284" x2="188.14" y2="239.926" gradientUnits="userSpaceOnUse">
<stop stop-color="#77501F"/>
<stop offset="0.35" stop-color="#E0B253"/>
<stop offset="0.55" stop-color="#D6A534"/>
<stop offset="0.66" stop-color="#E0B25A"/>
<stop offset="0.76" stop-color="#BC9141"/>
<stop offset="1" stop-color="#785521"/>
</linearGradient>
<linearGradient id="paint8_linear_1528_5178" x1="326.968" y1="224.387" x2="336.115" y2="201.525" gradientUnits="userSpaceOnUse">
<stop stop-color="#77501F"/>
<stop offset="0.35" stop-color="#E0B253"/>
<stop offset="0.55" stop-color="#D6A534"/>
<stop offset="0.66" stop-color="#E0B25A"/>
<stop offset="0.76" stop-color="#BC9141"/>
<stop offset="1" stop-color="#785521"/>
</linearGradient>
<linearGradient id="paint9_linear_1528_5178" x1="185.632" y1="312.909" x2="175.186" y2="282.209" gradientUnits="userSpaceOnUse">
<stop stop-color="#77501F"/>
<stop offset="0.35" stop-color="#E0B253"/>
<stop offset="0.55" stop-color="#D6A534"/>
<stop offset="0.66" stop-color="#E0B25A"/>
<stop offset="0.76" stop-color="#BC9141"/>
<stop offset="1" stop-color="#785521"/>
</linearGradient>
<linearGradient id="paint10_linear_1528_5178" x1="179.509" y1="358.075" x2="166.822" y2="320.795" gradientUnits="userSpaceOnUse">
<stop stop-color="#77501F"/>
<stop offset="0.35" stop-color="#E0B253"/>
<stop offset="0.55" stop-color="#D6A534"/>
<stop offset="0.66" stop-color="#E0B25A"/>
<stop offset="0.76" stop-color="#BC9141"/>
<stop offset="1" stop-color="#785521"/>
</linearGradient>
<linearGradient id="paint11_linear_1528_5178" x1="163.683" y1="285.74" x2="103.858" y2="110.297" gradientUnits="userSpaceOnUse">
<stop stop-color="#77501F"/>
<stop offset="0.35" stop-color="#E0B253"/>
<stop offset="0.55" stop-color="#D6A534"/>
<stop offset="0.66" stop-color="#E0B25A"/>
<stop offset="0.76" stop-color="#BC9141"/>
<stop offset="1" stop-color="#785521"/>
</linearGradient>
<linearGradient id="paint12_linear_1528_5178" x1="145.735" y1="312.934" x2="89.7295" y2="148.713" gradientUnits="userSpaceOnUse">
<stop stop-color="#77501F"/>
<stop offset="0.35" stop-color="#E0B253"/>
<stop offset="0.55" stop-color="#D6A534"/>
<stop offset="0.66" stop-color="#E0B25A"/>
<stop offset="0.76" stop-color="#BC9141"/>
<stop offset="1" stop-color="#785521"/>
</linearGradient>
<linearGradient id="paint13_linear_1528_5178" x1="124.328" y1="344.302" x2="63.0476" y2="164.795" gradientUnits="userSpaceOnUse">
<stop stop-color="#77501F"/>
<stop offset="0.35" stop-color="#E0B253"/>
<stop offset="0.55" stop-color="#D6A534"/>
<stop offset="0.66" stop-color="#E0B25A"/>
<stop offset="0.76" stop-color="#BC9141"/>
<stop offset="1" stop-color="#785521"/>
</linearGradient>
<linearGradient id="paint14_linear_1528_5178" x1="184.29" y1="249.085" x2="126.832" y2="80.8172" gradientUnits="userSpaceOnUse">
<stop stop-color="#77501F"/>
<stop offset="0.35" stop-color="#E0B253"/>
<stop offset="0.55" stop-color="#D6A534"/>
<stop offset="0.66" stop-color="#E0B25A"/>
<stop offset="0.76" stop-color="#BC9141"/>
<stop offset="1" stop-color="#785521"/>
</linearGradient>
<linearGradient id="paint15_linear_1528_5178" x1="168.289" y1="394.028" x2="160.282" y2="370.492" gradientUnits="userSpaceOnUse">
<stop stop-color="#77501F"/>
<stop offset="0.35" stop-color="#E0B253"/>
<stop offset="0.55" stop-color="#D6A534"/>
<stop offset="0.66" stop-color="#E0B25A"/>
<stop offset="0.76" stop-color="#BC9141"/>
<stop offset="1" stop-color="#785521"/>
</linearGradient>
<linearGradient id="paint16_linear_1528_5178" x1="106.458" y1="365.579" x2="53.589" y2="210.762" gradientUnits="userSpaceOnUse">
<stop stop-color="#77501F"/>
<stop offset="0.35" stop-color="#E0B253"/>
<stop offset="0.55" stop-color="#D6A534"/>
<stop offset="0.66" stop-color="#E0B25A"/>
<stop offset="0.76" stop-color="#BC9141"/>
<stop offset="1" stop-color="#785521"/>
</linearGradient>
<linearGradient id="paint17_linear_1528_5178" x1="95.0773" y1="383.826" x2="57.466" y2="273.689" gradientUnits="userSpaceOnUse">
<stop stop-color="#77501F"/>
<stop offset="0.35" stop-color="#E0B253"/>
<stop offset="0.55" stop-color="#D6A534"/>
<stop offset="0.66" stop-color="#E0B25A"/>
<stop offset="0.76" stop-color="#BC9141"/>
<stop offset="1" stop-color="#785521"/>
</linearGradient>
<linearGradient id="paint18_linear_1528_5178" x1="92.3546" y1="390.162" x2="66.6771" y2="314.932" gradientUnits="userSpaceOnUse">
<stop stop-color="#77501F"/>
<stop offset="0.35" stop-color="#E0B253"/>
<stop offset="0.55" stop-color="#D6A534"/>
<stop offset="0.66" stop-color="#E0B25A"/>
<stop offset="0.76" stop-color="#BC9141"/>
<stop offset="1" stop-color="#785521"/>
</linearGradient>
</defs>
</svg>
