<svg width="47" height="62" viewBox="0 0 47 62" fill="none" xmlns="http://www.w3.org/2000/svg">
<path d="M27.0621 5.32204C26.3852 4.69181 25.8426 4.38398 25.4341 4.39856C25.0257 4.41313 24.3852 4.80408 23.5128 5.5714C21.2953 7.61369 19.8116 11.8792 19.0615 18.3681C18.8047 20.3404 18.7725 24.0225 18.9649 29.4143C19.2594 37.6654 19.7334 42.9245 20.3868 45.1915C21.5188 49.4046 22.9337 52.3807 24.6317 54.1196C25.8163 55.2225 26.7762 55.7609 27.5114 55.7346C28.6551 55.6938 29.7128 54.3882 30.6845 51.8178C32.3447 47.914 33.1458 41.7097 33.0877 33.2047L32.9478 29.2834C32.5192 17.2743 30.5573 9.28722 27.0621 5.32204ZM19.9503 5.45312C20.493 4.61577 20.6419 4.20147 20.3968 4.21022C20.2334 4.21605 19.7578 4.64201 18.97 5.48811C15.3462 9.38015 13.7617 17.6983 14.2164 30.4426C14.3476 34.1189 14.6233 37.2583 15.0433 39.8608C16.1547 48.0828 18.1065 53.4936 20.8986 56.0933C21.9985 57.1175 22.7935 57.6208 23.2837 57.6033C23.4471 57.5975 23.5259 57.5128 23.52 57.3494C23.5113 57.1044 23.2108 56.7061 22.6185 56.1546C21.9416 55.5244 21.1175 54.2042 20.146 52.1939C19.2532 50.099 18.5691 48.1193 18.0935 46.2549C16.9558 41.8784 16.2746 36.5449 16.0502 30.2545C15.6333 18.5722 16.9334 10.3051 19.9503 5.45312ZM17.9504 0.984687C18.5194 0.882587 19.6208 0.802382 21.2547 0.744077C25.3394 0.598314 28.1257 0.744275 29.6137 1.18196C36.6335 3.05822 41.5161 8.07818 44.2614 16.2418C45.4546 19.8802 46.1415 24.2319 46.3223 29.2969C46.5497 35.6691 45.9645 41.0477 44.5668 45.4329C41.4038 55.3616 34.9615 60.4994 25.2399 60.8463C21.727 60.9717 18.1851 60.2801 14.6139 58.7715C6.13241 54.9025 1.6409 45.9423 1.13948 31.8909C0.772155 21.5974 2.6178 13.7198 6.67641 8.25805C9.4833 4.39517 13.2413 1.97071 17.9504 0.984687Z" fill="url(#paint0_linear_1528_1930)" stroke="#FCF0AB" stroke-width="1.0644"/>
<defs>
<linearGradient id="paint0_linear_1528_1930" x1="119.159" y1="-1.37204" x2="121.713" y2="77.8196" gradientUnits="userSpaceOnUse">
<stop stop-color="#77501F"/>
<stop offset="0.35" stop-color="#E0B253"/>
<stop offset="0.55" stop-color="#D6A534"/>
<stop offset="0.66" stop-color="#E0B25A"/>
<stop offset="0.76" stop-color="#BC9141"/>
<stop offset="0.894156" stop-color="#EACC44"/>
</linearGradient>
</defs>
</svg>
