<svg width="47" height="63" viewBox="0 0 47 63" fill="none" xmlns="http://www.w3.org/2000/svg">
<path d="M38.343 9.10214C36.6093 7.73369 35.5381 7.05198 35.1294 7.05701L35.0083 7.18113C35.0901 7.18013 35.1314 7.22049 35.1324 7.30223C35.2999 7.62718 35.7985 8.27506 36.6279 9.24588C38.9519 12.0786 40.139 15.5385 40.1893 19.6255C40.2497 24.5299 38.7963 29.3303 35.8293 34.0267C34.4659 36.169 31.8844 38.9804 28.0849 42.4608C26.9526 43.4557 26.4278 43.9936 26.5106 44.0743C26.5116 44.1561 26.8366 43.9886 27.4855 43.5718C30.409 41.9825 33.4017 39.3705 36.4635 35.7357C38.5596 33.3391 40.2409 30.457 41.5075 27.0896C42.1423 25.5285 42.4401 23.154 42.4008 19.9661C42.3717 17.5957 42.3126 16.1249 42.2239 15.5537C42.1341 14.9008 41.7547 13.9653 41.0857 12.7472C40.1654 11.0418 39.2512 9.82673 38.343 9.10214ZM18.2609 1.50111C19.484 1.2408 21.4442 1.09405 24.1417 1.06084C26.9208 1.02663 28.925 1.12458 30.1541 1.35471C32.6113 1.73322 35.5292 3.00534 38.9077 5.17107C42.039 7.17633 44.1162 9.88947 45.1393 13.3105C45.7357 15.2652 46.0479 17.3869 46.0761 19.6756C46.1073 22.2096 45.809 24.5432 45.1812 26.6765C42.6712 35.2914 36.4239 42.4808 26.4393 48.2446C24.0062 49.8278 22.0989 50.955 20.7174 51.626L17.5492 53.2592L26.1303 53.0309C32.4223 52.7899 35.9765 52.6236 36.7929 52.5318C39.897 52.33 41.4395 51.4527 41.4204 49.8996C41.4133 49.3274 41.2014 48.7169 40.7847 48.068C40.2822 47.0932 40.0299 46.524 40.0279 46.3605C40.1813 45.5411 41.0431 45.8166 42.6133 47.1871C44.4357 49.1267 45.364 51.4861 45.3982 54.2653C45.4244 56.3905 44.4652 58.16 42.5205 59.5737L41.0627 60.6953L22.9195 61.1639C18.0161 61.306 12.8261 61.4108 7.34949 61.4782C4.97903 61.5074 3.67072 61.4826 3.4245 61.4039C1.78366 60.9336 0.951644 59.7584 0.928501 57.8784C0.91542 56.8158 1.14807 55.791 1.62643 54.8041C2.10379 53.7354 2.70575 52.8287 3.43236 52.084C4.15896 51.3393 5.89928 49.9281 8.65329 47.8504C14.4045 43.5285 18.3251 39.924 20.4151 37.0369C24.682 31.6705 27.1031 25.7954 27.6785 19.4116C27.8239 17.9383 27.8926 16.8746 27.8845 16.2207C27.8272 11.5615 26.5204 8.3484 23.9644 6.58131C22.7282 5.779 21.3336 5.3874 19.7806 5.40652C19.3719 5.41155 18.8415 5.49984 18.1896 5.67137C16.4791 6.18294 14.7005 7.799 12.8537 10.5196C11.0876 13.1574 10.1368 15.6217 10.0015 17.9124C10.0035 18.0759 9.96575 18.3216 9.88804 18.6496C9.89206 18.9765 9.89457 19.1809 9.89557 19.2626C9.90966 20.407 10.448 20.9726 11.5106 20.9595C12.0828 20.9525 12.5727 20.9056 12.9804 20.8188C14.4497 20.6372 15.1854 20.6282 15.1874 20.7916C15.1985 21.6908 14.3956 22.8861 12.779 24.3775C10.9211 26.1989 9.05215 27.1212 7.17213 27.1444C5.37385 27.1665 3.76833 26.2461 2.35561 24.3832C1.60788 23.4114 1.17955 21.8225 1.07065 19.6165L1.06006 18.7582C1.01981 15.4886 1.84336 12.658 3.53072 10.2664C4.81441 8.28858 6.8363 6.50602 9.59634 4.91875C12.3564 3.33147 15.2446 2.19226 18.2609 1.50111Z" fill="url(#paint0_linear_1528_1929)" stroke="#FCF0AB" stroke-width="1.0644"/>
<defs>
<linearGradient id="paint0_linear_1528_1929" x1="50.1589" y1="0.627965" x2="52.7134" y2="79.8196" gradientUnits="userSpaceOnUse">
<stop stop-color="#77501F"/>
<stop offset="0.35" stop-color="#E0B253"/>
<stop offset="0.55" stop-color="#D6A534"/>
<stop offset="0.66" stop-color="#E0B25A"/>
<stop offset="0.76" stop-color="#BC9141"/>
<stop offset="0.894156" stop-color="#EACC44"/>
</linearGradient>
</defs>
</svg>
