<svg width="44" height="64" viewBox="0 0 44 64" fill="none" xmlns="http://www.w3.org/2000/svg">
<path d="M10.65 1.64323C11.1418 1.48371 15.6792 1.4387 24.2623 1.5082C30.3924 1.63958 34.0702 1.75111 35.2957 1.84279C36.5212 1.93446 37.541 2.18796 38.3551 2.6033C40.4725 3.60143 41.6402 5.77723 41.8583 9.1307L41.8514 9.98901C41.8322 12.3596 40.7909 14.7627 38.7274 17.1985C37.2421 18.9032 36.2543 19.7536 35.7638 19.7496C35.6821 19.7489 35.6422 19.626 35.6442 19.3807C35.6469 19.0538 35.8143 18.5646 36.1466 17.9133C36.6437 17.0999 36.8948 16.3662 36.9001 15.7122C36.9041 15.2218 36.6236 14.5246 36.0587 13.6208L35.333 12.3887L30.3087 11.9801C29.9 11.9768 29.1234 11.9706 27.979 11.9613C26.8352 11.8703 25.8955 11.8218 25.1598 11.8158C24.5059 11.8105 23.5246 11.8435 22.216 11.9146C20.9899 11.9047 20.1316 11.8977 19.6412 11.8938C15.3074 12.0222 12.7694 12.4921 12.0271 13.3036C11.2854 14.0333 10.8974 16.5235 10.863 20.7742C10.8338 24.3709 10.9399 26.4155 11.1812 26.9079C11.3413 27.318 11.8315 27.3628 12.6515 27.0425C15.4394 26.0023 18.7544 25.4978 22.5964 25.5289C29.4628 25.5845 34.7612 27.4667 38.4917 31.1757C41.816 34.5543 43.4597 38.5324 43.4226 43.11L43.4127 44.3362C43.1383 47.9309 42.1734 50.9887 40.518 53.5095C37.9529 57.3309 34.2519 60.0804 29.4151 61.758C28.0215 62.2372 23.8094 62.4892 16.7788 62.514L6.47814 62.5533L4.6498 61.1896C3.51267 60.2812 2.58024 59.3335 1.85249 58.3466L0.761841 56.7437L0.817452 49.8772C0.862461 44.3187 1.29369 41.5427 2.11112 41.5493C2.68333 41.5539 3.07483 43.6826 3.28564 47.9352C3.4253 50.8793 3.56959 53.2512 3.71851 55.0509C3.79231 56.0325 3.87013 56.5236 3.95187 56.5243C4.03361 56.5249 4.117 56.3212 4.20205 55.9132C4.20338 55.7497 4.25419 54.5239 4.35446 52.2357C4.53715 49.8665 4.71915 47.579 4.9005 45.3732C5.08186 43.1675 5.21406 41.9832 5.29712 41.8203C5.71445 40.761 6.69769 40.4828 8.24684 40.9859C8.89947 41.1547 9.3441 41.7714 9.58073 42.836C9.89976 43.8196 10.1278 45.9469 10.2648 49.218C10.4018 52.489 10.6301 54.5755 10.9498 55.4773C11.2702 56.2974 11.9999 57.0391 13.139 57.7023C13.7903 58.0345 14.8108 58.2063 16.2004 58.2175L18.0397 58.2324C20.5744 58.1712 22.6213 57.779 24.1804 57.0559C26.5603 55.9307 28.2878 54.5958 29.363 53.0513C30.52 51.5075 31.1493 49.5097 31.2509 47.0581L31.2608 45.8319C31.2939 41.7447 30.2175 38.3843 28.0316 35.7506C25.8457 33.117 22.8736 31.6623 19.1154 31.3866L18.0119 31.3777C15.8048 31.3598 13.6732 32.1192 11.617 33.6558C9.39605 35.3545 7.50901 36.1976 5.95588 36.185C4.81147 36.1757 3.83387 35.7591 3.02305 34.935C2.13049 34.1103 1.5682 32.8795 1.33621 31.2427C1.18662 29.5247 1.13568 25.723 1.18334 19.8375C1.2588 10.5187 1.66433 5.86228 2.40003 5.86824C2.80874 5.87155 3.09286 6.11909 3.25238 6.61088C3.41057 7.26615 3.46019 11.2314 3.40128 18.5066C3.32715 27.6618 3.57587 32.2827 4.14742 32.369C4.39265 32.371 4.53148 30.3693 4.56392 26.3639C4.67809 22.3591 4.79425 18.1091 4.91239 13.6139C5.11295 9.03754 5.46241 6.26091 5.96082 5.28395C6.9563 3.49354 8.51937 2.27997 10.65 1.64323Z" fill="url(#paint0_linear_1528_1928)" stroke="#FCF0AB" stroke-width="1.0644"/>
<defs>
<linearGradient id="paint0_linear_1528_1928" x1="-17.8412" y1="1.62801" x2="-15.2866" y2="80.8197" gradientUnits="userSpaceOnUse">
<stop stop-color="#77501F"/>
<stop offset="0.35" stop-color="#E0B253"/>
<stop offset="0.55" stop-color="#D6A534"/>
<stop offset="0.66" stop-color="#E0B25A"/>
<stop offset="0.76" stop-color="#BC9141"/>
<stop offset="0.894156" stop-color="#EACC44"/>
</linearGradient>
</defs>
</svg>
