<svg width="77" height="118" viewBox="0 0 77 118" fill="none" xmlns="http://www.w3.org/2000/svg">
<path d="M39.0888 1.45844C41.0821 1.09467 43.3701 0.934586 45.9527 0.978193L48.6346 1.02347C54.1938 1.31606 58.2445 2.67612 60.7868 5.10365C63.3291 7.53119 65.0483 11.6339 65.9443 17.4118C66.6652 21.7958 66.8478 34.5168 66.4922 55.5748C65.9958 84.9765 66.6113 101.48 68.3389 105.087C68.7194 106.087 70.1017 106.607 72.4856 106.647C74.8695 106.687 76.0515 107.303 76.0313 108.495C76.0146 109.489 74.8967 110.96 72.6779 112.91C70.6611 114.664 68.8531 115.826 67.2537 116.395C65.853 116.968 64.2587 117.239 62.4708 117.209C55.7163 117.094 51.1874 114.633 48.884 109.825C47.9208 108.021 47.7009 91.6227 48.2242 60.6317C48.7375 30.2366 48.8055 14.4398 48.4283 13.2411C48.0477 12.2411 46.6655 11.7209 44.2816 11.6807C38.7191 11.5868 35.8858 14.619 35.7819 20.7775C35.6913 26.1413 37.7944 31.0454 42.0911 35.4898C44.0442 37.5099 44.918 38.717 44.7126 39.1109C44.3119 39.3029 44.0123 39.3972 43.8136 39.3938C40.6351 39.3402 36.4867 37.8791 31.3685 35.0106C25.2704 31.3308 22.2817 25.9149 22.4025 18.7632C22.4595 15.3859 23.1024 12.6147 24.3313 10.4496C25.3514 8.87709 27.3682 7.12269 30.3817 5.1864C33.5938 3.25347 36.4962 2.01082 39.0888 1.45844ZM41.5868 47.7023C42.3949 46.9211 43.1962 46.5372 43.9908 46.5506C45.7754 46.7795 46.552 53.7477 46.3205 67.4553C46.3038 68.4486 46.1743 70.2348 45.932 72.8141C45.8918 75.198 45.8599 77.0853 45.8364 78.4759C45.1976 92.7727 43.0499 102.275 39.3935 106.982C34.919 113.067 29.1059 116.049 21.9541 115.928C19.1728 115.881 16.2064 115.036 13.0546 113.393C4.98336 108.885 1.07014 99.3802 1.31501 84.878L1.39051 80.4081C2.89108 62.1515 11.9952 52.568 28.7028 51.6579C29.2987 51.6679 29.9941 51.6797 30.7887 51.6931C31.7854 51.5112 32.4824 51.4236 32.8797 51.4303C35.065 51.4672 36.1525 51.7836 36.1425 52.3796C36.1291 53.1743 34.6173 54.4404 31.6072 56.178L25.5719 60.5473C22.3363 63.8708 20.5286 70.8947 20.1488 81.6191L20.0784 85.7909C19.8872 97.1146 22.5628 103.419 28.1051 104.705L29.2971 104.725C32.4756 104.779 34.8864 103.23 36.5294 100.078C38.7851 95.9433 40.0521 85.6314 40.3305 69.1426C40.5553 55.8323 40.9741 48.6856 41.5868 47.7023Z" fill="url(#paint0_linear_1528_1923)" stroke="#FCF0AB" stroke-width="1.0644"/>
<defs>
<linearGradient id="paint0_linear_1528_1923" x1="-12.4102" y1="-49.3489" x2="-12.4102" y2="228.13" gradientUnits="userSpaceOnUse">
<stop stop-color="#FFC411"/>
<stop offset="0.221154" stop-color="#CD9C1A"/>
<stop offset="0.543269" stop-color="#BD6229"/>
<stop offset="0.822115" stop-color="#5D2F24"/>
<stop offset="1" stop-color="#5D2F24"/>
</linearGradient>
</defs>
</svg>
