<svg width="123" height="153" viewBox="0 0 123 153" fill="none" xmlns="http://www.w3.org/2000/svg">
<path d="M83.9772 72.4109C82.3335 71.7353 77.0532 71.7265 68.1365 72.3846C60.6068 72.9404 55.4915 73.816 52.7905 75.0115C50.2731 75.9942 48.0488 78.2502 46.1178 81.7797L44.0252 85.8191L45.5827 106.922C46.6357 121.189 47.8224 129.17 49.1429 130.866C50.2507 132.378 52.173 134.128 54.9098 136.118L58.3766 138.552L88.0991 136.358L91.1712 133.442C94.335 130.419 96.1337 127.796 96.5672 125.572C97.0008 123.349 96.9072 116.682 96.2864 105.571L95.6063 96.3566C94.9921 88.0343 94.5567 83.4842 94.3 82.7062C93.9703 80.9375 92.6351 79.0437 90.2946 77.025C88.1376 74.7934 86.0318 73.2554 83.9772 72.4109ZM69.7496 9.20952C67.9224 8.7467 64.4328 8.70541 59.2809 9.08565C50.7604 9.7145 44.9988 12.6301 41.9958 17.8325L39.606 21.8938L40.6809 36.4578C41.3244 45.1764 42.1448 50.8935 43.1421 53.6091C44.323 56.1119 46.6854 58.4279 50.2295 60.5571C52.937 62.1504 57.164 62.7349 62.9104 62.3108C67.666 61.9598 71.097 61.2085 73.2035 60.0569C75.5082 58.8906 77.7471 56.8327 79.9201 53.8831L82.3538 50.4162L81.6201 36.4247L81.1374 29.8858C80.6987 23.9413 80.351 20.5801 80.0944 19.8021C79.7646 18.0333 78.4221 16.0405 76.067 13.8236C73.91 11.592 71.8042 10.054 69.7496 9.20952ZM1.41196 6.48328C2.11681 5.23588 3.0637 4.56829 4.2526 4.48054C5.4415 4.39279 7.30827 21.588 9.85294 56.066L12.4634 91.4358C15.0374 126.31 16.948 144.1 18.1954 144.805C19.0172 145.142 19.6263 145.297 20.0226 145.267C21.4097 145.165 22.0853 143.521 22.0494 140.336C22.1971 136.939 21.8834 129.989 21.1083 119.487L19.6824 100.167L18.3443 82.0364C15.5298 41.203 14.6146 19.3553 15.5988 16.4934C18.5366 7.70974 24.0676 3.01809 32.1917 2.41849C39.3251 1.892 42.9503 2.42136 43.0673 4.00657C43.0819 4.20471 42.4469 5.04851 41.1622 6.53794C40.0318 7.41828 38.9267 9.9902 37.8467 14.2537L41.1502 10.4238C46.5163 4.84777 54.7476 1.65029 65.8439 0.831316C78.1292 -0.0754048 87.1736 2.34513 92.977 8.09292C95.9705 10.8604 97.9659 13.602 98.9632 16.3176C99.9605 19.0332 100.686 23.4623 101.139 29.6049L101.49 34.3605C101.936 43.0937 101.384 49.1114 99.8342 52.4134C97.7343 56.3537 96.5925 58.4303 96.409 58.643C95.3078 59.9197 96.4781 60.9291 99.9198 61.6712C106.209 63.1994 111.128 66.4224 114.679 71.3403C117.79 75.693 119.798 84.012 120.705 96.2973L121.297 104.322L122.404 123.367L120.146 129.211C118.655 133.306 116.695 136.439 114.265 138.611C110.734 142.059 107.405 144.197 104.279 145.026C101.138 145.656 92.0446 146.626 76.9999 147.936L63.3275 148.945C54.2126 149.617 48.5361 149.638 46.298 149.006C43.8617 148.389 41.7811 148.543 40.0562 149.467C38.1479 150.604 34.3205 151.384 28.5742 151.809C22.8278 152.233 18.7292 152.037 16.2783 151.222C14.0401 150.59 12.5653 149.504 11.8539 147.962C10.6291 144.865 8.84681 127.464 6.50689 95.7604L5.12487 77.0352C1.76122 31.4608 0.52358 7.94345 1.41196 6.48328Z" fill="url(#paint0_linear_1528_1926)" stroke="#FCF0AB" stroke-width="1.0644"/>
<defs>
<linearGradient id="paint0_linear_1528_1926" x1="284.59" y1="-25.3489" x2="284.59" y2="252.13" gradientUnits="userSpaceOnUse">
<stop stop-color="#FFC411"/>
<stop offset="0.221154" stop-color="#CD9C1A"/>
<stop offset="0.543269" stop-color="#BD6229"/>
<stop offset="0.822115" stop-color="#5D2F24"/>
<stop offset="1" stop-color="#5D2F24"/>
</linearGradient>
</defs>
</svg>
