<svg width="133" height="120" viewBox="0 0 133 120" fill="none" xmlns="http://www.w3.org/2000/svg">
<path d="M14.7563 2.59169C16.9235 1.93201 18.9008 1.57605 20.6882 1.52379C23.4687 1.4425 26.068 1.96282 28.4861 3.08477C31.3072 4.3937 33.0418 5.93319 33.6898 7.7032C34.77 10.6532 35.8506 27.2192 36.9318 57.4012C37.8492 88.7806 38.5181 104.862 38.9386 105.645C39.1662 106.632 39.5634 106.62 40.1302 105.61C40.5042 104.804 40.5837 100.727 40.3689 93.3782C40.3282 91.9879 40.1477 89.2104 39.8271 85.0455C39.7052 80.8748 39.6036 77.3993 39.5223 74.6188C39.4468 72.0369 39.2488 68.6636 38.9282 64.4987C38.8005 60.1294 38.7105 57.0511 38.6582 55.2636C38.217 40.1697 38.397 29.3313 39.1984 22.7483C40.1985 16.1596 42.1444 11.3321 45.0364 8.26594C48.3023 4.39376 52.9143 2.37058 58.8724 2.19639C61.2557 2.12671 63.3527 2.46294 65.1634 3.2051C69.7835 4.85899 73.3636 8.33225 75.9036 13.6249C76.9605 15.7805 77.914 24.598 78.7641 40.0775C79.6084 55.3584 80.2425 70.2479 80.6664 84.746C81.0902 99.2441 81.4043 106.59 81.6087 106.782L81.9154 107.072C82.9084 107.042 83.092 92.9242 82.466 64.7166C81.9853 41.4742 81.8681 27.2653 82.1143 22.0899C82.5533 16.7102 84.0144 12.2945 86.4976 8.84274C89.9273 3.77313 94.7205 1.14832 100.877 0.968317C109.02 0.730253 115.091 4.42884 119.091 12.0641C121.182 15.5809 122.587 29.6527 123.307 54.2796L123.786 70.6644L124.091 81.0911C124.579 97.7739 125.033 106.507 125.453 107.289C125.897 108.867 127.12 109.924 129.124 110.462C131.127 111 132.138 111.566 132.155 112.162C132.178 112.957 130.715 113.894 127.765 114.974C124.809 115.856 122.14 116.331 119.756 116.401C116.38 116.5 113.874 115.778 112.239 114.235C109.786 111.922 108.3 108.685 107.781 104.526C107.256 100.169 106.686 87.4638 106.07 66.4118C105.298 39.9975 104.667 25.2073 104.177 22.0412C102.986 15.3177 100.206 12.0199 95.8372 12.1476C90.6735 12.2986 87.6264 16.8601 86.6961 25.8321C86.415 29.8158 86.6519 44.7169 87.4067 70.5354C88.1732 96.7511 87.9896 110.869 86.8561 112.89C85.5529 115.91 82.9153 117.478 78.9433 117.594C74.574 117.722 71.0549 116.334 68.3859 113.43C66.5462 111.695 65.3871 109.443 64.9086 106.674C64.4301 103.905 64.0486 97.6552 63.7641 87.9236L63.1631 67.3681L62.7102 51.877C62.1006 31.0236 60.657 19.04 58.3794 15.9262C56.9253 13.7822 55.0066 12.745 52.6234 12.8147C48.0555 12.9483 45.0845 16.7124 43.7105 24.1072C43.2134 27.5009 43.1757 43.2051 43.5972 71.2199L44.2381 113.54L41.6353 116.299C39.6957 117.946 37.6336 118.802 35.449 118.866C30.6825 119.005 26.6378 116.639 23.315 111.766L21.1252 108.252L19.1619 61.4987C17.8589 30.5281 16.6848 14.1636 15.6395 12.4052C14.8219 11.634 13.9165 11.2629 12.9235 11.2919C11.5333 11.3326 9.5705 12.1851 7.0351 13.8494C3.13851 16.5474 1.16988 17.2012 1.12923 15.811C1.1002 14.818 3.01942 12.476 6.88698 8.78497C10.7545 5.09398 13.3776 3.02955 14.7563 2.59169Z" fill="url(#paint0_linear_1528_1937)" stroke="#FCF0AB" stroke-width="1.0644"/>
<defs>
<linearGradient id="paint0_linear_1528_1937" x1="150.041" y1="-5.04245" x2="150.041" y2="226.572" gradientUnits="userSpaceOnUse">
<stop stop-color="#FFC411"/>
<stop offset="0.221154" stop-color="#CD9C1A"/>
<stop offset="0.543269" stop-color="#BD6229"/>
<stop offset="0.822115" stop-color="#5D2F24"/>
<stop offset="1" stop-color="#5D2F24"/>
</linearGradient>
</defs>
</svg>
