<svg width="87" height="217" viewBox="0 0 87 217" fill="none" xmlns="http://www.w3.org/2000/svg">
<path d="M13.8874 2.23909C16.0854 1.07001 18.6745 0.501135 21.6547 0.532478C24.8335 0.56591 27.3107 1.18805 29.0863 2.39892C30.8619 3.60979 32.3342 5.31424 33.5033 7.51224C34.6703 9.9089 34.957 39.3195 34.3636 95.744C33.6386 164.685 34.0707 199.164 35.6601 199.181C37.0509 199.195 37.8603 197.813 38.0882 195.034C38.7344 190.272 39.395 165.242 40.0701 119.946C40.9794 71.2741 41.6744 42.9667 42.1554 35.0238C42.8266 27.8777 43.9685 23.2202 45.5809 21.0515C47.1933 18.8827 50.5876 17.3288 55.7636 16.3898C59.5448 15.8335 61.4385 15.2573 61.4447 14.6612C61.4489 14.2639 62.2457 14.0736 63.8352 14.0903C66.0206 14.1133 68.4016 14.4363 70.9782 15.0595C77.3233 16.3185 81.6524 20.338 83.9655 27.1181C85.3208 30.5103 86.0277 38.8631 86.0864 52.1766L86.0111 59.329C85.8649 73.2365 84.3812 82.063 81.56 85.8086C78.7346 89.9516 74.6366 92.2929 69.2661 92.8325L66.8819 92.8074C57.9414 92.7134 52.7099 89.4792 51.1874 83.1048C50.4177 80.7123 50.3319 79.4198 50.93 79.2274C51.5282 79.035 52.9095 79.9437 55.0741 81.9535C57.636 83.9674 59.9104 84.9848 61.8971 85.0057C63.6852 85.0245 64.687 84.2403 64.9023 82.6529C65.3164 81.0677 65.6165 71.4339 65.8025 53.7516L66.0845 26.9301L63.7223 24.8189C61.7502 23.4072 59.273 22.7851 56.2907 22.9524C52.909 23.3143 50.6148 24.1843 49.4081 25.5625C48.4022 26.7441 47.6744 29.8163 47.2248 34.7791C46.7585 41.3312 46.053 70.632 45.1082 122.681C44.4978 161.819 44.0557 184.963 43.7818 192.113C43.5058 199.462 42.9601 204.126 42.1445 206.104C40.1075 210.852 37.2937 213.902 33.7028 215.255C31.3104 216.025 29.6174 216.404 28.624 216.394C22.465 216.329 18.5342 212.214 16.8318 204.05C16.4658 201.065 16.3003 169.57 16.3353 109.563C16.3724 49.3571 16.2048 18.0601 15.8325 15.6718C15.2615 13.2814 14.1813 12.0778 12.5919 12.0611C11.3999 12.0486 9.50515 12.7241 6.90772 14.0877C4.31028 15.4512 2.61415 16.1289 1.81944 16.1205C1.42209 16.1163 1.2255 15.9156 1.22968 15.5182C1.24222 14.3261 2.75533 12.1563 5.76892 9.00885C8.78252 5.86135 11.4887 3.60476 13.8874 2.23909Z" fill="url(#paint0_linear_1528_1936)" stroke="#FCF0AB" stroke-width="1.0644"/>
<defs>
<linearGradient id="paint0_linear_1528_1936" x1="10.0406" y1="4.95731" x2="10.0406" y2="236.572" gradientUnits="userSpaceOnUse">
<stop stop-color="#FFC411"/>
<stop offset="0.221154" stop-color="#CD9C1A"/>
<stop offset="0.543269" stop-color="#BD6229"/>
<stop offset="0.822115" stop-color="#5D2F24"/>
<stop offset="1" stop-color="#5D2F24"/>
</linearGradient>
</defs>
</svg>
