<svg width="85" height="118" viewBox="0 0 85 118" fill="none" xmlns="http://www.w3.org/2000/svg">
<path d="M9.25631 3.2262C12.0943 1.95428 14.8036 1.37295 17.3843 1.4822C21.7515 1.66709 24.7486 3.68323 26.3755 7.53058C27.284 9.5577 27.5282 15.534 27.1079 25.4596L26.4903 40.0501L26.1751 47.4943C25.3935 65.9558 25.5336 79.087 26.5954 86.8877C27.6657 94.49 29.8419 99.4543 33.1241 101.781C34.4801 102.634 36.0514 103.098 37.838 103.174C40.8157 103.3 43.6494 102.127 46.3393 99.6556C49.0292 97.1842 50.8552 93.9802 51.8173 90.0436C52.3824 86.0902 53.3594 72.4098 54.7481 49.0023C55.7366 30.3506 56.5134 19.0481 57.0785 15.0947C57.6436 11.1413 58.8657 8.11059 60.7447 6.00261C62.1931 4.67186 63.7113 4.0401 65.2994 4.10733C65.895 4.13255 67.367 4.5926 69.7155 5.48749C71.8571 6.57249 73.192 7.92164 73.7203 9.53494C74.3799 12.7447 74.1173 28.3447 72.9323 56.3347C71.6465 86.7069 71.4704 102.609 72.4041 104.04C73.5111 106.076 74.6602 107.119 75.8513 107.169C77.2409 107.228 78.7591 106.596 80.406 105.274C82.8638 103.588 84.0842 102.944 84.0674 103.341C84.0506 103.738 83.5039 104.908 82.4273 106.851C80.7048 109.96 78.3126 112.444 75.2509 114.303C72.1976 115.964 69.2814 116.735 66.5023 116.617L65.9067 116.592C62.532 116.449 60.6225 114.579 60.1783 110.98C59.734 107.382 59.9321 95.6571 60.7725 75.806L61.2011 65.682C62.3441 38.6845 62.7313 22.4932 62.3626 17.1082C62.0749 14.5108 61.8317 13.2078 61.6332 13.1994C61.6332 13.1994 61.4137 13.6873 60.9746 14.663C60.4852 16.8299 59.4999 30.7088 58.0187 56.2999L56.0822 94.997L53.5109 99.3626C47.6889 110.054 38.7149 115.342 26.5889 115.226C16.8619 114.814 10.4219 109.57 7.26887 99.493C6.38557 96.8704 6.19604 89.6037 6.70029 77.693L7.60793 56.2539C8.82652 27.4698 8.67545 12.2501 7.15459 10.5947C6.96449 10.3878 6.36472 10.4619 5.35536 10.8169C4.3544 10.9734 3.45268 11.1341 2.65024 11.2989C1.85619 11.2653 1.37252 10.9466 1.19922 10.3426C1.24124 9.35006 2.08992 8.09336 3.74524 6.5725C5.40056 5.05165 7.23758 3.9362 9.25631 3.2262Z" fill="url(#paint0_linear_1528_1935)" stroke="#FCF0AB" stroke-width="1.0644"/>
<defs>
<linearGradient id="paint0_linear_1528_1935" x1="-84.9593" y1="-8.04286" x2="-84.9593" y2="223.572" gradientUnits="userSpaceOnUse">
<stop stop-color="#FFC411"/>
<stop offset="0.221154" stop-color="#CD9C1A"/>
<stop offset="0.543269" stop-color="#BD6229"/>
<stop offset="0.822115" stop-color="#5D2F24"/>
<stop offset="1" stop-color="#5D2F24"/>
</linearGradient>
</defs>
</svg>
