<svg width="92" height="116" viewBox="0 0 92 116" fill="none" xmlns="http://www.w3.org/2000/svg">
<path d="M8.29061 5.00776C11.0159 3.50947 13.669 2.70994 16.25 2.60917C20.6178 2.43862 23.7688 4.20457 25.7029 7.90702C26.7731 9.85363 27.502 15.7904 27.8896 25.7173L28.4594 40.3098L28.7501 47.7549C29.4711 66.2189 30.6775 79.2952 32.3696 86.9839C34.054 94.4741 36.6264 99.2453 40.0868 101.297C41.5075 102.037 43.1113 102.372 44.8982 102.303C47.8762 102.186 50.6054 100.787 53.0856 98.1055C55.5658 95.4237 57.1254 92.082 57.7646 88.0802C58.0066 84.0939 57.8688 70.3794 57.3511 46.9364C56.821 28.2662 56.6769 16.9379 56.919 12.9516C57.161 8.96538 58.1327 5.84541 59.8343 3.59173C61.1698 2.1477 62.6317 1.39468 64.22 1.33266C64.8156 1.30941 66.3202 1.64834 68.7336 2.34946C70.9563 3.25688 72.3964 4.4931 73.0541 6.05815C73.9722 9.20374 74.9779 24.7734 76.0709 52.7672C77.257 83.1435 78.3735 99.0071 79.4204 100.358C80.6891 102.297 81.9192 103.243 83.1104 103.197C84.5002 103.142 85.962 102.389 87.4961 100.938C89.8088 99.0577 90.9729 98.3163 90.9884 98.7134C91.0039 99.1104 90.554 100.321 89.6389 102.345C88.1746 105.584 85.9922 108.254 83.0916 110.356C80.1833 112.259 77.3395 113.265 74.56 113.373L73.9643 113.396C70.5892 113.528 68.534 111.819 67.7989 108.268C67.0637 104.718 66.3086 93.0159 65.5334 73.1621L65.138 63.0367C64.0837 36.0356 63.1541 19.8664 62.3492 14.5292C61.8514 11.9637 61.5032 10.6848 61.3046 10.6926C61.3046 10.6926 61.1255 11.1967 60.7672 12.2049C60.4553 14.4043 60.6009 28.3174 61.2039 53.9442L62.4177 92.6707L60.2097 97.2308C55.2755 108.36 46.7608 114.359 34.6655 115.229C24.9372 115.609 18.0924 110.905 14.1311 101.118C13.0377 98.5756 12.2584 91.3483 11.7933 79.4361L10.956 57.994C9.83193 29.2061 8.44476 14.049 6.79444 12.5227C6.58815 12.3319 5.99643 12.4544 5.01925 12.8903C4.03431 13.1276 3.14866 13.361 2.36226 13.5905C1.56811 13.6215 1.06015 13.3431 0.838354 12.7553C0.799594 11.7626 1.54333 10.4411 3.06961 8.79075C4.5959 7.14043 6.33625 5.87943 8.29061 5.00776Z" fill="url(#paint0_linear_1528_1925)" stroke="#FCF0AB" stroke-width="1.0644"/>
<defs>
<linearGradient id="paint0_linear_1528_1925" x1="158.59" y1="-54.3491" x2="158.59" y2="223.13" gradientUnits="userSpaceOnUse">
<stop stop-color="#FFC411"/>
<stop offset="0.221154" stop-color="#CD9C1A"/>
<stop offset="0.543269" stop-color="#BD6229"/>
<stop offset="0.822115" stop-color="#5D2F24"/>
<stop offset="1" stop-color="#5D2F24"/>
</linearGradient>
</defs>
</svg>
