<svg width="80" height="219" viewBox="0 0 80 219" fill="none" xmlns="http://www.w3.org/2000/svg">
<path d="M18.5153 1.33985C19.5258 0.98801 21.1227 0.861723 23.3061 0.960987C29.6575 1.24975 33.9204 3.73083 36.0946 8.40425C37.0058 10.2357 37.0238 20.7779 36.1485 40.0308C35.7966 47.7717 35.2821 65.6488 34.6052 93.6621C34.217 110.948 34.4921 120.209 35.4304 121.445C37.1085 123.908 38.94 125.185 40.9248 125.275C43.7036 125.402 46.2794 123.43 48.6522 119.361C50.1589 116.844 51.5709 101.096 52.8884 72.1177L53.1998 65.27C54.3549 39.8641 55.5865 25.8981 56.8947 23.3719C59.2495 19.7 62.2132 17.9453 65.7859 18.1077C67.9693 18.207 70.4142 19.1137 73.1208 20.8279C73.3103 21.0354 73.5989 21.2474 73.9869 21.464C76.504 22.9707 77.9971 25.1269 78.4662 27.9328C79.0797 31.9385 78.8405 48.1375 77.7485 76.5297L77.4372 83.3774L76.5709 102.432C74.4593 148.877 72.3433 177.919 70.2231 189.557C69.1404 195.873 66.1089 201.304 61.1287 205.851C53.2434 213.05 42.029 216.916 27.4856 217.448C26.8901 217.421 26.0962 217.385 25.1038 217.34C24.3008 217.502 23.7009 217.575 23.3039 217.556C18.7388 217.349 14.8458 215.481 11.625 211.954C7.84479 207.605 6.08111 198.276 6.33387 183.967C6.51439 175.622 6.36107 170.245 5.87391 167.836C5.58523 165.436 4.45297 164.092 2.47716 163.803C-0.680536 163.262 -0.0129174 161.701 4.48006 159.121C7.15059 157.253 9.97451 156.387 12.9518 156.523C15.5321 156.64 17.5845 157.429 19.1093 158.891C22.1496 162.013 23.363 170.322 22.7494 183.819C22.1538 196.919 23.0153 204.217 25.334 205.715C25.7129 206.13 26.6963 206.374 28.2842 206.446C32.8493 206.653 39.5887 204.971 48.5025 201.398L54.5788 198.99L56 180.855C56.812 171.743 58.3099 143.17 60.4937 95.1374C62.488 51.2725 63.2958 29.1326 62.9168 28.7175C62.3665 27.698 61.5771 27.5627 60.5486 28.3115C59.7276 28.8709 58.541 44.0323 56.989 73.7959C55.6535 98.7958 54.5796 113.664 53.7676 118.401C52.9556 123.137 50.7813 127.215 47.2446 130.634C43.5095 134.045 39.1609 135.637 34.1988 135.411C27.8473 135.123 23.0025 132.317 19.6644 126.994C17.2556 123.105 15.9655 118.671 15.7941 113.691C15.6318 108.512 16.074 92.2229 17.1208 64.8231C18.4654 30.8734 18.7679 13.285 18.0281 12.058C17.2883 10.831 16.2237 10.1859 14.8343 10.1227C13.6434 10.0686 11.6225 10.7723 8.77152 12.2338C6.11002 13.9029 4.28302 14.7148 3.2906 14.6697C2.89363 14.6517 2.70416 14.4441 2.72221 14.0472C2.76733 13.0548 3.93571 11.4173 6.22732 9.13474C9.98953 5.12901 14.0855 2.53072 18.5153 1.33985Z" fill="url(#paint0_linear_1528_1922)" stroke="#FCF0AB" stroke-width="1.0644"/>
<defs>
<linearGradient id="paint0_linear_1528_1922" x1="-98.4101" y1="-36.3486" x2="-98.4101" y2="241.131" gradientUnits="userSpaceOnUse">
<stop stop-color="#FFC411"/>
<stop offset="0.221154" stop-color="#CD9C1A"/>
<stop offset="0.543269" stop-color="#BD6229"/>
<stop offset="0.822115" stop-color="#5D2F24"/>
<stop offset="1" stop-color="#5D2F24"/>
</linearGradient>
</defs>
</svg>
